M48
;DRILL file {KiCad 4.0.7} date 05/06/18 22:33:32
;FORMAT={-:-/ absolute / metric / decimal}
FMAT,2
METRIC,TZ
T1C0.300
T2C0.330
T3C0.400
T4C0.500
T5C1.000
T6C3.200
%
G90
G05
M71
T1
X141.Y-62.9
X141.4Y-60.8
X141.45Y-70.605
X142.4Y-67.1
X142.9Y-59.5
X142.9Y-62.5
X142.95Y-61.55
X144.461Y-57.605
X144.5Y-64.9
X144.52Y-73.4
X144.8Y-62.23
X145.3Y-60.7
X146.48Y-67.9
X146.5Y-66.9
X146.5Y-72.45
X146.52Y-59.5
X147.25Y-78.1
X147.3Y-70.8
X147.7Y-57.3
X148.2Y-82.4
X148.369Y-77.057
X148.5Y-72.
X148.5Y-74.95
X148.79Y-62.194
X148.796Y-61.019
X148.9Y-58.4
X149.05Y-82.4
X149.45Y-79.65
X149.664Y-62.975
X150.12Y-57.2
X150.2Y-62.405
X150.893Y-62.797
X151.6Y-55.1
X151.6Y-63.125
X151.98Y-60.3
X152.24Y-73.121
X152.3Y-63.5
X152.5Y-58.4
X152.6Y-72.4
X153.15Y-82.4
X153.3Y-66.9
X153.5Y-77.45
X153.55Y-76.65
X153.6Y-79.35
X153.72Y-57.2
X154.Y-82.4
X154.3Y-64.45
X154.8Y-66.5
X155.1Y-71.2
X155.3Y-55.1
X155.45Y-73.7
X155.5Y-64.9
X155.9Y-83.25
X155.95Y-70.
X156.1Y-58.4
X156.148Y-73.351
X156.3Y-66.5
X156.8Y-79.05
X156.9Y-64.9
X157.25Y-71.
X157.32Y-57.2
X157.8Y-66.5
X157.916Y-70.513
X157.95Y-80.85
X158.5Y-64.9
X158.52Y-81.9
X158.62Y-70.005
X158.8Y-55.1
X159.25Y-72.9
X159.3Y-66.5
X159.6Y-64.91
X159.7Y-58.4
X159.85Y-73.4
X160.05Y-76.45
X160.821Y-81.641
X160.92Y-57.2
X161.266Y-67.628
X161.35Y-83.4
X161.45Y-81.05
X161.55Y-73.75
X161.55Y-74.65
X161.65Y-69.75
X161.771Y-66.427
X162.3Y-67.
X162.4Y-55.1
X162.64Y-76.555
X162.84Y-77.299
X163.3Y-58.4
X163.39Y-82.262
X163.675Y-81.537
X163.76Y-73.6
X163.772Y-70.237
X163.86Y-82.886
X164.4Y-63.98
X164.4Y-63.2
X164.422Y-83.456
X164.431Y-73.202
X164.5Y-80.85
X164.52Y-57.2
X164.63Y-80.
X164.95Y-84.03
X165.114Y-64.34
X165.4Y-63.2
X165.45Y-76.6
X165.855Y-64.7
X166.Y-55.1
X166.1Y-79.4
X166.4Y-63.2
X166.587Y-65.06
X166.9Y-58.4
X167.329Y-66.581
X167.4Y-63.2
X168.1Y-66.7
X168.1Y-76.9
X168.12Y-57.2
X168.265Y-70.115
X168.3Y-63.2
X168.65Y-72.91
X169.03Y-67.6
X169.3Y-63.2
X169.55Y-82.
X169.6Y-55.1
X170.154Y-71.703
X170.2Y-82.57
X170.3Y-63.2
X170.3Y-70.005
X170.5Y-58.4
X170.6Y-66.597
X171.3Y-63.2
X171.35Y-69.95
X171.378Y-74.652
X171.55Y-71.85
X171.72Y-57.2
X171.8Y-75.4
X172.1Y-66.9
X172.121Y-70.069
X172.3Y-63.2
X172.4Y-67.8
X173.1Y-63.8
X173.2Y-55.1
X174.033Y-65.623
X174.05Y-72.35
X174.05Y-73.1
X174.05Y-73.9
X174.1Y-58.4
X174.1Y-79.
X174.62Y-64.5
X174.65Y-71.85
X174.9Y-77.4
X174.9Y-78.2
X174.9Y-79.
X174.9Y-79.8
X175.123Y-75.758
X175.32Y-57.2
X175.4Y-71.85
X175.45Y-75.05
X175.7Y-78.2
X175.7Y-79.
X175.7Y-79.8
X175.75Y-77.4
X175.874Y-70.73
X175.922Y-68.477
X176.1Y-64.3
X176.25Y-72.65
X176.25Y-73.45
X176.25Y-74.25
X176.25Y-75.05
X176.3Y-62.2
X176.3Y-65.45
X176.307Y-67.799
X176.318Y-66.182
X176.55Y-77.4
X176.55Y-78.2
X176.55Y-79.
X176.55Y-79.8
X177.65Y-68.
X177.7Y-58.4
X178.6Y-66.05
X178.92Y-57.2
X179.1Y-65.55
X179.2Y-67.85
X179.682Y-69.058
X180.281Y-69.846
X180.3Y-82.45
X180.4Y-55.1
X181.3Y-58.4
X181.8Y-62.2
X181.8Y-62.95
X182.1Y-66.
X182.52Y-57.2
X182.85Y-66.
X183.038Y-55.033
X183.6Y-66.
X183.9Y-51.1
X183.9Y-51.9
X183.9Y-52.7
X183.9Y-53.5
X183.9Y-54.3
X184.17Y-67.1
X184.17Y-68.85
X184.4Y-66.35
X184.535Y-56.021
X184.6Y-71.3
X184.65Y-60.68
X184.7Y-51.1
X184.7Y-51.9
X184.7Y-52.7
X184.7Y-53.5
X184.7Y-54.3
X184.7Y-73.3
X184.7Y-74.4
X185.Y-79.
X185.Y-80.9
X185.Y-81.65
X185.Y-82.4
X185.315Y-55.97
X185.35Y-71.3
X185.5Y-51.1
X185.5Y-51.9
X185.5Y-52.7
X185.5Y-53.5
X185.5Y-54.3
X185.5Y-73.3
X185.5Y-74.4
X185.75Y-79.
X185.75Y-80.9
X185.75Y-81.65
X185.75Y-82.4
X186.1Y-71.3
X186.25Y-73.3
X186.25Y-74.4
X186.3Y-51.1
X186.3Y-51.9
X186.3Y-52.7
X186.3Y-53.5
X186.3Y-54.3
X186.5Y-79.
X186.5Y-80.9
X186.5Y-81.65
X186.5Y-82.4
X186.634Y-58.352
X186.85Y-71.3
X187.Y-73.3
X187.Y-74.4
X187.1Y-51.1
X187.1Y-51.9
X187.1Y-52.7
X187.1Y-53.5
X187.1Y-54.3
X187.25Y-62.2
X187.25Y-79.
X187.25Y-80.9
X187.25Y-81.65
X187.25Y-82.4
X187.5Y-59.4
X187.6Y-71.3
X187.695Y-65.85
X187.75Y-73.3
X187.75Y-74.4
X187.9Y-51.1
X187.9Y-51.9
X187.9Y-52.7
X187.9Y-53.5
X187.9Y-54.3
X187.95Y-62.2
X188.Y-79.
X188.Y-80.9
X188.Y-81.65
X188.Y-82.4
X188.5Y-73.3
X188.5Y-74.4
X188.7Y-51.1
X188.7Y-51.9
X188.7Y-52.7
X188.7Y-53.5
X188.7Y-54.3
X188.75Y-79.
X188.75Y-80.9
X188.75Y-81.65
X188.75Y-82.4
X188.88Y-64.4
X189.25Y-73.3
X189.25Y-74.4
X189.3Y-66.4
X189.3Y-77.9
X189.5Y-51.1
X189.5Y-51.9
X189.5Y-52.7
X189.5Y-53.5
X189.5Y-54.3
X189.55Y-56.25
X190.Y-73.3
X190.Y-74.4
X190.05Y-78.15
X190.4Y-67.75
X190.75Y-73.3
X190.75Y-74.4
X190.8Y-78.15
X190.8Y-80.85
X190.8Y-81.6
X190.8Y-82.35
X191.5Y-51.1
X191.5Y-51.9
X191.5Y-52.7
X191.5Y-53.5
X191.5Y-54.3
X191.5Y-73.3
X191.5Y-74.4
X191.55Y-78.15
X191.55Y-80.85
X191.55Y-81.6
X191.55Y-82.35
X192.2Y-67.25
X192.2Y-68.
X192.25Y-73.3
X192.3Y-51.1
X192.3Y-51.9
X192.3Y-52.7
X192.3Y-53.5
X192.3Y-54.3
X192.3Y-78.15
X192.3Y-80.85
X192.3Y-81.6
X192.3Y-82.35
X192.4Y-66.55
X192.85Y-55.85
X193.Y-73.3
X193.05Y-78.15
X193.05Y-80.85
X193.05Y-81.6
X193.05Y-82.35
X193.1Y-51.1
X193.1Y-51.9
X193.1Y-52.7
X193.1Y-53.5
X193.1Y-54.3
X193.15Y-66.55
X193.7Y-61.05
X193.8Y-79.35
X193.8Y-80.1
X193.8Y-80.85
X193.8Y-81.6
X193.8Y-82.35
X193.85Y-57.8
X193.9Y-51.1
X193.9Y-51.9
X193.9Y-52.7
X193.9Y-53.5
X193.9Y-54.3
X193.9Y-66.55
X194.4Y-75.35
X194.4Y-76.1
X194.4Y-76.85
X194.4Y-77.6
X194.55Y-79.35
X194.55Y-80.1
X194.55Y-80.85
X194.55Y-81.6
X194.65Y-66.55
X194.7Y-51.1
X194.7Y-51.9
X194.7Y-52.7
X194.7Y-53.5
X194.7Y-54.3
X195.15Y-75.35
X195.15Y-76.1
X195.15Y-76.85
X195.15Y-77.6
X195.3Y-79.35
X195.3Y-80.1
X195.3Y-80.85
X195.4Y-66.55
X195.5Y-51.1
X195.5Y-51.9
X195.5Y-52.7
X195.5Y-53.5
X195.5Y-54.3
X195.9Y-75.35
X195.9Y-76.1
X195.9Y-76.85
X195.9Y-77.6
X196.15Y-66.55
X196.3Y-51.1
X196.3Y-51.9
X196.3Y-52.7
X196.3Y-53.5
X196.3Y-54.3
X196.644Y-77.594
X196.65Y-75.35
X196.65Y-76.1
X196.65Y-76.85
X196.9Y-66.55
X197.1Y-51.1
X197.1Y-51.9
X197.1Y-52.7
X197.1Y-53.5
X197.1Y-54.3
X197.1Y-67.25
X197.1Y-68.
X197.4Y-75.35
X197.4Y-76.1
X198.651Y-77.1
X198.78Y-75.3
T2
X176.8Y-55.1
T3
X150.15Y-69.6
X151.7Y-71.4
T5
X149.2Y-52.8
X151.7Y-52.8
X154.2Y-52.8
X156.7Y-52.8
X159.2Y-52.8
X161.7Y-52.8
X164.2Y-52.8
X166.7Y-52.8
X169.2Y-52.8
X171.7Y-52.8
X174.2Y-52.8
X176.7Y-52.8
X179.2Y-52.8
X200.66Y-58.64
X200.66Y-61.18
X200.66Y-63.72
X200.66Y-66.26
X200.66Y-68.8
X200.66Y-71.34
X200.66Y-73.88
X200.66Y-76.42
X203.2Y-58.64
X203.2Y-61.18
X203.2Y-63.72
X203.2Y-66.26
X203.2Y-68.8
X203.2Y-71.34
X203.2Y-73.88
X203.2Y-76.42
T6
X143.5Y-53.5
X143.5Y-81.5
X201.5Y-53.5
X201.5Y-81.5
T4
X147.95Y-80.6G85X148.65Y-80.6
G05
X150.55Y-82.75G85X151.65Y-82.75
G05
X153.55Y-80.6G85X154.25Y-80.6
G05
T0
M30
