M48
;DRILL file {KiCad 4.0.7} date 02/25/18 21:57:16
;FORMAT={3:3/ absolute / metric / suppress leading zeros}
FMAT,2
METRIC,TZ
T1C0.400
T2C0.500
T3C0.600
T4C1.000
T5C1.200
T6C3.200
%
G90
G05
M71
T1
X141700Y-60200
X141700Y-76700
X141731Y-61050
X142100Y-70600
X142850Y-62500
X142900Y-61600
X143000Y-59400
X143800Y-75800
X144300Y-57900
X144800Y-62400
X144800Y-76900
X144900Y-69800
X145300Y-60200
X145340Y-61050
X146000Y-64300
X146575Y-59400
X146800Y-76300
X147800Y-57900
X148142Y-58696
X148652Y-60984
X148940Y-58750
X149000Y-70200
X149135Y-69300
X149324Y-77515
X150200Y-57100
X151300Y-71990
X151400Y-55600
X151700Y-69100
X151700Y-70700
X152100Y-73100
X152500Y-57900
X152540Y-58750
X152800Y-72000
X153800Y-57100
X154200Y-78600
X154800Y-63800
X154800Y-66500
X155000Y-55600
X155258Y-72075
X155300Y-79500
X155400Y-74000
X155660Y-69924
X156050Y-64240
X156100Y-57900
X156140Y-58750
X157000Y-72900
X157375Y-57100
X157550Y-81100
X158600Y-55600
X158650Y-74000
X159000Y-64953
X159550Y-70150
X159550Y-75050
X159700Y-57900
X159740Y-58750
X159800Y-81500
X159900Y-71000
X160250Y-76000
X160350Y-70150
X161000Y-57100
X161200Y-73400
X161200Y-74900
X161217Y-67702
X161972Y-64328
X161974Y-67478
X162200Y-55600
X162200Y-68800
X162400Y-84200
X162616Y-67017
X163300Y-57900
X163340Y-58750
X163396Y-78305
X163642Y-62858
X163800Y-77450
X164200Y-67900
X164400Y-71900
X164400Y-73500
X164446Y-63026
X164573Y-81543
X164600Y-57100
X164741Y-82348
X164900Y-67100
X164978Y-83125
X165227Y-62850
X165250Y-73050
X165600Y-69100
X165600Y-76300
X165800Y-55600
X166000Y-62600
X166370Y-63430
X166500Y-70400
X166900Y-57900
X166940Y-58750
X167100Y-79300
X167250Y-63250
X167500Y-70500
X167697Y-63913
X168200Y-57100
X168200Y-82200
X168250Y-63250
X168503Y-64009
X168600Y-77300
X168718Y-75877
X168900Y-81700
X168900Y-82950
X169250Y-63250
X169400Y-55600
X169750Y-68935
X169765Y-64402
X169800Y-71100
X169900Y-72550
X170000Y-81900
X170000Y-82950
X170202Y-66798
X170250Y-63250
X170478Y-57929
X170500Y-69260
X170540Y-58750
X170600Y-75600
X170740Y-63869
X170793Y-82743
X170800Y-72700
X170950Y-67250
X171200Y-64600
X171250Y-63250
X171341Y-65443
X171800Y-57100
X171800Y-77200
X171800Y-78000
X172250Y-63250
X172300Y-71500
X172300Y-72150
X172500Y-67250
X172600Y-76400
X172600Y-77200
X172600Y-78000
X172900Y-64500
X172950Y-71500
X172950Y-72150
X173000Y-55600
X173250Y-63250
X173250Y-68935
X173400Y-76400
X173400Y-77200
X173400Y-78000
X173600Y-71500
X173600Y-72150
X174100Y-57900
X174140Y-58750
X174200Y-76400
X174200Y-77200
X174200Y-78000
X174250Y-71500
X174250Y-72150
X174250Y-63250
X174500Y-81900
X175250Y-70750
X175350Y-63400
X175400Y-57100
X176400Y-64050
X176500Y-55600
X176900Y-65500
X177700Y-57900
X177740Y-58750
X178500Y-62200
X179000Y-57100
X179200Y-65700
X179900Y-65700
X179900Y-69800
X180000Y-68300
X180150Y-84500
X180200Y-55600
X180600Y-65500
X180800Y-64200
X180800Y-64850
X181100Y-67000
X181300Y-57900
X181300Y-83875
X181340Y-58750
X182400Y-64000
X182400Y-65000
X182600Y-57100
X182900Y-84550
X183400Y-66300
X183400Y-67100
X183700Y-55600
X184200Y-66300
X184200Y-67100
X185000Y-58700
X185000Y-67100
X185200Y-56650
X185800Y-67100
X185900Y-59350
X185982Y-56482
X186600Y-67100
X187021Y-61921
X187500Y-68800
X188200Y-66200
X188200Y-75400
X188500Y-63000
X188600Y-64300
X189700Y-56000
X189800Y-60400
X189900Y-58700
X190050Y-63000
X190300Y-68200
X191100Y-57350
X192100Y-56100
X192800Y-67200
X192800Y-67900
X192800Y-68600
X192800Y-69300
X192800Y-72500
X193000Y-70700
X193100Y-65900
X193200Y-64100
X193200Y-64700
X193200Y-65300
X193400Y-56100
X193500Y-57800
X194600Y-70500
X194600Y-71100
X194600Y-72800
X194600Y-73400
X194800Y-72200
X194900Y-71600
X195200Y-64600
X196200Y-57300
T3
X148700Y-82400
X149300Y-79400
X149400Y-83600
X151100Y-83900
X152500Y-77600
X152700Y-79300
X152700Y-83600
X153500Y-82400
X154200Y-64600
X158100Y-63425
X177700Y-81600
X178200Y-80900
X178700Y-81600
X179300Y-80900
X180050Y-81300
X180800Y-80900
X181550Y-81300
X182300Y-80900
X183600Y-51000
X183600Y-52200
X183600Y-53300
X184800Y-51000
X184800Y-52200
X184800Y-53300
X184800Y-54500
X185900Y-51000
X185900Y-52200
X185900Y-53300
X185900Y-54500
X187100Y-51000
X187100Y-52200
X187100Y-53300
X187100Y-54500
X188300Y-51000
X188300Y-52200
X188300Y-53300
X188300Y-54500
X189500Y-51000
X189500Y-52200
X189500Y-53300
X189500Y-54500
X191500Y-51000
X191500Y-52100
X191500Y-53300
X191500Y-54500
X192100Y-63160
X192700Y-51000
X192700Y-52100
X192700Y-53300
X192700Y-54500
X193900Y-51000
X193900Y-52100
X193900Y-53300
X193900Y-54500
X195100Y-51000
X195100Y-52100
X195100Y-53300
X195100Y-54500
X196300Y-51000
X196300Y-52100
X196300Y-53300
X196300Y-54500
X197500Y-51000
X197500Y-52100
X197500Y-53300
X197500Y-54500
T4
X143100Y-66600
X143100Y-73400
X145600Y-66600
X145600Y-73400
X148100Y-66600
X148100Y-73400
X149200Y-52800
X150600Y-66600
X150600Y-73400
X151700Y-52800
X154200Y-52800
X156700Y-52800
X159200Y-52800
X161700Y-52800
X164200Y-52800
X166700Y-52800
X169200Y-52800
X171700Y-52800
X174200Y-52800
X176700Y-52800
X179200Y-52800
X200660Y-58640
X200660Y-61180
X200660Y-63720
X200660Y-66260
X200660Y-68800
X200660Y-71340
X200660Y-73880
X200660Y-76420
X203200Y-58640
X203200Y-61180
X203200Y-63720
X203200Y-66260
X203200Y-68800
X203200Y-71340
X203200Y-73880
X203200Y-76420
T5
X187500Y-82400
X191000Y-82400
X194500Y-82400
T6
X143500Y-53500
X143500Y-81500
X201500Y-53500
X201500Y-81500
T2
X147950Y-80625G85X148650Y-80625
G05
X150550Y-82775G85X151650Y-82775
G05
X153550Y-80625G85X154250Y-80625
G05
T0
M30
