%TF.GenerationSoftware,KiCad,Pcbnew,4.0.7*%
%TF.CreationDate,2018-05-06T22:33:30+03:00*%
%TF.ProjectId,FlexiBMS,466C657869424D532E6B696361645F70,rev?*%
%TF.FileFunction,Legend,Bot*%
%FSLAX46Y46*%
G04 Gerber Fmt 4.6, Leading zero omitted, Abs format (unit mm)*
G04 Created by KiCad (PCBNEW 4.0.7) date 05/06/18 22:33:30*
%MOMM*%
%LPD*%
G01*
G04 APERTURE LIST*
%ADD10C,0.100000*%
%ADD11C,0.200000*%
%ADD12C,0.120000*%
%ADD13C,0.150000*%
G04 APERTURE END LIST*
D10*
D11*
X180719048Y-52728571D02*
X181480953Y-52728571D01*
X181100001Y-52347619D02*
X181100001Y-53109524D01*
X147019048Y-52828571D02*
X147780953Y-52828571D01*
X179390476Y-51452381D02*
X179961905Y-51452381D01*
X179676191Y-51452381D02*
X179676191Y-50452381D01*
X179771429Y-50595238D01*
X179866667Y-50690476D01*
X179961905Y-50738095D01*
X179009524Y-50547619D02*
X178961905Y-50500000D01*
X178866667Y-50452381D01*
X178628571Y-50452381D01*
X178533333Y-50500000D01*
X178485714Y-50547619D01*
X178438095Y-50642857D01*
X178438095Y-50738095D01*
X178485714Y-50880952D01*
X179057143Y-51452381D01*
X178438095Y-51452381D01*
X176890476Y-55052381D02*
X177461905Y-55052381D01*
X177176191Y-55052381D02*
X177176191Y-54052381D01*
X177271429Y-54195238D01*
X177366667Y-54290476D01*
X177461905Y-54338095D01*
X175938095Y-55052381D02*
X176509524Y-55052381D01*
X176223810Y-55052381D02*
X176223810Y-54052381D01*
X176319048Y-54195238D01*
X176414286Y-54290476D01*
X176509524Y-54338095D01*
X174390476Y-51452381D02*
X174961905Y-51452381D01*
X174676191Y-51452381D02*
X174676191Y-50452381D01*
X174771429Y-50595238D01*
X174866667Y-50690476D01*
X174961905Y-50738095D01*
X173771429Y-50452381D02*
X173676190Y-50452381D01*
X173580952Y-50500000D01*
X173533333Y-50547619D01*
X173485714Y-50642857D01*
X173438095Y-50833333D01*
X173438095Y-51071429D01*
X173485714Y-51261905D01*
X173533333Y-51357143D01*
X173580952Y-51404762D01*
X173676190Y-51452381D01*
X173771429Y-51452381D01*
X173866667Y-51404762D01*
X173914286Y-51357143D01*
X173961905Y-51261905D01*
X174009524Y-51071429D01*
X174009524Y-50833333D01*
X173961905Y-50642857D01*
X173914286Y-50547619D01*
X173866667Y-50500000D01*
X173771429Y-50452381D01*
X171890476Y-55052381D02*
X171700000Y-55052381D01*
X171604761Y-55004762D01*
X171557142Y-54957143D01*
X171461904Y-54814286D01*
X171414285Y-54623810D01*
X171414285Y-54242857D01*
X171461904Y-54147619D01*
X171509523Y-54100000D01*
X171604761Y-54052381D01*
X171795238Y-54052381D01*
X171890476Y-54100000D01*
X171938095Y-54147619D01*
X171985714Y-54242857D01*
X171985714Y-54480952D01*
X171938095Y-54576190D01*
X171890476Y-54623810D01*
X171795238Y-54671429D01*
X171604761Y-54671429D01*
X171509523Y-54623810D01*
X171461904Y-54576190D01*
X171414285Y-54480952D01*
X169295238Y-50880952D02*
X169390476Y-50833333D01*
X169438095Y-50785714D01*
X169485714Y-50690476D01*
X169485714Y-50642857D01*
X169438095Y-50547619D01*
X169390476Y-50500000D01*
X169295238Y-50452381D01*
X169104761Y-50452381D01*
X169009523Y-50500000D01*
X168961904Y-50547619D01*
X168914285Y-50642857D01*
X168914285Y-50690476D01*
X168961904Y-50785714D01*
X169009523Y-50833333D01*
X169104761Y-50880952D01*
X169295238Y-50880952D01*
X169390476Y-50928571D01*
X169438095Y-50976190D01*
X169485714Y-51071429D01*
X169485714Y-51261905D01*
X169438095Y-51357143D01*
X169390476Y-51404762D01*
X169295238Y-51452381D01*
X169104761Y-51452381D01*
X169009523Y-51404762D01*
X168961904Y-51357143D01*
X168914285Y-51261905D01*
X168914285Y-51071429D01*
X168961904Y-50976190D01*
X169009523Y-50928571D01*
X169104761Y-50880952D01*
X167033333Y-54052381D02*
X166366666Y-54052381D01*
X166795238Y-55052381D01*
X164009523Y-50452381D02*
X164200000Y-50452381D01*
X164295238Y-50500000D01*
X164342857Y-50547619D01*
X164438095Y-50690476D01*
X164485714Y-50880952D01*
X164485714Y-51261905D01*
X164438095Y-51357143D01*
X164390476Y-51404762D01*
X164295238Y-51452381D01*
X164104761Y-51452381D01*
X164009523Y-51404762D01*
X163961904Y-51357143D01*
X163914285Y-51261905D01*
X163914285Y-51023810D01*
X163961904Y-50928571D01*
X164009523Y-50880952D01*
X164104761Y-50833333D01*
X164295238Y-50833333D01*
X164390476Y-50880952D01*
X164438095Y-50928571D01*
X164485714Y-51023810D01*
X161461904Y-54052381D02*
X161938095Y-54052381D01*
X161985714Y-54528571D01*
X161938095Y-54480952D01*
X161842857Y-54433333D01*
X161604761Y-54433333D01*
X161509523Y-54480952D01*
X161461904Y-54528571D01*
X161414285Y-54623810D01*
X161414285Y-54861905D01*
X161461904Y-54957143D01*
X161509523Y-55004762D01*
X161604761Y-55052381D01*
X161842857Y-55052381D01*
X161938095Y-55004762D01*
X161985714Y-54957143D01*
X159009523Y-50785714D02*
X159009523Y-51452381D01*
X159247619Y-50404762D02*
X159485714Y-51119048D01*
X158866666Y-51119048D01*
X157033333Y-54052381D02*
X156414285Y-54052381D01*
X156747619Y-54433333D01*
X156604761Y-54433333D01*
X156509523Y-54480952D01*
X156461904Y-54528571D01*
X156414285Y-54623810D01*
X156414285Y-54861905D01*
X156461904Y-54957143D01*
X156509523Y-55004762D01*
X156604761Y-55052381D01*
X156890476Y-55052381D01*
X156985714Y-55004762D01*
X157033333Y-54957143D01*
X154485714Y-50547619D02*
X154438095Y-50500000D01*
X154342857Y-50452381D01*
X154104761Y-50452381D01*
X154009523Y-50500000D01*
X153961904Y-50547619D01*
X153914285Y-50642857D01*
X153914285Y-50738095D01*
X153961904Y-50880952D01*
X154533333Y-51452381D01*
X153914285Y-51452381D01*
X151414285Y-55052381D02*
X151985714Y-55052381D01*
X151700000Y-55052381D02*
X151700000Y-54052381D01*
X151795238Y-54195238D01*
X151890476Y-54290476D01*
X151985714Y-54338095D01*
X149152381Y-51547619D02*
X149247620Y-51547619D01*
X149342858Y-51500000D01*
X149390477Y-51452381D01*
X149438096Y-51357143D01*
X149485715Y-51166667D01*
X149485715Y-50928571D01*
X149438096Y-50738095D01*
X149390477Y-50642857D01*
X149342858Y-50595238D01*
X149247620Y-50547619D01*
X149152381Y-50547619D01*
X149057143Y-50595238D01*
X149009524Y-50642857D01*
X148961905Y-50738095D01*
X148914286Y-50928571D01*
X148914286Y-51166667D01*
X148961905Y-51357143D01*
X149009524Y-51452381D01*
X149057143Y-51500000D01*
X149152381Y-51547619D01*
D12*
X151450000Y-80300000D02*
X150750000Y-80300000D01*
X150750000Y-81500000D02*
X151450000Y-81500000D01*
X148000000Y-76400000D02*
X148700000Y-76400000D01*
X148700000Y-75200000D02*
X148000000Y-75200000D01*
X155550000Y-78500000D02*
X154850000Y-78500000D01*
X154850000Y-79700000D02*
X155550000Y-79700000D01*
X153000000Y-70250000D02*
X153000000Y-69550000D01*
X151800000Y-69550000D02*
X151800000Y-70250000D01*
X151600000Y-70250000D02*
X151600000Y-69550000D01*
X150400000Y-69550000D02*
X150400000Y-70250000D01*
X170700000Y-66250000D02*
X170700000Y-66950000D01*
X171900000Y-66950000D02*
X171900000Y-66250000D01*
X169300000Y-66250000D02*
X169300000Y-66950000D01*
X170500000Y-66950000D02*
X170500000Y-66250000D01*
X171850000Y-63600000D02*
X171150000Y-63600000D01*
X171150000Y-64800000D02*
X171850000Y-64800000D01*
X189150000Y-66750000D02*
X189150000Y-66050000D01*
X187950000Y-66050000D02*
X187950000Y-66750000D01*
X186000000Y-69700000D02*
X186700000Y-69700000D01*
X186700000Y-68500000D02*
X186000000Y-68500000D01*
X191750000Y-57250000D02*
X192450000Y-57250000D01*
X192450000Y-56050000D02*
X191750000Y-56050000D01*
X192450000Y-60300000D02*
X191750000Y-60300000D01*
X191750000Y-61500000D02*
X192450000Y-61500000D01*
X167900000Y-77850000D02*
X167900000Y-77150000D01*
X166700000Y-77150000D02*
X166700000Y-77850000D01*
X168900000Y-71400000D02*
X168900000Y-72100000D01*
X170100000Y-72100000D02*
X170100000Y-71400000D01*
X170200000Y-71400000D02*
X170200000Y-72100000D01*
X171400000Y-72100000D02*
X171400000Y-71400000D01*
X193700000Y-73100000D02*
X193700000Y-71400000D01*
X193700000Y-71400000D02*
X196250000Y-71400000D01*
X193700000Y-73100000D02*
X196250000Y-73100000D01*
X176400000Y-61550000D02*
X178400000Y-61550000D01*
X178400000Y-61550000D02*
X178400000Y-65450000D01*
X176400000Y-61550000D02*
X176400000Y-65450000D01*
X177060000Y-81350000D02*
X177060000Y-81000000D01*
X177060000Y-77200000D02*
X177060000Y-76850000D01*
X177060000Y-76850000D02*
X178810000Y-76850000D01*
X178810000Y-81350000D02*
X177060000Y-81350000D01*
X177060000Y-76000000D02*
X177060000Y-75650000D01*
X177060000Y-71850000D02*
X177060000Y-71500000D01*
X177060000Y-71500000D02*
X178810000Y-71500000D01*
X178810000Y-76000000D02*
X177060000Y-76000000D01*
X189330000Y-62950000D02*
X189330000Y-64950000D01*
X191470000Y-64950000D02*
X191470000Y-62950000D01*
X181170000Y-65550000D02*
X181170000Y-67550000D01*
X184130000Y-67550000D02*
X184130000Y-65550000D01*
X191840000Y-64890000D02*
X193100000Y-64890000D01*
X198660000Y-64890000D02*
X197400000Y-64890000D01*
X191840000Y-68650000D02*
X191840000Y-64890000D01*
X198660000Y-70900000D02*
X198660000Y-64890000D01*
D13*
X188100000Y-70000000D02*
X189900000Y-70000000D01*
X189900000Y-70000000D02*
X189900000Y-70400000D01*
X189900000Y-70400000D02*
X188100000Y-70400000D01*
X188100000Y-70400000D02*
X188100000Y-70000000D01*
D12*
X140620000Y-66440000D02*
X141550000Y-66440000D01*
X143780000Y-66440000D02*
X142850000Y-66440000D01*
X143780000Y-66440000D02*
X143780000Y-68600000D01*
X140620000Y-66440000D02*
X140620000Y-67900000D01*
X158860000Y-81320000D02*
X158860000Y-82250000D01*
X158860000Y-84480000D02*
X158860000Y-83550000D01*
X158860000Y-84480000D02*
X156700000Y-84480000D01*
X158860000Y-81320000D02*
X157400000Y-81320000D01*
X183100000Y-57730000D02*
X183760000Y-57730000D01*
X181440000Y-57730000D02*
X182100000Y-57730000D01*
X181440000Y-57730000D02*
X181440000Y-55700000D01*
X183760000Y-56320000D02*
X183760000Y-57730000D01*
X179500000Y-57730000D02*
X180160000Y-57730000D01*
X177840000Y-57730000D02*
X178500000Y-57730000D01*
X177840000Y-57730000D02*
X177840000Y-55700000D01*
X180160000Y-56320000D02*
X180160000Y-57730000D01*
X175900000Y-57730000D02*
X176560000Y-57730000D01*
X174240000Y-57730000D02*
X174900000Y-57730000D01*
X174240000Y-57730000D02*
X174240000Y-55700000D01*
X176560000Y-56320000D02*
X176560000Y-57730000D01*
X172300000Y-57730000D02*
X172960000Y-57730000D01*
X170640000Y-57730000D02*
X171300000Y-57730000D01*
X170640000Y-57730000D02*
X170640000Y-55700000D01*
X172960000Y-56320000D02*
X172960000Y-57730000D01*
X168700000Y-57730000D02*
X169360000Y-57730000D01*
X167040000Y-57730000D02*
X167700000Y-57730000D01*
X167040000Y-57730000D02*
X167040000Y-55700000D01*
X169360000Y-56320000D02*
X169360000Y-57730000D01*
X165100000Y-57730000D02*
X165760000Y-57730000D01*
X163440000Y-57730000D02*
X164100000Y-57730000D01*
X163440000Y-57730000D02*
X163440000Y-55700000D01*
X165760000Y-56320000D02*
X165760000Y-57730000D01*
X161500000Y-57730000D02*
X162160000Y-57730000D01*
X159840000Y-57730000D02*
X160500000Y-57730000D01*
X159840000Y-57730000D02*
X159840000Y-55700000D01*
X162160000Y-56320000D02*
X162160000Y-57730000D01*
X157900000Y-57730000D02*
X158560000Y-57730000D01*
X156240000Y-57730000D02*
X156900000Y-57730000D01*
X156240000Y-57730000D02*
X156240000Y-55700000D01*
X158560000Y-56320000D02*
X158560000Y-57730000D01*
X154300000Y-57730000D02*
X154960000Y-57730000D01*
X152640000Y-57730000D02*
X153300000Y-57730000D01*
X152640000Y-57730000D02*
X152640000Y-55700000D01*
X154960000Y-56320000D02*
X154960000Y-57730000D01*
X150700000Y-57730000D02*
X151360000Y-57730000D01*
X149040000Y-57730000D02*
X149700000Y-57730000D01*
X149040000Y-57730000D02*
X149040000Y-55700000D01*
X151360000Y-56320000D02*
X151360000Y-57730000D01*
X147100000Y-60030000D02*
X147760000Y-60030000D01*
X145440000Y-60030000D02*
X146100000Y-60030000D01*
X145440000Y-60030000D02*
X145440000Y-58000000D01*
X147760000Y-58620000D02*
X147760000Y-60030000D01*
X143500000Y-60030000D02*
X144160000Y-60030000D01*
X141840000Y-60030000D02*
X142500000Y-60030000D01*
X141840000Y-60030000D02*
X141840000Y-58000000D01*
X144160000Y-58620000D02*
X144160000Y-60030000D01*
X190220000Y-69750000D02*
X190220000Y-70750000D01*
X191580000Y-70750000D02*
X191580000Y-69750000D01*
X189900000Y-68830000D02*
X190900000Y-68830000D01*
X190900000Y-67470000D02*
X189900000Y-67470000D01*
X194350000Y-74630000D02*
X195350000Y-74630000D01*
X195350000Y-73270000D02*
X194350000Y-73270000D01*
X179750000Y-71080000D02*
X180750000Y-71080000D01*
X180750000Y-69720000D02*
X179750000Y-69720000D01*
X177200000Y-71080000D02*
X178200000Y-71080000D01*
X178200000Y-69720000D02*
X177200000Y-69720000D01*
X182350000Y-83130000D02*
X183350000Y-83130000D01*
X183350000Y-81770000D02*
X182350000Y-81770000D01*
X179800000Y-83130000D02*
X180800000Y-83130000D01*
X180800000Y-81770000D02*
X179800000Y-81770000D01*
X141700000Y-70380000D02*
X142700000Y-70380000D01*
X142700000Y-69020000D02*
X141700000Y-69020000D01*
X144650000Y-71080000D02*
X145650000Y-71080000D01*
X145650000Y-69720000D02*
X144650000Y-69720000D01*
X156280000Y-83750000D02*
X156280000Y-82750000D01*
X154920000Y-82750000D02*
X154920000Y-83750000D01*
X150020000Y-77250000D02*
X150020000Y-78250000D01*
X151380000Y-78250000D02*
X151380000Y-77250000D01*
X156000000Y-81130000D02*
X157000000Y-81130000D01*
X157000000Y-79770000D02*
X156000000Y-79770000D01*
X174100000Y-64980000D02*
X175100000Y-64980000D01*
X175100000Y-63620000D02*
X174100000Y-63620000D01*
X156980000Y-67000000D02*
X156980000Y-66000000D01*
X155620000Y-66000000D02*
X155620000Y-67000000D01*
X159980000Y-67000000D02*
X159980000Y-66000000D01*
X158620000Y-66000000D02*
X158620000Y-67000000D01*
X158480000Y-67000000D02*
X158480000Y-66000000D01*
X157120000Y-66000000D02*
X157120000Y-67000000D01*
X155480000Y-67000000D02*
X155480000Y-66000000D01*
X154120000Y-66000000D02*
X154120000Y-67000000D01*
X173900000Y-63580000D02*
X174900000Y-63580000D01*
X174900000Y-62220000D02*
X173900000Y-62220000D01*
X191750000Y-58730000D02*
X192750000Y-58730000D01*
X192750000Y-57370000D02*
X191750000Y-57370000D01*
X191750000Y-60180000D02*
X192750000Y-60180000D01*
X192750000Y-58820000D02*
X191750000Y-58820000D01*
X195770000Y-59300000D02*
X195770000Y-57300000D01*
X193630000Y-57300000D02*
X193630000Y-59300000D01*
X168900000Y-78930000D02*
X169900000Y-78930000D01*
X169900000Y-77570000D02*
X168900000Y-77570000D01*
X174650000Y-72180000D02*
X172650000Y-72180000D01*
X172650000Y-74320000D02*
X174650000Y-74320000D01*
X175330000Y-82000000D02*
X175330000Y-81000000D01*
X173970000Y-81000000D02*
X173970000Y-82000000D01*
X177150000Y-81820000D02*
X176150000Y-81820000D01*
X176150000Y-83180000D02*
X177150000Y-83180000D01*
X172520000Y-80200000D02*
X172520000Y-81200000D01*
X173880000Y-81200000D02*
X173880000Y-80200000D01*
X149830000Y-78960000D02*
X148900000Y-78960000D01*
X146670000Y-78960000D02*
X147600000Y-78960000D01*
X146670000Y-78960000D02*
X146670000Y-76800000D01*
X149830000Y-78960000D02*
X149830000Y-77500000D01*
D13*
X161925000Y-69575000D02*
X161925000Y-70025000D01*
X154675000Y-69575000D02*
X154675000Y-70100000D01*
X154675000Y-76825000D02*
X154675000Y-76300000D01*
X161925000Y-76825000D02*
X161925000Y-76300000D01*
X161925000Y-69575000D02*
X161400000Y-69575000D01*
X161925000Y-76825000D02*
X161400000Y-76825000D01*
X154675000Y-76825000D02*
X155200000Y-76825000D01*
X154675000Y-69575000D02*
X155200000Y-69575000D01*
X161925000Y-70025000D02*
X163300000Y-70025000D01*
X187675000Y-66325000D02*
X187675000Y-67475000D01*
X184425000Y-65550000D02*
X184425000Y-67475000D01*
X185825000Y-60175000D02*
X185825000Y-59950000D01*
X189175000Y-60175000D02*
X189175000Y-59875000D01*
X189175000Y-56825000D02*
X189175000Y-57125000D01*
X185825000Y-56825000D02*
X185825000Y-57125000D01*
X185825000Y-60175000D02*
X189175000Y-60175000D01*
X185825000Y-56825000D02*
X189175000Y-56825000D01*
X185825000Y-59950000D02*
X184600000Y-59950000D01*
D12*
X168170000Y-76190000D02*
X168170000Y-74430000D01*
X171240000Y-74430000D02*
X171240000Y-76860000D01*
D13*
X167725000Y-83375000D02*
X167725000Y-83200000D01*
X171075000Y-83375000D02*
X171075000Y-83125000D01*
X171075000Y-80025000D02*
X171075000Y-80275000D01*
X167725000Y-80025000D02*
X167725000Y-80275000D01*
X167725000Y-83375000D02*
X171075000Y-83375000D01*
X167725000Y-80025000D02*
X171075000Y-80025000D01*
X167725000Y-83200000D02*
X166475000Y-83200000D01*
D12*
X175200000Y-78250000D02*
X175200000Y-74750000D01*
X171650000Y-78250000D02*
X171650000Y-74750000D01*
X183200000Y-59020000D02*
X182000000Y-59020000D01*
X182000000Y-60780000D02*
X183200000Y-60780000D01*
X179600000Y-59020000D02*
X178400000Y-59020000D01*
X178400000Y-60780000D02*
X179600000Y-60780000D01*
X176000000Y-59020000D02*
X174800000Y-59020000D01*
X174800000Y-60780000D02*
X176000000Y-60780000D01*
X172400000Y-59020000D02*
X171200000Y-59020000D01*
X171200000Y-60780000D02*
X172400000Y-60780000D01*
X168800000Y-59020000D02*
X167600000Y-59020000D01*
X167600000Y-60780000D02*
X168800000Y-60780000D01*
X165200000Y-59020000D02*
X164000000Y-59020000D01*
X164000000Y-60780000D02*
X165200000Y-60780000D01*
X161600000Y-59020000D02*
X160400000Y-59020000D01*
X160400000Y-60780000D02*
X161600000Y-60780000D01*
X158000000Y-59020000D02*
X156800000Y-59020000D01*
X156800000Y-60780000D02*
X158000000Y-60780000D01*
X154400000Y-59020000D02*
X153200000Y-59020000D01*
X153200000Y-60780000D02*
X154400000Y-60780000D01*
X150800000Y-59020000D02*
X149600000Y-59020000D01*
X149600000Y-60780000D02*
X150800000Y-60780000D01*
X147200000Y-61320000D02*
X146000000Y-61320000D01*
X146000000Y-63080000D02*
X147200000Y-63080000D01*
X143550000Y-61320000D02*
X142350000Y-61320000D01*
X142350000Y-63080000D02*
X143550000Y-63080000D01*
X147000000Y-71220000D02*
X146000000Y-71220000D01*
X146000000Y-72580000D02*
X147000000Y-72580000D01*
X149580000Y-74000000D02*
X149580000Y-73000000D01*
X148220000Y-73000000D02*
X148220000Y-74000000D01*
X164570000Y-70550000D02*
X164570000Y-71550000D01*
X165930000Y-71550000D02*
X165930000Y-70550000D01*
X175350000Y-65200000D02*
X175350000Y-66900000D01*
X175350000Y-66900000D02*
X172800000Y-66900000D01*
X175350000Y-65200000D02*
X172800000Y-65200000D01*
X151470000Y-76050000D02*
X151470000Y-77050000D01*
X152830000Y-77050000D02*
X152830000Y-76050000D01*
X144450000Y-63400000D02*
X143750000Y-63400000D01*
X143750000Y-64600000D02*
X144450000Y-64600000D01*
X167420000Y-66200000D02*
X167420000Y-67200000D01*
X168780000Y-67200000D02*
X168780000Y-66200000D01*
X187230000Y-77450000D02*
X187230000Y-79450000D01*
X184270000Y-79450000D02*
X184270000Y-77450000D01*
X190330000Y-77450000D02*
X190330000Y-79450000D01*
X187370000Y-79450000D02*
X187370000Y-77450000D01*
X188630000Y-61650000D02*
X188630000Y-63650000D01*
X185670000Y-63650000D02*
X185670000Y-61650000D01*
X152800000Y-64950000D02*
X152800000Y-65650000D01*
X154000000Y-65650000D02*
X154000000Y-64950000D01*
X180800000Y-67800000D02*
X180800000Y-67100000D01*
X179600000Y-67100000D02*
X179600000Y-67800000D01*
X174600000Y-68100000D02*
X174600000Y-68800000D01*
X175800000Y-68800000D02*
X175800000Y-68100000D01*
X184270000Y-74850000D02*
X184270000Y-72850000D01*
X187230000Y-72850000D02*
X187230000Y-74850000D01*
X187370000Y-74850000D02*
X187370000Y-72850000D01*
X190330000Y-72850000D02*
X190330000Y-74850000D01*
X190470000Y-74850000D02*
X190470000Y-72850000D01*
X193430000Y-72850000D02*
X193430000Y-74850000D01*
X185450000Y-60950000D02*
X185450000Y-64250000D01*
X185450000Y-64250000D02*
X180050000Y-64250000D01*
X185450000Y-60950000D02*
X180050000Y-60950000D01*
X141450000Y-63270000D02*
X141950000Y-63270000D01*
X141950000Y-64330000D02*
X141450000Y-64330000D01*
X151700000Y-66910000D02*
X149900000Y-66910000D01*
X149900000Y-63690000D02*
X152350000Y-63690000D01*
X176120000Y-67090000D02*
X177050000Y-67090000D01*
X179280000Y-67090000D02*
X178350000Y-67090000D01*
X179280000Y-67090000D02*
X179280000Y-69250000D01*
X176120000Y-67090000D02*
X176120000Y-68550000D01*
X144310000Y-69310000D02*
X144310000Y-65490000D01*
X144310000Y-65490000D02*
X146090000Y-65490000D01*
X146090000Y-65490000D02*
X146090000Y-69310000D01*
X144310000Y-69310000D02*
X146090000Y-69310000D01*
X146910000Y-69310000D02*
X146910000Y-65490000D01*
X146910000Y-65490000D02*
X148690000Y-65490000D01*
X148690000Y-65490000D02*
X148690000Y-69310000D01*
X146910000Y-69310000D02*
X148690000Y-69310000D01*
X147550000Y-63920000D02*
X146550000Y-63920000D01*
X146550000Y-65280000D02*
X147550000Y-65280000D01*
X147000000Y-72720000D02*
X146000000Y-72720000D01*
X146000000Y-74080000D02*
X147000000Y-74080000D01*
X161050000Y-79250000D02*
X161050000Y-80950000D01*
X161050000Y-80950000D02*
X158500000Y-80950000D01*
X161050000Y-79250000D02*
X158500000Y-79250000D01*
D13*
X151233333Y-80085714D02*
X151271428Y-80123810D01*
X151385714Y-80161905D01*
X151461904Y-80161905D01*
X151576190Y-80123810D01*
X151652381Y-80047619D01*
X151690476Y-79971429D01*
X151728571Y-79819048D01*
X151728571Y-79704762D01*
X151690476Y-79552381D01*
X151652381Y-79476190D01*
X151576190Y-79400000D01*
X151461904Y-79361905D01*
X151385714Y-79361905D01*
X151271428Y-79400000D01*
X151233333Y-79438095D01*
X150471428Y-80161905D02*
X150928571Y-80161905D01*
X150700000Y-80161905D02*
X150700000Y-79361905D01*
X150776190Y-79476190D01*
X150852381Y-79552381D01*
X150928571Y-79590476D01*
X146433333Y-76085714D02*
X146471428Y-76123810D01*
X146585714Y-76161905D01*
X146661904Y-76161905D01*
X146776190Y-76123810D01*
X146852381Y-76047619D01*
X146890476Y-75971429D01*
X146928571Y-75819048D01*
X146928571Y-75704762D01*
X146890476Y-75552381D01*
X146852381Y-75476190D01*
X146776190Y-75400000D01*
X146661904Y-75361905D01*
X146585714Y-75361905D01*
X146471428Y-75400000D01*
X146433333Y-75438095D01*
X146166666Y-75361905D02*
X145671428Y-75361905D01*
X145938095Y-75666667D01*
X145823809Y-75666667D01*
X145747619Y-75704762D01*
X145709523Y-75742857D01*
X145671428Y-75819048D01*
X145671428Y-76009524D01*
X145709523Y-76085714D01*
X145747619Y-76123810D01*
X145823809Y-76161905D01*
X146052381Y-76161905D01*
X146128571Y-76123810D01*
X146166666Y-76085714D01*
X154433333Y-78385714D02*
X154471428Y-78423810D01*
X154585714Y-78461905D01*
X154661904Y-78461905D01*
X154776190Y-78423810D01*
X154852381Y-78347619D01*
X154890476Y-78271429D01*
X154928571Y-78119048D01*
X154928571Y-78004762D01*
X154890476Y-77852381D01*
X154852381Y-77776190D01*
X154776190Y-77700000D01*
X154661904Y-77661905D01*
X154585714Y-77661905D01*
X154471428Y-77700000D01*
X154433333Y-77738095D01*
X153747619Y-77661905D02*
X153900000Y-77661905D01*
X153976190Y-77700000D01*
X154014285Y-77738095D01*
X154090476Y-77852381D01*
X154128571Y-78004762D01*
X154128571Y-78309524D01*
X154090476Y-78385714D01*
X154052381Y-78423810D01*
X153976190Y-78461905D01*
X153823809Y-78461905D01*
X153747619Y-78423810D01*
X153709523Y-78385714D01*
X153671428Y-78309524D01*
X153671428Y-78119048D01*
X153709523Y-78042857D01*
X153747619Y-78004762D01*
X153823809Y-77966667D01*
X153976190Y-77966667D01*
X154052381Y-78004762D01*
X154090476Y-78042857D01*
X154128571Y-78119048D01*
X152685714Y-71766667D02*
X152723810Y-71728572D01*
X152761905Y-71614286D01*
X152761905Y-71538096D01*
X152723810Y-71423810D01*
X152647619Y-71347619D01*
X152571429Y-71309524D01*
X152419048Y-71271429D01*
X152304762Y-71271429D01*
X152152381Y-71309524D01*
X152076190Y-71347619D01*
X152000000Y-71423810D01*
X151961905Y-71538096D01*
X151961905Y-71614286D01*
X152000000Y-71728572D01*
X152038095Y-71766667D01*
X151961905Y-72033334D02*
X151961905Y-72566667D01*
X152761905Y-72223810D01*
X151285714Y-71785714D02*
X151323810Y-71747619D01*
X151361905Y-71633333D01*
X151361905Y-71557143D01*
X151323810Y-71442857D01*
X151247619Y-71366666D01*
X151171429Y-71328571D01*
X151019048Y-71290476D01*
X150904762Y-71290476D01*
X150752381Y-71328571D01*
X150676190Y-71366666D01*
X150600000Y-71442857D01*
X150561905Y-71557143D01*
X150561905Y-71633333D01*
X150600000Y-71747619D01*
X150638095Y-71785714D01*
X151361905Y-72547619D02*
X151361905Y-72090476D01*
X151361905Y-72319047D02*
X150561905Y-72319047D01*
X150676190Y-72242857D01*
X150752381Y-72166666D01*
X150790476Y-72090476D01*
X150561905Y-73042857D02*
X150561905Y-73119048D01*
X150600000Y-73195238D01*
X150638095Y-73233333D01*
X150714286Y-73271429D01*
X150866667Y-73309524D01*
X151057143Y-73309524D01*
X151209524Y-73271429D01*
X151285714Y-73233333D01*
X151323810Y-73195238D01*
X151361905Y-73119048D01*
X151361905Y-73042857D01*
X151323810Y-72966667D01*
X151285714Y-72928571D01*
X151209524Y-72890476D01*
X151057143Y-72852381D01*
X150866667Y-72852381D01*
X150714286Y-72890476D01*
X150638095Y-72928571D01*
X150600000Y-72966667D01*
X150561905Y-73042857D01*
X171750000Y-68650000D02*
X171783334Y-68683333D01*
X171883334Y-68716667D01*
X171950000Y-68716667D01*
X172050000Y-68683333D01*
X172116667Y-68616667D01*
X172150000Y-68550000D01*
X172183334Y-68416667D01*
X172183334Y-68316667D01*
X172150000Y-68183333D01*
X172116667Y-68116667D01*
X172050000Y-68050000D01*
X171950000Y-68016667D01*
X171883334Y-68016667D01*
X171783334Y-68050000D01*
X171750000Y-68083333D01*
X171083334Y-68716667D02*
X171483334Y-68716667D01*
X171283334Y-68716667D02*
X171283334Y-68016667D01*
X171350000Y-68116667D01*
X171416667Y-68183333D01*
X171483334Y-68216667D01*
X170416667Y-68716667D02*
X170816667Y-68716667D01*
X170616667Y-68716667D02*
X170616667Y-68016667D01*
X170683333Y-68116667D01*
X170750000Y-68183333D01*
X170816667Y-68216667D01*
X170100000Y-63800000D02*
X170133333Y-63766666D01*
X170166667Y-63666666D01*
X170166667Y-63600000D01*
X170133333Y-63500000D01*
X170066667Y-63433333D01*
X170000000Y-63400000D01*
X169866667Y-63366666D01*
X169766667Y-63366666D01*
X169633333Y-63400000D01*
X169566667Y-63433333D01*
X169500000Y-63500000D01*
X169466667Y-63600000D01*
X169466667Y-63666666D01*
X169500000Y-63766666D01*
X169533333Y-63800000D01*
X170166667Y-64466666D02*
X170166667Y-64066666D01*
X170166667Y-64266666D02*
X169466667Y-64266666D01*
X169566667Y-64200000D01*
X169633333Y-64133333D01*
X169666667Y-64066666D01*
X169533333Y-64733333D02*
X169500000Y-64766667D01*
X169466667Y-64833333D01*
X169466667Y-65000000D01*
X169500000Y-65066667D01*
X169533333Y-65100000D01*
X169600000Y-65133333D01*
X169666667Y-65133333D01*
X169766667Y-65100000D01*
X170166667Y-64700000D01*
X170166667Y-65133333D01*
X171950000Y-63300000D02*
X171983334Y-63333333D01*
X172083334Y-63366667D01*
X172150000Y-63366667D01*
X172250000Y-63333333D01*
X172316667Y-63266667D01*
X172350000Y-63200000D01*
X172383334Y-63066667D01*
X172383334Y-62966667D01*
X172350000Y-62833333D01*
X172316667Y-62766667D01*
X172250000Y-62700000D01*
X172150000Y-62666667D01*
X172083334Y-62666667D01*
X171983334Y-62700000D01*
X171950000Y-62733333D01*
X171283334Y-63366667D02*
X171683334Y-63366667D01*
X171483334Y-63366667D02*
X171483334Y-62666667D01*
X171550000Y-62766667D01*
X171616667Y-62833333D01*
X171683334Y-62866667D01*
X171050000Y-62666667D02*
X170616667Y-62666667D01*
X170850000Y-62933333D01*
X170750000Y-62933333D01*
X170683333Y-62966667D01*
X170650000Y-63000000D01*
X170616667Y-63066667D01*
X170616667Y-63233333D01*
X170650000Y-63300000D01*
X170683333Y-63333333D01*
X170750000Y-63366667D01*
X170950000Y-63366667D01*
X171016667Y-63333333D01*
X171050000Y-63300000D01*
D10*
X189814286Y-66314285D02*
X189842857Y-66285714D01*
X189871429Y-66200000D01*
X189871429Y-66142857D01*
X189842857Y-66057142D01*
X189785714Y-66000000D01*
X189728571Y-65971428D01*
X189614286Y-65942857D01*
X189528571Y-65942857D01*
X189414286Y-65971428D01*
X189357143Y-66000000D01*
X189300000Y-66057142D01*
X189271429Y-66142857D01*
X189271429Y-66200000D01*
X189300000Y-66285714D01*
X189328571Y-66314285D01*
X189328571Y-66542857D02*
X189300000Y-66571428D01*
X189271429Y-66628571D01*
X189271429Y-66771428D01*
X189300000Y-66828571D01*
X189328571Y-66857142D01*
X189385714Y-66885714D01*
X189442857Y-66885714D01*
X189528571Y-66857142D01*
X189871429Y-66514285D01*
X189871429Y-66885714D01*
X189271429Y-67085714D02*
X189271429Y-67485714D01*
X189871429Y-67228571D01*
D13*
X186964286Y-70485714D02*
X187002381Y-70523810D01*
X187116667Y-70561905D01*
X187192857Y-70561905D01*
X187307143Y-70523810D01*
X187383334Y-70447619D01*
X187421429Y-70371429D01*
X187459524Y-70219048D01*
X187459524Y-70104762D01*
X187421429Y-69952381D01*
X187383334Y-69876190D01*
X187307143Y-69800000D01*
X187192857Y-69761905D01*
X187116667Y-69761905D01*
X187002381Y-69800000D01*
X186964286Y-69838095D01*
X186659524Y-69838095D02*
X186621429Y-69800000D01*
X186545238Y-69761905D01*
X186354762Y-69761905D01*
X186278572Y-69800000D01*
X186240476Y-69838095D01*
X186202381Y-69914286D01*
X186202381Y-69990476D01*
X186240476Y-70104762D01*
X186697619Y-70561905D01*
X186202381Y-70561905D01*
X185745238Y-70104762D02*
X185821429Y-70066667D01*
X185859524Y-70028571D01*
X185897619Y-69952381D01*
X185897619Y-69914286D01*
X185859524Y-69838095D01*
X185821429Y-69800000D01*
X185745238Y-69761905D01*
X185592857Y-69761905D01*
X185516667Y-69800000D01*
X185478571Y-69838095D01*
X185440476Y-69914286D01*
X185440476Y-69952381D01*
X185478571Y-70028571D01*
X185516667Y-70066667D01*
X185592857Y-70104762D01*
X185745238Y-70104762D01*
X185821429Y-70142857D01*
X185859524Y-70180952D01*
X185897619Y-70257143D01*
X185897619Y-70409524D01*
X185859524Y-70485714D01*
X185821429Y-70523810D01*
X185745238Y-70561905D01*
X185592857Y-70561905D01*
X185516667Y-70523810D01*
X185478571Y-70485714D01*
X185440476Y-70409524D01*
X185440476Y-70257143D01*
X185478571Y-70180952D01*
X185516667Y-70142857D01*
X185592857Y-70104762D01*
X192550000Y-55850000D02*
X192583334Y-55883333D01*
X192683334Y-55916667D01*
X192750000Y-55916667D01*
X192850000Y-55883333D01*
X192916667Y-55816667D01*
X192950000Y-55750000D01*
X192983334Y-55616667D01*
X192983334Y-55516667D01*
X192950000Y-55383333D01*
X192916667Y-55316667D01*
X192850000Y-55250000D01*
X192750000Y-55216667D01*
X192683334Y-55216667D01*
X192583334Y-55250000D01*
X192550000Y-55283333D01*
X192316667Y-55216667D02*
X191883334Y-55216667D01*
X192116667Y-55483333D01*
X192016667Y-55483333D01*
X191950000Y-55516667D01*
X191916667Y-55550000D01*
X191883334Y-55616667D01*
X191883334Y-55783333D01*
X191916667Y-55850000D01*
X191950000Y-55883333D01*
X192016667Y-55916667D01*
X192216667Y-55916667D01*
X192283334Y-55883333D01*
X192316667Y-55850000D01*
X191650000Y-55216667D02*
X191216667Y-55216667D01*
X191450000Y-55483333D01*
X191350000Y-55483333D01*
X191283333Y-55516667D01*
X191250000Y-55550000D01*
X191216667Y-55616667D01*
X191216667Y-55783333D01*
X191250000Y-55850000D01*
X191283333Y-55883333D01*
X191350000Y-55916667D01*
X191550000Y-55916667D01*
X191616667Y-55883333D01*
X191650000Y-55850000D01*
X193050000Y-62250000D02*
X193083334Y-62283333D01*
X193183334Y-62316667D01*
X193250000Y-62316667D01*
X193350000Y-62283333D01*
X193416667Y-62216667D01*
X193450000Y-62150000D01*
X193483334Y-62016667D01*
X193483334Y-61916667D01*
X193450000Y-61783333D01*
X193416667Y-61716667D01*
X193350000Y-61650000D01*
X193250000Y-61616667D01*
X193183334Y-61616667D01*
X193083334Y-61650000D01*
X193050000Y-61683333D01*
X192816667Y-61616667D02*
X192383334Y-61616667D01*
X192616667Y-61883333D01*
X192516667Y-61883333D01*
X192450000Y-61916667D01*
X192416667Y-61950000D01*
X192383334Y-62016667D01*
X192383334Y-62183333D01*
X192416667Y-62250000D01*
X192450000Y-62283333D01*
X192516667Y-62316667D01*
X192716667Y-62316667D01*
X192783334Y-62283333D01*
X192816667Y-62250000D01*
X191783333Y-61850000D02*
X191783333Y-62316667D01*
X191950000Y-61583333D02*
X192116667Y-62083333D01*
X191683333Y-62083333D01*
X166157143Y-76857143D02*
X166204762Y-76809524D01*
X166252381Y-76666667D01*
X166252381Y-76571429D01*
X166204762Y-76428571D01*
X166109524Y-76333333D01*
X166014286Y-76285714D01*
X165823810Y-76238095D01*
X165680952Y-76238095D01*
X165490476Y-76285714D01*
X165395238Y-76333333D01*
X165300000Y-76428571D01*
X165252381Y-76571429D01*
X165252381Y-76666667D01*
X165300000Y-76809524D01*
X165347619Y-76857143D01*
X165252381Y-77190476D02*
X165252381Y-77809524D01*
X165633333Y-77476190D01*
X165633333Y-77619048D01*
X165680952Y-77714286D01*
X165728571Y-77761905D01*
X165823810Y-77809524D01*
X166061905Y-77809524D01*
X166157143Y-77761905D01*
X166204762Y-77714286D01*
X166252381Y-77619048D01*
X166252381Y-77333333D01*
X166204762Y-77238095D01*
X166157143Y-77190476D01*
X165252381Y-78714286D02*
X165252381Y-78238095D01*
X165728571Y-78190476D01*
X165680952Y-78238095D01*
X165633333Y-78333333D01*
X165633333Y-78571429D01*
X165680952Y-78666667D01*
X165728571Y-78714286D01*
X165823810Y-78761905D01*
X166061905Y-78761905D01*
X166157143Y-78714286D01*
X166204762Y-78666667D01*
X166252381Y-78571429D01*
X166252381Y-78333333D01*
X166204762Y-78238095D01*
X166157143Y-78190476D01*
X168685714Y-70585714D02*
X168723810Y-70547619D01*
X168761905Y-70433333D01*
X168761905Y-70357143D01*
X168723810Y-70242857D01*
X168647619Y-70166666D01*
X168571429Y-70128571D01*
X168419048Y-70090476D01*
X168304762Y-70090476D01*
X168152381Y-70128571D01*
X168076190Y-70166666D01*
X168000000Y-70242857D01*
X167961905Y-70357143D01*
X167961905Y-70433333D01*
X168000000Y-70547619D01*
X168038095Y-70585714D01*
X167961905Y-70852381D02*
X167961905Y-71347619D01*
X168266667Y-71080952D01*
X168266667Y-71195238D01*
X168304762Y-71271428D01*
X168342857Y-71309524D01*
X168419048Y-71347619D01*
X168609524Y-71347619D01*
X168685714Y-71309524D01*
X168723810Y-71271428D01*
X168761905Y-71195238D01*
X168761905Y-70966666D01*
X168723810Y-70890476D01*
X168685714Y-70852381D01*
X167961905Y-71614286D02*
X167961905Y-72147619D01*
X168761905Y-71804762D01*
X172285714Y-70485714D02*
X172323810Y-70447619D01*
X172361905Y-70333333D01*
X172361905Y-70257143D01*
X172323810Y-70142857D01*
X172247619Y-70066666D01*
X172171429Y-70028571D01*
X172019048Y-69990476D01*
X171904762Y-69990476D01*
X171752381Y-70028571D01*
X171676190Y-70066666D01*
X171600000Y-70142857D01*
X171561905Y-70257143D01*
X171561905Y-70333333D01*
X171600000Y-70447619D01*
X171638095Y-70485714D01*
X171561905Y-70752381D02*
X171561905Y-71247619D01*
X171866667Y-70980952D01*
X171866667Y-71095238D01*
X171904762Y-71171428D01*
X171942857Y-71209524D01*
X172019048Y-71247619D01*
X172209524Y-71247619D01*
X172285714Y-71209524D01*
X172323810Y-71171428D01*
X172361905Y-71095238D01*
X172361905Y-70866666D01*
X172323810Y-70790476D01*
X172285714Y-70752381D01*
X171904762Y-71704762D02*
X171866667Y-71628571D01*
X171828571Y-71590476D01*
X171752381Y-71552381D01*
X171714286Y-71552381D01*
X171638095Y-71590476D01*
X171600000Y-71628571D01*
X171561905Y-71704762D01*
X171561905Y-71857143D01*
X171600000Y-71933333D01*
X171638095Y-71971429D01*
X171714286Y-72009524D01*
X171752381Y-72009524D01*
X171828571Y-71971429D01*
X171866667Y-71933333D01*
X171904762Y-71857143D01*
X171904762Y-71704762D01*
X171942857Y-71628571D01*
X171980952Y-71590476D01*
X172057143Y-71552381D01*
X172209524Y-71552381D01*
X172285714Y-71590476D01*
X172323810Y-71628571D01*
X172361905Y-71704762D01*
X172361905Y-71857143D01*
X172323810Y-71933333D01*
X172285714Y-71971429D01*
X172209524Y-72009524D01*
X172057143Y-72009524D01*
X171980952Y-71971429D01*
X171942857Y-71933333D01*
X171904762Y-71857143D01*
X198188095Y-72702381D02*
X198188095Y-71702381D01*
X197950000Y-71702381D01*
X197807142Y-71750000D01*
X197711904Y-71845238D01*
X197664285Y-71940476D01*
X197616666Y-72130952D01*
X197616666Y-72273810D01*
X197664285Y-72464286D01*
X197711904Y-72559524D01*
X197807142Y-72654762D01*
X197950000Y-72702381D01*
X198188095Y-72702381D01*
X196664285Y-72702381D02*
X197235714Y-72702381D01*
X196950000Y-72702381D02*
X196950000Y-71702381D01*
X197045238Y-71845238D01*
X197140476Y-71940476D01*
X197235714Y-71988095D01*
X177890476Y-61561905D02*
X177890476Y-60761905D01*
X177700000Y-60761905D01*
X177585714Y-60800000D01*
X177509523Y-60876190D01*
X177471428Y-60952381D01*
X177433333Y-61104762D01*
X177433333Y-61219048D01*
X177471428Y-61371429D01*
X177509523Y-61447619D01*
X177585714Y-61523810D01*
X177700000Y-61561905D01*
X177890476Y-61561905D01*
X176709523Y-60761905D02*
X177090476Y-60761905D01*
X177128571Y-61142857D01*
X177090476Y-61104762D01*
X177014285Y-61066667D01*
X176823809Y-61066667D01*
X176747619Y-61104762D01*
X176709523Y-61142857D01*
X176671428Y-61219048D01*
X176671428Y-61409524D01*
X176709523Y-61485714D01*
X176747619Y-61523810D01*
X176823809Y-61561905D01*
X177014285Y-61561905D01*
X177090476Y-61523810D01*
X177128571Y-61485714D01*
X176516667Y-79950000D02*
X175816667Y-79950000D01*
X175816667Y-80116666D01*
X175850000Y-80216666D01*
X175916667Y-80283333D01*
X175983333Y-80316666D01*
X176116667Y-80350000D01*
X176216667Y-80350000D01*
X176350000Y-80316666D01*
X176416667Y-80283333D01*
X176483333Y-80216666D01*
X176516667Y-80116666D01*
X176516667Y-79950000D01*
X175816667Y-80583333D02*
X175816667Y-81016666D01*
X176083333Y-80783333D01*
X176083333Y-80883333D01*
X176116667Y-80950000D01*
X176150000Y-80983333D01*
X176216667Y-81016666D01*
X176383333Y-81016666D01*
X176450000Y-80983333D01*
X176483333Y-80950000D01*
X176516667Y-80883333D01*
X176516667Y-80683333D01*
X176483333Y-80616666D01*
X176450000Y-80583333D01*
X175883333Y-81283333D02*
X175850000Y-81316667D01*
X175816667Y-81383333D01*
X175816667Y-81550000D01*
X175850000Y-81616667D01*
X175883333Y-81650000D01*
X175950000Y-81683333D01*
X176016667Y-81683333D01*
X176116667Y-81650000D01*
X176516667Y-81250000D01*
X176516667Y-81683333D01*
X185050000Y-71166667D02*
X185050000Y-70466667D01*
X184883334Y-70466667D01*
X184783334Y-70500000D01*
X184716667Y-70566667D01*
X184683334Y-70633333D01*
X184650000Y-70766667D01*
X184650000Y-70866667D01*
X184683334Y-71000000D01*
X184716667Y-71066667D01*
X184783334Y-71133333D01*
X184883334Y-71166667D01*
X185050000Y-71166667D01*
X184416667Y-70466667D02*
X183983334Y-70466667D01*
X184216667Y-70733333D01*
X184116667Y-70733333D01*
X184050000Y-70766667D01*
X184016667Y-70800000D01*
X183983334Y-70866667D01*
X183983334Y-71033333D01*
X184016667Y-71100000D01*
X184050000Y-71133333D01*
X184116667Y-71166667D01*
X184316667Y-71166667D01*
X184383334Y-71133333D01*
X184416667Y-71100000D01*
X183750000Y-70466667D02*
X183316667Y-70466667D01*
X183550000Y-70733333D01*
X183450000Y-70733333D01*
X183383333Y-70766667D01*
X183350000Y-70800000D01*
X183316667Y-70866667D01*
X183316667Y-71033333D01*
X183350000Y-71100000D01*
X183383333Y-71133333D01*
X183450000Y-71166667D01*
X183650000Y-71166667D01*
X183716667Y-71133333D01*
X183750000Y-71100000D01*
X191233333Y-66861905D02*
X191614286Y-66861905D01*
X191614286Y-66061905D01*
X191004762Y-66138095D02*
X190966667Y-66100000D01*
X190890476Y-66061905D01*
X190700000Y-66061905D01*
X190623810Y-66100000D01*
X190585714Y-66138095D01*
X190547619Y-66214286D01*
X190547619Y-66290476D01*
X190585714Y-66404762D01*
X191042857Y-66861905D01*
X190547619Y-66861905D01*
X184933333Y-65261905D02*
X185314286Y-65261905D01*
X185314286Y-64461905D01*
X184742857Y-64461905D02*
X184247619Y-64461905D01*
X184514286Y-64766667D01*
X184400000Y-64766667D01*
X184323810Y-64804762D01*
X184285714Y-64842857D01*
X184247619Y-64919048D01*
X184247619Y-65109524D01*
X184285714Y-65185714D01*
X184323810Y-65223810D01*
X184400000Y-65261905D01*
X184628572Y-65261905D01*
X184704762Y-65223810D01*
X184742857Y-65185714D01*
X198897619Y-63704762D02*
X198850000Y-63609524D01*
X198754762Y-63514286D01*
X198611905Y-63371429D01*
X198564286Y-63276190D01*
X198564286Y-63180952D01*
X198802381Y-63228571D02*
X198754762Y-63133333D01*
X198659524Y-63038095D01*
X198469048Y-62990476D01*
X198135714Y-62990476D01*
X197945238Y-63038095D01*
X197850000Y-63133333D01*
X197802381Y-63228571D01*
X197802381Y-63419048D01*
X197850000Y-63514286D01*
X197945238Y-63609524D01*
X198135714Y-63657143D01*
X198469048Y-63657143D01*
X198659524Y-63609524D01*
X198754762Y-63514286D01*
X198802381Y-63419048D01*
X198802381Y-63228571D01*
X198802381Y-64609524D02*
X198802381Y-64038095D01*
X198802381Y-64323809D02*
X197802381Y-64323809D01*
X197945238Y-64228571D01*
X198040476Y-64133333D01*
X198088095Y-64038095D01*
D10*
X188057143Y-71328571D02*
X188114286Y-71300000D01*
X188171429Y-71242857D01*
X188257143Y-71157143D01*
X188314286Y-71128571D01*
X188371429Y-71128571D01*
X188342857Y-71271429D02*
X188400000Y-71242857D01*
X188457143Y-71185714D01*
X188485714Y-71071429D01*
X188485714Y-70871429D01*
X188457143Y-70757143D01*
X188400000Y-70700000D01*
X188342857Y-70671429D01*
X188228571Y-70671429D01*
X188171429Y-70700000D01*
X188114286Y-70757143D01*
X188085714Y-70871429D01*
X188085714Y-71071429D01*
X188114286Y-71185714D01*
X188171429Y-71242857D01*
X188228571Y-71271429D01*
X188342857Y-71271429D01*
X187857143Y-70728571D02*
X187828572Y-70700000D01*
X187771429Y-70671429D01*
X187628572Y-70671429D01*
X187571429Y-70700000D01*
X187542858Y-70728571D01*
X187514286Y-70785714D01*
X187514286Y-70842857D01*
X187542858Y-70928571D01*
X187885715Y-71271429D01*
X187514286Y-71271429D01*
D13*
X140976190Y-66338095D02*
X141052381Y-66300000D01*
X141128571Y-66223810D01*
X141242857Y-66109524D01*
X141319048Y-66071429D01*
X141395238Y-66071429D01*
X141357143Y-66261905D02*
X141433333Y-66223810D01*
X141509524Y-66147619D01*
X141547619Y-65995238D01*
X141547619Y-65728571D01*
X141509524Y-65576190D01*
X141433333Y-65500000D01*
X141357143Y-65461905D01*
X141204762Y-65461905D01*
X141128571Y-65500000D01*
X141052381Y-65576190D01*
X141014286Y-65728571D01*
X141014286Y-65995238D01*
X141052381Y-66147619D01*
X141128571Y-66223810D01*
X141204762Y-66261905D01*
X141357143Y-66261905D01*
X140747619Y-65461905D02*
X140252381Y-65461905D01*
X140519048Y-65766667D01*
X140404762Y-65766667D01*
X140328572Y-65804762D01*
X140290476Y-65842857D01*
X140252381Y-65919048D01*
X140252381Y-66109524D01*
X140290476Y-66185714D01*
X140328572Y-66223810D01*
X140404762Y-66261905D01*
X140633334Y-66261905D01*
X140709524Y-66223810D01*
X140747619Y-66185714D01*
X159776190Y-84538095D02*
X159852381Y-84500000D01*
X159928571Y-84423810D01*
X160042857Y-84309524D01*
X160119048Y-84271429D01*
X160195238Y-84271429D01*
X160157143Y-84461905D02*
X160233333Y-84423810D01*
X160309524Y-84347619D01*
X160347619Y-84195238D01*
X160347619Y-83928571D01*
X160309524Y-83776190D01*
X160233333Y-83700000D01*
X160157143Y-83661905D01*
X160004762Y-83661905D01*
X159928571Y-83700000D01*
X159852381Y-83776190D01*
X159814286Y-83928571D01*
X159814286Y-84195238D01*
X159852381Y-84347619D01*
X159928571Y-84423810D01*
X160004762Y-84461905D01*
X160157143Y-84461905D01*
X159128572Y-83928571D02*
X159128572Y-84461905D01*
X159319048Y-83623810D02*
X159509524Y-84195238D01*
X159014286Y-84195238D01*
X181383333Y-56783333D02*
X181350000Y-56716667D01*
X181283333Y-56650000D01*
X181183333Y-56550000D01*
X181150000Y-56483333D01*
X181150000Y-56416667D01*
X181316667Y-56450000D02*
X181283333Y-56383333D01*
X181216667Y-56316667D01*
X181083333Y-56283333D01*
X180850000Y-56283333D01*
X180716667Y-56316667D01*
X180650000Y-56383333D01*
X180616667Y-56450000D01*
X180616667Y-56583333D01*
X180650000Y-56650000D01*
X180716667Y-56716667D01*
X180850000Y-56750000D01*
X181083333Y-56750000D01*
X181216667Y-56716667D01*
X181283333Y-56650000D01*
X181316667Y-56583333D01*
X181316667Y-56450000D01*
X180616667Y-57383333D02*
X180616667Y-57050000D01*
X180950000Y-57016666D01*
X180916667Y-57050000D01*
X180883333Y-57116666D01*
X180883333Y-57283333D01*
X180916667Y-57350000D01*
X180950000Y-57383333D01*
X181016667Y-57416666D01*
X181183333Y-57416666D01*
X181250000Y-57383333D01*
X181283333Y-57350000D01*
X181316667Y-57283333D01*
X181316667Y-57116666D01*
X181283333Y-57050000D01*
X181250000Y-57016666D01*
X177733333Y-56783333D02*
X177700000Y-56716667D01*
X177633333Y-56650000D01*
X177533333Y-56550000D01*
X177500000Y-56483333D01*
X177500000Y-56416667D01*
X177666667Y-56450000D02*
X177633333Y-56383333D01*
X177566667Y-56316667D01*
X177433333Y-56283333D01*
X177200000Y-56283333D01*
X177066667Y-56316667D01*
X177000000Y-56383333D01*
X176966667Y-56450000D01*
X176966667Y-56583333D01*
X177000000Y-56650000D01*
X177066667Y-56716667D01*
X177200000Y-56750000D01*
X177433333Y-56750000D01*
X177566667Y-56716667D01*
X177633333Y-56650000D01*
X177666667Y-56583333D01*
X177666667Y-56450000D01*
X176966667Y-57350000D02*
X176966667Y-57216666D01*
X177000000Y-57150000D01*
X177033333Y-57116666D01*
X177133333Y-57050000D01*
X177266667Y-57016666D01*
X177533333Y-57016666D01*
X177600000Y-57050000D01*
X177633333Y-57083333D01*
X177666667Y-57150000D01*
X177666667Y-57283333D01*
X177633333Y-57350000D01*
X177600000Y-57383333D01*
X177533333Y-57416666D01*
X177366667Y-57416666D01*
X177300000Y-57383333D01*
X177266667Y-57350000D01*
X177233333Y-57283333D01*
X177233333Y-57150000D01*
X177266667Y-57083333D01*
X177300000Y-57050000D01*
X177366667Y-57016666D01*
X174133333Y-56683333D02*
X174100000Y-56616667D01*
X174033333Y-56550000D01*
X173933333Y-56450000D01*
X173900000Y-56383333D01*
X173900000Y-56316667D01*
X174066667Y-56350000D02*
X174033333Y-56283333D01*
X173966667Y-56216667D01*
X173833333Y-56183333D01*
X173600000Y-56183333D01*
X173466667Y-56216667D01*
X173400000Y-56283333D01*
X173366667Y-56350000D01*
X173366667Y-56483333D01*
X173400000Y-56550000D01*
X173466667Y-56616667D01*
X173600000Y-56650000D01*
X173833333Y-56650000D01*
X173966667Y-56616667D01*
X174033333Y-56550000D01*
X174066667Y-56483333D01*
X174066667Y-56350000D01*
X173366667Y-56883333D02*
X173366667Y-57350000D01*
X174066667Y-57050000D01*
X170533333Y-56633333D02*
X170500000Y-56566667D01*
X170433333Y-56500000D01*
X170333333Y-56400000D01*
X170300000Y-56333333D01*
X170300000Y-56266667D01*
X170466667Y-56300000D02*
X170433333Y-56233333D01*
X170366667Y-56166667D01*
X170233333Y-56133333D01*
X170000000Y-56133333D01*
X169866667Y-56166667D01*
X169800000Y-56233333D01*
X169766667Y-56300000D01*
X169766667Y-56433333D01*
X169800000Y-56500000D01*
X169866667Y-56566667D01*
X170000000Y-56600000D01*
X170233333Y-56600000D01*
X170366667Y-56566667D01*
X170433333Y-56500000D01*
X170466667Y-56433333D01*
X170466667Y-56300000D01*
X170066667Y-57000000D02*
X170033333Y-56933333D01*
X170000000Y-56900000D01*
X169933333Y-56866666D01*
X169900000Y-56866666D01*
X169833333Y-56900000D01*
X169800000Y-56933333D01*
X169766667Y-57000000D01*
X169766667Y-57133333D01*
X169800000Y-57200000D01*
X169833333Y-57233333D01*
X169900000Y-57266666D01*
X169933333Y-57266666D01*
X170000000Y-57233333D01*
X170033333Y-57200000D01*
X170066667Y-57133333D01*
X170066667Y-57000000D01*
X170100000Y-56933333D01*
X170133333Y-56900000D01*
X170200000Y-56866666D01*
X170333333Y-56866666D01*
X170400000Y-56900000D01*
X170433333Y-56933333D01*
X170466667Y-57000000D01*
X170466667Y-57133333D01*
X170433333Y-57200000D01*
X170400000Y-57233333D01*
X170333333Y-57266666D01*
X170200000Y-57266666D01*
X170133333Y-57233333D01*
X170100000Y-57200000D01*
X170066667Y-57133333D01*
X166933333Y-56633333D02*
X166900000Y-56566667D01*
X166833333Y-56500000D01*
X166733333Y-56400000D01*
X166700000Y-56333333D01*
X166700000Y-56266667D01*
X166866667Y-56300000D02*
X166833333Y-56233333D01*
X166766667Y-56166667D01*
X166633333Y-56133333D01*
X166400000Y-56133333D01*
X166266667Y-56166667D01*
X166200000Y-56233333D01*
X166166667Y-56300000D01*
X166166667Y-56433333D01*
X166200000Y-56500000D01*
X166266667Y-56566667D01*
X166400000Y-56600000D01*
X166633333Y-56600000D01*
X166766667Y-56566667D01*
X166833333Y-56500000D01*
X166866667Y-56433333D01*
X166866667Y-56300000D01*
X166866667Y-56933333D02*
X166866667Y-57066666D01*
X166833333Y-57133333D01*
X166800000Y-57166666D01*
X166700000Y-57233333D01*
X166566667Y-57266666D01*
X166300000Y-57266666D01*
X166233333Y-57233333D01*
X166200000Y-57200000D01*
X166166667Y-57133333D01*
X166166667Y-57000000D01*
X166200000Y-56933333D01*
X166233333Y-56900000D01*
X166300000Y-56866666D01*
X166466667Y-56866666D01*
X166533333Y-56900000D01*
X166566667Y-56933333D01*
X166600000Y-57000000D01*
X166600000Y-57133333D01*
X166566667Y-57200000D01*
X166533333Y-57233333D01*
X166466667Y-57266666D01*
X163333333Y-56300000D02*
X163300000Y-56233334D01*
X163233333Y-56166667D01*
X163133333Y-56066667D01*
X163100000Y-56000000D01*
X163100000Y-55933334D01*
X163266667Y-55966667D02*
X163233333Y-55900000D01*
X163166667Y-55833334D01*
X163033333Y-55800000D01*
X162800000Y-55800000D01*
X162666667Y-55833334D01*
X162600000Y-55900000D01*
X162566667Y-55966667D01*
X162566667Y-56100000D01*
X162600000Y-56166667D01*
X162666667Y-56233334D01*
X162800000Y-56266667D01*
X163033333Y-56266667D01*
X163166667Y-56233334D01*
X163233333Y-56166667D01*
X163266667Y-56100000D01*
X163266667Y-55966667D01*
X163266667Y-56933333D02*
X163266667Y-56533333D01*
X163266667Y-56733333D02*
X162566667Y-56733333D01*
X162666667Y-56666667D01*
X162733333Y-56600000D01*
X162766667Y-56533333D01*
X162566667Y-57366667D02*
X162566667Y-57433334D01*
X162600000Y-57500000D01*
X162633333Y-57533334D01*
X162700000Y-57566667D01*
X162833333Y-57600000D01*
X163000000Y-57600000D01*
X163133333Y-57566667D01*
X163200000Y-57533334D01*
X163233333Y-57500000D01*
X163266667Y-57433334D01*
X163266667Y-57366667D01*
X163233333Y-57300000D01*
X163200000Y-57266667D01*
X163133333Y-57233334D01*
X163000000Y-57200000D01*
X162833333Y-57200000D01*
X162700000Y-57233334D01*
X162633333Y-57266667D01*
X162600000Y-57300000D01*
X162566667Y-57366667D01*
X159733333Y-56350000D02*
X159700000Y-56283334D01*
X159633333Y-56216667D01*
X159533333Y-56116667D01*
X159500000Y-56050000D01*
X159500000Y-55983334D01*
X159666667Y-56016667D02*
X159633333Y-55950000D01*
X159566667Y-55883334D01*
X159433333Y-55850000D01*
X159200000Y-55850000D01*
X159066667Y-55883334D01*
X159000000Y-55950000D01*
X158966667Y-56016667D01*
X158966667Y-56150000D01*
X159000000Y-56216667D01*
X159066667Y-56283334D01*
X159200000Y-56316667D01*
X159433333Y-56316667D01*
X159566667Y-56283334D01*
X159633333Y-56216667D01*
X159666667Y-56150000D01*
X159666667Y-56016667D01*
X159666667Y-56983333D02*
X159666667Y-56583333D01*
X159666667Y-56783333D02*
X158966667Y-56783333D01*
X159066667Y-56716667D01*
X159133333Y-56650000D01*
X159166667Y-56583333D01*
X159666667Y-57650000D02*
X159666667Y-57250000D01*
X159666667Y-57450000D02*
X158966667Y-57450000D01*
X159066667Y-57383334D01*
X159133333Y-57316667D01*
X159166667Y-57250000D01*
X156083333Y-56300000D02*
X156050000Y-56233334D01*
X155983333Y-56166667D01*
X155883333Y-56066667D01*
X155850000Y-56000000D01*
X155850000Y-55933334D01*
X156016667Y-55966667D02*
X155983333Y-55900000D01*
X155916667Y-55833334D01*
X155783333Y-55800000D01*
X155550000Y-55800000D01*
X155416667Y-55833334D01*
X155350000Y-55900000D01*
X155316667Y-55966667D01*
X155316667Y-56100000D01*
X155350000Y-56166667D01*
X155416667Y-56233334D01*
X155550000Y-56266667D01*
X155783333Y-56266667D01*
X155916667Y-56233334D01*
X155983333Y-56166667D01*
X156016667Y-56100000D01*
X156016667Y-55966667D01*
X156016667Y-56933333D02*
X156016667Y-56533333D01*
X156016667Y-56733333D02*
X155316667Y-56733333D01*
X155416667Y-56666667D01*
X155483333Y-56600000D01*
X155516667Y-56533333D01*
X155383333Y-57200000D02*
X155350000Y-57233334D01*
X155316667Y-57300000D01*
X155316667Y-57466667D01*
X155350000Y-57533334D01*
X155383333Y-57566667D01*
X155450000Y-57600000D01*
X155516667Y-57600000D01*
X155616667Y-57566667D01*
X156016667Y-57166667D01*
X156016667Y-57600000D01*
X152533333Y-56250000D02*
X152500000Y-56183334D01*
X152433333Y-56116667D01*
X152333333Y-56016667D01*
X152300000Y-55950000D01*
X152300000Y-55883334D01*
X152466667Y-55916667D02*
X152433333Y-55850000D01*
X152366667Y-55783334D01*
X152233333Y-55750000D01*
X152000000Y-55750000D01*
X151866667Y-55783334D01*
X151800000Y-55850000D01*
X151766667Y-55916667D01*
X151766667Y-56050000D01*
X151800000Y-56116667D01*
X151866667Y-56183334D01*
X152000000Y-56216667D01*
X152233333Y-56216667D01*
X152366667Y-56183334D01*
X152433333Y-56116667D01*
X152466667Y-56050000D01*
X152466667Y-55916667D01*
X152466667Y-56883333D02*
X152466667Y-56483333D01*
X152466667Y-56683333D02*
X151766667Y-56683333D01*
X151866667Y-56616667D01*
X151933333Y-56550000D01*
X151966667Y-56483333D01*
X151766667Y-57116667D02*
X151766667Y-57550000D01*
X152033333Y-57316667D01*
X152033333Y-57416667D01*
X152066667Y-57483334D01*
X152100000Y-57516667D01*
X152166667Y-57550000D01*
X152333333Y-57550000D01*
X152400000Y-57516667D01*
X152433333Y-57483334D01*
X152466667Y-57416667D01*
X152466667Y-57216667D01*
X152433333Y-57150000D01*
X152400000Y-57116667D01*
X148933333Y-56250000D02*
X148900000Y-56183334D01*
X148833333Y-56116667D01*
X148733333Y-56016667D01*
X148700000Y-55950000D01*
X148700000Y-55883334D01*
X148866667Y-55916667D02*
X148833333Y-55850000D01*
X148766667Y-55783334D01*
X148633333Y-55750000D01*
X148400000Y-55750000D01*
X148266667Y-55783334D01*
X148200000Y-55850000D01*
X148166667Y-55916667D01*
X148166667Y-56050000D01*
X148200000Y-56116667D01*
X148266667Y-56183334D01*
X148400000Y-56216667D01*
X148633333Y-56216667D01*
X148766667Y-56183334D01*
X148833333Y-56116667D01*
X148866667Y-56050000D01*
X148866667Y-55916667D01*
X148866667Y-56883333D02*
X148866667Y-56483333D01*
X148866667Y-56683333D02*
X148166667Y-56683333D01*
X148266667Y-56616667D01*
X148333333Y-56550000D01*
X148366667Y-56483333D01*
X148400000Y-57483334D02*
X148866667Y-57483334D01*
X148133333Y-57316667D02*
X148633333Y-57150000D01*
X148633333Y-57583334D01*
X145333333Y-58650000D02*
X145300000Y-58583334D01*
X145233333Y-58516667D01*
X145133333Y-58416667D01*
X145100000Y-58350000D01*
X145100000Y-58283334D01*
X145266667Y-58316667D02*
X145233333Y-58250000D01*
X145166667Y-58183334D01*
X145033333Y-58150000D01*
X144800000Y-58150000D01*
X144666667Y-58183334D01*
X144600000Y-58250000D01*
X144566667Y-58316667D01*
X144566667Y-58450000D01*
X144600000Y-58516667D01*
X144666667Y-58583334D01*
X144800000Y-58616667D01*
X145033333Y-58616667D01*
X145166667Y-58583334D01*
X145233333Y-58516667D01*
X145266667Y-58450000D01*
X145266667Y-58316667D01*
X145266667Y-59283333D02*
X145266667Y-58883333D01*
X145266667Y-59083333D02*
X144566667Y-59083333D01*
X144666667Y-59016667D01*
X144733333Y-58950000D01*
X144766667Y-58883333D01*
X144566667Y-59916667D02*
X144566667Y-59583334D01*
X144900000Y-59550000D01*
X144866667Y-59583334D01*
X144833333Y-59650000D01*
X144833333Y-59816667D01*
X144866667Y-59883334D01*
X144900000Y-59916667D01*
X144966667Y-59950000D01*
X145133333Y-59950000D01*
X145200000Y-59916667D01*
X145233333Y-59883334D01*
X145266667Y-59816667D01*
X145266667Y-59650000D01*
X145233333Y-59583334D01*
X145200000Y-59550000D01*
X141733333Y-58700000D02*
X141700000Y-58633334D01*
X141633333Y-58566667D01*
X141533333Y-58466667D01*
X141500000Y-58400000D01*
X141500000Y-58333334D01*
X141666667Y-58366667D02*
X141633333Y-58300000D01*
X141566667Y-58233334D01*
X141433333Y-58200000D01*
X141200000Y-58200000D01*
X141066667Y-58233334D01*
X141000000Y-58300000D01*
X140966667Y-58366667D01*
X140966667Y-58500000D01*
X141000000Y-58566667D01*
X141066667Y-58633334D01*
X141200000Y-58666667D01*
X141433333Y-58666667D01*
X141566667Y-58633334D01*
X141633333Y-58566667D01*
X141666667Y-58500000D01*
X141666667Y-58366667D01*
X141666667Y-59333333D02*
X141666667Y-58933333D01*
X141666667Y-59133333D02*
X140966667Y-59133333D01*
X141066667Y-59066667D01*
X141133333Y-59000000D01*
X141166667Y-58933333D01*
X140966667Y-59933334D02*
X140966667Y-59800000D01*
X141000000Y-59733334D01*
X141033333Y-59700000D01*
X141133333Y-59633334D01*
X141266667Y-59600000D01*
X141533333Y-59600000D01*
X141600000Y-59633334D01*
X141633333Y-59666667D01*
X141666667Y-59733334D01*
X141666667Y-59866667D01*
X141633333Y-59933334D01*
X141600000Y-59966667D01*
X141533333Y-60000000D01*
X141366667Y-60000000D01*
X141300000Y-59966667D01*
X141266667Y-59933334D01*
X141233333Y-59866667D01*
X141233333Y-59733334D01*
X141266667Y-59666667D01*
X141300000Y-59633334D01*
X141366667Y-59600000D01*
X192000000Y-71671429D02*
X192200000Y-71385714D01*
X192342857Y-71671429D02*
X192342857Y-71071429D01*
X192114285Y-71071429D01*
X192057143Y-71100000D01*
X192028571Y-71128571D01*
X192000000Y-71185714D01*
X192000000Y-71271429D01*
X192028571Y-71328571D01*
X192057143Y-71357143D01*
X192114285Y-71385714D01*
X192342857Y-71385714D01*
X191428571Y-71671429D02*
X191771428Y-71671429D01*
X191600000Y-71671429D02*
X191600000Y-71071429D01*
X191657143Y-71157143D01*
X191714285Y-71214286D01*
X191771428Y-71242857D01*
X189016667Y-68183334D02*
X188683333Y-67950000D01*
X189016667Y-67783334D02*
X188316667Y-67783334D01*
X188316667Y-68050000D01*
X188350000Y-68116667D01*
X188383333Y-68150000D01*
X188450000Y-68183334D01*
X188550000Y-68183334D01*
X188616667Y-68150000D01*
X188650000Y-68116667D01*
X188683333Y-68050000D01*
X188683333Y-67783334D01*
X188383333Y-68450000D02*
X188350000Y-68483334D01*
X188316667Y-68550000D01*
X188316667Y-68716667D01*
X188350000Y-68783334D01*
X188383333Y-68816667D01*
X188450000Y-68850000D01*
X188516667Y-68850000D01*
X188616667Y-68816667D01*
X189016667Y-68416667D01*
X189016667Y-68850000D01*
X197616666Y-74402381D02*
X197950000Y-73926190D01*
X198188095Y-74402381D02*
X198188095Y-73402381D01*
X197807142Y-73402381D01*
X197711904Y-73450000D01*
X197664285Y-73497619D01*
X197616666Y-73592857D01*
X197616666Y-73735714D01*
X197664285Y-73830952D01*
X197711904Y-73878571D01*
X197807142Y-73926190D01*
X198188095Y-73926190D01*
X197283333Y-73402381D02*
X196664285Y-73402381D01*
X196997619Y-73783333D01*
X196854761Y-73783333D01*
X196759523Y-73830952D01*
X196711904Y-73878571D01*
X196664285Y-73973810D01*
X196664285Y-74211905D01*
X196711904Y-74307143D01*
X196759523Y-74354762D01*
X196854761Y-74402381D01*
X197140476Y-74402381D01*
X197235714Y-74354762D01*
X197283333Y-74307143D01*
X182333333Y-70861905D02*
X182600000Y-70480952D01*
X182790476Y-70861905D02*
X182790476Y-70061905D01*
X182485714Y-70061905D01*
X182409523Y-70100000D01*
X182371428Y-70138095D01*
X182333333Y-70214286D01*
X182333333Y-70328571D01*
X182371428Y-70404762D01*
X182409523Y-70442857D01*
X182485714Y-70480952D01*
X182790476Y-70480952D01*
X181647619Y-70328571D02*
X181647619Y-70861905D01*
X181838095Y-70023810D02*
X182028571Y-70595238D01*
X181533333Y-70595238D01*
X176561905Y-70566667D02*
X176180952Y-70300000D01*
X176561905Y-70109524D02*
X175761905Y-70109524D01*
X175761905Y-70414286D01*
X175800000Y-70490477D01*
X175838095Y-70528572D01*
X175914286Y-70566667D01*
X176028571Y-70566667D01*
X176104762Y-70528572D01*
X176142857Y-70490477D01*
X176180952Y-70414286D01*
X176180952Y-70109524D01*
X175761905Y-71290477D02*
X175761905Y-70909524D01*
X176142857Y-70871429D01*
X176104762Y-70909524D01*
X176066667Y-70985715D01*
X176066667Y-71176191D01*
X176104762Y-71252381D01*
X176142857Y-71290477D01*
X176219048Y-71328572D01*
X176409524Y-71328572D01*
X176485714Y-71290477D01*
X176523810Y-71252381D01*
X176561905Y-71176191D01*
X176561905Y-70985715D01*
X176523810Y-70909524D01*
X176485714Y-70871429D01*
X182966666Y-84352381D02*
X183300000Y-83876190D01*
X183538095Y-84352381D02*
X183538095Y-83352381D01*
X183157142Y-83352381D01*
X183061904Y-83400000D01*
X183014285Y-83447619D01*
X182966666Y-83542857D01*
X182966666Y-83685714D01*
X183014285Y-83780952D01*
X183061904Y-83828571D01*
X183157142Y-83876190D01*
X183538095Y-83876190D01*
X182109523Y-83352381D02*
X182300000Y-83352381D01*
X182395238Y-83400000D01*
X182442857Y-83447619D01*
X182538095Y-83590476D01*
X182585714Y-83780952D01*
X182585714Y-84161905D01*
X182538095Y-84257143D01*
X182490476Y-84304762D01*
X182395238Y-84352381D01*
X182204761Y-84352381D01*
X182109523Y-84304762D01*
X182061904Y-84257143D01*
X182014285Y-84161905D01*
X182014285Y-83923810D01*
X182061904Y-83828571D01*
X182109523Y-83780952D01*
X182204761Y-83733333D01*
X182395238Y-83733333D01*
X182490476Y-83780952D01*
X182538095Y-83828571D01*
X182585714Y-83923810D01*
X180466666Y-84352381D02*
X180800000Y-83876190D01*
X181038095Y-84352381D02*
X181038095Y-83352381D01*
X180657142Y-83352381D01*
X180561904Y-83400000D01*
X180514285Y-83447619D01*
X180466666Y-83542857D01*
X180466666Y-83685714D01*
X180514285Y-83780952D01*
X180561904Y-83828571D01*
X180657142Y-83876190D01*
X181038095Y-83876190D01*
X180133333Y-83352381D02*
X179466666Y-83352381D01*
X179895238Y-84352381D01*
X142233333Y-71361905D02*
X142500000Y-70980952D01*
X142690476Y-71361905D02*
X142690476Y-70561905D01*
X142385714Y-70561905D01*
X142309523Y-70600000D01*
X142271428Y-70638095D01*
X142233333Y-70714286D01*
X142233333Y-70828571D01*
X142271428Y-70904762D01*
X142309523Y-70942857D01*
X142385714Y-70980952D01*
X142690476Y-70980952D01*
X141776190Y-70904762D02*
X141852381Y-70866667D01*
X141890476Y-70828571D01*
X141928571Y-70752381D01*
X141928571Y-70714286D01*
X141890476Y-70638095D01*
X141852381Y-70600000D01*
X141776190Y-70561905D01*
X141623809Y-70561905D01*
X141547619Y-70600000D01*
X141509523Y-70638095D01*
X141471428Y-70714286D01*
X141471428Y-70752381D01*
X141509523Y-70828571D01*
X141547619Y-70866667D01*
X141623809Y-70904762D01*
X141776190Y-70904762D01*
X141852381Y-70942857D01*
X141890476Y-70980952D01*
X141928571Y-71057143D01*
X141928571Y-71209524D01*
X141890476Y-71285714D01*
X141852381Y-71323810D01*
X141776190Y-71361905D01*
X141623809Y-71361905D01*
X141547619Y-71323810D01*
X141509523Y-71285714D01*
X141471428Y-71209524D01*
X141471428Y-71057143D01*
X141509523Y-70980952D01*
X141547619Y-70942857D01*
X141623809Y-70904762D01*
X147233333Y-70561905D02*
X147500000Y-70180952D01*
X147690476Y-70561905D02*
X147690476Y-69761905D01*
X147385714Y-69761905D01*
X147309523Y-69800000D01*
X147271428Y-69838095D01*
X147233333Y-69914286D01*
X147233333Y-70028571D01*
X147271428Y-70104762D01*
X147309523Y-70142857D01*
X147385714Y-70180952D01*
X147690476Y-70180952D01*
X146852381Y-70561905D02*
X146700000Y-70561905D01*
X146623809Y-70523810D01*
X146585714Y-70485714D01*
X146509523Y-70371429D01*
X146471428Y-70219048D01*
X146471428Y-69914286D01*
X146509523Y-69838095D01*
X146547619Y-69800000D01*
X146623809Y-69761905D01*
X146776190Y-69761905D01*
X146852381Y-69800000D01*
X146890476Y-69838095D01*
X146928571Y-69914286D01*
X146928571Y-70104762D01*
X146890476Y-70180952D01*
X146852381Y-70219048D01*
X146776190Y-70257143D01*
X146623809Y-70257143D01*
X146547619Y-70219048D01*
X146509523Y-70180952D01*
X146471428Y-70104762D01*
X154761905Y-82785714D02*
X154380952Y-82519047D01*
X154761905Y-82328571D02*
X153961905Y-82328571D01*
X153961905Y-82633333D01*
X154000000Y-82709524D01*
X154038095Y-82747619D01*
X154114286Y-82785714D01*
X154228571Y-82785714D01*
X154304762Y-82747619D01*
X154342857Y-82709524D01*
X154380952Y-82633333D01*
X154380952Y-82328571D01*
X154761905Y-83547619D02*
X154761905Y-83090476D01*
X154761905Y-83319047D02*
X153961905Y-83319047D01*
X154076190Y-83242857D01*
X154152381Y-83166666D01*
X154190476Y-83090476D01*
X153961905Y-83814286D02*
X153961905Y-84309524D01*
X154266667Y-84042857D01*
X154266667Y-84157143D01*
X154304762Y-84233333D01*
X154342857Y-84271429D01*
X154419048Y-84309524D01*
X154609524Y-84309524D01*
X154685714Y-84271429D01*
X154723810Y-84233333D01*
X154761905Y-84157143D01*
X154761905Y-83928571D01*
X154723810Y-83852381D01*
X154685714Y-83814286D01*
X151061905Y-75085714D02*
X150680952Y-74819047D01*
X151061905Y-74628571D02*
X150261905Y-74628571D01*
X150261905Y-74933333D01*
X150300000Y-75009524D01*
X150338095Y-75047619D01*
X150414286Y-75085714D01*
X150528571Y-75085714D01*
X150604762Y-75047619D01*
X150642857Y-75009524D01*
X150680952Y-74933333D01*
X150680952Y-74628571D01*
X151061905Y-75847619D02*
X151061905Y-75390476D01*
X151061905Y-75619047D02*
X150261905Y-75619047D01*
X150376190Y-75542857D01*
X150452381Y-75466666D01*
X150490476Y-75390476D01*
X150528571Y-76533333D02*
X151061905Y-76533333D01*
X150223810Y-76342857D02*
X150795238Y-76152381D01*
X150795238Y-76647619D01*
X155850000Y-82016667D02*
X156083334Y-81683333D01*
X156250000Y-82016667D02*
X156250000Y-81316667D01*
X155983334Y-81316667D01*
X155916667Y-81350000D01*
X155883334Y-81383333D01*
X155850000Y-81450000D01*
X155850000Y-81550000D01*
X155883334Y-81616667D01*
X155916667Y-81650000D01*
X155983334Y-81683333D01*
X156250000Y-81683333D01*
X155183334Y-82016667D02*
X155583334Y-82016667D01*
X155383334Y-82016667D02*
X155383334Y-81316667D01*
X155450000Y-81416667D01*
X155516667Y-81483333D01*
X155583334Y-81516667D01*
X154950000Y-81316667D02*
X154483333Y-81316667D01*
X154783333Y-82016667D01*
D10*
X173371429Y-63914285D02*
X173085714Y-63714285D01*
X173371429Y-63571428D02*
X172771429Y-63571428D01*
X172771429Y-63800000D01*
X172800000Y-63857142D01*
X172828571Y-63885714D01*
X172885714Y-63914285D01*
X172971429Y-63914285D01*
X173028571Y-63885714D01*
X173057143Y-63857142D01*
X173085714Y-63800000D01*
X173085714Y-63571428D01*
X173371429Y-64485714D02*
X173371429Y-64142857D01*
X173371429Y-64314285D02*
X172771429Y-64314285D01*
X172857143Y-64257142D01*
X172914286Y-64200000D01*
X172942857Y-64142857D01*
X173371429Y-64771429D02*
X173371429Y-64885714D01*
X173342857Y-64942857D01*
X173314286Y-64971429D01*
X173228571Y-65028571D01*
X173114286Y-65057143D01*
X172885714Y-65057143D01*
X172828571Y-65028571D01*
X172800000Y-65000000D01*
X172771429Y-64942857D01*
X172771429Y-64828571D01*
X172800000Y-64771429D01*
X172828571Y-64742857D01*
X172885714Y-64714286D01*
X173028571Y-64714286D01*
X173085714Y-64742857D01*
X173114286Y-64771429D01*
X173142857Y-64828571D01*
X173142857Y-64942857D01*
X173114286Y-65000000D01*
X173085714Y-65028571D01*
X173028571Y-65057143D01*
D13*
X156861905Y-63835714D02*
X156480952Y-63569047D01*
X156861905Y-63378571D02*
X156061905Y-63378571D01*
X156061905Y-63683333D01*
X156100000Y-63759524D01*
X156138095Y-63797619D01*
X156214286Y-63835714D01*
X156328571Y-63835714D01*
X156404762Y-63797619D01*
X156442857Y-63759524D01*
X156480952Y-63683333D01*
X156480952Y-63378571D01*
X156138095Y-64140476D02*
X156100000Y-64178571D01*
X156061905Y-64254762D01*
X156061905Y-64445238D01*
X156100000Y-64521428D01*
X156138095Y-64559524D01*
X156214286Y-64597619D01*
X156290476Y-64597619D01*
X156404762Y-64559524D01*
X156861905Y-64102381D01*
X156861905Y-64597619D01*
X156861905Y-65359524D02*
X156861905Y-64902381D01*
X156861905Y-65130952D02*
X156061905Y-65130952D01*
X156176190Y-65054762D01*
X156252381Y-64978571D01*
X156290476Y-64902381D01*
X159761905Y-63835714D02*
X159380952Y-63569047D01*
X159761905Y-63378571D02*
X158961905Y-63378571D01*
X158961905Y-63683333D01*
X159000000Y-63759524D01*
X159038095Y-63797619D01*
X159114286Y-63835714D01*
X159228571Y-63835714D01*
X159304762Y-63797619D01*
X159342857Y-63759524D01*
X159380952Y-63683333D01*
X159380952Y-63378571D01*
X159038095Y-64140476D02*
X159000000Y-64178571D01*
X158961905Y-64254762D01*
X158961905Y-64445238D01*
X159000000Y-64521428D01*
X159038095Y-64559524D01*
X159114286Y-64597619D01*
X159190476Y-64597619D01*
X159304762Y-64559524D01*
X159761905Y-64102381D01*
X159761905Y-64597619D01*
X158961905Y-64864286D02*
X158961905Y-65359524D01*
X159266667Y-65092857D01*
X159266667Y-65207143D01*
X159304762Y-65283333D01*
X159342857Y-65321429D01*
X159419048Y-65359524D01*
X159609524Y-65359524D01*
X159685714Y-65321429D01*
X159723810Y-65283333D01*
X159761905Y-65207143D01*
X159761905Y-64978571D01*
X159723810Y-64902381D01*
X159685714Y-64864286D01*
X158161905Y-63885714D02*
X157780952Y-63619047D01*
X158161905Y-63428571D02*
X157361905Y-63428571D01*
X157361905Y-63733333D01*
X157400000Y-63809524D01*
X157438095Y-63847619D01*
X157514286Y-63885714D01*
X157628571Y-63885714D01*
X157704762Y-63847619D01*
X157742857Y-63809524D01*
X157780952Y-63733333D01*
X157780952Y-63428571D01*
X157438095Y-64190476D02*
X157400000Y-64228571D01*
X157361905Y-64304762D01*
X157361905Y-64495238D01*
X157400000Y-64571428D01*
X157438095Y-64609524D01*
X157514286Y-64647619D01*
X157590476Y-64647619D01*
X157704762Y-64609524D01*
X158161905Y-64152381D01*
X158161905Y-64647619D01*
X157628571Y-65333333D02*
X158161905Y-65333333D01*
X157323810Y-65142857D02*
X157895238Y-64952381D01*
X157895238Y-65447619D01*
X155161905Y-63785714D02*
X154780952Y-63519047D01*
X155161905Y-63328571D02*
X154361905Y-63328571D01*
X154361905Y-63633333D01*
X154400000Y-63709524D01*
X154438095Y-63747619D01*
X154514286Y-63785714D01*
X154628571Y-63785714D01*
X154704762Y-63747619D01*
X154742857Y-63709524D01*
X154780952Y-63633333D01*
X154780952Y-63328571D01*
X154438095Y-64090476D02*
X154400000Y-64128571D01*
X154361905Y-64204762D01*
X154361905Y-64395238D01*
X154400000Y-64471428D01*
X154438095Y-64509524D01*
X154514286Y-64547619D01*
X154590476Y-64547619D01*
X154704762Y-64509524D01*
X155161905Y-64052381D01*
X155161905Y-64547619D01*
X154361905Y-65271429D02*
X154361905Y-64890476D01*
X154742857Y-64852381D01*
X154704762Y-64890476D01*
X154666667Y-64966667D01*
X154666667Y-65157143D01*
X154704762Y-65233333D01*
X154742857Y-65271429D01*
X154819048Y-65309524D01*
X155009524Y-65309524D01*
X155085714Y-65271429D01*
X155123810Y-65233333D01*
X155161905Y-65157143D01*
X155161905Y-64966667D01*
X155123810Y-64890476D01*
X155085714Y-64852381D01*
X174950000Y-62016667D02*
X175183334Y-61683333D01*
X175350000Y-62016667D02*
X175350000Y-61316667D01*
X175083334Y-61316667D01*
X175016667Y-61350000D01*
X174983334Y-61383333D01*
X174950000Y-61450000D01*
X174950000Y-61550000D01*
X174983334Y-61616667D01*
X175016667Y-61650000D01*
X175083334Y-61683333D01*
X175350000Y-61683333D01*
X174683334Y-61383333D02*
X174650000Y-61350000D01*
X174583334Y-61316667D01*
X174416667Y-61316667D01*
X174350000Y-61350000D01*
X174316667Y-61383333D01*
X174283334Y-61450000D01*
X174283334Y-61516667D01*
X174316667Y-61616667D01*
X174716667Y-62016667D01*
X174283334Y-62016667D01*
X173683333Y-61316667D02*
X173816667Y-61316667D01*
X173883333Y-61350000D01*
X173916667Y-61383333D01*
X173983333Y-61483333D01*
X174016667Y-61616667D01*
X174016667Y-61883333D01*
X173983333Y-61950000D01*
X173950000Y-61983333D01*
X173883333Y-62016667D01*
X173750000Y-62016667D01*
X173683333Y-61983333D01*
X173650000Y-61950000D01*
X173616667Y-61883333D01*
X173616667Y-61716667D01*
X173650000Y-61650000D01*
X173683333Y-61616667D01*
X173750000Y-61583333D01*
X173883333Y-61583333D01*
X173950000Y-61616667D01*
X173983333Y-61650000D01*
X174016667Y-61716667D01*
X196985715Y-58271429D02*
X197185715Y-57985714D01*
X197328572Y-58271429D02*
X197328572Y-57671429D01*
X197100000Y-57671429D01*
X197042858Y-57700000D01*
X197014286Y-57728571D01*
X196985715Y-57785714D01*
X196985715Y-57871429D01*
X197014286Y-57928571D01*
X197042858Y-57957143D01*
X197100000Y-57985714D01*
X197328572Y-57985714D01*
X196471429Y-57671429D02*
X196585715Y-57671429D01*
X196642858Y-57700000D01*
X196671429Y-57728571D01*
X196728572Y-57814286D01*
X196757143Y-57928571D01*
X196757143Y-58157143D01*
X196728572Y-58214286D01*
X196700000Y-58242857D01*
X196642858Y-58271429D01*
X196528572Y-58271429D01*
X196471429Y-58242857D01*
X196442858Y-58214286D01*
X196414286Y-58157143D01*
X196414286Y-58014286D01*
X196442858Y-57957143D01*
X196471429Y-57928571D01*
X196528572Y-57900000D01*
X196642858Y-57900000D01*
X196700000Y-57928571D01*
X196728572Y-57957143D01*
X196757143Y-58014286D01*
X195900000Y-57871429D02*
X195900000Y-58271429D01*
X196042857Y-57642857D02*
X196185714Y-58071429D01*
X195814286Y-58071429D01*
X196985715Y-59771429D02*
X197185715Y-59485714D01*
X197328572Y-59771429D02*
X197328572Y-59171429D01*
X197100000Y-59171429D01*
X197042858Y-59200000D01*
X197014286Y-59228571D01*
X196985715Y-59285714D01*
X196985715Y-59371429D01*
X197014286Y-59428571D01*
X197042858Y-59457143D01*
X197100000Y-59485714D01*
X197328572Y-59485714D01*
X196471429Y-59171429D02*
X196585715Y-59171429D01*
X196642858Y-59200000D01*
X196671429Y-59228571D01*
X196728572Y-59314286D01*
X196757143Y-59428571D01*
X196757143Y-59657143D01*
X196728572Y-59714286D01*
X196700000Y-59742857D01*
X196642858Y-59771429D01*
X196528572Y-59771429D01*
X196471429Y-59742857D01*
X196442858Y-59714286D01*
X196414286Y-59657143D01*
X196414286Y-59514286D01*
X196442858Y-59457143D01*
X196471429Y-59428571D01*
X196528572Y-59400000D01*
X196642858Y-59400000D01*
X196700000Y-59428571D01*
X196728572Y-59457143D01*
X196757143Y-59514286D01*
X195871429Y-59171429D02*
X196157143Y-59171429D01*
X196185714Y-59457143D01*
X196157143Y-59428571D01*
X196100000Y-59400000D01*
X195957143Y-59400000D01*
X195900000Y-59428571D01*
X195871429Y-59457143D01*
X195842857Y-59514286D01*
X195842857Y-59657143D01*
X195871429Y-59714286D01*
X195900000Y-59742857D01*
X195957143Y-59771429D01*
X196100000Y-59771429D01*
X196157143Y-59742857D01*
X196185714Y-59714286D01*
X198552381Y-57757143D02*
X198076190Y-57423809D01*
X198552381Y-57185714D02*
X197552381Y-57185714D01*
X197552381Y-57566667D01*
X197600000Y-57661905D01*
X197647619Y-57709524D01*
X197742857Y-57757143D01*
X197885714Y-57757143D01*
X197980952Y-57709524D01*
X198028571Y-57661905D01*
X198076190Y-57566667D01*
X198076190Y-57185714D01*
X197552381Y-58614286D02*
X197552381Y-58423809D01*
X197600000Y-58328571D01*
X197647619Y-58280952D01*
X197790476Y-58185714D01*
X197980952Y-58138095D01*
X198361905Y-58138095D01*
X198457143Y-58185714D01*
X198504762Y-58233333D01*
X198552381Y-58328571D01*
X198552381Y-58519048D01*
X198504762Y-58614286D01*
X198457143Y-58661905D01*
X198361905Y-58709524D01*
X198123810Y-58709524D01*
X198028571Y-58661905D01*
X197980952Y-58614286D01*
X197933333Y-58519048D01*
X197933333Y-58328571D01*
X197980952Y-58233333D01*
X198028571Y-58185714D01*
X198123810Y-58138095D01*
X197552381Y-59566667D02*
X197552381Y-59376190D01*
X197600000Y-59280952D01*
X197647619Y-59233333D01*
X197790476Y-59138095D01*
X197980952Y-59090476D01*
X198361905Y-59090476D01*
X198457143Y-59138095D01*
X198504762Y-59185714D01*
X198552381Y-59280952D01*
X198552381Y-59471429D01*
X198504762Y-59566667D01*
X198457143Y-59614286D01*
X198361905Y-59661905D01*
X198123810Y-59661905D01*
X198028571Y-59614286D01*
X197980952Y-59566667D01*
X197933333Y-59471429D01*
X197933333Y-59280952D01*
X197980952Y-59185714D01*
X198028571Y-59138095D01*
X198123810Y-59090476D01*
X169914286Y-79861905D02*
X170180953Y-79480952D01*
X170371429Y-79861905D02*
X170371429Y-79061905D01*
X170066667Y-79061905D01*
X169990476Y-79100000D01*
X169952381Y-79138095D01*
X169914286Y-79214286D01*
X169914286Y-79328571D01*
X169952381Y-79404762D01*
X169990476Y-79442857D01*
X170066667Y-79480952D01*
X170371429Y-79480952D01*
X169228572Y-79061905D02*
X169380953Y-79061905D01*
X169457143Y-79100000D01*
X169495238Y-79138095D01*
X169571429Y-79252381D01*
X169609524Y-79404762D01*
X169609524Y-79709524D01*
X169571429Y-79785714D01*
X169533334Y-79823810D01*
X169457143Y-79861905D01*
X169304762Y-79861905D01*
X169228572Y-79823810D01*
X169190476Y-79785714D01*
X169152381Y-79709524D01*
X169152381Y-79519048D01*
X169190476Y-79442857D01*
X169228572Y-79404762D01*
X169304762Y-79366667D01*
X169457143Y-79366667D01*
X169533334Y-79404762D01*
X169571429Y-79442857D01*
X169609524Y-79519048D01*
X168885714Y-79061905D02*
X168352381Y-79061905D01*
X168695238Y-79861905D01*
X174114286Y-71961905D02*
X174380953Y-71580952D01*
X174571429Y-71961905D02*
X174571429Y-71161905D01*
X174266667Y-71161905D01*
X174190476Y-71200000D01*
X174152381Y-71238095D01*
X174114286Y-71314286D01*
X174114286Y-71428571D01*
X174152381Y-71504762D01*
X174190476Y-71542857D01*
X174266667Y-71580952D01*
X174571429Y-71580952D01*
X173428572Y-71161905D02*
X173580953Y-71161905D01*
X173657143Y-71200000D01*
X173695238Y-71238095D01*
X173771429Y-71352381D01*
X173809524Y-71504762D01*
X173809524Y-71809524D01*
X173771429Y-71885714D01*
X173733334Y-71923810D01*
X173657143Y-71961905D01*
X173504762Y-71961905D01*
X173428572Y-71923810D01*
X173390476Y-71885714D01*
X173352381Y-71809524D01*
X173352381Y-71619048D01*
X173390476Y-71542857D01*
X173428572Y-71504762D01*
X173504762Y-71466667D01*
X173657143Y-71466667D01*
X173733334Y-71504762D01*
X173771429Y-71542857D01*
X173809524Y-71619048D01*
X172971429Y-71961905D02*
X172819048Y-71961905D01*
X172742857Y-71923810D01*
X172704762Y-71885714D01*
X172628571Y-71771429D01*
X172590476Y-71619048D01*
X172590476Y-71314286D01*
X172628571Y-71238095D01*
X172666667Y-71200000D01*
X172742857Y-71161905D01*
X172895238Y-71161905D01*
X172971429Y-71200000D01*
X173009524Y-71238095D01*
X173047619Y-71314286D01*
X173047619Y-71504762D01*
X173009524Y-71580952D01*
X172971429Y-71619048D01*
X172895238Y-71657143D01*
X172742857Y-71657143D01*
X172666667Y-71619048D01*
X172628571Y-71580952D01*
X172590476Y-71504762D01*
X175061905Y-83185714D02*
X174680952Y-82919047D01*
X175061905Y-82728571D02*
X174261905Y-82728571D01*
X174261905Y-83033333D01*
X174300000Y-83109524D01*
X174338095Y-83147619D01*
X174414286Y-83185714D01*
X174528571Y-83185714D01*
X174604762Y-83147619D01*
X174642857Y-83109524D01*
X174680952Y-83033333D01*
X174680952Y-82728571D01*
X174261905Y-83452381D02*
X174261905Y-83985714D01*
X175061905Y-83642857D01*
X174261905Y-84442857D02*
X174261905Y-84519048D01*
X174300000Y-84595238D01*
X174338095Y-84633333D01*
X174414286Y-84671429D01*
X174566667Y-84709524D01*
X174757143Y-84709524D01*
X174909524Y-84671429D01*
X174985714Y-84633333D01*
X175023810Y-84595238D01*
X175061905Y-84519048D01*
X175061905Y-84442857D01*
X175023810Y-84366667D01*
X174985714Y-84328571D01*
X174909524Y-84290476D01*
X174757143Y-84252381D01*
X174566667Y-84252381D01*
X174414286Y-84290476D01*
X174338095Y-84328571D01*
X174300000Y-84366667D01*
X174261905Y-84442857D01*
X177292857Y-84402381D02*
X177626191Y-83926190D01*
X177864286Y-84402381D02*
X177864286Y-83402381D01*
X177483333Y-83402381D01*
X177388095Y-83450000D01*
X177340476Y-83497619D01*
X177292857Y-83592857D01*
X177292857Y-83735714D01*
X177340476Y-83830952D01*
X177388095Y-83878571D01*
X177483333Y-83926190D01*
X177864286Y-83926190D01*
X176959524Y-83402381D02*
X176292857Y-83402381D01*
X176721429Y-84402381D01*
X175388095Y-84402381D02*
X175959524Y-84402381D01*
X175673810Y-84402381D02*
X175673810Y-83402381D01*
X175769048Y-83545238D01*
X175864286Y-83640476D01*
X175959524Y-83688095D01*
X173661905Y-82585714D02*
X173280952Y-82319047D01*
X173661905Y-82128571D02*
X172861905Y-82128571D01*
X172861905Y-82433333D01*
X172900000Y-82509524D01*
X172938095Y-82547619D01*
X173014286Y-82585714D01*
X173128571Y-82585714D01*
X173204762Y-82547619D01*
X173242857Y-82509524D01*
X173280952Y-82433333D01*
X173280952Y-82128571D01*
X172861905Y-82852381D02*
X172861905Y-83385714D01*
X173661905Y-83042857D01*
X172938095Y-83652381D02*
X172900000Y-83690476D01*
X172861905Y-83766667D01*
X172861905Y-83957143D01*
X172900000Y-84033333D01*
X172938095Y-84071429D01*
X173014286Y-84109524D01*
X173090476Y-84109524D01*
X173204762Y-84071429D01*
X173661905Y-83614286D01*
X173661905Y-84109524D01*
X145202381Y-77438095D02*
X146011905Y-77438095D01*
X146107143Y-77485714D01*
X146154762Y-77533333D01*
X146202381Y-77628571D01*
X146202381Y-77819048D01*
X146154762Y-77914286D01*
X146107143Y-77961905D01*
X146011905Y-78009524D01*
X145202381Y-78009524D01*
X146202381Y-79009524D02*
X146202381Y-78438095D01*
X146202381Y-78723809D02*
X145202381Y-78723809D01*
X145345238Y-78628571D01*
X145440476Y-78533333D01*
X145488095Y-78438095D01*
X155061905Y-68302381D02*
X155061905Y-69111905D01*
X155014286Y-69207143D01*
X154966667Y-69254762D01*
X154871429Y-69302381D01*
X154680952Y-69302381D01*
X154585714Y-69254762D01*
X154538095Y-69207143D01*
X154490476Y-69111905D01*
X154490476Y-68302381D01*
X154061905Y-68397619D02*
X154014286Y-68350000D01*
X153919048Y-68302381D01*
X153680952Y-68302381D01*
X153585714Y-68350000D01*
X153538095Y-68397619D01*
X153490476Y-68492857D01*
X153490476Y-68588095D01*
X153538095Y-68730952D01*
X154109524Y-69302381D01*
X153490476Y-69302381D01*
X184016667Y-68266667D02*
X184583333Y-68266667D01*
X184650000Y-68300000D01*
X184683333Y-68333333D01*
X184716667Y-68400000D01*
X184716667Y-68533333D01*
X184683333Y-68600000D01*
X184650000Y-68633333D01*
X184583333Y-68666667D01*
X184016667Y-68666667D01*
X184250000Y-69300000D02*
X184716667Y-69300000D01*
X183983333Y-69133333D02*
X184483333Y-68966666D01*
X184483333Y-69400000D01*
X188209524Y-55461905D02*
X188209524Y-56109524D01*
X188171429Y-56185714D01*
X188133333Y-56223810D01*
X188057143Y-56261905D01*
X187904762Y-56261905D01*
X187828571Y-56223810D01*
X187790476Y-56185714D01*
X187752381Y-56109524D01*
X187752381Y-55461905D01*
X186990476Y-55461905D02*
X187371429Y-55461905D01*
X187409524Y-55842857D01*
X187371429Y-55804762D01*
X187295238Y-55766667D01*
X187104762Y-55766667D01*
X187028572Y-55804762D01*
X186990476Y-55842857D01*
X186952381Y-55919048D01*
X186952381Y-56109524D01*
X186990476Y-56185714D01*
X187028572Y-56223810D01*
X187104762Y-56261905D01*
X187295238Y-56261905D01*
X187371429Y-56223810D01*
X187409524Y-56185714D01*
X167052381Y-74588095D02*
X167861905Y-74588095D01*
X167957143Y-74635714D01*
X168004762Y-74683333D01*
X168052381Y-74778571D01*
X168052381Y-74969048D01*
X168004762Y-75064286D01*
X167957143Y-75111905D01*
X167861905Y-75159524D01*
X167052381Y-75159524D01*
X167052381Y-76064286D02*
X167052381Y-75873809D01*
X167100000Y-75778571D01*
X167147619Y-75730952D01*
X167290476Y-75635714D01*
X167480952Y-75588095D01*
X167861905Y-75588095D01*
X167957143Y-75635714D01*
X168004762Y-75683333D01*
X168052381Y-75778571D01*
X168052381Y-75969048D01*
X168004762Y-76064286D01*
X167957143Y-76111905D01*
X167861905Y-76159524D01*
X167623810Y-76159524D01*
X167528571Y-76111905D01*
X167480952Y-76064286D01*
X167433333Y-75969048D01*
X167433333Y-75778571D01*
X167480952Y-75683333D01*
X167528571Y-75635714D01*
X167623810Y-75588095D01*
X170161905Y-83752381D02*
X170161905Y-84561905D01*
X170114286Y-84657143D01*
X170066667Y-84704762D01*
X169971429Y-84752381D01*
X169780952Y-84752381D01*
X169685714Y-84704762D01*
X169638095Y-84657143D01*
X169590476Y-84561905D01*
X169590476Y-83752381D01*
X169209524Y-83752381D02*
X168542857Y-83752381D01*
X168971429Y-84752381D01*
D12*
X173157142Y-79638095D02*
X173233333Y-79600000D01*
X173309523Y-79523810D01*
X173423809Y-79409524D01*
X173500000Y-79371429D01*
X173576190Y-79371429D01*
X173538095Y-79561905D02*
X173614285Y-79523810D01*
X173690476Y-79447619D01*
X173728571Y-79295238D01*
X173728571Y-79028571D01*
X173690476Y-78876190D01*
X173614285Y-78800000D01*
X173538095Y-78761905D01*
X173385714Y-78761905D01*
X173309523Y-78800000D01*
X173233333Y-78876190D01*
X173195238Y-79028571D01*
X173195238Y-79295238D01*
X173233333Y-79447619D01*
X173309523Y-79523810D01*
X173385714Y-79561905D01*
X173538095Y-79561905D01*
X172433333Y-79561905D02*
X172890476Y-79561905D01*
X172661905Y-79561905D02*
X172661905Y-78761905D01*
X172738095Y-78876190D01*
X172814286Y-78952381D01*
X172890476Y-78990476D01*
X172166666Y-78761905D02*
X171633333Y-78761905D01*
X171976190Y-79561905D01*
D13*
X181750000Y-58816667D02*
X181983334Y-58483333D01*
X182150000Y-58816667D02*
X182150000Y-58116667D01*
X181883334Y-58116667D01*
X181816667Y-58150000D01*
X181783334Y-58183333D01*
X181750000Y-58250000D01*
X181750000Y-58350000D01*
X181783334Y-58416667D01*
X181816667Y-58450000D01*
X181883334Y-58483333D01*
X182150000Y-58483333D01*
X181483334Y-58183333D02*
X181450000Y-58150000D01*
X181383334Y-58116667D01*
X181216667Y-58116667D01*
X181150000Y-58150000D01*
X181116667Y-58183333D01*
X181083334Y-58250000D01*
X181083334Y-58316667D01*
X181116667Y-58416667D01*
X181516667Y-58816667D01*
X181083334Y-58816667D01*
X180750000Y-58816667D02*
X180616667Y-58816667D01*
X180550000Y-58783333D01*
X180516667Y-58750000D01*
X180450000Y-58650000D01*
X180416667Y-58516667D01*
X180416667Y-58250000D01*
X180450000Y-58183333D01*
X180483333Y-58150000D01*
X180550000Y-58116667D01*
X180683333Y-58116667D01*
X180750000Y-58150000D01*
X180783333Y-58183333D01*
X180816667Y-58250000D01*
X180816667Y-58416667D01*
X180783333Y-58483333D01*
X180750000Y-58516667D01*
X180683333Y-58550000D01*
X180550000Y-58550000D01*
X180483333Y-58516667D01*
X180450000Y-58483333D01*
X180416667Y-58416667D01*
X178150000Y-58716667D02*
X178383334Y-58383333D01*
X178550000Y-58716667D02*
X178550000Y-58016667D01*
X178283334Y-58016667D01*
X178216667Y-58050000D01*
X178183334Y-58083333D01*
X178150000Y-58150000D01*
X178150000Y-58250000D01*
X178183334Y-58316667D01*
X178216667Y-58350000D01*
X178283334Y-58383333D01*
X178550000Y-58383333D01*
X177916667Y-58016667D02*
X177483334Y-58016667D01*
X177716667Y-58283333D01*
X177616667Y-58283333D01*
X177550000Y-58316667D01*
X177516667Y-58350000D01*
X177483334Y-58416667D01*
X177483334Y-58583333D01*
X177516667Y-58650000D01*
X177550000Y-58683333D01*
X177616667Y-58716667D01*
X177816667Y-58716667D01*
X177883334Y-58683333D01*
X177916667Y-58650000D01*
X177216667Y-58083333D02*
X177183333Y-58050000D01*
X177116667Y-58016667D01*
X176950000Y-58016667D01*
X176883333Y-58050000D01*
X176850000Y-58083333D01*
X176816667Y-58150000D01*
X176816667Y-58216667D01*
X176850000Y-58316667D01*
X177250000Y-58716667D01*
X176816667Y-58716667D01*
X174550000Y-58716667D02*
X174783334Y-58383333D01*
X174950000Y-58716667D02*
X174950000Y-58016667D01*
X174683334Y-58016667D01*
X174616667Y-58050000D01*
X174583334Y-58083333D01*
X174550000Y-58150000D01*
X174550000Y-58250000D01*
X174583334Y-58316667D01*
X174616667Y-58350000D01*
X174683334Y-58383333D01*
X174950000Y-58383333D01*
X174316667Y-58016667D02*
X173883334Y-58016667D01*
X174116667Y-58283333D01*
X174016667Y-58283333D01*
X173950000Y-58316667D01*
X173916667Y-58350000D01*
X173883334Y-58416667D01*
X173883334Y-58583333D01*
X173916667Y-58650000D01*
X173950000Y-58683333D01*
X174016667Y-58716667D01*
X174216667Y-58716667D01*
X174283334Y-58683333D01*
X174316667Y-58650000D01*
X173250000Y-58016667D02*
X173583333Y-58016667D01*
X173616667Y-58350000D01*
X173583333Y-58316667D01*
X173516667Y-58283333D01*
X173350000Y-58283333D01*
X173283333Y-58316667D01*
X173250000Y-58350000D01*
X173216667Y-58416667D01*
X173216667Y-58583333D01*
X173250000Y-58650000D01*
X173283333Y-58683333D01*
X173350000Y-58716667D01*
X173516667Y-58716667D01*
X173583333Y-58683333D01*
X173616667Y-58650000D01*
X170950000Y-58716667D02*
X171183334Y-58383333D01*
X171350000Y-58716667D02*
X171350000Y-58016667D01*
X171083334Y-58016667D01*
X171016667Y-58050000D01*
X170983334Y-58083333D01*
X170950000Y-58150000D01*
X170950000Y-58250000D01*
X170983334Y-58316667D01*
X171016667Y-58350000D01*
X171083334Y-58383333D01*
X171350000Y-58383333D01*
X170716667Y-58016667D02*
X170283334Y-58016667D01*
X170516667Y-58283333D01*
X170416667Y-58283333D01*
X170350000Y-58316667D01*
X170316667Y-58350000D01*
X170283334Y-58416667D01*
X170283334Y-58583333D01*
X170316667Y-58650000D01*
X170350000Y-58683333D01*
X170416667Y-58716667D01*
X170616667Y-58716667D01*
X170683334Y-58683333D01*
X170716667Y-58650000D01*
X169883333Y-58316667D02*
X169950000Y-58283333D01*
X169983333Y-58250000D01*
X170016667Y-58183333D01*
X170016667Y-58150000D01*
X169983333Y-58083333D01*
X169950000Y-58050000D01*
X169883333Y-58016667D01*
X169750000Y-58016667D01*
X169683333Y-58050000D01*
X169650000Y-58083333D01*
X169616667Y-58150000D01*
X169616667Y-58183333D01*
X169650000Y-58250000D01*
X169683333Y-58283333D01*
X169750000Y-58316667D01*
X169883333Y-58316667D01*
X169950000Y-58350000D01*
X169983333Y-58383333D01*
X170016667Y-58450000D01*
X170016667Y-58583333D01*
X169983333Y-58650000D01*
X169950000Y-58683333D01*
X169883333Y-58716667D01*
X169750000Y-58716667D01*
X169683333Y-58683333D01*
X169650000Y-58650000D01*
X169616667Y-58583333D01*
X169616667Y-58450000D01*
X169650000Y-58383333D01*
X169683333Y-58350000D01*
X169750000Y-58316667D01*
X167350000Y-58816667D02*
X167583334Y-58483333D01*
X167750000Y-58816667D02*
X167750000Y-58116667D01*
X167483334Y-58116667D01*
X167416667Y-58150000D01*
X167383334Y-58183333D01*
X167350000Y-58250000D01*
X167350000Y-58350000D01*
X167383334Y-58416667D01*
X167416667Y-58450000D01*
X167483334Y-58483333D01*
X167750000Y-58483333D01*
X166750000Y-58350000D02*
X166750000Y-58816667D01*
X166916667Y-58083333D02*
X167083334Y-58583333D01*
X166650000Y-58583333D01*
X166016667Y-58816667D02*
X166416667Y-58816667D01*
X166216667Y-58816667D02*
X166216667Y-58116667D01*
X166283333Y-58216667D01*
X166350000Y-58283333D01*
X166416667Y-58316667D01*
X163850000Y-58816667D02*
X164083334Y-58483333D01*
X164250000Y-58816667D02*
X164250000Y-58116667D01*
X163983334Y-58116667D01*
X163916667Y-58150000D01*
X163883334Y-58183333D01*
X163850000Y-58250000D01*
X163850000Y-58350000D01*
X163883334Y-58416667D01*
X163916667Y-58450000D01*
X163983334Y-58483333D01*
X164250000Y-58483333D01*
X163250000Y-58350000D02*
X163250000Y-58816667D01*
X163416667Y-58083333D02*
X163583334Y-58583333D01*
X163150000Y-58583333D01*
X162583333Y-58350000D02*
X162583333Y-58816667D01*
X162750000Y-58083333D02*
X162916667Y-58583333D01*
X162483333Y-58583333D01*
X160250000Y-58816667D02*
X160483334Y-58483333D01*
X160650000Y-58816667D02*
X160650000Y-58116667D01*
X160383334Y-58116667D01*
X160316667Y-58150000D01*
X160283334Y-58183333D01*
X160250000Y-58250000D01*
X160250000Y-58350000D01*
X160283334Y-58416667D01*
X160316667Y-58450000D01*
X160383334Y-58483333D01*
X160650000Y-58483333D01*
X159650000Y-58350000D02*
X159650000Y-58816667D01*
X159816667Y-58083333D02*
X159983334Y-58583333D01*
X159550000Y-58583333D01*
X159350000Y-58116667D02*
X158883333Y-58116667D01*
X159183333Y-58816667D01*
X156550000Y-58716667D02*
X156783334Y-58383333D01*
X156950000Y-58716667D02*
X156950000Y-58016667D01*
X156683334Y-58016667D01*
X156616667Y-58050000D01*
X156583334Y-58083333D01*
X156550000Y-58150000D01*
X156550000Y-58250000D01*
X156583334Y-58316667D01*
X156616667Y-58350000D01*
X156683334Y-58383333D01*
X156950000Y-58383333D01*
X155916667Y-58016667D02*
X156250000Y-58016667D01*
X156283334Y-58350000D01*
X156250000Y-58316667D01*
X156183334Y-58283333D01*
X156016667Y-58283333D01*
X155950000Y-58316667D01*
X155916667Y-58350000D01*
X155883334Y-58416667D01*
X155883334Y-58583333D01*
X155916667Y-58650000D01*
X155950000Y-58683333D01*
X156016667Y-58716667D01*
X156183334Y-58716667D01*
X156250000Y-58683333D01*
X156283334Y-58650000D01*
X155450000Y-58016667D02*
X155383333Y-58016667D01*
X155316667Y-58050000D01*
X155283333Y-58083333D01*
X155250000Y-58150000D01*
X155216667Y-58283333D01*
X155216667Y-58450000D01*
X155250000Y-58583333D01*
X155283333Y-58650000D01*
X155316667Y-58683333D01*
X155383333Y-58716667D01*
X155450000Y-58716667D01*
X155516667Y-58683333D01*
X155550000Y-58650000D01*
X155583333Y-58583333D01*
X155616667Y-58450000D01*
X155616667Y-58283333D01*
X155583333Y-58150000D01*
X155550000Y-58083333D01*
X155516667Y-58050000D01*
X155450000Y-58016667D01*
X152950000Y-58716667D02*
X153183334Y-58383333D01*
X153350000Y-58716667D02*
X153350000Y-58016667D01*
X153083334Y-58016667D01*
X153016667Y-58050000D01*
X152983334Y-58083333D01*
X152950000Y-58150000D01*
X152950000Y-58250000D01*
X152983334Y-58316667D01*
X153016667Y-58350000D01*
X153083334Y-58383333D01*
X153350000Y-58383333D01*
X152316667Y-58016667D02*
X152650000Y-58016667D01*
X152683334Y-58350000D01*
X152650000Y-58316667D01*
X152583334Y-58283333D01*
X152416667Y-58283333D01*
X152350000Y-58316667D01*
X152316667Y-58350000D01*
X152283334Y-58416667D01*
X152283334Y-58583333D01*
X152316667Y-58650000D01*
X152350000Y-58683333D01*
X152416667Y-58716667D01*
X152583334Y-58716667D01*
X152650000Y-58683333D01*
X152683334Y-58650000D01*
X152050000Y-58016667D02*
X151616667Y-58016667D01*
X151850000Y-58283333D01*
X151750000Y-58283333D01*
X151683333Y-58316667D01*
X151650000Y-58350000D01*
X151616667Y-58416667D01*
X151616667Y-58583333D01*
X151650000Y-58650000D01*
X151683333Y-58683333D01*
X151750000Y-58716667D01*
X151950000Y-58716667D01*
X152016667Y-58683333D01*
X152050000Y-58650000D01*
X149350000Y-58616667D02*
X149583334Y-58283333D01*
X149750000Y-58616667D02*
X149750000Y-57916667D01*
X149483334Y-57916667D01*
X149416667Y-57950000D01*
X149383334Y-57983333D01*
X149350000Y-58050000D01*
X149350000Y-58150000D01*
X149383334Y-58216667D01*
X149416667Y-58250000D01*
X149483334Y-58283333D01*
X149750000Y-58283333D01*
X148716667Y-57916667D02*
X149050000Y-57916667D01*
X149083334Y-58250000D01*
X149050000Y-58216667D01*
X148983334Y-58183333D01*
X148816667Y-58183333D01*
X148750000Y-58216667D01*
X148716667Y-58250000D01*
X148683334Y-58316667D01*
X148683334Y-58483333D01*
X148716667Y-58550000D01*
X148750000Y-58583333D01*
X148816667Y-58616667D01*
X148983334Y-58616667D01*
X149050000Y-58583333D01*
X149083334Y-58550000D01*
X148083333Y-57916667D02*
X148216667Y-57916667D01*
X148283333Y-57950000D01*
X148316667Y-57983333D01*
X148383333Y-58083333D01*
X148416667Y-58216667D01*
X148416667Y-58483333D01*
X148383333Y-58550000D01*
X148350000Y-58583333D01*
X148283333Y-58616667D01*
X148150000Y-58616667D01*
X148083333Y-58583333D01*
X148050000Y-58550000D01*
X148016667Y-58483333D01*
X148016667Y-58316667D01*
X148050000Y-58250000D01*
X148083333Y-58216667D01*
X148150000Y-58183333D01*
X148283333Y-58183333D01*
X148350000Y-58216667D01*
X148383333Y-58250000D01*
X148416667Y-58316667D01*
X145750000Y-61016667D02*
X145983334Y-60683333D01*
X146150000Y-61016667D02*
X146150000Y-60316667D01*
X145883334Y-60316667D01*
X145816667Y-60350000D01*
X145783334Y-60383333D01*
X145750000Y-60450000D01*
X145750000Y-60550000D01*
X145783334Y-60616667D01*
X145816667Y-60650000D01*
X145883334Y-60683333D01*
X146150000Y-60683333D01*
X145116667Y-60316667D02*
X145450000Y-60316667D01*
X145483334Y-60650000D01*
X145450000Y-60616667D01*
X145383334Y-60583333D01*
X145216667Y-60583333D01*
X145150000Y-60616667D01*
X145116667Y-60650000D01*
X145083334Y-60716667D01*
X145083334Y-60883333D01*
X145116667Y-60950000D01*
X145150000Y-60983333D01*
X145216667Y-61016667D01*
X145383334Y-61016667D01*
X145450000Y-60983333D01*
X145483334Y-60950000D01*
X144750000Y-61016667D02*
X144616667Y-61016667D01*
X144550000Y-60983333D01*
X144516667Y-60950000D01*
X144450000Y-60850000D01*
X144416667Y-60716667D01*
X144416667Y-60450000D01*
X144450000Y-60383333D01*
X144483333Y-60350000D01*
X144550000Y-60316667D01*
X144683333Y-60316667D01*
X144750000Y-60350000D01*
X144783333Y-60383333D01*
X144816667Y-60450000D01*
X144816667Y-60616667D01*
X144783333Y-60683333D01*
X144750000Y-60716667D01*
X144683333Y-60750000D01*
X144550000Y-60750000D01*
X144483333Y-60716667D01*
X144450000Y-60683333D01*
X144416667Y-60616667D01*
X141850000Y-61016667D02*
X142083334Y-60683333D01*
X142250000Y-61016667D02*
X142250000Y-60316667D01*
X141983334Y-60316667D01*
X141916667Y-60350000D01*
X141883334Y-60383333D01*
X141850000Y-60450000D01*
X141850000Y-60550000D01*
X141883334Y-60616667D01*
X141916667Y-60650000D01*
X141983334Y-60683333D01*
X142250000Y-60683333D01*
X141250000Y-60316667D02*
X141383334Y-60316667D01*
X141450000Y-60350000D01*
X141483334Y-60383333D01*
X141550000Y-60483333D01*
X141583334Y-60616667D01*
X141583334Y-60883333D01*
X141550000Y-60950000D01*
X141516667Y-60983333D01*
X141450000Y-61016667D01*
X141316667Y-61016667D01*
X141250000Y-60983333D01*
X141216667Y-60950000D01*
X141183334Y-60883333D01*
X141183334Y-60716667D01*
X141216667Y-60650000D01*
X141250000Y-60616667D01*
X141316667Y-60583333D01*
X141450000Y-60583333D01*
X141516667Y-60616667D01*
X141550000Y-60650000D01*
X141583334Y-60716667D01*
X140916667Y-60383333D02*
X140883333Y-60350000D01*
X140816667Y-60316667D01*
X140650000Y-60316667D01*
X140583333Y-60350000D01*
X140550000Y-60383333D01*
X140516667Y-60450000D01*
X140516667Y-60516667D01*
X140550000Y-60616667D01*
X140950000Y-61016667D01*
X140516667Y-61016667D01*
X144714286Y-72361905D02*
X144980953Y-71980952D01*
X145171429Y-72361905D02*
X145171429Y-71561905D01*
X144866667Y-71561905D01*
X144790476Y-71600000D01*
X144752381Y-71638095D01*
X144714286Y-71714286D01*
X144714286Y-71828571D01*
X144752381Y-71904762D01*
X144790476Y-71942857D01*
X144866667Y-71980952D01*
X145171429Y-71980952D01*
X143952381Y-72361905D02*
X144409524Y-72361905D01*
X144180953Y-72361905D02*
X144180953Y-71561905D01*
X144257143Y-71676190D01*
X144333334Y-71752381D01*
X144409524Y-71790476D01*
X143266667Y-71561905D02*
X143419048Y-71561905D01*
X143495238Y-71600000D01*
X143533333Y-71638095D01*
X143609524Y-71752381D01*
X143647619Y-71904762D01*
X143647619Y-72209524D01*
X143609524Y-72285714D01*
X143571429Y-72323810D01*
X143495238Y-72361905D01*
X143342857Y-72361905D01*
X143266667Y-72323810D01*
X143228571Y-72285714D01*
X143190476Y-72209524D01*
X143190476Y-72019048D01*
X143228571Y-71942857D01*
X143266667Y-71904762D01*
X143342857Y-71866667D01*
X143495238Y-71866667D01*
X143571429Y-71904762D01*
X143609524Y-71942857D01*
X143647619Y-72019048D01*
X150366667Y-73100000D02*
X150033333Y-72866666D01*
X150366667Y-72700000D02*
X149666667Y-72700000D01*
X149666667Y-72966666D01*
X149700000Y-73033333D01*
X149733333Y-73066666D01*
X149800000Y-73100000D01*
X149900000Y-73100000D01*
X149966667Y-73066666D01*
X150000000Y-73033333D01*
X150033333Y-72966666D01*
X150033333Y-72700000D01*
X149733333Y-73366666D02*
X149700000Y-73400000D01*
X149666667Y-73466666D01*
X149666667Y-73633333D01*
X149700000Y-73700000D01*
X149733333Y-73733333D01*
X149800000Y-73766666D01*
X149866667Y-73766666D01*
X149966667Y-73733333D01*
X150366667Y-73333333D01*
X150366667Y-73766666D01*
X149666667Y-74200000D02*
X149666667Y-74266667D01*
X149700000Y-74333333D01*
X149733333Y-74366667D01*
X149800000Y-74400000D01*
X149933333Y-74433333D01*
X150100000Y-74433333D01*
X150233333Y-74400000D01*
X150300000Y-74366667D01*
X150333333Y-74333333D01*
X150366667Y-74266667D01*
X150366667Y-74200000D01*
X150333333Y-74133333D01*
X150300000Y-74100000D01*
X150233333Y-74066667D01*
X150100000Y-74033333D01*
X149933333Y-74033333D01*
X149800000Y-74066667D01*
X149733333Y-74100000D01*
X149700000Y-74133333D01*
X149666667Y-74200000D01*
X167061905Y-70535714D02*
X166680952Y-70269047D01*
X167061905Y-70078571D02*
X166261905Y-70078571D01*
X166261905Y-70383333D01*
X166300000Y-70459524D01*
X166338095Y-70497619D01*
X166414286Y-70535714D01*
X166528571Y-70535714D01*
X166604762Y-70497619D01*
X166642857Y-70459524D01*
X166680952Y-70383333D01*
X166680952Y-70078571D01*
X166261905Y-70802381D02*
X166261905Y-71335714D01*
X167061905Y-70992857D01*
X166528571Y-71983333D02*
X167061905Y-71983333D01*
X166223810Y-71792857D02*
X166795238Y-71602381D01*
X166795238Y-72097619D01*
X174338095Y-68152381D02*
X174338095Y-67152381D01*
X174100000Y-67152381D01*
X173957142Y-67200000D01*
X173861904Y-67295238D01*
X173814285Y-67390476D01*
X173766666Y-67580952D01*
X173766666Y-67723810D01*
X173814285Y-67914286D01*
X173861904Y-68009524D01*
X173957142Y-68104762D01*
X174100000Y-68152381D01*
X174338095Y-68152381D01*
X172909523Y-67485714D02*
X172909523Y-68152381D01*
X173147619Y-67104762D02*
X173385714Y-67819048D01*
X172766666Y-67819048D01*
X152561905Y-73785714D02*
X152180952Y-73519047D01*
X152561905Y-73328571D02*
X151761905Y-73328571D01*
X151761905Y-73633333D01*
X151800000Y-73709524D01*
X151838095Y-73747619D01*
X151914286Y-73785714D01*
X152028571Y-73785714D01*
X152104762Y-73747619D01*
X152142857Y-73709524D01*
X152180952Y-73633333D01*
X152180952Y-73328571D01*
X151761905Y-74052381D02*
X151761905Y-74585714D01*
X152561905Y-74242857D01*
X151761905Y-75233333D02*
X151761905Y-75080952D01*
X151800000Y-75004762D01*
X151838095Y-74966667D01*
X151952381Y-74890476D01*
X152104762Y-74852381D01*
X152409524Y-74852381D01*
X152485714Y-74890476D01*
X152523810Y-74928571D01*
X152561905Y-75004762D01*
X152561905Y-75157143D01*
X152523810Y-75233333D01*
X152485714Y-75271429D01*
X152409524Y-75309524D01*
X152219048Y-75309524D01*
X152142857Y-75271429D01*
X152104762Y-75233333D01*
X152066667Y-75157143D01*
X152066667Y-75004762D01*
X152104762Y-74928571D01*
X152142857Y-74890476D01*
X152219048Y-74852381D01*
X144450000Y-65350000D02*
X144483334Y-65383333D01*
X144583334Y-65416667D01*
X144650000Y-65416667D01*
X144750000Y-65383333D01*
X144816667Y-65316667D01*
X144850000Y-65250000D01*
X144883334Y-65116667D01*
X144883334Y-65016667D01*
X144850000Y-64883333D01*
X144816667Y-64816667D01*
X144750000Y-64750000D01*
X144650000Y-64716667D01*
X144583334Y-64716667D01*
X144483334Y-64750000D01*
X144450000Y-64783333D01*
X143850000Y-64950000D02*
X143850000Y-65416667D01*
X144016667Y-64683333D02*
X144183334Y-65183333D01*
X143750000Y-65183333D01*
X143550000Y-64716667D02*
X143116667Y-64716667D01*
X143350000Y-64983333D01*
X143250000Y-64983333D01*
X143183333Y-65016667D01*
X143150000Y-65050000D01*
X143116667Y-65116667D01*
X143116667Y-65283333D01*
X143150000Y-65350000D01*
X143183333Y-65383333D01*
X143250000Y-65416667D01*
X143450000Y-65416667D01*
X143516667Y-65383333D01*
X143550000Y-65350000D01*
X168516667Y-63850000D02*
X168183333Y-63616666D01*
X168516667Y-63450000D02*
X167816667Y-63450000D01*
X167816667Y-63716666D01*
X167850000Y-63783333D01*
X167883333Y-63816666D01*
X167950000Y-63850000D01*
X168050000Y-63850000D01*
X168116667Y-63816666D01*
X168150000Y-63783333D01*
X168183333Y-63716666D01*
X168183333Y-63450000D01*
X167816667Y-64083333D02*
X167816667Y-64550000D01*
X168516667Y-64250000D01*
X167816667Y-64750000D02*
X167816667Y-65216667D01*
X168516667Y-64916667D01*
X185933333Y-78785714D02*
X185971428Y-78823810D01*
X186085714Y-78861905D01*
X186161904Y-78861905D01*
X186276190Y-78823810D01*
X186352381Y-78747619D01*
X186390476Y-78671429D01*
X186428571Y-78519048D01*
X186428571Y-78404762D01*
X186390476Y-78252381D01*
X186352381Y-78176190D01*
X186276190Y-78100000D01*
X186161904Y-78061905D01*
X186085714Y-78061905D01*
X185971428Y-78100000D01*
X185933333Y-78138095D01*
X185628571Y-78138095D02*
X185590476Y-78100000D01*
X185514285Y-78061905D01*
X185323809Y-78061905D01*
X185247619Y-78100000D01*
X185209523Y-78138095D01*
X185171428Y-78214286D01*
X185171428Y-78290476D01*
X185209523Y-78404762D01*
X185666666Y-78861905D01*
X185171428Y-78861905D01*
X189033333Y-78785714D02*
X189071428Y-78823810D01*
X189185714Y-78861905D01*
X189261904Y-78861905D01*
X189376190Y-78823810D01*
X189452381Y-78747619D01*
X189490476Y-78671429D01*
X189528571Y-78519048D01*
X189528571Y-78404762D01*
X189490476Y-78252381D01*
X189452381Y-78176190D01*
X189376190Y-78100000D01*
X189261904Y-78061905D01*
X189185714Y-78061905D01*
X189071428Y-78100000D01*
X189033333Y-78138095D01*
X188347619Y-78328571D02*
X188347619Y-78861905D01*
X188538095Y-78023810D02*
X188728571Y-78595238D01*
X188233333Y-78595238D01*
X189285714Y-60885714D02*
X189323810Y-60847619D01*
X189361905Y-60733333D01*
X189361905Y-60657143D01*
X189323810Y-60542857D01*
X189247619Y-60466666D01*
X189171429Y-60428571D01*
X189019048Y-60390476D01*
X188904762Y-60390476D01*
X188752381Y-60428571D01*
X188676190Y-60466666D01*
X188600000Y-60542857D01*
X188561905Y-60657143D01*
X188561905Y-60733333D01*
X188600000Y-60847619D01*
X188638095Y-60885714D01*
X188638095Y-61190476D02*
X188600000Y-61228571D01*
X188561905Y-61304762D01*
X188561905Y-61495238D01*
X188600000Y-61571428D01*
X188638095Y-61609524D01*
X188714286Y-61647619D01*
X188790476Y-61647619D01*
X188904762Y-61609524D01*
X189361905Y-61152381D01*
X189361905Y-61647619D01*
X188561905Y-62333333D02*
X188561905Y-62180952D01*
X188600000Y-62104762D01*
X188638095Y-62066667D01*
X188752381Y-61990476D01*
X188904762Y-61952381D01*
X189209524Y-61952381D01*
X189285714Y-61990476D01*
X189323810Y-62028571D01*
X189361905Y-62104762D01*
X189361905Y-62257143D01*
X189323810Y-62333333D01*
X189285714Y-62371429D01*
X189209524Y-62409524D01*
X189019048Y-62409524D01*
X188942857Y-62371429D01*
X188904762Y-62333333D01*
X188866667Y-62257143D01*
X188866667Y-62104762D01*
X188904762Y-62028571D01*
X188942857Y-61990476D01*
X189019048Y-61952381D01*
X153785714Y-62285714D02*
X153823810Y-62247619D01*
X153861905Y-62133333D01*
X153861905Y-62057143D01*
X153823810Y-61942857D01*
X153747619Y-61866666D01*
X153671429Y-61828571D01*
X153519048Y-61790476D01*
X153404762Y-61790476D01*
X153252381Y-61828571D01*
X153176190Y-61866666D01*
X153100000Y-61942857D01*
X153061905Y-62057143D01*
X153061905Y-62133333D01*
X153100000Y-62247619D01*
X153138095Y-62285714D01*
X153328571Y-62971428D02*
X153861905Y-62971428D01*
X153023810Y-62780952D02*
X153595238Y-62590476D01*
X153595238Y-63085714D01*
X153328571Y-63733333D02*
X153861905Y-63733333D01*
X153023810Y-63542857D02*
X153595238Y-63352381D01*
X153595238Y-63847619D01*
X180750000Y-69450000D02*
X180783334Y-69483333D01*
X180883334Y-69516667D01*
X180950000Y-69516667D01*
X181050000Y-69483333D01*
X181116667Y-69416667D01*
X181150000Y-69350000D01*
X181183334Y-69216667D01*
X181183334Y-69116667D01*
X181150000Y-68983333D01*
X181116667Y-68916667D01*
X181050000Y-68850000D01*
X180950000Y-68816667D01*
X180883334Y-68816667D01*
X180783334Y-68850000D01*
X180750000Y-68883333D01*
X180150000Y-69050000D02*
X180150000Y-69516667D01*
X180316667Y-68783333D02*
X180483334Y-69283333D01*
X180050000Y-69283333D01*
X179450000Y-68816667D02*
X179783333Y-68816667D01*
X179816667Y-69150000D01*
X179783333Y-69116667D01*
X179716667Y-69083333D01*
X179550000Y-69083333D01*
X179483333Y-69116667D01*
X179450000Y-69150000D01*
X179416667Y-69216667D01*
X179416667Y-69383333D01*
X179450000Y-69450000D01*
X179483333Y-69483333D01*
X179550000Y-69516667D01*
X179716667Y-69516667D01*
X179783333Y-69483333D01*
X179816667Y-69450000D01*
X175450000Y-70250000D02*
X175483333Y-70216666D01*
X175516667Y-70116666D01*
X175516667Y-70050000D01*
X175483333Y-69950000D01*
X175416667Y-69883333D01*
X175350000Y-69850000D01*
X175216667Y-69816666D01*
X175116667Y-69816666D01*
X174983333Y-69850000D01*
X174916667Y-69883333D01*
X174850000Y-69950000D01*
X174816667Y-70050000D01*
X174816667Y-70116666D01*
X174850000Y-70216666D01*
X174883333Y-70250000D01*
X175050000Y-70850000D02*
X175516667Y-70850000D01*
X174783333Y-70683333D02*
X175283333Y-70516666D01*
X175283333Y-70950000D01*
X174816667Y-71516667D02*
X174816667Y-71383333D01*
X174850000Y-71316667D01*
X174883333Y-71283333D01*
X174983333Y-71216667D01*
X175116667Y-71183333D01*
X175383333Y-71183333D01*
X175450000Y-71216667D01*
X175483333Y-71250000D01*
X175516667Y-71316667D01*
X175516667Y-71450000D01*
X175483333Y-71516667D01*
X175450000Y-71550000D01*
X175383333Y-71583333D01*
X175216667Y-71583333D01*
X175150000Y-71550000D01*
X175116667Y-71516667D01*
X175083333Y-71450000D01*
X175083333Y-71316667D01*
X175116667Y-71250000D01*
X175150000Y-71216667D01*
X175216667Y-71183333D01*
X186314286Y-74185714D02*
X186352381Y-74223810D01*
X186466667Y-74261905D01*
X186542857Y-74261905D01*
X186657143Y-74223810D01*
X186733334Y-74147619D01*
X186771429Y-74071429D01*
X186809524Y-73919048D01*
X186809524Y-73804762D01*
X186771429Y-73652381D01*
X186733334Y-73576190D01*
X186657143Y-73500000D01*
X186542857Y-73461905D01*
X186466667Y-73461905D01*
X186352381Y-73500000D01*
X186314286Y-73538095D01*
X185628572Y-73461905D02*
X185780953Y-73461905D01*
X185857143Y-73500000D01*
X185895238Y-73538095D01*
X185971429Y-73652381D01*
X186009524Y-73804762D01*
X186009524Y-74109524D01*
X185971429Y-74185714D01*
X185933334Y-74223810D01*
X185857143Y-74261905D01*
X185704762Y-74261905D01*
X185628572Y-74223810D01*
X185590476Y-74185714D01*
X185552381Y-74109524D01*
X185552381Y-73919048D01*
X185590476Y-73842857D01*
X185628572Y-73804762D01*
X185704762Y-73766667D01*
X185857143Y-73766667D01*
X185933334Y-73804762D01*
X185971429Y-73842857D01*
X186009524Y-73919048D01*
X185285714Y-73461905D02*
X184790476Y-73461905D01*
X185057143Y-73766667D01*
X184942857Y-73766667D01*
X184866667Y-73804762D01*
X184828571Y-73842857D01*
X184790476Y-73919048D01*
X184790476Y-74109524D01*
X184828571Y-74185714D01*
X184866667Y-74223810D01*
X184942857Y-74261905D01*
X185171429Y-74261905D01*
X185247619Y-74223810D01*
X185285714Y-74185714D01*
X189414286Y-74185714D02*
X189452381Y-74223810D01*
X189566667Y-74261905D01*
X189642857Y-74261905D01*
X189757143Y-74223810D01*
X189833334Y-74147619D01*
X189871429Y-74071429D01*
X189909524Y-73919048D01*
X189909524Y-73804762D01*
X189871429Y-73652381D01*
X189833334Y-73576190D01*
X189757143Y-73500000D01*
X189642857Y-73461905D01*
X189566667Y-73461905D01*
X189452381Y-73500000D01*
X189414286Y-73538095D01*
X188728572Y-73461905D02*
X188880953Y-73461905D01*
X188957143Y-73500000D01*
X188995238Y-73538095D01*
X189071429Y-73652381D01*
X189109524Y-73804762D01*
X189109524Y-74109524D01*
X189071429Y-74185714D01*
X189033334Y-74223810D01*
X188957143Y-74261905D01*
X188804762Y-74261905D01*
X188728572Y-74223810D01*
X188690476Y-74185714D01*
X188652381Y-74109524D01*
X188652381Y-73919048D01*
X188690476Y-73842857D01*
X188728572Y-73804762D01*
X188804762Y-73766667D01*
X188957143Y-73766667D01*
X189033334Y-73804762D01*
X189071429Y-73842857D01*
X189109524Y-73919048D01*
X187966667Y-73728571D02*
X187966667Y-74261905D01*
X188157143Y-73423810D02*
X188347619Y-73995238D01*
X187852381Y-73995238D01*
X192514286Y-74185714D02*
X192552381Y-74223810D01*
X192666667Y-74261905D01*
X192742857Y-74261905D01*
X192857143Y-74223810D01*
X192933334Y-74147619D01*
X192971429Y-74071429D01*
X193009524Y-73919048D01*
X193009524Y-73804762D01*
X192971429Y-73652381D01*
X192933334Y-73576190D01*
X192857143Y-73500000D01*
X192742857Y-73461905D01*
X192666667Y-73461905D01*
X192552381Y-73500000D01*
X192514286Y-73538095D01*
X191828572Y-73461905D02*
X191980953Y-73461905D01*
X192057143Y-73500000D01*
X192095238Y-73538095D01*
X192171429Y-73652381D01*
X192209524Y-73804762D01*
X192209524Y-74109524D01*
X192171429Y-74185714D01*
X192133334Y-74223810D01*
X192057143Y-74261905D01*
X191904762Y-74261905D01*
X191828572Y-74223810D01*
X191790476Y-74185714D01*
X191752381Y-74109524D01*
X191752381Y-73919048D01*
X191790476Y-73842857D01*
X191828572Y-73804762D01*
X191904762Y-73766667D01*
X192057143Y-73766667D01*
X192133334Y-73804762D01*
X192171429Y-73842857D01*
X192209524Y-73919048D01*
X191028571Y-73461905D02*
X191409524Y-73461905D01*
X191447619Y-73842857D01*
X191409524Y-73804762D01*
X191333333Y-73766667D01*
X191142857Y-73766667D01*
X191066667Y-73804762D01*
X191028571Y-73842857D01*
X190990476Y-73919048D01*
X190990476Y-74109524D01*
X191028571Y-74185714D01*
X191066667Y-74223810D01*
X191142857Y-74261905D01*
X191333333Y-74261905D01*
X191409524Y-74223810D01*
X191447619Y-74185714D01*
X180771429Y-65161905D02*
X180771429Y-64361905D01*
X180580953Y-64361905D01*
X180466667Y-64400000D01*
X180390476Y-64476190D01*
X180352381Y-64552381D01*
X180314286Y-64704762D01*
X180314286Y-64819048D01*
X180352381Y-64971429D01*
X180390476Y-65047619D01*
X180466667Y-65123810D01*
X180580953Y-65161905D01*
X180771429Y-65161905D01*
X180047619Y-64361905D02*
X179552381Y-64361905D01*
X179819048Y-64666667D01*
X179704762Y-64666667D01*
X179628572Y-64704762D01*
X179590476Y-64742857D01*
X179552381Y-64819048D01*
X179552381Y-65009524D01*
X179590476Y-65085714D01*
X179628572Y-65123810D01*
X179704762Y-65161905D01*
X179933334Y-65161905D01*
X180009524Y-65123810D01*
X180047619Y-65085714D01*
X179057143Y-64361905D02*
X178980952Y-64361905D01*
X178904762Y-64400000D01*
X178866667Y-64438095D01*
X178828571Y-64514286D01*
X178790476Y-64666667D01*
X178790476Y-64857143D01*
X178828571Y-65009524D01*
X178866667Y-65085714D01*
X178904762Y-65123810D01*
X178980952Y-65161905D01*
X179057143Y-65161905D01*
X179133333Y-65123810D01*
X179171429Y-65085714D01*
X179209524Y-65009524D01*
X179247619Y-64857143D01*
X179247619Y-64666667D01*
X179209524Y-64514286D01*
X179171429Y-64438095D01*
X179133333Y-64400000D01*
X179057143Y-64361905D01*
X142250000Y-65016667D02*
X142483334Y-64683333D01*
X142650000Y-65016667D02*
X142650000Y-64316667D01*
X142383334Y-64316667D01*
X142316667Y-64350000D01*
X142283334Y-64383333D01*
X142250000Y-64450000D01*
X142250000Y-64550000D01*
X142283334Y-64616667D01*
X142316667Y-64650000D01*
X142383334Y-64683333D01*
X142650000Y-64683333D01*
X141983334Y-64383333D02*
X141950000Y-64350000D01*
X141883334Y-64316667D01*
X141716667Y-64316667D01*
X141650000Y-64350000D01*
X141616667Y-64383333D01*
X141583334Y-64450000D01*
X141583334Y-64516667D01*
X141616667Y-64616667D01*
X142016667Y-65016667D01*
X141583334Y-65016667D01*
X141350000Y-64316667D02*
X140883333Y-64316667D01*
X141183333Y-65016667D01*
X151561905Y-62252381D02*
X151561905Y-63061905D01*
X151514286Y-63157143D01*
X151466667Y-63204762D01*
X151371429Y-63252381D01*
X151180952Y-63252381D01*
X151085714Y-63204762D01*
X151038095Y-63157143D01*
X150990476Y-63061905D01*
X150990476Y-62252381D01*
X150371429Y-62680952D02*
X150466667Y-62633333D01*
X150514286Y-62585714D01*
X150561905Y-62490476D01*
X150561905Y-62442857D01*
X150514286Y-62347619D01*
X150466667Y-62300000D01*
X150371429Y-62252381D01*
X150180952Y-62252381D01*
X150085714Y-62300000D01*
X150038095Y-62347619D01*
X149990476Y-62442857D01*
X149990476Y-62490476D01*
X150038095Y-62585714D01*
X150085714Y-62633333D01*
X150180952Y-62680952D01*
X150371429Y-62680952D01*
X150466667Y-62728571D01*
X150514286Y-62776190D01*
X150561905Y-62871429D01*
X150561905Y-63061905D01*
X150514286Y-63157143D01*
X150466667Y-63204762D01*
X150371429Y-63252381D01*
X150180952Y-63252381D01*
X150085714Y-63204762D01*
X150038095Y-63157143D01*
X149990476Y-63061905D01*
X149990476Y-62871429D01*
X150038095Y-62776190D01*
X150085714Y-62728571D01*
X150180952Y-62680952D01*
X176909524Y-66261905D02*
X176909524Y-66909524D01*
X176871429Y-66985714D01*
X176833333Y-67023810D01*
X176757143Y-67061905D01*
X176604762Y-67061905D01*
X176528571Y-67023810D01*
X176490476Y-66985714D01*
X176452381Y-66909524D01*
X176452381Y-66261905D01*
X176033334Y-67061905D02*
X175880953Y-67061905D01*
X175804762Y-67023810D01*
X175766667Y-66985714D01*
X175690476Y-66871429D01*
X175652381Y-66719048D01*
X175652381Y-66414286D01*
X175690476Y-66338095D01*
X175728572Y-66300000D01*
X175804762Y-66261905D01*
X175957143Y-66261905D01*
X176033334Y-66300000D01*
X176071429Y-66338095D01*
X176109524Y-66414286D01*
X176109524Y-66604762D01*
X176071429Y-66680952D01*
X176033334Y-66719048D01*
X175957143Y-66757143D01*
X175804762Y-66757143D01*
X175728572Y-66719048D01*
X175690476Y-66680952D01*
X175652381Y-66604762D01*
X143361905Y-68933334D02*
X143933333Y-68933334D01*
X144047619Y-68895238D01*
X144123810Y-68819048D01*
X144161905Y-68704762D01*
X144161905Y-68628572D01*
X143361905Y-69238096D02*
X143361905Y-69771429D01*
X144161905Y-69428572D01*
X148861905Y-68333334D02*
X149433333Y-68333334D01*
X149547619Y-68295238D01*
X149623810Y-68219048D01*
X149661905Y-68104762D01*
X149661905Y-68028572D01*
X149204762Y-68828572D02*
X149166667Y-68752381D01*
X149128571Y-68714286D01*
X149052381Y-68676191D01*
X149014286Y-68676191D01*
X148938095Y-68714286D01*
X148900000Y-68752381D01*
X148861905Y-68828572D01*
X148861905Y-68980953D01*
X148900000Y-69057143D01*
X148938095Y-69095239D01*
X149014286Y-69133334D01*
X149052381Y-69133334D01*
X149128571Y-69095239D01*
X149166667Y-69057143D01*
X149204762Y-68980953D01*
X149204762Y-68828572D01*
X149242857Y-68752381D01*
X149280952Y-68714286D01*
X149357143Y-68676191D01*
X149509524Y-68676191D01*
X149585714Y-68714286D01*
X149623810Y-68752381D01*
X149661905Y-68828572D01*
X149661905Y-68980953D01*
X149623810Y-69057143D01*
X149585714Y-69095239D01*
X149509524Y-69133334D01*
X149357143Y-69133334D01*
X149280952Y-69095239D01*
X149242857Y-69057143D01*
X149204762Y-68980953D01*
X147650000Y-63816667D02*
X147883334Y-63483333D01*
X148050000Y-63816667D02*
X148050000Y-63116667D01*
X147783334Y-63116667D01*
X147716667Y-63150000D01*
X147683334Y-63183333D01*
X147650000Y-63250000D01*
X147650000Y-63350000D01*
X147683334Y-63416667D01*
X147716667Y-63450000D01*
X147783334Y-63483333D01*
X148050000Y-63483333D01*
X147383334Y-63183333D02*
X147350000Y-63150000D01*
X147283334Y-63116667D01*
X147116667Y-63116667D01*
X147050000Y-63150000D01*
X147016667Y-63183333D01*
X146983334Y-63250000D01*
X146983334Y-63316667D01*
X147016667Y-63416667D01*
X147416667Y-63816667D01*
X146983334Y-63816667D01*
X146716667Y-63183333D02*
X146683333Y-63150000D01*
X146616667Y-63116667D01*
X146450000Y-63116667D01*
X146383333Y-63150000D01*
X146350000Y-63183333D01*
X146316667Y-63250000D01*
X146316667Y-63316667D01*
X146350000Y-63416667D01*
X146750000Y-63816667D01*
X146316667Y-63816667D01*
X144614286Y-73861905D02*
X144880953Y-73480952D01*
X145071429Y-73861905D02*
X145071429Y-73061905D01*
X144766667Y-73061905D01*
X144690476Y-73100000D01*
X144652381Y-73138095D01*
X144614286Y-73214286D01*
X144614286Y-73328571D01*
X144652381Y-73404762D01*
X144690476Y-73442857D01*
X144766667Y-73480952D01*
X145071429Y-73480952D01*
X144347619Y-73061905D02*
X143814286Y-73061905D01*
X144157143Y-73861905D01*
X143585714Y-73061905D02*
X143090476Y-73061905D01*
X143357143Y-73366667D01*
X143242857Y-73366667D01*
X143166667Y-73404762D01*
X143128571Y-73442857D01*
X143090476Y-73519048D01*
X143090476Y-73709524D01*
X143128571Y-73785714D01*
X143166667Y-73823810D01*
X143242857Y-73861905D01*
X143471429Y-73861905D01*
X143547619Y-73823810D01*
X143585714Y-73785714D01*
X161171429Y-82161905D02*
X161171429Y-81361905D01*
X160980953Y-81361905D01*
X160866667Y-81400000D01*
X160790476Y-81476190D01*
X160752381Y-81552381D01*
X160714286Y-81704762D01*
X160714286Y-81819048D01*
X160752381Y-81971429D01*
X160790476Y-82047619D01*
X160866667Y-82123810D01*
X160980953Y-82161905D01*
X161171429Y-82161905D01*
X160447619Y-81361905D02*
X159952381Y-81361905D01*
X160219048Y-81666667D01*
X160104762Y-81666667D01*
X160028572Y-81704762D01*
X159990476Y-81742857D01*
X159952381Y-81819048D01*
X159952381Y-82009524D01*
X159990476Y-82085714D01*
X160028572Y-82123810D01*
X160104762Y-82161905D01*
X160333334Y-82161905D01*
X160409524Y-82123810D01*
X160447619Y-82085714D01*
X159228571Y-81361905D02*
X159609524Y-81361905D01*
X159647619Y-81742857D01*
X159609524Y-81704762D01*
X159533333Y-81666667D01*
X159342857Y-81666667D01*
X159266667Y-81704762D01*
X159228571Y-81742857D01*
X159190476Y-81819048D01*
X159190476Y-82009524D01*
X159228571Y-82085714D01*
X159266667Y-82123810D01*
X159342857Y-82161905D01*
X159533333Y-82161905D01*
X159609524Y-82123810D01*
X159647619Y-82085714D01*
M02*
