%TF.GenerationSoftware,KiCad,Pcbnew,4.0.7*%
%TF.CreationDate,2018-05-06T22:33:30+03:00*%
%TF.ProjectId,FlexiBMS,466C657869424D532E6B696361645F70,rev?*%
%TF.FileFunction,Legend,Top*%
%FSLAX46Y46*%
G04 Gerber Fmt 4.6, Leading zero omitted, Abs format (unit mm)*
G04 Created by KiCad (PCBNEW 4.0.7) date 05/06/18 22:33:30*
%MOMM*%
%LPD*%
G01*
G04 APERTURE LIST*
%ADD10C,0.100000*%
%ADD11C,0.200000*%
%ADD12C,0.120000*%
%ADD13C,0.150000*%
G04 APERTURE END LIST*
D10*
D11*
X192338096Y-83450000D02*
X192242858Y-83402381D01*
X192100001Y-83402381D01*
X191957143Y-83450000D01*
X191861905Y-83545238D01*
X191814286Y-83640476D01*
X191766667Y-83830952D01*
X191766667Y-83973810D01*
X191814286Y-84164286D01*
X191861905Y-84259524D01*
X191957143Y-84354762D01*
X192100001Y-84402381D01*
X192195239Y-84402381D01*
X192338096Y-84354762D01*
X192385715Y-84307143D01*
X192385715Y-83973810D01*
X192195239Y-83973810D01*
X192814286Y-84402381D02*
X192814286Y-83402381D01*
X193385715Y-84402381D01*
X193385715Y-83402381D01*
X193861905Y-84402381D02*
X193861905Y-83402381D01*
X194100000Y-83402381D01*
X194242858Y-83450000D01*
X194338096Y-83545238D01*
X194385715Y-83640476D01*
X194433334Y-83830952D01*
X194433334Y-83973810D01*
X194385715Y-84164286D01*
X194338096Y-84259524D01*
X194242858Y-84354762D01*
X194100000Y-84402381D01*
X193861905Y-84402381D01*
X184907143Y-83878571D02*
X185050000Y-83926190D01*
X185097619Y-83973810D01*
X185145238Y-84069048D01*
X185145238Y-84211905D01*
X185097619Y-84307143D01*
X185050000Y-84354762D01*
X184954762Y-84402381D01*
X184573809Y-84402381D01*
X184573809Y-83402381D01*
X184907143Y-83402381D01*
X185002381Y-83450000D01*
X185050000Y-83497619D01*
X185097619Y-83592857D01*
X185097619Y-83688095D01*
X185050000Y-83783333D01*
X185002381Y-83830952D01*
X184907143Y-83878571D01*
X184573809Y-83878571D01*
X185716666Y-84402381D02*
X185621428Y-84354762D01*
X185573809Y-84307143D01*
X185526190Y-84211905D01*
X185526190Y-83926190D01*
X185573809Y-83830952D01*
X185621428Y-83783333D01*
X185716666Y-83735714D01*
X185859524Y-83735714D01*
X185954762Y-83783333D01*
X186002381Y-83830952D01*
X186050000Y-83926190D01*
X186050000Y-84211905D01*
X186002381Y-84307143D01*
X185954762Y-84354762D01*
X185859524Y-84402381D01*
X185716666Y-84402381D01*
X186621428Y-84402381D02*
X186526190Y-84354762D01*
X186478571Y-84307143D01*
X186430952Y-84211905D01*
X186430952Y-83926190D01*
X186478571Y-83830952D01*
X186526190Y-83783333D01*
X186621428Y-83735714D01*
X186764286Y-83735714D01*
X186859524Y-83783333D01*
X186907143Y-83830952D01*
X186954762Y-83926190D01*
X186954762Y-84211905D01*
X186907143Y-84307143D01*
X186859524Y-84354762D01*
X186764286Y-84402381D01*
X186621428Y-84402381D01*
X187335714Y-84354762D02*
X187430952Y-84402381D01*
X187621428Y-84402381D01*
X187716667Y-84354762D01*
X187764286Y-84259524D01*
X187764286Y-84211905D01*
X187716667Y-84116667D01*
X187621428Y-84069048D01*
X187478571Y-84069048D01*
X187383333Y-84021429D01*
X187335714Y-83926190D01*
X187335714Y-83878571D01*
X187383333Y-83783333D01*
X187478571Y-83735714D01*
X187621428Y-83735714D01*
X187716667Y-83783333D01*
X188050000Y-83735714D02*
X188430952Y-83735714D01*
X188192857Y-83402381D02*
X188192857Y-84259524D01*
X188240476Y-84354762D01*
X188335714Y-84402381D01*
X188430952Y-84402381D01*
X188764286Y-84021429D02*
X189526191Y-84021429D01*
X189145239Y-84402381D02*
X189145239Y-83640476D01*
X197328571Y-82266666D02*
X197376190Y-82123809D01*
X197423810Y-82076190D01*
X197519048Y-82028571D01*
X197661905Y-82028571D01*
X197757143Y-82076190D01*
X197804762Y-82123809D01*
X197852381Y-82219047D01*
X197852381Y-82600000D01*
X196852381Y-82600000D01*
X196852381Y-82266666D01*
X196900000Y-82171428D01*
X196947619Y-82123809D01*
X197042857Y-82076190D01*
X197138095Y-82076190D01*
X197233333Y-82123809D01*
X197280952Y-82171428D01*
X197328571Y-82266666D01*
X197328571Y-82600000D01*
X197185714Y-81171428D02*
X197852381Y-81171428D01*
X197185714Y-81600000D02*
X197709524Y-81600000D01*
X197804762Y-81552381D01*
X197852381Y-81457143D01*
X197852381Y-81314285D01*
X197804762Y-81219047D01*
X197757143Y-81171428D01*
X197852381Y-80552381D02*
X197804762Y-80647619D01*
X197709524Y-80695238D01*
X196852381Y-80695238D01*
X197852381Y-80171428D02*
X196852381Y-80171428D01*
X197471429Y-80076190D02*
X197852381Y-79790475D01*
X197185714Y-79790475D02*
X197566667Y-80171428D01*
X197471429Y-79361904D02*
X197471429Y-78599999D01*
X197852381Y-78980951D02*
X197090476Y-78980951D01*
X186114286Y-55628571D02*
X186257143Y-55676190D01*
X186304762Y-55723810D01*
X186352381Y-55819048D01*
X186352381Y-55961905D01*
X186304762Y-56057143D01*
X186257143Y-56104762D01*
X186161905Y-56152381D01*
X185780952Y-56152381D01*
X185780952Y-55152381D01*
X186114286Y-55152381D01*
X186209524Y-55200000D01*
X186257143Y-55247619D01*
X186304762Y-55342857D01*
X186304762Y-55438095D01*
X186257143Y-55533333D01*
X186209524Y-55580952D01*
X186114286Y-55628571D01*
X185780952Y-55628571D01*
X187209524Y-56152381D02*
X187209524Y-55628571D01*
X187161905Y-55533333D01*
X187066667Y-55485714D01*
X186876190Y-55485714D01*
X186780952Y-55533333D01*
X187209524Y-56104762D02*
X187114286Y-56152381D01*
X186876190Y-56152381D01*
X186780952Y-56104762D01*
X186733333Y-56009524D01*
X186733333Y-55914286D01*
X186780952Y-55819048D01*
X186876190Y-55771429D01*
X187114286Y-55771429D01*
X187209524Y-55723810D01*
X187542857Y-55485714D02*
X187923809Y-55485714D01*
X187685714Y-55152381D02*
X187685714Y-56009524D01*
X187733333Y-56104762D01*
X187828571Y-56152381D01*
X187923809Y-56152381D01*
X188257143Y-55771429D02*
X189019048Y-55771429D01*
X193714286Y-55628571D02*
X193857143Y-55676190D01*
X193904762Y-55723810D01*
X193952381Y-55819048D01*
X193952381Y-55961905D01*
X193904762Y-56057143D01*
X193857143Y-56104762D01*
X193761905Y-56152381D01*
X193380952Y-56152381D01*
X193380952Y-55152381D01*
X193714286Y-55152381D01*
X193809524Y-55200000D01*
X193857143Y-55247619D01*
X193904762Y-55342857D01*
X193904762Y-55438095D01*
X193857143Y-55533333D01*
X193809524Y-55580952D01*
X193714286Y-55628571D01*
X193380952Y-55628571D01*
X194809524Y-56152381D02*
X194809524Y-55628571D01*
X194761905Y-55533333D01*
X194666667Y-55485714D01*
X194476190Y-55485714D01*
X194380952Y-55533333D01*
X194809524Y-56104762D02*
X194714286Y-56152381D01*
X194476190Y-56152381D01*
X194380952Y-56104762D01*
X194333333Y-56009524D01*
X194333333Y-55914286D01*
X194380952Y-55819048D01*
X194476190Y-55771429D01*
X194714286Y-55771429D01*
X194809524Y-55723810D01*
X195142857Y-55485714D02*
X195523809Y-55485714D01*
X195285714Y-55152381D02*
X195285714Y-56009524D01*
X195333333Y-56104762D01*
X195428571Y-56152381D01*
X195523809Y-56152381D01*
X195857143Y-55771429D02*
X196619048Y-55771429D01*
X196238096Y-56152381D02*
X196238096Y-55390476D01*
X198402381Y-72602382D02*
X197402381Y-72602382D01*
X198116667Y-72269048D01*
X197402381Y-71935715D01*
X198402381Y-71935715D01*
X198402381Y-71316668D02*
X198354762Y-71411906D01*
X198307143Y-71459525D01*
X198211905Y-71507144D01*
X197926190Y-71507144D01*
X197830952Y-71459525D01*
X197783333Y-71411906D01*
X197735714Y-71316668D01*
X197735714Y-71173810D01*
X197783333Y-71078572D01*
X197830952Y-71030953D01*
X197926190Y-70983334D01*
X198211905Y-70983334D01*
X198307143Y-71030953D01*
X198354762Y-71078572D01*
X198402381Y-71173810D01*
X198402381Y-71316668D01*
X198402381Y-70126191D02*
X197402381Y-70126191D01*
X198354762Y-70126191D02*
X198402381Y-70221429D01*
X198402381Y-70411906D01*
X198354762Y-70507144D01*
X198307143Y-70554763D01*
X198211905Y-70602382D01*
X197926190Y-70602382D01*
X197830952Y-70554763D01*
X197783333Y-70507144D01*
X197735714Y-70411906D01*
X197735714Y-70221429D01*
X197783333Y-70126191D01*
X197735714Y-69221429D02*
X198402381Y-69221429D01*
X197735714Y-69650001D02*
X198259524Y-69650001D01*
X198354762Y-69602382D01*
X198402381Y-69507144D01*
X198402381Y-69364286D01*
X198354762Y-69269048D01*
X198307143Y-69221429D01*
X198402381Y-68602382D02*
X198354762Y-68697620D01*
X198259524Y-68745239D01*
X197402381Y-68745239D01*
X198354762Y-67840476D02*
X198402381Y-67935714D01*
X198402381Y-68126191D01*
X198354762Y-68221429D01*
X198259524Y-68269048D01*
X197878571Y-68269048D01*
X197783333Y-68221429D01*
X197735714Y-68126191D01*
X197735714Y-67935714D01*
X197783333Y-67840476D01*
X197878571Y-67792857D01*
X197973810Y-67792857D01*
X198069048Y-68269048D01*
X198354762Y-66173809D02*
X198402381Y-66269047D01*
X198402381Y-66459524D01*
X198354762Y-66554762D01*
X198307143Y-66602381D01*
X198211905Y-66650000D01*
X197926190Y-66650000D01*
X197830952Y-66602381D01*
X197783333Y-66554762D01*
X197735714Y-66459524D01*
X197735714Y-66269047D01*
X197783333Y-66173809D01*
X198402381Y-65602381D02*
X198354762Y-65697619D01*
X198307143Y-65745238D01*
X198211905Y-65792857D01*
X197926190Y-65792857D01*
X197830952Y-65745238D01*
X197783333Y-65697619D01*
X197735714Y-65602381D01*
X197735714Y-65459523D01*
X197783333Y-65364285D01*
X197830952Y-65316666D01*
X197926190Y-65269047D01*
X198211905Y-65269047D01*
X198307143Y-65316666D01*
X198354762Y-65364285D01*
X198402381Y-65459523D01*
X198402381Y-65602381D01*
X197735714Y-64840476D02*
X198402381Y-64840476D01*
X197830952Y-64840476D02*
X197783333Y-64792857D01*
X197735714Y-64697619D01*
X197735714Y-64554761D01*
X197783333Y-64459523D01*
X197878571Y-64411904D01*
X198402381Y-64411904D01*
X197735714Y-63935714D02*
X198402381Y-63935714D01*
X197830952Y-63935714D02*
X197783333Y-63888095D01*
X197735714Y-63792857D01*
X197735714Y-63649999D01*
X197783333Y-63554761D01*
X197878571Y-63507142D01*
X198402381Y-63507142D01*
X198354762Y-62649999D02*
X198402381Y-62745237D01*
X198402381Y-62935714D01*
X198354762Y-63030952D01*
X198259524Y-63078571D01*
X197878571Y-63078571D01*
X197783333Y-63030952D01*
X197735714Y-62935714D01*
X197735714Y-62745237D01*
X197783333Y-62649999D01*
X197878571Y-62602380D01*
X197973810Y-62602380D01*
X198069048Y-63078571D01*
X198354762Y-61745237D02*
X198402381Y-61840475D01*
X198402381Y-62030952D01*
X198354762Y-62126190D01*
X198307143Y-62173809D01*
X198211905Y-62221428D01*
X197926190Y-62221428D01*
X197830952Y-62173809D01*
X197783333Y-62126190D01*
X197735714Y-62030952D01*
X197735714Y-61840475D01*
X197783333Y-61745237D01*
X197735714Y-61459523D02*
X197735714Y-61078571D01*
X197402381Y-61316666D02*
X198259524Y-61316666D01*
X198354762Y-61269047D01*
X198402381Y-61173809D01*
X198402381Y-61078571D01*
X198402381Y-60602380D02*
X198354762Y-60697618D01*
X198307143Y-60745237D01*
X198211905Y-60792856D01*
X197926190Y-60792856D01*
X197830952Y-60745237D01*
X197783333Y-60697618D01*
X197735714Y-60602380D01*
X197735714Y-60459522D01*
X197783333Y-60364284D01*
X197830952Y-60316665D01*
X197926190Y-60269046D01*
X198211905Y-60269046D01*
X198307143Y-60316665D01*
X198354762Y-60364284D01*
X198402381Y-60459522D01*
X198402381Y-60602380D01*
X198402381Y-59840475D02*
X197735714Y-59840475D01*
X197926190Y-59840475D02*
X197830952Y-59792856D01*
X197783333Y-59745237D01*
X197735714Y-59649999D01*
X197735714Y-59554760D01*
X152878571Y-64573810D02*
X152954761Y-64611905D01*
X153107142Y-64611905D01*
X153183333Y-64573810D01*
X153221428Y-64497619D01*
X153221428Y-64459524D01*
X153183333Y-64383333D01*
X153107142Y-64345238D01*
X152992857Y-64345238D01*
X152916666Y-64307143D01*
X152878571Y-64230952D01*
X152878571Y-64192857D01*
X152916666Y-64116667D01*
X152992857Y-64078571D01*
X153107142Y-64078571D01*
X153183333Y-64116667D01*
X153564285Y-64611905D02*
X153564285Y-64078571D01*
X153564285Y-63811905D02*
X153526190Y-63850000D01*
X153564285Y-63888095D01*
X153602380Y-63850000D01*
X153564285Y-63811905D01*
X153564285Y-63888095D01*
X153945237Y-64611905D02*
X153945237Y-64078571D01*
X153945237Y-64154762D02*
X153983332Y-64116667D01*
X154059523Y-64078571D01*
X154173809Y-64078571D01*
X154249999Y-64116667D01*
X154288094Y-64192857D01*
X154288094Y-64611905D01*
X154288094Y-64192857D02*
X154326190Y-64116667D01*
X154402380Y-64078571D01*
X154516666Y-64078571D01*
X154592856Y-64116667D01*
X154630951Y-64192857D01*
X154630951Y-64611905D01*
X155126190Y-64611905D02*
X155049999Y-64573810D01*
X155011904Y-64535714D01*
X154973809Y-64459524D01*
X154973809Y-64230952D01*
X155011904Y-64154762D01*
X155049999Y-64116667D01*
X155126190Y-64078571D01*
X155240476Y-64078571D01*
X155316666Y-64116667D01*
X155354761Y-64154762D01*
X155392857Y-64230952D01*
X155392857Y-64459524D01*
X155354761Y-64535714D01*
X155316666Y-64573810D01*
X155240476Y-64611905D01*
X155126190Y-64611905D01*
X156307143Y-64573810D02*
X156383333Y-64611905D01*
X156535714Y-64611905D01*
X156611905Y-64573810D01*
X156650000Y-64497619D01*
X156650000Y-64459524D01*
X156611905Y-64383333D01*
X156535714Y-64345238D01*
X156421429Y-64345238D01*
X156345238Y-64307143D01*
X156307143Y-64230952D01*
X156307143Y-64192857D01*
X156345238Y-64116667D01*
X156421429Y-64078571D01*
X156535714Y-64078571D01*
X156611905Y-64116667D01*
X156992857Y-64611905D02*
X156992857Y-64078571D01*
X156992857Y-63811905D02*
X156954762Y-63850000D01*
X156992857Y-63888095D01*
X157030952Y-63850000D01*
X156992857Y-63811905D01*
X156992857Y-63888095D01*
X157373809Y-64611905D02*
X157373809Y-63811905D01*
X157716666Y-64611905D02*
X157716666Y-64192857D01*
X157678571Y-64116667D01*
X157602381Y-64078571D01*
X157488095Y-64078571D01*
X157411904Y-64116667D01*
X157373809Y-64154762D01*
X158021429Y-64078571D02*
X158211905Y-64611905D01*
X158402381Y-64078571D01*
X158821429Y-64611905D02*
X158745238Y-64573810D01*
X158707143Y-64535714D01*
X158669048Y-64459524D01*
X158669048Y-64230952D01*
X158707143Y-64154762D01*
X158745238Y-64116667D01*
X158821429Y-64078571D01*
X158935715Y-64078571D01*
X159011905Y-64116667D01*
X159050000Y-64154762D01*
X159088096Y-64230952D01*
X159088096Y-64459524D01*
X159050000Y-64535714D01*
X159011905Y-64573810D01*
X158935715Y-64611905D01*
X158821429Y-64611905D01*
X159430953Y-64078571D02*
X159430953Y-64611905D01*
X159430953Y-64154762D02*
X159469048Y-64116667D01*
X159545239Y-64078571D01*
X159659525Y-64078571D01*
X159735715Y-64116667D01*
X159773810Y-64192857D01*
X159773810Y-64611905D01*
X160459525Y-64573810D02*
X160383335Y-64611905D01*
X160230954Y-64611905D01*
X160154763Y-64573810D01*
X160116668Y-64497619D01*
X160116668Y-64192857D01*
X160154763Y-64116667D01*
X160230954Y-64078571D01*
X160383335Y-64078571D01*
X160459525Y-64116667D01*
X160497620Y-64192857D01*
X160497620Y-64269048D01*
X160116668Y-64345238D01*
X160840477Y-64078571D02*
X160840477Y-64611905D01*
X160840477Y-64154762D02*
X160878572Y-64116667D01*
X160954763Y-64078571D01*
X161069049Y-64078571D01*
X161145239Y-64116667D01*
X161183334Y-64192857D01*
X161183334Y-64611905D01*
X154345237Y-65211905D02*
X154421428Y-65211905D01*
X154497618Y-65250000D01*
X154535713Y-65288095D01*
X154573809Y-65364286D01*
X154611904Y-65516667D01*
X154611904Y-65707143D01*
X154573809Y-65859524D01*
X154535713Y-65935714D01*
X154497618Y-65973810D01*
X154421428Y-66011905D01*
X154345237Y-66011905D01*
X154269047Y-65973810D01*
X154230951Y-65935714D01*
X154192856Y-65859524D01*
X154154761Y-65707143D01*
X154154761Y-65516667D01*
X154192856Y-65364286D01*
X154230951Y-65288095D01*
X154269047Y-65250000D01*
X154345237Y-65211905D01*
X155335714Y-65211905D02*
X154954761Y-65211905D01*
X154916666Y-65592857D01*
X154954761Y-65554762D01*
X155030952Y-65516667D01*
X155221428Y-65516667D01*
X155297618Y-65554762D01*
X155335714Y-65592857D01*
X155373809Y-65669048D01*
X155373809Y-65859524D01*
X155335714Y-65935714D01*
X155297618Y-65973810D01*
X155221428Y-66011905D01*
X155030952Y-66011905D01*
X154954761Y-65973810D01*
X154916666Y-65935714D01*
X155869047Y-65211905D02*
X155945238Y-65211905D01*
X156021428Y-65250000D01*
X156059523Y-65288095D01*
X156097619Y-65364286D01*
X156135714Y-65516667D01*
X156135714Y-65707143D01*
X156097619Y-65859524D01*
X156059523Y-65935714D01*
X156021428Y-65973810D01*
X155945238Y-66011905D01*
X155869047Y-66011905D01*
X155792857Y-65973810D01*
X155754761Y-65935714D01*
X155716666Y-65859524D01*
X155678571Y-65707143D01*
X155678571Y-65516667D01*
X155716666Y-65364286D01*
X155754761Y-65288095D01*
X155792857Y-65250000D01*
X155869047Y-65211905D01*
X156859524Y-65211905D02*
X156478571Y-65211905D01*
X156440476Y-65592857D01*
X156478571Y-65554762D01*
X156554762Y-65516667D01*
X156745238Y-65516667D01*
X156821428Y-65554762D01*
X156859524Y-65592857D01*
X156897619Y-65669048D01*
X156897619Y-65859524D01*
X156859524Y-65935714D01*
X156821428Y-65973810D01*
X156745238Y-66011905D01*
X156554762Y-66011905D01*
X156478571Y-65973810D01*
X156440476Y-65935714D01*
X157202381Y-65288095D02*
X157240476Y-65250000D01*
X157316667Y-65211905D01*
X157507143Y-65211905D01*
X157583333Y-65250000D01*
X157621429Y-65288095D01*
X157659524Y-65364286D01*
X157659524Y-65440476D01*
X157621429Y-65554762D01*
X157164286Y-66011905D01*
X157659524Y-66011905D01*
X158154762Y-65211905D02*
X158230953Y-65211905D01*
X158307143Y-65250000D01*
X158345238Y-65288095D01*
X158383334Y-65364286D01*
X158421429Y-65516667D01*
X158421429Y-65707143D01*
X158383334Y-65859524D01*
X158345238Y-65935714D01*
X158307143Y-65973810D01*
X158230953Y-66011905D01*
X158154762Y-66011905D01*
X158078572Y-65973810D01*
X158040476Y-65935714D01*
X158002381Y-65859524D01*
X157964286Y-65707143D01*
X157964286Y-65516667D01*
X158002381Y-65364286D01*
X158040476Y-65288095D01*
X158078572Y-65250000D01*
X158154762Y-65211905D01*
X159183334Y-66011905D02*
X158726191Y-66011905D01*
X158954762Y-66011905D02*
X158954762Y-65211905D01*
X158878572Y-65326190D01*
X158802381Y-65402381D01*
X158726191Y-65440476D01*
X159640477Y-65554762D02*
X159564286Y-65516667D01*
X159526191Y-65478571D01*
X159488096Y-65402381D01*
X159488096Y-65364286D01*
X159526191Y-65288095D01*
X159564286Y-65250000D01*
X159640477Y-65211905D01*
X159792858Y-65211905D01*
X159869048Y-65250000D01*
X159907144Y-65288095D01*
X159945239Y-65364286D01*
X159945239Y-65402381D01*
X159907144Y-65478571D01*
X159869048Y-65516667D01*
X159792858Y-65554762D01*
X159640477Y-65554762D01*
X159564286Y-65592857D01*
X159526191Y-65630952D01*
X159488096Y-65707143D01*
X159488096Y-65859524D01*
X159526191Y-65935714D01*
X159564286Y-65973810D01*
X159640477Y-66011905D01*
X159792858Y-66011905D01*
X159869048Y-65973810D01*
X159907144Y-65935714D01*
X159945239Y-65859524D01*
X159945239Y-65707143D01*
X159907144Y-65630952D01*
X159869048Y-65592857D01*
X159792858Y-65554762D01*
X186228571Y-61814286D02*
X185828571Y-61814286D01*
X185828571Y-62442857D02*
X185828571Y-61242857D01*
X186400000Y-61242857D01*
X187028571Y-62442857D02*
X186914285Y-62385714D01*
X186857142Y-62271429D01*
X186857142Y-61242857D01*
X187942856Y-62385714D02*
X187828570Y-62442857D01*
X187599999Y-62442857D01*
X187485713Y-62385714D01*
X187428570Y-62271429D01*
X187428570Y-61814286D01*
X187485713Y-61700000D01*
X187599999Y-61642857D01*
X187828570Y-61642857D01*
X187942856Y-61700000D01*
X187999999Y-61814286D01*
X187999999Y-61928571D01*
X187428570Y-62042857D01*
X188399999Y-62442857D02*
X189028570Y-61642857D01*
X188399999Y-61642857D02*
X189028570Y-62442857D01*
X189485713Y-62442857D02*
X189485713Y-61642857D01*
X189485713Y-61242857D02*
X189428570Y-61300000D01*
X189485713Y-61357143D01*
X189542856Y-61300000D01*
X189485713Y-61242857D01*
X189485713Y-61357143D01*
X190457142Y-61814286D02*
X190628571Y-61871429D01*
X190685714Y-61928571D01*
X190742857Y-62042857D01*
X190742857Y-62214286D01*
X190685714Y-62328571D01*
X190628571Y-62385714D01*
X190514285Y-62442857D01*
X190057142Y-62442857D01*
X190057142Y-61242857D01*
X190457142Y-61242857D01*
X190571428Y-61300000D01*
X190628571Y-61357143D01*
X190685714Y-61471429D01*
X190685714Y-61585714D01*
X190628571Y-61700000D01*
X190571428Y-61757143D01*
X190457142Y-61814286D01*
X190057142Y-61814286D01*
X191257142Y-62442857D02*
X191257142Y-61242857D01*
X191657142Y-62100000D01*
X192057142Y-61242857D01*
X192057142Y-62442857D01*
X192571428Y-62385714D02*
X192742857Y-62442857D01*
X193028571Y-62442857D01*
X193142857Y-62385714D01*
X193200000Y-62328571D01*
X193257143Y-62214286D01*
X193257143Y-62100000D01*
X193200000Y-61985714D01*
X193142857Y-61928571D01*
X193028571Y-61871429D01*
X192800000Y-61814286D01*
X192685714Y-61757143D01*
X192628571Y-61700000D01*
X192571428Y-61585714D01*
X192571428Y-61471429D01*
X192628571Y-61357143D01*
X192685714Y-61300000D01*
X192800000Y-61242857D01*
X193085714Y-61242857D01*
X193257143Y-61300000D01*
X194914286Y-61242857D02*
X195028571Y-61242857D01*
X195142857Y-61300000D01*
X195200000Y-61357143D01*
X195257143Y-61471429D01*
X195314286Y-61700000D01*
X195314286Y-61985714D01*
X195257143Y-62214286D01*
X195200000Y-62328571D01*
X195142857Y-62385714D01*
X195028571Y-62442857D01*
X194914286Y-62442857D01*
X194800000Y-62385714D01*
X194742857Y-62328571D01*
X194685714Y-62214286D01*
X194628571Y-61985714D01*
X194628571Y-61700000D01*
X194685714Y-61471429D01*
X194742857Y-61357143D01*
X194800000Y-61300000D01*
X194914286Y-61242857D01*
X195828571Y-62328571D02*
X195885714Y-62385714D01*
X195828571Y-62442857D01*
X195771428Y-62385714D01*
X195828571Y-62328571D01*
X195828571Y-62442857D01*
X196342857Y-61357143D02*
X196400000Y-61300000D01*
X196514286Y-61242857D01*
X196800000Y-61242857D01*
X196914286Y-61300000D01*
X196971429Y-61357143D01*
X197028572Y-61471429D01*
X197028572Y-61585714D01*
X196971429Y-61757143D01*
X196285715Y-62442857D01*
X197028572Y-62442857D01*
D12*
X164200000Y-43450000D02*
X181800000Y-43450000D01*
X181800000Y-43450000D02*
X181800000Y-55250000D01*
X181800000Y-55250000D02*
X180600000Y-55250000D01*
X180600000Y-55250000D02*
X180600000Y-50750000D01*
X180600000Y-50750000D02*
X164200000Y-50750000D01*
X164200000Y-43450000D02*
X146600000Y-43450000D01*
X146600000Y-43450000D02*
X146600000Y-55250000D01*
X146600000Y-55250000D02*
X147800000Y-55250000D01*
X147800000Y-55250000D02*
X147800000Y-50750000D01*
X147800000Y-50750000D02*
X164200000Y-50750000D01*
X179200000Y-54300000D02*
X179500000Y-54900000D01*
X179500000Y-54900000D02*
X178900000Y-54900000D01*
X178900000Y-54900000D02*
X179200000Y-54300000D01*
X160900000Y-68350000D02*
X161600000Y-68350000D01*
X161600000Y-69550000D02*
X160900000Y-69550000D01*
X161350000Y-73850000D02*
X161350000Y-74550000D01*
X160150000Y-74550000D02*
X160150000Y-73850000D01*
X162950000Y-73850000D02*
X162950000Y-74550000D01*
X161750000Y-74550000D02*
X161750000Y-73850000D01*
X182850000Y-57800000D02*
X183550000Y-57800000D01*
X183550000Y-59000000D02*
X182850000Y-59000000D01*
X179250000Y-57800000D02*
X179950000Y-57800000D01*
X179950000Y-59000000D02*
X179250000Y-59000000D01*
X175650000Y-57800000D02*
X176350000Y-57800000D01*
X176350000Y-59000000D02*
X175650000Y-59000000D01*
X172050000Y-57800000D02*
X172750000Y-57800000D01*
X172750000Y-59000000D02*
X172050000Y-59000000D01*
X168450000Y-57800000D02*
X169150000Y-57800000D01*
X169150000Y-59000000D02*
X168450000Y-59000000D01*
X164850000Y-57800000D02*
X165550000Y-57800000D01*
X165550000Y-59000000D02*
X164850000Y-59000000D01*
X161250000Y-57800000D02*
X161950000Y-57800000D01*
X161950000Y-59000000D02*
X161250000Y-59000000D01*
X157650000Y-57800000D02*
X158350000Y-57800000D01*
X158350000Y-59000000D02*
X157650000Y-59000000D01*
X154050000Y-57800000D02*
X154750000Y-57800000D01*
X154750000Y-59000000D02*
X154050000Y-59000000D01*
X150450000Y-57800000D02*
X151150000Y-57800000D01*
X151150000Y-59000000D02*
X150450000Y-59000000D01*
X146850000Y-60100000D02*
X147550000Y-60100000D01*
X147550000Y-61300000D02*
X146850000Y-61300000D01*
X143250000Y-60100000D02*
X143950000Y-60100000D01*
X143950000Y-61300000D02*
X143250000Y-61300000D01*
X183970000Y-67150000D02*
X183970000Y-65150000D01*
X181930000Y-65150000D02*
X181930000Y-67150000D01*
X188100000Y-57450000D02*
X188100000Y-58150000D01*
X186900000Y-58150000D02*
X186900000Y-57450000D01*
X189600000Y-58150000D02*
X189600000Y-57450000D01*
X190800000Y-57450000D02*
X190800000Y-58150000D01*
X188250000Y-58150000D02*
X188250000Y-57450000D01*
X189450000Y-57450000D02*
X189450000Y-58150000D01*
X169370000Y-74450000D02*
X169370000Y-72450000D01*
X167330000Y-72450000D02*
X167330000Y-74450000D01*
X166850000Y-82400000D02*
X166850000Y-81700000D01*
X168050000Y-81700000D02*
X168050000Y-82400000D01*
X185440000Y-63800000D02*
X185440000Y-66690000D01*
X185440000Y-72700000D02*
X185440000Y-69810000D01*
X195860000Y-73460000D02*
X195860000Y-69810000D01*
X195860000Y-63040000D02*
X195860000Y-66690000D01*
X195860000Y-73460000D02*
X186200000Y-73460000D01*
X186200000Y-73460000D02*
X185440000Y-72700000D01*
X185440000Y-63800000D02*
X186200000Y-63040000D01*
X186200000Y-63040000D02*
X195860000Y-63040000D01*
X169400000Y-81700000D02*
X169400000Y-82400000D01*
X168200000Y-82400000D02*
X168200000Y-81700000D01*
X156500000Y-78700000D02*
X156500000Y-77700000D01*
X156500000Y-77700000D02*
X154400000Y-77700000D01*
X156500000Y-78700000D02*
X154400000Y-78700000D01*
X179300000Y-64700000D02*
X179300000Y-63700000D01*
X179300000Y-63700000D02*
X177200000Y-63700000D01*
X179300000Y-64700000D02*
X177200000Y-64700000D01*
X184100000Y-60750000D02*
X184100000Y-59050000D01*
X184100000Y-59050000D02*
X181550000Y-59050000D01*
X184100000Y-60750000D02*
X181550000Y-60750000D01*
X180800000Y-58000000D02*
X181800000Y-58000000D01*
X181800000Y-58000000D02*
X181800000Y-55900000D01*
X180800000Y-58000000D02*
X180800000Y-55900000D01*
X180500000Y-60750000D02*
X180500000Y-59050000D01*
X180500000Y-59050000D02*
X177950000Y-59050000D01*
X180500000Y-60750000D02*
X177950000Y-60750000D01*
X177200000Y-58000000D02*
X178200000Y-58000000D01*
X178200000Y-58000000D02*
X178200000Y-55900000D01*
X177200000Y-58000000D02*
X177200000Y-55900000D01*
X176900000Y-60750000D02*
X176900000Y-59050000D01*
X176900000Y-59050000D02*
X174350000Y-59050000D01*
X176900000Y-60750000D02*
X174350000Y-60750000D01*
X173600000Y-58000000D02*
X174600000Y-58000000D01*
X174600000Y-58000000D02*
X174600000Y-55900000D01*
X173600000Y-58000000D02*
X173600000Y-55900000D01*
X173300000Y-60750000D02*
X173300000Y-59050000D01*
X173300000Y-59050000D02*
X170750000Y-59050000D01*
X173300000Y-60750000D02*
X170750000Y-60750000D01*
X170000000Y-58000000D02*
X171000000Y-58000000D01*
X171000000Y-58000000D02*
X171000000Y-55900000D01*
X170000000Y-58000000D02*
X170000000Y-55900000D01*
X169700000Y-60750000D02*
X169700000Y-59050000D01*
X169700000Y-59050000D02*
X167150000Y-59050000D01*
X169700000Y-60750000D02*
X167150000Y-60750000D01*
X166400000Y-58000000D02*
X167400000Y-58000000D01*
X167400000Y-58000000D02*
X167400000Y-55900000D01*
X166400000Y-58000000D02*
X166400000Y-55900000D01*
X166100000Y-60750000D02*
X166100000Y-59050000D01*
X166100000Y-59050000D02*
X163550000Y-59050000D01*
X166100000Y-60750000D02*
X163550000Y-60750000D01*
X162800000Y-58000000D02*
X163800000Y-58000000D01*
X163800000Y-58000000D02*
X163800000Y-55900000D01*
X162800000Y-58000000D02*
X162800000Y-55900000D01*
X162500000Y-60750000D02*
X162500000Y-59050000D01*
X162500000Y-59050000D02*
X159950000Y-59050000D01*
X162500000Y-60750000D02*
X159950000Y-60750000D01*
X159200000Y-58000000D02*
X160200000Y-58000000D01*
X160200000Y-58000000D02*
X160200000Y-55900000D01*
X159200000Y-58000000D02*
X159200000Y-55900000D01*
X158900000Y-60750000D02*
X158900000Y-59050000D01*
X158900000Y-59050000D02*
X156350000Y-59050000D01*
X158900000Y-60750000D02*
X156350000Y-60750000D01*
X155600000Y-58000000D02*
X156600000Y-58000000D01*
X156600000Y-58000000D02*
X156600000Y-55900000D01*
X155600000Y-58000000D02*
X155600000Y-55900000D01*
X155300000Y-60750000D02*
X155300000Y-59050000D01*
X155300000Y-59050000D02*
X152750000Y-59050000D01*
X155300000Y-60750000D02*
X152750000Y-60750000D01*
X152000000Y-58000000D02*
X153000000Y-58000000D01*
X153000000Y-58000000D02*
X153000000Y-55900000D01*
X152000000Y-58000000D02*
X152000000Y-55900000D01*
X151700000Y-60750000D02*
X151700000Y-59050000D01*
X151700000Y-59050000D02*
X149150000Y-59050000D01*
X151700000Y-60750000D02*
X149150000Y-60750000D01*
X148400000Y-58000000D02*
X149400000Y-58000000D01*
X149400000Y-58000000D02*
X149400000Y-55900000D01*
X148400000Y-58000000D02*
X148400000Y-55900000D01*
X148100000Y-63050000D02*
X148100000Y-61350000D01*
X148100000Y-61350000D02*
X145550000Y-61350000D01*
X148100000Y-63050000D02*
X145550000Y-63050000D01*
X144800000Y-60300000D02*
X145800000Y-60300000D01*
X145800000Y-60300000D02*
X145800000Y-58200000D01*
X144800000Y-60300000D02*
X144800000Y-58200000D01*
X144450000Y-63050000D02*
X144450000Y-61350000D01*
X144450000Y-61350000D02*
X141900000Y-61350000D01*
X144450000Y-63050000D02*
X141900000Y-63050000D01*
X141200000Y-60300000D02*
X142200000Y-60300000D01*
X142200000Y-60300000D02*
X142200000Y-58200000D01*
X141200000Y-60300000D02*
X141200000Y-58200000D01*
X181700000Y-63900000D02*
X179700000Y-63900000D01*
X179700000Y-63900000D02*
X179700000Y-67750000D01*
X181700000Y-63900000D02*
X181700000Y-67750000D01*
X154910000Y-80590000D02*
X154530000Y-80590000D01*
X154910000Y-84640000D02*
X154910000Y-84900000D01*
X154910000Y-80590000D02*
X154910000Y-82360000D01*
X147290000Y-80590000D02*
X147670000Y-80590000D01*
X147290000Y-82360000D02*
X147290000Y-80590000D01*
X147290000Y-84900000D02*
X147290000Y-84640000D01*
X177700000Y-61030000D02*
X179700000Y-61030000D01*
X179700000Y-63170000D02*
X177700000Y-63170000D01*
X186670000Y-57350000D02*
X186670000Y-59350000D01*
X184530000Y-59350000D02*
X184530000Y-57350000D01*
D13*
X158400000Y-83600000D02*
G75*
G03X158400000Y-83600000I-500000J0D01*
G01*
X155400000Y-83600000D02*
X156400000Y-84600000D01*
X160400000Y-84600000D02*
X156400000Y-84600000D01*
X160400000Y-79600000D02*
X155400000Y-79600000D01*
X160400000Y-84600000D02*
X160400000Y-79600000D01*
X155400000Y-83600000D02*
X155400000Y-79600000D01*
D12*
X165000000Y-75920000D02*
X166000000Y-75920000D01*
X166000000Y-77280000D02*
X165000000Y-77280000D01*
X161330000Y-70950000D02*
X161330000Y-71950000D01*
X159970000Y-71950000D02*
X159970000Y-70950000D01*
X159930000Y-70950000D02*
X159930000Y-71950000D01*
X158570000Y-71950000D02*
X158570000Y-70950000D01*
X160730000Y-77450000D02*
X160730000Y-78450000D01*
X159370000Y-78450000D02*
X159370000Y-77450000D01*
X176900000Y-70070000D02*
X177900000Y-70070000D01*
X177900000Y-71430000D02*
X176900000Y-71430000D01*
X173500000Y-70070000D02*
X174500000Y-70070000D01*
X174500000Y-71430000D02*
X173500000Y-71430000D01*
X179450000Y-70070000D02*
X180450000Y-70070000D01*
X180450000Y-71430000D02*
X179450000Y-71430000D01*
X161800000Y-84575000D02*
X161800000Y-84775000D01*
X161800000Y-82425000D02*
X161800000Y-83725000D01*
X161800000Y-81375000D02*
X161800000Y-81575000D01*
X166200000Y-81375000D02*
X161800000Y-81375000D01*
X166200000Y-81575000D02*
X166200000Y-81375000D01*
X166200000Y-83725000D02*
X166200000Y-82425000D01*
X166200000Y-84775000D02*
X166200000Y-84575000D01*
X161800000Y-84775000D02*
X166200000Y-84775000D01*
X166200000Y-77600000D02*
X166200000Y-77400000D01*
X166200000Y-79750000D02*
X166200000Y-78450000D01*
X166200000Y-80800000D02*
X166200000Y-80600000D01*
X161800000Y-80800000D02*
X166200000Y-80800000D01*
X161800000Y-80600000D02*
X161800000Y-80800000D01*
X161800000Y-78450000D02*
X161800000Y-79750000D01*
X161800000Y-77400000D02*
X161800000Y-77600000D01*
X166200000Y-77400000D02*
X161800000Y-77400000D01*
D13*
X183650000Y-71550000D02*
X183650000Y-84650000D01*
X169550000Y-71550000D02*
X183650000Y-71550000D01*
X169550000Y-84650000D02*
X169550000Y-71550000D01*
X183650000Y-84650000D02*
X169550000Y-84650000D01*
D12*
X156500000Y-77300000D02*
X156500000Y-76300000D01*
X156500000Y-76300000D02*
X154400000Y-76300000D01*
X156500000Y-77300000D02*
X154400000Y-77300000D01*
X199330000Y-77750000D02*
X204530000Y-77750000D01*
X199330000Y-59910000D02*
X199330000Y-77750000D01*
X204530000Y-57310000D02*
X204530000Y-77750000D01*
X199330000Y-59910000D02*
X201930000Y-59910000D01*
X201930000Y-59910000D02*
X201930000Y-57310000D01*
X201930000Y-57310000D02*
X204530000Y-57310000D01*
X199330000Y-58640000D02*
X199330000Y-57310000D01*
X199330000Y-57310000D02*
X200660000Y-57310000D01*
D13*
X176325000Y-63675000D02*
X176300000Y-63675000D01*
X176325000Y-68325000D02*
X176217500Y-68325000D01*
X162875000Y-67825000D02*
X162982500Y-67825000D01*
X162875000Y-63175000D02*
X162982500Y-63175000D01*
X176325000Y-63675000D02*
X176325000Y-68325000D01*
X162875000Y-63175000D02*
X162875000Y-67825000D01*
X176300000Y-63675000D02*
X176300000Y-62600000D01*
D12*
X152575000Y-70400000D02*
X152575000Y-71225000D01*
X152575000Y-71225000D02*
X140425000Y-71225000D01*
X140425000Y-71225000D02*
X140425000Y-70400000D01*
X152575000Y-66850000D02*
X152575000Y-66025000D01*
X152575000Y-66025000D02*
X150275000Y-66025000D01*
X140425000Y-66850000D02*
X140425000Y-66025000D01*
X140425000Y-66025000D02*
X142725000Y-66025000D01*
X150275000Y-66025000D02*
X150275000Y-63625000D01*
X152575000Y-78025000D02*
X152575000Y-78850000D01*
X152575000Y-78850000D02*
X140425000Y-78850000D01*
X140425000Y-78850000D02*
X140425000Y-78025000D01*
X152575000Y-74475000D02*
X152575000Y-73650000D01*
X152575000Y-73650000D02*
X150275000Y-73650000D01*
X140425000Y-74475000D02*
X140425000Y-73650000D01*
X140425000Y-73650000D02*
X142725000Y-73650000D01*
X150275000Y-73650000D02*
X150275000Y-71250000D01*
X184230000Y-56950000D02*
X184230000Y-56450000D01*
X183170000Y-56450000D02*
X183170000Y-56950000D01*
X183030000Y-56350000D02*
X183030000Y-55850000D01*
X181970000Y-55850000D02*
X181970000Y-56350000D01*
X180630000Y-56950000D02*
X180630000Y-56450000D01*
X179570000Y-56450000D02*
X179570000Y-56950000D01*
X179430000Y-56350000D02*
X179430000Y-55850000D01*
X178370000Y-55850000D02*
X178370000Y-56350000D01*
X177030000Y-56950000D02*
X177030000Y-56450000D01*
X175970000Y-56450000D02*
X175970000Y-56950000D01*
X175830000Y-56350000D02*
X175830000Y-55850000D01*
X174770000Y-55850000D02*
X174770000Y-56350000D01*
X173430000Y-56950000D02*
X173430000Y-56450000D01*
X172370000Y-56450000D02*
X172370000Y-56950000D01*
X172230000Y-56350000D02*
X172230000Y-55850000D01*
X171170000Y-55850000D02*
X171170000Y-56350000D01*
X169830000Y-56950000D02*
X169830000Y-56450000D01*
X168770000Y-56450000D02*
X168770000Y-56950000D01*
X168630000Y-56350000D02*
X168630000Y-55850000D01*
X167570000Y-55850000D02*
X167570000Y-56350000D01*
X166230000Y-56950000D02*
X166230000Y-56450000D01*
X165170000Y-56450000D02*
X165170000Y-56950000D01*
X165030000Y-56350000D02*
X165030000Y-55850000D01*
X163970000Y-55850000D02*
X163970000Y-56350000D01*
X162630000Y-56950000D02*
X162630000Y-56450000D01*
X161570000Y-56450000D02*
X161570000Y-56950000D01*
X161430000Y-56350000D02*
X161430000Y-55850000D01*
X160370000Y-55850000D02*
X160370000Y-56350000D01*
X159030000Y-56950000D02*
X159030000Y-56450000D01*
X157970000Y-56450000D02*
X157970000Y-56950000D01*
X157830000Y-56350000D02*
X157830000Y-55850000D01*
X156770000Y-55850000D02*
X156770000Y-56350000D01*
X155430000Y-56950000D02*
X155430000Y-56450000D01*
X154370000Y-56450000D02*
X154370000Y-56950000D01*
X154230000Y-56350000D02*
X154230000Y-55850000D01*
X153170000Y-55850000D02*
X153170000Y-56350000D01*
X151830000Y-56950000D02*
X151830000Y-56450000D01*
X150770000Y-56450000D02*
X150770000Y-56950000D01*
X150630000Y-56350000D02*
X150630000Y-55850000D01*
X149570000Y-55850000D02*
X149570000Y-56350000D01*
X148230000Y-59250000D02*
X148230000Y-58750000D01*
X147170000Y-58750000D02*
X147170000Y-59250000D01*
X147030000Y-58650000D02*
X147030000Y-58150000D01*
X145970000Y-58150000D02*
X145970000Y-58650000D01*
X144630000Y-59250000D02*
X144630000Y-58750000D01*
X143570000Y-58750000D02*
X143570000Y-59250000D01*
X143430000Y-58650000D02*
X143430000Y-58150000D01*
X142370000Y-58150000D02*
X142370000Y-58650000D01*
X149400000Y-80600000D02*
X149400000Y-79850000D01*
X149400000Y-79850000D02*
X150000000Y-79850000D01*
X149100000Y-79850000D02*
X146950000Y-79850000D01*
X155250000Y-79850000D02*
X155250000Y-83400000D01*
X146950000Y-83400000D02*
X149850000Y-83400000D01*
X146950000Y-79850000D02*
X146950000Y-83400000D01*
X155250000Y-83400000D02*
X152350000Y-83400000D01*
X153100000Y-79850000D02*
X155250000Y-79850000D01*
X185800000Y-79540000D02*
X185800000Y-78120000D01*
X192400000Y-80300000D02*
X192400000Y-78120000D01*
X192400000Y-73700000D02*
X192400000Y-75880000D01*
X185800000Y-74460000D02*
X185800000Y-75880000D01*
X192400000Y-80300000D02*
X186560000Y-80300000D01*
X186560000Y-80300000D02*
X185800000Y-79540000D01*
X185800000Y-74460000D02*
X186560000Y-73700000D01*
X186560000Y-73700000D02*
X192400000Y-73700000D01*
X157870000Y-68600000D02*
X158400000Y-68600000D01*
X158400000Y-68600000D02*
X158400000Y-73800000D01*
X158400000Y-73800000D02*
X157870000Y-73800000D01*
X153730000Y-68600000D02*
X153200000Y-68600000D01*
X153200000Y-68600000D02*
X153200000Y-73800000D01*
X153200000Y-73800000D02*
X153730000Y-73800000D01*
X157870000Y-75220000D02*
X157870000Y-73800000D01*
X166050000Y-74800000D02*
X166050000Y-74100000D01*
X167250000Y-74100000D02*
X167250000Y-74800000D01*
D13*
X150166667Y-50752381D02*
X150166667Y-51466667D01*
X150119047Y-51609524D01*
X150023809Y-51704762D01*
X149880952Y-51752381D01*
X149785714Y-51752381D01*
X151071429Y-50752381D02*
X150880952Y-50752381D01*
X150785714Y-50800000D01*
X150738095Y-50847619D01*
X150642857Y-50990476D01*
X150595238Y-51180952D01*
X150595238Y-51561905D01*
X150642857Y-51657143D01*
X150690476Y-51704762D01*
X150785714Y-51752381D01*
X150976191Y-51752381D01*
X151071429Y-51704762D01*
X151119048Y-51657143D01*
X151166667Y-51561905D01*
X151166667Y-51323810D01*
X151119048Y-51228571D01*
X151071429Y-51180952D01*
X150976191Y-51133333D01*
X150785714Y-51133333D01*
X150690476Y-51180952D01*
X150642857Y-51228571D01*
X150595238Y-51323810D01*
X161166667Y-68135714D02*
X161128572Y-68173810D01*
X161014286Y-68211905D01*
X160938096Y-68211905D01*
X160823810Y-68173810D01*
X160747619Y-68097619D01*
X160709524Y-68021429D01*
X160671429Y-67869048D01*
X160671429Y-67754762D01*
X160709524Y-67602381D01*
X160747619Y-67526190D01*
X160823810Y-67450000D01*
X160938096Y-67411905D01*
X161014286Y-67411905D01*
X161128572Y-67450000D01*
X161166667Y-67488095D01*
X161890477Y-67411905D02*
X161509524Y-67411905D01*
X161471429Y-67792857D01*
X161509524Y-67754762D01*
X161585715Y-67716667D01*
X161776191Y-67716667D01*
X161852381Y-67754762D01*
X161890477Y-67792857D01*
X161928572Y-67869048D01*
X161928572Y-68059524D01*
X161890477Y-68135714D01*
X161852381Y-68173810D01*
X161776191Y-68211905D01*
X161585715Y-68211905D01*
X161509524Y-68173810D01*
X161471429Y-68135714D01*
X159914286Y-74300000D02*
X159942857Y-74328571D01*
X159971429Y-74414285D01*
X159971429Y-74471428D01*
X159942857Y-74557143D01*
X159885714Y-74614285D01*
X159828571Y-74642857D01*
X159714286Y-74671428D01*
X159628571Y-74671428D01*
X159514286Y-74642857D01*
X159457143Y-74614285D01*
X159400000Y-74557143D01*
X159371429Y-74471428D01*
X159371429Y-74414285D01*
X159400000Y-74328571D01*
X159428571Y-74300000D01*
X159628571Y-73957143D02*
X159600000Y-74014285D01*
X159571429Y-74042857D01*
X159514286Y-74071428D01*
X159485714Y-74071428D01*
X159428571Y-74042857D01*
X159400000Y-74014285D01*
X159371429Y-73957143D01*
X159371429Y-73842857D01*
X159400000Y-73785714D01*
X159428571Y-73757143D01*
X159485714Y-73728571D01*
X159514286Y-73728571D01*
X159571429Y-73757143D01*
X159600000Y-73785714D01*
X159628571Y-73842857D01*
X159628571Y-73957143D01*
X159657143Y-74014285D01*
X159685714Y-74042857D01*
X159742857Y-74071428D01*
X159857143Y-74071428D01*
X159914286Y-74042857D01*
X159942857Y-74014285D01*
X159971429Y-73957143D01*
X159971429Y-73842857D01*
X159942857Y-73785714D01*
X159914286Y-73757143D01*
X159857143Y-73728571D01*
X159742857Y-73728571D01*
X159685714Y-73757143D01*
X159657143Y-73785714D01*
X159628571Y-73842857D01*
X163714286Y-74300000D02*
X163742857Y-74328571D01*
X163771429Y-74414285D01*
X163771429Y-74471428D01*
X163742857Y-74557143D01*
X163685714Y-74614285D01*
X163628571Y-74642857D01*
X163514286Y-74671428D01*
X163428571Y-74671428D01*
X163314286Y-74642857D01*
X163257143Y-74614285D01*
X163200000Y-74557143D01*
X163171429Y-74471428D01*
X163171429Y-74414285D01*
X163200000Y-74328571D01*
X163228571Y-74300000D01*
X163771429Y-74014285D02*
X163771429Y-73900000D01*
X163742857Y-73842857D01*
X163714286Y-73814285D01*
X163628571Y-73757143D01*
X163514286Y-73728571D01*
X163285714Y-73728571D01*
X163228571Y-73757143D01*
X163200000Y-73785714D01*
X163171429Y-73842857D01*
X163171429Y-73957143D01*
X163200000Y-74014285D01*
X163228571Y-74042857D01*
X163285714Y-74071428D01*
X163428571Y-74071428D01*
X163485714Y-74042857D01*
X163514286Y-74014285D01*
X163542857Y-73957143D01*
X163542857Y-73842857D01*
X163514286Y-73785714D01*
X163485714Y-73757143D01*
X163428571Y-73728571D01*
D10*
X184378572Y-59278571D02*
X184354762Y-59302381D01*
X184283334Y-59326190D01*
X184235715Y-59326190D01*
X184164286Y-59302381D01*
X184116667Y-59254762D01*
X184092858Y-59207143D01*
X184069048Y-59111905D01*
X184069048Y-59040476D01*
X184092858Y-58945238D01*
X184116667Y-58897619D01*
X184164286Y-58850000D01*
X184235715Y-58826190D01*
X184283334Y-58826190D01*
X184354762Y-58850000D01*
X184378572Y-58873810D01*
X184854762Y-59326190D02*
X184569048Y-59326190D01*
X184711905Y-59326190D02*
X184711905Y-58826190D01*
X184664286Y-58897619D01*
X184616667Y-58945238D01*
X184569048Y-58969048D01*
X185283333Y-58992857D02*
X185283333Y-59326190D01*
X185164286Y-58802381D02*
X185045238Y-59159524D01*
X185354762Y-59159524D01*
X180778572Y-59278571D02*
X180754762Y-59302381D01*
X180683334Y-59326190D01*
X180635715Y-59326190D01*
X180564286Y-59302381D01*
X180516667Y-59254762D01*
X180492858Y-59207143D01*
X180469048Y-59111905D01*
X180469048Y-59040476D01*
X180492858Y-58945238D01*
X180516667Y-58897619D01*
X180564286Y-58850000D01*
X180635715Y-58826190D01*
X180683334Y-58826190D01*
X180754762Y-58850000D01*
X180778572Y-58873810D01*
X181254762Y-59326190D02*
X180969048Y-59326190D01*
X181111905Y-59326190D02*
X181111905Y-58826190D01*
X181064286Y-58897619D01*
X181016667Y-58945238D01*
X180969048Y-58969048D01*
X181707143Y-58826190D02*
X181469048Y-58826190D01*
X181445238Y-59064286D01*
X181469048Y-59040476D01*
X181516667Y-59016667D01*
X181635714Y-59016667D01*
X181683333Y-59040476D01*
X181707143Y-59064286D01*
X181730952Y-59111905D01*
X181730952Y-59230952D01*
X181707143Y-59278571D01*
X181683333Y-59302381D01*
X181635714Y-59326190D01*
X181516667Y-59326190D01*
X181469048Y-59302381D01*
X181445238Y-59278571D01*
X177178572Y-59278571D02*
X177154762Y-59302381D01*
X177083334Y-59326190D01*
X177035715Y-59326190D01*
X176964286Y-59302381D01*
X176916667Y-59254762D01*
X176892858Y-59207143D01*
X176869048Y-59111905D01*
X176869048Y-59040476D01*
X176892858Y-58945238D01*
X176916667Y-58897619D01*
X176964286Y-58850000D01*
X177035715Y-58826190D01*
X177083334Y-58826190D01*
X177154762Y-58850000D01*
X177178572Y-58873810D01*
X177654762Y-59326190D02*
X177369048Y-59326190D01*
X177511905Y-59326190D02*
X177511905Y-58826190D01*
X177464286Y-58897619D01*
X177416667Y-58945238D01*
X177369048Y-58969048D01*
X178083333Y-58826190D02*
X177988095Y-58826190D01*
X177940476Y-58850000D01*
X177916667Y-58873810D01*
X177869048Y-58945238D01*
X177845238Y-59040476D01*
X177845238Y-59230952D01*
X177869048Y-59278571D01*
X177892857Y-59302381D01*
X177940476Y-59326190D01*
X178035714Y-59326190D01*
X178083333Y-59302381D01*
X178107143Y-59278571D01*
X178130952Y-59230952D01*
X178130952Y-59111905D01*
X178107143Y-59064286D01*
X178083333Y-59040476D01*
X178035714Y-59016667D01*
X177940476Y-59016667D01*
X177892857Y-59040476D01*
X177869048Y-59064286D01*
X177845238Y-59111905D01*
X173578572Y-59278571D02*
X173554762Y-59302381D01*
X173483334Y-59326190D01*
X173435715Y-59326190D01*
X173364286Y-59302381D01*
X173316667Y-59254762D01*
X173292858Y-59207143D01*
X173269048Y-59111905D01*
X173269048Y-59040476D01*
X173292858Y-58945238D01*
X173316667Y-58897619D01*
X173364286Y-58850000D01*
X173435715Y-58826190D01*
X173483334Y-58826190D01*
X173554762Y-58850000D01*
X173578572Y-58873810D01*
X174054762Y-59326190D02*
X173769048Y-59326190D01*
X173911905Y-59326190D02*
X173911905Y-58826190D01*
X173864286Y-58897619D01*
X173816667Y-58945238D01*
X173769048Y-58969048D01*
X174221429Y-58826190D02*
X174554762Y-58826190D01*
X174340476Y-59326190D01*
X169978572Y-59278571D02*
X169954762Y-59302381D01*
X169883334Y-59326190D01*
X169835715Y-59326190D01*
X169764286Y-59302381D01*
X169716667Y-59254762D01*
X169692858Y-59207143D01*
X169669048Y-59111905D01*
X169669048Y-59040476D01*
X169692858Y-58945238D01*
X169716667Y-58897619D01*
X169764286Y-58850000D01*
X169835715Y-58826190D01*
X169883334Y-58826190D01*
X169954762Y-58850000D01*
X169978572Y-58873810D01*
X170454762Y-59326190D02*
X170169048Y-59326190D01*
X170311905Y-59326190D02*
X170311905Y-58826190D01*
X170264286Y-58897619D01*
X170216667Y-58945238D01*
X170169048Y-58969048D01*
X170740476Y-59040476D02*
X170692857Y-59016667D01*
X170669048Y-58992857D01*
X170645238Y-58945238D01*
X170645238Y-58921429D01*
X170669048Y-58873810D01*
X170692857Y-58850000D01*
X170740476Y-58826190D01*
X170835714Y-58826190D01*
X170883333Y-58850000D01*
X170907143Y-58873810D01*
X170930952Y-58921429D01*
X170930952Y-58945238D01*
X170907143Y-58992857D01*
X170883333Y-59016667D01*
X170835714Y-59040476D01*
X170740476Y-59040476D01*
X170692857Y-59064286D01*
X170669048Y-59088095D01*
X170645238Y-59135714D01*
X170645238Y-59230952D01*
X170669048Y-59278571D01*
X170692857Y-59302381D01*
X170740476Y-59326190D01*
X170835714Y-59326190D01*
X170883333Y-59302381D01*
X170907143Y-59278571D01*
X170930952Y-59230952D01*
X170930952Y-59135714D01*
X170907143Y-59088095D01*
X170883333Y-59064286D01*
X170835714Y-59040476D01*
X166378572Y-59278571D02*
X166354762Y-59302381D01*
X166283334Y-59326190D01*
X166235715Y-59326190D01*
X166164286Y-59302381D01*
X166116667Y-59254762D01*
X166092858Y-59207143D01*
X166069048Y-59111905D01*
X166069048Y-59040476D01*
X166092858Y-58945238D01*
X166116667Y-58897619D01*
X166164286Y-58850000D01*
X166235715Y-58826190D01*
X166283334Y-58826190D01*
X166354762Y-58850000D01*
X166378572Y-58873810D01*
X166854762Y-59326190D02*
X166569048Y-59326190D01*
X166711905Y-59326190D02*
X166711905Y-58826190D01*
X166664286Y-58897619D01*
X166616667Y-58945238D01*
X166569048Y-58969048D01*
X167092857Y-59326190D02*
X167188095Y-59326190D01*
X167235714Y-59302381D01*
X167259524Y-59278571D01*
X167307143Y-59207143D01*
X167330952Y-59111905D01*
X167330952Y-58921429D01*
X167307143Y-58873810D01*
X167283333Y-58850000D01*
X167235714Y-58826190D01*
X167140476Y-58826190D01*
X167092857Y-58850000D01*
X167069048Y-58873810D01*
X167045238Y-58921429D01*
X167045238Y-59040476D01*
X167069048Y-59088095D01*
X167092857Y-59111905D01*
X167140476Y-59135714D01*
X167235714Y-59135714D01*
X167283333Y-59111905D01*
X167307143Y-59088095D01*
X167330952Y-59040476D01*
X162778572Y-59278571D02*
X162754762Y-59302381D01*
X162683334Y-59326190D01*
X162635715Y-59326190D01*
X162564286Y-59302381D01*
X162516667Y-59254762D01*
X162492858Y-59207143D01*
X162469048Y-59111905D01*
X162469048Y-59040476D01*
X162492858Y-58945238D01*
X162516667Y-58897619D01*
X162564286Y-58850000D01*
X162635715Y-58826190D01*
X162683334Y-58826190D01*
X162754762Y-58850000D01*
X162778572Y-58873810D01*
X162969048Y-58873810D02*
X162992858Y-58850000D01*
X163040477Y-58826190D01*
X163159524Y-58826190D01*
X163207143Y-58850000D01*
X163230953Y-58873810D01*
X163254762Y-58921429D01*
X163254762Y-58969048D01*
X163230953Y-59040476D01*
X162945239Y-59326190D01*
X163254762Y-59326190D01*
X163564286Y-58826190D02*
X163611905Y-58826190D01*
X163659524Y-58850000D01*
X163683333Y-58873810D01*
X163707143Y-58921429D01*
X163730952Y-59016667D01*
X163730952Y-59135714D01*
X163707143Y-59230952D01*
X163683333Y-59278571D01*
X163659524Y-59302381D01*
X163611905Y-59326190D01*
X163564286Y-59326190D01*
X163516667Y-59302381D01*
X163492857Y-59278571D01*
X163469048Y-59230952D01*
X163445238Y-59135714D01*
X163445238Y-59016667D01*
X163469048Y-58921429D01*
X163492857Y-58873810D01*
X163516667Y-58850000D01*
X163564286Y-58826190D01*
X159178572Y-59278571D02*
X159154762Y-59302381D01*
X159083334Y-59326190D01*
X159035715Y-59326190D01*
X158964286Y-59302381D01*
X158916667Y-59254762D01*
X158892858Y-59207143D01*
X158869048Y-59111905D01*
X158869048Y-59040476D01*
X158892858Y-58945238D01*
X158916667Y-58897619D01*
X158964286Y-58850000D01*
X159035715Y-58826190D01*
X159083334Y-58826190D01*
X159154762Y-58850000D01*
X159178572Y-58873810D01*
X159369048Y-58873810D02*
X159392858Y-58850000D01*
X159440477Y-58826190D01*
X159559524Y-58826190D01*
X159607143Y-58850000D01*
X159630953Y-58873810D01*
X159654762Y-58921429D01*
X159654762Y-58969048D01*
X159630953Y-59040476D01*
X159345239Y-59326190D01*
X159654762Y-59326190D01*
X160130952Y-59326190D02*
X159845238Y-59326190D01*
X159988095Y-59326190D02*
X159988095Y-58826190D01*
X159940476Y-58897619D01*
X159892857Y-58945238D01*
X159845238Y-58969048D01*
X155478572Y-59278571D02*
X155454762Y-59302381D01*
X155383334Y-59326190D01*
X155335715Y-59326190D01*
X155264286Y-59302381D01*
X155216667Y-59254762D01*
X155192858Y-59207143D01*
X155169048Y-59111905D01*
X155169048Y-59040476D01*
X155192858Y-58945238D01*
X155216667Y-58897619D01*
X155264286Y-58850000D01*
X155335715Y-58826190D01*
X155383334Y-58826190D01*
X155454762Y-58850000D01*
X155478572Y-58873810D01*
X155669048Y-58873810D02*
X155692858Y-58850000D01*
X155740477Y-58826190D01*
X155859524Y-58826190D01*
X155907143Y-58850000D01*
X155930953Y-58873810D01*
X155954762Y-58921429D01*
X155954762Y-58969048D01*
X155930953Y-59040476D01*
X155645239Y-59326190D01*
X155954762Y-59326190D01*
X156145238Y-58873810D02*
X156169048Y-58850000D01*
X156216667Y-58826190D01*
X156335714Y-58826190D01*
X156383333Y-58850000D01*
X156407143Y-58873810D01*
X156430952Y-58921429D01*
X156430952Y-58969048D01*
X156407143Y-59040476D01*
X156121429Y-59326190D01*
X156430952Y-59326190D01*
X151878572Y-59278571D02*
X151854762Y-59302381D01*
X151783334Y-59326190D01*
X151735715Y-59326190D01*
X151664286Y-59302381D01*
X151616667Y-59254762D01*
X151592858Y-59207143D01*
X151569048Y-59111905D01*
X151569048Y-59040476D01*
X151592858Y-58945238D01*
X151616667Y-58897619D01*
X151664286Y-58850000D01*
X151735715Y-58826190D01*
X151783334Y-58826190D01*
X151854762Y-58850000D01*
X151878572Y-58873810D01*
X152069048Y-58873810D02*
X152092858Y-58850000D01*
X152140477Y-58826190D01*
X152259524Y-58826190D01*
X152307143Y-58850000D01*
X152330953Y-58873810D01*
X152354762Y-58921429D01*
X152354762Y-58969048D01*
X152330953Y-59040476D01*
X152045239Y-59326190D01*
X152354762Y-59326190D01*
X152521429Y-58826190D02*
X152830952Y-58826190D01*
X152664286Y-59016667D01*
X152735714Y-59016667D01*
X152783333Y-59040476D01*
X152807143Y-59064286D01*
X152830952Y-59111905D01*
X152830952Y-59230952D01*
X152807143Y-59278571D01*
X152783333Y-59302381D01*
X152735714Y-59326190D01*
X152592857Y-59326190D01*
X152545238Y-59302381D01*
X152521429Y-59278571D01*
X148378572Y-61578571D02*
X148354762Y-61602381D01*
X148283334Y-61626190D01*
X148235715Y-61626190D01*
X148164286Y-61602381D01*
X148116667Y-61554762D01*
X148092858Y-61507143D01*
X148069048Y-61411905D01*
X148069048Y-61340476D01*
X148092858Y-61245238D01*
X148116667Y-61197619D01*
X148164286Y-61150000D01*
X148235715Y-61126190D01*
X148283334Y-61126190D01*
X148354762Y-61150000D01*
X148378572Y-61173810D01*
X148569048Y-61173810D02*
X148592858Y-61150000D01*
X148640477Y-61126190D01*
X148759524Y-61126190D01*
X148807143Y-61150000D01*
X148830953Y-61173810D01*
X148854762Y-61221429D01*
X148854762Y-61269048D01*
X148830953Y-61340476D01*
X148545239Y-61626190D01*
X148854762Y-61626190D01*
X149283333Y-61292857D02*
X149283333Y-61626190D01*
X149164286Y-61102381D02*
X149045238Y-61459524D01*
X149354762Y-61459524D01*
X144678572Y-61578571D02*
X144654762Y-61602381D01*
X144583334Y-61626190D01*
X144535715Y-61626190D01*
X144464286Y-61602381D01*
X144416667Y-61554762D01*
X144392858Y-61507143D01*
X144369048Y-61411905D01*
X144369048Y-61340476D01*
X144392858Y-61245238D01*
X144416667Y-61197619D01*
X144464286Y-61150000D01*
X144535715Y-61126190D01*
X144583334Y-61126190D01*
X144654762Y-61150000D01*
X144678572Y-61173810D01*
X144869048Y-61173810D02*
X144892858Y-61150000D01*
X144940477Y-61126190D01*
X145059524Y-61126190D01*
X145107143Y-61150000D01*
X145130953Y-61173810D01*
X145154762Y-61221429D01*
X145154762Y-61269048D01*
X145130953Y-61340476D01*
X144845239Y-61626190D01*
X145154762Y-61626190D01*
X145607143Y-61126190D02*
X145369048Y-61126190D01*
X145345238Y-61364286D01*
X145369048Y-61340476D01*
X145416667Y-61316667D01*
X145535714Y-61316667D01*
X145583333Y-61340476D01*
X145607143Y-61364286D01*
X145630952Y-61411905D01*
X145630952Y-61530952D01*
X145607143Y-61578571D01*
X145583333Y-61602381D01*
X145535714Y-61626190D01*
X145416667Y-61626190D01*
X145369048Y-61602381D01*
X145345238Y-61578571D01*
D13*
X182385714Y-69285714D02*
X182347619Y-69323810D01*
X182233333Y-69361905D01*
X182157143Y-69361905D01*
X182042857Y-69323810D01*
X181966666Y-69247619D01*
X181928571Y-69171429D01*
X181890476Y-69019048D01*
X181890476Y-68904762D01*
X181928571Y-68752381D01*
X181966666Y-68676190D01*
X182042857Y-68600000D01*
X182157143Y-68561905D01*
X182233333Y-68561905D01*
X182347619Y-68600000D01*
X182385714Y-68638095D01*
X182690476Y-68638095D02*
X182728571Y-68600000D01*
X182804762Y-68561905D01*
X182995238Y-68561905D01*
X183071428Y-68600000D01*
X183109524Y-68638095D01*
X183147619Y-68714286D01*
X183147619Y-68790476D01*
X183109524Y-68904762D01*
X182652381Y-69361905D01*
X183147619Y-69361905D01*
X183528571Y-69361905D02*
X183680952Y-69361905D01*
X183757143Y-69323810D01*
X183795238Y-69285714D01*
X183871429Y-69171429D01*
X183909524Y-69019048D01*
X183909524Y-68714286D01*
X183871429Y-68638095D01*
X183833333Y-68600000D01*
X183757143Y-68561905D01*
X183604762Y-68561905D01*
X183528571Y-68600000D01*
X183490476Y-68638095D01*
X183452381Y-68714286D01*
X183452381Y-68904762D01*
X183490476Y-68980952D01*
X183528571Y-69019048D01*
X183604762Y-69057143D01*
X183757143Y-69057143D01*
X183833333Y-69019048D01*
X183871429Y-68980952D01*
X183909524Y-68904762D01*
X187750000Y-60650000D02*
X187783333Y-60683334D01*
X187816667Y-60783334D01*
X187816667Y-60850000D01*
X187783333Y-60950000D01*
X187716667Y-61016667D01*
X187650000Y-61050000D01*
X187516667Y-61083334D01*
X187416667Y-61083334D01*
X187283333Y-61050000D01*
X187216667Y-61016667D01*
X187150000Y-60950000D01*
X187116667Y-60850000D01*
X187116667Y-60783334D01*
X187150000Y-60683334D01*
X187183333Y-60650000D01*
X187116667Y-60416667D02*
X187116667Y-59983334D01*
X187383333Y-60216667D01*
X187383333Y-60116667D01*
X187416667Y-60050000D01*
X187450000Y-60016667D01*
X187516667Y-59983334D01*
X187683333Y-59983334D01*
X187750000Y-60016667D01*
X187783333Y-60050000D01*
X187816667Y-60116667D01*
X187816667Y-60316667D01*
X187783333Y-60383334D01*
X187750000Y-60416667D01*
X187116667Y-59550000D02*
X187116667Y-59483333D01*
X187150000Y-59416667D01*
X187183333Y-59383333D01*
X187250000Y-59350000D01*
X187383333Y-59316667D01*
X187550000Y-59316667D01*
X187683333Y-59350000D01*
X187750000Y-59383333D01*
X187783333Y-59416667D01*
X187816667Y-59483333D01*
X187816667Y-59550000D01*
X187783333Y-59616667D01*
X187750000Y-59650000D01*
X187683333Y-59683333D01*
X187550000Y-59716667D01*
X187383333Y-59716667D01*
X187250000Y-59683333D01*
X187183333Y-59650000D01*
X187150000Y-59616667D01*
X187116667Y-59550000D01*
X190450000Y-60550000D02*
X190483333Y-60583334D01*
X190516667Y-60683334D01*
X190516667Y-60750000D01*
X190483333Y-60850000D01*
X190416667Y-60916667D01*
X190350000Y-60950000D01*
X190216667Y-60983334D01*
X190116667Y-60983334D01*
X189983333Y-60950000D01*
X189916667Y-60916667D01*
X189850000Y-60850000D01*
X189816667Y-60750000D01*
X189816667Y-60683334D01*
X189850000Y-60583334D01*
X189883333Y-60550000D01*
X189816667Y-60316667D02*
X189816667Y-59883334D01*
X190083333Y-60116667D01*
X190083333Y-60016667D01*
X190116667Y-59950000D01*
X190150000Y-59916667D01*
X190216667Y-59883334D01*
X190383333Y-59883334D01*
X190450000Y-59916667D01*
X190483333Y-59950000D01*
X190516667Y-60016667D01*
X190516667Y-60216667D01*
X190483333Y-60283334D01*
X190450000Y-60316667D01*
X190516667Y-59216667D02*
X190516667Y-59616667D01*
X190516667Y-59416667D02*
X189816667Y-59416667D01*
X189916667Y-59483333D01*
X189983333Y-59550000D01*
X190016667Y-59616667D01*
X189050000Y-60650000D02*
X189083333Y-60683334D01*
X189116667Y-60783334D01*
X189116667Y-60850000D01*
X189083333Y-60950000D01*
X189016667Y-61016667D01*
X188950000Y-61050000D01*
X188816667Y-61083334D01*
X188716667Y-61083334D01*
X188583333Y-61050000D01*
X188516667Y-61016667D01*
X188450000Y-60950000D01*
X188416667Y-60850000D01*
X188416667Y-60783334D01*
X188450000Y-60683334D01*
X188483333Y-60650000D01*
X188416667Y-60416667D02*
X188416667Y-59983334D01*
X188683333Y-60216667D01*
X188683333Y-60116667D01*
X188716667Y-60050000D01*
X188750000Y-60016667D01*
X188816667Y-59983334D01*
X188983333Y-59983334D01*
X189050000Y-60016667D01*
X189083333Y-60050000D01*
X189116667Y-60116667D01*
X189116667Y-60316667D01*
X189083333Y-60383334D01*
X189050000Y-60416667D01*
X188483333Y-59716667D02*
X188450000Y-59683333D01*
X188416667Y-59616667D01*
X188416667Y-59450000D01*
X188450000Y-59383333D01*
X188483333Y-59350000D01*
X188550000Y-59316667D01*
X188616667Y-59316667D01*
X188716667Y-59350000D01*
X189116667Y-59750000D01*
X189116667Y-59316667D01*
X165785714Y-74114286D02*
X165823810Y-74152381D01*
X165861905Y-74266667D01*
X165861905Y-74342857D01*
X165823810Y-74457143D01*
X165747619Y-74533334D01*
X165671429Y-74571429D01*
X165519048Y-74609524D01*
X165404762Y-74609524D01*
X165252381Y-74571429D01*
X165176190Y-74533334D01*
X165100000Y-74457143D01*
X165061905Y-74342857D01*
X165061905Y-74266667D01*
X165100000Y-74152381D01*
X165138095Y-74114286D01*
X165061905Y-73847619D02*
X165061905Y-73352381D01*
X165366667Y-73619048D01*
X165366667Y-73504762D01*
X165404762Y-73428572D01*
X165442857Y-73390476D01*
X165519048Y-73352381D01*
X165709524Y-73352381D01*
X165785714Y-73390476D01*
X165823810Y-73428572D01*
X165861905Y-73504762D01*
X165861905Y-73733334D01*
X165823810Y-73809524D01*
X165785714Y-73847619D01*
X165061905Y-72666667D02*
X165061905Y-72819048D01*
X165100000Y-72895238D01*
X165138095Y-72933333D01*
X165252381Y-73009524D01*
X165404762Y-73047619D01*
X165709524Y-73047619D01*
X165785714Y-73009524D01*
X165823810Y-72971429D01*
X165861905Y-72895238D01*
X165861905Y-72742857D01*
X165823810Y-72666667D01*
X165785714Y-72628571D01*
X165709524Y-72590476D01*
X165519048Y-72590476D01*
X165442857Y-72628571D01*
X165404762Y-72666667D01*
X165366667Y-72742857D01*
X165366667Y-72895238D01*
X165404762Y-72971429D01*
X165442857Y-73009524D01*
X165519048Y-73047619D01*
X167750000Y-80050000D02*
X167783333Y-80083334D01*
X167816667Y-80183334D01*
X167816667Y-80250000D01*
X167783333Y-80350000D01*
X167716667Y-80416667D01*
X167650000Y-80450000D01*
X167516667Y-80483334D01*
X167416667Y-80483334D01*
X167283333Y-80450000D01*
X167216667Y-80416667D01*
X167150000Y-80350000D01*
X167116667Y-80250000D01*
X167116667Y-80183334D01*
X167150000Y-80083334D01*
X167183333Y-80050000D01*
X167116667Y-79816667D02*
X167116667Y-79383334D01*
X167383333Y-79616667D01*
X167383333Y-79516667D01*
X167416667Y-79450000D01*
X167450000Y-79416667D01*
X167516667Y-79383334D01*
X167683333Y-79383334D01*
X167750000Y-79416667D01*
X167783333Y-79450000D01*
X167816667Y-79516667D01*
X167816667Y-79716667D01*
X167783333Y-79783334D01*
X167750000Y-79816667D01*
X167816667Y-79050000D02*
X167816667Y-78916667D01*
X167783333Y-78850000D01*
X167750000Y-78816667D01*
X167650000Y-78750000D01*
X167516667Y-78716667D01*
X167250000Y-78716667D01*
X167183333Y-78750000D01*
X167150000Y-78783333D01*
X167116667Y-78850000D01*
X167116667Y-78983333D01*
X167150000Y-79050000D01*
X167183333Y-79083333D01*
X167250000Y-79116667D01*
X167416667Y-79116667D01*
X167483333Y-79083333D01*
X167516667Y-79050000D01*
X167550000Y-78983333D01*
X167550000Y-78850000D01*
X167516667Y-78783333D01*
X167483333Y-78750000D01*
X167416667Y-78716667D01*
X185057143Y-71842857D02*
X185104762Y-71890476D01*
X185152381Y-72033333D01*
X185152381Y-72128571D01*
X185104762Y-72271429D01*
X185009524Y-72366667D01*
X184914286Y-72414286D01*
X184723810Y-72461905D01*
X184580952Y-72461905D01*
X184390476Y-72414286D01*
X184295238Y-72366667D01*
X184200000Y-72271429D01*
X184152381Y-72128571D01*
X184152381Y-72033333D01*
X184200000Y-71890476D01*
X184247619Y-71842857D01*
X184485714Y-70985714D02*
X185152381Y-70985714D01*
X184104762Y-71223810D02*
X184819048Y-71461905D01*
X184819048Y-70842857D01*
X185152381Y-69938095D02*
X185152381Y-70509524D01*
X185152381Y-70223810D02*
X184152381Y-70223810D01*
X184295238Y-70319048D01*
X184390476Y-70414286D01*
X184438095Y-70509524D01*
X184489048Y-73291429D02*
X185250953Y-73291429D01*
X184870001Y-73672381D02*
X184870001Y-72910476D01*
X169050000Y-80050000D02*
X169083333Y-80083334D01*
X169116667Y-80183334D01*
X169116667Y-80250000D01*
X169083333Y-80350000D01*
X169016667Y-80416667D01*
X168950000Y-80450000D01*
X168816667Y-80483334D01*
X168716667Y-80483334D01*
X168583333Y-80450000D01*
X168516667Y-80416667D01*
X168450000Y-80350000D01*
X168416667Y-80250000D01*
X168416667Y-80183334D01*
X168450000Y-80083334D01*
X168483333Y-80050000D01*
X168650000Y-79450000D02*
X169116667Y-79450000D01*
X168383333Y-79616667D02*
X168883333Y-79783334D01*
X168883333Y-79350000D01*
X168483333Y-79116667D02*
X168450000Y-79083333D01*
X168416667Y-79016667D01*
X168416667Y-78850000D01*
X168450000Y-78783333D01*
X168483333Y-78750000D01*
X168550000Y-78716667D01*
X168616667Y-78716667D01*
X168716667Y-78750000D01*
X169116667Y-79150000D01*
X169116667Y-78716667D01*
X156709524Y-78361905D02*
X156709524Y-77561905D01*
X156900000Y-77561905D01*
X157014286Y-77600000D01*
X157090477Y-77676190D01*
X157128572Y-77752381D01*
X157166667Y-77904762D01*
X157166667Y-78019048D01*
X157128572Y-78171429D01*
X157090477Y-78247619D01*
X157014286Y-78323810D01*
X156900000Y-78361905D01*
X156709524Y-78361905D01*
X157471429Y-77638095D02*
X157509524Y-77600000D01*
X157585715Y-77561905D01*
X157776191Y-77561905D01*
X157852381Y-77600000D01*
X157890477Y-77638095D01*
X157928572Y-77714286D01*
X157928572Y-77790476D01*
X157890477Y-77904762D01*
X157433334Y-78361905D01*
X157928572Y-78361905D01*
X177557143Y-65471429D02*
X177557143Y-64871429D01*
X177700000Y-64871429D01*
X177785715Y-64900000D01*
X177842857Y-64957143D01*
X177871429Y-65014286D01*
X177900000Y-65128571D01*
X177900000Y-65214286D01*
X177871429Y-65328571D01*
X177842857Y-65385714D01*
X177785715Y-65442857D01*
X177700000Y-65471429D01*
X177557143Y-65471429D01*
X178100000Y-64871429D02*
X178471429Y-64871429D01*
X178271429Y-65100000D01*
X178357143Y-65100000D01*
X178414286Y-65128571D01*
X178442857Y-65157143D01*
X178471429Y-65214286D01*
X178471429Y-65357143D01*
X178442857Y-65414286D01*
X178414286Y-65442857D01*
X178357143Y-65471429D01*
X178185715Y-65471429D01*
X178128572Y-65442857D01*
X178100000Y-65414286D01*
X182083334Y-60516667D02*
X182083334Y-59816667D01*
X182250000Y-59816667D01*
X182350000Y-59850000D01*
X182416667Y-59916667D01*
X182450000Y-59983333D01*
X182483334Y-60116667D01*
X182483334Y-60216667D01*
X182450000Y-60350000D01*
X182416667Y-60416667D01*
X182350000Y-60483333D01*
X182250000Y-60516667D01*
X182083334Y-60516667D01*
X183083334Y-59816667D02*
X182950000Y-59816667D01*
X182883334Y-59850000D01*
X182850000Y-59883333D01*
X182783334Y-59983333D01*
X182750000Y-60116667D01*
X182750000Y-60383333D01*
X182783334Y-60450000D01*
X182816667Y-60483333D01*
X182883334Y-60516667D01*
X183016667Y-60516667D01*
X183083334Y-60483333D01*
X183116667Y-60450000D01*
X183150000Y-60383333D01*
X183150000Y-60216667D01*
X183116667Y-60150000D01*
X183083334Y-60116667D01*
X183016667Y-60083333D01*
X182883334Y-60083333D01*
X182816667Y-60116667D01*
X182783334Y-60150000D01*
X182750000Y-60216667D01*
D10*
X181571429Y-55342857D02*
X180971429Y-55342857D01*
X180971429Y-55200000D01*
X181000000Y-55114285D01*
X181057143Y-55057143D01*
X181114286Y-55028571D01*
X181228571Y-55000000D01*
X181314286Y-55000000D01*
X181428571Y-55028571D01*
X181485714Y-55057143D01*
X181542857Y-55114285D01*
X181571429Y-55200000D01*
X181571429Y-55342857D01*
X180971429Y-54800000D02*
X180971429Y-54400000D01*
X181571429Y-54657143D01*
D13*
X178483334Y-60516667D02*
X178483334Y-59816667D01*
X178650000Y-59816667D01*
X178750000Y-59850000D01*
X178816667Y-59916667D01*
X178850000Y-59983333D01*
X178883334Y-60116667D01*
X178883334Y-60216667D01*
X178850000Y-60350000D01*
X178816667Y-60416667D01*
X178750000Y-60483333D01*
X178650000Y-60516667D01*
X178483334Y-60516667D01*
X179283334Y-60116667D02*
X179216667Y-60083333D01*
X179183334Y-60050000D01*
X179150000Y-59983333D01*
X179150000Y-59950000D01*
X179183334Y-59883333D01*
X179216667Y-59850000D01*
X179283334Y-59816667D01*
X179416667Y-59816667D01*
X179483334Y-59850000D01*
X179516667Y-59883333D01*
X179550000Y-59950000D01*
X179550000Y-59983333D01*
X179516667Y-60050000D01*
X179483334Y-60083333D01*
X179416667Y-60116667D01*
X179283334Y-60116667D01*
X179216667Y-60150000D01*
X179183334Y-60183333D01*
X179150000Y-60250000D01*
X179150000Y-60383333D01*
X179183334Y-60450000D01*
X179216667Y-60483333D01*
X179283334Y-60516667D01*
X179416667Y-60516667D01*
X179483334Y-60483333D01*
X179516667Y-60450000D01*
X179550000Y-60383333D01*
X179550000Y-60250000D01*
X179516667Y-60183333D01*
X179483334Y-60150000D01*
X179416667Y-60116667D01*
D10*
X177971429Y-55392857D02*
X177371429Y-55392857D01*
X177371429Y-55250000D01*
X177400000Y-55164285D01*
X177457143Y-55107143D01*
X177514286Y-55078571D01*
X177628571Y-55050000D01*
X177714286Y-55050000D01*
X177828571Y-55078571D01*
X177885714Y-55107143D01*
X177942857Y-55164285D01*
X177971429Y-55250000D01*
X177971429Y-55392857D01*
X177971429Y-54764285D02*
X177971429Y-54650000D01*
X177942857Y-54592857D01*
X177914286Y-54564285D01*
X177828571Y-54507143D01*
X177714286Y-54478571D01*
X177485714Y-54478571D01*
X177428571Y-54507143D01*
X177400000Y-54535714D01*
X177371429Y-54592857D01*
X177371429Y-54707143D01*
X177400000Y-54764285D01*
X177428571Y-54792857D01*
X177485714Y-54821428D01*
X177628571Y-54821428D01*
X177685714Y-54792857D01*
X177714286Y-54764285D01*
X177742857Y-54707143D01*
X177742857Y-54592857D01*
X177714286Y-54535714D01*
X177685714Y-54507143D01*
X177628571Y-54478571D01*
D13*
X174550000Y-60516667D02*
X174550000Y-59816667D01*
X174716666Y-59816667D01*
X174816666Y-59850000D01*
X174883333Y-59916667D01*
X174916666Y-59983333D01*
X174950000Y-60116667D01*
X174950000Y-60216667D01*
X174916666Y-60350000D01*
X174883333Y-60416667D01*
X174816666Y-60483333D01*
X174716666Y-60516667D01*
X174550000Y-60516667D01*
X175616666Y-60516667D02*
X175216666Y-60516667D01*
X175416666Y-60516667D02*
X175416666Y-59816667D01*
X175350000Y-59916667D01*
X175283333Y-59983333D01*
X175216666Y-60016667D01*
X176050000Y-59816667D02*
X176116667Y-59816667D01*
X176183333Y-59850000D01*
X176216667Y-59883333D01*
X176250000Y-59950000D01*
X176283333Y-60083333D01*
X176283333Y-60250000D01*
X176250000Y-60383333D01*
X176216667Y-60450000D01*
X176183333Y-60483333D01*
X176116667Y-60516667D01*
X176050000Y-60516667D01*
X175983333Y-60483333D01*
X175950000Y-60450000D01*
X175916667Y-60383333D01*
X175883333Y-60250000D01*
X175883333Y-60083333D01*
X175916667Y-59950000D01*
X175950000Y-59883333D01*
X175983333Y-59850000D01*
X176050000Y-59816667D01*
D10*
X174321429Y-55428572D02*
X173721429Y-55428572D01*
X173721429Y-55285715D01*
X173750000Y-55200000D01*
X173807143Y-55142858D01*
X173864286Y-55114286D01*
X173978571Y-55085715D01*
X174064286Y-55085715D01*
X174178571Y-55114286D01*
X174235714Y-55142858D01*
X174292857Y-55200000D01*
X174321429Y-55285715D01*
X174321429Y-55428572D01*
X174321429Y-54514286D02*
X174321429Y-54857143D01*
X174321429Y-54685715D02*
X173721429Y-54685715D01*
X173807143Y-54742858D01*
X173864286Y-54800000D01*
X173892857Y-54857143D01*
X174321429Y-53942857D02*
X174321429Y-54285714D01*
X174321429Y-54114286D02*
X173721429Y-54114286D01*
X173807143Y-54171429D01*
X173864286Y-54228571D01*
X173892857Y-54285714D01*
D13*
X170950000Y-60516667D02*
X170950000Y-59816667D01*
X171116666Y-59816667D01*
X171216666Y-59850000D01*
X171283333Y-59916667D01*
X171316666Y-59983333D01*
X171350000Y-60116667D01*
X171350000Y-60216667D01*
X171316666Y-60350000D01*
X171283333Y-60416667D01*
X171216666Y-60483333D01*
X171116666Y-60516667D01*
X170950000Y-60516667D01*
X172016666Y-60516667D02*
X171616666Y-60516667D01*
X171816666Y-60516667D02*
X171816666Y-59816667D01*
X171750000Y-59916667D01*
X171683333Y-59983333D01*
X171616666Y-60016667D01*
X172283333Y-59883333D02*
X172316667Y-59850000D01*
X172383333Y-59816667D01*
X172550000Y-59816667D01*
X172616667Y-59850000D01*
X172650000Y-59883333D01*
X172683333Y-59950000D01*
X172683333Y-60016667D01*
X172650000Y-60116667D01*
X172250000Y-60516667D01*
X172683333Y-60516667D01*
D10*
X170871429Y-55378572D02*
X170271429Y-55378572D01*
X170271429Y-55235715D01*
X170300000Y-55150000D01*
X170357143Y-55092858D01*
X170414286Y-55064286D01*
X170528571Y-55035715D01*
X170614286Y-55035715D01*
X170728571Y-55064286D01*
X170785714Y-55092858D01*
X170842857Y-55150000D01*
X170871429Y-55235715D01*
X170871429Y-55378572D01*
X170871429Y-54464286D02*
X170871429Y-54807143D01*
X170871429Y-54635715D02*
X170271429Y-54635715D01*
X170357143Y-54692858D01*
X170414286Y-54750000D01*
X170442857Y-54807143D01*
X170271429Y-54264286D02*
X170271429Y-53892857D01*
X170500000Y-54092857D01*
X170500000Y-54007143D01*
X170528571Y-53950000D01*
X170557143Y-53921429D01*
X170614286Y-53892857D01*
X170757143Y-53892857D01*
X170814286Y-53921429D01*
X170842857Y-53950000D01*
X170871429Y-54007143D01*
X170871429Y-54178571D01*
X170842857Y-54235714D01*
X170814286Y-54264286D01*
D13*
X167350000Y-60516667D02*
X167350000Y-59816667D01*
X167516666Y-59816667D01*
X167616666Y-59850000D01*
X167683333Y-59916667D01*
X167716666Y-59983333D01*
X167750000Y-60116667D01*
X167750000Y-60216667D01*
X167716666Y-60350000D01*
X167683333Y-60416667D01*
X167616666Y-60483333D01*
X167516666Y-60516667D01*
X167350000Y-60516667D01*
X168416666Y-60516667D02*
X168016666Y-60516667D01*
X168216666Y-60516667D02*
X168216666Y-59816667D01*
X168150000Y-59916667D01*
X168083333Y-59983333D01*
X168016666Y-60016667D01*
X169016667Y-60050000D02*
X169016667Y-60516667D01*
X168850000Y-59783333D02*
X168683333Y-60283333D01*
X169116667Y-60283333D01*
D10*
X167171429Y-55328572D02*
X166571429Y-55328572D01*
X166571429Y-55185715D01*
X166600000Y-55100000D01*
X166657143Y-55042858D01*
X166714286Y-55014286D01*
X166828571Y-54985715D01*
X166914286Y-54985715D01*
X167028571Y-55014286D01*
X167085714Y-55042858D01*
X167142857Y-55100000D01*
X167171429Y-55185715D01*
X167171429Y-55328572D01*
X167171429Y-54414286D02*
X167171429Y-54757143D01*
X167171429Y-54585715D02*
X166571429Y-54585715D01*
X166657143Y-54642858D01*
X166714286Y-54700000D01*
X166742857Y-54757143D01*
X166571429Y-53871429D02*
X166571429Y-54157143D01*
X166857143Y-54185714D01*
X166828571Y-54157143D01*
X166800000Y-54100000D01*
X166800000Y-53957143D01*
X166828571Y-53900000D01*
X166857143Y-53871429D01*
X166914286Y-53842857D01*
X167057143Y-53842857D01*
X167114286Y-53871429D01*
X167142857Y-53900000D01*
X167171429Y-53957143D01*
X167171429Y-54100000D01*
X167142857Y-54157143D01*
X167114286Y-54185714D01*
D13*
X163750000Y-60516667D02*
X163750000Y-59816667D01*
X163916666Y-59816667D01*
X164016666Y-59850000D01*
X164083333Y-59916667D01*
X164116666Y-59983333D01*
X164150000Y-60116667D01*
X164150000Y-60216667D01*
X164116666Y-60350000D01*
X164083333Y-60416667D01*
X164016666Y-60483333D01*
X163916666Y-60516667D01*
X163750000Y-60516667D01*
X164816666Y-60516667D02*
X164416666Y-60516667D01*
X164616666Y-60516667D02*
X164616666Y-59816667D01*
X164550000Y-59916667D01*
X164483333Y-59983333D01*
X164416666Y-60016667D01*
X165416667Y-59816667D02*
X165283333Y-59816667D01*
X165216667Y-59850000D01*
X165183333Y-59883333D01*
X165116667Y-59983333D01*
X165083333Y-60116667D01*
X165083333Y-60383333D01*
X165116667Y-60450000D01*
X165150000Y-60483333D01*
X165216667Y-60516667D01*
X165350000Y-60516667D01*
X165416667Y-60483333D01*
X165450000Y-60450000D01*
X165483333Y-60383333D01*
X165483333Y-60216667D01*
X165450000Y-60150000D01*
X165416667Y-60116667D01*
X165350000Y-60083333D01*
X165216667Y-60083333D01*
X165150000Y-60116667D01*
X165116667Y-60150000D01*
X165083333Y-60216667D01*
D10*
X163571429Y-55328572D02*
X162971429Y-55328572D01*
X162971429Y-55185715D01*
X163000000Y-55100000D01*
X163057143Y-55042858D01*
X163114286Y-55014286D01*
X163228571Y-54985715D01*
X163314286Y-54985715D01*
X163428571Y-55014286D01*
X163485714Y-55042858D01*
X163542857Y-55100000D01*
X163571429Y-55185715D01*
X163571429Y-55328572D01*
X163571429Y-54414286D02*
X163571429Y-54757143D01*
X163571429Y-54585715D02*
X162971429Y-54585715D01*
X163057143Y-54642858D01*
X163114286Y-54700000D01*
X163142857Y-54757143D01*
X162971429Y-54214286D02*
X162971429Y-53814286D01*
X163571429Y-54071429D01*
D13*
X160150000Y-61566667D02*
X160150000Y-60866667D01*
X160316666Y-60866667D01*
X160416666Y-60900000D01*
X160483333Y-60966667D01*
X160516666Y-61033333D01*
X160550000Y-61166667D01*
X160550000Y-61266667D01*
X160516666Y-61400000D01*
X160483333Y-61466667D01*
X160416666Y-61533333D01*
X160316666Y-61566667D01*
X160150000Y-61566667D01*
X161216666Y-61566667D02*
X160816666Y-61566667D01*
X161016666Y-61566667D02*
X161016666Y-60866667D01*
X160950000Y-60966667D01*
X160883333Y-61033333D01*
X160816666Y-61066667D01*
X161616667Y-61166667D02*
X161550000Y-61133333D01*
X161516667Y-61100000D01*
X161483333Y-61033333D01*
X161483333Y-61000000D01*
X161516667Y-60933333D01*
X161550000Y-60900000D01*
X161616667Y-60866667D01*
X161750000Y-60866667D01*
X161816667Y-60900000D01*
X161850000Y-60933333D01*
X161883333Y-61000000D01*
X161883333Y-61033333D01*
X161850000Y-61100000D01*
X161816667Y-61133333D01*
X161750000Y-61166667D01*
X161616667Y-61166667D01*
X161550000Y-61200000D01*
X161516667Y-61233333D01*
X161483333Y-61300000D01*
X161483333Y-61433333D01*
X161516667Y-61500000D01*
X161550000Y-61533333D01*
X161616667Y-61566667D01*
X161750000Y-61566667D01*
X161816667Y-61533333D01*
X161850000Y-61500000D01*
X161883333Y-61433333D01*
X161883333Y-61300000D01*
X161850000Y-61233333D01*
X161816667Y-61200000D01*
X161750000Y-61166667D01*
D10*
X159971429Y-55328572D02*
X159371429Y-55328572D01*
X159371429Y-55185715D01*
X159400000Y-55100000D01*
X159457143Y-55042858D01*
X159514286Y-55014286D01*
X159628571Y-54985715D01*
X159714286Y-54985715D01*
X159828571Y-55014286D01*
X159885714Y-55042858D01*
X159942857Y-55100000D01*
X159971429Y-55185715D01*
X159971429Y-55328572D01*
X159971429Y-54414286D02*
X159971429Y-54757143D01*
X159971429Y-54585715D02*
X159371429Y-54585715D01*
X159457143Y-54642858D01*
X159514286Y-54700000D01*
X159542857Y-54757143D01*
X159971429Y-54128571D02*
X159971429Y-54014286D01*
X159942857Y-53957143D01*
X159914286Y-53928571D01*
X159828571Y-53871429D01*
X159714286Y-53842857D01*
X159485714Y-53842857D01*
X159428571Y-53871429D01*
X159400000Y-53900000D01*
X159371429Y-53957143D01*
X159371429Y-54071429D01*
X159400000Y-54128571D01*
X159428571Y-54157143D01*
X159485714Y-54185714D01*
X159628571Y-54185714D01*
X159685714Y-54157143D01*
X159714286Y-54128571D01*
X159742857Y-54071429D01*
X159742857Y-53957143D01*
X159714286Y-53900000D01*
X159685714Y-53871429D01*
X159628571Y-53842857D01*
D13*
X156600000Y-61516667D02*
X156600000Y-60816667D01*
X156766666Y-60816667D01*
X156866666Y-60850000D01*
X156933333Y-60916667D01*
X156966666Y-60983333D01*
X157000000Y-61116667D01*
X157000000Y-61216667D01*
X156966666Y-61350000D01*
X156933333Y-61416667D01*
X156866666Y-61483333D01*
X156766666Y-61516667D01*
X156600000Y-61516667D01*
X157266666Y-60883333D02*
X157300000Y-60850000D01*
X157366666Y-60816667D01*
X157533333Y-60816667D01*
X157600000Y-60850000D01*
X157633333Y-60883333D01*
X157666666Y-60950000D01*
X157666666Y-61016667D01*
X157633333Y-61116667D01*
X157233333Y-61516667D01*
X157666666Y-61516667D01*
X158100000Y-60816667D02*
X158166667Y-60816667D01*
X158233333Y-60850000D01*
X158266667Y-60883333D01*
X158300000Y-60950000D01*
X158333333Y-61083333D01*
X158333333Y-61250000D01*
X158300000Y-61383333D01*
X158266667Y-61450000D01*
X158233333Y-61483333D01*
X158166667Y-61516667D01*
X158100000Y-61516667D01*
X158033333Y-61483333D01*
X158000000Y-61450000D01*
X157966667Y-61383333D01*
X157933333Y-61250000D01*
X157933333Y-61083333D01*
X157966667Y-60950000D01*
X158000000Y-60883333D01*
X158033333Y-60850000D01*
X158100000Y-60816667D01*
D10*
X156371429Y-55328572D02*
X155771429Y-55328572D01*
X155771429Y-55185715D01*
X155800000Y-55100000D01*
X155857143Y-55042858D01*
X155914286Y-55014286D01*
X156028571Y-54985715D01*
X156114286Y-54985715D01*
X156228571Y-55014286D01*
X156285714Y-55042858D01*
X156342857Y-55100000D01*
X156371429Y-55185715D01*
X156371429Y-55328572D01*
X155828571Y-54757143D02*
X155800000Y-54728572D01*
X155771429Y-54671429D01*
X155771429Y-54528572D01*
X155800000Y-54471429D01*
X155828571Y-54442858D01*
X155885714Y-54414286D01*
X155942857Y-54414286D01*
X156028571Y-54442858D01*
X156371429Y-54785715D01*
X156371429Y-54414286D01*
X156371429Y-53842857D02*
X156371429Y-54185714D01*
X156371429Y-54014286D02*
X155771429Y-54014286D01*
X155857143Y-54071429D01*
X155914286Y-54128571D01*
X155942857Y-54185714D01*
D13*
X153000000Y-61566667D02*
X153000000Y-60866667D01*
X153166666Y-60866667D01*
X153266666Y-60900000D01*
X153333333Y-60966667D01*
X153366666Y-61033333D01*
X153400000Y-61166667D01*
X153400000Y-61266667D01*
X153366666Y-61400000D01*
X153333333Y-61466667D01*
X153266666Y-61533333D01*
X153166666Y-61566667D01*
X153000000Y-61566667D01*
X153666666Y-60933333D02*
X153700000Y-60900000D01*
X153766666Y-60866667D01*
X153933333Y-60866667D01*
X154000000Y-60900000D01*
X154033333Y-60933333D01*
X154066666Y-61000000D01*
X154066666Y-61066667D01*
X154033333Y-61166667D01*
X153633333Y-61566667D01*
X154066666Y-61566667D01*
X154333333Y-60933333D02*
X154366667Y-60900000D01*
X154433333Y-60866667D01*
X154600000Y-60866667D01*
X154666667Y-60900000D01*
X154700000Y-60933333D01*
X154733333Y-61000000D01*
X154733333Y-61066667D01*
X154700000Y-61166667D01*
X154300000Y-61566667D01*
X154733333Y-61566667D01*
D10*
X152771429Y-55328572D02*
X152171429Y-55328572D01*
X152171429Y-55185715D01*
X152200000Y-55100000D01*
X152257143Y-55042858D01*
X152314286Y-55014286D01*
X152428571Y-54985715D01*
X152514286Y-54985715D01*
X152628571Y-55014286D01*
X152685714Y-55042858D01*
X152742857Y-55100000D01*
X152771429Y-55185715D01*
X152771429Y-55328572D01*
X152228571Y-54757143D02*
X152200000Y-54728572D01*
X152171429Y-54671429D01*
X152171429Y-54528572D01*
X152200000Y-54471429D01*
X152228571Y-54442858D01*
X152285714Y-54414286D01*
X152342857Y-54414286D01*
X152428571Y-54442858D01*
X152771429Y-54785715D01*
X152771429Y-54414286D01*
X152171429Y-54214286D02*
X152171429Y-53842857D01*
X152400000Y-54042857D01*
X152400000Y-53957143D01*
X152428571Y-53900000D01*
X152457143Y-53871429D01*
X152514286Y-53842857D01*
X152657143Y-53842857D01*
X152714286Y-53871429D01*
X152742857Y-53900000D01*
X152771429Y-53957143D01*
X152771429Y-54128571D01*
X152742857Y-54185714D01*
X152714286Y-54214286D01*
D13*
X149450000Y-61566667D02*
X149450000Y-60866667D01*
X149616666Y-60866667D01*
X149716666Y-60900000D01*
X149783333Y-60966667D01*
X149816666Y-61033333D01*
X149850000Y-61166667D01*
X149850000Y-61266667D01*
X149816666Y-61400000D01*
X149783333Y-61466667D01*
X149716666Y-61533333D01*
X149616666Y-61566667D01*
X149450000Y-61566667D01*
X150116666Y-60933333D02*
X150150000Y-60900000D01*
X150216666Y-60866667D01*
X150383333Y-60866667D01*
X150450000Y-60900000D01*
X150483333Y-60933333D01*
X150516666Y-61000000D01*
X150516666Y-61066667D01*
X150483333Y-61166667D01*
X150083333Y-61566667D01*
X150516666Y-61566667D01*
X151116667Y-61100000D02*
X151116667Y-61566667D01*
X150950000Y-60833333D02*
X150783333Y-61333333D01*
X151216667Y-61333333D01*
D10*
X149171429Y-55328572D02*
X148571429Y-55328572D01*
X148571429Y-55185715D01*
X148600000Y-55100000D01*
X148657143Y-55042858D01*
X148714286Y-55014286D01*
X148828571Y-54985715D01*
X148914286Y-54985715D01*
X149028571Y-55014286D01*
X149085714Y-55042858D01*
X149142857Y-55100000D01*
X149171429Y-55185715D01*
X149171429Y-55328572D01*
X148628571Y-54757143D02*
X148600000Y-54728572D01*
X148571429Y-54671429D01*
X148571429Y-54528572D01*
X148600000Y-54471429D01*
X148628571Y-54442858D01*
X148685714Y-54414286D01*
X148742857Y-54414286D01*
X148828571Y-54442858D01*
X149171429Y-54785715D01*
X149171429Y-54414286D01*
X148571429Y-53871429D02*
X148571429Y-54157143D01*
X148857143Y-54185714D01*
X148828571Y-54157143D01*
X148800000Y-54100000D01*
X148800000Y-53957143D01*
X148828571Y-53900000D01*
X148857143Y-53871429D01*
X148914286Y-53842857D01*
X149057143Y-53842857D01*
X149114286Y-53871429D01*
X149142857Y-53900000D01*
X149171429Y-53957143D01*
X149171429Y-54100000D01*
X149142857Y-54157143D01*
X149114286Y-54185714D01*
D13*
X148916667Y-63550000D02*
X148216667Y-63550000D01*
X148216667Y-63383334D01*
X148250000Y-63283334D01*
X148316667Y-63216667D01*
X148383333Y-63183334D01*
X148516667Y-63150000D01*
X148616667Y-63150000D01*
X148750000Y-63183334D01*
X148816667Y-63216667D01*
X148883333Y-63283334D01*
X148916667Y-63383334D01*
X148916667Y-63550000D01*
X148283333Y-62883334D02*
X148250000Y-62850000D01*
X148216667Y-62783334D01*
X148216667Y-62616667D01*
X148250000Y-62550000D01*
X148283333Y-62516667D01*
X148350000Y-62483334D01*
X148416667Y-62483334D01*
X148516667Y-62516667D01*
X148916667Y-62916667D01*
X148916667Y-62483334D01*
X148216667Y-61883333D02*
X148216667Y-62016667D01*
X148250000Y-62083333D01*
X148283333Y-62116667D01*
X148383333Y-62183333D01*
X148516667Y-62216667D01*
X148783333Y-62216667D01*
X148850000Y-62183333D01*
X148883333Y-62150000D01*
X148916667Y-62083333D01*
X148916667Y-61950000D01*
X148883333Y-61883333D01*
X148850000Y-61850000D01*
X148783333Y-61816667D01*
X148616667Y-61816667D01*
X148550000Y-61850000D01*
X148516667Y-61883333D01*
X148483333Y-61950000D01*
X148483333Y-62083333D01*
X148516667Y-62150000D01*
X148550000Y-62183333D01*
X148616667Y-62216667D01*
D10*
X144671428Y-57371429D02*
X144671428Y-56771429D01*
X144814285Y-56771429D01*
X144900000Y-56800000D01*
X144957142Y-56857143D01*
X144985714Y-56914286D01*
X145014285Y-57028571D01*
X145014285Y-57114286D01*
X144985714Y-57228571D01*
X144957142Y-57285714D01*
X144900000Y-57342857D01*
X144814285Y-57371429D01*
X144671428Y-57371429D01*
X145242857Y-56828571D02*
X145271428Y-56800000D01*
X145328571Y-56771429D01*
X145471428Y-56771429D01*
X145528571Y-56800000D01*
X145557142Y-56828571D01*
X145585714Y-56885714D01*
X145585714Y-56942857D01*
X145557142Y-57028571D01*
X145214285Y-57371429D01*
X145585714Y-57371429D01*
X145785714Y-56771429D02*
X146185714Y-56771429D01*
X145928571Y-57371429D01*
D13*
X141216667Y-63050000D02*
X140516667Y-63050000D01*
X140516667Y-62883334D01*
X140550000Y-62783334D01*
X140616667Y-62716667D01*
X140683333Y-62683334D01*
X140816667Y-62650000D01*
X140916667Y-62650000D01*
X141050000Y-62683334D01*
X141116667Y-62716667D01*
X141183333Y-62783334D01*
X141216667Y-62883334D01*
X141216667Y-63050000D01*
X140583333Y-62383334D02*
X140550000Y-62350000D01*
X140516667Y-62283334D01*
X140516667Y-62116667D01*
X140550000Y-62050000D01*
X140583333Y-62016667D01*
X140650000Y-61983334D01*
X140716667Y-61983334D01*
X140816667Y-62016667D01*
X141216667Y-62416667D01*
X141216667Y-61983334D01*
X140816667Y-61583333D02*
X140783333Y-61650000D01*
X140750000Y-61683333D01*
X140683333Y-61716667D01*
X140650000Y-61716667D01*
X140583333Y-61683333D01*
X140550000Y-61650000D01*
X140516667Y-61583333D01*
X140516667Y-61450000D01*
X140550000Y-61383333D01*
X140583333Y-61350000D01*
X140650000Y-61316667D01*
X140683333Y-61316667D01*
X140750000Y-61350000D01*
X140783333Y-61383333D01*
X140816667Y-61450000D01*
X140816667Y-61583333D01*
X140850000Y-61650000D01*
X140883333Y-61683333D01*
X140950000Y-61716667D01*
X141083333Y-61716667D01*
X141150000Y-61683333D01*
X141183333Y-61650000D01*
X141216667Y-61583333D01*
X141216667Y-61450000D01*
X141183333Y-61383333D01*
X141150000Y-61350000D01*
X141083333Y-61316667D01*
X140950000Y-61316667D01*
X140883333Y-61350000D01*
X140850000Y-61383333D01*
X140816667Y-61450000D01*
D10*
X141021429Y-59678572D02*
X140421429Y-59678572D01*
X140421429Y-59535715D01*
X140450000Y-59450000D01*
X140507143Y-59392858D01*
X140564286Y-59364286D01*
X140678571Y-59335715D01*
X140764286Y-59335715D01*
X140878571Y-59364286D01*
X140935714Y-59392858D01*
X140992857Y-59450000D01*
X141021429Y-59535715D01*
X141021429Y-59678572D01*
X140478571Y-59107143D02*
X140450000Y-59078572D01*
X140421429Y-59021429D01*
X140421429Y-58878572D01*
X140450000Y-58821429D01*
X140478571Y-58792858D01*
X140535714Y-58764286D01*
X140592857Y-58764286D01*
X140678571Y-58792858D01*
X141021429Y-59135715D01*
X141021429Y-58764286D01*
X141021429Y-58478571D02*
X141021429Y-58364286D01*
X140992857Y-58307143D01*
X140964286Y-58278571D01*
X140878571Y-58221429D01*
X140764286Y-58192857D01*
X140535714Y-58192857D01*
X140478571Y-58221429D01*
X140450000Y-58250000D01*
X140421429Y-58307143D01*
X140421429Y-58421429D01*
X140450000Y-58478571D01*
X140478571Y-58507143D01*
X140535714Y-58535714D01*
X140678571Y-58535714D01*
X140735714Y-58507143D01*
X140764286Y-58478571D01*
X140792857Y-58421429D01*
X140792857Y-58307143D01*
X140764286Y-58250000D01*
X140735714Y-58221429D01*
X140678571Y-58192857D01*
D13*
X179750000Y-68916667D02*
X179750000Y-68216667D01*
X179916666Y-68216667D01*
X180016666Y-68250000D01*
X180083333Y-68316667D01*
X180116666Y-68383333D01*
X180150000Y-68516667D01*
X180150000Y-68616667D01*
X180116666Y-68750000D01*
X180083333Y-68816667D01*
X180016666Y-68883333D01*
X179916666Y-68916667D01*
X179750000Y-68916667D01*
X180383333Y-68216667D02*
X180816666Y-68216667D01*
X180583333Y-68483333D01*
X180683333Y-68483333D01*
X180750000Y-68516667D01*
X180783333Y-68550000D01*
X180816666Y-68616667D01*
X180816666Y-68783333D01*
X180783333Y-68850000D01*
X180750000Y-68883333D01*
X180683333Y-68916667D01*
X180483333Y-68916667D01*
X180416666Y-68883333D01*
X180383333Y-68850000D01*
X181483333Y-68916667D02*
X181083333Y-68916667D01*
X181283333Y-68916667D02*
X181283333Y-68216667D01*
X181216667Y-68316667D01*
X181150000Y-68383333D01*
X181083333Y-68416667D01*
X153466667Y-78702381D02*
X153466667Y-79416667D01*
X153419047Y-79559524D01*
X153323809Y-79654762D01*
X153180952Y-79702381D01*
X153085714Y-79702381D01*
X153895238Y-78797619D02*
X153942857Y-78750000D01*
X154038095Y-78702381D01*
X154276191Y-78702381D01*
X154371429Y-78750000D01*
X154419048Y-78797619D01*
X154466667Y-78892857D01*
X154466667Y-78988095D01*
X154419048Y-79130952D01*
X153847619Y-79702381D01*
X154466667Y-79702381D01*
X181483334Y-62652381D02*
X181007143Y-62652381D01*
X181007143Y-61652381D01*
X182340477Y-62652381D02*
X181769048Y-62652381D01*
X182054762Y-62652381D02*
X182054762Y-61652381D01*
X181959524Y-61795238D01*
X181864286Y-61890476D01*
X181769048Y-61938095D01*
X185100000Y-61171429D02*
X184814286Y-61171429D01*
X184814286Y-60571429D01*
X185557143Y-60771429D02*
X185557143Y-61171429D01*
X185414286Y-60542857D02*
X185271429Y-60971429D01*
X185642857Y-60971429D01*
X157985715Y-79411905D02*
X157604762Y-79411905D01*
X157604762Y-78611905D01*
X158214286Y-79373810D02*
X158328572Y-79411905D01*
X158519048Y-79411905D01*
X158595238Y-79373810D01*
X158633334Y-79335714D01*
X158671429Y-79259524D01*
X158671429Y-79183333D01*
X158633334Y-79107143D01*
X158595238Y-79069048D01*
X158519048Y-79030952D01*
X158366667Y-78992857D01*
X158290476Y-78954762D01*
X158252381Y-78916667D01*
X158214286Y-78840476D01*
X158214286Y-78764286D01*
X158252381Y-78688095D01*
X158290476Y-78650000D01*
X158366667Y-78611905D01*
X158557143Y-78611905D01*
X158671429Y-78650000D01*
X159433334Y-79411905D02*
X158976191Y-79411905D01*
X159204762Y-79411905D02*
X159204762Y-78611905D01*
X159128572Y-78726190D01*
X159052381Y-78802381D01*
X158976191Y-78840476D01*
X164085714Y-75611905D02*
X163819047Y-75230952D01*
X163628571Y-75611905D02*
X163628571Y-74811905D01*
X163933333Y-74811905D01*
X164009524Y-74850000D01*
X164047619Y-74888095D01*
X164085714Y-74964286D01*
X164085714Y-75078571D01*
X164047619Y-75154762D01*
X164009524Y-75192857D01*
X163933333Y-75230952D01*
X163628571Y-75230952D01*
X164847619Y-75611905D02*
X164390476Y-75611905D01*
X164619047Y-75611905D02*
X164619047Y-74811905D01*
X164542857Y-74926190D01*
X164466666Y-75002381D01*
X164390476Y-75040476D01*
X165342857Y-74811905D02*
X165419048Y-74811905D01*
X165495238Y-74850000D01*
X165533333Y-74888095D01*
X165571429Y-74964286D01*
X165609524Y-75116667D01*
X165609524Y-75307143D01*
X165571429Y-75459524D01*
X165533333Y-75535714D01*
X165495238Y-75573810D01*
X165419048Y-75611905D01*
X165342857Y-75611905D01*
X165266667Y-75573810D01*
X165228571Y-75535714D01*
X165190476Y-75459524D01*
X165152381Y-75307143D01*
X165152381Y-75116667D01*
X165190476Y-74964286D01*
X165228571Y-74888095D01*
X165266667Y-74850000D01*
X165342857Y-74811905D01*
X162216667Y-71950000D02*
X161883333Y-72183334D01*
X162216667Y-72350000D02*
X161516667Y-72350000D01*
X161516667Y-72083334D01*
X161550000Y-72016667D01*
X161583333Y-71983334D01*
X161650000Y-71950000D01*
X161750000Y-71950000D01*
X161816667Y-71983334D01*
X161850000Y-72016667D01*
X161883333Y-72083334D01*
X161883333Y-72350000D01*
X162216667Y-71283334D02*
X162216667Y-71683334D01*
X162216667Y-71483334D02*
X161516667Y-71483334D01*
X161616667Y-71550000D01*
X161683333Y-71616667D01*
X161716667Y-71683334D01*
X162216667Y-70616667D02*
X162216667Y-71016667D01*
X162216667Y-70816667D02*
X161516667Y-70816667D01*
X161616667Y-70883333D01*
X161683333Y-70950000D01*
X161716667Y-71016667D01*
X159616667Y-69650000D02*
X159283333Y-69883334D01*
X159616667Y-70050000D02*
X158916667Y-70050000D01*
X158916667Y-69783334D01*
X158950000Y-69716667D01*
X158983333Y-69683334D01*
X159050000Y-69650000D01*
X159150000Y-69650000D01*
X159216667Y-69683334D01*
X159250000Y-69716667D01*
X159283333Y-69783334D01*
X159283333Y-70050000D01*
X159616667Y-68983334D02*
X159616667Y-69383334D01*
X159616667Y-69183334D02*
X158916667Y-69183334D01*
X159016667Y-69250000D01*
X159083333Y-69316667D01*
X159116667Y-69383334D01*
X158983333Y-68716667D02*
X158950000Y-68683333D01*
X158916667Y-68616667D01*
X158916667Y-68450000D01*
X158950000Y-68383333D01*
X158983333Y-68350000D01*
X159050000Y-68316667D01*
X159116667Y-68316667D01*
X159216667Y-68350000D01*
X159616667Y-68750000D01*
X159616667Y-68316667D01*
X159750000Y-76616667D02*
X159516666Y-76283333D01*
X159350000Y-76616667D02*
X159350000Y-75916667D01*
X159616666Y-75916667D01*
X159683333Y-75950000D01*
X159716666Y-75983333D01*
X159750000Y-76050000D01*
X159750000Y-76150000D01*
X159716666Y-76216667D01*
X159683333Y-76250000D01*
X159616666Y-76283333D01*
X159350000Y-76283333D01*
X160416666Y-76616667D02*
X160016666Y-76616667D01*
X160216666Y-76616667D02*
X160216666Y-75916667D01*
X160150000Y-76016667D01*
X160083333Y-76083333D01*
X160016666Y-76116667D01*
X161050000Y-75916667D02*
X160716667Y-75916667D01*
X160683333Y-76250000D01*
X160716667Y-76216667D01*
X160783333Y-76183333D01*
X160950000Y-76183333D01*
X161016667Y-76216667D01*
X161050000Y-76250000D01*
X161083333Y-76316667D01*
X161083333Y-76483333D01*
X161050000Y-76550000D01*
X161016667Y-76583333D01*
X160950000Y-76616667D01*
X160783333Y-76616667D01*
X160716667Y-76583333D01*
X160683333Y-76550000D01*
X176950000Y-69816667D02*
X176716666Y-69483333D01*
X176550000Y-69816667D02*
X176550000Y-69116667D01*
X176816666Y-69116667D01*
X176883333Y-69150000D01*
X176916666Y-69183333D01*
X176950000Y-69250000D01*
X176950000Y-69350000D01*
X176916666Y-69416667D01*
X176883333Y-69450000D01*
X176816666Y-69483333D01*
X176550000Y-69483333D01*
X177616666Y-69816667D02*
X177216666Y-69816667D01*
X177416666Y-69816667D02*
X177416666Y-69116667D01*
X177350000Y-69216667D01*
X177283333Y-69283333D01*
X177216666Y-69316667D01*
X178016667Y-69416667D02*
X177950000Y-69383333D01*
X177916667Y-69350000D01*
X177883333Y-69283333D01*
X177883333Y-69250000D01*
X177916667Y-69183333D01*
X177950000Y-69150000D01*
X178016667Y-69116667D01*
X178150000Y-69116667D01*
X178216667Y-69150000D01*
X178250000Y-69183333D01*
X178283333Y-69250000D01*
X178283333Y-69283333D01*
X178250000Y-69350000D01*
X178216667Y-69383333D01*
X178150000Y-69416667D01*
X178016667Y-69416667D01*
X177950000Y-69450000D01*
X177916667Y-69483333D01*
X177883333Y-69550000D01*
X177883333Y-69683333D01*
X177916667Y-69750000D01*
X177950000Y-69783333D01*
X178016667Y-69816667D01*
X178150000Y-69816667D01*
X178216667Y-69783333D01*
X178250000Y-69750000D01*
X178283333Y-69683333D01*
X178283333Y-69550000D01*
X178250000Y-69483333D01*
X178216667Y-69450000D01*
X178150000Y-69416667D01*
X171414285Y-70971429D02*
X171214285Y-70685714D01*
X171071428Y-70971429D02*
X171071428Y-70371429D01*
X171300000Y-70371429D01*
X171357142Y-70400000D01*
X171385714Y-70428571D01*
X171414285Y-70485714D01*
X171414285Y-70571429D01*
X171385714Y-70628571D01*
X171357142Y-70657143D01*
X171300000Y-70685714D01*
X171071428Y-70685714D01*
X171928571Y-70371429D02*
X171814285Y-70371429D01*
X171757142Y-70400000D01*
X171728571Y-70428571D01*
X171671428Y-70514286D01*
X171642857Y-70628571D01*
X171642857Y-70857143D01*
X171671428Y-70914286D01*
X171700000Y-70942857D01*
X171757142Y-70971429D01*
X171871428Y-70971429D01*
X171928571Y-70942857D01*
X171957142Y-70914286D01*
X171985714Y-70857143D01*
X171985714Y-70714286D01*
X171957142Y-70657143D01*
X171928571Y-70628571D01*
X171871428Y-70600000D01*
X171757142Y-70600000D01*
X171700000Y-70628571D01*
X171671428Y-70657143D01*
X171642857Y-70714286D01*
X172328571Y-70628571D02*
X172271429Y-70600000D01*
X172242857Y-70571429D01*
X172214286Y-70514286D01*
X172214286Y-70485714D01*
X172242857Y-70428571D01*
X172271429Y-70400000D01*
X172328571Y-70371429D01*
X172442857Y-70371429D01*
X172500000Y-70400000D01*
X172528571Y-70428571D01*
X172557143Y-70485714D01*
X172557143Y-70514286D01*
X172528571Y-70571429D01*
X172500000Y-70600000D01*
X172442857Y-70628571D01*
X172328571Y-70628571D01*
X172271429Y-70657143D01*
X172242857Y-70685714D01*
X172214286Y-70742857D01*
X172214286Y-70857143D01*
X172242857Y-70914286D01*
X172271429Y-70942857D01*
X172328571Y-70971429D01*
X172442857Y-70971429D01*
X172500000Y-70942857D01*
X172528571Y-70914286D01*
X172557143Y-70857143D01*
X172557143Y-70742857D01*
X172528571Y-70685714D01*
X172500000Y-70657143D01*
X172442857Y-70628571D01*
X179100001Y-69116667D02*
X179500001Y-69116667D01*
X179300001Y-69816667D02*
X179300001Y-69116667D01*
X179733334Y-69816667D02*
X179733334Y-69116667D01*
X179733334Y-69450000D02*
X180133334Y-69450000D01*
X180133334Y-69816667D02*
X180133334Y-69116667D01*
X180433333Y-69183333D02*
X180466667Y-69150000D01*
X180533333Y-69116667D01*
X180700000Y-69116667D01*
X180766667Y-69150000D01*
X180800000Y-69183333D01*
X180833333Y-69250000D01*
X180833333Y-69316667D01*
X180800000Y-69416667D01*
X180400000Y-69816667D01*
X180833333Y-69816667D01*
X166500000Y-84442857D02*
X166585714Y-84471429D01*
X166728571Y-84471429D01*
X166785714Y-84442857D01*
X166814285Y-84414286D01*
X166842857Y-84357143D01*
X166842857Y-84300000D01*
X166814285Y-84242857D01*
X166785714Y-84214286D01*
X166728571Y-84185714D01*
X166614285Y-84157143D01*
X166557143Y-84128571D01*
X166528571Y-84100000D01*
X166500000Y-84042857D01*
X166500000Y-83985714D01*
X166528571Y-83928571D01*
X166557143Y-83900000D01*
X166614285Y-83871429D01*
X166757143Y-83871429D01*
X166842857Y-83900000D01*
X167042857Y-83871429D02*
X167185714Y-84471429D01*
X167300000Y-84042857D01*
X167414286Y-84471429D01*
X167557143Y-83871429D01*
X168100000Y-84471429D02*
X167757143Y-84471429D01*
X167928571Y-84471429D02*
X167928571Y-83871429D01*
X167871428Y-83957143D01*
X167814286Y-84014286D01*
X167757143Y-84042857D01*
X166500000Y-78042857D02*
X166585714Y-78071429D01*
X166728571Y-78071429D01*
X166785714Y-78042857D01*
X166814285Y-78014286D01*
X166842857Y-77957143D01*
X166842857Y-77900000D01*
X166814285Y-77842857D01*
X166785714Y-77814286D01*
X166728571Y-77785714D01*
X166614285Y-77757143D01*
X166557143Y-77728571D01*
X166528571Y-77700000D01*
X166500000Y-77642857D01*
X166500000Y-77585714D01*
X166528571Y-77528571D01*
X166557143Y-77500000D01*
X166614285Y-77471429D01*
X166757143Y-77471429D01*
X166842857Y-77500000D01*
X167042857Y-77471429D02*
X167185714Y-78071429D01*
X167300000Y-77642857D01*
X167414286Y-78071429D01*
X167557143Y-77471429D01*
X167757143Y-77528571D02*
X167785714Y-77500000D01*
X167842857Y-77471429D01*
X167985714Y-77471429D01*
X168042857Y-77500000D01*
X168071428Y-77528571D01*
X168100000Y-77585714D01*
X168100000Y-77642857D01*
X168071428Y-77728571D01*
X167728571Y-78071429D01*
X168100000Y-78071429D01*
X170033334Y-71402381D02*
X169557143Y-71402381D01*
X169557143Y-70402381D01*
X170842858Y-70402381D02*
X170366667Y-70402381D01*
X170319048Y-70878571D01*
X170366667Y-70830952D01*
X170461905Y-70783333D01*
X170700001Y-70783333D01*
X170795239Y-70830952D01*
X170842858Y-70878571D01*
X170890477Y-70973810D01*
X170890477Y-71211905D01*
X170842858Y-71307143D01*
X170795239Y-71354762D01*
X170700001Y-71402381D01*
X170461905Y-71402381D01*
X170366667Y-71354762D01*
X170319048Y-71307143D01*
X156728571Y-77161905D02*
X156728571Y-76361905D01*
X156919047Y-76361905D01*
X157033333Y-76400000D01*
X157109524Y-76476190D01*
X157147619Y-76552381D01*
X157185714Y-76704762D01*
X157185714Y-76819048D01*
X157147619Y-76971429D01*
X157109524Y-77047619D01*
X157033333Y-77123810D01*
X156919047Y-77161905D01*
X156728571Y-77161905D01*
X157452381Y-76361905D02*
X157947619Y-76361905D01*
X157680952Y-76666667D01*
X157795238Y-76666667D01*
X157871428Y-76704762D01*
X157909524Y-76742857D01*
X157947619Y-76819048D01*
X157947619Y-77009524D01*
X157909524Y-77085714D01*
X157871428Y-77123810D01*
X157795238Y-77161905D01*
X157566666Y-77161905D01*
X157490476Y-77123810D01*
X157452381Y-77085714D01*
X158633333Y-76628571D02*
X158633333Y-77161905D01*
X158442857Y-76323810D02*
X158252381Y-76895238D01*
X158747619Y-76895238D01*
X198052381Y-59033333D02*
X198766667Y-59033333D01*
X198909524Y-59080953D01*
X199004762Y-59176191D01*
X199052381Y-59319048D01*
X199052381Y-59414286D01*
X199052381Y-58033333D02*
X199052381Y-58604762D01*
X199052381Y-58319048D02*
X198052381Y-58319048D01*
X198195238Y-58414286D01*
X198290476Y-58509524D01*
X198338095Y-58604762D01*
X176552381Y-68261905D02*
X177361905Y-68261905D01*
X177457143Y-68214286D01*
X177504762Y-68166667D01*
X177552381Y-68071429D01*
X177552381Y-67880952D01*
X177504762Y-67785714D01*
X177457143Y-67738095D01*
X177361905Y-67690476D01*
X176552381Y-67690476D01*
X176552381Y-67309524D02*
X176552381Y-66690476D01*
X176933333Y-67023810D01*
X176933333Y-66880952D01*
X176980952Y-66785714D01*
X177028571Y-66738095D01*
X177123810Y-66690476D01*
X177361905Y-66690476D01*
X177457143Y-66738095D01*
X177504762Y-66785714D01*
X177552381Y-66880952D01*
X177552381Y-67166667D01*
X177504762Y-67261905D01*
X177457143Y-67309524D01*
X150966667Y-64452381D02*
X150966667Y-65166667D01*
X150919047Y-65309524D01*
X150823809Y-65404762D01*
X150680952Y-65452381D01*
X150585714Y-65452381D01*
X151871429Y-64785714D02*
X151871429Y-65452381D01*
X151633333Y-64404762D02*
X151395238Y-65119048D01*
X152014286Y-65119048D01*
X151066667Y-72152381D02*
X151066667Y-72866667D01*
X151019047Y-73009524D01*
X150923809Y-73104762D01*
X150780952Y-73152381D01*
X150685714Y-73152381D01*
X152019048Y-72152381D02*
X151542857Y-72152381D01*
X151495238Y-72628571D01*
X151542857Y-72580952D01*
X151638095Y-72533333D01*
X151876191Y-72533333D01*
X151971429Y-72580952D01*
X152019048Y-72628571D01*
X152066667Y-72723810D01*
X152066667Y-72961905D01*
X152019048Y-73057143D01*
X151971429Y-73104762D01*
X151876191Y-73152381D01*
X151638095Y-73152381D01*
X151542857Y-73104762D01*
X151495238Y-73057143D01*
D10*
X183614285Y-55671429D02*
X183414285Y-55385714D01*
X183271428Y-55671429D02*
X183271428Y-55071429D01*
X183500000Y-55071429D01*
X183557142Y-55100000D01*
X183585714Y-55128571D01*
X183614285Y-55185714D01*
X183614285Y-55271429D01*
X183585714Y-55328571D01*
X183557142Y-55357143D01*
X183500000Y-55385714D01*
X183271428Y-55385714D01*
X183842857Y-55128571D02*
X183871428Y-55100000D01*
X183928571Y-55071429D01*
X184071428Y-55071429D01*
X184128571Y-55100000D01*
X184157142Y-55128571D01*
X184185714Y-55185714D01*
X184185714Y-55242857D01*
X184157142Y-55328571D01*
X183814285Y-55671429D01*
X184185714Y-55671429D01*
X184528571Y-55328571D02*
X184471429Y-55300000D01*
X184442857Y-55271429D01*
X184414286Y-55214286D01*
X184414286Y-55185714D01*
X184442857Y-55128571D01*
X184471429Y-55100000D01*
X184528571Y-55071429D01*
X184642857Y-55071429D01*
X184700000Y-55100000D01*
X184728571Y-55128571D01*
X184757143Y-55185714D01*
X184757143Y-55214286D01*
X184728571Y-55271429D01*
X184700000Y-55300000D01*
X184642857Y-55328571D01*
X184528571Y-55328571D01*
X184471429Y-55357143D01*
X184442857Y-55385714D01*
X184414286Y-55442857D01*
X184414286Y-55557143D01*
X184442857Y-55614286D01*
X184471429Y-55642857D01*
X184528571Y-55671429D01*
X184642857Y-55671429D01*
X184700000Y-55642857D01*
X184728571Y-55614286D01*
X184757143Y-55557143D01*
X184757143Y-55442857D01*
X184728571Y-55385714D01*
X184700000Y-55357143D01*
X184642857Y-55328571D01*
X182771429Y-54885715D02*
X182485714Y-55085715D01*
X182771429Y-55228572D02*
X182171429Y-55228572D01*
X182171429Y-55000000D01*
X182200000Y-54942858D01*
X182228571Y-54914286D01*
X182285714Y-54885715D01*
X182371429Y-54885715D01*
X182428571Y-54914286D01*
X182457143Y-54942858D01*
X182485714Y-55000000D01*
X182485714Y-55228572D01*
X182171429Y-54685715D02*
X182171429Y-54314286D01*
X182400000Y-54514286D01*
X182400000Y-54428572D01*
X182428571Y-54371429D01*
X182457143Y-54342858D01*
X182514286Y-54314286D01*
X182657143Y-54314286D01*
X182714286Y-54342858D01*
X182742857Y-54371429D01*
X182771429Y-54428572D01*
X182771429Y-54600000D01*
X182742857Y-54657143D01*
X182714286Y-54685715D01*
X182171429Y-53942857D02*
X182171429Y-53885714D01*
X182200000Y-53828571D01*
X182228571Y-53800000D01*
X182285714Y-53771429D01*
X182400000Y-53742857D01*
X182542857Y-53742857D01*
X182657143Y-53771429D01*
X182714286Y-53800000D01*
X182742857Y-53828571D01*
X182771429Y-53885714D01*
X182771429Y-53942857D01*
X182742857Y-54000000D01*
X182714286Y-54028571D01*
X182657143Y-54057143D01*
X182542857Y-54085714D01*
X182400000Y-54085714D01*
X182285714Y-54057143D01*
X182228571Y-54028571D01*
X182200000Y-54000000D01*
X182171429Y-53942857D01*
X180371429Y-55385715D02*
X180085714Y-55585715D01*
X180371429Y-55728572D02*
X179771429Y-55728572D01*
X179771429Y-55500000D01*
X179800000Y-55442858D01*
X179828571Y-55414286D01*
X179885714Y-55385715D01*
X179971429Y-55385715D01*
X180028571Y-55414286D01*
X180057143Y-55442858D01*
X180085714Y-55500000D01*
X180085714Y-55728572D01*
X179771429Y-55185715D02*
X179771429Y-54814286D01*
X180000000Y-55014286D01*
X180000000Y-54928572D01*
X180028571Y-54871429D01*
X180057143Y-54842858D01*
X180114286Y-54814286D01*
X180257143Y-54814286D01*
X180314286Y-54842858D01*
X180342857Y-54871429D01*
X180371429Y-54928572D01*
X180371429Y-55100000D01*
X180342857Y-55157143D01*
X180314286Y-55185715D01*
X180371429Y-54242857D02*
X180371429Y-54585714D01*
X180371429Y-54414286D02*
X179771429Y-54414286D01*
X179857143Y-54471429D01*
X179914286Y-54528571D01*
X179942857Y-54585714D01*
X178514285Y-54671429D02*
X178314285Y-54385714D01*
X178171428Y-54671429D02*
X178171428Y-54071429D01*
X178400000Y-54071429D01*
X178457142Y-54100000D01*
X178485714Y-54128571D01*
X178514285Y-54185714D01*
X178514285Y-54271429D01*
X178485714Y-54328571D01*
X178457142Y-54357143D01*
X178400000Y-54385714D01*
X178171428Y-54385714D01*
X178714285Y-54071429D02*
X179085714Y-54071429D01*
X178885714Y-54300000D01*
X178971428Y-54300000D01*
X179028571Y-54328571D01*
X179057142Y-54357143D01*
X179085714Y-54414286D01*
X179085714Y-54557143D01*
X179057142Y-54614286D01*
X179028571Y-54642857D01*
X178971428Y-54671429D01*
X178800000Y-54671429D01*
X178742857Y-54642857D01*
X178714285Y-54614286D01*
X179285714Y-54071429D02*
X179657143Y-54071429D01*
X179457143Y-54300000D01*
X179542857Y-54300000D01*
X179600000Y-54328571D01*
X179628571Y-54357143D01*
X179657143Y-54414286D01*
X179657143Y-54557143D01*
X179628571Y-54614286D01*
X179600000Y-54642857D01*
X179542857Y-54671429D01*
X179371429Y-54671429D01*
X179314286Y-54642857D01*
X179285714Y-54614286D01*
X176771429Y-55385715D02*
X176485714Y-55585715D01*
X176771429Y-55728572D02*
X176171429Y-55728572D01*
X176171429Y-55500000D01*
X176200000Y-55442858D01*
X176228571Y-55414286D01*
X176285714Y-55385715D01*
X176371429Y-55385715D01*
X176428571Y-55414286D01*
X176457143Y-55442858D01*
X176485714Y-55500000D01*
X176485714Y-55728572D01*
X176171429Y-55185715D02*
X176171429Y-54814286D01*
X176400000Y-55014286D01*
X176400000Y-54928572D01*
X176428571Y-54871429D01*
X176457143Y-54842858D01*
X176514286Y-54814286D01*
X176657143Y-54814286D01*
X176714286Y-54842858D01*
X176742857Y-54871429D01*
X176771429Y-54928572D01*
X176771429Y-55100000D01*
X176742857Y-55157143D01*
X176714286Y-55185715D01*
X176371429Y-54300000D02*
X176771429Y-54300000D01*
X176142857Y-54442857D02*
X176571429Y-54585714D01*
X176571429Y-54214286D01*
X175571429Y-54885715D02*
X175285714Y-55085715D01*
X175571429Y-55228572D02*
X174971429Y-55228572D01*
X174971429Y-55000000D01*
X175000000Y-54942858D01*
X175028571Y-54914286D01*
X175085714Y-54885715D01*
X175171429Y-54885715D01*
X175228571Y-54914286D01*
X175257143Y-54942858D01*
X175285714Y-55000000D01*
X175285714Y-55228572D01*
X174971429Y-54685715D02*
X174971429Y-54314286D01*
X175200000Y-54514286D01*
X175200000Y-54428572D01*
X175228571Y-54371429D01*
X175257143Y-54342858D01*
X175314286Y-54314286D01*
X175457143Y-54314286D01*
X175514286Y-54342858D01*
X175542857Y-54371429D01*
X175571429Y-54428572D01*
X175571429Y-54600000D01*
X175542857Y-54657143D01*
X175514286Y-54685715D01*
X174971429Y-53800000D02*
X174971429Y-53914286D01*
X175000000Y-53971429D01*
X175028571Y-54000000D01*
X175114286Y-54057143D01*
X175228571Y-54085714D01*
X175457143Y-54085714D01*
X175514286Y-54057143D01*
X175542857Y-54028571D01*
X175571429Y-53971429D01*
X175571429Y-53857143D01*
X175542857Y-53800000D01*
X175514286Y-53771429D01*
X175457143Y-53742857D01*
X175314286Y-53742857D01*
X175257143Y-53771429D01*
X175228571Y-53800000D01*
X175200000Y-53857143D01*
X175200000Y-53971429D01*
X175228571Y-54028571D01*
X175257143Y-54057143D01*
X175314286Y-54085714D01*
X173171429Y-55385715D02*
X172885714Y-55585715D01*
X173171429Y-55728572D02*
X172571429Y-55728572D01*
X172571429Y-55500000D01*
X172600000Y-55442858D01*
X172628571Y-55414286D01*
X172685714Y-55385715D01*
X172771429Y-55385715D01*
X172828571Y-55414286D01*
X172857143Y-55442858D01*
X172885714Y-55500000D01*
X172885714Y-55728572D01*
X172571429Y-55185715D02*
X172571429Y-54814286D01*
X172800000Y-55014286D01*
X172800000Y-54928572D01*
X172828571Y-54871429D01*
X172857143Y-54842858D01*
X172914286Y-54814286D01*
X173057143Y-54814286D01*
X173114286Y-54842858D01*
X173142857Y-54871429D01*
X173171429Y-54928572D01*
X173171429Y-55100000D01*
X173142857Y-55157143D01*
X173114286Y-55185715D01*
X172571429Y-54614286D02*
X172571429Y-54214286D01*
X173171429Y-54471429D01*
X171971429Y-54885715D02*
X171685714Y-55085715D01*
X171971429Y-55228572D02*
X171371429Y-55228572D01*
X171371429Y-55000000D01*
X171400000Y-54942858D01*
X171428571Y-54914286D01*
X171485714Y-54885715D01*
X171571429Y-54885715D01*
X171628571Y-54914286D01*
X171657143Y-54942858D01*
X171685714Y-55000000D01*
X171685714Y-55228572D01*
X171371429Y-54685715D02*
X171371429Y-54314286D01*
X171600000Y-54514286D01*
X171600000Y-54428572D01*
X171628571Y-54371429D01*
X171657143Y-54342858D01*
X171714286Y-54314286D01*
X171857143Y-54314286D01*
X171914286Y-54342858D01*
X171942857Y-54371429D01*
X171971429Y-54428572D01*
X171971429Y-54600000D01*
X171942857Y-54657143D01*
X171914286Y-54685715D01*
X171971429Y-54028571D02*
X171971429Y-53914286D01*
X171942857Y-53857143D01*
X171914286Y-53828571D01*
X171828571Y-53771429D01*
X171714286Y-53742857D01*
X171485714Y-53742857D01*
X171428571Y-53771429D01*
X171400000Y-53800000D01*
X171371429Y-53857143D01*
X171371429Y-53971429D01*
X171400000Y-54028571D01*
X171428571Y-54057143D01*
X171485714Y-54085714D01*
X171628571Y-54085714D01*
X171685714Y-54057143D01*
X171714286Y-54028571D01*
X171742857Y-53971429D01*
X171742857Y-53857143D01*
X171714286Y-53800000D01*
X171685714Y-53771429D01*
X171628571Y-53742857D01*
X169571429Y-55385715D02*
X169285714Y-55585715D01*
X169571429Y-55728572D02*
X168971429Y-55728572D01*
X168971429Y-55500000D01*
X169000000Y-55442858D01*
X169028571Y-55414286D01*
X169085714Y-55385715D01*
X169171429Y-55385715D01*
X169228571Y-55414286D01*
X169257143Y-55442858D01*
X169285714Y-55500000D01*
X169285714Y-55728572D01*
X169171429Y-54871429D02*
X169571429Y-54871429D01*
X168942857Y-55014286D02*
X169371429Y-55157143D01*
X169371429Y-54785715D01*
X168971429Y-54442857D02*
X168971429Y-54385714D01*
X169000000Y-54328571D01*
X169028571Y-54300000D01*
X169085714Y-54271429D01*
X169200000Y-54242857D01*
X169342857Y-54242857D01*
X169457143Y-54271429D01*
X169514286Y-54300000D01*
X169542857Y-54328571D01*
X169571429Y-54385714D01*
X169571429Y-54442857D01*
X169542857Y-54500000D01*
X169514286Y-54528571D01*
X169457143Y-54557143D01*
X169342857Y-54585714D01*
X169200000Y-54585714D01*
X169085714Y-54557143D01*
X169028571Y-54528571D01*
X169000000Y-54500000D01*
X168971429Y-54442857D01*
X168371429Y-54885715D02*
X168085714Y-55085715D01*
X168371429Y-55228572D02*
X167771429Y-55228572D01*
X167771429Y-55000000D01*
X167800000Y-54942858D01*
X167828571Y-54914286D01*
X167885714Y-54885715D01*
X167971429Y-54885715D01*
X168028571Y-54914286D01*
X168057143Y-54942858D01*
X168085714Y-55000000D01*
X168085714Y-55228572D01*
X167971429Y-54371429D02*
X168371429Y-54371429D01*
X167742857Y-54514286D02*
X168171429Y-54657143D01*
X168171429Y-54285715D01*
X167828571Y-54085714D02*
X167800000Y-54057143D01*
X167771429Y-54000000D01*
X167771429Y-53857143D01*
X167800000Y-53800000D01*
X167828571Y-53771429D01*
X167885714Y-53742857D01*
X167942857Y-53742857D01*
X168028571Y-53771429D01*
X168371429Y-54114286D01*
X168371429Y-53742857D01*
X165971429Y-55385715D02*
X165685714Y-55585715D01*
X165971429Y-55728572D02*
X165371429Y-55728572D01*
X165371429Y-55500000D01*
X165400000Y-55442858D01*
X165428571Y-55414286D01*
X165485714Y-55385715D01*
X165571429Y-55385715D01*
X165628571Y-55414286D01*
X165657143Y-55442858D01*
X165685714Y-55500000D01*
X165685714Y-55728572D01*
X165571429Y-54871429D02*
X165971429Y-54871429D01*
X165342857Y-55014286D02*
X165771429Y-55157143D01*
X165771429Y-54785715D01*
X165371429Y-54614286D02*
X165371429Y-54242857D01*
X165600000Y-54442857D01*
X165600000Y-54357143D01*
X165628571Y-54300000D01*
X165657143Y-54271429D01*
X165714286Y-54242857D01*
X165857143Y-54242857D01*
X165914286Y-54271429D01*
X165942857Y-54300000D01*
X165971429Y-54357143D01*
X165971429Y-54528571D01*
X165942857Y-54585714D01*
X165914286Y-54614286D01*
X164771429Y-54885715D02*
X164485714Y-55085715D01*
X164771429Y-55228572D02*
X164171429Y-55228572D01*
X164171429Y-55000000D01*
X164200000Y-54942858D01*
X164228571Y-54914286D01*
X164285714Y-54885715D01*
X164371429Y-54885715D01*
X164428571Y-54914286D01*
X164457143Y-54942858D01*
X164485714Y-55000000D01*
X164485714Y-55228572D01*
X164371429Y-54371429D02*
X164771429Y-54371429D01*
X164142857Y-54514286D02*
X164571429Y-54657143D01*
X164571429Y-54285715D01*
X164171429Y-53771429D02*
X164171429Y-54057143D01*
X164457143Y-54085714D01*
X164428571Y-54057143D01*
X164400000Y-54000000D01*
X164400000Y-53857143D01*
X164428571Y-53800000D01*
X164457143Y-53771429D01*
X164514286Y-53742857D01*
X164657143Y-53742857D01*
X164714286Y-53771429D01*
X164742857Y-53800000D01*
X164771429Y-53857143D01*
X164771429Y-54000000D01*
X164742857Y-54057143D01*
X164714286Y-54085714D01*
X162371429Y-55385715D02*
X162085714Y-55585715D01*
X162371429Y-55728572D02*
X161771429Y-55728572D01*
X161771429Y-55500000D01*
X161800000Y-55442858D01*
X161828571Y-55414286D01*
X161885714Y-55385715D01*
X161971429Y-55385715D01*
X162028571Y-55414286D01*
X162057143Y-55442858D01*
X162085714Y-55500000D01*
X162085714Y-55728572D01*
X161971429Y-54871429D02*
X162371429Y-54871429D01*
X161742857Y-55014286D02*
X162171429Y-55157143D01*
X162171429Y-54785715D01*
X161771429Y-54300000D02*
X161771429Y-54414286D01*
X161800000Y-54471429D01*
X161828571Y-54500000D01*
X161914286Y-54557143D01*
X162028571Y-54585714D01*
X162257143Y-54585714D01*
X162314286Y-54557143D01*
X162342857Y-54528571D01*
X162371429Y-54471429D01*
X162371429Y-54357143D01*
X162342857Y-54300000D01*
X162314286Y-54271429D01*
X162257143Y-54242857D01*
X162114286Y-54242857D01*
X162057143Y-54271429D01*
X162028571Y-54300000D01*
X162000000Y-54357143D01*
X162000000Y-54471429D01*
X162028571Y-54528571D01*
X162057143Y-54557143D01*
X162114286Y-54585714D01*
X161171429Y-54885715D02*
X160885714Y-55085715D01*
X161171429Y-55228572D02*
X160571429Y-55228572D01*
X160571429Y-55000000D01*
X160600000Y-54942858D01*
X160628571Y-54914286D01*
X160685714Y-54885715D01*
X160771429Y-54885715D01*
X160828571Y-54914286D01*
X160857143Y-54942858D01*
X160885714Y-55000000D01*
X160885714Y-55228572D01*
X160771429Y-54371429D02*
X161171429Y-54371429D01*
X160542857Y-54514286D02*
X160971429Y-54657143D01*
X160971429Y-54285715D01*
X160828571Y-53971429D02*
X160800000Y-54028571D01*
X160771429Y-54057143D01*
X160714286Y-54085714D01*
X160685714Y-54085714D01*
X160628571Y-54057143D01*
X160600000Y-54028571D01*
X160571429Y-53971429D01*
X160571429Y-53857143D01*
X160600000Y-53800000D01*
X160628571Y-53771429D01*
X160685714Y-53742857D01*
X160714286Y-53742857D01*
X160771429Y-53771429D01*
X160800000Y-53800000D01*
X160828571Y-53857143D01*
X160828571Y-53971429D01*
X160857143Y-54028571D01*
X160885714Y-54057143D01*
X160942857Y-54085714D01*
X161057143Y-54085714D01*
X161114286Y-54057143D01*
X161142857Y-54028571D01*
X161171429Y-53971429D01*
X161171429Y-53857143D01*
X161142857Y-53800000D01*
X161114286Y-53771429D01*
X161057143Y-53742857D01*
X160942857Y-53742857D01*
X160885714Y-53771429D01*
X160857143Y-53800000D01*
X160828571Y-53857143D01*
X158771429Y-55385715D02*
X158485714Y-55585715D01*
X158771429Y-55728572D02*
X158171429Y-55728572D01*
X158171429Y-55500000D01*
X158200000Y-55442858D01*
X158228571Y-55414286D01*
X158285714Y-55385715D01*
X158371429Y-55385715D01*
X158428571Y-55414286D01*
X158457143Y-55442858D01*
X158485714Y-55500000D01*
X158485714Y-55728572D01*
X158371429Y-54871429D02*
X158771429Y-54871429D01*
X158142857Y-55014286D02*
X158571429Y-55157143D01*
X158571429Y-54785715D01*
X158771429Y-54528571D02*
X158771429Y-54414286D01*
X158742857Y-54357143D01*
X158714286Y-54328571D01*
X158628571Y-54271429D01*
X158514286Y-54242857D01*
X158285714Y-54242857D01*
X158228571Y-54271429D01*
X158200000Y-54300000D01*
X158171429Y-54357143D01*
X158171429Y-54471429D01*
X158200000Y-54528571D01*
X158228571Y-54557143D01*
X158285714Y-54585714D01*
X158428571Y-54585714D01*
X158485714Y-54557143D01*
X158514286Y-54528571D01*
X158542857Y-54471429D01*
X158542857Y-54357143D01*
X158514286Y-54300000D01*
X158485714Y-54271429D01*
X158428571Y-54242857D01*
X157571429Y-54885715D02*
X157285714Y-55085715D01*
X157571429Y-55228572D02*
X156971429Y-55228572D01*
X156971429Y-55000000D01*
X157000000Y-54942858D01*
X157028571Y-54914286D01*
X157085714Y-54885715D01*
X157171429Y-54885715D01*
X157228571Y-54914286D01*
X157257143Y-54942858D01*
X157285714Y-55000000D01*
X157285714Y-55228572D01*
X156971429Y-54342858D02*
X156971429Y-54628572D01*
X157257143Y-54657143D01*
X157228571Y-54628572D01*
X157200000Y-54571429D01*
X157200000Y-54428572D01*
X157228571Y-54371429D01*
X157257143Y-54342858D01*
X157314286Y-54314286D01*
X157457143Y-54314286D01*
X157514286Y-54342858D01*
X157542857Y-54371429D01*
X157571429Y-54428572D01*
X157571429Y-54571429D01*
X157542857Y-54628572D01*
X157514286Y-54657143D01*
X157571429Y-53742857D02*
X157571429Y-54085714D01*
X157571429Y-53914286D02*
X156971429Y-53914286D01*
X157057143Y-53971429D01*
X157114286Y-54028571D01*
X157142857Y-54085714D01*
X155171429Y-55385715D02*
X154885714Y-55585715D01*
X155171429Y-55728572D02*
X154571429Y-55728572D01*
X154571429Y-55500000D01*
X154600000Y-55442858D01*
X154628571Y-55414286D01*
X154685714Y-55385715D01*
X154771429Y-55385715D01*
X154828571Y-55414286D01*
X154857143Y-55442858D01*
X154885714Y-55500000D01*
X154885714Y-55728572D01*
X154571429Y-54842858D02*
X154571429Y-55128572D01*
X154857143Y-55157143D01*
X154828571Y-55128572D01*
X154800000Y-55071429D01*
X154800000Y-54928572D01*
X154828571Y-54871429D01*
X154857143Y-54842858D01*
X154914286Y-54814286D01*
X155057143Y-54814286D01*
X155114286Y-54842858D01*
X155142857Y-54871429D01*
X155171429Y-54928572D01*
X155171429Y-55071429D01*
X155142857Y-55128572D01*
X155114286Y-55157143D01*
X154628571Y-54585714D02*
X154600000Y-54557143D01*
X154571429Y-54500000D01*
X154571429Y-54357143D01*
X154600000Y-54300000D01*
X154628571Y-54271429D01*
X154685714Y-54242857D01*
X154742857Y-54242857D01*
X154828571Y-54271429D01*
X155171429Y-54614286D01*
X155171429Y-54242857D01*
X153971429Y-54885715D02*
X153685714Y-55085715D01*
X153971429Y-55228572D02*
X153371429Y-55228572D01*
X153371429Y-55000000D01*
X153400000Y-54942858D01*
X153428571Y-54914286D01*
X153485714Y-54885715D01*
X153571429Y-54885715D01*
X153628571Y-54914286D01*
X153657143Y-54942858D01*
X153685714Y-55000000D01*
X153685714Y-55228572D01*
X153371429Y-54342858D02*
X153371429Y-54628572D01*
X153657143Y-54657143D01*
X153628571Y-54628572D01*
X153600000Y-54571429D01*
X153600000Y-54428572D01*
X153628571Y-54371429D01*
X153657143Y-54342858D01*
X153714286Y-54314286D01*
X153857143Y-54314286D01*
X153914286Y-54342858D01*
X153942857Y-54371429D01*
X153971429Y-54428572D01*
X153971429Y-54571429D01*
X153942857Y-54628572D01*
X153914286Y-54657143D01*
X153571429Y-53800000D02*
X153971429Y-53800000D01*
X153342857Y-53942857D02*
X153771429Y-54085714D01*
X153771429Y-53714286D01*
X151571429Y-55385715D02*
X151285714Y-55585715D01*
X151571429Y-55728572D02*
X150971429Y-55728572D01*
X150971429Y-55500000D01*
X151000000Y-55442858D01*
X151028571Y-55414286D01*
X151085714Y-55385715D01*
X151171429Y-55385715D01*
X151228571Y-55414286D01*
X151257143Y-55442858D01*
X151285714Y-55500000D01*
X151285714Y-55728572D01*
X150971429Y-54842858D02*
X150971429Y-55128572D01*
X151257143Y-55157143D01*
X151228571Y-55128572D01*
X151200000Y-55071429D01*
X151200000Y-54928572D01*
X151228571Y-54871429D01*
X151257143Y-54842858D01*
X151314286Y-54814286D01*
X151457143Y-54814286D01*
X151514286Y-54842858D01*
X151542857Y-54871429D01*
X151571429Y-54928572D01*
X151571429Y-55071429D01*
X151542857Y-55128572D01*
X151514286Y-55157143D01*
X150971429Y-54271429D02*
X150971429Y-54557143D01*
X151257143Y-54585714D01*
X151228571Y-54557143D01*
X151200000Y-54500000D01*
X151200000Y-54357143D01*
X151228571Y-54300000D01*
X151257143Y-54271429D01*
X151314286Y-54242857D01*
X151457143Y-54242857D01*
X151514286Y-54271429D01*
X151542857Y-54300000D01*
X151571429Y-54357143D01*
X151571429Y-54500000D01*
X151542857Y-54557143D01*
X151514286Y-54585714D01*
X150471429Y-54885715D02*
X150185714Y-55085715D01*
X150471429Y-55228572D02*
X149871429Y-55228572D01*
X149871429Y-55000000D01*
X149900000Y-54942858D01*
X149928571Y-54914286D01*
X149985714Y-54885715D01*
X150071429Y-54885715D01*
X150128571Y-54914286D01*
X150157143Y-54942858D01*
X150185714Y-55000000D01*
X150185714Y-55228572D01*
X149871429Y-54342858D02*
X149871429Y-54628572D01*
X150157143Y-54657143D01*
X150128571Y-54628572D01*
X150100000Y-54571429D01*
X150100000Y-54428572D01*
X150128571Y-54371429D01*
X150157143Y-54342858D01*
X150214286Y-54314286D01*
X150357143Y-54314286D01*
X150414286Y-54342858D01*
X150442857Y-54371429D01*
X150471429Y-54428572D01*
X150471429Y-54571429D01*
X150442857Y-54628572D01*
X150414286Y-54657143D01*
X149871429Y-54114286D02*
X149871429Y-53714286D01*
X150471429Y-53971429D01*
X147971429Y-57685715D02*
X147685714Y-57885715D01*
X147971429Y-58028572D02*
X147371429Y-58028572D01*
X147371429Y-57800000D01*
X147400000Y-57742858D01*
X147428571Y-57714286D01*
X147485714Y-57685715D01*
X147571429Y-57685715D01*
X147628571Y-57714286D01*
X147657143Y-57742858D01*
X147685714Y-57800000D01*
X147685714Y-58028572D01*
X147371429Y-57142858D02*
X147371429Y-57428572D01*
X147657143Y-57457143D01*
X147628571Y-57428572D01*
X147600000Y-57371429D01*
X147600000Y-57228572D01*
X147628571Y-57171429D01*
X147657143Y-57142858D01*
X147714286Y-57114286D01*
X147857143Y-57114286D01*
X147914286Y-57142858D01*
X147942857Y-57171429D01*
X147971429Y-57228572D01*
X147971429Y-57371429D01*
X147942857Y-57428572D01*
X147914286Y-57457143D01*
X147628571Y-56771429D02*
X147600000Y-56828571D01*
X147571429Y-56857143D01*
X147514286Y-56885714D01*
X147485714Y-56885714D01*
X147428571Y-56857143D01*
X147400000Y-56828571D01*
X147371429Y-56771429D01*
X147371429Y-56657143D01*
X147400000Y-56600000D01*
X147428571Y-56571429D01*
X147485714Y-56542857D01*
X147514286Y-56542857D01*
X147571429Y-56571429D01*
X147600000Y-56600000D01*
X147628571Y-56657143D01*
X147628571Y-56771429D01*
X147657143Y-56828571D01*
X147685714Y-56857143D01*
X147742857Y-56885714D01*
X147857143Y-56885714D01*
X147914286Y-56857143D01*
X147942857Y-56828571D01*
X147971429Y-56771429D01*
X147971429Y-56657143D01*
X147942857Y-56600000D01*
X147914286Y-56571429D01*
X147857143Y-56542857D01*
X147742857Y-56542857D01*
X147685714Y-56571429D01*
X147657143Y-56600000D01*
X147628571Y-56657143D01*
X146871429Y-57085715D02*
X146585714Y-57285715D01*
X146871429Y-57428572D02*
X146271429Y-57428572D01*
X146271429Y-57200000D01*
X146300000Y-57142858D01*
X146328571Y-57114286D01*
X146385714Y-57085715D01*
X146471429Y-57085715D01*
X146528571Y-57114286D01*
X146557143Y-57142858D01*
X146585714Y-57200000D01*
X146585714Y-57428572D01*
X146271429Y-56571429D02*
X146271429Y-56685715D01*
X146300000Y-56742858D01*
X146328571Y-56771429D01*
X146414286Y-56828572D01*
X146528571Y-56857143D01*
X146757143Y-56857143D01*
X146814286Y-56828572D01*
X146842857Y-56800000D01*
X146871429Y-56742858D01*
X146871429Y-56628572D01*
X146842857Y-56571429D01*
X146814286Y-56542858D01*
X146757143Y-56514286D01*
X146614286Y-56514286D01*
X146557143Y-56542858D01*
X146528571Y-56571429D01*
X146500000Y-56628572D01*
X146500000Y-56742858D01*
X146528571Y-56800000D01*
X146557143Y-56828572D01*
X146614286Y-56857143D01*
X146271429Y-56142857D02*
X146271429Y-56085714D01*
X146300000Y-56028571D01*
X146328571Y-56000000D01*
X146385714Y-55971429D01*
X146500000Y-55942857D01*
X146642857Y-55942857D01*
X146757143Y-55971429D01*
X146814286Y-56000000D01*
X146842857Y-56028571D01*
X146871429Y-56085714D01*
X146871429Y-56142857D01*
X146842857Y-56200000D01*
X146814286Y-56228571D01*
X146757143Y-56257143D01*
X146642857Y-56285714D01*
X146500000Y-56285714D01*
X146385714Y-56257143D01*
X146328571Y-56228571D01*
X146300000Y-56200000D01*
X146271429Y-56142857D01*
X144371429Y-57785715D02*
X144085714Y-57985715D01*
X144371429Y-58128572D02*
X143771429Y-58128572D01*
X143771429Y-57900000D01*
X143800000Y-57842858D01*
X143828571Y-57814286D01*
X143885714Y-57785715D01*
X143971429Y-57785715D01*
X144028571Y-57814286D01*
X144057143Y-57842858D01*
X144085714Y-57900000D01*
X144085714Y-58128572D01*
X143771429Y-57271429D02*
X143771429Y-57385715D01*
X143800000Y-57442858D01*
X143828571Y-57471429D01*
X143914286Y-57528572D01*
X144028571Y-57557143D01*
X144257143Y-57557143D01*
X144314286Y-57528572D01*
X144342857Y-57500000D01*
X144371429Y-57442858D01*
X144371429Y-57328572D01*
X144342857Y-57271429D01*
X144314286Y-57242858D01*
X144257143Y-57214286D01*
X144114286Y-57214286D01*
X144057143Y-57242858D01*
X144028571Y-57271429D01*
X144000000Y-57328572D01*
X144000000Y-57442858D01*
X144028571Y-57500000D01*
X144057143Y-57528572D01*
X144114286Y-57557143D01*
X144371429Y-56642857D02*
X144371429Y-56985714D01*
X144371429Y-56814286D02*
X143771429Y-56814286D01*
X143857143Y-56871429D01*
X143914286Y-56928571D01*
X143942857Y-56985714D01*
X142514285Y-57471429D02*
X142314285Y-57185714D01*
X142171428Y-57471429D02*
X142171428Y-56871429D01*
X142400000Y-56871429D01*
X142457142Y-56900000D01*
X142485714Y-56928571D01*
X142514285Y-56985714D01*
X142514285Y-57071429D01*
X142485714Y-57128571D01*
X142457142Y-57157143D01*
X142400000Y-57185714D01*
X142171428Y-57185714D01*
X143028571Y-56871429D02*
X142914285Y-56871429D01*
X142857142Y-56900000D01*
X142828571Y-56928571D01*
X142771428Y-57014286D01*
X142742857Y-57128571D01*
X142742857Y-57357143D01*
X142771428Y-57414286D01*
X142800000Y-57442857D01*
X142857142Y-57471429D01*
X142971428Y-57471429D01*
X143028571Y-57442857D01*
X143057142Y-57414286D01*
X143085714Y-57357143D01*
X143085714Y-57214286D01*
X143057142Y-57157143D01*
X143028571Y-57128571D01*
X142971428Y-57100000D01*
X142857142Y-57100000D01*
X142800000Y-57128571D01*
X142771428Y-57157143D01*
X142742857Y-57214286D01*
X143285714Y-56871429D02*
X143657143Y-56871429D01*
X143457143Y-57100000D01*
X143542857Y-57100000D01*
X143600000Y-57128571D01*
X143628571Y-57157143D01*
X143657143Y-57214286D01*
X143657143Y-57357143D01*
X143628571Y-57414286D01*
X143600000Y-57442857D01*
X143542857Y-57471429D01*
X143371429Y-57471429D01*
X143314286Y-57442857D01*
X143285714Y-57414286D01*
D13*
X185485714Y-75414286D02*
X185523810Y-75452381D01*
X185561905Y-75566667D01*
X185561905Y-75642857D01*
X185523810Y-75757143D01*
X185447619Y-75833334D01*
X185371429Y-75871429D01*
X185219048Y-75909524D01*
X185104762Y-75909524D01*
X184952381Y-75871429D01*
X184876190Y-75833334D01*
X184800000Y-75757143D01*
X184761905Y-75642857D01*
X184761905Y-75566667D01*
X184800000Y-75452381D01*
X184838095Y-75414286D01*
X185028571Y-74728572D02*
X185561905Y-74728572D01*
X184723810Y-74919048D02*
X185295238Y-75109524D01*
X185295238Y-74614286D01*
X184761905Y-74157143D02*
X184761905Y-74080952D01*
X184800000Y-74004762D01*
X184838095Y-73966667D01*
X184914286Y-73928571D01*
X185066667Y-73890476D01*
X185257143Y-73890476D01*
X185409524Y-73928571D01*
X185485714Y-73966667D01*
X185523810Y-74004762D01*
X185561905Y-74080952D01*
X185561905Y-74157143D01*
X185523810Y-74233333D01*
X185485714Y-74271429D01*
X185409524Y-74309524D01*
X185257143Y-74347619D01*
X185066667Y-74347619D01*
X184914286Y-74309524D01*
X184838095Y-74271429D01*
X184800000Y-74233333D01*
X184761905Y-74157143D01*
X184439048Y-79981429D02*
X185200953Y-79981429D01*
X184820001Y-80362381D02*
X184820001Y-79600476D01*
X158052381Y-75033333D02*
X158766667Y-75033333D01*
X158909524Y-75080953D01*
X159004762Y-75176191D01*
X159052381Y-75319048D01*
X159052381Y-75414286D01*
X158052381Y-74652381D02*
X158052381Y-74033333D01*
X158433333Y-74366667D01*
X158433333Y-74223809D01*
X158480952Y-74128571D01*
X158528571Y-74080952D01*
X158623810Y-74033333D01*
X158861905Y-74033333D01*
X158957143Y-74080952D01*
X159004762Y-74128571D01*
X159052381Y-74223809D01*
X159052381Y-74509524D01*
X159004762Y-74604762D01*
X158957143Y-74652381D01*
X167357143Y-71057143D02*
X167309524Y-71104762D01*
X167166667Y-71152381D01*
X167071429Y-71152381D01*
X166928571Y-71104762D01*
X166833333Y-71009524D01*
X166785714Y-70914286D01*
X166738095Y-70723810D01*
X166738095Y-70580952D01*
X166785714Y-70390476D01*
X166833333Y-70295238D01*
X166928571Y-70200000D01*
X167071429Y-70152381D01*
X167166667Y-70152381D01*
X167309524Y-70200000D01*
X167357143Y-70247619D01*
X168214286Y-70485714D02*
X168214286Y-71152381D01*
X167976190Y-70104762D02*
X167738095Y-70819048D01*
X168357143Y-70819048D01*
X168642857Y-70152381D02*
X169309524Y-70152381D01*
X168880952Y-71152381D01*
M02*
