G04 #@! TF.FileFunction,Legend,Bot*
%FSLAX46Y46*%
G04 Gerber Fmt 4.6, Leading zero omitted, Abs format (unit mm)*
G04 Created by KiCad (PCBNEW 4.0.7) date 02/25/18 23:04:30*
%MOMM*%
%LPD*%
G01*
G04 APERTURE LIST*
%ADD10C,0.100000*%
%ADD11C,0.200000*%
%ADD12C,0.120000*%
%ADD13C,0.150000*%
G04 APERTURE END LIST*
D10*
D11*
X180719048Y-52728571D02*
X181480953Y-52728571D01*
X181100001Y-52347619D02*
X181100001Y-53109524D01*
X147019048Y-52828571D02*
X147780953Y-52828571D01*
X179390476Y-51452381D02*
X179961905Y-51452381D01*
X179676191Y-51452381D02*
X179676191Y-50452381D01*
X179771429Y-50595238D01*
X179866667Y-50690476D01*
X179961905Y-50738095D01*
X179009524Y-50547619D02*
X178961905Y-50500000D01*
X178866667Y-50452381D01*
X178628571Y-50452381D01*
X178533333Y-50500000D01*
X178485714Y-50547619D01*
X178438095Y-50642857D01*
X178438095Y-50738095D01*
X178485714Y-50880952D01*
X179057143Y-51452381D01*
X178438095Y-51452381D01*
X176890476Y-55052381D02*
X177461905Y-55052381D01*
X177176191Y-55052381D02*
X177176191Y-54052381D01*
X177271429Y-54195238D01*
X177366667Y-54290476D01*
X177461905Y-54338095D01*
X175938095Y-55052381D02*
X176509524Y-55052381D01*
X176223810Y-55052381D02*
X176223810Y-54052381D01*
X176319048Y-54195238D01*
X176414286Y-54290476D01*
X176509524Y-54338095D01*
X174390476Y-51452381D02*
X174961905Y-51452381D01*
X174676191Y-51452381D02*
X174676191Y-50452381D01*
X174771429Y-50595238D01*
X174866667Y-50690476D01*
X174961905Y-50738095D01*
X173771429Y-50452381D02*
X173676190Y-50452381D01*
X173580952Y-50500000D01*
X173533333Y-50547619D01*
X173485714Y-50642857D01*
X173438095Y-50833333D01*
X173438095Y-51071429D01*
X173485714Y-51261905D01*
X173533333Y-51357143D01*
X173580952Y-51404762D01*
X173676190Y-51452381D01*
X173771429Y-51452381D01*
X173866667Y-51404762D01*
X173914286Y-51357143D01*
X173961905Y-51261905D01*
X174009524Y-51071429D01*
X174009524Y-50833333D01*
X173961905Y-50642857D01*
X173914286Y-50547619D01*
X173866667Y-50500000D01*
X173771429Y-50452381D01*
X171890476Y-55052381D02*
X171700000Y-55052381D01*
X171604761Y-55004762D01*
X171557142Y-54957143D01*
X171461904Y-54814286D01*
X171414285Y-54623810D01*
X171414285Y-54242857D01*
X171461904Y-54147619D01*
X171509523Y-54100000D01*
X171604761Y-54052381D01*
X171795238Y-54052381D01*
X171890476Y-54100000D01*
X171938095Y-54147619D01*
X171985714Y-54242857D01*
X171985714Y-54480952D01*
X171938095Y-54576190D01*
X171890476Y-54623810D01*
X171795238Y-54671429D01*
X171604761Y-54671429D01*
X171509523Y-54623810D01*
X171461904Y-54576190D01*
X171414285Y-54480952D01*
X169295238Y-50880952D02*
X169390476Y-50833333D01*
X169438095Y-50785714D01*
X169485714Y-50690476D01*
X169485714Y-50642857D01*
X169438095Y-50547619D01*
X169390476Y-50500000D01*
X169295238Y-50452381D01*
X169104761Y-50452381D01*
X169009523Y-50500000D01*
X168961904Y-50547619D01*
X168914285Y-50642857D01*
X168914285Y-50690476D01*
X168961904Y-50785714D01*
X169009523Y-50833333D01*
X169104761Y-50880952D01*
X169295238Y-50880952D01*
X169390476Y-50928571D01*
X169438095Y-50976190D01*
X169485714Y-51071429D01*
X169485714Y-51261905D01*
X169438095Y-51357143D01*
X169390476Y-51404762D01*
X169295238Y-51452381D01*
X169104761Y-51452381D01*
X169009523Y-51404762D01*
X168961904Y-51357143D01*
X168914285Y-51261905D01*
X168914285Y-51071429D01*
X168961904Y-50976190D01*
X169009523Y-50928571D01*
X169104761Y-50880952D01*
X167033333Y-54052381D02*
X166366666Y-54052381D01*
X166795238Y-55052381D01*
X164009523Y-50452381D02*
X164200000Y-50452381D01*
X164295238Y-50500000D01*
X164342857Y-50547619D01*
X164438095Y-50690476D01*
X164485714Y-50880952D01*
X164485714Y-51261905D01*
X164438095Y-51357143D01*
X164390476Y-51404762D01*
X164295238Y-51452381D01*
X164104761Y-51452381D01*
X164009523Y-51404762D01*
X163961904Y-51357143D01*
X163914285Y-51261905D01*
X163914285Y-51023810D01*
X163961904Y-50928571D01*
X164009523Y-50880952D01*
X164104761Y-50833333D01*
X164295238Y-50833333D01*
X164390476Y-50880952D01*
X164438095Y-50928571D01*
X164485714Y-51023810D01*
X161461904Y-54052381D02*
X161938095Y-54052381D01*
X161985714Y-54528571D01*
X161938095Y-54480952D01*
X161842857Y-54433333D01*
X161604761Y-54433333D01*
X161509523Y-54480952D01*
X161461904Y-54528571D01*
X161414285Y-54623810D01*
X161414285Y-54861905D01*
X161461904Y-54957143D01*
X161509523Y-55004762D01*
X161604761Y-55052381D01*
X161842857Y-55052381D01*
X161938095Y-55004762D01*
X161985714Y-54957143D01*
X159009523Y-50785714D02*
X159009523Y-51452381D01*
X159247619Y-50404762D02*
X159485714Y-51119048D01*
X158866666Y-51119048D01*
X157033333Y-54052381D02*
X156414285Y-54052381D01*
X156747619Y-54433333D01*
X156604761Y-54433333D01*
X156509523Y-54480952D01*
X156461904Y-54528571D01*
X156414285Y-54623810D01*
X156414285Y-54861905D01*
X156461904Y-54957143D01*
X156509523Y-55004762D01*
X156604761Y-55052381D01*
X156890476Y-55052381D01*
X156985714Y-55004762D01*
X157033333Y-54957143D01*
X154485714Y-50547619D02*
X154438095Y-50500000D01*
X154342857Y-50452381D01*
X154104761Y-50452381D01*
X154009523Y-50500000D01*
X153961904Y-50547619D01*
X153914285Y-50642857D01*
X153914285Y-50738095D01*
X153961904Y-50880952D01*
X154533333Y-51452381D01*
X153914285Y-51452381D01*
X151414285Y-55052381D02*
X151985714Y-55052381D01*
X151700000Y-55052381D02*
X151700000Y-54052381D01*
X151795238Y-54195238D01*
X151890476Y-54290476D01*
X151985714Y-54338095D01*
X149152381Y-51547619D02*
X149247620Y-51547619D01*
X149342858Y-51500000D01*
X149390477Y-51452381D01*
X149438096Y-51357143D01*
X149485715Y-51166667D01*
X149485715Y-50928571D01*
X149438096Y-50738095D01*
X149390477Y-50642857D01*
X149342858Y-50595238D01*
X149247620Y-50547619D01*
X149152381Y-50547619D01*
X149057143Y-50595238D01*
X149009524Y-50642857D01*
X148961905Y-50738095D01*
X148914286Y-50928571D01*
X148914286Y-51166667D01*
X148961905Y-51357143D01*
X149009524Y-51452381D01*
X149057143Y-51500000D01*
X149152381Y-51547619D01*
X191761904Y-78900000D02*
X191857142Y-78852381D01*
X191999999Y-78852381D01*
X192142857Y-78900000D01*
X192238095Y-78995238D01*
X192285714Y-79090476D01*
X192333333Y-79280952D01*
X192333333Y-79423810D01*
X192285714Y-79614286D01*
X192238095Y-79709524D01*
X192142857Y-79804762D01*
X191999999Y-79852381D01*
X191904761Y-79852381D01*
X191761904Y-79804762D01*
X191714285Y-79757143D01*
X191714285Y-79423810D01*
X191904761Y-79423810D01*
X191285714Y-79852381D02*
X191285714Y-78852381D01*
X190714285Y-79852381D01*
X190714285Y-78852381D01*
X190238095Y-79852381D02*
X190238095Y-78852381D01*
X190000000Y-78852381D01*
X189857142Y-78900000D01*
X189761904Y-78995238D01*
X189714285Y-79090476D01*
X189666666Y-79280952D01*
X189666666Y-79423810D01*
X189714285Y-79614286D01*
X189761904Y-79709524D01*
X189857142Y-79804762D01*
X190000000Y-79852381D01*
X190238095Y-79852381D01*
X196428571Y-80057143D02*
X196476190Y-80200000D01*
X196523810Y-80247619D01*
X196619048Y-80295238D01*
X196761905Y-80295238D01*
X196857143Y-80247619D01*
X196904762Y-80200000D01*
X196952381Y-80104762D01*
X196952381Y-79723809D01*
X195952381Y-79723809D01*
X195952381Y-80057143D01*
X196000000Y-80152381D01*
X196047619Y-80200000D01*
X196142857Y-80247619D01*
X196238095Y-80247619D01*
X196333333Y-80200000D01*
X196380952Y-80152381D01*
X196428571Y-80057143D01*
X196428571Y-79723809D01*
X196952381Y-80866666D02*
X196904762Y-80771428D01*
X196857143Y-80723809D01*
X196761905Y-80676190D01*
X196476190Y-80676190D01*
X196380952Y-80723809D01*
X196333333Y-80771428D01*
X196285714Y-80866666D01*
X196285714Y-81009524D01*
X196333333Y-81104762D01*
X196380952Y-81152381D01*
X196476190Y-81200000D01*
X196761905Y-81200000D01*
X196857143Y-81152381D01*
X196904762Y-81104762D01*
X196952381Y-81009524D01*
X196952381Y-80866666D01*
X196952381Y-81771428D02*
X196904762Y-81676190D01*
X196857143Y-81628571D01*
X196761905Y-81580952D01*
X196476190Y-81580952D01*
X196380952Y-81628571D01*
X196333333Y-81676190D01*
X196285714Y-81771428D01*
X196285714Y-81914286D01*
X196333333Y-82009524D01*
X196380952Y-82057143D01*
X196476190Y-82104762D01*
X196761905Y-82104762D01*
X196857143Y-82057143D01*
X196904762Y-82009524D01*
X196952381Y-81914286D01*
X196952381Y-81771428D01*
X196904762Y-82485714D02*
X196952381Y-82580952D01*
X196952381Y-82771428D01*
X196904762Y-82866667D01*
X196809524Y-82914286D01*
X196761905Y-82914286D01*
X196666667Y-82866667D01*
X196619048Y-82771428D01*
X196619048Y-82628571D01*
X196571429Y-82533333D01*
X196476190Y-82485714D01*
X196428571Y-82485714D01*
X196333333Y-82533333D01*
X196285714Y-82628571D01*
X196285714Y-82771428D01*
X196333333Y-82866667D01*
X196285714Y-83200000D02*
X196285714Y-83580952D01*
X195952381Y-83342857D02*
X196809524Y-83342857D01*
X196904762Y-83390476D01*
X196952381Y-83485714D01*
X196952381Y-83580952D01*
X196571429Y-83914286D02*
X196571429Y-84676191D01*
X196952381Y-84295239D02*
X196190476Y-84295239D01*
X185628571Y-80933334D02*
X185676190Y-81076191D01*
X185723810Y-81123810D01*
X185819048Y-81171429D01*
X185961905Y-81171429D01*
X186057143Y-81123810D01*
X186104762Y-81076191D01*
X186152381Y-80980953D01*
X186152381Y-80600000D01*
X185152381Y-80600000D01*
X185152381Y-80933334D01*
X185200000Y-81028572D01*
X185247619Y-81076191D01*
X185342857Y-81123810D01*
X185438095Y-81123810D01*
X185533333Y-81076191D01*
X185580952Y-81028572D01*
X185628571Y-80933334D01*
X185628571Y-80600000D01*
X185485714Y-82028572D02*
X186152381Y-82028572D01*
X185485714Y-81600000D02*
X186009524Y-81600000D01*
X186104762Y-81647619D01*
X186152381Y-81742857D01*
X186152381Y-81885715D01*
X186104762Y-81980953D01*
X186057143Y-82028572D01*
X186152381Y-82647619D02*
X186104762Y-82552381D01*
X186009524Y-82504762D01*
X185152381Y-82504762D01*
X186152381Y-83028572D02*
X185152381Y-83028572D01*
X185771429Y-83123810D02*
X186152381Y-83409525D01*
X185485714Y-83409525D02*
X185866667Y-83028572D01*
X185771429Y-83838096D02*
X185771429Y-84600001D01*
X186152381Y-84219049D02*
X185390476Y-84219049D01*
X199571429Y-76323810D02*
X199495239Y-76361905D01*
X199342858Y-76361905D01*
X199266667Y-76323810D01*
X199228572Y-76247619D01*
X199228572Y-76209524D01*
X199266667Y-76133333D01*
X199342858Y-76095238D01*
X199457143Y-76095238D01*
X199533334Y-76057143D01*
X199571429Y-75980952D01*
X199571429Y-75942857D01*
X199533334Y-75866667D01*
X199457143Y-75828571D01*
X199342858Y-75828571D01*
X199266667Y-75866667D01*
X198885715Y-76361905D02*
X198885715Y-75828571D01*
X198885715Y-75561905D02*
X198923810Y-75600000D01*
X198885715Y-75638095D01*
X198847620Y-75600000D01*
X198885715Y-75561905D01*
X198885715Y-75638095D01*
X198504763Y-76361905D02*
X198504763Y-75828571D01*
X198504763Y-75904762D02*
X198466668Y-75866667D01*
X198390477Y-75828571D01*
X198276191Y-75828571D01*
X198200001Y-75866667D01*
X198161906Y-75942857D01*
X198161906Y-76361905D01*
X198161906Y-75942857D02*
X198123810Y-75866667D01*
X198047620Y-75828571D01*
X197933334Y-75828571D01*
X197857144Y-75866667D01*
X197819049Y-75942857D01*
X197819049Y-76361905D01*
X197323810Y-76361905D02*
X197400001Y-76323810D01*
X197438096Y-76285714D01*
X197476191Y-76209524D01*
X197476191Y-75980952D01*
X197438096Y-75904762D01*
X197400001Y-75866667D01*
X197323810Y-75828571D01*
X197209524Y-75828571D01*
X197133334Y-75866667D01*
X197095239Y-75904762D01*
X197057143Y-75980952D01*
X197057143Y-76209524D01*
X197095239Y-76285714D01*
X197133334Y-76323810D01*
X197209524Y-76361905D01*
X197323810Y-76361905D01*
X196142857Y-76323810D02*
X196066667Y-76361905D01*
X195914286Y-76361905D01*
X195838095Y-76323810D01*
X195800000Y-76247619D01*
X195800000Y-76209524D01*
X195838095Y-76133333D01*
X195914286Y-76095238D01*
X196028571Y-76095238D01*
X196104762Y-76057143D01*
X196142857Y-75980952D01*
X196142857Y-75942857D01*
X196104762Y-75866667D01*
X196028571Y-75828571D01*
X195914286Y-75828571D01*
X195838095Y-75866667D01*
X195457143Y-76361905D02*
X195457143Y-75828571D01*
X195457143Y-75561905D02*
X195495238Y-75600000D01*
X195457143Y-75638095D01*
X195419048Y-75600000D01*
X195457143Y-75561905D01*
X195457143Y-75638095D01*
X195076191Y-76361905D02*
X195076191Y-75561905D01*
X194733334Y-76361905D02*
X194733334Y-75942857D01*
X194771429Y-75866667D01*
X194847619Y-75828571D01*
X194961905Y-75828571D01*
X195038096Y-75866667D01*
X195076191Y-75904762D01*
X194428571Y-75828571D02*
X194238095Y-76361905D01*
X194047619Y-75828571D01*
X193628571Y-76361905D02*
X193704762Y-76323810D01*
X193742857Y-76285714D01*
X193780952Y-76209524D01*
X193780952Y-75980952D01*
X193742857Y-75904762D01*
X193704762Y-75866667D01*
X193628571Y-75828571D01*
X193514285Y-75828571D01*
X193438095Y-75866667D01*
X193400000Y-75904762D01*
X193361904Y-75980952D01*
X193361904Y-76209524D01*
X193400000Y-76285714D01*
X193438095Y-76323810D01*
X193514285Y-76361905D01*
X193628571Y-76361905D01*
X193019047Y-75828571D02*
X193019047Y-76361905D01*
X193019047Y-75904762D02*
X192980952Y-75866667D01*
X192904761Y-75828571D01*
X192790475Y-75828571D01*
X192714285Y-75866667D01*
X192676190Y-75942857D01*
X192676190Y-76361905D01*
X191990475Y-76323810D02*
X192066665Y-76361905D01*
X192219046Y-76361905D01*
X192295237Y-76323810D01*
X192333332Y-76247619D01*
X192333332Y-75942857D01*
X192295237Y-75866667D01*
X192219046Y-75828571D01*
X192066665Y-75828571D01*
X191990475Y-75866667D01*
X191952380Y-75942857D01*
X191952380Y-76019048D01*
X192333332Y-76095238D01*
X191609523Y-75828571D02*
X191609523Y-76361905D01*
X191609523Y-75904762D02*
X191571428Y-75866667D01*
X191495237Y-75828571D01*
X191380951Y-75828571D01*
X191304761Y-75866667D01*
X191266666Y-75942857D01*
X191266666Y-76361905D01*
X198295239Y-77038095D02*
X198257144Y-77000000D01*
X198180953Y-76961905D01*
X197990477Y-76961905D01*
X197914287Y-77000000D01*
X197876191Y-77038095D01*
X197838096Y-77114286D01*
X197838096Y-77190476D01*
X197876191Y-77304762D01*
X198333334Y-77761905D01*
X197838096Y-77761905D01*
X197114286Y-76961905D02*
X197495239Y-76961905D01*
X197533334Y-77342857D01*
X197495239Y-77304762D01*
X197419048Y-77266667D01*
X197228572Y-77266667D01*
X197152382Y-77304762D01*
X197114286Y-77342857D01*
X197076191Y-77419048D01*
X197076191Y-77609524D01*
X197114286Y-77685714D01*
X197152382Y-77723810D01*
X197228572Y-77761905D01*
X197419048Y-77761905D01*
X197495239Y-77723810D01*
X197533334Y-77685714D01*
X196580953Y-76961905D02*
X196504762Y-76961905D01*
X196428572Y-77000000D01*
X196390477Y-77038095D01*
X196352381Y-77114286D01*
X196314286Y-77266667D01*
X196314286Y-77457143D01*
X196352381Y-77609524D01*
X196390477Y-77685714D01*
X196428572Y-77723810D01*
X196504762Y-77761905D01*
X196580953Y-77761905D01*
X196657143Y-77723810D01*
X196695239Y-77685714D01*
X196733334Y-77609524D01*
X196771429Y-77457143D01*
X196771429Y-77266667D01*
X196733334Y-77114286D01*
X196695239Y-77038095D01*
X196657143Y-77000000D01*
X196580953Y-76961905D01*
X196009524Y-77038095D02*
X195971429Y-77000000D01*
X195895238Y-76961905D01*
X195704762Y-76961905D01*
X195628572Y-77000000D01*
X195590476Y-77038095D01*
X195552381Y-77114286D01*
X195552381Y-77190476D01*
X195590476Y-77304762D01*
X196047619Y-77761905D01*
X195552381Y-77761905D01*
X195247619Y-77038095D02*
X195209524Y-77000000D01*
X195133333Y-76961905D01*
X194942857Y-76961905D01*
X194866667Y-77000000D01*
X194828571Y-77038095D01*
X194790476Y-77114286D01*
X194790476Y-77190476D01*
X194828571Y-77304762D01*
X195285714Y-77761905D01*
X194790476Y-77761905D01*
X194295238Y-76961905D02*
X194219047Y-76961905D01*
X194142857Y-77000000D01*
X194104762Y-77038095D01*
X194066666Y-77114286D01*
X194028571Y-77266667D01*
X194028571Y-77457143D01*
X194066666Y-77609524D01*
X194104762Y-77685714D01*
X194142857Y-77723810D01*
X194219047Y-77761905D01*
X194295238Y-77761905D01*
X194371428Y-77723810D01*
X194409524Y-77685714D01*
X194447619Y-77609524D01*
X194485714Y-77457143D01*
X194485714Y-77266667D01*
X194447619Y-77114286D01*
X194409524Y-77038095D01*
X194371428Y-77000000D01*
X194295238Y-76961905D01*
X193266666Y-77761905D02*
X193723809Y-77761905D01*
X193495238Y-77761905D02*
X193495238Y-76961905D01*
X193571428Y-77076190D01*
X193647619Y-77152381D01*
X193723809Y-77190476D01*
X192809523Y-77304762D02*
X192885714Y-77266667D01*
X192923809Y-77228571D01*
X192961904Y-77152381D01*
X192961904Y-77114286D01*
X192923809Y-77038095D01*
X192885714Y-77000000D01*
X192809523Y-76961905D01*
X192657142Y-76961905D01*
X192580952Y-77000000D01*
X192542856Y-77038095D01*
X192504761Y-77114286D01*
X192504761Y-77152381D01*
X192542856Y-77228571D01*
X192580952Y-77266667D01*
X192657142Y-77304762D01*
X192809523Y-77304762D01*
X192885714Y-77342857D01*
X192923809Y-77380952D01*
X192961904Y-77457143D01*
X192961904Y-77609524D01*
X192923809Y-77685714D01*
X192885714Y-77723810D01*
X192809523Y-77761905D01*
X192657142Y-77761905D01*
X192580952Y-77723810D01*
X192542856Y-77685714D01*
X192504761Y-77609524D01*
X192504761Y-77457143D01*
X192542856Y-77380952D01*
X192580952Y-77342857D01*
X192657142Y-77304762D01*
X198214286Y-63928571D02*
X198214286Y-63528571D01*
X198842857Y-63528571D02*
X197642857Y-63528571D01*
X197642857Y-64100000D01*
X198842857Y-64728571D02*
X198785714Y-64614285D01*
X198671429Y-64557142D01*
X197642857Y-64557142D01*
X198785714Y-65642856D02*
X198842857Y-65528570D01*
X198842857Y-65299999D01*
X198785714Y-65185713D01*
X198671429Y-65128570D01*
X198214286Y-65128570D01*
X198100000Y-65185713D01*
X198042857Y-65299999D01*
X198042857Y-65528570D01*
X198100000Y-65642856D01*
X198214286Y-65699999D01*
X198328571Y-65699999D01*
X198442857Y-65128570D01*
X198842857Y-66099999D02*
X198042857Y-66728570D01*
X198042857Y-66099999D02*
X198842857Y-66728570D01*
X198842857Y-67185713D02*
X198042857Y-67185713D01*
X197642857Y-67185713D02*
X197700000Y-67128570D01*
X197757143Y-67185713D01*
X197700000Y-67242856D01*
X197642857Y-67185713D01*
X197757143Y-67185713D01*
X198214286Y-68157142D02*
X198271429Y-68328571D01*
X198328571Y-68385714D01*
X198442857Y-68442857D01*
X198614286Y-68442857D01*
X198728571Y-68385714D01*
X198785714Y-68328571D01*
X198842857Y-68214285D01*
X198842857Y-67757142D01*
X197642857Y-67757142D01*
X197642857Y-68157142D01*
X197700000Y-68271428D01*
X197757143Y-68328571D01*
X197871429Y-68385714D01*
X197985714Y-68385714D01*
X198100000Y-68328571D01*
X198157143Y-68271428D01*
X198214286Y-68157142D01*
X198214286Y-67757142D01*
X198842857Y-68957142D02*
X197642857Y-68957142D01*
X198500000Y-69357142D01*
X197642857Y-69757142D01*
X198842857Y-69757142D01*
X198785714Y-70271428D02*
X198842857Y-70442857D01*
X198842857Y-70728571D01*
X198785714Y-70842857D01*
X198728571Y-70900000D01*
X198614286Y-70957143D01*
X198500000Y-70957143D01*
X198385714Y-70900000D01*
X198328571Y-70842857D01*
X198271429Y-70728571D01*
X198214286Y-70500000D01*
X198157143Y-70385714D01*
X198100000Y-70328571D01*
X197985714Y-70271428D01*
X197871429Y-70271428D01*
X197757143Y-70328571D01*
X197700000Y-70385714D01*
X197642857Y-70500000D01*
X197642857Y-70785714D01*
X197700000Y-70957143D01*
X197642857Y-72614286D02*
X197642857Y-72728571D01*
X197700000Y-72842857D01*
X197757143Y-72900000D01*
X197871429Y-72957143D01*
X198100000Y-73014286D01*
X198385714Y-73014286D01*
X198614286Y-72957143D01*
X198728571Y-72900000D01*
X198785714Y-72842857D01*
X198842857Y-72728571D01*
X198842857Y-72614286D01*
X198785714Y-72500000D01*
X198728571Y-72442857D01*
X198614286Y-72385714D01*
X198385714Y-72328571D01*
X198100000Y-72328571D01*
X197871429Y-72385714D01*
X197757143Y-72442857D01*
X197700000Y-72500000D01*
X197642857Y-72614286D01*
X198728571Y-73528571D02*
X198785714Y-73585714D01*
X198842857Y-73528571D01*
X198785714Y-73471428D01*
X198728571Y-73528571D01*
X198842857Y-73528571D01*
X198842857Y-74728572D02*
X198842857Y-74042857D01*
X198842857Y-74385715D02*
X197642857Y-74385715D01*
X197814286Y-74271429D01*
X197928571Y-74157143D01*
X197985714Y-74042857D01*
D12*
X147450000Y-79200000D02*
X148150000Y-79200000D01*
X148150000Y-78000000D02*
X147450000Y-78000000D01*
X150850000Y-81600000D02*
X151550000Y-81600000D01*
X151550000Y-80400000D02*
X150850000Y-80400000D01*
X155300000Y-78500000D02*
X154600000Y-78500000D01*
X154600000Y-79700000D02*
X155300000Y-79700000D01*
X153000000Y-70250000D02*
X153000000Y-69550000D01*
X151800000Y-69550000D02*
X151800000Y-70250000D01*
X151600000Y-70250000D02*
X151600000Y-69550000D01*
X150400000Y-69550000D02*
X150400000Y-70250000D01*
X171800000Y-65350000D02*
X171800000Y-66050000D01*
X173000000Y-66050000D02*
X173000000Y-65350000D01*
X170100000Y-67050000D02*
X170800000Y-67050000D01*
X170800000Y-65850000D02*
X170100000Y-65850000D01*
X175750000Y-64400000D02*
X176450000Y-64400000D01*
X176450000Y-63200000D02*
X175750000Y-63200000D01*
X189480000Y-68400000D02*
X189480000Y-66400000D01*
X191520000Y-66400000D02*
X191520000Y-68400000D01*
X189450000Y-64900000D02*
X190150000Y-64900000D01*
X190150000Y-63700000D02*
X189450000Y-63700000D01*
X196000000Y-64750000D02*
X196000000Y-64050000D01*
X194800000Y-64050000D02*
X194800000Y-64750000D01*
X194800000Y-73920000D02*
X192800000Y-73920000D01*
X192800000Y-71880000D02*
X194800000Y-71880000D01*
X193400000Y-56700000D02*
X194100000Y-56700000D01*
X194100000Y-55500000D02*
X193400000Y-55500000D01*
X191250000Y-55500000D02*
X190550000Y-55500000D01*
X190550000Y-56700000D02*
X191250000Y-56700000D01*
X190450000Y-61500000D02*
X191150000Y-61500000D01*
X191150000Y-60300000D02*
X190450000Y-60300000D01*
X169200000Y-78950000D02*
X169200000Y-78250000D01*
X168000000Y-78250000D02*
X168000000Y-78950000D01*
X168700000Y-71550000D02*
X168700000Y-72250000D01*
X169900000Y-72250000D02*
X169900000Y-71550000D01*
X169800000Y-71550000D02*
X169800000Y-72250000D01*
X171000000Y-72250000D02*
X171000000Y-71550000D01*
X182650000Y-78950000D02*
X182650000Y-77250000D01*
X182650000Y-77250000D02*
X185200000Y-77250000D01*
X182650000Y-78950000D02*
X185200000Y-78950000D01*
X187650000Y-67600000D02*
X187650000Y-61100000D01*
X187650000Y-67600000D02*
X179250000Y-67600000D01*
X187650000Y-61100000D02*
X179250000Y-61100000D01*
X191600000Y-71800000D02*
X191600000Y-69800000D01*
X191600000Y-69800000D02*
X195450000Y-69800000D01*
X191600000Y-71800000D02*
X195450000Y-71800000D01*
X175510000Y-81350000D02*
X175510000Y-81000000D01*
X175510000Y-77200000D02*
X175510000Y-76850000D01*
X175510000Y-76850000D02*
X177260000Y-76850000D01*
X177260000Y-81350000D02*
X175510000Y-81350000D01*
X175510000Y-76350000D02*
X175510000Y-76000000D01*
X175510000Y-72200000D02*
X175510000Y-71850000D01*
X175510000Y-71850000D02*
X177260000Y-71850000D01*
X177260000Y-76350000D02*
X175510000Y-76350000D01*
X193600000Y-62670000D02*
X195600000Y-62670000D01*
X195600000Y-60530000D02*
X193600000Y-60530000D01*
X192800000Y-69580000D02*
X194800000Y-69580000D01*
X194800000Y-66620000D02*
X192800000Y-66620000D01*
X189010000Y-70290000D02*
X189010000Y-71550000D01*
X189010000Y-77110000D02*
X189010000Y-75850000D01*
X185250000Y-70290000D02*
X189010000Y-70290000D01*
X183000000Y-77110000D02*
X189010000Y-77110000D01*
X141620000Y-69340000D02*
X142550000Y-69340000D01*
X144780000Y-69340000D02*
X143850000Y-69340000D01*
X144780000Y-69340000D02*
X144780000Y-71500000D01*
X141620000Y-69340000D02*
X141620000Y-70800000D01*
X159960000Y-80420000D02*
X159960000Y-81350000D01*
X159960000Y-83580000D02*
X159960000Y-82650000D01*
X159960000Y-83580000D02*
X157800000Y-83580000D01*
X159960000Y-80420000D02*
X158500000Y-80420000D01*
X183100000Y-57730000D02*
X183760000Y-57730000D01*
X181440000Y-57730000D02*
X182100000Y-57730000D01*
X181440000Y-57730000D02*
X181440000Y-55700000D01*
X183760000Y-56320000D02*
X183760000Y-57730000D01*
X179500000Y-57730000D02*
X180160000Y-57730000D01*
X177840000Y-57730000D02*
X178500000Y-57730000D01*
X177840000Y-57730000D02*
X177840000Y-55700000D01*
X180160000Y-56320000D02*
X180160000Y-57730000D01*
X175900000Y-57730000D02*
X176560000Y-57730000D01*
X174240000Y-57730000D02*
X174900000Y-57730000D01*
X174240000Y-57730000D02*
X174240000Y-55700000D01*
X176560000Y-56320000D02*
X176560000Y-57730000D01*
X172300000Y-57730000D02*
X172960000Y-57730000D01*
X170640000Y-57730000D02*
X171300000Y-57730000D01*
X170640000Y-57730000D02*
X170640000Y-55700000D01*
X172960000Y-56320000D02*
X172960000Y-57730000D01*
X168700000Y-57730000D02*
X169360000Y-57730000D01*
X167040000Y-57730000D02*
X167700000Y-57730000D01*
X167040000Y-57730000D02*
X167040000Y-55700000D01*
X169360000Y-56320000D02*
X169360000Y-57730000D01*
X165100000Y-57730000D02*
X165760000Y-57730000D01*
X163440000Y-57730000D02*
X164100000Y-57730000D01*
X163440000Y-57730000D02*
X163440000Y-55700000D01*
X165760000Y-56320000D02*
X165760000Y-57730000D01*
X161500000Y-57730000D02*
X162160000Y-57730000D01*
X159840000Y-57730000D02*
X160500000Y-57730000D01*
X159840000Y-57730000D02*
X159840000Y-55700000D01*
X162160000Y-56320000D02*
X162160000Y-57730000D01*
X157900000Y-57730000D02*
X158560000Y-57730000D01*
X156240000Y-57730000D02*
X156900000Y-57730000D01*
X156240000Y-57730000D02*
X156240000Y-55700000D01*
X158560000Y-56320000D02*
X158560000Y-57730000D01*
X154300000Y-57730000D02*
X154960000Y-57730000D01*
X152640000Y-57730000D02*
X153300000Y-57730000D01*
X152640000Y-57730000D02*
X152640000Y-55700000D01*
X154960000Y-56320000D02*
X154960000Y-57730000D01*
X150700000Y-57730000D02*
X151360000Y-57730000D01*
X149040000Y-57730000D02*
X149700000Y-57730000D01*
X149040000Y-57730000D02*
X149040000Y-55700000D01*
X151360000Y-56320000D02*
X151360000Y-57730000D01*
X147100000Y-60030000D02*
X147760000Y-60030000D01*
X145440000Y-60030000D02*
X146100000Y-60030000D01*
X145440000Y-60030000D02*
X145440000Y-58000000D01*
X147760000Y-58620000D02*
X147760000Y-60030000D01*
X143500000Y-60030000D02*
X144160000Y-60030000D01*
X141840000Y-60030000D02*
X142500000Y-60030000D01*
X141840000Y-60030000D02*
X141840000Y-58000000D01*
X144160000Y-58620000D02*
X144160000Y-60030000D01*
X183300000Y-80380000D02*
X184300000Y-80380000D01*
X184300000Y-79020000D02*
X183300000Y-79020000D01*
X178800000Y-71430000D02*
X179800000Y-71430000D01*
X179800000Y-70070000D02*
X178800000Y-70070000D01*
X176250000Y-71430000D02*
X177250000Y-71430000D01*
X177250000Y-70070000D02*
X176250000Y-70070000D01*
X183700000Y-84780000D02*
X184700000Y-84780000D01*
X184700000Y-83420000D02*
X183700000Y-83420000D01*
X181150000Y-84780000D02*
X182150000Y-84780000D01*
X182150000Y-83420000D02*
X181150000Y-83420000D01*
X144820000Y-70050000D02*
X144820000Y-71050000D01*
X146180000Y-71050000D02*
X146180000Y-70050000D01*
X147050000Y-71880000D02*
X148050000Y-71880000D01*
X148050000Y-70520000D02*
X147050000Y-70520000D01*
X148000000Y-69020000D02*
X147000000Y-69020000D01*
X147000000Y-70380000D02*
X148000000Y-70380000D01*
X148400000Y-76120000D02*
X147400000Y-76120000D01*
X147400000Y-77480000D02*
X148400000Y-77480000D01*
X155120000Y-81700000D02*
X155120000Y-82700000D01*
X156480000Y-82700000D02*
X156480000Y-81700000D01*
X156320000Y-81700000D02*
X156320000Y-82700000D01*
X157680000Y-82700000D02*
X157680000Y-81700000D01*
X173700000Y-66180000D02*
X174700000Y-66180000D01*
X174700000Y-64820000D02*
X173700000Y-64820000D01*
X157380000Y-66050000D02*
X157380000Y-65050000D01*
X156020000Y-65050000D02*
X156020000Y-66050000D01*
X160380000Y-66050000D02*
X160380000Y-65050000D01*
X159020000Y-65050000D02*
X159020000Y-66050000D01*
X159080000Y-66050000D02*
X159080000Y-65050000D01*
X157720000Y-65050000D02*
X157720000Y-66050000D01*
X156080000Y-66050000D02*
X156080000Y-65050000D01*
X154720000Y-65050000D02*
X154720000Y-66050000D01*
X176250000Y-63230000D02*
X177250000Y-63230000D01*
X177250000Y-61870000D02*
X176250000Y-61870000D01*
X142450000Y-63120000D02*
X141450000Y-63120000D01*
X141450000Y-64480000D02*
X142450000Y-64480000D01*
X193400000Y-58580000D02*
X194400000Y-58580000D01*
X194400000Y-57220000D02*
X193400000Y-57220000D01*
X193400000Y-59880000D02*
X194400000Y-59880000D01*
X194400000Y-58520000D02*
X193400000Y-58520000D01*
X197170000Y-59300000D02*
X197170000Y-57300000D01*
X195030000Y-57300000D02*
X195030000Y-59300000D01*
X170780000Y-79050000D02*
X170780000Y-78050000D01*
X169420000Y-78050000D02*
X169420000Y-79050000D01*
X172130000Y-71300000D02*
X172130000Y-73300000D01*
X174270000Y-73300000D02*
X174270000Y-71300000D01*
X175280000Y-81950000D02*
X175280000Y-80950000D01*
X173920000Y-80950000D02*
X173920000Y-81950000D01*
X177000000Y-81620000D02*
X176000000Y-81620000D01*
X176000000Y-82980000D02*
X177000000Y-82980000D01*
X172520000Y-80200000D02*
X172520000Y-81200000D01*
X173880000Y-81200000D02*
X173880000Y-80200000D01*
X150140000Y-80180000D02*
X150140000Y-79250000D01*
X150140000Y-77020000D02*
X150140000Y-77950000D01*
X150140000Y-77020000D02*
X152300000Y-77020000D01*
X150140000Y-80180000D02*
X151600000Y-80180000D01*
D13*
X161925000Y-69575000D02*
X161925000Y-70025000D01*
X154675000Y-69575000D02*
X154675000Y-70100000D01*
X154675000Y-76825000D02*
X154675000Y-76300000D01*
X161925000Y-76825000D02*
X161925000Y-76300000D01*
X161925000Y-69575000D02*
X161400000Y-69575000D01*
X161925000Y-76825000D02*
X161400000Y-76825000D01*
X154675000Y-76825000D02*
X155200000Y-76825000D01*
X154675000Y-69575000D02*
X155200000Y-69575000D01*
X161925000Y-70025000D02*
X163300000Y-70025000D01*
X192625000Y-63075000D02*
X193775000Y-63075000D01*
X191850000Y-66325000D02*
X193775000Y-66325000D01*
X187225000Y-60175000D02*
X187225000Y-59950000D01*
X190575000Y-60175000D02*
X190575000Y-59875000D01*
X190575000Y-56825000D02*
X190575000Y-57125000D01*
X187225000Y-56825000D02*
X187225000Y-57125000D01*
X187225000Y-60175000D02*
X190575000Y-60175000D01*
X187225000Y-56825000D02*
X190575000Y-56825000D01*
X187225000Y-59950000D02*
X186000000Y-59950000D01*
D12*
X168170000Y-76190000D02*
X168170000Y-74430000D01*
X171240000Y-74430000D02*
X171240000Y-76860000D01*
D13*
X167725000Y-83375000D02*
X167725000Y-83200000D01*
X171075000Y-83375000D02*
X171075000Y-83125000D01*
X171075000Y-80025000D02*
X171075000Y-80275000D01*
X167725000Y-80025000D02*
X167725000Y-80275000D01*
X167725000Y-83375000D02*
X171075000Y-83375000D01*
X167725000Y-80025000D02*
X171075000Y-80025000D01*
X167725000Y-83200000D02*
X166475000Y-83200000D01*
D12*
X175200000Y-78250000D02*
X175200000Y-74750000D01*
X171650000Y-78250000D02*
X171650000Y-74750000D01*
X183200000Y-59020000D02*
X182000000Y-59020000D01*
X182000000Y-60780000D02*
X183200000Y-60780000D01*
X179600000Y-59020000D02*
X178400000Y-59020000D01*
X178400000Y-60780000D02*
X179600000Y-60780000D01*
X176000000Y-59020000D02*
X174800000Y-59020000D01*
X174800000Y-60780000D02*
X176000000Y-60780000D01*
X172400000Y-59020000D02*
X171200000Y-59020000D01*
X171200000Y-60780000D02*
X172400000Y-60780000D01*
X168800000Y-59020000D02*
X167600000Y-59020000D01*
X167600000Y-60780000D02*
X168800000Y-60780000D01*
X165200000Y-59020000D02*
X164000000Y-59020000D01*
X164000000Y-60780000D02*
X165200000Y-60780000D01*
X161600000Y-59020000D02*
X160400000Y-59020000D01*
X160400000Y-60780000D02*
X161600000Y-60780000D01*
X158000000Y-59020000D02*
X156800000Y-59020000D01*
X156800000Y-60780000D02*
X158000000Y-60780000D01*
X154400000Y-59020000D02*
X153200000Y-59020000D01*
X153200000Y-60780000D02*
X154400000Y-60780000D01*
X150800000Y-59020000D02*
X149600000Y-59020000D01*
X149600000Y-60780000D02*
X150800000Y-60780000D01*
X147200000Y-61320000D02*
X146000000Y-61320000D01*
X146000000Y-63080000D02*
X147200000Y-63080000D01*
X143550000Y-61320000D02*
X142350000Y-61320000D01*
X142350000Y-63080000D02*
X143550000Y-63080000D01*
X188800000Y-68720000D02*
X187800000Y-68720000D01*
X187800000Y-70080000D02*
X188800000Y-70080000D01*
X176500000Y-67120000D02*
X175500000Y-67120000D01*
X175500000Y-68480000D02*
X176500000Y-68480000D01*
X188020000Y-66850000D02*
X188020000Y-67850000D01*
X189380000Y-67850000D02*
X189380000Y-66850000D01*
X165300000Y-69820000D02*
X164300000Y-69820000D01*
X164300000Y-71180000D02*
X165300000Y-71180000D01*
X144200000Y-75350000D02*
X144200000Y-77050000D01*
X144200000Y-77050000D02*
X141650000Y-77050000D01*
X144200000Y-75350000D02*
X141650000Y-75350000D01*
X189300000Y-63680000D02*
X190300000Y-63680000D01*
X190300000Y-62320000D02*
X189300000Y-62320000D01*
X145000000Y-63700000D02*
X144300000Y-63700000D01*
X144300000Y-64900000D02*
X145000000Y-64900000D01*
X170750000Y-68720000D02*
X169750000Y-68720000D01*
X169750000Y-70080000D02*
X170750000Y-70080000D01*
D13*
X145566666Y-78457143D02*
X145614285Y-78504762D01*
X145757142Y-78552381D01*
X145852380Y-78552381D01*
X145995238Y-78504762D01*
X146090476Y-78409524D01*
X146138095Y-78314286D01*
X146185714Y-78123810D01*
X146185714Y-77980952D01*
X146138095Y-77790476D01*
X146090476Y-77695238D01*
X145995238Y-77600000D01*
X145852380Y-77552381D01*
X145757142Y-77552381D01*
X145614285Y-77600000D01*
X145566666Y-77647619D01*
X144614285Y-78552381D02*
X145185714Y-78552381D01*
X144900000Y-78552381D02*
X144900000Y-77552381D01*
X144995238Y-77695238D01*
X145090476Y-77790476D01*
X145185714Y-77838095D01*
X151366666Y-79857143D02*
X151414285Y-79904762D01*
X151557142Y-79952381D01*
X151652380Y-79952381D01*
X151795238Y-79904762D01*
X151890476Y-79809524D01*
X151938095Y-79714286D01*
X151985714Y-79523810D01*
X151985714Y-79380952D01*
X151938095Y-79190476D01*
X151890476Y-79095238D01*
X151795238Y-79000000D01*
X151652380Y-78952381D01*
X151557142Y-78952381D01*
X151414285Y-79000000D01*
X151366666Y-79047619D01*
X151033333Y-78952381D02*
X150414285Y-78952381D01*
X150747619Y-79333333D01*
X150604761Y-79333333D01*
X150509523Y-79380952D01*
X150461904Y-79428571D01*
X150414285Y-79523810D01*
X150414285Y-79761905D01*
X150461904Y-79857143D01*
X150509523Y-79904762D01*
X150604761Y-79952381D01*
X150890476Y-79952381D01*
X150985714Y-79904762D01*
X151033333Y-79857143D01*
X154416666Y-78207143D02*
X154464285Y-78254762D01*
X154607142Y-78302381D01*
X154702380Y-78302381D01*
X154845238Y-78254762D01*
X154940476Y-78159524D01*
X154988095Y-78064286D01*
X155035714Y-77873810D01*
X155035714Y-77730952D01*
X154988095Y-77540476D01*
X154940476Y-77445238D01*
X154845238Y-77350000D01*
X154702380Y-77302381D01*
X154607142Y-77302381D01*
X154464285Y-77350000D01*
X154416666Y-77397619D01*
X153559523Y-77302381D02*
X153750000Y-77302381D01*
X153845238Y-77350000D01*
X153892857Y-77397619D01*
X153988095Y-77540476D01*
X154035714Y-77730952D01*
X154035714Y-78111905D01*
X153988095Y-78207143D01*
X153940476Y-78254762D01*
X153845238Y-78302381D01*
X153654761Y-78302381D01*
X153559523Y-78254762D01*
X153511904Y-78207143D01*
X153464285Y-78111905D01*
X153464285Y-77873810D01*
X153511904Y-77778571D01*
X153559523Y-77730952D01*
X153654761Y-77683333D01*
X153845238Y-77683333D01*
X153940476Y-77730952D01*
X153988095Y-77778571D01*
X154035714Y-77873810D01*
X152816666Y-68557143D02*
X152864285Y-68604762D01*
X153007142Y-68652381D01*
X153102380Y-68652381D01*
X153245238Y-68604762D01*
X153340476Y-68509524D01*
X153388095Y-68414286D01*
X153435714Y-68223810D01*
X153435714Y-68080952D01*
X153388095Y-67890476D01*
X153340476Y-67795238D01*
X153245238Y-67700000D01*
X153102380Y-67652381D01*
X153007142Y-67652381D01*
X152864285Y-67700000D01*
X152816666Y-67747619D01*
X152483333Y-67652381D02*
X151816666Y-67652381D01*
X152245238Y-68652381D01*
X151664286Y-71985714D02*
X151702381Y-72023810D01*
X151816667Y-72061905D01*
X151892857Y-72061905D01*
X152007143Y-72023810D01*
X152083334Y-71947619D01*
X152121429Y-71871429D01*
X152159524Y-71719048D01*
X152159524Y-71604762D01*
X152121429Y-71452381D01*
X152083334Y-71376190D01*
X152007143Y-71300000D01*
X151892857Y-71261905D01*
X151816667Y-71261905D01*
X151702381Y-71300000D01*
X151664286Y-71338095D01*
X150902381Y-72061905D02*
X151359524Y-72061905D01*
X151130953Y-72061905D02*
X151130953Y-71261905D01*
X151207143Y-71376190D01*
X151283334Y-71452381D01*
X151359524Y-71490476D01*
X150407143Y-71261905D02*
X150330952Y-71261905D01*
X150254762Y-71300000D01*
X150216667Y-71338095D01*
X150178571Y-71414286D01*
X150140476Y-71566667D01*
X150140476Y-71757143D01*
X150178571Y-71909524D01*
X150216667Y-71985714D01*
X150254762Y-72023810D01*
X150330952Y-72061905D01*
X150407143Y-72061905D01*
X150483333Y-72023810D01*
X150521429Y-71985714D01*
X150559524Y-71909524D01*
X150597619Y-71757143D01*
X150597619Y-71566667D01*
X150559524Y-71414286D01*
X150521429Y-71338095D01*
X150483333Y-71300000D01*
X150407143Y-71261905D01*
X171550000Y-64350000D02*
X171583333Y-64316666D01*
X171616667Y-64216666D01*
X171616667Y-64150000D01*
X171583333Y-64050000D01*
X171516667Y-63983333D01*
X171450000Y-63950000D01*
X171316667Y-63916666D01*
X171216667Y-63916666D01*
X171083333Y-63950000D01*
X171016667Y-63983333D01*
X170950000Y-64050000D01*
X170916667Y-64150000D01*
X170916667Y-64216666D01*
X170950000Y-64316666D01*
X170983333Y-64350000D01*
X171616667Y-65016666D02*
X171616667Y-64616666D01*
X171616667Y-64816666D02*
X170916667Y-64816666D01*
X171016667Y-64750000D01*
X171083333Y-64683333D01*
X171116667Y-64616666D01*
X171616667Y-65683333D02*
X171616667Y-65283333D01*
X171616667Y-65483333D02*
X170916667Y-65483333D01*
X171016667Y-65416667D01*
X171083333Y-65350000D01*
X171116667Y-65283333D01*
X168550000Y-66750000D02*
X168583334Y-66783333D01*
X168683334Y-66816667D01*
X168750000Y-66816667D01*
X168850000Y-66783333D01*
X168916667Y-66716667D01*
X168950000Y-66650000D01*
X168983334Y-66516667D01*
X168983334Y-66416667D01*
X168950000Y-66283333D01*
X168916667Y-66216667D01*
X168850000Y-66150000D01*
X168750000Y-66116667D01*
X168683334Y-66116667D01*
X168583334Y-66150000D01*
X168550000Y-66183333D01*
X167883334Y-66816667D02*
X168283334Y-66816667D01*
X168083334Y-66816667D02*
X168083334Y-66116667D01*
X168150000Y-66216667D01*
X168216667Y-66283333D01*
X168283334Y-66316667D01*
X167616667Y-66183333D02*
X167583333Y-66150000D01*
X167516667Y-66116667D01*
X167350000Y-66116667D01*
X167283333Y-66150000D01*
X167250000Y-66183333D01*
X167216667Y-66250000D01*
X167216667Y-66316667D01*
X167250000Y-66416667D01*
X167650000Y-66816667D01*
X167216667Y-66816667D01*
X176550000Y-65200000D02*
X176583334Y-65233333D01*
X176683334Y-65266667D01*
X176750000Y-65266667D01*
X176850000Y-65233333D01*
X176916667Y-65166667D01*
X176950000Y-65100000D01*
X176983334Y-64966667D01*
X176983334Y-64866667D01*
X176950000Y-64733333D01*
X176916667Y-64666667D01*
X176850000Y-64600000D01*
X176750000Y-64566667D01*
X176683334Y-64566667D01*
X176583334Y-64600000D01*
X176550000Y-64633333D01*
X175883334Y-65266667D02*
X176283334Y-65266667D01*
X176083334Y-65266667D02*
X176083334Y-64566667D01*
X176150000Y-64666667D01*
X176216667Y-64733333D01*
X176283334Y-64766667D01*
X175650000Y-64566667D02*
X175216667Y-64566667D01*
X175450000Y-64833333D01*
X175350000Y-64833333D01*
X175283333Y-64866667D01*
X175250000Y-64900000D01*
X175216667Y-64966667D01*
X175216667Y-65133333D01*
X175250000Y-65200000D01*
X175283333Y-65233333D01*
X175350000Y-65266667D01*
X175550000Y-65266667D01*
X175616667Y-65233333D01*
X175650000Y-65200000D01*
X191000000Y-70350000D02*
X191033334Y-70383333D01*
X191133334Y-70416667D01*
X191200000Y-70416667D01*
X191300000Y-70383333D01*
X191366667Y-70316667D01*
X191400000Y-70250000D01*
X191433334Y-70116667D01*
X191433334Y-70016667D01*
X191400000Y-69883333D01*
X191366667Y-69816667D01*
X191300000Y-69750000D01*
X191200000Y-69716667D01*
X191133334Y-69716667D01*
X191033334Y-69750000D01*
X191000000Y-69783333D01*
X190733334Y-69783333D02*
X190700000Y-69750000D01*
X190633334Y-69716667D01*
X190466667Y-69716667D01*
X190400000Y-69750000D01*
X190366667Y-69783333D01*
X190333334Y-69850000D01*
X190333334Y-69916667D01*
X190366667Y-70016667D01*
X190766667Y-70416667D01*
X190333334Y-70416667D01*
X189733333Y-69716667D02*
X189866667Y-69716667D01*
X189933333Y-69750000D01*
X189966667Y-69783333D01*
X190033333Y-69883333D01*
X190066667Y-70016667D01*
X190066667Y-70283333D01*
X190033333Y-70350000D01*
X190000000Y-70383333D01*
X189933333Y-70416667D01*
X189800000Y-70416667D01*
X189733333Y-70383333D01*
X189700000Y-70350000D01*
X189666667Y-70283333D01*
X189666667Y-70116667D01*
X189700000Y-70050000D01*
X189733333Y-70016667D01*
X189800000Y-69983333D01*
X189933333Y-69983333D01*
X190000000Y-70016667D01*
X190033333Y-70050000D01*
X190066667Y-70116667D01*
X189100000Y-65700000D02*
X189133334Y-65733333D01*
X189233334Y-65766667D01*
X189300000Y-65766667D01*
X189400000Y-65733333D01*
X189466667Y-65666667D01*
X189500000Y-65600000D01*
X189533334Y-65466667D01*
X189533334Y-65366667D01*
X189500000Y-65233333D01*
X189466667Y-65166667D01*
X189400000Y-65100000D01*
X189300000Y-65066667D01*
X189233334Y-65066667D01*
X189133334Y-65100000D01*
X189100000Y-65133333D01*
X188833334Y-65133333D02*
X188800000Y-65100000D01*
X188733334Y-65066667D01*
X188566667Y-65066667D01*
X188500000Y-65100000D01*
X188466667Y-65133333D01*
X188433334Y-65200000D01*
X188433334Y-65266667D01*
X188466667Y-65366667D01*
X188866667Y-65766667D01*
X188433334Y-65766667D01*
X188200000Y-65066667D02*
X187733333Y-65066667D01*
X188033333Y-65766667D01*
X196785714Y-63785714D02*
X196823810Y-63747619D01*
X196861905Y-63633333D01*
X196861905Y-63557143D01*
X196823810Y-63442857D01*
X196747619Y-63366666D01*
X196671429Y-63328571D01*
X196519048Y-63290476D01*
X196404762Y-63290476D01*
X196252381Y-63328571D01*
X196176190Y-63366666D01*
X196100000Y-63442857D01*
X196061905Y-63557143D01*
X196061905Y-63633333D01*
X196100000Y-63747619D01*
X196138095Y-63785714D01*
X196138095Y-64090476D02*
X196100000Y-64128571D01*
X196061905Y-64204762D01*
X196061905Y-64395238D01*
X196100000Y-64471428D01*
X196138095Y-64509524D01*
X196214286Y-64547619D01*
X196290476Y-64547619D01*
X196404762Y-64509524D01*
X196861905Y-64052381D01*
X196861905Y-64547619D01*
X196404762Y-65004762D02*
X196366667Y-64928571D01*
X196328571Y-64890476D01*
X196252381Y-64852381D01*
X196214286Y-64852381D01*
X196138095Y-64890476D01*
X196100000Y-64928571D01*
X196061905Y-65004762D01*
X196061905Y-65157143D01*
X196100000Y-65233333D01*
X196138095Y-65271429D01*
X196214286Y-65309524D01*
X196252381Y-65309524D01*
X196328571Y-65271429D01*
X196366667Y-65233333D01*
X196404762Y-65157143D01*
X196404762Y-65004762D01*
X196442857Y-64928571D01*
X196480952Y-64890476D01*
X196557143Y-64852381D01*
X196709524Y-64852381D01*
X196785714Y-64890476D01*
X196823810Y-64928571D01*
X196861905Y-65004762D01*
X196861905Y-65157143D01*
X196823810Y-65233333D01*
X196785714Y-65271429D01*
X196709524Y-65309524D01*
X196557143Y-65309524D01*
X196480952Y-65271429D01*
X196442857Y-65233333D01*
X196404762Y-65157143D01*
X194442857Y-75007143D02*
X194490476Y-75054762D01*
X194633333Y-75102381D01*
X194728571Y-75102381D01*
X194871429Y-75054762D01*
X194966667Y-74959524D01*
X195014286Y-74864286D01*
X195061905Y-74673810D01*
X195061905Y-74530952D01*
X195014286Y-74340476D01*
X194966667Y-74245238D01*
X194871429Y-74150000D01*
X194728571Y-74102381D01*
X194633333Y-74102381D01*
X194490476Y-74150000D01*
X194442857Y-74197619D01*
X194061905Y-74197619D02*
X194014286Y-74150000D01*
X193919048Y-74102381D01*
X193680952Y-74102381D01*
X193585714Y-74150000D01*
X193538095Y-74197619D01*
X193490476Y-74292857D01*
X193490476Y-74388095D01*
X193538095Y-74530952D01*
X194109524Y-75102381D01*
X193490476Y-75102381D01*
X193014286Y-75102381D02*
X192823810Y-75102381D01*
X192728571Y-75054762D01*
X192680952Y-75007143D01*
X192585714Y-74864286D01*
X192538095Y-74673810D01*
X192538095Y-74292857D01*
X192585714Y-74197619D01*
X192633333Y-74150000D01*
X192728571Y-74102381D01*
X192919048Y-74102381D01*
X193014286Y-74150000D01*
X193061905Y-74197619D01*
X193109524Y-74292857D01*
X193109524Y-74530952D01*
X193061905Y-74626190D01*
X193014286Y-74673810D01*
X192919048Y-74721429D01*
X192728571Y-74721429D01*
X192633333Y-74673810D01*
X192585714Y-74626190D01*
X192538095Y-74530952D01*
X196450000Y-55950000D02*
X196483334Y-55983333D01*
X196583334Y-56016667D01*
X196650000Y-56016667D01*
X196750000Y-55983333D01*
X196816667Y-55916667D01*
X196850000Y-55850000D01*
X196883334Y-55716667D01*
X196883334Y-55616667D01*
X196850000Y-55483333D01*
X196816667Y-55416667D01*
X196750000Y-55350000D01*
X196650000Y-55316667D01*
X196583334Y-55316667D01*
X196483334Y-55350000D01*
X196450000Y-55383333D01*
X196216667Y-55316667D02*
X195783334Y-55316667D01*
X196016667Y-55583333D01*
X195916667Y-55583333D01*
X195850000Y-55616667D01*
X195816667Y-55650000D01*
X195783334Y-55716667D01*
X195783334Y-55883333D01*
X195816667Y-55950000D01*
X195850000Y-55983333D01*
X195916667Y-56016667D01*
X196116667Y-56016667D01*
X196183334Y-55983333D01*
X196216667Y-55950000D01*
X195350000Y-55316667D02*
X195283333Y-55316667D01*
X195216667Y-55350000D01*
X195183333Y-55383333D01*
X195150000Y-55450000D01*
X195116667Y-55583333D01*
X195116667Y-55750000D01*
X195150000Y-55883333D01*
X195183333Y-55950000D01*
X195216667Y-55983333D01*
X195283333Y-56016667D01*
X195350000Y-56016667D01*
X195416667Y-55983333D01*
X195450000Y-55950000D01*
X195483333Y-55883333D01*
X195516667Y-55750000D01*
X195516667Y-55583333D01*
X195483333Y-55450000D01*
X195450000Y-55383333D01*
X195416667Y-55350000D01*
X195350000Y-55316667D01*
X189050000Y-56350000D02*
X189083334Y-56383333D01*
X189183334Y-56416667D01*
X189250000Y-56416667D01*
X189350000Y-56383333D01*
X189416667Y-56316667D01*
X189450000Y-56250000D01*
X189483334Y-56116667D01*
X189483334Y-56016667D01*
X189450000Y-55883333D01*
X189416667Y-55816667D01*
X189350000Y-55750000D01*
X189250000Y-55716667D01*
X189183334Y-55716667D01*
X189083334Y-55750000D01*
X189050000Y-55783333D01*
X188816667Y-55716667D02*
X188383334Y-55716667D01*
X188616667Y-55983333D01*
X188516667Y-55983333D01*
X188450000Y-56016667D01*
X188416667Y-56050000D01*
X188383334Y-56116667D01*
X188383334Y-56283333D01*
X188416667Y-56350000D01*
X188450000Y-56383333D01*
X188516667Y-56416667D01*
X188716667Y-56416667D01*
X188783334Y-56383333D01*
X188816667Y-56350000D01*
X188150000Y-55716667D02*
X187716667Y-55716667D01*
X187950000Y-55983333D01*
X187850000Y-55983333D01*
X187783333Y-56016667D01*
X187750000Y-56050000D01*
X187716667Y-56116667D01*
X187716667Y-56283333D01*
X187750000Y-56350000D01*
X187783333Y-56383333D01*
X187850000Y-56416667D01*
X188050000Y-56416667D01*
X188116667Y-56383333D01*
X188150000Y-56350000D01*
X191450000Y-62200000D02*
X191483334Y-62233333D01*
X191583334Y-62266667D01*
X191650000Y-62266667D01*
X191750000Y-62233333D01*
X191816667Y-62166667D01*
X191850000Y-62100000D01*
X191883334Y-61966667D01*
X191883334Y-61866667D01*
X191850000Y-61733333D01*
X191816667Y-61666667D01*
X191750000Y-61600000D01*
X191650000Y-61566667D01*
X191583334Y-61566667D01*
X191483334Y-61600000D01*
X191450000Y-61633333D01*
X191216667Y-61566667D02*
X190783334Y-61566667D01*
X191016667Y-61833333D01*
X190916667Y-61833333D01*
X190850000Y-61866667D01*
X190816667Y-61900000D01*
X190783334Y-61966667D01*
X190783334Y-62133333D01*
X190816667Y-62200000D01*
X190850000Y-62233333D01*
X190916667Y-62266667D01*
X191116667Y-62266667D01*
X191183334Y-62233333D01*
X191216667Y-62200000D01*
X190183333Y-61800000D02*
X190183333Y-62266667D01*
X190350000Y-61533333D02*
X190516667Y-62033333D01*
X190083333Y-62033333D01*
X167457143Y-77957143D02*
X167504762Y-77909524D01*
X167552381Y-77766667D01*
X167552381Y-77671429D01*
X167504762Y-77528571D01*
X167409524Y-77433333D01*
X167314286Y-77385714D01*
X167123810Y-77338095D01*
X166980952Y-77338095D01*
X166790476Y-77385714D01*
X166695238Y-77433333D01*
X166600000Y-77528571D01*
X166552381Y-77671429D01*
X166552381Y-77766667D01*
X166600000Y-77909524D01*
X166647619Y-77957143D01*
X166552381Y-78290476D02*
X166552381Y-78909524D01*
X166933333Y-78576190D01*
X166933333Y-78719048D01*
X166980952Y-78814286D01*
X167028571Y-78861905D01*
X167123810Y-78909524D01*
X167361905Y-78909524D01*
X167457143Y-78861905D01*
X167504762Y-78814286D01*
X167552381Y-78719048D01*
X167552381Y-78433333D01*
X167504762Y-78338095D01*
X167457143Y-78290476D01*
X166552381Y-79814286D02*
X166552381Y-79338095D01*
X167028571Y-79290476D01*
X166980952Y-79338095D01*
X166933333Y-79433333D01*
X166933333Y-79671429D01*
X166980952Y-79766667D01*
X167028571Y-79814286D01*
X167123810Y-79861905D01*
X167361905Y-79861905D01*
X167457143Y-79814286D01*
X167504762Y-79766667D01*
X167552381Y-79671429D01*
X167552381Y-79433333D01*
X167504762Y-79338095D01*
X167457143Y-79290476D01*
X168435714Y-71335714D02*
X168473810Y-71297619D01*
X168511905Y-71183333D01*
X168511905Y-71107143D01*
X168473810Y-70992857D01*
X168397619Y-70916666D01*
X168321429Y-70878571D01*
X168169048Y-70840476D01*
X168054762Y-70840476D01*
X167902381Y-70878571D01*
X167826190Y-70916666D01*
X167750000Y-70992857D01*
X167711905Y-71107143D01*
X167711905Y-71183333D01*
X167750000Y-71297619D01*
X167788095Y-71335714D01*
X167711905Y-71602381D02*
X167711905Y-72097619D01*
X168016667Y-71830952D01*
X168016667Y-71945238D01*
X168054762Y-72021428D01*
X168092857Y-72059524D01*
X168169048Y-72097619D01*
X168359524Y-72097619D01*
X168435714Y-72059524D01*
X168473810Y-72021428D01*
X168511905Y-71945238D01*
X168511905Y-71716666D01*
X168473810Y-71640476D01*
X168435714Y-71602381D01*
X167711905Y-72364286D02*
X167711905Y-72897619D01*
X168511905Y-72554762D01*
X171885714Y-71335714D02*
X171923810Y-71297619D01*
X171961905Y-71183333D01*
X171961905Y-71107143D01*
X171923810Y-70992857D01*
X171847619Y-70916666D01*
X171771429Y-70878571D01*
X171619048Y-70840476D01*
X171504762Y-70840476D01*
X171352381Y-70878571D01*
X171276190Y-70916666D01*
X171200000Y-70992857D01*
X171161905Y-71107143D01*
X171161905Y-71183333D01*
X171200000Y-71297619D01*
X171238095Y-71335714D01*
X171161905Y-71602381D02*
X171161905Y-72097619D01*
X171466667Y-71830952D01*
X171466667Y-71945238D01*
X171504762Y-72021428D01*
X171542857Y-72059524D01*
X171619048Y-72097619D01*
X171809524Y-72097619D01*
X171885714Y-72059524D01*
X171923810Y-72021428D01*
X171961905Y-71945238D01*
X171961905Y-71716666D01*
X171923810Y-71640476D01*
X171885714Y-71602381D01*
X171504762Y-72554762D02*
X171466667Y-72478571D01*
X171428571Y-72440476D01*
X171352381Y-72402381D01*
X171314286Y-72402381D01*
X171238095Y-72440476D01*
X171200000Y-72478571D01*
X171161905Y-72554762D01*
X171161905Y-72707143D01*
X171200000Y-72783333D01*
X171238095Y-72821429D01*
X171314286Y-72859524D01*
X171352381Y-72859524D01*
X171428571Y-72821429D01*
X171466667Y-72783333D01*
X171504762Y-72707143D01*
X171504762Y-72554762D01*
X171542857Y-72478571D01*
X171580952Y-72440476D01*
X171657143Y-72402381D01*
X171809524Y-72402381D01*
X171885714Y-72440476D01*
X171923810Y-72478571D01*
X171961905Y-72554762D01*
X171961905Y-72707143D01*
X171923810Y-72783333D01*
X171885714Y-72821429D01*
X171809524Y-72859524D01*
X171657143Y-72859524D01*
X171580952Y-72821429D01*
X171542857Y-72783333D01*
X171504762Y-72707143D01*
X187138095Y-78552381D02*
X187138095Y-77552381D01*
X186900000Y-77552381D01*
X186757142Y-77600000D01*
X186661904Y-77695238D01*
X186614285Y-77790476D01*
X186566666Y-77980952D01*
X186566666Y-78123810D01*
X186614285Y-78314286D01*
X186661904Y-78409524D01*
X186757142Y-78504762D01*
X186900000Y-78552381D01*
X187138095Y-78552381D01*
X185614285Y-78552381D02*
X186185714Y-78552381D01*
X185900000Y-78552381D02*
X185900000Y-77552381D01*
X185995238Y-77695238D01*
X186090476Y-77790476D01*
X186185714Y-77838095D01*
X183450000Y-68466667D02*
X183450000Y-67766667D01*
X183283334Y-67766667D01*
X183183334Y-67800000D01*
X183116667Y-67866667D01*
X183083334Y-67933333D01*
X183050000Y-68066667D01*
X183050000Y-68166667D01*
X183083334Y-68300000D01*
X183116667Y-68366667D01*
X183183334Y-68433333D01*
X183283334Y-68466667D01*
X183450000Y-68466667D01*
X182816667Y-67766667D02*
X182383334Y-67766667D01*
X182616667Y-68033333D01*
X182516667Y-68033333D01*
X182450000Y-68066667D01*
X182416667Y-68100000D01*
X182383334Y-68166667D01*
X182383334Y-68333333D01*
X182416667Y-68400000D01*
X182450000Y-68433333D01*
X182516667Y-68466667D01*
X182716667Y-68466667D01*
X182783334Y-68433333D01*
X182816667Y-68400000D01*
X181950000Y-67766667D02*
X181883333Y-67766667D01*
X181816667Y-67800000D01*
X181783333Y-67833333D01*
X181750000Y-67900000D01*
X181716667Y-68033333D01*
X181716667Y-68200000D01*
X181750000Y-68333333D01*
X181783333Y-68400000D01*
X181816667Y-68433333D01*
X181883333Y-68466667D01*
X181950000Y-68466667D01*
X182016667Y-68433333D01*
X182050000Y-68400000D01*
X182083333Y-68333333D01*
X182116667Y-68200000D01*
X182116667Y-68033333D01*
X182083333Y-67900000D01*
X182050000Y-67833333D01*
X182016667Y-67800000D01*
X181950000Y-67766667D01*
X191400000Y-71666667D02*
X191400000Y-70966667D01*
X191233334Y-70966667D01*
X191133334Y-71000000D01*
X191066667Y-71066667D01*
X191033334Y-71133333D01*
X191000000Y-71266667D01*
X191000000Y-71366667D01*
X191033334Y-71500000D01*
X191066667Y-71566667D01*
X191133334Y-71633333D01*
X191233334Y-71666667D01*
X191400000Y-71666667D01*
X190766667Y-70966667D02*
X190333334Y-70966667D01*
X190566667Y-71233333D01*
X190466667Y-71233333D01*
X190400000Y-71266667D01*
X190366667Y-71300000D01*
X190333334Y-71366667D01*
X190333334Y-71533333D01*
X190366667Y-71600000D01*
X190400000Y-71633333D01*
X190466667Y-71666667D01*
X190666667Y-71666667D01*
X190733334Y-71633333D01*
X190766667Y-71600000D01*
X189666667Y-71666667D02*
X190066667Y-71666667D01*
X189866667Y-71666667D02*
X189866667Y-70966667D01*
X189933333Y-71066667D01*
X190000000Y-71133333D01*
X190066667Y-71166667D01*
X180000000Y-82616667D02*
X180000000Y-81916667D01*
X179833334Y-81916667D01*
X179733334Y-81950000D01*
X179666667Y-82016667D01*
X179633334Y-82083333D01*
X179600000Y-82216667D01*
X179600000Y-82316667D01*
X179633334Y-82450000D01*
X179666667Y-82516667D01*
X179733334Y-82583333D01*
X179833334Y-82616667D01*
X180000000Y-82616667D01*
X179366667Y-81916667D02*
X178933334Y-81916667D01*
X179166667Y-82183333D01*
X179066667Y-82183333D01*
X179000000Y-82216667D01*
X178966667Y-82250000D01*
X178933334Y-82316667D01*
X178933334Y-82483333D01*
X178966667Y-82550000D01*
X179000000Y-82583333D01*
X179066667Y-82616667D01*
X179266667Y-82616667D01*
X179333334Y-82583333D01*
X179366667Y-82550000D01*
X178666667Y-81983333D02*
X178633333Y-81950000D01*
X178566667Y-81916667D01*
X178400000Y-81916667D01*
X178333333Y-81950000D01*
X178300000Y-81983333D01*
X178266667Y-82050000D01*
X178266667Y-82116667D01*
X178300000Y-82216667D01*
X178700000Y-82616667D01*
X178266667Y-82616667D01*
X182150000Y-71516667D02*
X182150000Y-70816667D01*
X181983334Y-70816667D01*
X181883334Y-70850000D01*
X181816667Y-70916667D01*
X181783334Y-70983333D01*
X181750000Y-71116667D01*
X181750000Y-71216667D01*
X181783334Y-71350000D01*
X181816667Y-71416667D01*
X181883334Y-71483333D01*
X181983334Y-71516667D01*
X182150000Y-71516667D01*
X181516667Y-70816667D02*
X181083334Y-70816667D01*
X181316667Y-71083333D01*
X181216667Y-71083333D01*
X181150000Y-71116667D01*
X181116667Y-71150000D01*
X181083334Y-71216667D01*
X181083334Y-71383333D01*
X181116667Y-71450000D01*
X181150000Y-71483333D01*
X181216667Y-71516667D01*
X181416667Y-71516667D01*
X181483334Y-71483333D01*
X181516667Y-71450000D01*
X180850000Y-70816667D02*
X180416667Y-70816667D01*
X180650000Y-71083333D01*
X180550000Y-71083333D01*
X180483333Y-71116667D01*
X180450000Y-71150000D01*
X180416667Y-71216667D01*
X180416667Y-71383333D01*
X180450000Y-71450000D01*
X180483333Y-71483333D01*
X180550000Y-71516667D01*
X180750000Y-71516667D01*
X180816667Y-71483333D01*
X180850000Y-71450000D01*
X197702381Y-61283334D02*
X197702381Y-60807143D01*
X196702381Y-60807143D01*
X196797619Y-61569048D02*
X196750000Y-61616667D01*
X196702381Y-61711905D01*
X196702381Y-61950001D01*
X196750000Y-62045239D01*
X196797619Y-62092858D01*
X196892857Y-62140477D01*
X196988095Y-62140477D01*
X197130952Y-62092858D01*
X197702381Y-61521429D01*
X197702381Y-62140477D01*
X197052381Y-67983334D02*
X197052381Y-67507143D01*
X196052381Y-67507143D01*
X196052381Y-68221429D02*
X196052381Y-68840477D01*
X196433333Y-68507143D01*
X196433333Y-68650001D01*
X196480952Y-68745239D01*
X196528571Y-68792858D01*
X196623810Y-68840477D01*
X196861905Y-68840477D01*
X196957143Y-68792858D01*
X197004762Y-68745239D01*
X197052381Y-68650001D01*
X197052381Y-68364286D01*
X197004762Y-68269048D01*
X196957143Y-68221429D01*
X190195238Y-77347619D02*
X190290476Y-77300000D01*
X190385714Y-77204762D01*
X190528571Y-77061905D01*
X190623810Y-77014286D01*
X190719048Y-77014286D01*
X190671429Y-77252381D02*
X190766667Y-77204762D01*
X190861905Y-77109524D01*
X190909524Y-76919048D01*
X190909524Y-76585714D01*
X190861905Y-76395238D01*
X190766667Y-76300000D01*
X190671429Y-76252381D01*
X190480952Y-76252381D01*
X190385714Y-76300000D01*
X190290476Y-76395238D01*
X190242857Y-76585714D01*
X190242857Y-76919048D01*
X190290476Y-77109524D01*
X190385714Y-77204762D01*
X190480952Y-77252381D01*
X190671429Y-77252381D01*
X189290476Y-77252381D02*
X189861905Y-77252381D01*
X189576191Y-77252381D02*
X189576191Y-76252381D01*
X189671429Y-76395238D01*
X189766667Y-76490476D01*
X189861905Y-76538095D01*
X142297619Y-68154762D02*
X142250000Y-68059524D01*
X142154762Y-67964286D01*
X142011905Y-67821429D01*
X141964286Y-67726190D01*
X141964286Y-67630952D01*
X142202381Y-67678571D02*
X142154762Y-67583333D01*
X142059524Y-67488095D01*
X141869048Y-67440476D01*
X141535714Y-67440476D01*
X141345238Y-67488095D01*
X141250000Y-67583333D01*
X141202381Y-67678571D01*
X141202381Y-67869048D01*
X141250000Y-67964286D01*
X141345238Y-68059524D01*
X141535714Y-68107143D01*
X141869048Y-68107143D01*
X142059524Y-68059524D01*
X142154762Y-67964286D01*
X142202381Y-67869048D01*
X142202381Y-67678571D01*
X141202381Y-68440476D02*
X141202381Y-69059524D01*
X141583333Y-68726190D01*
X141583333Y-68869048D01*
X141630952Y-68964286D01*
X141678571Y-69011905D01*
X141773810Y-69059524D01*
X142011905Y-69059524D01*
X142107143Y-69011905D01*
X142154762Y-68964286D01*
X142202381Y-68869048D01*
X142202381Y-68583333D01*
X142154762Y-68488095D01*
X142107143Y-68440476D01*
X159245238Y-80297619D02*
X159340476Y-80250000D01*
X159435714Y-80154762D01*
X159578571Y-80011905D01*
X159673810Y-79964286D01*
X159769048Y-79964286D01*
X159721429Y-80202381D02*
X159816667Y-80154762D01*
X159911905Y-80059524D01*
X159959524Y-79869048D01*
X159959524Y-79535714D01*
X159911905Y-79345238D01*
X159816667Y-79250000D01*
X159721429Y-79202381D01*
X159530952Y-79202381D01*
X159435714Y-79250000D01*
X159340476Y-79345238D01*
X159292857Y-79535714D01*
X159292857Y-79869048D01*
X159340476Y-80059524D01*
X159435714Y-80154762D01*
X159530952Y-80202381D01*
X159721429Y-80202381D01*
X158435714Y-79535714D02*
X158435714Y-80202381D01*
X158673810Y-79154762D02*
X158911905Y-79869048D01*
X158292857Y-79869048D01*
X181383333Y-56783333D02*
X181350000Y-56716667D01*
X181283333Y-56650000D01*
X181183333Y-56550000D01*
X181150000Y-56483333D01*
X181150000Y-56416667D01*
X181316667Y-56450000D02*
X181283333Y-56383333D01*
X181216667Y-56316667D01*
X181083333Y-56283333D01*
X180850000Y-56283333D01*
X180716667Y-56316667D01*
X180650000Y-56383333D01*
X180616667Y-56450000D01*
X180616667Y-56583333D01*
X180650000Y-56650000D01*
X180716667Y-56716667D01*
X180850000Y-56750000D01*
X181083333Y-56750000D01*
X181216667Y-56716667D01*
X181283333Y-56650000D01*
X181316667Y-56583333D01*
X181316667Y-56450000D01*
X180616667Y-57383333D02*
X180616667Y-57050000D01*
X180950000Y-57016666D01*
X180916667Y-57050000D01*
X180883333Y-57116666D01*
X180883333Y-57283333D01*
X180916667Y-57350000D01*
X180950000Y-57383333D01*
X181016667Y-57416666D01*
X181183333Y-57416666D01*
X181250000Y-57383333D01*
X181283333Y-57350000D01*
X181316667Y-57283333D01*
X181316667Y-57116666D01*
X181283333Y-57050000D01*
X181250000Y-57016666D01*
X177733333Y-56783333D02*
X177700000Y-56716667D01*
X177633333Y-56650000D01*
X177533333Y-56550000D01*
X177500000Y-56483333D01*
X177500000Y-56416667D01*
X177666667Y-56450000D02*
X177633333Y-56383333D01*
X177566667Y-56316667D01*
X177433333Y-56283333D01*
X177200000Y-56283333D01*
X177066667Y-56316667D01*
X177000000Y-56383333D01*
X176966667Y-56450000D01*
X176966667Y-56583333D01*
X177000000Y-56650000D01*
X177066667Y-56716667D01*
X177200000Y-56750000D01*
X177433333Y-56750000D01*
X177566667Y-56716667D01*
X177633333Y-56650000D01*
X177666667Y-56583333D01*
X177666667Y-56450000D01*
X176966667Y-57350000D02*
X176966667Y-57216666D01*
X177000000Y-57150000D01*
X177033333Y-57116666D01*
X177133333Y-57050000D01*
X177266667Y-57016666D01*
X177533333Y-57016666D01*
X177600000Y-57050000D01*
X177633333Y-57083333D01*
X177666667Y-57150000D01*
X177666667Y-57283333D01*
X177633333Y-57350000D01*
X177600000Y-57383333D01*
X177533333Y-57416666D01*
X177366667Y-57416666D01*
X177300000Y-57383333D01*
X177266667Y-57350000D01*
X177233333Y-57283333D01*
X177233333Y-57150000D01*
X177266667Y-57083333D01*
X177300000Y-57050000D01*
X177366667Y-57016666D01*
X174133333Y-56683333D02*
X174100000Y-56616667D01*
X174033333Y-56550000D01*
X173933333Y-56450000D01*
X173900000Y-56383333D01*
X173900000Y-56316667D01*
X174066667Y-56350000D02*
X174033333Y-56283333D01*
X173966667Y-56216667D01*
X173833333Y-56183333D01*
X173600000Y-56183333D01*
X173466667Y-56216667D01*
X173400000Y-56283333D01*
X173366667Y-56350000D01*
X173366667Y-56483333D01*
X173400000Y-56550000D01*
X173466667Y-56616667D01*
X173600000Y-56650000D01*
X173833333Y-56650000D01*
X173966667Y-56616667D01*
X174033333Y-56550000D01*
X174066667Y-56483333D01*
X174066667Y-56350000D01*
X173366667Y-56883333D02*
X173366667Y-57350000D01*
X174066667Y-57050000D01*
X170533333Y-56633333D02*
X170500000Y-56566667D01*
X170433333Y-56500000D01*
X170333333Y-56400000D01*
X170300000Y-56333333D01*
X170300000Y-56266667D01*
X170466667Y-56300000D02*
X170433333Y-56233333D01*
X170366667Y-56166667D01*
X170233333Y-56133333D01*
X170000000Y-56133333D01*
X169866667Y-56166667D01*
X169800000Y-56233333D01*
X169766667Y-56300000D01*
X169766667Y-56433333D01*
X169800000Y-56500000D01*
X169866667Y-56566667D01*
X170000000Y-56600000D01*
X170233333Y-56600000D01*
X170366667Y-56566667D01*
X170433333Y-56500000D01*
X170466667Y-56433333D01*
X170466667Y-56300000D01*
X170066667Y-57000000D02*
X170033333Y-56933333D01*
X170000000Y-56900000D01*
X169933333Y-56866666D01*
X169900000Y-56866666D01*
X169833333Y-56900000D01*
X169800000Y-56933333D01*
X169766667Y-57000000D01*
X169766667Y-57133333D01*
X169800000Y-57200000D01*
X169833333Y-57233333D01*
X169900000Y-57266666D01*
X169933333Y-57266666D01*
X170000000Y-57233333D01*
X170033333Y-57200000D01*
X170066667Y-57133333D01*
X170066667Y-57000000D01*
X170100000Y-56933333D01*
X170133333Y-56900000D01*
X170200000Y-56866666D01*
X170333333Y-56866666D01*
X170400000Y-56900000D01*
X170433333Y-56933333D01*
X170466667Y-57000000D01*
X170466667Y-57133333D01*
X170433333Y-57200000D01*
X170400000Y-57233333D01*
X170333333Y-57266666D01*
X170200000Y-57266666D01*
X170133333Y-57233333D01*
X170100000Y-57200000D01*
X170066667Y-57133333D01*
X166933333Y-56633333D02*
X166900000Y-56566667D01*
X166833333Y-56500000D01*
X166733333Y-56400000D01*
X166700000Y-56333333D01*
X166700000Y-56266667D01*
X166866667Y-56300000D02*
X166833333Y-56233333D01*
X166766667Y-56166667D01*
X166633333Y-56133333D01*
X166400000Y-56133333D01*
X166266667Y-56166667D01*
X166200000Y-56233333D01*
X166166667Y-56300000D01*
X166166667Y-56433333D01*
X166200000Y-56500000D01*
X166266667Y-56566667D01*
X166400000Y-56600000D01*
X166633333Y-56600000D01*
X166766667Y-56566667D01*
X166833333Y-56500000D01*
X166866667Y-56433333D01*
X166866667Y-56300000D01*
X166866667Y-56933333D02*
X166866667Y-57066666D01*
X166833333Y-57133333D01*
X166800000Y-57166666D01*
X166700000Y-57233333D01*
X166566667Y-57266666D01*
X166300000Y-57266666D01*
X166233333Y-57233333D01*
X166200000Y-57200000D01*
X166166667Y-57133333D01*
X166166667Y-57000000D01*
X166200000Y-56933333D01*
X166233333Y-56900000D01*
X166300000Y-56866666D01*
X166466667Y-56866666D01*
X166533333Y-56900000D01*
X166566667Y-56933333D01*
X166600000Y-57000000D01*
X166600000Y-57133333D01*
X166566667Y-57200000D01*
X166533333Y-57233333D01*
X166466667Y-57266666D01*
X163333333Y-56300000D02*
X163300000Y-56233334D01*
X163233333Y-56166667D01*
X163133333Y-56066667D01*
X163100000Y-56000000D01*
X163100000Y-55933334D01*
X163266667Y-55966667D02*
X163233333Y-55900000D01*
X163166667Y-55833334D01*
X163033333Y-55800000D01*
X162800000Y-55800000D01*
X162666667Y-55833334D01*
X162600000Y-55900000D01*
X162566667Y-55966667D01*
X162566667Y-56100000D01*
X162600000Y-56166667D01*
X162666667Y-56233334D01*
X162800000Y-56266667D01*
X163033333Y-56266667D01*
X163166667Y-56233334D01*
X163233333Y-56166667D01*
X163266667Y-56100000D01*
X163266667Y-55966667D01*
X163266667Y-56933333D02*
X163266667Y-56533333D01*
X163266667Y-56733333D02*
X162566667Y-56733333D01*
X162666667Y-56666667D01*
X162733333Y-56600000D01*
X162766667Y-56533333D01*
X162566667Y-57366667D02*
X162566667Y-57433334D01*
X162600000Y-57500000D01*
X162633333Y-57533334D01*
X162700000Y-57566667D01*
X162833333Y-57600000D01*
X163000000Y-57600000D01*
X163133333Y-57566667D01*
X163200000Y-57533334D01*
X163233333Y-57500000D01*
X163266667Y-57433334D01*
X163266667Y-57366667D01*
X163233333Y-57300000D01*
X163200000Y-57266667D01*
X163133333Y-57233334D01*
X163000000Y-57200000D01*
X162833333Y-57200000D01*
X162700000Y-57233334D01*
X162633333Y-57266667D01*
X162600000Y-57300000D01*
X162566667Y-57366667D01*
X159733333Y-56350000D02*
X159700000Y-56283334D01*
X159633333Y-56216667D01*
X159533333Y-56116667D01*
X159500000Y-56050000D01*
X159500000Y-55983334D01*
X159666667Y-56016667D02*
X159633333Y-55950000D01*
X159566667Y-55883334D01*
X159433333Y-55850000D01*
X159200000Y-55850000D01*
X159066667Y-55883334D01*
X159000000Y-55950000D01*
X158966667Y-56016667D01*
X158966667Y-56150000D01*
X159000000Y-56216667D01*
X159066667Y-56283334D01*
X159200000Y-56316667D01*
X159433333Y-56316667D01*
X159566667Y-56283334D01*
X159633333Y-56216667D01*
X159666667Y-56150000D01*
X159666667Y-56016667D01*
X159666667Y-56983333D02*
X159666667Y-56583333D01*
X159666667Y-56783333D02*
X158966667Y-56783333D01*
X159066667Y-56716667D01*
X159133333Y-56650000D01*
X159166667Y-56583333D01*
X159666667Y-57650000D02*
X159666667Y-57250000D01*
X159666667Y-57450000D02*
X158966667Y-57450000D01*
X159066667Y-57383334D01*
X159133333Y-57316667D01*
X159166667Y-57250000D01*
X156083333Y-56300000D02*
X156050000Y-56233334D01*
X155983333Y-56166667D01*
X155883333Y-56066667D01*
X155850000Y-56000000D01*
X155850000Y-55933334D01*
X156016667Y-55966667D02*
X155983333Y-55900000D01*
X155916667Y-55833334D01*
X155783333Y-55800000D01*
X155550000Y-55800000D01*
X155416667Y-55833334D01*
X155350000Y-55900000D01*
X155316667Y-55966667D01*
X155316667Y-56100000D01*
X155350000Y-56166667D01*
X155416667Y-56233334D01*
X155550000Y-56266667D01*
X155783333Y-56266667D01*
X155916667Y-56233334D01*
X155983333Y-56166667D01*
X156016667Y-56100000D01*
X156016667Y-55966667D01*
X156016667Y-56933333D02*
X156016667Y-56533333D01*
X156016667Y-56733333D02*
X155316667Y-56733333D01*
X155416667Y-56666667D01*
X155483333Y-56600000D01*
X155516667Y-56533333D01*
X155383333Y-57200000D02*
X155350000Y-57233334D01*
X155316667Y-57300000D01*
X155316667Y-57466667D01*
X155350000Y-57533334D01*
X155383333Y-57566667D01*
X155450000Y-57600000D01*
X155516667Y-57600000D01*
X155616667Y-57566667D01*
X156016667Y-57166667D01*
X156016667Y-57600000D01*
X152533333Y-56250000D02*
X152500000Y-56183334D01*
X152433333Y-56116667D01*
X152333333Y-56016667D01*
X152300000Y-55950000D01*
X152300000Y-55883334D01*
X152466667Y-55916667D02*
X152433333Y-55850000D01*
X152366667Y-55783334D01*
X152233333Y-55750000D01*
X152000000Y-55750000D01*
X151866667Y-55783334D01*
X151800000Y-55850000D01*
X151766667Y-55916667D01*
X151766667Y-56050000D01*
X151800000Y-56116667D01*
X151866667Y-56183334D01*
X152000000Y-56216667D01*
X152233333Y-56216667D01*
X152366667Y-56183334D01*
X152433333Y-56116667D01*
X152466667Y-56050000D01*
X152466667Y-55916667D01*
X152466667Y-56883333D02*
X152466667Y-56483333D01*
X152466667Y-56683333D02*
X151766667Y-56683333D01*
X151866667Y-56616667D01*
X151933333Y-56550000D01*
X151966667Y-56483333D01*
X151766667Y-57116667D02*
X151766667Y-57550000D01*
X152033333Y-57316667D01*
X152033333Y-57416667D01*
X152066667Y-57483334D01*
X152100000Y-57516667D01*
X152166667Y-57550000D01*
X152333333Y-57550000D01*
X152400000Y-57516667D01*
X152433333Y-57483334D01*
X152466667Y-57416667D01*
X152466667Y-57216667D01*
X152433333Y-57150000D01*
X152400000Y-57116667D01*
X148933333Y-56250000D02*
X148900000Y-56183334D01*
X148833333Y-56116667D01*
X148733333Y-56016667D01*
X148700000Y-55950000D01*
X148700000Y-55883334D01*
X148866667Y-55916667D02*
X148833333Y-55850000D01*
X148766667Y-55783334D01*
X148633333Y-55750000D01*
X148400000Y-55750000D01*
X148266667Y-55783334D01*
X148200000Y-55850000D01*
X148166667Y-55916667D01*
X148166667Y-56050000D01*
X148200000Y-56116667D01*
X148266667Y-56183334D01*
X148400000Y-56216667D01*
X148633333Y-56216667D01*
X148766667Y-56183334D01*
X148833333Y-56116667D01*
X148866667Y-56050000D01*
X148866667Y-55916667D01*
X148866667Y-56883333D02*
X148866667Y-56483333D01*
X148866667Y-56683333D02*
X148166667Y-56683333D01*
X148266667Y-56616667D01*
X148333333Y-56550000D01*
X148366667Y-56483333D01*
X148400000Y-57483334D02*
X148866667Y-57483334D01*
X148133333Y-57316667D02*
X148633333Y-57150000D01*
X148633333Y-57583334D01*
X145333333Y-58650000D02*
X145300000Y-58583334D01*
X145233333Y-58516667D01*
X145133333Y-58416667D01*
X145100000Y-58350000D01*
X145100000Y-58283334D01*
X145266667Y-58316667D02*
X145233333Y-58250000D01*
X145166667Y-58183334D01*
X145033333Y-58150000D01*
X144800000Y-58150000D01*
X144666667Y-58183334D01*
X144600000Y-58250000D01*
X144566667Y-58316667D01*
X144566667Y-58450000D01*
X144600000Y-58516667D01*
X144666667Y-58583334D01*
X144800000Y-58616667D01*
X145033333Y-58616667D01*
X145166667Y-58583334D01*
X145233333Y-58516667D01*
X145266667Y-58450000D01*
X145266667Y-58316667D01*
X145266667Y-59283333D02*
X145266667Y-58883333D01*
X145266667Y-59083333D02*
X144566667Y-59083333D01*
X144666667Y-59016667D01*
X144733333Y-58950000D01*
X144766667Y-58883333D01*
X144566667Y-59916667D02*
X144566667Y-59583334D01*
X144900000Y-59550000D01*
X144866667Y-59583334D01*
X144833333Y-59650000D01*
X144833333Y-59816667D01*
X144866667Y-59883334D01*
X144900000Y-59916667D01*
X144966667Y-59950000D01*
X145133333Y-59950000D01*
X145200000Y-59916667D01*
X145233333Y-59883334D01*
X145266667Y-59816667D01*
X145266667Y-59650000D01*
X145233333Y-59583334D01*
X145200000Y-59550000D01*
X141733333Y-58700000D02*
X141700000Y-58633334D01*
X141633333Y-58566667D01*
X141533333Y-58466667D01*
X141500000Y-58400000D01*
X141500000Y-58333334D01*
X141666667Y-58366667D02*
X141633333Y-58300000D01*
X141566667Y-58233334D01*
X141433333Y-58200000D01*
X141200000Y-58200000D01*
X141066667Y-58233334D01*
X141000000Y-58300000D01*
X140966667Y-58366667D01*
X140966667Y-58500000D01*
X141000000Y-58566667D01*
X141066667Y-58633334D01*
X141200000Y-58666667D01*
X141433333Y-58666667D01*
X141566667Y-58633334D01*
X141633333Y-58566667D01*
X141666667Y-58500000D01*
X141666667Y-58366667D01*
X141666667Y-59333333D02*
X141666667Y-58933333D01*
X141666667Y-59133333D02*
X140966667Y-59133333D01*
X141066667Y-59066667D01*
X141133333Y-59000000D01*
X141166667Y-58933333D01*
X140966667Y-59933334D02*
X140966667Y-59800000D01*
X141000000Y-59733334D01*
X141033333Y-59700000D01*
X141133333Y-59633334D01*
X141266667Y-59600000D01*
X141533333Y-59600000D01*
X141600000Y-59633334D01*
X141633333Y-59666667D01*
X141666667Y-59733334D01*
X141666667Y-59866667D01*
X141633333Y-59933334D01*
X141600000Y-59966667D01*
X141533333Y-60000000D01*
X141366667Y-60000000D01*
X141300000Y-59966667D01*
X141266667Y-59933334D01*
X141233333Y-59866667D01*
X141233333Y-59733334D01*
X141266667Y-59666667D01*
X141300000Y-59633334D01*
X141366667Y-59600000D01*
X186566666Y-80152381D02*
X186900000Y-79676190D01*
X187138095Y-80152381D02*
X187138095Y-79152381D01*
X186757142Y-79152381D01*
X186661904Y-79200000D01*
X186614285Y-79247619D01*
X186566666Y-79342857D01*
X186566666Y-79485714D01*
X186614285Y-79580952D01*
X186661904Y-79628571D01*
X186757142Y-79676190D01*
X187138095Y-79676190D01*
X186233333Y-79152381D02*
X185614285Y-79152381D01*
X185947619Y-79533333D01*
X185804761Y-79533333D01*
X185709523Y-79580952D01*
X185661904Y-79628571D01*
X185614285Y-79723810D01*
X185614285Y-79961905D01*
X185661904Y-80057143D01*
X185709523Y-80104762D01*
X185804761Y-80152381D01*
X186090476Y-80152381D01*
X186185714Y-80104762D01*
X186233333Y-80057143D01*
X179466666Y-69752381D02*
X179800000Y-69276190D01*
X180038095Y-69752381D02*
X180038095Y-68752381D01*
X179657142Y-68752381D01*
X179561904Y-68800000D01*
X179514285Y-68847619D01*
X179466666Y-68942857D01*
X179466666Y-69085714D01*
X179514285Y-69180952D01*
X179561904Y-69228571D01*
X179657142Y-69276190D01*
X180038095Y-69276190D01*
X178609523Y-69085714D02*
X178609523Y-69752381D01*
X178847619Y-68704762D02*
X179085714Y-69419048D01*
X178466666Y-69419048D01*
X176916666Y-69752381D02*
X177250000Y-69276190D01*
X177488095Y-69752381D02*
X177488095Y-68752381D01*
X177107142Y-68752381D01*
X177011904Y-68800000D01*
X176964285Y-68847619D01*
X176916666Y-68942857D01*
X176916666Y-69085714D01*
X176964285Y-69180952D01*
X177011904Y-69228571D01*
X177107142Y-69276190D01*
X177488095Y-69276190D01*
X176011904Y-68752381D02*
X176488095Y-68752381D01*
X176535714Y-69228571D01*
X176488095Y-69180952D01*
X176392857Y-69133333D01*
X176154761Y-69133333D01*
X176059523Y-69180952D01*
X176011904Y-69228571D01*
X175964285Y-69323810D01*
X175964285Y-69561905D01*
X176011904Y-69657143D01*
X176059523Y-69704762D01*
X176154761Y-69752381D01*
X176392857Y-69752381D01*
X176488095Y-69704762D01*
X176535714Y-69657143D01*
X184366666Y-83102381D02*
X184700000Y-82626190D01*
X184938095Y-83102381D02*
X184938095Y-82102381D01*
X184557142Y-82102381D01*
X184461904Y-82150000D01*
X184414285Y-82197619D01*
X184366666Y-82292857D01*
X184366666Y-82435714D01*
X184414285Y-82530952D01*
X184461904Y-82578571D01*
X184557142Y-82626190D01*
X184938095Y-82626190D01*
X183509523Y-82102381D02*
X183700000Y-82102381D01*
X183795238Y-82150000D01*
X183842857Y-82197619D01*
X183938095Y-82340476D01*
X183985714Y-82530952D01*
X183985714Y-82911905D01*
X183938095Y-83007143D01*
X183890476Y-83054762D01*
X183795238Y-83102381D01*
X183604761Y-83102381D01*
X183509523Y-83054762D01*
X183461904Y-83007143D01*
X183414285Y-82911905D01*
X183414285Y-82673810D01*
X183461904Y-82578571D01*
X183509523Y-82530952D01*
X183604761Y-82483333D01*
X183795238Y-82483333D01*
X183890476Y-82530952D01*
X183938095Y-82578571D01*
X183985714Y-82673810D01*
X181816666Y-83102381D02*
X182150000Y-82626190D01*
X182388095Y-83102381D02*
X182388095Y-82102381D01*
X182007142Y-82102381D01*
X181911904Y-82150000D01*
X181864285Y-82197619D01*
X181816666Y-82292857D01*
X181816666Y-82435714D01*
X181864285Y-82530952D01*
X181911904Y-82578571D01*
X182007142Y-82626190D01*
X182388095Y-82626190D01*
X181483333Y-82102381D02*
X180816666Y-82102381D01*
X181245238Y-83102381D01*
X145911905Y-68316667D02*
X145530952Y-68050000D01*
X145911905Y-67859524D02*
X145111905Y-67859524D01*
X145111905Y-68164286D01*
X145150000Y-68240477D01*
X145188095Y-68278572D01*
X145264286Y-68316667D01*
X145378571Y-68316667D01*
X145454762Y-68278572D01*
X145492857Y-68240477D01*
X145530952Y-68164286D01*
X145530952Y-67859524D01*
X145454762Y-68773810D02*
X145416667Y-68697619D01*
X145378571Y-68659524D01*
X145302381Y-68621429D01*
X145264286Y-68621429D01*
X145188095Y-68659524D01*
X145150000Y-68697619D01*
X145111905Y-68773810D01*
X145111905Y-68926191D01*
X145150000Y-69002381D01*
X145188095Y-69040477D01*
X145264286Y-69078572D01*
X145302381Y-69078572D01*
X145378571Y-69040477D01*
X145416667Y-69002381D01*
X145454762Y-68926191D01*
X145454762Y-68773810D01*
X145492857Y-68697619D01*
X145530952Y-68659524D01*
X145607143Y-68621429D01*
X145759524Y-68621429D01*
X145835714Y-68659524D01*
X145873810Y-68697619D01*
X145911905Y-68773810D01*
X145911905Y-68926191D01*
X145873810Y-69002381D01*
X145835714Y-69040477D01*
X145759524Y-69078572D01*
X145607143Y-69078572D01*
X145530952Y-69040477D01*
X145492857Y-69002381D01*
X145454762Y-68926191D01*
X149483333Y-72211905D02*
X149750000Y-71830952D01*
X149940476Y-72211905D02*
X149940476Y-71411905D01*
X149635714Y-71411905D01*
X149559523Y-71450000D01*
X149521428Y-71488095D01*
X149483333Y-71564286D01*
X149483333Y-71678571D01*
X149521428Y-71754762D01*
X149559523Y-71792857D01*
X149635714Y-71830952D01*
X149940476Y-71830952D01*
X149102381Y-72211905D02*
X148950000Y-72211905D01*
X148873809Y-72173810D01*
X148835714Y-72135714D01*
X148759523Y-72021429D01*
X148721428Y-71869048D01*
X148721428Y-71564286D01*
X148759523Y-71488095D01*
X148797619Y-71450000D01*
X148873809Y-71411905D01*
X149026190Y-71411905D01*
X149102381Y-71450000D01*
X149140476Y-71488095D01*
X149178571Y-71564286D01*
X149178571Y-71754762D01*
X149140476Y-71830952D01*
X149102381Y-71869048D01*
X149026190Y-71907143D01*
X148873809Y-71907143D01*
X148797619Y-71869048D01*
X148759523Y-71830952D01*
X148721428Y-71754762D01*
X148014286Y-68661905D02*
X148280953Y-68280952D01*
X148471429Y-68661905D02*
X148471429Y-67861905D01*
X148166667Y-67861905D01*
X148090476Y-67900000D01*
X148052381Y-67938095D01*
X148014286Y-68014286D01*
X148014286Y-68128571D01*
X148052381Y-68204762D01*
X148090476Y-68242857D01*
X148166667Y-68280952D01*
X148471429Y-68280952D01*
X147252381Y-68661905D02*
X147709524Y-68661905D01*
X147480953Y-68661905D02*
X147480953Y-67861905D01*
X147557143Y-67976190D01*
X147633334Y-68052381D01*
X147709524Y-68090476D01*
X146985714Y-67861905D02*
X146490476Y-67861905D01*
X146757143Y-68166667D01*
X146642857Y-68166667D01*
X146566667Y-68204762D01*
X146528571Y-68242857D01*
X146490476Y-68319048D01*
X146490476Y-68509524D01*
X146528571Y-68585714D01*
X146566667Y-68623810D01*
X146642857Y-68661905D01*
X146871429Y-68661905D01*
X146947619Y-68623810D01*
X146985714Y-68585714D01*
X148542857Y-75852381D02*
X148876191Y-75376190D01*
X149114286Y-75852381D02*
X149114286Y-74852381D01*
X148733333Y-74852381D01*
X148638095Y-74900000D01*
X148590476Y-74947619D01*
X148542857Y-75042857D01*
X148542857Y-75185714D01*
X148590476Y-75280952D01*
X148638095Y-75328571D01*
X148733333Y-75376190D01*
X149114286Y-75376190D01*
X147590476Y-75852381D02*
X148161905Y-75852381D01*
X147876191Y-75852381D02*
X147876191Y-74852381D01*
X147971429Y-74995238D01*
X148066667Y-75090476D01*
X148161905Y-75138095D01*
X146733333Y-75185714D02*
X146733333Y-75852381D01*
X146971429Y-74804762D02*
X147209524Y-75519048D01*
X146590476Y-75519048D01*
X154916667Y-81950000D02*
X154583333Y-81716666D01*
X154916667Y-81550000D02*
X154216667Y-81550000D01*
X154216667Y-81816666D01*
X154250000Y-81883333D01*
X154283333Y-81916666D01*
X154350000Y-81950000D01*
X154450000Y-81950000D01*
X154516667Y-81916666D01*
X154550000Y-81883333D01*
X154583333Y-81816666D01*
X154583333Y-81550000D01*
X154916667Y-82616666D02*
X154916667Y-82216666D01*
X154916667Y-82416666D02*
X154216667Y-82416666D01*
X154316667Y-82350000D01*
X154383333Y-82283333D01*
X154416667Y-82216666D01*
X154216667Y-83250000D02*
X154216667Y-82916667D01*
X154550000Y-82883333D01*
X154516667Y-82916667D01*
X154483333Y-82983333D01*
X154483333Y-83150000D01*
X154516667Y-83216667D01*
X154550000Y-83250000D01*
X154616667Y-83283333D01*
X154783333Y-83283333D01*
X154850000Y-83250000D01*
X154883333Y-83216667D01*
X154916667Y-83150000D01*
X154916667Y-82983333D01*
X154883333Y-82916667D01*
X154850000Y-82883333D01*
X157200000Y-84116667D02*
X157433334Y-83783333D01*
X157600000Y-84116667D02*
X157600000Y-83416667D01*
X157333334Y-83416667D01*
X157266667Y-83450000D01*
X157233334Y-83483333D01*
X157200000Y-83550000D01*
X157200000Y-83650000D01*
X157233334Y-83716667D01*
X157266667Y-83750000D01*
X157333334Y-83783333D01*
X157600000Y-83783333D01*
X156533334Y-84116667D02*
X156933334Y-84116667D01*
X156733334Y-84116667D02*
X156733334Y-83416667D01*
X156800000Y-83516667D01*
X156866667Y-83583333D01*
X156933334Y-83616667D01*
X156300000Y-83416667D02*
X155833333Y-83416667D01*
X156133333Y-84116667D01*
X174550000Y-67016667D02*
X174783334Y-66683333D01*
X174950000Y-67016667D02*
X174950000Y-66316667D01*
X174683334Y-66316667D01*
X174616667Y-66350000D01*
X174583334Y-66383333D01*
X174550000Y-66450000D01*
X174550000Y-66550000D01*
X174583334Y-66616667D01*
X174616667Y-66650000D01*
X174683334Y-66683333D01*
X174950000Y-66683333D01*
X173883334Y-67016667D02*
X174283334Y-67016667D01*
X174083334Y-67016667D02*
X174083334Y-66316667D01*
X174150000Y-66416667D01*
X174216667Y-66483333D01*
X174283334Y-66516667D01*
X173550000Y-67016667D02*
X173416667Y-67016667D01*
X173350000Y-66983333D01*
X173316667Y-66950000D01*
X173250000Y-66850000D01*
X173216667Y-66716667D01*
X173216667Y-66450000D01*
X173250000Y-66383333D01*
X173283333Y-66350000D01*
X173350000Y-66316667D01*
X173483333Y-66316667D01*
X173550000Y-66350000D01*
X173583333Y-66383333D01*
X173616667Y-66450000D01*
X173616667Y-66616667D01*
X173583333Y-66683333D01*
X173550000Y-66716667D01*
X173483333Y-66750000D01*
X173350000Y-66750000D01*
X173283333Y-66716667D01*
X173250000Y-66683333D01*
X173216667Y-66616667D01*
X157261905Y-62885714D02*
X156880952Y-62619047D01*
X157261905Y-62428571D02*
X156461905Y-62428571D01*
X156461905Y-62733333D01*
X156500000Y-62809524D01*
X156538095Y-62847619D01*
X156614286Y-62885714D01*
X156728571Y-62885714D01*
X156804762Y-62847619D01*
X156842857Y-62809524D01*
X156880952Y-62733333D01*
X156880952Y-62428571D01*
X156538095Y-63190476D02*
X156500000Y-63228571D01*
X156461905Y-63304762D01*
X156461905Y-63495238D01*
X156500000Y-63571428D01*
X156538095Y-63609524D01*
X156614286Y-63647619D01*
X156690476Y-63647619D01*
X156804762Y-63609524D01*
X157261905Y-63152381D01*
X157261905Y-63647619D01*
X157261905Y-64409524D02*
X157261905Y-63952381D01*
X157261905Y-64180952D02*
X156461905Y-64180952D01*
X156576190Y-64104762D01*
X156652381Y-64028571D01*
X156690476Y-63952381D01*
X160161905Y-62885714D02*
X159780952Y-62619047D01*
X160161905Y-62428571D02*
X159361905Y-62428571D01*
X159361905Y-62733333D01*
X159400000Y-62809524D01*
X159438095Y-62847619D01*
X159514286Y-62885714D01*
X159628571Y-62885714D01*
X159704762Y-62847619D01*
X159742857Y-62809524D01*
X159780952Y-62733333D01*
X159780952Y-62428571D01*
X159438095Y-63190476D02*
X159400000Y-63228571D01*
X159361905Y-63304762D01*
X159361905Y-63495238D01*
X159400000Y-63571428D01*
X159438095Y-63609524D01*
X159514286Y-63647619D01*
X159590476Y-63647619D01*
X159704762Y-63609524D01*
X160161905Y-63152381D01*
X160161905Y-63647619D01*
X159361905Y-63914286D02*
X159361905Y-64409524D01*
X159666667Y-64142857D01*
X159666667Y-64257143D01*
X159704762Y-64333333D01*
X159742857Y-64371429D01*
X159819048Y-64409524D01*
X160009524Y-64409524D01*
X160085714Y-64371429D01*
X160123810Y-64333333D01*
X160161905Y-64257143D01*
X160161905Y-64028571D01*
X160123810Y-63952381D01*
X160085714Y-63914286D01*
X158761905Y-62935714D02*
X158380952Y-62669047D01*
X158761905Y-62478571D02*
X157961905Y-62478571D01*
X157961905Y-62783333D01*
X158000000Y-62859524D01*
X158038095Y-62897619D01*
X158114286Y-62935714D01*
X158228571Y-62935714D01*
X158304762Y-62897619D01*
X158342857Y-62859524D01*
X158380952Y-62783333D01*
X158380952Y-62478571D01*
X158038095Y-63240476D02*
X158000000Y-63278571D01*
X157961905Y-63354762D01*
X157961905Y-63545238D01*
X158000000Y-63621428D01*
X158038095Y-63659524D01*
X158114286Y-63697619D01*
X158190476Y-63697619D01*
X158304762Y-63659524D01*
X158761905Y-63202381D01*
X158761905Y-63697619D01*
X158228571Y-64383333D02*
X158761905Y-64383333D01*
X157923810Y-64192857D02*
X158495238Y-64002381D01*
X158495238Y-64497619D01*
X155761905Y-62835714D02*
X155380952Y-62569047D01*
X155761905Y-62378571D02*
X154961905Y-62378571D01*
X154961905Y-62683333D01*
X155000000Y-62759524D01*
X155038095Y-62797619D01*
X155114286Y-62835714D01*
X155228571Y-62835714D01*
X155304762Y-62797619D01*
X155342857Y-62759524D01*
X155380952Y-62683333D01*
X155380952Y-62378571D01*
X155038095Y-63140476D02*
X155000000Y-63178571D01*
X154961905Y-63254762D01*
X154961905Y-63445238D01*
X155000000Y-63521428D01*
X155038095Y-63559524D01*
X155114286Y-63597619D01*
X155190476Y-63597619D01*
X155304762Y-63559524D01*
X155761905Y-63102381D01*
X155761905Y-63597619D01*
X154961905Y-64321429D02*
X154961905Y-63940476D01*
X155342857Y-63902381D01*
X155304762Y-63940476D01*
X155266667Y-64016667D01*
X155266667Y-64207143D01*
X155304762Y-64283333D01*
X155342857Y-64321429D01*
X155419048Y-64359524D01*
X155609524Y-64359524D01*
X155685714Y-64321429D01*
X155723810Y-64283333D01*
X155761905Y-64207143D01*
X155761905Y-64016667D01*
X155723810Y-63940476D01*
X155685714Y-63902381D01*
X175000000Y-62916667D02*
X175233334Y-62583333D01*
X175400000Y-62916667D02*
X175400000Y-62216667D01*
X175133334Y-62216667D01*
X175066667Y-62250000D01*
X175033334Y-62283333D01*
X175000000Y-62350000D01*
X175000000Y-62450000D01*
X175033334Y-62516667D01*
X175066667Y-62550000D01*
X175133334Y-62583333D01*
X175400000Y-62583333D01*
X174733334Y-62283333D02*
X174700000Y-62250000D01*
X174633334Y-62216667D01*
X174466667Y-62216667D01*
X174400000Y-62250000D01*
X174366667Y-62283333D01*
X174333334Y-62350000D01*
X174333334Y-62416667D01*
X174366667Y-62516667D01*
X174766667Y-62916667D01*
X174333334Y-62916667D01*
X173733333Y-62216667D02*
X173866667Y-62216667D01*
X173933333Y-62250000D01*
X173966667Y-62283333D01*
X174033333Y-62383333D01*
X174066667Y-62516667D01*
X174066667Y-62783333D01*
X174033333Y-62850000D01*
X174000000Y-62883333D01*
X173933333Y-62916667D01*
X173800000Y-62916667D01*
X173733333Y-62883333D01*
X173700000Y-62850000D01*
X173666667Y-62783333D01*
X173666667Y-62616667D01*
X173700000Y-62550000D01*
X173733333Y-62516667D01*
X173800000Y-62483333D01*
X173933333Y-62483333D01*
X174000000Y-62516667D01*
X174033333Y-62550000D01*
X174066667Y-62616667D01*
X142350000Y-65366667D02*
X142583334Y-65033333D01*
X142750000Y-65366667D02*
X142750000Y-64666667D01*
X142483334Y-64666667D01*
X142416667Y-64700000D01*
X142383334Y-64733333D01*
X142350000Y-64800000D01*
X142350000Y-64900000D01*
X142383334Y-64966667D01*
X142416667Y-65000000D01*
X142483334Y-65033333D01*
X142750000Y-65033333D01*
X142083334Y-64733333D02*
X142050000Y-64700000D01*
X141983334Y-64666667D01*
X141816667Y-64666667D01*
X141750000Y-64700000D01*
X141716667Y-64733333D01*
X141683334Y-64800000D01*
X141683334Y-64866667D01*
X141716667Y-64966667D01*
X142116667Y-65366667D01*
X141683334Y-65366667D01*
X141450000Y-64666667D02*
X140983333Y-64666667D01*
X141283333Y-65366667D01*
X192771429Y-57514285D02*
X192485714Y-57314285D01*
X192771429Y-57171428D02*
X192171429Y-57171428D01*
X192171429Y-57400000D01*
X192200000Y-57457142D01*
X192228571Y-57485714D01*
X192285714Y-57514285D01*
X192371429Y-57514285D01*
X192428571Y-57485714D01*
X192457143Y-57457142D01*
X192485714Y-57400000D01*
X192485714Y-57171428D01*
X192171429Y-58028571D02*
X192171429Y-57914285D01*
X192200000Y-57857142D01*
X192228571Y-57828571D01*
X192314286Y-57771428D01*
X192428571Y-57742857D01*
X192657143Y-57742857D01*
X192714286Y-57771428D01*
X192742857Y-57800000D01*
X192771429Y-57857142D01*
X192771429Y-57971428D01*
X192742857Y-58028571D01*
X192714286Y-58057142D01*
X192657143Y-58085714D01*
X192514286Y-58085714D01*
X192457143Y-58057142D01*
X192428571Y-58028571D01*
X192400000Y-57971428D01*
X192400000Y-57857142D01*
X192428571Y-57800000D01*
X192457143Y-57771428D01*
X192514286Y-57742857D01*
X192371429Y-58600000D02*
X192771429Y-58600000D01*
X192142857Y-58457143D02*
X192571429Y-58314286D01*
X192571429Y-58685714D01*
X194335715Y-60471429D02*
X194535715Y-60185714D01*
X194678572Y-60471429D02*
X194678572Y-59871429D01*
X194450000Y-59871429D01*
X194392858Y-59900000D01*
X194364286Y-59928571D01*
X194335715Y-59985714D01*
X194335715Y-60071429D01*
X194364286Y-60128571D01*
X194392858Y-60157143D01*
X194450000Y-60185714D01*
X194678572Y-60185714D01*
X193821429Y-59871429D02*
X193935715Y-59871429D01*
X193992858Y-59900000D01*
X194021429Y-59928571D01*
X194078572Y-60014286D01*
X194107143Y-60128571D01*
X194107143Y-60357143D01*
X194078572Y-60414286D01*
X194050000Y-60442857D01*
X193992858Y-60471429D01*
X193878572Y-60471429D01*
X193821429Y-60442857D01*
X193792858Y-60414286D01*
X193764286Y-60357143D01*
X193764286Y-60214286D01*
X193792858Y-60157143D01*
X193821429Y-60128571D01*
X193878572Y-60100000D01*
X193992858Y-60100000D01*
X194050000Y-60128571D01*
X194078572Y-60157143D01*
X194107143Y-60214286D01*
X193221429Y-59871429D02*
X193507143Y-59871429D01*
X193535714Y-60157143D01*
X193507143Y-60128571D01*
X193450000Y-60100000D01*
X193307143Y-60100000D01*
X193250000Y-60128571D01*
X193221429Y-60157143D01*
X193192857Y-60214286D01*
X193192857Y-60357143D01*
X193221429Y-60414286D01*
X193250000Y-60442857D01*
X193307143Y-60471429D01*
X193450000Y-60471429D01*
X193507143Y-60442857D01*
X193535714Y-60414286D01*
X198352381Y-57607143D02*
X197876190Y-57273809D01*
X198352381Y-57035714D02*
X197352381Y-57035714D01*
X197352381Y-57416667D01*
X197400000Y-57511905D01*
X197447619Y-57559524D01*
X197542857Y-57607143D01*
X197685714Y-57607143D01*
X197780952Y-57559524D01*
X197828571Y-57511905D01*
X197876190Y-57416667D01*
X197876190Y-57035714D01*
X197352381Y-58464286D02*
X197352381Y-58273809D01*
X197400000Y-58178571D01*
X197447619Y-58130952D01*
X197590476Y-58035714D01*
X197780952Y-57988095D01*
X198161905Y-57988095D01*
X198257143Y-58035714D01*
X198304762Y-58083333D01*
X198352381Y-58178571D01*
X198352381Y-58369048D01*
X198304762Y-58464286D01*
X198257143Y-58511905D01*
X198161905Y-58559524D01*
X197923810Y-58559524D01*
X197828571Y-58511905D01*
X197780952Y-58464286D01*
X197733333Y-58369048D01*
X197733333Y-58178571D01*
X197780952Y-58083333D01*
X197828571Y-58035714D01*
X197923810Y-57988095D01*
X197352381Y-59416667D02*
X197352381Y-59226190D01*
X197400000Y-59130952D01*
X197447619Y-59083333D01*
X197590476Y-58988095D01*
X197780952Y-58940476D01*
X198161905Y-58940476D01*
X198257143Y-58988095D01*
X198304762Y-59035714D01*
X198352381Y-59130952D01*
X198352381Y-59321429D01*
X198304762Y-59416667D01*
X198257143Y-59464286D01*
X198161905Y-59511905D01*
X197923810Y-59511905D01*
X197828571Y-59464286D01*
X197780952Y-59416667D01*
X197733333Y-59321429D01*
X197733333Y-59130952D01*
X197780952Y-59035714D01*
X197828571Y-58988095D01*
X197923810Y-58940476D01*
X172414286Y-79711905D02*
X172680953Y-79330952D01*
X172871429Y-79711905D02*
X172871429Y-78911905D01*
X172566667Y-78911905D01*
X172490476Y-78950000D01*
X172452381Y-78988095D01*
X172414286Y-79064286D01*
X172414286Y-79178571D01*
X172452381Y-79254762D01*
X172490476Y-79292857D01*
X172566667Y-79330952D01*
X172871429Y-79330952D01*
X171728572Y-78911905D02*
X171880953Y-78911905D01*
X171957143Y-78950000D01*
X171995238Y-78988095D01*
X172071429Y-79102381D01*
X172109524Y-79254762D01*
X172109524Y-79559524D01*
X172071429Y-79635714D01*
X172033334Y-79673810D01*
X171957143Y-79711905D01*
X171804762Y-79711905D01*
X171728572Y-79673810D01*
X171690476Y-79635714D01*
X171652381Y-79559524D01*
X171652381Y-79369048D01*
X171690476Y-79292857D01*
X171728572Y-79254762D01*
X171804762Y-79216667D01*
X171957143Y-79216667D01*
X172033334Y-79254762D01*
X172071429Y-79292857D01*
X172109524Y-79369048D01*
X171385714Y-78911905D02*
X170852381Y-78911905D01*
X171195238Y-79711905D01*
X175261905Y-71735714D02*
X174880952Y-71469047D01*
X175261905Y-71278571D02*
X174461905Y-71278571D01*
X174461905Y-71583333D01*
X174500000Y-71659524D01*
X174538095Y-71697619D01*
X174614286Y-71735714D01*
X174728571Y-71735714D01*
X174804762Y-71697619D01*
X174842857Y-71659524D01*
X174880952Y-71583333D01*
X174880952Y-71278571D01*
X174461905Y-72421428D02*
X174461905Y-72269047D01*
X174500000Y-72192857D01*
X174538095Y-72154762D01*
X174652381Y-72078571D01*
X174804762Y-72040476D01*
X175109524Y-72040476D01*
X175185714Y-72078571D01*
X175223810Y-72116666D01*
X175261905Y-72192857D01*
X175261905Y-72345238D01*
X175223810Y-72421428D01*
X175185714Y-72459524D01*
X175109524Y-72497619D01*
X174919048Y-72497619D01*
X174842857Y-72459524D01*
X174804762Y-72421428D01*
X174766667Y-72345238D01*
X174766667Y-72192857D01*
X174804762Y-72116666D01*
X174842857Y-72078571D01*
X174919048Y-72040476D01*
X175261905Y-72878571D02*
X175261905Y-73030952D01*
X175223810Y-73107143D01*
X175185714Y-73145238D01*
X175071429Y-73221429D01*
X174919048Y-73259524D01*
X174614286Y-73259524D01*
X174538095Y-73221429D01*
X174500000Y-73183333D01*
X174461905Y-73107143D01*
X174461905Y-72954762D01*
X174500000Y-72878571D01*
X174538095Y-72840476D01*
X174614286Y-72802381D01*
X174804762Y-72802381D01*
X174880952Y-72840476D01*
X174919048Y-72878571D01*
X174957143Y-72954762D01*
X174957143Y-73107143D01*
X174919048Y-73183333D01*
X174880952Y-73221429D01*
X174804762Y-73259524D01*
X173661905Y-82385714D02*
X173280952Y-82119047D01*
X173661905Y-81928571D02*
X172861905Y-81928571D01*
X172861905Y-82233333D01*
X172900000Y-82309524D01*
X172938095Y-82347619D01*
X173014286Y-82385714D01*
X173128571Y-82385714D01*
X173204762Y-82347619D01*
X173242857Y-82309524D01*
X173280952Y-82233333D01*
X173280952Y-81928571D01*
X172861905Y-82652381D02*
X172861905Y-83185714D01*
X173661905Y-82842857D01*
X172861905Y-83642857D02*
X172861905Y-83719048D01*
X172900000Y-83795238D01*
X172938095Y-83833333D01*
X173014286Y-83871429D01*
X173166667Y-83909524D01*
X173357143Y-83909524D01*
X173509524Y-83871429D01*
X173585714Y-83833333D01*
X173623810Y-83795238D01*
X173661905Y-83719048D01*
X173661905Y-83642857D01*
X173623810Y-83566667D01*
X173585714Y-83528571D01*
X173509524Y-83490476D01*
X173357143Y-83452381D01*
X173166667Y-83452381D01*
X173014286Y-83490476D01*
X172938095Y-83528571D01*
X172900000Y-83566667D01*
X172861905Y-83642857D01*
X177142857Y-84202381D02*
X177476191Y-83726190D01*
X177714286Y-84202381D02*
X177714286Y-83202381D01*
X177333333Y-83202381D01*
X177238095Y-83250000D01*
X177190476Y-83297619D01*
X177142857Y-83392857D01*
X177142857Y-83535714D01*
X177190476Y-83630952D01*
X177238095Y-83678571D01*
X177333333Y-83726190D01*
X177714286Y-83726190D01*
X176809524Y-83202381D02*
X176142857Y-83202381D01*
X176571429Y-84202381D01*
X175238095Y-84202381D02*
X175809524Y-84202381D01*
X175523810Y-84202381D02*
X175523810Y-83202381D01*
X175619048Y-83345238D01*
X175714286Y-83440476D01*
X175809524Y-83488095D01*
X174961905Y-83185714D02*
X174580952Y-82919047D01*
X174961905Y-82728571D02*
X174161905Y-82728571D01*
X174161905Y-83033333D01*
X174200000Y-83109524D01*
X174238095Y-83147619D01*
X174314286Y-83185714D01*
X174428571Y-83185714D01*
X174504762Y-83147619D01*
X174542857Y-83109524D01*
X174580952Y-83033333D01*
X174580952Y-82728571D01*
X174161905Y-83452381D02*
X174161905Y-83985714D01*
X174961905Y-83642857D01*
X174238095Y-84252381D02*
X174200000Y-84290476D01*
X174161905Y-84366667D01*
X174161905Y-84557143D01*
X174200000Y-84633333D01*
X174238095Y-84671429D01*
X174314286Y-84709524D01*
X174390476Y-84709524D01*
X174504762Y-84671429D01*
X174961905Y-84214286D01*
X174961905Y-84709524D01*
X151661905Y-75552381D02*
X151661905Y-76361905D01*
X151614286Y-76457143D01*
X151566667Y-76504762D01*
X151471429Y-76552381D01*
X151280952Y-76552381D01*
X151185714Y-76504762D01*
X151138095Y-76457143D01*
X151090476Y-76361905D01*
X151090476Y-75552381D01*
X150090476Y-76552381D02*
X150661905Y-76552381D01*
X150376191Y-76552381D02*
X150376191Y-75552381D01*
X150471429Y-75695238D01*
X150566667Y-75790476D01*
X150661905Y-75838095D01*
X155061905Y-68302381D02*
X155061905Y-69111905D01*
X155014286Y-69207143D01*
X154966667Y-69254762D01*
X154871429Y-69302381D01*
X154680952Y-69302381D01*
X154585714Y-69254762D01*
X154538095Y-69207143D01*
X154490476Y-69111905D01*
X154490476Y-68302381D01*
X154061905Y-68397619D02*
X154014286Y-68350000D01*
X153919048Y-68302381D01*
X153680952Y-68302381D01*
X153585714Y-68350000D01*
X153538095Y-68397619D01*
X153490476Y-68492857D01*
X153490476Y-68588095D01*
X153538095Y-68730952D01*
X154109524Y-69302381D01*
X153490476Y-69302381D01*
X196283333Y-65866667D02*
X196283333Y-66433333D01*
X196250000Y-66500000D01*
X196216667Y-66533333D01*
X196150000Y-66566667D01*
X196016667Y-66566667D01*
X195950000Y-66533333D01*
X195916667Y-66500000D01*
X195883333Y-66433333D01*
X195883333Y-65866667D01*
X195250000Y-66100000D02*
X195250000Y-66566667D01*
X195416667Y-65833333D02*
X195583334Y-66333333D01*
X195150000Y-66333333D01*
X189209524Y-60361905D02*
X189209524Y-61009524D01*
X189171429Y-61085714D01*
X189133333Y-61123810D01*
X189057143Y-61161905D01*
X188904762Y-61161905D01*
X188828571Y-61123810D01*
X188790476Y-61085714D01*
X188752381Y-61009524D01*
X188752381Y-60361905D01*
X187990476Y-60361905D02*
X188371429Y-60361905D01*
X188409524Y-60742857D01*
X188371429Y-60704762D01*
X188295238Y-60666667D01*
X188104762Y-60666667D01*
X188028572Y-60704762D01*
X187990476Y-60742857D01*
X187952381Y-60819048D01*
X187952381Y-61009524D01*
X187990476Y-61085714D01*
X188028572Y-61123810D01*
X188104762Y-61161905D01*
X188295238Y-61161905D01*
X188371429Y-61123810D01*
X188409524Y-61085714D01*
X167052381Y-74588095D02*
X167861905Y-74588095D01*
X167957143Y-74635714D01*
X168004762Y-74683333D01*
X168052381Y-74778571D01*
X168052381Y-74969048D01*
X168004762Y-75064286D01*
X167957143Y-75111905D01*
X167861905Y-75159524D01*
X167052381Y-75159524D01*
X167052381Y-76064286D02*
X167052381Y-75873809D01*
X167100000Y-75778571D01*
X167147619Y-75730952D01*
X167290476Y-75635714D01*
X167480952Y-75588095D01*
X167861905Y-75588095D01*
X167957143Y-75635714D01*
X168004762Y-75683333D01*
X168052381Y-75778571D01*
X168052381Y-75969048D01*
X168004762Y-76064286D01*
X167957143Y-76111905D01*
X167861905Y-76159524D01*
X167623810Y-76159524D01*
X167528571Y-76111905D01*
X167480952Y-76064286D01*
X167433333Y-75969048D01*
X167433333Y-75778571D01*
X167480952Y-75683333D01*
X167528571Y-75635714D01*
X167623810Y-75588095D01*
X170161905Y-83752381D02*
X170161905Y-84561905D01*
X170114286Y-84657143D01*
X170066667Y-84704762D01*
X169971429Y-84752381D01*
X169780952Y-84752381D01*
X169685714Y-84704762D01*
X169638095Y-84657143D01*
X169590476Y-84561905D01*
X169590476Y-83752381D01*
X169209524Y-83752381D02*
X168542857Y-83752381D01*
X168971429Y-84752381D01*
D12*
X174607142Y-79338095D02*
X174683333Y-79300000D01*
X174759523Y-79223810D01*
X174873809Y-79109524D01*
X174950000Y-79071429D01*
X175026190Y-79071429D01*
X174988095Y-79261905D02*
X175064285Y-79223810D01*
X175140476Y-79147619D01*
X175178571Y-78995238D01*
X175178571Y-78728571D01*
X175140476Y-78576190D01*
X175064285Y-78500000D01*
X174988095Y-78461905D01*
X174835714Y-78461905D01*
X174759523Y-78500000D01*
X174683333Y-78576190D01*
X174645238Y-78728571D01*
X174645238Y-78995238D01*
X174683333Y-79147619D01*
X174759523Y-79223810D01*
X174835714Y-79261905D01*
X174988095Y-79261905D01*
X173883333Y-79261905D02*
X174340476Y-79261905D01*
X174111905Y-79261905D02*
X174111905Y-78461905D01*
X174188095Y-78576190D01*
X174264286Y-78652381D01*
X174340476Y-78690476D01*
X173616666Y-78461905D02*
X173083333Y-78461905D01*
X173426190Y-79261905D01*
D13*
X184866667Y-59500000D02*
X184533333Y-59266666D01*
X184866667Y-59100000D02*
X184166667Y-59100000D01*
X184166667Y-59366666D01*
X184200000Y-59433333D01*
X184233333Y-59466666D01*
X184300000Y-59500000D01*
X184400000Y-59500000D01*
X184466667Y-59466666D01*
X184500000Y-59433333D01*
X184533333Y-59366666D01*
X184533333Y-59100000D01*
X184233333Y-59766666D02*
X184200000Y-59800000D01*
X184166667Y-59866666D01*
X184166667Y-60033333D01*
X184200000Y-60100000D01*
X184233333Y-60133333D01*
X184300000Y-60166666D01*
X184366667Y-60166666D01*
X184466667Y-60133333D01*
X184866667Y-59733333D01*
X184866667Y-60166666D01*
X184866667Y-60500000D02*
X184866667Y-60633333D01*
X184833333Y-60700000D01*
X184800000Y-60733333D01*
X184700000Y-60800000D01*
X184566667Y-60833333D01*
X184300000Y-60833333D01*
X184233333Y-60800000D01*
X184200000Y-60766667D01*
X184166667Y-60700000D01*
X184166667Y-60566667D01*
X184200000Y-60500000D01*
X184233333Y-60466667D01*
X184300000Y-60433333D01*
X184466667Y-60433333D01*
X184533333Y-60466667D01*
X184566667Y-60500000D01*
X184600000Y-60566667D01*
X184600000Y-60700000D01*
X184566667Y-60766667D01*
X184533333Y-60800000D01*
X184466667Y-60833333D01*
X178550000Y-61666667D02*
X178783334Y-61333333D01*
X178950000Y-61666667D02*
X178950000Y-60966667D01*
X178683334Y-60966667D01*
X178616667Y-61000000D01*
X178583334Y-61033333D01*
X178550000Y-61100000D01*
X178550000Y-61200000D01*
X178583334Y-61266667D01*
X178616667Y-61300000D01*
X178683334Y-61333333D01*
X178950000Y-61333333D01*
X178316667Y-60966667D02*
X177883334Y-60966667D01*
X178116667Y-61233333D01*
X178016667Y-61233333D01*
X177950000Y-61266667D01*
X177916667Y-61300000D01*
X177883334Y-61366667D01*
X177883334Y-61533333D01*
X177916667Y-61600000D01*
X177950000Y-61633333D01*
X178016667Y-61666667D01*
X178216667Y-61666667D01*
X178283334Y-61633333D01*
X178316667Y-61600000D01*
X177616667Y-61033333D02*
X177583333Y-61000000D01*
X177516667Y-60966667D01*
X177350000Y-60966667D01*
X177283333Y-61000000D01*
X177250000Y-61033333D01*
X177216667Y-61100000D01*
X177216667Y-61166667D01*
X177250000Y-61266667D01*
X177650000Y-61666667D01*
X177216667Y-61666667D01*
X175850000Y-61866667D02*
X176083334Y-61533333D01*
X176250000Y-61866667D02*
X176250000Y-61166667D01*
X175983334Y-61166667D01*
X175916667Y-61200000D01*
X175883334Y-61233333D01*
X175850000Y-61300000D01*
X175850000Y-61400000D01*
X175883334Y-61466667D01*
X175916667Y-61500000D01*
X175983334Y-61533333D01*
X176250000Y-61533333D01*
X175616667Y-61166667D02*
X175183334Y-61166667D01*
X175416667Y-61433333D01*
X175316667Y-61433333D01*
X175250000Y-61466667D01*
X175216667Y-61500000D01*
X175183334Y-61566667D01*
X175183334Y-61733333D01*
X175216667Y-61800000D01*
X175250000Y-61833333D01*
X175316667Y-61866667D01*
X175516667Y-61866667D01*
X175583334Y-61833333D01*
X175616667Y-61800000D01*
X174550000Y-61166667D02*
X174883333Y-61166667D01*
X174916667Y-61500000D01*
X174883333Y-61466667D01*
X174816667Y-61433333D01*
X174650000Y-61433333D01*
X174583333Y-61466667D01*
X174550000Y-61500000D01*
X174516667Y-61566667D01*
X174516667Y-61733333D01*
X174550000Y-61800000D01*
X174583333Y-61833333D01*
X174650000Y-61866667D01*
X174816667Y-61866667D01*
X174883333Y-61833333D01*
X174916667Y-61800000D01*
X172250000Y-61866667D02*
X172483334Y-61533333D01*
X172650000Y-61866667D02*
X172650000Y-61166667D01*
X172383334Y-61166667D01*
X172316667Y-61200000D01*
X172283334Y-61233333D01*
X172250000Y-61300000D01*
X172250000Y-61400000D01*
X172283334Y-61466667D01*
X172316667Y-61500000D01*
X172383334Y-61533333D01*
X172650000Y-61533333D01*
X172016667Y-61166667D02*
X171583334Y-61166667D01*
X171816667Y-61433333D01*
X171716667Y-61433333D01*
X171650000Y-61466667D01*
X171616667Y-61500000D01*
X171583334Y-61566667D01*
X171583334Y-61733333D01*
X171616667Y-61800000D01*
X171650000Y-61833333D01*
X171716667Y-61866667D01*
X171916667Y-61866667D01*
X171983334Y-61833333D01*
X172016667Y-61800000D01*
X171183333Y-61466667D02*
X171250000Y-61433333D01*
X171283333Y-61400000D01*
X171316667Y-61333333D01*
X171316667Y-61300000D01*
X171283333Y-61233333D01*
X171250000Y-61200000D01*
X171183333Y-61166667D01*
X171050000Y-61166667D01*
X170983333Y-61200000D01*
X170950000Y-61233333D01*
X170916667Y-61300000D01*
X170916667Y-61333333D01*
X170950000Y-61400000D01*
X170983333Y-61433333D01*
X171050000Y-61466667D01*
X171183333Y-61466667D01*
X171250000Y-61500000D01*
X171283333Y-61533333D01*
X171316667Y-61600000D01*
X171316667Y-61733333D01*
X171283333Y-61800000D01*
X171250000Y-61833333D01*
X171183333Y-61866667D01*
X171050000Y-61866667D01*
X170983333Y-61833333D01*
X170950000Y-61800000D01*
X170916667Y-61733333D01*
X170916667Y-61600000D01*
X170950000Y-61533333D01*
X170983333Y-61500000D01*
X171050000Y-61466667D01*
X168650000Y-61866667D02*
X168883334Y-61533333D01*
X169050000Y-61866667D02*
X169050000Y-61166667D01*
X168783334Y-61166667D01*
X168716667Y-61200000D01*
X168683334Y-61233333D01*
X168650000Y-61300000D01*
X168650000Y-61400000D01*
X168683334Y-61466667D01*
X168716667Y-61500000D01*
X168783334Y-61533333D01*
X169050000Y-61533333D01*
X168050000Y-61400000D02*
X168050000Y-61866667D01*
X168216667Y-61133333D02*
X168383334Y-61633333D01*
X167950000Y-61633333D01*
X167316667Y-61866667D02*
X167716667Y-61866667D01*
X167516667Y-61866667D02*
X167516667Y-61166667D01*
X167583333Y-61266667D01*
X167650000Y-61333333D01*
X167716667Y-61366667D01*
X165050000Y-61866667D02*
X165283334Y-61533333D01*
X165450000Y-61866667D02*
X165450000Y-61166667D01*
X165183334Y-61166667D01*
X165116667Y-61200000D01*
X165083334Y-61233333D01*
X165050000Y-61300000D01*
X165050000Y-61400000D01*
X165083334Y-61466667D01*
X165116667Y-61500000D01*
X165183334Y-61533333D01*
X165450000Y-61533333D01*
X164450000Y-61400000D02*
X164450000Y-61866667D01*
X164616667Y-61133333D02*
X164783334Y-61633333D01*
X164350000Y-61633333D01*
X163783333Y-61400000D02*
X163783333Y-61866667D01*
X163950000Y-61133333D02*
X164116667Y-61633333D01*
X163683333Y-61633333D01*
X161450000Y-61866667D02*
X161683334Y-61533333D01*
X161850000Y-61866667D02*
X161850000Y-61166667D01*
X161583334Y-61166667D01*
X161516667Y-61200000D01*
X161483334Y-61233333D01*
X161450000Y-61300000D01*
X161450000Y-61400000D01*
X161483334Y-61466667D01*
X161516667Y-61500000D01*
X161583334Y-61533333D01*
X161850000Y-61533333D01*
X160850000Y-61400000D02*
X160850000Y-61866667D01*
X161016667Y-61133333D02*
X161183334Y-61633333D01*
X160750000Y-61633333D01*
X160550000Y-61166667D02*
X160083333Y-61166667D01*
X160383333Y-61866667D01*
X157850000Y-61866667D02*
X158083334Y-61533333D01*
X158250000Y-61866667D02*
X158250000Y-61166667D01*
X157983334Y-61166667D01*
X157916667Y-61200000D01*
X157883334Y-61233333D01*
X157850000Y-61300000D01*
X157850000Y-61400000D01*
X157883334Y-61466667D01*
X157916667Y-61500000D01*
X157983334Y-61533333D01*
X158250000Y-61533333D01*
X157216667Y-61166667D02*
X157550000Y-61166667D01*
X157583334Y-61500000D01*
X157550000Y-61466667D01*
X157483334Y-61433333D01*
X157316667Y-61433333D01*
X157250000Y-61466667D01*
X157216667Y-61500000D01*
X157183334Y-61566667D01*
X157183334Y-61733333D01*
X157216667Y-61800000D01*
X157250000Y-61833333D01*
X157316667Y-61866667D01*
X157483334Y-61866667D01*
X157550000Y-61833333D01*
X157583334Y-61800000D01*
X156750000Y-61166667D02*
X156683333Y-61166667D01*
X156616667Y-61200000D01*
X156583333Y-61233333D01*
X156550000Y-61300000D01*
X156516667Y-61433333D01*
X156516667Y-61600000D01*
X156550000Y-61733333D01*
X156583333Y-61800000D01*
X156616667Y-61833333D01*
X156683333Y-61866667D01*
X156750000Y-61866667D01*
X156816667Y-61833333D01*
X156850000Y-61800000D01*
X156883333Y-61733333D01*
X156916667Y-61600000D01*
X156916667Y-61433333D01*
X156883333Y-61300000D01*
X156850000Y-61233333D01*
X156816667Y-61200000D01*
X156750000Y-61166667D01*
X154250000Y-61866667D02*
X154483334Y-61533333D01*
X154650000Y-61866667D02*
X154650000Y-61166667D01*
X154383334Y-61166667D01*
X154316667Y-61200000D01*
X154283334Y-61233333D01*
X154250000Y-61300000D01*
X154250000Y-61400000D01*
X154283334Y-61466667D01*
X154316667Y-61500000D01*
X154383334Y-61533333D01*
X154650000Y-61533333D01*
X153616667Y-61166667D02*
X153950000Y-61166667D01*
X153983334Y-61500000D01*
X153950000Y-61466667D01*
X153883334Y-61433333D01*
X153716667Y-61433333D01*
X153650000Y-61466667D01*
X153616667Y-61500000D01*
X153583334Y-61566667D01*
X153583334Y-61733333D01*
X153616667Y-61800000D01*
X153650000Y-61833333D01*
X153716667Y-61866667D01*
X153883334Y-61866667D01*
X153950000Y-61833333D01*
X153983334Y-61800000D01*
X153350000Y-61166667D02*
X152916667Y-61166667D01*
X153150000Y-61433333D01*
X153050000Y-61433333D01*
X152983333Y-61466667D01*
X152950000Y-61500000D01*
X152916667Y-61566667D01*
X152916667Y-61733333D01*
X152950000Y-61800000D01*
X152983333Y-61833333D01*
X153050000Y-61866667D01*
X153250000Y-61866667D01*
X153316667Y-61833333D01*
X153350000Y-61800000D01*
X150650000Y-61866667D02*
X150883334Y-61533333D01*
X151050000Y-61866667D02*
X151050000Y-61166667D01*
X150783334Y-61166667D01*
X150716667Y-61200000D01*
X150683334Y-61233333D01*
X150650000Y-61300000D01*
X150650000Y-61400000D01*
X150683334Y-61466667D01*
X150716667Y-61500000D01*
X150783334Y-61533333D01*
X151050000Y-61533333D01*
X150016667Y-61166667D02*
X150350000Y-61166667D01*
X150383334Y-61500000D01*
X150350000Y-61466667D01*
X150283334Y-61433333D01*
X150116667Y-61433333D01*
X150050000Y-61466667D01*
X150016667Y-61500000D01*
X149983334Y-61566667D01*
X149983334Y-61733333D01*
X150016667Y-61800000D01*
X150050000Y-61833333D01*
X150116667Y-61866667D01*
X150283334Y-61866667D01*
X150350000Y-61833333D01*
X150383334Y-61800000D01*
X149383333Y-61166667D02*
X149516667Y-61166667D01*
X149583333Y-61200000D01*
X149616667Y-61233333D01*
X149683333Y-61333333D01*
X149716667Y-61466667D01*
X149716667Y-61733333D01*
X149683333Y-61800000D01*
X149650000Y-61833333D01*
X149583333Y-61866667D01*
X149450000Y-61866667D01*
X149383333Y-61833333D01*
X149350000Y-61800000D01*
X149316667Y-61733333D01*
X149316667Y-61566667D01*
X149350000Y-61500000D01*
X149383333Y-61466667D01*
X149450000Y-61433333D01*
X149583333Y-61433333D01*
X149650000Y-61466667D01*
X149683333Y-61500000D01*
X149716667Y-61566667D01*
X148916667Y-62500000D02*
X148583333Y-62266666D01*
X148916667Y-62100000D02*
X148216667Y-62100000D01*
X148216667Y-62366666D01*
X148250000Y-62433333D01*
X148283333Y-62466666D01*
X148350000Y-62500000D01*
X148450000Y-62500000D01*
X148516667Y-62466666D01*
X148550000Y-62433333D01*
X148583333Y-62366666D01*
X148583333Y-62100000D01*
X148216667Y-63133333D02*
X148216667Y-62800000D01*
X148550000Y-62766666D01*
X148516667Y-62800000D01*
X148483333Y-62866666D01*
X148483333Y-63033333D01*
X148516667Y-63100000D01*
X148550000Y-63133333D01*
X148616667Y-63166666D01*
X148783333Y-63166666D01*
X148850000Y-63133333D01*
X148883333Y-63100000D01*
X148916667Y-63033333D01*
X148916667Y-62866666D01*
X148883333Y-62800000D01*
X148850000Y-62766666D01*
X148916667Y-63500000D02*
X148916667Y-63633333D01*
X148883333Y-63700000D01*
X148850000Y-63733333D01*
X148750000Y-63800000D01*
X148616667Y-63833333D01*
X148350000Y-63833333D01*
X148283333Y-63800000D01*
X148250000Y-63766667D01*
X148216667Y-63700000D01*
X148216667Y-63566667D01*
X148250000Y-63500000D01*
X148283333Y-63466667D01*
X148350000Y-63433333D01*
X148516667Y-63433333D01*
X148583333Y-63466667D01*
X148616667Y-63500000D01*
X148650000Y-63566667D01*
X148650000Y-63700000D01*
X148616667Y-63766667D01*
X148583333Y-63800000D01*
X148516667Y-63833333D01*
X141216667Y-61750000D02*
X140883333Y-61516666D01*
X141216667Y-61350000D02*
X140516667Y-61350000D01*
X140516667Y-61616666D01*
X140550000Y-61683333D01*
X140583333Y-61716666D01*
X140650000Y-61750000D01*
X140750000Y-61750000D01*
X140816667Y-61716666D01*
X140850000Y-61683333D01*
X140883333Y-61616666D01*
X140883333Y-61350000D01*
X140516667Y-62350000D02*
X140516667Y-62216666D01*
X140550000Y-62150000D01*
X140583333Y-62116666D01*
X140683333Y-62050000D01*
X140816667Y-62016666D01*
X141083333Y-62016666D01*
X141150000Y-62050000D01*
X141183333Y-62083333D01*
X141216667Y-62150000D01*
X141216667Y-62283333D01*
X141183333Y-62350000D01*
X141150000Y-62383333D01*
X141083333Y-62416666D01*
X140916667Y-62416666D01*
X140850000Y-62383333D01*
X140816667Y-62350000D01*
X140783333Y-62283333D01*
X140783333Y-62150000D01*
X140816667Y-62083333D01*
X140850000Y-62050000D01*
X140916667Y-62016666D01*
X140583333Y-62683333D02*
X140550000Y-62716667D01*
X140516667Y-62783333D01*
X140516667Y-62950000D01*
X140550000Y-63016667D01*
X140583333Y-63050000D01*
X140650000Y-63083333D01*
X140716667Y-63083333D01*
X140816667Y-63050000D01*
X141216667Y-62650000D01*
X141216667Y-63083333D01*
X186514286Y-69861905D02*
X186780953Y-69480952D01*
X186971429Y-69861905D02*
X186971429Y-69061905D01*
X186666667Y-69061905D01*
X186590476Y-69100000D01*
X186552381Y-69138095D01*
X186514286Y-69214286D01*
X186514286Y-69328571D01*
X186552381Y-69404762D01*
X186590476Y-69442857D01*
X186666667Y-69480952D01*
X186971429Y-69480952D01*
X185752381Y-69861905D02*
X186209524Y-69861905D01*
X185980953Y-69861905D02*
X185980953Y-69061905D01*
X186057143Y-69176190D01*
X186133334Y-69252381D01*
X186209524Y-69290476D01*
X185066667Y-69061905D02*
X185219048Y-69061905D01*
X185295238Y-69100000D01*
X185333333Y-69138095D01*
X185409524Y-69252381D01*
X185447619Y-69404762D01*
X185447619Y-69709524D01*
X185409524Y-69785714D01*
X185371429Y-69823810D01*
X185295238Y-69861905D01*
X185142857Y-69861905D01*
X185066667Y-69823810D01*
X185028571Y-69785714D01*
X184990476Y-69709524D01*
X184990476Y-69519048D01*
X185028571Y-69442857D01*
X185066667Y-69404762D01*
X185142857Y-69366667D01*
X185295238Y-69366667D01*
X185371429Y-69404762D01*
X185409524Y-69442857D01*
X185447619Y-69519048D01*
X176500000Y-66966667D02*
X176733334Y-66633333D01*
X176900000Y-66966667D02*
X176900000Y-66266667D01*
X176633334Y-66266667D01*
X176566667Y-66300000D01*
X176533334Y-66333333D01*
X176500000Y-66400000D01*
X176500000Y-66500000D01*
X176533334Y-66566667D01*
X176566667Y-66600000D01*
X176633334Y-66633333D01*
X176900000Y-66633333D01*
X176233334Y-66333333D02*
X176200000Y-66300000D01*
X176133334Y-66266667D01*
X175966667Y-66266667D01*
X175900000Y-66300000D01*
X175866667Y-66333333D01*
X175833334Y-66400000D01*
X175833334Y-66466667D01*
X175866667Y-66566667D01*
X176266667Y-66966667D01*
X175833334Y-66966667D01*
X175400000Y-66266667D02*
X175333333Y-66266667D01*
X175266667Y-66300000D01*
X175233333Y-66333333D01*
X175200000Y-66400000D01*
X175166667Y-66533333D01*
X175166667Y-66700000D01*
X175200000Y-66833333D01*
X175233333Y-66900000D01*
X175266667Y-66933333D01*
X175333333Y-66966667D01*
X175400000Y-66966667D01*
X175466667Y-66933333D01*
X175500000Y-66900000D01*
X175533333Y-66833333D01*
X175566667Y-66700000D01*
X175566667Y-66533333D01*
X175533333Y-66400000D01*
X175500000Y-66333333D01*
X175466667Y-66300000D01*
X175400000Y-66266667D01*
X187364286Y-68561905D02*
X187630953Y-68180952D01*
X187821429Y-68561905D02*
X187821429Y-67761905D01*
X187516667Y-67761905D01*
X187440476Y-67800000D01*
X187402381Y-67838095D01*
X187364286Y-67914286D01*
X187364286Y-68028571D01*
X187402381Y-68104762D01*
X187440476Y-68142857D01*
X187516667Y-68180952D01*
X187821429Y-68180952D01*
X187059524Y-67838095D02*
X187021429Y-67800000D01*
X186945238Y-67761905D01*
X186754762Y-67761905D01*
X186678572Y-67800000D01*
X186640476Y-67838095D01*
X186602381Y-67914286D01*
X186602381Y-67990476D01*
X186640476Y-68104762D01*
X187097619Y-68561905D01*
X186602381Y-68561905D01*
X186297619Y-67838095D02*
X186259524Y-67800000D01*
X186183333Y-67761905D01*
X185992857Y-67761905D01*
X185916667Y-67800000D01*
X185878571Y-67838095D01*
X185840476Y-67914286D01*
X185840476Y-67990476D01*
X185878571Y-68104762D01*
X186335714Y-68561905D01*
X185840476Y-68561905D01*
X165314286Y-72311905D02*
X165580953Y-71930952D01*
X165771429Y-72311905D02*
X165771429Y-71511905D01*
X165466667Y-71511905D01*
X165390476Y-71550000D01*
X165352381Y-71588095D01*
X165314286Y-71664286D01*
X165314286Y-71778571D01*
X165352381Y-71854762D01*
X165390476Y-71892857D01*
X165466667Y-71930952D01*
X165771429Y-71930952D01*
X165047619Y-71511905D02*
X164514286Y-71511905D01*
X164857143Y-72311905D01*
X163866667Y-71778571D02*
X163866667Y-72311905D01*
X164057143Y-71473810D02*
X164247619Y-72045238D01*
X163752381Y-72045238D01*
X145838095Y-76652381D02*
X145838095Y-75652381D01*
X145600000Y-75652381D01*
X145457142Y-75700000D01*
X145361904Y-75795238D01*
X145314285Y-75890476D01*
X145266666Y-76080952D01*
X145266666Y-76223810D01*
X145314285Y-76414286D01*
X145361904Y-76509524D01*
X145457142Y-76604762D01*
X145600000Y-76652381D01*
X145838095Y-76652381D01*
X144409523Y-75985714D02*
X144409523Y-76652381D01*
X144647619Y-75604762D02*
X144885714Y-76319048D01*
X144266666Y-76319048D01*
X189200000Y-62216667D02*
X189433334Y-61883333D01*
X189600000Y-62216667D02*
X189600000Y-61516667D01*
X189333334Y-61516667D01*
X189266667Y-61550000D01*
X189233334Y-61583333D01*
X189200000Y-61650000D01*
X189200000Y-61750000D01*
X189233334Y-61816667D01*
X189266667Y-61850000D01*
X189333334Y-61883333D01*
X189600000Y-61883333D01*
X188966667Y-61516667D02*
X188500000Y-61516667D01*
X188800000Y-62216667D01*
X187900000Y-61516667D02*
X188233333Y-61516667D01*
X188266667Y-61850000D01*
X188233333Y-61816667D01*
X188166667Y-61783333D01*
X188000000Y-61783333D01*
X187933333Y-61816667D01*
X187900000Y-61850000D01*
X187866667Y-61916667D01*
X187866667Y-62083333D01*
X187900000Y-62150000D01*
X187933333Y-62183333D01*
X188000000Y-62216667D01*
X188166667Y-62216667D01*
X188233333Y-62183333D01*
X188266667Y-62150000D01*
X147450000Y-64650000D02*
X147483334Y-64683333D01*
X147583334Y-64716667D01*
X147650000Y-64716667D01*
X147750000Y-64683333D01*
X147816667Y-64616667D01*
X147850000Y-64550000D01*
X147883334Y-64416667D01*
X147883334Y-64316667D01*
X147850000Y-64183333D01*
X147816667Y-64116667D01*
X147750000Y-64050000D01*
X147650000Y-64016667D01*
X147583334Y-64016667D01*
X147483334Y-64050000D01*
X147450000Y-64083333D01*
X146850000Y-64250000D02*
X146850000Y-64716667D01*
X147016667Y-63983333D02*
X147183334Y-64483333D01*
X146750000Y-64483333D01*
X146550000Y-64016667D02*
X146116667Y-64016667D01*
X146350000Y-64283333D01*
X146250000Y-64283333D01*
X146183333Y-64316667D01*
X146150000Y-64350000D01*
X146116667Y-64416667D01*
X146116667Y-64583333D01*
X146150000Y-64650000D01*
X146183333Y-64683333D01*
X146250000Y-64716667D01*
X146450000Y-64716667D01*
X146516667Y-64683333D01*
X146550000Y-64650000D01*
X170714286Y-68611905D02*
X170980953Y-68230952D01*
X171171429Y-68611905D02*
X171171429Y-67811905D01*
X170866667Y-67811905D01*
X170790476Y-67850000D01*
X170752381Y-67888095D01*
X170714286Y-67964286D01*
X170714286Y-68078571D01*
X170752381Y-68154762D01*
X170790476Y-68192857D01*
X170866667Y-68230952D01*
X171171429Y-68230952D01*
X170447619Y-67811905D02*
X169914286Y-67811905D01*
X170257143Y-68611905D01*
X169685714Y-67811905D02*
X169152381Y-67811905D01*
X169495238Y-68611905D01*
M02*
