G04 #@! TF.FileFunction,Paste,Top*
%FSLAX46Y46*%
G04 Gerber Fmt 4.6, Leading zero omitted, Abs format (unit mm)*
G04 Created by KiCad (PCBNEW 4.0.7) date 02/25/18 23:04:30*
%MOMM*%
%LPD*%
G01*
G04 APERTURE LIST*
%ADD10C,0.100000*%
%ADD11R,0.640000X0.600000*%
%ADD12R,0.600000X0.640000*%
%ADD13R,1.280000X0.800000*%
%ADD14R,3.200000X2.000000*%
%ADD15R,0.640000X0.640000*%
%ADD16R,0.720000X0.960000*%
%ADD17R,0.480000X0.360000*%
%ADD18R,0.360000X1.104000*%
%ADD19R,1.180000X1.680000*%
%ADD20R,1.900000X1.520000*%
%ADD21R,0.940000X1.520000*%
%ADD22R,0.720000X1.360000*%
%ADD23R,1.680000X1.360000*%
%ADD24R,0.408000X0.320000*%
%ADD25R,0.400000X0.720000*%
%ADD26R,0.720000X0.400000*%
%ADD27R,0.228000X0.880000*%
%ADD28R,1.920000X1.600000*%
%ADD29R,2.008000X0.800000*%
%ADD30R,0.360000X1.200000*%
%ADD31R,0.840000X0.520000*%
%ADD32R,3.200000X3.200000*%
G04 APERTURE END LIST*
D10*
D11*
X165150000Y-69100000D03*
X163650000Y-69100000D03*
X165150000Y-76300000D03*
X163650000Y-76300000D03*
X161150000Y-68500000D03*
X162650000Y-68500000D03*
D12*
X160800000Y-73400000D03*
X160800000Y-74900000D03*
X161900000Y-73400000D03*
X161900000Y-74900000D03*
D11*
X182450000Y-58400000D03*
X183950000Y-58400000D03*
X178850000Y-58400000D03*
X180350000Y-58400000D03*
X175250000Y-58400000D03*
X176750000Y-58400000D03*
X171650000Y-58400000D03*
X173150000Y-58400000D03*
X168050000Y-58400000D03*
X169550000Y-58400000D03*
X164450000Y-58400000D03*
X165950000Y-58400000D03*
X160850000Y-58400000D03*
X162350000Y-58400000D03*
X157250000Y-58400000D03*
X158750000Y-58400000D03*
X153650000Y-58400000D03*
X155150000Y-58400000D03*
X150050000Y-58400000D03*
X151550000Y-58400000D03*
X146450000Y-60700000D03*
X147950000Y-60700000D03*
X142850000Y-60700000D03*
X144350000Y-60700000D03*
D12*
X191500000Y-58550000D03*
X191500000Y-57050000D03*
X190300000Y-58550000D03*
X190300000Y-57050000D03*
D13*
X168400000Y-72100000D03*
X168400000Y-75100000D03*
D12*
X167700000Y-83150000D03*
X167700000Y-81650000D03*
D14*
X185400000Y-74700000D03*
X191500000Y-74700000D03*
X185100000Y-65000000D03*
X193100000Y-65000000D03*
D12*
X168900000Y-81650000D03*
X168900000Y-83150000D03*
D15*
X147000000Y-77000000D03*
X145400000Y-77000000D03*
X177800000Y-66400000D03*
X177800000Y-68000000D03*
D16*
X178000000Y-64900000D03*
X181300000Y-64900000D03*
D17*
X183650000Y-59900000D03*
X181550000Y-59900000D03*
D15*
X181300000Y-55900000D03*
X181300000Y-57500000D03*
D17*
X180050000Y-59900000D03*
X177950000Y-59900000D03*
D15*
X177700000Y-55900000D03*
X177700000Y-57500000D03*
D17*
X176450000Y-59900000D03*
X174350000Y-59900000D03*
D15*
X174100000Y-55900000D03*
X174100000Y-57500000D03*
D17*
X172850000Y-59900000D03*
X170750000Y-59900000D03*
D15*
X170500000Y-55900000D03*
X170500000Y-57500000D03*
D17*
X169250000Y-59900000D03*
X167150000Y-59900000D03*
D15*
X166900000Y-55900000D03*
X166900000Y-57500000D03*
D17*
X165650000Y-59900000D03*
X163550000Y-59900000D03*
D15*
X163300000Y-55900000D03*
X163300000Y-57500000D03*
D17*
X162050000Y-59900000D03*
X159950000Y-59900000D03*
D15*
X159700000Y-55900000D03*
X159700000Y-57500000D03*
D17*
X158450000Y-59900000D03*
X156350000Y-59900000D03*
D15*
X156100000Y-55900000D03*
X156100000Y-57500000D03*
D17*
X154850000Y-59900000D03*
X152750000Y-59900000D03*
D15*
X152500000Y-55900000D03*
X152500000Y-57500000D03*
D17*
X151250000Y-59900000D03*
X149150000Y-59900000D03*
D15*
X148900000Y-55900000D03*
X148900000Y-57500000D03*
D17*
X147650000Y-62200000D03*
X145550000Y-62200000D03*
D15*
X145300000Y-58200000D03*
X145300000Y-59800000D03*
D17*
X144000000Y-62200000D03*
X141900000Y-62200000D03*
D15*
X141700000Y-58200000D03*
X141700000Y-59800000D03*
D18*
X149800000Y-80840000D03*
X150450000Y-80840000D03*
X151100000Y-80840000D03*
X151750000Y-80840000D03*
X152400000Y-80840000D03*
D19*
X148637500Y-81200000D03*
X153562500Y-81200000D03*
D20*
X148190000Y-83500000D03*
X154010000Y-83500000D03*
D21*
X150260000Y-83500000D03*
X151940000Y-83500000D03*
D22*
X180950000Y-62500000D03*
X178050000Y-62500000D03*
X185500000Y-58000000D03*
X188400000Y-58000000D03*
D23*
X159800000Y-80350000D03*
X156000000Y-80350000D03*
X159800000Y-83850000D03*
D24*
X180450000Y-68050000D03*
X180450000Y-67050000D03*
X179150000Y-67550000D03*
D25*
X179150000Y-69300000D03*
X180650000Y-69300000D03*
D26*
X181800000Y-66750000D03*
X181800000Y-68250000D03*
X167300000Y-78250000D03*
X167300000Y-76750000D03*
X160550000Y-70950000D03*
X160550000Y-69450000D03*
X159300000Y-70950000D03*
X159300000Y-69450000D03*
D25*
X177350000Y-70750000D03*
X175850000Y-70750000D03*
D26*
X183700000Y-55950000D03*
X183700000Y-57450000D03*
X182500000Y-55950000D03*
X182500000Y-57450000D03*
X180100000Y-55950000D03*
X180100000Y-57450000D03*
X178900000Y-55950000D03*
X178900000Y-57450000D03*
X176500000Y-55950000D03*
X176500000Y-57450000D03*
X175300000Y-55950000D03*
X175300000Y-57450000D03*
X172900000Y-55950000D03*
X172900000Y-57450000D03*
X171700000Y-55950000D03*
X171700000Y-57450000D03*
X169300000Y-55950000D03*
X169300000Y-57450000D03*
X168100000Y-55950000D03*
X168100000Y-57450000D03*
X165700000Y-55950000D03*
X165700000Y-57450000D03*
X164500000Y-55950000D03*
X164500000Y-57450000D03*
X162100000Y-55950000D03*
X162100000Y-57450000D03*
X160900000Y-55950000D03*
X160900000Y-57450000D03*
X158500000Y-55950000D03*
X158500000Y-57450000D03*
X157300000Y-55950000D03*
X157300000Y-57450000D03*
X154900000Y-55950000D03*
X154900000Y-57450000D03*
X153700000Y-55950000D03*
X153700000Y-57450000D03*
X151300000Y-55950000D03*
X151300000Y-57450000D03*
X150100000Y-55950000D03*
X150100000Y-57450000D03*
X147700000Y-58250000D03*
X147700000Y-59750000D03*
X146500000Y-58250000D03*
X146500000Y-59750000D03*
X144100000Y-58250000D03*
X144100000Y-59750000D03*
X142900000Y-58250000D03*
X142900000Y-59750000D03*
D25*
X182600000Y-70750000D03*
X181100000Y-70750000D03*
X179900000Y-70750000D03*
X178400000Y-70750000D03*
D27*
X176750000Y-62350000D03*
X176250000Y-62350000D03*
X175750000Y-62350000D03*
X175250000Y-62350000D03*
X174750000Y-62350000D03*
X174250000Y-62350000D03*
X173750000Y-62350000D03*
X173250000Y-62350000D03*
X172750000Y-62350000D03*
X172250000Y-62350000D03*
X171750000Y-62350000D03*
X171250000Y-62350000D03*
X170750000Y-62350000D03*
X170250000Y-62350000D03*
X169750000Y-62350000D03*
X169250000Y-62350000D03*
X168750000Y-62350000D03*
X168250000Y-62350000D03*
X167750000Y-62350000D03*
X166250000Y-68050000D03*
X166750000Y-68050000D03*
X167250000Y-68050000D03*
X167750000Y-68050000D03*
X168250000Y-68050000D03*
X168750000Y-68050000D03*
X169250000Y-68050000D03*
X169750000Y-68050000D03*
X170250000Y-68050000D03*
X170750000Y-68050000D03*
X171250000Y-68050000D03*
X171750000Y-68050000D03*
X172250000Y-68050000D03*
X172750000Y-68050000D03*
X173250000Y-68050000D03*
X173750000Y-68050000D03*
X167250000Y-62350000D03*
X166750000Y-62350000D03*
X166250000Y-62350000D03*
X174250000Y-68050000D03*
X174750000Y-68050000D03*
X175250000Y-68050000D03*
X175750000Y-68050000D03*
X176250000Y-68050000D03*
X176750000Y-68050000D03*
D28*
X164400000Y-70850000D03*
X164400000Y-74550000D03*
D29*
X158300000Y-72860000D03*
X158300000Y-67780000D03*
X158300000Y-62700000D03*
X154990000Y-70320000D03*
X154990000Y-65240000D03*
D25*
X157350000Y-75100000D03*
X155850000Y-75100000D03*
D30*
X151100000Y-80875000D03*
X151750000Y-80875000D03*
X150450000Y-80875000D03*
X152400000Y-80875000D03*
X149800000Y-80875000D03*
D31*
X161825000Y-82000000D03*
X165975000Y-82000000D03*
X161825000Y-84150000D03*
X165975000Y-84150000D03*
X161825000Y-78125000D03*
X165975000Y-78125000D03*
X161825000Y-80275000D03*
X165975000Y-80275000D03*
D32*
X181600000Y-78100000D03*
X171600000Y-78100000D03*
D15*
X148400000Y-78300000D03*
X146800000Y-78300000D03*
D25*
X148250000Y-76900000D03*
X149750000Y-76900000D03*
M02*
