%TF.GenerationSoftware,KiCad,Pcbnew,4.0.7*%
%TF.CreationDate,2018-05-06T22:33:30+03:00*%
%TF.ProjectId,FlexiBMS,466C657869424D532E6B696361645F70,rev?*%
%TF.FileFunction,Soldermask,Bot*%
%FSLAX46Y46*%
G04 Gerber Fmt 4.6, Leading zero omitted, Abs format (unit mm)*
G04 Created by KiCad (PCBNEW 4.0.7) date 05/06/18 22:33:30*
%MOMM*%
%LPD*%
G01*
G04 APERTURE LIST*
%ADD10C,0.100000*%
%ADD11C,6.240000*%
%ADD12R,1.990000X1.990000*%
%ADD13C,1.990000*%
%ADD14R,1.040000X0.990000*%
%ADD15R,0.990000X1.040000*%
%ADD16R,0.840000X0.690000*%
%ADD17R,1.440000X1.140000*%
%ADD18R,1.510000X1.640000*%
%ADD19R,5.040000X4.960000*%
%ADD20R,1.940000X1.140000*%
%ADD21R,2.740000X1.140000*%
%ADD22R,4.040000X2.240000*%
%ADD23R,1.740000X2.240000*%
%ADD24R,0.640000X0.750000*%
%ADD25R,1.040000X1.140000*%
%ADD26R,1.140000X1.040000*%
%ADD27R,0.690000X0.940000*%
%ADD28R,1.140000X0.740000*%
%ADD29R,0.740000X1.140000*%
%ADD30R,1.140000X1.940000*%
%ADD31R,1.540000X0.490000*%
%ADD32R,0.490000X1.540000*%
%ADD33R,0.490000X0.940000*%
%ADD34R,1.440000X0.880000*%
%ADD35R,1.640000X0.540000*%
%ADD36R,0.640000X1.460000*%
%ADD37R,1.690000X0.690000*%
%ADD38R,2.540000X2.740000*%
%ADD39R,1.880000X1.240000*%
%ADD40R,0.590000X1.240000*%
%ADD41R,0.940000X1.540000*%
%ADD42R,1.940000X1.940000*%
%ADD43O,1.940000X1.940000*%
%ADD44R,2.740000X1.240000*%
%ADD45R,2.740000X2.040000*%
%ADD46R,0.640000X0.840000*%
%ADD47R,1.300000X0.640000*%
%ADD48O,2.040000X1.340000*%
%ADD49O,2.440000X1.340000*%
%ADD50R,1.510000X1.210000*%
G04 APERTURE END LIST*
D10*
D11*
X201500000Y-81500000D03*
X201500000Y-53500000D03*
X143500000Y-81500000D03*
D12*
X179200000Y-52800000D03*
D13*
X176700000Y-52800000D03*
X174200000Y-52800000D03*
X171700000Y-52800000D03*
X169200000Y-52800000D03*
X166700000Y-52800000D03*
X164200000Y-52800000D03*
X161700000Y-52800000D03*
X159200000Y-52800000D03*
X156700000Y-52800000D03*
X154200000Y-52800000D03*
X151700000Y-52800000D03*
X149200000Y-52800000D03*
D14*
X151850000Y-80900000D03*
X150350000Y-80900000D03*
X147600000Y-75800000D03*
X149100000Y-75800000D03*
X155950000Y-79100000D03*
X154450000Y-79100000D03*
D15*
X152400000Y-70650000D03*
X152400000Y-69150000D03*
X151000000Y-70650000D03*
X151000000Y-69150000D03*
X171300000Y-65850000D03*
X171300000Y-67350000D03*
X169900000Y-65850000D03*
X169900000Y-67350000D03*
D14*
X172250000Y-64200000D03*
X170750000Y-64200000D03*
D15*
X188550000Y-67150000D03*
X188550000Y-65650000D03*
D14*
X185600000Y-69100000D03*
X187100000Y-69100000D03*
X191350000Y-56650000D03*
X192850000Y-56650000D03*
X192850000Y-60900000D03*
X191350000Y-60900000D03*
D15*
X167300000Y-78250000D03*
X167300000Y-76750000D03*
X169500000Y-71000000D03*
X169500000Y-72500000D03*
X170800000Y-71000000D03*
X170800000Y-72500000D03*
D16*
X194150000Y-72250000D03*
X196250000Y-72250000D03*
D17*
X177400000Y-62150000D03*
X177400000Y-65450000D03*
D18*
X177650000Y-78060000D03*
D19*
X181450000Y-79100000D03*
D18*
X177650000Y-80140000D03*
X177650000Y-72710000D03*
D19*
X181450000Y-73750000D03*
D18*
X177650000Y-74790000D03*
D20*
X190400000Y-65400000D03*
X190400000Y-62500000D03*
D21*
X182650000Y-68000000D03*
X182650000Y-65100000D03*
D22*
X195250000Y-63650000D03*
D23*
X195250000Y-69950000D03*
X192950000Y-69950000D03*
X197550000Y-69950000D03*
D24*
X188500000Y-69550000D03*
X189500000Y-69550000D03*
X189000000Y-70850000D03*
D25*
X143150000Y-68200000D03*
X141250000Y-68200000D03*
X142200000Y-66200000D03*
D26*
X157100000Y-83850000D03*
X157100000Y-81950000D03*
X159100000Y-82900000D03*
D27*
X181950000Y-56000000D03*
X183250000Y-56000000D03*
X182600000Y-58000000D03*
X178350000Y-56000000D03*
X179650000Y-56000000D03*
X179000000Y-58000000D03*
X174750000Y-56000000D03*
X176050000Y-56000000D03*
X175400000Y-58000000D03*
X171150000Y-56000000D03*
X172450000Y-56000000D03*
X171800000Y-58000000D03*
X167550000Y-56000000D03*
X168850000Y-56000000D03*
X168200000Y-58000000D03*
X163950000Y-56000000D03*
X165250000Y-56000000D03*
X164600000Y-58000000D03*
X160350000Y-56000000D03*
X161650000Y-56000000D03*
X161000000Y-58000000D03*
X156750000Y-56000000D03*
X158050000Y-56000000D03*
X157400000Y-58000000D03*
X153150000Y-56000000D03*
X154450000Y-56000000D03*
X153800000Y-58000000D03*
X149550000Y-56000000D03*
X150850000Y-56000000D03*
X150200000Y-58000000D03*
X145950000Y-58300000D03*
X147250000Y-58300000D03*
X146600000Y-60300000D03*
X142350000Y-58300000D03*
X143650000Y-58300000D03*
X143000000Y-60300000D03*
D28*
X190900000Y-71000000D03*
X190900000Y-69500000D03*
D29*
X191150000Y-68150000D03*
X189650000Y-68150000D03*
X195600000Y-73950000D03*
X194100000Y-73950000D03*
X181000000Y-70400000D03*
X179500000Y-70400000D03*
X178450000Y-70400000D03*
X176950000Y-70400000D03*
X183600000Y-82450000D03*
X182100000Y-82450000D03*
X181050000Y-82450000D03*
X179550000Y-82450000D03*
X142950000Y-69700000D03*
X141450000Y-69700000D03*
X145900000Y-70400000D03*
X144400000Y-70400000D03*
D28*
X155600000Y-82500000D03*
X155600000Y-84000000D03*
X150700000Y-78500000D03*
X150700000Y-77000000D03*
D29*
X157250000Y-80450000D03*
X155750000Y-80450000D03*
X175350000Y-64300000D03*
X173850000Y-64300000D03*
D28*
X156300000Y-65750000D03*
X156300000Y-67250000D03*
X159300000Y-65750000D03*
X159300000Y-67250000D03*
X157800000Y-65750000D03*
X157800000Y-67250000D03*
X154800000Y-65750000D03*
X154800000Y-67250000D03*
D29*
X175150000Y-62900000D03*
X173650000Y-62900000D03*
X193000000Y-58050000D03*
X191500000Y-58050000D03*
X193000000Y-59500000D03*
X191500000Y-59500000D03*
D20*
X194700000Y-56850000D03*
X194700000Y-59750000D03*
D29*
X170150000Y-78250000D03*
X168650000Y-78250000D03*
D30*
X172200000Y-73250000D03*
X175100000Y-73250000D03*
D28*
X174650000Y-80750000D03*
X174650000Y-82250000D03*
D29*
X175900000Y-82500000D03*
X177400000Y-82500000D03*
D28*
X173200000Y-81450000D03*
X173200000Y-79950000D03*
D25*
X147300000Y-77200000D03*
X149200000Y-77200000D03*
X148250000Y-79200000D03*
D31*
X162650000Y-70450000D03*
X162650000Y-70950000D03*
X162650000Y-71450000D03*
X162650000Y-71950000D03*
X162650000Y-72450000D03*
X162650000Y-72950000D03*
X162650000Y-73450000D03*
X162650000Y-73950000D03*
X162650000Y-74450000D03*
X162650000Y-74950000D03*
X162650000Y-75450000D03*
X162650000Y-75950000D03*
D32*
X161050000Y-77550000D03*
X160550000Y-77550000D03*
X160050000Y-77550000D03*
X159550000Y-77550000D03*
X159050000Y-77550000D03*
X158550000Y-77550000D03*
X158050000Y-77550000D03*
X157550000Y-77550000D03*
X157050000Y-77550000D03*
X156550000Y-77550000D03*
X156050000Y-77550000D03*
X155550000Y-77550000D03*
D31*
X153950000Y-75950000D03*
X153950000Y-75450000D03*
X153950000Y-74950000D03*
X153950000Y-74450000D03*
X153950000Y-73950000D03*
X153950000Y-73450000D03*
X153950000Y-72950000D03*
X153950000Y-72450000D03*
X153950000Y-71950000D03*
X153950000Y-71450000D03*
X153950000Y-70950000D03*
X153950000Y-70450000D03*
D32*
X155550000Y-68850000D03*
X156050000Y-68850000D03*
X156550000Y-68850000D03*
X157050000Y-68850000D03*
X157550000Y-68850000D03*
X158050000Y-68850000D03*
X158550000Y-68850000D03*
X159050000Y-68850000D03*
X159550000Y-68850000D03*
X160050000Y-68850000D03*
X160550000Y-68850000D03*
X161050000Y-68850000D03*
D33*
X185050000Y-65975000D03*
X185550000Y-65975000D03*
X186050000Y-65975000D03*
X186550000Y-65975000D03*
X187050000Y-65975000D03*
X187050000Y-67825000D03*
X186550000Y-67825000D03*
X186050000Y-67825000D03*
X185550000Y-67825000D03*
X185050000Y-67825000D03*
D34*
X186650000Y-66900000D03*
X185450000Y-66900000D03*
D35*
X185300000Y-59500000D03*
X185300000Y-59000000D03*
X185300000Y-58500000D03*
X185300000Y-58000000D03*
X185300000Y-57500000D03*
X189700000Y-57500000D03*
X189700000Y-58000000D03*
X189700000Y-58500000D03*
X189700000Y-59000000D03*
X189700000Y-59500000D03*
D36*
X170700000Y-76620000D03*
X170060000Y-76620000D03*
X169400000Y-76620000D03*
X168760000Y-76620000D03*
X168760000Y-74000000D03*
X169400000Y-74000000D03*
X170060000Y-74000000D03*
X170700000Y-74000000D03*
D37*
X167200000Y-82675000D03*
X167200000Y-82025000D03*
X167200000Y-81375000D03*
X167200000Y-80725000D03*
X171600000Y-80725000D03*
X171600000Y-81375000D03*
X171600000Y-82025000D03*
X171600000Y-82675000D03*
D38*
X173425000Y-77200000D03*
D39*
X173100000Y-75050000D03*
D40*
X174400000Y-75050000D03*
D41*
X181650000Y-59900000D03*
X183550000Y-59900000D03*
X178050000Y-59900000D03*
X179950000Y-59900000D03*
X174450000Y-59900000D03*
X176350000Y-59900000D03*
X170850000Y-59900000D03*
X172750000Y-59900000D03*
X167250000Y-59900000D03*
X169150000Y-59900000D03*
X163650000Y-59900000D03*
X165550000Y-59900000D03*
X160050000Y-59900000D03*
X161950000Y-59900000D03*
X156450000Y-59900000D03*
X158350000Y-59900000D03*
X152850000Y-59900000D03*
X154750000Y-59900000D03*
X149250000Y-59900000D03*
X151150000Y-59900000D03*
X145650000Y-62200000D03*
X147550000Y-62200000D03*
X142000000Y-62200000D03*
X143900000Y-62200000D03*
D29*
X145750000Y-71900000D03*
X147250000Y-71900000D03*
D28*
X148900000Y-72750000D03*
X148900000Y-74250000D03*
X165250000Y-71800000D03*
X165250000Y-70300000D03*
D16*
X174900000Y-66050000D03*
X172800000Y-66050000D03*
D28*
X152150000Y-77300000D03*
X152150000Y-75800000D03*
D42*
X200660000Y-58640000D03*
D43*
X203200000Y-58640000D03*
X200660000Y-61180000D03*
X203200000Y-61180000D03*
X200660000Y-63720000D03*
X203200000Y-63720000D03*
X200660000Y-66260000D03*
X203200000Y-66260000D03*
X200660000Y-68800000D03*
X203200000Y-68800000D03*
X200660000Y-71340000D03*
X203200000Y-71340000D03*
X200660000Y-73880000D03*
X203200000Y-73880000D03*
X200660000Y-76420000D03*
X203200000Y-76420000D03*
D14*
X144850000Y-64000000D03*
X143350000Y-64000000D03*
D28*
X168100000Y-67450000D03*
X168100000Y-65950000D03*
D44*
X185750000Y-79950000D03*
X185750000Y-76950000D03*
X188850000Y-79950000D03*
X188850000Y-76950000D03*
X187150000Y-64150000D03*
X187150000Y-61150000D03*
D15*
X153400000Y-64550000D03*
X153400000Y-66050000D03*
X180200000Y-68200000D03*
X180200000Y-66700000D03*
X175200000Y-67700000D03*
X175200000Y-69200000D03*
D44*
X185750000Y-72350000D03*
X185750000Y-75350000D03*
X188850000Y-72350000D03*
X188850000Y-75350000D03*
X191950000Y-72350000D03*
X191950000Y-75350000D03*
D45*
X184050000Y-62600000D03*
X180050000Y-62600000D03*
D46*
X142150000Y-63800000D03*
X141250000Y-63800000D03*
D47*
X151900000Y-64320000D03*
X151900000Y-64970000D03*
X151900000Y-65630000D03*
X151900000Y-66280000D03*
X149700000Y-66280000D03*
X149700000Y-65630000D03*
X149700000Y-64970000D03*
X149700000Y-64320000D03*
D25*
X178650000Y-68850000D03*
X176750000Y-68850000D03*
X177700000Y-66850000D03*
D48*
X148300000Y-80600000D03*
X153900000Y-80600000D03*
D49*
X151100000Y-82750000D03*
D11*
X143500000Y-53500000D03*
D50*
X145200000Y-68670000D03*
X145200000Y-67400000D03*
X145200000Y-66130000D03*
X147800000Y-68670000D03*
X147800000Y-67400000D03*
X147800000Y-66130000D03*
D29*
X146300000Y-64600000D03*
X147800000Y-64600000D03*
X145750000Y-73400000D03*
X147250000Y-73400000D03*
D16*
X160600000Y-80100000D03*
X158500000Y-80100000D03*
M02*
