G04 #@! TF.FileFunction,Copper,L2,Inr,Signal*
%FSLAX46Y46*%
G04 Gerber Fmt 4.6, Leading zero omitted, Abs format (unit mm)*
G04 Created by KiCad (PCBNEW 4.0.7) date 02/25/18 23:04:30*
%MOMM*%
%LPD*%
G01*
G04 APERTURE LIST*
%ADD10C,0.100000*%
%ADD11R,1.750000X1.750000*%
%ADD12C,1.750000*%
%ADD13C,6.000000*%
%ADD14R,1.800000X3.600000*%
%ADD15O,1.800000X3.600000*%
%ADD16O,1.800000X1.100000*%
%ADD17O,2.200000X1.100000*%
%ADD18R,1.700000X1.700000*%
%ADD19O,1.700000X1.700000*%
%ADD20C,0.800000*%
%ADD21C,0.600000*%
%ADD22C,0.250000*%
G04 APERTURE END LIST*
D10*
D11*
X179200000Y-52800000D03*
D12*
X176700000Y-52800000D03*
X174200000Y-52800000D03*
X171700000Y-52800000D03*
X169200000Y-52800000D03*
X166700000Y-52800000D03*
X164200000Y-52800000D03*
X161700000Y-52800000D03*
X159200000Y-52800000D03*
X156700000Y-52800000D03*
X154200000Y-52800000D03*
X151700000Y-52800000D03*
X149200000Y-52800000D03*
D13*
X201500000Y-81500000D03*
X201500000Y-53500000D03*
X143500000Y-53500000D03*
D11*
X150600000Y-66600000D03*
D12*
X148100000Y-66600000D03*
X145600000Y-66600000D03*
X143100000Y-66600000D03*
D11*
X150600000Y-73400000D03*
D12*
X148100000Y-73400000D03*
X145600000Y-73400000D03*
X143100000Y-73400000D03*
D14*
X194500000Y-82400000D03*
D15*
X191000000Y-82400000D03*
X187500000Y-82400000D03*
D13*
X143500000Y-81500000D03*
D16*
X148300000Y-80625000D03*
X153900000Y-80625000D03*
D17*
X151100000Y-82775000D03*
D18*
X200660000Y-58640000D03*
D19*
X203200000Y-58640000D03*
X200660000Y-61180000D03*
X203200000Y-61180000D03*
X200660000Y-63720000D03*
X203200000Y-63720000D03*
X200660000Y-66260000D03*
X203200000Y-66260000D03*
X200660000Y-68800000D03*
X203200000Y-68800000D03*
X200660000Y-71340000D03*
X203200000Y-71340000D03*
X200660000Y-73880000D03*
X203200000Y-73880000D03*
X200660000Y-76420000D03*
X203200000Y-76420000D03*
D20*
X148700000Y-82400000D03*
X153500000Y-82400000D03*
D21*
X170500000Y-69259999D03*
X170201971Y-66798029D03*
X146000000Y-64300000D03*
X172900000Y-64500000D03*
X173600000Y-72150000D03*
X170600000Y-75600000D03*
X162400000Y-84200000D03*
X188600000Y-64300000D03*
D20*
X152500000Y-77600000D03*
X151100000Y-83900000D03*
D21*
X194600000Y-70500000D03*
D20*
X154200000Y-64600000D03*
X183600000Y-53300000D03*
X183600000Y-52200000D03*
X183600000Y-51000000D03*
X184800000Y-51000000D03*
X184800000Y-52200000D03*
X184800000Y-53300000D03*
X184800000Y-54500000D03*
X185900000Y-54500000D03*
X185900000Y-53300000D03*
X185900000Y-52200000D03*
X185900000Y-51000000D03*
X187100000Y-51000000D03*
X187100000Y-52200000D03*
X187100000Y-53300000D03*
X187100000Y-54500000D03*
X188300000Y-54500000D03*
X188300000Y-53300000D03*
X188300000Y-52200000D03*
X188300000Y-51000000D03*
X189500000Y-51000000D03*
X189500000Y-52200000D03*
X189500000Y-53300000D03*
X189500000Y-54500000D03*
D21*
X179200000Y-65700000D03*
X179900000Y-65700000D03*
X180600000Y-65500000D03*
X180800000Y-64200000D03*
X144800000Y-76900000D03*
X193100000Y-65900000D03*
X193200000Y-64700000D03*
X194600000Y-73400000D03*
X194600000Y-72800000D03*
X190300000Y-68200000D03*
X195200000Y-64600000D03*
X193200000Y-65300000D03*
X193200000Y-64100000D03*
X194800000Y-72200000D03*
X194900000Y-71600000D03*
X194600000Y-71100000D03*
X189800000Y-60400000D03*
X185900000Y-59350002D03*
X189700000Y-56000000D03*
X189900000Y-58700000D03*
X193400000Y-56100000D03*
X174250000Y-71500000D03*
X174250000Y-72150000D03*
X172300000Y-71500000D03*
X181100000Y-67000000D03*
X175249998Y-70750000D03*
X172950000Y-71500000D03*
X173600000Y-71500000D03*
X172950000Y-72150000D03*
X172300000Y-72150000D03*
X181300000Y-83875000D03*
X155300000Y-79500000D03*
X180800000Y-64850000D03*
X161216522Y-67701725D03*
X161200000Y-73400000D03*
X165600000Y-69100000D03*
X165600000Y-76300000D03*
X168900000Y-82950000D03*
X170000000Y-82950000D03*
X170792801Y-82743199D03*
X174500000Y-81900000D03*
X168717896Y-75877422D03*
X169800000Y-71099998D03*
X168600000Y-77300000D03*
D20*
X152700000Y-83600000D03*
X149400000Y-83600000D03*
D21*
X151700000Y-70700000D03*
X141730806Y-61049998D03*
X145339754Y-61049998D03*
X148939754Y-58749998D03*
X181339754Y-58749999D03*
X177739754Y-58749998D03*
X174139754Y-58749998D03*
X170539754Y-58749998D03*
X166939754Y-58749999D03*
X163339754Y-58749999D03*
X159739754Y-58749999D03*
X156139754Y-58749998D03*
X152539754Y-58749998D03*
D20*
X149300000Y-79400000D03*
D21*
X164400000Y-71900000D03*
X168200000Y-82200000D03*
X167100000Y-79300000D03*
D20*
X192100000Y-63159998D03*
D21*
X141700000Y-76700000D03*
X144900000Y-69800000D03*
D20*
X152700000Y-79300000D03*
D21*
X192800000Y-69300000D03*
X192800000Y-68600000D03*
X192800000Y-67900000D03*
X193000000Y-70700000D03*
X192800000Y-72500000D03*
X192800000Y-67200000D03*
X185000000Y-58700000D03*
X156050000Y-64239998D03*
X159000000Y-64953352D03*
X179900000Y-69799998D03*
X159900000Y-71000000D03*
X162200000Y-68800000D03*
X161200000Y-74900000D03*
X168900000Y-81700000D03*
X170000000Y-81900000D03*
X154200000Y-78600000D03*
X157550002Y-81100000D03*
D20*
X158100000Y-63425038D03*
D21*
X142100000Y-70600000D03*
X151700000Y-69100000D03*
X164400000Y-73500000D03*
X170950000Y-67250000D03*
X175350000Y-63400000D03*
X148651930Y-60984124D03*
X164446381Y-63026118D03*
X144800000Y-62400000D03*
X166370279Y-63429721D03*
X196200000Y-57300000D03*
D20*
X197500000Y-51000000D03*
X196300000Y-51000000D03*
X195100000Y-51000000D03*
X193900000Y-51000000D03*
X191500000Y-51000000D03*
X192700000Y-51000000D03*
X197500000Y-52100000D03*
X196300000Y-52100000D03*
X195100000Y-52100000D03*
X193900000Y-52100000D03*
X191500000Y-52100000D03*
X192700000Y-52100000D03*
X197500000Y-53300000D03*
X196300000Y-53300000D03*
X195100000Y-53300000D03*
X193900000Y-53300000D03*
X191500000Y-53300000D03*
X192700000Y-53300000D03*
X197500000Y-54500000D03*
X196300000Y-54500000D03*
X195100000Y-54500000D03*
X193900000Y-54500000D03*
X192700000Y-54500000D03*
X191500000Y-54500000D03*
D21*
X191100000Y-57349998D03*
X192099998Y-56100000D03*
X193500000Y-57800000D03*
X170800000Y-72700000D03*
X169900000Y-72549999D03*
X188200000Y-75400000D03*
X146800000Y-76300000D03*
X176900000Y-65500000D03*
X178500000Y-62200000D03*
X181300000Y-57900000D03*
X180200000Y-55600000D03*
X177700000Y-57900000D03*
X176500000Y-55600000D03*
X174100000Y-57900000D03*
X173000000Y-55600000D03*
X170478442Y-57929416D03*
X169400000Y-55600000D03*
X166900000Y-57900000D03*
X165800000Y-55600000D03*
X163300000Y-57900000D03*
X162200000Y-55600000D03*
X159700000Y-57900000D03*
X158600000Y-55600000D03*
X155000000Y-55600000D03*
X156100000Y-57900000D03*
X151400000Y-55600000D03*
X152500000Y-57900000D03*
X148141573Y-58696052D03*
X147800000Y-57900000D03*
X144300000Y-57900000D03*
X145300000Y-60200000D03*
X142850002Y-62500000D03*
X168502850Y-64008557D03*
X141700000Y-60200000D03*
X171800000Y-77200000D03*
X172600000Y-76400000D03*
X174200000Y-76400000D03*
X173400000Y-77200000D03*
X173400000Y-76400000D03*
X174200000Y-78000000D03*
X174200000Y-77200000D03*
X172600000Y-77200000D03*
X171800000Y-78000000D03*
X172600000Y-78000000D03*
X173400000Y-78000000D03*
X152799998Y-72000000D03*
X155258058Y-72075000D03*
X155660000Y-69924001D03*
X165250000Y-73049998D03*
X157000000Y-72900000D03*
X151300000Y-71990001D03*
X152100000Y-73100000D03*
X183700000Y-55600000D03*
X159800000Y-81500000D03*
X174250001Y-63249565D03*
X182600000Y-57100000D03*
X173249999Y-63249564D03*
X179000000Y-57100000D03*
X172250001Y-63249565D03*
X175400000Y-57100000D03*
X171250001Y-63249565D03*
X171800000Y-57100000D03*
X170250001Y-63249564D03*
X168200000Y-57100000D03*
X169250001Y-63249565D03*
X164600000Y-57100000D03*
X168250001Y-63249564D03*
X161000000Y-57100000D03*
X167250001Y-63249564D03*
X157375000Y-57100000D03*
X166000000Y-62600000D03*
X153800000Y-57100000D03*
X163641927Y-62858073D03*
X150200000Y-57100000D03*
X165226762Y-62850030D03*
X146575000Y-59400000D03*
X142900000Y-61600000D03*
X167696952Y-63913067D03*
X143000000Y-59400000D03*
X182900000Y-84550000D03*
X180150000Y-84500000D03*
X158650000Y-74000000D03*
X161974212Y-67478097D03*
X185200000Y-56649998D03*
X160250000Y-76000000D03*
X163800000Y-77450000D03*
X160350003Y-70150000D03*
X162615598Y-67016873D03*
X185982244Y-56482377D03*
X159550000Y-75050000D03*
X163395800Y-78304685D03*
X159550000Y-70150000D03*
X169765462Y-64402260D03*
X171341193Y-65443351D03*
X171200000Y-64600000D03*
X170739807Y-63869397D03*
X154800000Y-63800000D03*
X154800000Y-66500000D03*
X161971648Y-64328352D03*
D20*
X178700000Y-81600000D03*
D21*
X186600000Y-67100000D03*
X185800000Y-67100000D03*
X185000000Y-67100000D03*
X184200000Y-67100000D03*
X184200000Y-66300000D03*
X183400000Y-67100000D03*
X183400000Y-66300000D03*
D20*
X182300000Y-80900000D03*
X181550000Y-81300000D03*
X180800000Y-80900000D03*
X180050000Y-81300000D03*
X179300000Y-80900000D03*
X178200000Y-80900000D03*
X177700000Y-81600000D03*
D21*
X164741131Y-82348017D03*
X164572761Y-81543237D03*
X164978352Y-83124980D03*
X167500000Y-70500000D03*
X149324000Y-77515000D03*
X180000000Y-68300000D03*
X166500000Y-70400000D03*
X173249999Y-68935105D03*
X182400000Y-64000000D03*
X190050000Y-63000000D03*
X188200000Y-66200000D03*
X164900000Y-67100000D03*
X143800000Y-75800000D03*
X172500000Y-67250000D03*
X149134990Y-69300000D03*
X182400000Y-65000000D03*
X164200000Y-67900000D03*
X187500000Y-68800000D03*
X187020674Y-61920674D03*
X188500000Y-63000000D03*
X149000000Y-70200000D03*
X155400000Y-74000000D03*
X169750000Y-68935106D03*
X176400000Y-64050000D03*
D22*
X146900000Y-61700000D02*
X146200000Y-62400000D01*
X146200000Y-62400000D02*
X144800000Y-62400000D01*
X161500000Y-61700000D02*
X146900000Y-61700000D01*
X163451119Y-63651119D02*
X161500000Y-61700000D01*
X166370279Y-63429721D02*
X165946015Y-63429721D01*
X165946015Y-63429721D02*
X165724617Y-63651119D01*
X165724617Y-63651119D02*
X163451119Y-63651119D01*
X147600000Y-62600020D02*
X146725009Y-63475011D01*
X146725009Y-63475011D02*
X143825013Y-63475011D01*
X143825013Y-63475011D02*
X142850002Y-62500000D01*
X161127200Y-62600020D02*
X147600000Y-62600020D01*
X163078317Y-64551137D02*
X161127200Y-62600020D01*
X168502850Y-64008557D02*
X167960269Y-64551138D01*
X167960269Y-64551138D02*
X163078317Y-64551137D01*
X147200000Y-62150010D02*
X146325009Y-63025001D01*
X146325009Y-63025001D02*
X144325001Y-63025001D01*
X144325001Y-63025001D02*
X142900000Y-61600000D01*
X161313600Y-62150010D02*
X147200000Y-62150010D01*
X161431795Y-62268205D02*
X161313600Y-62150010D01*
X163264718Y-64101128D02*
X161431795Y-62268205D01*
X167696952Y-63913067D02*
X167272688Y-63913067D01*
X167272688Y-63913067D02*
X167084626Y-64101129D01*
X167084626Y-64101129D02*
X163264718Y-64101128D01*
X191634999Y-59774999D02*
X200660000Y-68800000D01*
X185200000Y-56649998D02*
X187075011Y-58525009D01*
X187075011Y-58525009D02*
X188800007Y-58525009D01*
X188800007Y-58525009D02*
X190049997Y-59774999D01*
X190049997Y-59774999D02*
X191634999Y-59774999D01*
X161974212Y-67478097D02*
X162274211Y-67778096D01*
X162274211Y-67778096D02*
X163221904Y-67778096D01*
X163221904Y-67778096D02*
X164991426Y-66008574D01*
X164991426Y-66008574D02*
X170373946Y-66008574D01*
X170373946Y-66008574D02*
X170981319Y-66615947D01*
X170981319Y-66615947D02*
X171884053Y-66615947D01*
X171884053Y-66615947D02*
X172374999Y-66125001D01*
X172374999Y-66125001D02*
X177200001Y-66125001D01*
X177200001Y-66125001D02*
X177525001Y-65800001D01*
X177525001Y-65800001D02*
X177525001Y-65249997D01*
X177525001Y-65249997D02*
X184600000Y-58174998D01*
X184600000Y-58174998D02*
X184600000Y-57249998D01*
X184600000Y-57249998D02*
X185200000Y-56649998D01*
X190750797Y-58074999D02*
X190750797Y-58082399D01*
X190750797Y-58082399D02*
X200298397Y-67629999D01*
X200298397Y-67629999D02*
X202029999Y-67629999D01*
X202029999Y-67629999D02*
X202350001Y-67950001D01*
X202350001Y-67950001D02*
X203200000Y-68800000D01*
X185982244Y-56482377D02*
X187574866Y-58074999D01*
X187574866Y-58074999D02*
X190750797Y-58074999D01*
X162615598Y-67016873D02*
X164165200Y-65467271D01*
X174700000Y-65600000D02*
X175624999Y-64675001D01*
X164165200Y-65467271D02*
X170454911Y-65467271D01*
X170454911Y-65467271D02*
X171132284Y-66144644D01*
X172277732Y-65600000D02*
X174700000Y-65600000D01*
X171132284Y-66144644D02*
X171733088Y-66144644D01*
X171733088Y-66144644D02*
X172277732Y-65600000D01*
X175624999Y-64675001D02*
X177463587Y-64675001D01*
X185524864Y-56024997D02*
X185982244Y-56482377D01*
X177463587Y-64675001D02*
X184149990Y-57988598D01*
X184149990Y-57988598D02*
X184149990Y-56775006D01*
X184149990Y-56775006D02*
X184899999Y-56024997D01*
X184899999Y-56024997D02*
X185524864Y-56024997D01*
X170390463Y-64702261D02*
X170390463Y-64218741D01*
X170390463Y-64218741D02*
X170739807Y-63869397D01*
X162827261Y-65027261D02*
X162128352Y-64328352D01*
X162128352Y-64328352D02*
X161971648Y-64328352D01*
X170390463Y-64702261D02*
X170065463Y-65027261D01*
X170065463Y-65027261D02*
X162827261Y-65027261D01*
X203200000Y-71340000D02*
X201900000Y-72640000D01*
X201500000Y-75200000D02*
X200000000Y-75200000D01*
X165699990Y-84049990D02*
X165650000Y-84000000D01*
X201900000Y-72640000D02*
X201900000Y-74800000D01*
X201900000Y-74800000D02*
X201500000Y-75200000D01*
X200000000Y-75200000D02*
X199200000Y-76000000D01*
X199200000Y-76000000D02*
X199200000Y-77629339D01*
X184023577Y-82635872D02*
X179532080Y-82635872D01*
X165650000Y-84000000D02*
X165650000Y-82871626D01*
X199200000Y-77629339D02*
X197174349Y-79654990D01*
X179532080Y-82635872D02*
X178117962Y-84049990D01*
X165126391Y-82348017D02*
X164741131Y-82348017D01*
X197174349Y-79654990D02*
X187004459Y-79654990D01*
X187004459Y-79654990D02*
X184023577Y-82635872D01*
X178117962Y-84049990D02*
X165699990Y-84049990D01*
X165650000Y-82871626D02*
X165126391Y-82348017D01*
X179345680Y-82185862D02*
X183847784Y-82182327D01*
X183847784Y-82182327D02*
X183851319Y-82185862D01*
X200660000Y-73880000D02*
X198754990Y-75785010D01*
X198754990Y-75785010D02*
X198754990Y-77445010D01*
X198754990Y-77445010D02*
X196990020Y-79209980D01*
X196990020Y-79209980D02*
X186820130Y-79209980D01*
X186820130Y-79209980D02*
X186559449Y-79470662D01*
X186559449Y-79470662D02*
X183847784Y-82182327D01*
X164572761Y-81543237D02*
X164958021Y-81543237D01*
X164958021Y-81543237D02*
X167014764Y-83599980D01*
X167014764Y-83599980D02*
X167039743Y-83575001D01*
X167039743Y-83575001D02*
X177956541Y-83575001D01*
X177956541Y-83575001D02*
X179345680Y-82185862D01*
X197358678Y-80100000D02*
X199458678Y-78000000D01*
X199458678Y-78000000D02*
X201620000Y-78000000D01*
X201620000Y-78000000D02*
X203200000Y-76420000D01*
X187181717Y-80100000D02*
X197358678Y-80100000D01*
X164978352Y-83124980D02*
X164978352Y-84028352D01*
X164978352Y-84028352D02*
X165450000Y-84500000D01*
X165450000Y-84500000D02*
X178304362Y-84500000D01*
X178304362Y-84500000D02*
X179718480Y-83085882D01*
X179718480Y-83085882D02*
X184195835Y-83085882D01*
X184195835Y-83085882D02*
X187181717Y-80100000D01*
X169550129Y-67030071D02*
X170385059Y-67865001D01*
X170385059Y-67865001D02*
X172934999Y-67865001D01*
X172934999Y-67865001D02*
X174234989Y-66565011D01*
X166500000Y-67000000D02*
X169550129Y-67000000D01*
X169550129Y-67000000D02*
X169550129Y-67030071D01*
X165600000Y-67900000D02*
X166500000Y-67000000D01*
X164200000Y-67900000D02*
X165600000Y-67900000D01*
X182000000Y-65000000D02*
X182400000Y-65000000D01*
X181210202Y-65789798D02*
X182000000Y-65000000D01*
X181210202Y-65800000D02*
X181210202Y-65789798D01*
X164200000Y-67900000D02*
X164300000Y-67900000D01*
X174234989Y-66565011D02*
X180445191Y-66565011D01*
X180445191Y-66565011D02*
X181210202Y-65800000D01*
G36*
X182901007Y-50532065D02*
X182775143Y-50835177D01*
X182774857Y-51163383D01*
X182900191Y-51466715D01*
X183033273Y-51600029D01*
X182901007Y-51732065D01*
X182775143Y-52035177D01*
X182774857Y-52363383D01*
X182900191Y-52666715D01*
X182983273Y-52749942D01*
X182901007Y-52832065D01*
X182775143Y-53135177D01*
X182774857Y-53463383D01*
X182900191Y-53766715D01*
X183132065Y-53998993D01*
X183435177Y-54124857D01*
X183763383Y-54125143D01*
X184066715Y-53999809D01*
X184200029Y-53866727D01*
X184233273Y-53900029D01*
X184101007Y-54032065D01*
X183975143Y-54335177D01*
X183974857Y-54663383D01*
X184100191Y-54966715D01*
X184332065Y-55198993D01*
X184635177Y-55324857D01*
X184963383Y-55325143D01*
X185266715Y-55199809D01*
X185349942Y-55116727D01*
X185432065Y-55198993D01*
X185735177Y-55324857D01*
X186063383Y-55325143D01*
X186366715Y-55199809D01*
X186500029Y-55066727D01*
X186632065Y-55198993D01*
X186935177Y-55324857D01*
X187263383Y-55325143D01*
X187566715Y-55199809D01*
X187700029Y-55066727D01*
X187832065Y-55198993D01*
X188135177Y-55324857D01*
X188463383Y-55325143D01*
X188766715Y-55199809D01*
X188900029Y-55066727D01*
X189032065Y-55198993D01*
X189335177Y-55324857D01*
X189435242Y-55324944D01*
X189289857Y-55385016D01*
X189085733Y-55588784D01*
X188975126Y-55855156D01*
X188974874Y-56143579D01*
X189085016Y-56410143D01*
X189288784Y-56614267D01*
X189555156Y-56724874D01*
X189843579Y-56725126D01*
X190110143Y-56614984D01*
X190314267Y-56411216D01*
X190383875Y-56243579D01*
X191374872Y-56243579D01*
X191485014Y-56510143D01*
X191688782Y-56714267D01*
X191955154Y-56824874D01*
X192243577Y-56825126D01*
X192510141Y-56714984D01*
X192714265Y-56511216D01*
X192749950Y-56425277D01*
X192785016Y-56510143D01*
X192988784Y-56714267D01*
X193255156Y-56824874D01*
X193543579Y-56825126D01*
X193810143Y-56714984D01*
X194014267Y-56511216D01*
X194124874Y-56244844D01*
X194125126Y-55956421D01*
X194014984Y-55689857D01*
X193811216Y-55485733D01*
X193544844Y-55375126D01*
X193256421Y-55374874D01*
X192989857Y-55485016D01*
X192785733Y-55688784D01*
X192750048Y-55774723D01*
X192714982Y-55689857D01*
X192511214Y-55485733D01*
X192244842Y-55375126D01*
X191956419Y-55374874D01*
X191689855Y-55485016D01*
X191485731Y-55688784D01*
X191375124Y-55955156D01*
X191374872Y-56243579D01*
X190383875Y-56243579D01*
X190424874Y-56144844D01*
X190425126Y-55856421D01*
X190314984Y-55589857D01*
X190111216Y-55385733D01*
X189844844Y-55275126D01*
X189784561Y-55275073D01*
X189966715Y-55199809D01*
X190198993Y-54967935D01*
X190324857Y-54664823D01*
X190325143Y-54336617D01*
X190199809Y-54033285D01*
X190066727Y-53899971D01*
X190198993Y-53767935D01*
X190324857Y-53464823D01*
X190325143Y-53136617D01*
X190199809Y-52833285D01*
X190116727Y-52750058D01*
X190198993Y-52667935D01*
X190324857Y-52364823D01*
X190325143Y-52036617D01*
X190199809Y-51733285D01*
X190066727Y-51599971D01*
X190198993Y-51467935D01*
X190324857Y-51164823D01*
X190325143Y-50836617D01*
X190199809Y-50533285D01*
X190166582Y-50500000D01*
X190833128Y-50500000D01*
X190801007Y-50532065D01*
X190675143Y-50835177D01*
X190674857Y-51163383D01*
X190800191Y-51466715D01*
X190883273Y-51549942D01*
X190801007Y-51632065D01*
X190675143Y-51935177D01*
X190674857Y-52263383D01*
X190800191Y-52566715D01*
X190933273Y-52700029D01*
X190801007Y-52832065D01*
X190675143Y-53135177D01*
X190674857Y-53463383D01*
X190800191Y-53766715D01*
X190933273Y-53900029D01*
X190801007Y-54032065D01*
X190675143Y-54335177D01*
X190674857Y-54663383D01*
X190800191Y-54966715D01*
X191032065Y-55198993D01*
X191335177Y-55324857D01*
X191663383Y-55325143D01*
X191966715Y-55199809D01*
X192100029Y-55066727D01*
X192232065Y-55198993D01*
X192535177Y-55324857D01*
X192863383Y-55325143D01*
X193166715Y-55199809D01*
X193300029Y-55066727D01*
X193432065Y-55198993D01*
X193735177Y-55324857D01*
X194063383Y-55325143D01*
X194366715Y-55199809D01*
X194500029Y-55066727D01*
X194632065Y-55198993D01*
X194935177Y-55324857D01*
X195263383Y-55325143D01*
X195566715Y-55199809D01*
X195700029Y-55066727D01*
X195832065Y-55198993D01*
X196135177Y-55324857D01*
X196463383Y-55325143D01*
X196766715Y-55199809D01*
X196900029Y-55066727D01*
X197032065Y-55198993D01*
X197335177Y-55324857D01*
X197663383Y-55325143D01*
X197966715Y-55199809D01*
X198198993Y-54967935D01*
X198300087Y-54724475D01*
X198594733Y-55437572D01*
X199557360Y-56401881D01*
X200815736Y-56924404D01*
X202178286Y-56925593D01*
X203437572Y-56405267D01*
X204401881Y-55442640D01*
X204500000Y-55206343D01*
X204500000Y-79791700D01*
X204405267Y-79562428D01*
X203442640Y-78598119D01*
X202281744Y-78116073D01*
X202781161Y-77616656D01*
X203175021Y-77695000D01*
X203224979Y-77695000D01*
X203712900Y-77597946D01*
X204126540Y-77321561D01*
X204402925Y-76907921D01*
X204499979Y-76420000D01*
X204402925Y-75932079D01*
X204126540Y-75518439D01*
X203712900Y-75242054D01*
X203250116Y-75150000D01*
X203712900Y-75057946D01*
X204126540Y-74781561D01*
X204402925Y-74367921D01*
X204499979Y-73880000D01*
X204402925Y-73392079D01*
X204126540Y-72978439D01*
X203712900Y-72702054D01*
X203250116Y-72610000D01*
X203712900Y-72517946D01*
X204126540Y-72241561D01*
X204402925Y-71827921D01*
X204499979Y-71340000D01*
X204402925Y-70852079D01*
X204126540Y-70438439D01*
X203712900Y-70162054D01*
X203250116Y-70070000D01*
X203712900Y-69977946D01*
X204126540Y-69701561D01*
X204402925Y-69287921D01*
X204499979Y-68800000D01*
X204402925Y-68312079D01*
X204126540Y-67898439D01*
X203712900Y-67622054D01*
X203250116Y-67530000D01*
X203712900Y-67437946D01*
X204126540Y-67161561D01*
X204402925Y-66747921D01*
X204499979Y-66260000D01*
X204402925Y-65772079D01*
X204126540Y-65358439D01*
X203712900Y-65082054D01*
X203250116Y-64990000D01*
X203712900Y-64897946D01*
X204126540Y-64621561D01*
X204402925Y-64207921D01*
X204499979Y-63720000D01*
X204402925Y-63232079D01*
X204126540Y-62818439D01*
X203712900Y-62542054D01*
X203250116Y-62450000D01*
X203712900Y-62357946D01*
X204126540Y-62081561D01*
X204402925Y-61667921D01*
X204499979Y-61180000D01*
X204402925Y-60692079D01*
X204126540Y-60278439D01*
X203712900Y-60002054D01*
X203250116Y-59910000D01*
X203712900Y-59817946D01*
X204126540Y-59541561D01*
X204402925Y-59127921D01*
X204499979Y-58640000D01*
X204402925Y-58152079D01*
X204126540Y-57738439D01*
X203712900Y-57462054D01*
X203224979Y-57365000D01*
X203175021Y-57365000D01*
X202687100Y-57462054D01*
X202273460Y-57738439D01*
X201997075Y-58152079D01*
X201943326Y-58422292D01*
X201943326Y-57790000D01*
X201913691Y-57632504D01*
X201820611Y-57487854D01*
X201678588Y-57390814D01*
X201510000Y-57356674D01*
X199810000Y-57356674D01*
X199652504Y-57386309D01*
X199507854Y-57479389D01*
X199410814Y-57621412D01*
X199376674Y-57790000D01*
X199376674Y-59490000D01*
X199406309Y-59647496D01*
X199499389Y-59792146D01*
X199641412Y-59889186D01*
X199810000Y-59923326D01*
X200542890Y-59923326D01*
X200147100Y-60002054D01*
X199733460Y-60278439D01*
X199457075Y-60692079D01*
X199360021Y-61180000D01*
X199457075Y-61667921D01*
X199733460Y-62081561D01*
X200147100Y-62357946D01*
X200609884Y-62450000D01*
X200147100Y-62542054D01*
X199733460Y-62818439D01*
X199457075Y-63232079D01*
X199360021Y-63720000D01*
X199457075Y-64207921D01*
X199733460Y-64621561D01*
X200147100Y-64897946D01*
X200609884Y-64990000D01*
X200147100Y-65082054D01*
X199733460Y-65358439D01*
X199457075Y-65772079D01*
X199417459Y-65971243D01*
X191440128Y-57993912D01*
X191510143Y-57964982D01*
X191531583Y-57943579D01*
X192774874Y-57943579D01*
X192885016Y-58210143D01*
X193088784Y-58414267D01*
X193355156Y-58524874D01*
X193643579Y-58525126D01*
X193910143Y-58414984D01*
X194114267Y-58211216D01*
X194224874Y-57944844D01*
X194225126Y-57656421D01*
X194137182Y-57443579D01*
X195474874Y-57443579D01*
X195585016Y-57710143D01*
X195788784Y-57914267D01*
X196055156Y-58024874D01*
X196343579Y-58025126D01*
X196610143Y-57914984D01*
X196814267Y-57711216D01*
X196924874Y-57444844D01*
X196925126Y-57156421D01*
X196814984Y-56889857D01*
X196611216Y-56685733D01*
X196344844Y-56575126D01*
X196056421Y-56574874D01*
X195789857Y-56685016D01*
X195585733Y-56888784D01*
X195475126Y-57155156D01*
X195474874Y-57443579D01*
X194137182Y-57443579D01*
X194114984Y-57389857D01*
X193911216Y-57185733D01*
X193644844Y-57075126D01*
X193356421Y-57074874D01*
X193089857Y-57185016D01*
X192885733Y-57388784D01*
X192775126Y-57655156D01*
X192774874Y-57943579D01*
X191531583Y-57943579D01*
X191714267Y-57761214D01*
X191824874Y-57494842D01*
X191825126Y-57206419D01*
X191714984Y-56939855D01*
X191511216Y-56735731D01*
X191244844Y-56625124D01*
X190956421Y-56624872D01*
X190689857Y-56735014D01*
X190485733Y-56938782D01*
X190375126Y-57205154D01*
X190374874Y-57493577D01*
X190387857Y-57524999D01*
X187802683Y-57524999D01*
X186707291Y-56429606D01*
X186707370Y-56338798D01*
X186597228Y-56072234D01*
X186393460Y-55868110D01*
X186127088Y-55757503D01*
X186035108Y-55757423D01*
X185913773Y-55636088D01*
X185735340Y-55516863D01*
X185524864Y-55474997D01*
X184899999Y-55474997D01*
X184689523Y-55516863D01*
X184511090Y-55636088D01*
X184424894Y-55722284D01*
X184425126Y-55456421D01*
X184314984Y-55189857D01*
X184111216Y-54985733D01*
X183844844Y-54875126D01*
X183556421Y-54874874D01*
X183289857Y-54985016D01*
X183085733Y-55188784D01*
X182975126Y-55455156D01*
X182974874Y-55743579D01*
X183085016Y-56010143D01*
X183288784Y-56214267D01*
X183555156Y-56324874D01*
X183822071Y-56325107D01*
X183761081Y-56386097D01*
X183641856Y-56564530D01*
X183599990Y-56775006D01*
X183599990Y-57760780D01*
X179225057Y-62135713D01*
X179225126Y-62056421D01*
X179114984Y-61789857D01*
X178911216Y-61585733D01*
X178644844Y-61475126D01*
X178356421Y-61474874D01*
X178089857Y-61585016D01*
X177885733Y-61788784D01*
X177775126Y-62055156D01*
X177774874Y-62343579D01*
X177885016Y-62610143D01*
X178088784Y-62814267D01*
X178355156Y-62924874D01*
X178435826Y-62924944D01*
X177235769Y-64125001D01*
X177124935Y-64125001D01*
X177125126Y-63906421D01*
X177014984Y-63639857D01*
X176811216Y-63435733D01*
X176544844Y-63325126D01*
X176256421Y-63324874D01*
X176075001Y-63399835D01*
X176075126Y-63256421D01*
X175964984Y-62989857D01*
X175761216Y-62785733D01*
X175494844Y-62675126D01*
X175206421Y-62674874D01*
X174939857Y-62785016D01*
X174870934Y-62853819D01*
X174864985Y-62839422D01*
X174661217Y-62635298D01*
X174394845Y-62524691D01*
X174106422Y-62524439D01*
X173839858Y-62634581D01*
X173750023Y-62724260D01*
X173661215Y-62635297D01*
X173394843Y-62524690D01*
X173106420Y-62524438D01*
X172839856Y-62634580D01*
X172750022Y-62724258D01*
X172661217Y-62635298D01*
X172394845Y-62524691D01*
X172106422Y-62524439D01*
X171839858Y-62634581D01*
X171750023Y-62724259D01*
X171661217Y-62635298D01*
X171394845Y-62524691D01*
X171106422Y-62524439D01*
X170839858Y-62634581D01*
X170750024Y-62724259D01*
X170661217Y-62635297D01*
X170394845Y-62524690D01*
X170106422Y-62524438D01*
X169839858Y-62634580D01*
X169750023Y-62724259D01*
X169661217Y-62635298D01*
X169394845Y-62524691D01*
X169106422Y-62524439D01*
X168839858Y-62634581D01*
X168750024Y-62724259D01*
X168661217Y-62635297D01*
X168394845Y-62524690D01*
X168106422Y-62524438D01*
X167839858Y-62634580D01*
X167750023Y-62724258D01*
X167661217Y-62635297D01*
X167394845Y-62524690D01*
X167106422Y-62524438D01*
X166839858Y-62634580D01*
X166721669Y-62752563D01*
X166724874Y-62744844D01*
X166725126Y-62456421D01*
X166614984Y-62189857D01*
X166411216Y-61985733D01*
X166144844Y-61875126D01*
X165856421Y-61874874D01*
X165589857Y-61985016D01*
X165426598Y-62147991D01*
X165371606Y-62125156D01*
X165083183Y-62124904D01*
X164816619Y-62235046D01*
X164703573Y-62347895D01*
X164591225Y-62301244D01*
X164302802Y-62300992D01*
X164166465Y-62357325D01*
X164053143Y-62243806D01*
X163786771Y-62133199D01*
X163498348Y-62132947D01*
X163231784Y-62243089D01*
X163027660Y-62446857D01*
X163026784Y-62448966D01*
X161888909Y-61311091D01*
X161710476Y-61191866D01*
X161500000Y-61150000D01*
X149368071Y-61150000D01*
X149376804Y-61128968D01*
X149377056Y-60840545D01*
X149266914Y-60573981D01*
X149063146Y-60369857D01*
X148796774Y-60259250D01*
X148508351Y-60258998D01*
X148241787Y-60369140D01*
X148037663Y-60572908D01*
X147927056Y-60839280D01*
X147926804Y-61127703D01*
X147936017Y-61150000D01*
X146900000Y-61150000D01*
X146689524Y-61191866D01*
X146511091Y-61311091D01*
X146511089Y-61311094D01*
X145972182Y-61850000D01*
X145275371Y-61850000D01*
X145211216Y-61785733D01*
X144944844Y-61675126D01*
X144656421Y-61674874D01*
X144389857Y-61785016D01*
X144185733Y-61988784D01*
X144150780Y-62072962D01*
X143625047Y-61547229D01*
X143625126Y-61456421D01*
X143514984Y-61189857D01*
X143311216Y-60985733D01*
X143044844Y-60875126D01*
X142756421Y-60874874D01*
X142489857Y-60985016D01*
X142455834Y-61018980D01*
X142455932Y-60906419D01*
X142345790Y-60639855D01*
X142315129Y-60609140D01*
X142424874Y-60344844D01*
X142424875Y-60343579D01*
X144574874Y-60343579D01*
X144685016Y-60610143D01*
X144721996Y-60647188D01*
X144614880Y-60905154D01*
X144614628Y-61193577D01*
X144724770Y-61460141D01*
X144928538Y-61664265D01*
X145194910Y-61774872D01*
X145483333Y-61775124D01*
X145749897Y-61664982D01*
X145954021Y-61461214D01*
X146064628Y-61194842D01*
X146064880Y-60906419D01*
X145954738Y-60639855D01*
X145917758Y-60602810D01*
X146024874Y-60344844D01*
X146025126Y-60056421D01*
X145914984Y-59789857D01*
X145711216Y-59585733D01*
X145609698Y-59543579D01*
X145849874Y-59543579D01*
X145960016Y-59810143D01*
X146163784Y-60014267D01*
X146430156Y-60124874D01*
X146718579Y-60125126D01*
X146985143Y-60014984D01*
X147189267Y-59811216D01*
X147299874Y-59544844D01*
X147300126Y-59256421D01*
X147189984Y-58989857D01*
X146986216Y-58785733D01*
X146719844Y-58675126D01*
X146431421Y-58674874D01*
X146164857Y-58785016D01*
X145960733Y-58988784D01*
X145850126Y-59255156D01*
X145849874Y-59543579D01*
X145609698Y-59543579D01*
X145444844Y-59475126D01*
X145156421Y-59474874D01*
X144889857Y-59585016D01*
X144685733Y-59788784D01*
X144575126Y-60055156D01*
X144574874Y-60343579D01*
X142424875Y-60343579D01*
X142425126Y-60056421D01*
X142314984Y-59789857D01*
X142111216Y-59585733D01*
X142009698Y-59543579D01*
X142274874Y-59543579D01*
X142385016Y-59810143D01*
X142588784Y-60014267D01*
X142855156Y-60124874D01*
X143143579Y-60125126D01*
X143410143Y-60014984D01*
X143614267Y-59811216D01*
X143724874Y-59544844D01*
X143725126Y-59256421D01*
X143614984Y-58989857D01*
X143411216Y-58785733D01*
X143144844Y-58675126D01*
X142856421Y-58674874D01*
X142589857Y-58785016D01*
X142385733Y-58988784D01*
X142275126Y-59255156D01*
X142274874Y-59543579D01*
X142009698Y-59543579D01*
X141844844Y-59475126D01*
X141556421Y-59474874D01*
X141289857Y-59585016D01*
X141085733Y-59788784D01*
X140975126Y-60055156D01*
X140974874Y-60343579D01*
X141085016Y-60610143D01*
X141115677Y-60640858D01*
X141005932Y-60905154D01*
X141005680Y-61193577D01*
X141115822Y-61460141D01*
X141319590Y-61664265D01*
X141585962Y-61774872D01*
X141874385Y-61775124D01*
X142140949Y-61664982D01*
X142174972Y-61631018D01*
X142174874Y-61743579D01*
X142285016Y-62010143D01*
X142299739Y-62024892D01*
X142235735Y-62088784D01*
X142125128Y-62355156D01*
X142124876Y-62643579D01*
X142235018Y-62910143D01*
X142438786Y-63114267D01*
X142705158Y-63224874D01*
X142797138Y-63224954D01*
X143436104Y-63863920D01*
X143614537Y-63983145D01*
X143825013Y-64025012D01*
X143825018Y-64025011D01*
X145329167Y-64025011D01*
X145275126Y-64155156D01*
X145274874Y-64443579D01*
X145385016Y-64710143D01*
X145588784Y-64914267D01*
X145855156Y-65024874D01*
X146143579Y-65025126D01*
X146410143Y-64914984D01*
X146614267Y-64711216D01*
X146724874Y-64444844D01*
X146725126Y-64156421D01*
X146670828Y-64025011D01*
X146725009Y-64025011D01*
X146935485Y-63983145D01*
X147113918Y-63863920D01*
X147827818Y-63150020D01*
X154474554Y-63150020D01*
X154389857Y-63185016D01*
X154185733Y-63388784D01*
X154075126Y-63655156D01*
X154075021Y-63774890D01*
X154036617Y-63774857D01*
X153733285Y-63900191D01*
X153501007Y-64132065D01*
X153375143Y-64435177D01*
X153374857Y-64763383D01*
X153500191Y-65066715D01*
X153732065Y-65298993D01*
X154035177Y-65424857D01*
X154363383Y-65425143D01*
X154666715Y-65299809D01*
X154898993Y-65067935D01*
X155024857Y-64764823D01*
X155025095Y-64491444D01*
X155210143Y-64414984D01*
X155414267Y-64211216D01*
X155524874Y-63944844D01*
X155525126Y-63656421D01*
X155414984Y-63389857D01*
X155211216Y-63185733D01*
X155125209Y-63150020D01*
X160899382Y-63150020D01*
X161512074Y-63762712D01*
X161357381Y-63917136D01*
X161246774Y-64183508D01*
X161246522Y-64471931D01*
X161356664Y-64738495D01*
X161560432Y-64942619D01*
X161826804Y-65053226D01*
X162075626Y-65053443D01*
X162438350Y-65416167D01*
X162438352Y-65416170D01*
X162564471Y-65500440D01*
X162616785Y-65535395D01*
X162827261Y-65577262D01*
X162827266Y-65577261D01*
X163277392Y-65577261D01*
X162562827Y-66291826D01*
X162472019Y-66291747D01*
X162205455Y-66401889D01*
X162001331Y-66605657D01*
X161940121Y-66753067D01*
X161830633Y-66752971D01*
X161564069Y-66863113D01*
X161424056Y-67002882D01*
X161361366Y-66976851D01*
X161072943Y-66976599D01*
X160806379Y-67086741D01*
X160602255Y-67290509D01*
X160491648Y-67556881D01*
X160491396Y-67845304D01*
X160601538Y-68111868D01*
X160805306Y-68315992D01*
X161071678Y-68426599D01*
X161360101Y-68426851D01*
X161626665Y-68316709D01*
X161766678Y-68176940D01*
X161829368Y-68202971D01*
X161939273Y-68203067D01*
X161949996Y-68210232D01*
X162063735Y-68286230D01*
X162274211Y-68328097D01*
X162274216Y-68328096D01*
X163221904Y-68328096D01*
X163432380Y-68286230D01*
X163544250Y-68211481D01*
X163585016Y-68310143D01*
X163788784Y-68514267D01*
X164055156Y-68624874D01*
X164343579Y-68625126D01*
X164610143Y-68514984D01*
X164675241Y-68450000D01*
X165274602Y-68450000D01*
X165189857Y-68485016D01*
X164985733Y-68688784D01*
X164875126Y-68955156D01*
X164874874Y-69243579D01*
X164985016Y-69510143D01*
X165188784Y-69714267D01*
X165455156Y-69824874D01*
X165743579Y-69825126D01*
X166010143Y-69714984D01*
X166214267Y-69511216D01*
X166324874Y-69244844D01*
X166325126Y-68956421D01*
X166214984Y-68689857D01*
X166011216Y-68485733D01*
X165815788Y-68404585D01*
X165988909Y-68288909D01*
X166727818Y-67550000D01*
X169292240Y-67550000D01*
X169993395Y-68251154D01*
X169894844Y-68210232D01*
X169606421Y-68209980D01*
X169339857Y-68320122D01*
X169135733Y-68523890D01*
X169025126Y-68790262D01*
X169024874Y-69078685D01*
X169135016Y-69345249D01*
X169338784Y-69549373D01*
X169605156Y-69659980D01*
X169880917Y-69660221D01*
X169885016Y-69670142D01*
X170088784Y-69874266D01*
X170355156Y-69984873D01*
X170643579Y-69985125D01*
X170910143Y-69874983D01*
X171114267Y-69671215D01*
X171224874Y-69404843D01*
X171225126Y-69116420D01*
X171114984Y-68849856D01*
X170911216Y-68645732D01*
X170644844Y-68535125D01*
X170369083Y-68534884D01*
X170364984Y-68524963D01*
X170223043Y-68382774D01*
X170385059Y-68415001D01*
X172744810Y-68415001D01*
X172635732Y-68523889D01*
X172525125Y-68790261D01*
X172524873Y-69078684D01*
X172635015Y-69345248D01*
X172838783Y-69549372D01*
X173105155Y-69659979D01*
X173393578Y-69660231D01*
X173660142Y-69550089D01*
X173864266Y-69346321D01*
X173974873Y-69079949D01*
X173975125Y-68791526D01*
X173864983Y-68524962D01*
X173783742Y-68443579D01*
X179274874Y-68443579D01*
X179385016Y-68710143D01*
X179588784Y-68914267D01*
X179855156Y-69024874D01*
X180143579Y-69025126D01*
X180340937Y-68943579D01*
X186774874Y-68943579D01*
X186885016Y-69210143D01*
X187088784Y-69414267D01*
X187355156Y-69524874D01*
X187643579Y-69525126D01*
X187910143Y-69414984D01*
X188114267Y-69211216D01*
X188224874Y-68944844D01*
X188225126Y-68656421D01*
X188114984Y-68389857D01*
X188068787Y-68343579D01*
X189574874Y-68343579D01*
X189685016Y-68610143D01*
X189888784Y-68814267D01*
X190155156Y-68924874D01*
X190443579Y-68925126D01*
X190710143Y-68814984D01*
X190914267Y-68611216D01*
X191024874Y-68344844D01*
X191025126Y-68056421D01*
X190914984Y-67789857D01*
X190711216Y-67585733D01*
X190444844Y-67475126D01*
X190156421Y-67474874D01*
X189889857Y-67585016D01*
X189685733Y-67788784D01*
X189575126Y-68055156D01*
X189574874Y-68343579D01*
X188068787Y-68343579D01*
X187911216Y-68185733D01*
X187644844Y-68075126D01*
X187356421Y-68074874D01*
X187089857Y-68185016D01*
X186885733Y-68388784D01*
X186775126Y-68655156D01*
X186774874Y-68943579D01*
X180340937Y-68943579D01*
X180410143Y-68914984D01*
X180614267Y-68711216D01*
X180724874Y-68444844D01*
X180725126Y-68156421D01*
X180614984Y-67889857D01*
X180411216Y-67685733D01*
X180144844Y-67575126D01*
X179856421Y-67574874D01*
X179589857Y-67685016D01*
X179385733Y-67888784D01*
X179275126Y-68155156D01*
X179274874Y-68443579D01*
X173783742Y-68443579D01*
X173661215Y-68320838D01*
X173394843Y-68210231D01*
X173367611Y-68210207D01*
X174462806Y-67115011D01*
X180374899Y-67115011D01*
X180374874Y-67143579D01*
X180485016Y-67410143D01*
X180688784Y-67614267D01*
X180955156Y-67724874D01*
X181243579Y-67725126D01*
X181510143Y-67614984D01*
X181714267Y-67411216D01*
X181824874Y-67144844D01*
X181825126Y-66856421D01*
X181714984Y-66589857D01*
X181568962Y-66443579D01*
X182674874Y-66443579D01*
X182780950Y-66700303D01*
X182675126Y-66955156D01*
X182674874Y-67243579D01*
X182785016Y-67510143D01*
X182988784Y-67714267D01*
X183255156Y-67824874D01*
X183543579Y-67825126D01*
X183800303Y-67719050D01*
X184055156Y-67824874D01*
X184343579Y-67825126D01*
X184600303Y-67719050D01*
X184855156Y-67824874D01*
X185143579Y-67825126D01*
X185400303Y-67719050D01*
X185655156Y-67824874D01*
X185943579Y-67825126D01*
X186200303Y-67719050D01*
X186455156Y-67824874D01*
X186743579Y-67825126D01*
X187010143Y-67714984D01*
X187214267Y-67511216D01*
X187324874Y-67244844D01*
X187325126Y-66956421D01*
X187214984Y-66689857D01*
X187011216Y-66485733D01*
X186744844Y-66375126D01*
X186456421Y-66374874D01*
X186199697Y-66480950D01*
X185944844Y-66375126D01*
X185656421Y-66374874D01*
X185399697Y-66480950D01*
X185144844Y-66375126D01*
X184924935Y-66374934D01*
X184924962Y-66343579D01*
X187474874Y-66343579D01*
X187585016Y-66610143D01*
X187788784Y-66814267D01*
X188055156Y-66924874D01*
X188343579Y-66925126D01*
X188610143Y-66814984D01*
X188814267Y-66611216D01*
X188924874Y-66344844D01*
X188925126Y-66056421D01*
X188919820Y-66043579D01*
X192374874Y-66043579D01*
X192485016Y-66310143D01*
X192688784Y-66514267D01*
X192955156Y-66624874D01*
X193243579Y-66625126D01*
X193510143Y-66514984D01*
X193714267Y-66311216D01*
X193824874Y-66044844D01*
X193825126Y-65756421D01*
X193808731Y-65716742D01*
X193814267Y-65711216D01*
X193924874Y-65444844D01*
X193925126Y-65156421D01*
X193860471Y-64999944D01*
X193924874Y-64844844D01*
X193925126Y-64556421D01*
X193860471Y-64399944D01*
X193924874Y-64244844D01*
X193925126Y-63956421D01*
X193814984Y-63689857D01*
X193611216Y-63485733D01*
X193344844Y-63375126D01*
X193056421Y-63374874D01*
X192789857Y-63485016D01*
X192585733Y-63688784D01*
X192475126Y-63955156D01*
X192474874Y-64243579D01*
X192539529Y-64400056D01*
X192475126Y-64555156D01*
X192474874Y-64843579D01*
X192539529Y-65000056D01*
X192475126Y-65155156D01*
X192474874Y-65443579D01*
X192491269Y-65483258D01*
X192485733Y-65488784D01*
X192375126Y-65755156D01*
X192374874Y-66043579D01*
X188919820Y-66043579D01*
X188814984Y-65789857D01*
X188611216Y-65585733D01*
X188344844Y-65475126D01*
X188056421Y-65474874D01*
X187789857Y-65585016D01*
X187585733Y-65788784D01*
X187475126Y-66055156D01*
X187474874Y-66343579D01*
X184924962Y-66343579D01*
X184925126Y-66156421D01*
X184814984Y-65889857D01*
X184611216Y-65685733D01*
X184344844Y-65575126D01*
X184056421Y-65574874D01*
X183799697Y-65680950D01*
X183544844Y-65575126D01*
X183256421Y-65574874D01*
X182989857Y-65685016D01*
X182785733Y-65888784D01*
X182675126Y-66155156D01*
X182674874Y-66443579D01*
X181568962Y-66443579D01*
X181511216Y-66385733D01*
X181434247Y-66353773D01*
X181599111Y-66188909D01*
X181619654Y-66158164D01*
X182112274Y-65665544D01*
X182255156Y-65724874D01*
X182543579Y-65725126D01*
X182810143Y-65614984D01*
X183014267Y-65411216D01*
X183124874Y-65144844D01*
X183125126Y-64856421D01*
X183014984Y-64589857D01*
X182925306Y-64500022D01*
X183014267Y-64411216D01*
X183124874Y-64144844D01*
X183125126Y-63856421D01*
X183014984Y-63589857D01*
X182811216Y-63385733D01*
X182544844Y-63275126D01*
X182256421Y-63274874D01*
X181989857Y-63385016D01*
X181785733Y-63588784D01*
X181675126Y-63855156D01*
X181674874Y-64143579D01*
X181785016Y-64410143D01*
X181853828Y-64479075D01*
X181789524Y-64491866D01*
X181611091Y-64611091D01*
X181522388Y-64699794D01*
X181450116Y-64524882D01*
X181524874Y-64344844D01*
X181525126Y-64056421D01*
X181414984Y-63789857D01*
X181211216Y-63585733D01*
X180944844Y-63475126D01*
X180656421Y-63474874D01*
X180389857Y-63585016D01*
X180185733Y-63788784D01*
X180075126Y-64055156D01*
X180074874Y-64343579D01*
X180149884Y-64525118D01*
X180075126Y-64705156D01*
X180074879Y-64987598D01*
X180044844Y-64975126D01*
X179756421Y-64974874D01*
X179549821Y-65060240D01*
X179344844Y-64975126D01*
X179056421Y-64974874D01*
X178789857Y-65085016D01*
X178585733Y-65288784D01*
X178475126Y-65555156D01*
X178474874Y-65843579D01*
X178545708Y-66015011D01*
X178030105Y-66015011D01*
X178033135Y-66010477D01*
X178075001Y-65800001D01*
X178075001Y-65477815D01*
X180409236Y-63143579D01*
X187774874Y-63143579D01*
X187885016Y-63410143D01*
X188088784Y-63614267D01*
X188224597Y-63670662D01*
X188189857Y-63685016D01*
X187985733Y-63888784D01*
X187875126Y-64155156D01*
X187874874Y-64443579D01*
X187985016Y-64710143D01*
X188188784Y-64914267D01*
X188455156Y-65024874D01*
X188743579Y-65025126D01*
X189010143Y-64914984D01*
X189214267Y-64711216D01*
X189324874Y-64444844D01*
X189325126Y-64156421D01*
X189214984Y-63889857D01*
X189011216Y-63685733D01*
X188875403Y-63629338D01*
X188910143Y-63614984D01*
X189114267Y-63411216D01*
X189224874Y-63144844D01*
X189224875Y-63143579D01*
X189324874Y-63143579D01*
X189435016Y-63410143D01*
X189638784Y-63614267D01*
X189905156Y-63724874D01*
X190193579Y-63725126D01*
X190460143Y-63614984D01*
X190664267Y-63411216D01*
X190774874Y-63144844D01*
X190775126Y-62856421D01*
X190664984Y-62589857D01*
X190461216Y-62385733D01*
X190194844Y-62275126D01*
X189906421Y-62274874D01*
X189639857Y-62385016D01*
X189435733Y-62588784D01*
X189325126Y-62855156D01*
X189324874Y-63143579D01*
X189224875Y-63143579D01*
X189225126Y-62856421D01*
X189114984Y-62589857D01*
X188911216Y-62385733D01*
X188644844Y-62275126D01*
X188356421Y-62274874D01*
X188089857Y-62385016D01*
X187885733Y-62588784D01*
X187775126Y-62855156D01*
X187774874Y-63143579D01*
X180409236Y-63143579D01*
X181488562Y-62064253D01*
X186295548Y-62064253D01*
X186405690Y-62330817D01*
X186609458Y-62534941D01*
X186875830Y-62645548D01*
X187164253Y-62645800D01*
X187430817Y-62535658D01*
X187634941Y-62331890D01*
X187745548Y-62065518D01*
X187745800Y-61777095D01*
X187635658Y-61510531D01*
X187431890Y-61306407D01*
X187165518Y-61195800D01*
X186877095Y-61195548D01*
X186610531Y-61305690D01*
X186406407Y-61509458D01*
X186295800Y-61775830D01*
X186295548Y-62064253D01*
X181488562Y-62064253D01*
X184059234Y-59493581D01*
X185174874Y-59493581D01*
X185285016Y-59760145D01*
X185488784Y-59964269D01*
X185755156Y-60074876D01*
X186043579Y-60075128D01*
X186310143Y-59964986D01*
X186514267Y-59761218D01*
X186624874Y-59494846D01*
X186625126Y-59206423D01*
X186514984Y-58939859D01*
X186311216Y-58735735D01*
X186044844Y-58625128D01*
X185756421Y-58624876D01*
X185489857Y-58735018D01*
X185285733Y-58938786D01*
X185175126Y-59205158D01*
X185174874Y-59493581D01*
X184059234Y-59493581D01*
X184988906Y-58563909D01*
X184988909Y-58563907D01*
X185108134Y-58385474D01*
X185117267Y-58339559D01*
X185150001Y-58174998D01*
X185150000Y-58174993D01*
X185150000Y-57477816D01*
X185200000Y-57427816D01*
X186686102Y-58913918D01*
X186864535Y-59033143D01*
X187075011Y-59075009D01*
X188572189Y-59075009D01*
X189335980Y-59838800D01*
X189185733Y-59988784D01*
X189075126Y-60255156D01*
X189074874Y-60543579D01*
X189185016Y-60810143D01*
X189388784Y-61014267D01*
X189655156Y-61124874D01*
X189943579Y-61125126D01*
X190210143Y-61014984D01*
X190414267Y-60811216D01*
X190524874Y-60544844D01*
X190525066Y-60324999D01*
X191407181Y-60324999D01*
X194986109Y-63903927D01*
X194789857Y-63985016D01*
X194585733Y-64188784D01*
X194475126Y-64455156D01*
X194474874Y-64743579D01*
X194585016Y-65010143D01*
X194788784Y-65214267D01*
X195055156Y-65324874D01*
X195343579Y-65325126D01*
X195610143Y-65214984D01*
X195814267Y-65011216D01*
X195896165Y-64813983D01*
X199446653Y-68364471D01*
X199360021Y-68800000D01*
X199457075Y-69287921D01*
X199733460Y-69701561D01*
X200147100Y-69977946D01*
X200635021Y-70075000D01*
X200684979Y-70075000D01*
X201172900Y-69977946D01*
X201586540Y-69701561D01*
X201862925Y-69287921D01*
X201930000Y-68950714D01*
X201997075Y-69287921D01*
X202273460Y-69701561D01*
X202687100Y-69977946D01*
X203149884Y-70070000D01*
X202687100Y-70162054D01*
X202273460Y-70438439D01*
X201997075Y-70852079D01*
X201900021Y-71340000D01*
X201986654Y-71775529D01*
X201511091Y-72251091D01*
X201391866Y-72429524D01*
X201350000Y-72640000D01*
X201350000Y-72820388D01*
X201172900Y-72702054D01*
X200684979Y-72605000D01*
X200635021Y-72605000D01*
X200147100Y-72702054D01*
X199733460Y-72978439D01*
X199457075Y-73392079D01*
X199360021Y-73880000D01*
X199446653Y-74315529D01*
X198366081Y-75396101D01*
X198246856Y-75574534D01*
X198204990Y-75785010D01*
X198204990Y-77217193D01*
X196762202Y-78659980D01*
X186820130Y-78659980D01*
X186778263Y-78668308D01*
X186609654Y-78701846D01*
X186574813Y-78725126D01*
X186431220Y-78821072D01*
X186170540Y-79081754D01*
X183619787Y-81632506D01*
X182685808Y-81633239D01*
X182766715Y-81599809D01*
X182998993Y-81367935D01*
X183124857Y-81064823D01*
X183125143Y-80736617D01*
X182999809Y-80433285D01*
X182767935Y-80201007D01*
X182464823Y-80075143D01*
X182136617Y-80074857D01*
X181833285Y-80200191D01*
X181601007Y-80432065D01*
X181583167Y-80475028D01*
X181517033Y-80474971D01*
X181499809Y-80433285D01*
X181267935Y-80201007D01*
X180964823Y-80075143D01*
X180636617Y-80074857D01*
X180333285Y-80200191D01*
X180101007Y-80432065D01*
X180083167Y-80475028D01*
X180017033Y-80474971D01*
X179999809Y-80433285D01*
X179767935Y-80201007D01*
X179464823Y-80075143D01*
X179136617Y-80074857D01*
X178833285Y-80200191D01*
X178750058Y-80283273D01*
X178667935Y-80201007D01*
X178364823Y-80075143D01*
X178036617Y-80074857D01*
X177733285Y-80200191D01*
X177501007Y-80432065D01*
X177375143Y-80735177D01*
X177375050Y-80841615D01*
X177233285Y-80900191D01*
X177001007Y-81132065D01*
X176875143Y-81435177D01*
X176874857Y-81763383D01*
X177000191Y-82066715D01*
X177232065Y-82298993D01*
X177535177Y-82424857D01*
X177863383Y-82425143D01*
X178166715Y-82299809D01*
X178199855Y-82266727D01*
X178232065Y-82298993D01*
X178389400Y-82364324D01*
X177728723Y-83025001D01*
X171460805Y-83025001D01*
X171517675Y-82888043D01*
X171517927Y-82599620D01*
X171407785Y-82333056D01*
X171204017Y-82128932D01*
X170998464Y-82043579D01*
X173774874Y-82043579D01*
X173885016Y-82310143D01*
X174088784Y-82514267D01*
X174355156Y-82624874D01*
X174643579Y-82625126D01*
X174910143Y-82514984D01*
X175114267Y-82311216D01*
X175224874Y-82044844D01*
X175225126Y-81756421D01*
X175114984Y-81489857D01*
X174911216Y-81285733D01*
X174644844Y-81175126D01*
X174356421Y-81174874D01*
X174089857Y-81285016D01*
X173885733Y-81488784D01*
X173775126Y-81755156D01*
X173774874Y-82043579D01*
X170998464Y-82043579D01*
X170937645Y-82018325D01*
X170649222Y-82018073D01*
X170382658Y-82128215D01*
X170244235Y-82266397D01*
X170144844Y-82225126D01*
X169856421Y-82224874D01*
X169589857Y-82335016D01*
X169449935Y-82474694D01*
X169311216Y-82335733D01*
X169044844Y-82225126D01*
X168756421Y-82224874D01*
X168489857Y-82335016D01*
X168285733Y-82538784D01*
X168175126Y-82805156D01*
X168174934Y-83025001D01*
X167217603Y-83025001D01*
X165346930Y-81154328D01*
X165168497Y-81035103D01*
X165070458Y-81015602D01*
X164983977Y-80928970D01*
X164717605Y-80818363D01*
X164429182Y-80818111D01*
X164162618Y-80928253D01*
X163958494Y-81132021D01*
X163847887Y-81398393D01*
X163847635Y-81686816D01*
X163957777Y-81953380D01*
X164072330Y-82068133D01*
X164016257Y-82203173D01*
X164016005Y-82491596D01*
X164126147Y-82758160D01*
X164281168Y-82913452D01*
X164253478Y-82980136D01*
X164253226Y-83268559D01*
X164363368Y-83535123D01*
X164428352Y-83600221D01*
X164428352Y-84028352D01*
X164470218Y-84238828D01*
X164589443Y-84417261D01*
X164672182Y-84500000D01*
X163060448Y-84500000D01*
X163124874Y-84344844D01*
X163125126Y-84056421D01*
X163014984Y-83789857D01*
X162811216Y-83585733D01*
X162544844Y-83475126D01*
X162256421Y-83474874D01*
X161989857Y-83585016D01*
X161785733Y-83788784D01*
X161675126Y-84055156D01*
X161674874Y-84343579D01*
X161739506Y-84500000D01*
X151666698Y-84500000D01*
X151798993Y-84367935D01*
X151924857Y-84064823D01*
X151925014Y-83884772D01*
X152000191Y-84066715D01*
X152232065Y-84298993D01*
X152535177Y-84424857D01*
X152863383Y-84425143D01*
X153166715Y-84299809D01*
X153398993Y-84067935D01*
X153524857Y-83764823D01*
X153525143Y-83436617D01*
X153437683Y-83224946D01*
X153663383Y-83225143D01*
X153966715Y-83099809D01*
X154198993Y-82867935D01*
X154324857Y-82564823D01*
X154325143Y-82236617D01*
X154199809Y-81933285D01*
X153967935Y-81701007D01*
X153829635Y-81643579D01*
X159074874Y-81643579D01*
X159185016Y-81910143D01*
X159388784Y-82114267D01*
X159655156Y-82224874D01*
X159943579Y-82225126D01*
X160210143Y-82114984D01*
X160414267Y-81911216D01*
X160524874Y-81644844D01*
X160525126Y-81356421D01*
X160414984Y-81089857D01*
X160211216Y-80885733D01*
X159944844Y-80775126D01*
X159656421Y-80774874D01*
X159389857Y-80885016D01*
X159185733Y-81088784D01*
X159075126Y-81355156D01*
X159074874Y-81643579D01*
X153829635Y-81643579D01*
X153724685Y-81600000D01*
X154275958Y-81600000D01*
X154649074Y-81525783D01*
X154965387Y-81314429D01*
X155176741Y-80998116D01*
X155250958Y-80625000D01*
X155176741Y-80251884D01*
X155158696Y-80224877D01*
X155443579Y-80225126D01*
X155710143Y-80114984D01*
X155914267Y-79911216D01*
X156024874Y-79644844D01*
X156025126Y-79356421D01*
X155914984Y-79089857D01*
X155711216Y-78885733D01*
X155444844Y-78775126D01*
X155156421Y-78774874D01*
X154889857Y-78885016D01*
X154685733Y-79088784D01*
X154575126Y-79355156D01*
X154574874Y-79643579D01*
X154604532Y-79715357D01*
X154275958Y-79650000D01*
X153524042Y-79650000D01*
X153150926Y-79724217D01*
X152834613Y-79935571D01*
X152623259Y-80251884D01*
X152549042Y-80625000D01*
X152623259Y-80998116D01*
X152834613Y-81314429D01*
X153150926Y-81525783D01*
X153397907Y-81574910D01*
X153336617Y-81574857D01*
X153033285Y-81700191D01*
X152801007Y-81932065D01*
X152675143Y-82235177D01*
X152674857Y-82563383D01*
X152762317Y-82775054D01*
X152654869Y-82774960D01*
X152580660Y-82401884D01*
X152369306Y-82085571D01*
X152052993Y-81874217D01*
X151679877Y-81800000D01*
X150520123Y-81800000D01*
X150147007Y-81874217D01*
X149830694Y-82085571D01*
X149619340Y-82401884D01*
X149545123Y-82775000D01*
X149545148Y-82775126D01*
X149437570Y-82775032D01*
X149524857Y-82564823D01*
X149525143Y-82236617D01*
X149399809Y-81933285D01*
X149167935Y-81701007D01*
X148864823Y-81575143D01*
X148801202Y-81575088D01*
X149049074Y-81525783D01*
X149365387Y-81314429D01*
X149576741Y-80998116D01*
X149650958Y-80625000D01*
X149576741Y-80251884D01*
X149538214Y-80194224D01*
X149766715Y-80099809D01*
X149998993Y-79867935D01*
X150124857Y-79564823D01*
X150125143Y-79236617D01*
X149999809Y-78933285D01*
X149767935Y-78701007D01*
X149464823Y-78575143D01*
X149136617Y-78574857D01*
X148833285Y-78700191D01*
X148601007Y-78932065D01*
X148475143Y-79235177D01*
X148474857Y-79563383D01*
X148510646Y-79650000D01*
X147924042Y-79650000D01*
X147550926Y-79724217D01*
X147234613Y-79935571D01*
X147023259Y-80251884D01*
X146949042Y-80625000D01*
X147023259Y-80998116D01*
X147234613Y-81314429D01*
X147550926Y-81525783D01*
X147924042Y-81600000D01*
X148475766Y-81600000D01*
X148233285Y-81700191D01*
X148001007Y-81932065D01*
X147875143Y-82235177D01*
X147874857Y-82563383D01*
X148000191Y-82866715D01*
X148232065Y-83098993D01*
X148535177Y-83224857D01*
X148662430Y-83224968D01*
X148575143Y-83435177D01*
X148574857Y-83763383D01*
X148700191Y-84066715D01*
X148932065Y-84298993D01*
X149235177Y-84424857D01*
X149563383Y-84425143D01*
X149866715Y-84299809D01*
X150098993Y-84067935D01*
X150224857Y-83764823D01*
X150224921Y-83691281D01*
X150288148Y-83703858D01*
X150275143Y-83735177D01*
X150274857Y-84063383D01*
X150400191Y-84366715D01*
X150533244Y-84500000D01*
X145208300Y-84500000D01*
X145437572Y-84405267D01*
X146401881Y-83442640D01*
X146924404Y-82184264D01*
X146925593Y-80821714D01*
X146405267Y-79562428D01*
X145442640Y-78598119D01*
X145081749Y-78448264D01*
X162670674Y-78448264D01*
X162780816Y-78714828D01*
X162984584Y-78918952D01*
X163250956Y-79029559D01*
X163539379Y-79029811D01*
X163805943Y-78919669D01*
X164010067Y-78715901D01*
X164120674Y-78449529D01*
X164120926Y-78161106D01*
X164100012Y-78110489D01*
X164210143Y-78064984D01*
X164414267Y-77861216D01*
X164524874Y-77594844D01*
X164525006Y-77443579D01*
X167874874Y-77443579D01*
X167985016Y-77710143D01*
X168188784Y-77914267D01*
X168455156Y-78024874D01*
X168743579Y-78025126D01*
X169010143Y-77914984D01*
X169214267Y-77711216D01*
X169324874Y-77444844D01*
X169324962Y-77343579D01*
X171074874Y-77343579D01*
X171180950Y-77600303D01*
X171075126Y-77855156D01*
X171074874Y-78143579D01*
X171185016Y-78410143D01*
X171388784Y-78614267D01*
X171655156Y-78724874D01*
X171943579Y-78725126D01*
X172200303Y-78619050D01*
X172455156Y-78724874D01*
X172743579Y-78725126D01*
X173000303Y-78619050D01*
X173255156Y-78724874D01*
X173543579Y-78725126D01*
X173800303Y-78619050D01*
X174055156Y-78724874D01*
X174343579Y-78725126D01*
X174610143Y-78614984D01*
X174814267Y-78411216D01*
X174924874Y-78144844D01*
X174925126Y-77856421D01*
X174819050Y-77599697D01*
X174924874Y-77344844D01*
X174925126Y-77056421D01*
X174819050Y-76799697D01*
X174924874Y-76544844D01*
X174925126Y-76256421D01*
X174814984Y-75989857D01*
X174611216Y-75785733D01*
X174344844Y-75675126D01*
X174056421Y-75674874D01*
X173799697Y-75780950D01*
X173544844Y-75675126D01*
X173256421Y-75674874D01*
X172999697Y-75780950D01*
X172744844Y-75675126D01*
X172456421Y-75674874D01*
X172189857Y-75785016D01*
X171985733Y-75988784D01*
X171875126Y-76255156D01*
X171874934Y-76475065D01*
X171656421Y-76474874D01*
X171389857Y-76585016D01*
X171185733Y-76788784D01*
X171075126Y-77055156D01*
X171074874Y-77343579D01*
X169324962Y-77343579D01*
X169325126Y-77156421D01*
X169214984Y-76889857D01*
X169011216Y-76685733D01*
X168810777Y-76602504D01*
X168861475Y-76602548D01*
X169128039Y-76492406D01*
X169332163Y-76288638D01*
X169442770Y-76022266D01*
X169443013Y-75743579D01*
X169874874Y-75743579D01*
X169985016Y-76010143D01*
X170188784Y-76214267D01*
X170455156Y-76324874D01*
X170743579Y-76325126D01*
X171010143Y-76214984D01*
X171214267Y-76011216D01*
X171324874Y-75744844D01*
X171325049Y-75543579D01*
X187474874Y-75543579D01*
X187585016Y-75810143D01*
X187788784Y-76014267D01*
X188055156Y-76124874D01*
X188343579Y-76125126D01*
X188610143Y-76014984D01*
X188814267Y-75811216D01*
X188924874Y-75544844D01*
X188925126Y-75256421D01*
X188814984Y-74989857D01*
X188611216Y-74785733D01*
X188344844Y-74675126D01*
X188056421Y-74674874D01*
X187789857Y-74785016D01*
X187585733Y-74988784D01*
X187475126Y-75255156D01*
X187474874Y-75543579D01*
X171325049Y-75543579D01*
X171325126Y-75456421D01*
X171214984Y-75189857D01*
X171011216Y-74985733D01*
X170744844Y-74875126D01*
X170456421Y-74874874D01*
X170189857Y-74985016D01*
X169985733Y-75188784D01*
X169875126Y-75455156D01*
X169874874Y-75743579D01*
X169443013Y-75743579D01*
X169443022Y-75733843D01*
X169332880Y-75467279D01*
X169129112Y-75263155D01*
X168862740Y-75152548D01*
X168574317Y-75152296D01*
X168307753Y-75262438D01*
X168103629Y-75466206D01*
X167993022Y-75732578D01*
X167992770Y-76021001D01*
X168102912Y-76287565D01*
X168306680Y-76491689D01*
X168507119Y-76574918D01*
X168456421Y-76574874D01*
X168189857Y-76685016D01*
X167985733Y-76888784D01*
X167875126Y-77155156D01*
X167874874Y-77443579D01*
X164525006Y-77443579D01*
X164525126Y-77306421D01*
X164414984Y-77039857D01*
X164211216Y-76835733D01*
X163944844Y-76725126D01*
X163656421Y-76724874D01*
X163389857Y-76835016D01*
X163185733Y-77038784D01*
X163075126Y-77305156D01*
X163074874Y-77593579D01*
X163095788Y-77644196D01*
X162985657Y-77689701D01*
X162781533Y-77893469D01*
X162670926Y-78159841D01*
X162670674Y-78448264D01*
X145081749Y-78448264D01*
X144184264Y-78075596D01*
X142821714Y-78074407D01*
X141562428Y-78594733D01*
X140598119Y-79557360D01*
X140500000Y-79793657D01*
X140500000Y-77658579D01*
X148598874Y-77658579D01*
X148709016Y-77925143D01*
X148912784Y-78129267D01*
X149179156Y-78239874D01*
X149467579Y-78240126D01*
X149734143Y-78129984D01*
X149938267Y-77926216D01*
X150005880Y-77763383D01*
X151674857Y-77763383D01*
X151800191Y-78066715D01*
X152032065Y-78298993D01*
X152335177Y-78424857D01*
X152663383Y-78425143D01*
X152966715Y-78299809D01*
X153198993Y-78067935D01*
X153324857Y-77764823D01*
X153325143Y-77436617D01*
X153199809Y-77133285D01*
X152967935Y-76901007D01*
X152664823Y-76775143D01*
X152336617Y-76774857D01*
X152033285Y-76900191D01*
X151801007Y-77132065D01*
X151675143Y-77435177D01*
X151674857Y-77763383D01*
X150005880Y-77763383D01*
X150048874Y-77659844D01*
X150049126Y-77371421D01*
X149938984Y-77104857D01*
X149735216Y-76900733D01*
X149468844Y-76790126D01*
X149180421Y-76789874D01*
X148913857Y-76900016D01*
X148709733Y-77103784D01*
X148599126Y-77370156D01*
X148598874Y-77658579D01*
X140500000Y-77658579D01*
X140500000Y-77043579D01*
X144074874Y-77043579D01*
X144185016Y-77310143D01*
X144388784Y-77514267D01*
X144655156Y-77624874D01*
X144943579Y-77625126D01*
X145210143Y-77514984D01*
X145414267Y-77311216D01*
X145524874Y-77044844D01*
X145525126Y-76756421D01*
X145414984Y-76489857D01*
X145368787Y-76443579D01*
X146074874Y-76443579D01*
X146185016Y-76710143D01*
X146388784Y-76914267D01*
X146655156Y-77024874D01*
X146943579Y-77025126D01*
X147210143Y-76914984D01*
X147414267Y-76711216D01*
X147524874Y-76444844D01*
X147525126Y-76156421D01*
X147414984Y-75889857D01*
X147211216Y-75685733D01*
X146944844Y-75575126D01*
X146656421Y-75574874D01*
X146389857Y-75685016D01*
X146185733Y-75888784D01*
X146075126Y-76155156D01*
X146074874Y-76443579D01*
X145368787Y-76443579D01*
X145211216Y-76285733D01*
X144944844Y-76175126D01*
X144656421Y-76174874D01*
X144389857Y-76285016D01*
X144185733Y-76488784D01*
X144075126Y-76755156D01*
X144074874Y-77043579D01*
X140500000Y-77043579D01*
X140500000Y-75943579D01*
X143074874Y-75943579D01*
X143185016Y-76210143D01*
X143388784Y-76414267D01*
X143655156Y-76524874D01*
X143943579Y-76525126D01*
X144210143Y-76414984D01*
X144414267Y-76211216D01*
X144524874Y-75944844D01*
X144525126Y-75656421D01*
X144414984Y-75389857D01*
X144211216Y-75185733D01*
X143944844Y-75075126D01*
X143656421Y-75074874D01*
X143389857Y-75185016D01*
X143185733Y-75388784D01*
X143075126Y-75655156D01*
X143074874Y-75943579D01*
X140500000Y-75943579D01*
X140500000Y-73657452D01*
X141799774Y-73657452D01*
X141997271Y-74135429D01*
X142362647Y-74501444D01*
X142840279Y-74699774D01*
X143357452Y-74700226D01*
X143835429Y-74502729D01*
X144201444Y-74137353D01*
X144350121Y-73779300D01*
X144497271Y-74135429D01*
X144862647Y-74501444D01*
X145340279Y-74699774D01*
X145857452Y-74700226D01*
X146335429Y-74502729D01*
X146701444Y-74137353D01*
X146850121Y-73779300D01*
X146997271Y-74135429D01*
X147362647Y-74501444D01*
X147840279Y-74699774D01*
X148357452Y-74700226D01*
X148835429Y-74502729D01*
X149201444Y-74137353D01*
X149291674Y-73920055D01*
X149291674Y-74275000D01*
X149321309Y-74432496D01*
X149414389Y-74577146D01*
X149556412Y-74674186D01*
X149725000Y-74708326D01*
X151475000Y-74708326D01*
X151632496Y-74678691D01*
X151777146Y-74585611D01*
X151874186Y-74443588D01*
X151908326Y-74275000D01*
X151908326Y-74143579D01*
X154674874Y-74143579D01*
X154785016Y-74410143D01*
X154988784Y-74614267D01*
X155255156Y-74724874D01*
X155543579Y-74725126D01*
X155810143Y-74614984D01*
X156014267Y-74411216D01*
X156124874Y-74144844D01*
X156124875Y-74143579D01*
X157924874Y-74143579D01*
X158035016Y-74410143D01*
X158238784Y-74614267D01*
X158505156Y-74724874D01*
X158793579Y-74725126D01*
X158921896Y-74672106D01*
X158825126Y-74905156D01*
X158824874Y-75193579D01*
X158935016Y-75460143D01*
X159138784Y-75664267D01*
X159405156Y-75774874D01*
X159558406Y-75775008D01*
X159525126Y-75855156D01*
X159524874Y-76143579D01*
X159635016Y-76410143D01*
X159838784Y-76614267D01*
X160105156Y-76724874D01*
X160393579Y-76725126D01*
X160660143Y-76614984D01*
X160831847Y-76443579D01*
X164874874Y-76443579D01*
X164985016Y-76710143D01*
X165188784Y-76914267D01*
X165455156Y-77024874D01*
X165743579Y-77025126D01*
X166010143Y-76914984D01*
X166214267Y-76711216D01*
X166324874Y-76444844D01*
X166325126Y-76156421D01*
X166214984Y-75889857D01*
X166011216Y-75685733D01*
X165744844Y-75575126D01*
X165456421Y-75574874D01*
X165189857Y-75685016D01*
X164985733Y-75888784D01*
X164875126Y-76155156D01*
X164874874Y-76443579D01*
X160831847Y-76443579D01*
X160864267Y-76411216D01*
X160974874Y-76144844D01*
X160975126Y-75856421D01*
X160864984Y-75589857D01*
X160661216Y-75385733D01*
X160394844Y-75275126D01*
X160241594Y-75274992D01*
X160274874Y-75194844D01*
X160275126Y-74906421D01*
X160164984Y-74639857D01*
X159961216Y-74435733D01*
X159694844Y-74325126D01*
X159406421Y-74324874D01*
X159278104Y-74377894D01*
X159374874Y-74144844D01*
X159375126Y-73856421D01*
X159264984Y-73589857D01*
X159218787Y-73543579D01*
X160474874Y-73543579D01*
X160585016Y-73810143D01*
X160788784Y-74014267D01*
X161055156Y-74124874D01*
X161343579Y-74125126D01*
X161610143Y-74014984D01*
X161814267Y-73811216D01*
X161924874Y-73544844D01*
X161925126Y-73256421D01*
X161814984Y-72989857D01*
X161611216Y-72785733D01*
X161344844Y-72675126D01*
X161056421Y-72674874D01*
X160789857Y-72785016D01*
X160585733Y-72988784D01*
X160475126Y-73255156D01*
X160474874Y-73543579D01*
X159218787Y-73543579D01*
X159061216Y-73385733D01*
X158794844Y-73275126D01*
X158506421Y-73274874D01*
X158239857Y-73385016D01*
X158035733Y-73588784D01*
X157925126Y-73855156D01*
X157924874Y-74143579D01*
X156124875Y-74143579D01*
X156125126Y-73856421D01*
X156014984Y-73589857D01*
X155811216Y-73385733D01*
X155544844Y-73275126D01*
X155256421Y-73274874D01*
X154989857Y-73385016D01*
X154785733Y-73588784D01*
X154675126Y-73855156D01*
X154674874Y-74143579D01*
X151908326Y-74143579D01*
X151908326Y-73805429D01*
X151955156Y-73824874D01*
X152243579Y-73825126D01*
X152510143Y-73714984D01*
X152714267Y-73511216D01*
X152824874Y-73244844D01*
X152825049Y-73043579D01*
X156274874Y-73043579D01*
X156385016Y-73310143D01*
X156588784Y-73514267D01*
X156855156Y-73624874D01*
X157143579Y-73625126D01*
X157410143Y-73514984D01*
X157614267Y-73311216D01*
X157724874Y-73044844D01*
X157725126Y-72756421D01*
X157614984Y-72489857D01*
X157411216Y-72285733D01*
X157144844Y-72175126D01*
X156856421Y-72174874D01*
X156589857Y-72285016D01*
X156385733Y-72488784D01*
X156275126Y-72755156D01*
X156274874Y-73043579D01*
X152825049Y-73043579D01*
X152825126Y-72956421D01*
X152729480Y-72724939D01*
X152943577Y-72725126D01*
X153210141Y-72614984D01*
X153414265Y-72411216D01*
X153494254Y-72218579D01*
X154532932Y-72218579D01*
X154643074Y-72485143D01*
X154846842Y-72689267D01*
X155113214Y-72799874D01*
X155401637Y-72800126D01*
X155668201Y-72689984D01*
X155872325Y-72486216D01*
X155982932Y-72219844D01*
X155983086Y-72043579D01*
X163674874Y-72043579D01*
X163785016Y-72310143D01*
X163988784Y-72514267D01*
X164255156Y-72624874D01*
X164543579Y-72625126D01*
X164724156Y-72550513D01*
X164635733Y-72638782D01*
X164574078Y-72787265D01*
X164544844Y-72775126D01*
X164256421Y-72774874D01*
X163989857Y-72885016D01*
X163785733Y-73088784D01*
X163675126Y-73355156D01*
X163674874Y-73643579D01*
X163785016Y-73910143D01*
X163988784Y-74114267D01*
X164255156Y-74224874D01*
X164543579Y-74225126D01*
X164810143Y-74114984D01*
X165014267Y-73911216D01*
X165075922Y-73762733D01*
X165105156Y-73774872D01*
X165393579Y-73775124D01*
X165660143Y-73664982D01*
X165864267Y-73461214D01*
X165974874Y-73194842D01*
X165975126Y-72906419D01*
X165864984Y-72639855D01*
X165661216Y-72435731D01*
X165394844Y-72325124D01*
X165106421Y-72324872D01*
X164925844Y-72399485D01*
X165014267Y-72311216D01*
X165124874Y-72044844D01*
X165125126Y-71756421D01*
X165014984Y-71489857D01*
X164811216Y-71285733D01*
X164709693Y-71243577D01*
X169074874Y-71243577D01*
X169185016Y-71510141D01*
X169388784Y-71714265D01*
X169655156Y-71824872D01*
X169756210Y-71824960D01*
X169489857Y-71935015D01*
X169285733Y-72138783D01*
X169175126Y-72405155D01*
X169174874Y-72693578D01*
X169285016Y-72960142D01*
X169488784Y-73164266D01*
X169755156Y-73274873D01*
X170043579Y-73275125D01*
X170260314Y-73185572D01*
X170388784Y-73314267D01*
X170655156Y-73424874D01*
X170943579Y-73425126D01*
X171210143Y-73314984D01*
X171414267Y-73111216D01*
X171524874Y-72844844D01*
X171525126Y-72556421D01*
X171414984Y-72289857D01*
X171211216Y-72085733D01*
X170944844Y-71975126D01*
X170656421Y-71974874D01*
X170439686Y-72064427D01*
X170311216Y-71935732D01*
X170044844Y-71825125D01*
X169943790Y-71825037D01*
X170210143Y-71714982D01*
X170281670Y-71643579D01*
X171574874Y-71643579D01*
X171649884Y-71825118D01*
X171575126Y-72005156D01*
X171574874Y-72293579D01*
X171685016Y-72560143D01*
X171888784Y-72764267D01*
X172155156Y-72874874D01*
X172443579Y-72875126D01*
X172625118Y-72800116D01*
X172805156Y-72874874D01*
X173093579Y-72875126D01*
X173275118Y-72800116D01*
X173455156Y-72874874D01*
X173743579Y-72875126D01*
X173925118Y-72800116D01*
X174105156Y-72874874D01*
X174393579Y-72875126D01*
X174660143Y-72764984D01*
X174864267Y-72561216D01*
X174974874Y-72294844D01*
X174975126Y-72006421D01*
X174900116Y-71824882D01*
X174974874Y-71644844D01*
X174975070Y-71420858D01*
X175105154Y-71474874D01*
X175393577Y-71475126D01*
X175660141Y-71364984D01*
X175864265Y-71161216D01*
X175974872Y-70894844D01*
X175975091Y-70643579D01*
X193874874Y-70643579D01*
X193939529Y-70800056D01*
X193875126Y-70955156D01*
X193874874Y-71243579D01*
X193985016Y-71510143D01*
X194174912Y-71700371D01*
X194174874Y-71743579D01*
X194191269Y-71783258D01*
X194185733Y-71788784D01*
X194075126Y-72055156D01*
X194074912Y-72299760D01*
X193985733Y-72388784D01*
X193875126Y-72655156D01*
X193874874Y-72943579D01*
X193939529Y-73100056D01*
X193875126Y-73255156D01*
X193874874Y-73543579D01*
X193985016Y-73810143D01*
X194188784Y-74014267D01*
X194455156Y-74124874D01*
X194743579Y-74125126D01*
X195010143Y-74014984D01*
X195214267Y-73811216D01*
X195324874Y-73544844D01*
X195325126Y-73256421D01*
X195260471Y-73099944D01*
X195324874Y-72944844D01*
X195325088Y-72700240D01*
X195414267Y-72611216D01*
X195524874Y-72344844D01*
X195525126Y-72056421D01*
X195508731Y-72016742D01*
X195514267Y-72011216D01*
X195624874Y-71744844D01*
X195625126Y-71456421D01*
X195514984Y-71189857D01*
X195325088Y-70999629D01*
X195325126Y-70956421D01*
X195260471Y-70799944D01*
X195324874Y-70644844D01*
X195325126Y-70356421D01*
X195214984Y-70089857D01*
X195011216Y-69885733D01*
X194744844Y-69775126D01*
X194456421Y-69774874D01*
X194189857Y-69885016D01*
X193985733Y-70088784D01*
X193875126Y-70355156D01*
X193874874Y-70643579D01*
X175975091Y-70643579D01*
X175975124Y-70606421D01*
X175864982Y-70339857D01*
X175661214Y-70135733D01*
X175394842Y-70025126D01*
X175106419Y-70024874D01*
X174839855Y-70135016D01*
X174635731Y-70338784D01*
X174525124Y-70605156D01*
X174524928Y-70829142D01*
X174394844Y-70775126D01*
X174106421Y-70774874D01*
X173924882Y-70849884D01*
X173744844Y-70775126D01*
X173456421Y-70774874D01*
X173274882Y-70849884D01*
X173094844Y-70775126D01*
X172806421Y-70774874D01*
X172624882Y-70849884D01*
X172444844Y-70775126D01*
X172156421Y-70774874D01*
X171889857Y-70885016D01*
X171685733Y-71088784D01*
X171575126Y-71355156D01*
X171574874Y-71643579D01*
X170281670Y-71643579D01*
X170414267Y-71511214D01*
X170524874Y-71244842D01*
X170525126Y-70956419D01*
X170414984Y-70689855D01*
X170211216Y-70485731D01*
X169944844Y-70375124D01*
X169656421Y-70374872D01*
X169389857Y-70485014D01*
X169185733Y-70688782D01*
X169075126Y-70955154D01*
X169074874Y-71243577D01*
X164709693Y-71243577D01*
X164544844Y-71175126D01*
X164256421Y-71174874D01*
X163989857Y-71285016D01*
X163785733Y-71488784D01*
X163675126Y-71755156D01*
X163674874Y-72043579D01*
X155983086Y-72043579D01*
X155983184Y-71931421D01*
X155873042Y-71664857D01*
X155669274Y-71460733D01*
X155402902Y-71350126D01*
X155114479Y-71349874D01*
X154847915Y-71460016D01*
X154643791Y-71663784D01*
X154533184Y-71930156D01*
X154532932Y-72218579D01*
X153494254Y-72218579D01*
X153524872Y-72144844D01*
X153525124Y-71856421D01*
X153414982Y-71589857D01*
X153211214Y-71385733D01*
X152944842Y-71275126D01*
X152656419Y-71274874D01*
X152389855Y-71385016D01*
X152185731Y-71588784D01*
X152075124Y-71855156D01*
X152074872Y-72143579D01*
X152170518Y-72375061D01*
X151956421Y-72374874D01*
X151918741Y-72390443D01*
X152024874Y-72134845D01*
X152025126Y-71846422D01*
X151914984Y-71579858D01*
X151760449Y-71425053D01*
X151843579Y-71425126D01*
X152110143Y-71314984D01*
X152314267Y-71111216D01*
X152424874Y-70844844D01*
X152425126Y-70556421D01*
X152314984Y-70289857D01*
X152111216Y-70085733D01*
X152067499Y-70067580D01*
X154934874Y-70067580D01*
X155045016Y-70334144D01*
X155248784Y-70538268D01*
X155515156Y-70648875D01*
X155803579Y-70649127D01*
X156070143Y-70538985D01*
X156274267Y-70335217D01*
X156291556Y-70293579D01*
X158824874Y-70293579D01*
X158935016Y-70560143D01*
X159138784Y-70764267D01*
X159405156Y-70874874D01*
X159693579Y-70875126D01*
X159950304Y-70769049D01*
X160205159Y-70874874D01*
X160493582Y-70875126D01*
X160760146Y-70764984D01*
X160964270Y-70561216D01*
X160971593Y-70543579D01*
X165774874Y-70543579D01*
X165885016Y-70810143D01*
X166088784Y-71014267D01*
X166355156Y-71124874D01*
X166643579Y-71125126D01*
X166910143Y-71014984D01*
X166949978Y-70975218D01*
X167088784Y-71114267D01*
X167355156Y-71224874D01*
X167643579Y-71225126D01*
X167910143Y-71114984D01*
X168114267Y-70911216D01*
X168224874Y-70644844D01*
X168225126Y-70356421D01*
X168114984Y-70089857D01*
X167911216Y-69885733D01*
X167644844Y-69775126D01*
X167356421Y-69774874D01*
X167089857Y-69885016D01*
X167050022Y-69924782D01*
X166911216Y-69785733D01*
X166644844Y-69675126D01*
X166356421Y-69674874D01*
X166089857Y-69785016D01*
X165885733Y-69988784D01*
X165775126Y-70255156D01*
X165774874Y-70543579D01*
X160971593Y-70543579D01*
X161074877Y-70294844D01*
X161075129Y-70006421D01*
X160964987Y-69739857D01*
X160761219Y-69535733D01*
X160494847Y-69425126D01*
X160206424Y-69424874D01*
X159949699Y-69530951D01*
X159694844Y-69425126D01*
X159406421Y-69424874D01*
X159139857Y-69535016D01*
X158935733Y-69738784D01*
X158825126Y-70005156D01*
X158824874Y-70293579D01*
X156291556Y-70293579D01*
X156384874Y-70068845D01*
X156385126Y-69780422D01*
X156274984Y-69513858D01*
X156071216Y-69309734D01*
X155804844Y-69199127D01*
X155516421Y-69198875D01*
X155249857Y-69309017D01*
X155045733Y-69512785D01*
X154935126Y-69779157D01*
X154934874Y-70067580D01*
X152067499Y-70067580D01*
X151844844Y-69975126D01*
X151556421Y-69974874D01*
X151289857Y-70085016D01*
X151085733Y-70288784D01*
X150975126Y-70555156D01*
X150974874Y-70843579D01*
X151085016Y-71110143D01*
X151239551Y-71264948D01*
X151156421Y-71264875D01*
X150889857Y-71375017D01*
X150685733Y-71578785D01*
X150575126Y-71845157D01*
X150574911Y-72091674D01*
X149725000Y-72091674D01*
X149567504Y-72121309D01*
X149422854Y-72214389D01*
X149325814Y-72356412D01*
X149291674Y-72525000D01*
X149291674Y-72879833D01*
X149202729Y-72664571D01*
X148837353Y-72298556D01*
X148359721Y-72100226D01*
X147842548Y-72099774D01*
X147364571Y-72297271D01*
X146998556Y-72662647D01*
X146849879Y-73020700D01*
X146702729Y-72664571D01*
X146337353Y-72298556D01*
X145859721Y-72100226D01*
X145342548Y-72099774D01*
X144864571Y-72297271D01*
X144498556Y-72662647D01*
X144349879Y-73020700D01*
X144202729Y-72664571D01*
X143837353Y-72298556D01*
X143359721Y-72100226D01*
X142842548Y-72099774D01*
X142364571Y-72297271D01*
X141998556Y-72662647D01*
X141800226Y-73140279D01*
X141799774Y-73657452D01*
X140500000Y-73657452D01*
X140500000Y-70343579D01*
X148274874Y-70343579D01*
X148385016Y-70610143D01*
X148588784Y-70814267D01*
X148855156Y-70924874D01*
X149143579Y-70925126D01*
X149410143Y-70814984D01*
X149614267Y-70611216D01*
X149724874Y-70344844D01*
X149725126Y-70056421D01*
X149631190Y-69829078D01*
X149749257Y-69711216D01*
X149859864Y-69444844D01*
X149860116Y-69156421D01*
X149749974Y-68889857D01*
X149546206Y-68685733D01*
X149279834Y-68575126D01*
X148991411Y-68574874D01*
X148724847Y-68685016D01*
X148520723Y-68888784D01*
X148410116Y-69155156D01*
X148409864Y-69443579D01*
X148503800Y-69670922D01*
X148385733Y-69788784D01*
X148275126Y-70055156D01*
X148274874Y-70343579D01*
X140500000Y-70343579D01*
X140500000Y-66857452D01*
X141799774Y-66857452D01*
X141997271Y-67335429D01*
X142362647Y-67701444D01*
X142840279Y-67899774D01*
X143357452Y-67900226D01*
X143835429Y-67702729D01*
X144201444Y-67337353D01*
X144350121Y-66979300D01*
X144497271Y-67335429D01*
X144862647Y-67701444D01*
X145340279Y-67899774D01*
X145857452Y-67900226D01*
X146335429Y-67702729D01*
X146701444Y-67337353D01*
X146850121Y-66979300D01*
X146997271Y-67335429D01*
X147362647Y-67701444D01*
X147840279Y-67899774D01*
X148357452Y-67900226D01*
X148835429Y-67702729D01*
X149201444Y-67337353D01*
X149291674Y-67120055D01*
X149291674Y-67475000D01*
X149321309Y-67632496D01*
X149414389Y-67777146D01*
X149556412Y-67874186D01*
X149725000Y-67908326D01*
X151475000Y-67908326D01*
X151632496Y-67878691D01*
X151777146Y-67785611D01*
X151874186Y-67643588D01*
X151908326Y-67475000D01*
X151908326Y-66643579D01*
X154074874Y-66643579D01*
X154185016Y-66910143D01*
X154388784Y-67114267D01*
X154655156Y-67224874D01*
X154943579Y-67225126D01*
X155210143Y-67114984D01*
X155414267Y-66911216D01*
X155524874Y-66644844D01*
X155525126Y-66356421D01*
X155414984Y-66089857D01*
X155211216Y-65885733D01*
X154944844Y-65775126D01*
X154656421Y-65774874D01*
X154389857Y-65885016D01*
X154185733Y-66088784D01*
X154075126Y-66355156D01*
X154074874Y-66643579D01*
X151908326Y-66643579D01*
X151908326Y-65725000D01*
X151878691Y-65567504D01*
X151785611Y-65422854D01*
X151643588Y-65325814D01*
X151475000Y-65291674D01*
X149725000Y-65291674D01*
X149567504Y-65321309D01*
X149422854Y-65414389D01*
X149325814Y-65556412D01*
X149291674Y-65725000D01*
X149291674Y-66079833D01*
X149202729Y-65864571D01*
X148837353Y-65498556D01*
X148359721Y-65300226D01*
X147842548Y-65299774D01*
X147364571Y-65497271D01*
X146998556Y-65862647D01*
X146849879Y-66220700D01*
X146702729Y-65864571D01*
X146337353Y-65498556D01*
X145859721Y-65300226D01*
X145342548Y-65299774D01*
X144864571Y-65497271D01*
X144498556Y-65862647D01*
X144349879Y-66220700D01*
X144202729Y-65864571D01*
X143837353Y-65498556D01*
X143359721Y-65300226D01*
X142842548Y-65299774D01*
X142364571Y-65497271D01*
X141998556Y-65862647D01*
X141800226Y-66340279D01*
X141799774Y-66857452D01*
X140500000Y-66857452D01*
X140500000Y-58043579D01*
X143574874Y-58043579D01*
X143685016Y-58310143D01*
X143888784Y-58514267D01*
X144155156Y-58624874D01*
X144443579Y-58625126D01*
X144710143Y-58514984D01*
X144914267Y-58311216D01*
X145024874Y-58044844D01*
X145024875Y-58043579D01*
X147074874Y-58043579D01*
X147185016Y-58310143D01*
X147388784Y-58514267D01*
X147425677Y-58529586D01*
X147416699Y-58551208D01*
X147416447Y-58839631D01*
X147526589Y-59106195D01*
X147730357Y-59310319D01*
X147996729Y-59420926D01*
X148285152Y-59421178D01*
X148497687Y-59333360D01*
X148528538Y-59364265D01*
X148794910Y-59474872D01*
X149083333Y-59475124D01*
X149349897Y-59364982D01*
X149554021Y-59161214D01*
X149664628Y-58894842D01*
X149664880Y-58606419D01*
X149554738Y-58339855D01*
X149350970Y-58135731D01*
X149129043Y-58043579D01*
X151774874Y-58043579D01*
X151885016Y-58310143D01*
X151921996Y-58347188D01*
X151814880Y-58605154D01*
X151814628Y-58893577D01*
X151924770Y-59160141D01*
X152128538Y-59364265D01*
X152394910Y-59474872D01*
X152683333Y-59475124D01*
X152949897Y-59364982D01*
X153154021Y-59161214D01*
X153264628Y-58894842D01*
X153264880Y-58606419D01*
X153154738Y-58339855D01*
X153117758Y-58302810D01*
X153224874Y-58044844D01*
X153224875Y-58043579D01*
X155374874Y-58043579D01*
X155485016Y-58310143D01*
X155521996Y-58347188D01*
X155414880Y-58605154D01*
X155414628Y-58893577D01*
X155524770Y-59160141D01*
X155728538Y-59364265D01*
X155994910Y-59474872D01*
X156283333Y-59475124D01*
X156549897Y-59364982D01*
X156754021Y-59161214D01*
X156864628Y-58894842D01*
X156864880Y-58606419D01*
X156754738Y-58339855D01*
X156717758Y-58302810D01*
X156824874Y-58044844D01*
X156824875Y-58043579D01*
X158974874Y-58043579D01*
X159085016Y-58310143D01*
X159121997Y-58347188D01*
X159014880Y-58605155D01*
X159014628Y-58893578D01*
X159124770Y-59160142D01*
X159328538Y-59364266D01*
X159594910Y-59474873D01*
X159883333Y-59475125D01*
X160149897Y-59364983D01*
X160354021Y-59161215D01*
X160464628Y-58894843D01*
X160464880Y-58606420D01*
X160354738Y-58339856D01*
X160317757Y-58302811D01*
X160424874Y-58044844D01*
X160424875Y-58043579D01*
X162574874Y-58043579D01*
X162685016Y-58310143D01*
X162721997Y-58347188D01*
X162614880Y-58605155D01*
X162614628Y-58893578D01*
X162724770Y-59160142D01*
X162928538Y-59364266D01*
X163194910Y-59474873D01*
X163483333Y-59475125D01*
X163749897Y-59364983D01*
X163954021Y-59161215D01*
X164064628Y-58894843D01*
X164064880Y-58606420D01*
X163954738Y-58339856D01*
X163917757Y-58302811D01*
X164024874Y-58044844D01*
X164024875Y-58043579D01*
X166174874Y-58043579D01*
X166285016Y-58310143D01*
X166321997Y-58347188D01*
X166214880Y-58605155D01*
X166214628Y-58893578D01*
X166324770Y-59160142D01*
X166528538Y-59364266D01*
X166794910Y-59474873D01*
X167083333Y-59475125D01*
X167349897Y-59364983D01*
X167554021Y-59161215D01*
X167664628Y-58894843D01*
X167664880Y-58606420D01*
X167554738Y-58339856D01*
X167517757Y-58302811D01*
X167613184Y-58072995D01*
X169753316Y-58072995D01*
X169863458Y-58339559D01*
X169907037Y-58383214D01*
X169814880Y-58605154D01*
X169814628Y-58893577D01*
X169924770Y-59160141D01*
X170128538Y-59364265D01*
X170394910Y-59474872D01*
X170683333Y-59475124D01*
X170949897Y-59364982D01*
X171154021Y-59161214D01*
X171264628Y-58894842D01*
X171264880Y-58606419D01*
X171154738Y-58339855D01*
X171111159Y-58296200D01*
X171203316Y-58074260D01*
X171203342Y-58043579D01*
X173374874Y-58043579D01*
X173485016Y-58310143D01*
X173521996Y-58347188D01*
X173414880Y-58605154D01*
X173414628Y-58893577D01*
X173524770Y-59160141D01*
X173728538Y-59364265D01*
X173994910Y-59474872D01*
X174283333Y-59475124D01*
X174549897Y-59364982D01*
X174754021Y-59161214D01*
X174864628Y-58894842D01*
X174864880Y-58606419D01*
X174754738Y-58339855D01*
X174717758Y-58302810D01*
X174824874Y-58044844D01*
X174824875Y-58043579D01*
X176974874Y-58043579D01*
X177085016Y-58310143D01*
X177121996Y-58347188D01*
X177014880Y-58605154D01*
X177014628Y-58893577D01*
X177124770Y-59160141D01*
X177328538Y-59364265D01*
X177594910Y-59474872D01*
X177883333Y-59475124D01*
X178149897Y-59364982D01*
X178354021Y-59161214D01*
X178464628Y-58894842D01*
X178464880Y-58606419D01*
X178354738Y-58339855D01*
X178317758Y-58302810D01*
X178424874Y-58044844D01*
X178424875Y-58043579D01*
X180574874Y-58043579D01*
X180685016Y-58310143D01*
X180721997Y-58347188D01*
X180614880Y-58605155D01*
X180614628Y-58893578D01*
X180724770Y-59160142D01*
X180928538Y-59364266D01*
X181194910Y-59474873D01*
X181483333Y-59475125D01*
X181749897Y-59364983D01*
X181954021Y-59161215D01*
X182064628Y-58894843D01*
X182064880Y-58606420D01*
X181954738Y-58339856D01*
X181917757Y-58302811D01*
X182024874Y-58044844D01*
X182025126Y-57756421D01*
X181914984Y-57489857D01*
X181711216Y-57285733D01*
X181609698Y-57243579D01*
X181874874Y-57243579D01*
X181985016Y-57510143D01*
X182188784Y-57714267D01*
X182455156Y-57824874D01*
X182743579Y-57825126D01*
X183010143Y-57714984D01*
X183214267Y-57511216D01*
X183324874Y-57244844D01*
X183325126Y-56956421D01*
X183214984Y-56689857D01*
X183011216Y-56485733D01*
X182744844Y-56375126D01*
X182456421Y-56374874D01*
X182189857Y-56485016D01*
X181985733Y-56688784D01*
X181875126Y-56955156D01*
X181874874Y-57243579D01*
X181609698Y-57243579D01*
X181444844Y-57175126D01*
X181156421Y-57174874D01*
X180889857Y-57285016D01*
X180685733Y-57488784D01*
X180575126Y-57755156D01*
X180574874Y-58043579D01*
X178424875Y-58043579D01*
X178425126Y-57756421D01*
X178314984Y-57489857D01*
X178111216Y-57285733D01*
X178009698Y-57243579D01*
X178274874Y-57243579D01*
X178385016Y-57510143D01*
X178588784Y-57714267D01*
X178855156Y-57824874D01*
X179143579Y-57825126D01*
X179410143Y-57714984D01*
X179614267Y-57511216D01*
X179724874Y-57244844D01*
X179725126Y-56956421D01*
X179614984Y-56689857D01*
X179411216Y-56485733D01*
X179144844Y-56375126D01*
X178856421Y-56374874D01*
X178589857Y-56485016D01*
X178385733Y-56688784D01*
X178275126Y-56955156D01*
X178274874Y-57243579D01*
X178009698Y-57243579D01*
X177844844Y-57175126D01*
X177556421Y-57174874D01*
X177289857Y-57285016D01*
X177085733Y-57488784D01*
X176975126Y-57755156D01*
X176974874Y-58043579D01*
X174824875Y-58043579D01*
X174825126Y-57756421D01*
X174714984Y-57489857D01*
X174511216Y-57285733D01*
X174409698Y-57243579D01*
X174674874Y-57243579D01*
X174785016Y-57510143D01*
X174988784Y-57714267D01*
X175255156Y-57824874D01*
X175543579Y-57825126D01*
X175810143Y-57714984D01*
X176014267Y-57511216D01*
X176124874Y-57244844D01*
X176125126Y-56956421D01*
X176014984Y-56689857D01*
X175811216Y-56485733D01*
X175544844Y-56375126D01*
X175256421Y-56374874D01*
X174989857Y-56485016D01*
X174785733Y-56688784D01*
X174675126Y-56955156D01*
X174674874Y-57243579D01*
X174409698Y-57243579D01*
X174244844Y-57175126D01*
X173956421Y-57174874D01*
X173689857Y-57285016D01*
X173485733Y-57488784D01*
X173375126Y-57755156D01*
X173374874Y-58043579D01*
X171203342Y-58043579D01*
X171203568Y-57785837D01*
X171093426Y-57519273D01*
X170889658Y-57315149D01*
X170717298Y-57243579D01*
X171074874Y-57243579D01*
X171185016Y-57510143D01*
X171388784Y-57714267D01*
X171655156Y-57824874D01*
X171943579Y-57825126D01*
X172210143Y-57714984D01*
X172414267Y-57511216D01*
X172524874Y-57244844D01*
X172525126Y-56956421D01*
X172414984Y-56689857D01*
X172211216Y-56485733D01*
X171944844Y-56375126D01*
X171656421Y-56374874D01*
X171389857Y-56485016D01*
X171185733Y-56688784D01*
X171075126Y-56955156D01*
X171074874Y-57243579D01*
X170717298Y-57243579D01*
X170623286Y-57204542D01*
X170334863Y-57204290D01*
X170068299Y-57314432D01*
X169864175Y-57518200D01*
X169753568Y-57784572D01*
X169753316Y-58072995D01*
X167613184Y-58072995D01*
X167624874Y-58044844D01*
X167625126Y-57756421D01*
X167514984Y-57489857D01*
X167311216Y-57285733D01*
X167209698Y-57243579D01*
X167474874Y-57243579D01*
X167585016Y-57510143D01*
X167788784Y-57714267D01*
X168055156Y-57824874D01*
X168343579Y-57825126D01*
X168610143Y-57714984D01*
X168814267Y-57511216D01*
X168924874Y-57244844D01*
X168925126Y-56956421D01*
X168814984Y-56689857D01*
X168611216Y-56485733D01*
X168344844Y-56375126D01*
X168056421Y-56374874D01*
X167789857Y-56485016D01*
X167585733Y-56688784D01*
X167475126Y-56955156D01*
X167474874Y-57243579D01*
X167209698Y-57243579D01*
X167044844Y-57175126D01*
X166756421Y-57174874D01*
X166489857Y-57285016D01*
X166285733Y-57488784D01*
X166175126Y-57755156D01*
X166174874Y-58043579D01*
X164024875Y-58043579D01*
X164025126Y-57756421D01*
X163914984Y-57489857D01*
X163711216Y-57285733D01*
X163609698Y-57243579D01*
X163874874Y-57243579D01*
X163985016Y-57510143D01*
X164188784Y-57714267D01*
X164455156Y-57824874D01*
X164743579Y-57825126D01*
X165010143Y-57714984D01*
X165214267Y-57511216D01*
X165324874Y-57244844D01*
X165325126Y-56956421D01*
X165214984Y-56689857D01*
X165011216Y-56485733D01*
X164744844Y-56375126D01*
X164456421Y-56374874D01*
X164189857Y-56485016D01*
X163985733Y-56688784D01*
X163875126Y-56955156D01*
X163874874Y-57243579D01*
X163609698Y-57243579D01*
X163444844Y-57175126D01*
X163156421Y-57174874D01*
X162889857Y-57285016D01*
X162685733Y-57488784D01*
X162575126Y-57755156D01*
X162574874Y-58043579D01*
X160424875Y-58043579D01*
X160425126Y-57756421D01*
X160314984Y-57489857D01*
X160111216Y-57285733D01*
X160009698Y-57243579D01*
X160274874Y-57243579D01*
X160385016Y-57510143D01*
X160588784Y-57714267D01*
X160855156Y-57824874D01*
X161143579Y-57825126D01*
X161410143Y-57714984D01*
X161614267Y-57511216D01*
X161724874Y-57244844D01*
X161725126Y-56956421D01*
X161614984Y-56689857D01*
X161411216Y-56485733D01*
X161144844Y-56375126D01*
X160856421Y-56374874D01*
X160589857Y-56485016D01*
X160385733Y-56688784D01*
X160275126Y-56955156D01*
X160274874Y-57243579D01*
X160009698Y-57243579D01*
X159844844Y-57175126D01*
X159556421Y-57174874D01*
X159289857Y-57285016D01*
X159085733Y-57488784D01*
X158975126Y-57755156D01*
X158974874Y-58043579D01*
X156824875Y-58043579D01*
X156825126Y-57756421D01*
X156714984Y-57489857D01*
X156511216Y-57285733D01*
X156409698Y-57243579D01*
X156649874Y-57243579D01*
X156760016Y-57510143D01*
X156963784Y-57714267D01*
X157230156Y-57824874D01*
X157518579Y-57825126D01*
X157785143Y-57714984D01*
X157989267Y-57511216D01*
X158099874Y-57244844D01*
X158100126Y-56956421D01*
X157989984Y-56689857D01*
X157786216Y-56485733D01*
X157519844Y-56375126D01*
X157231421Y-56374874D01*
X156964857Y-56485016D01*
X156760733Y-56688784D01*
X156650126Y-56955156D01*
X156649874Y-57243579D01*
X156409698Y-57243579D01*
X156244844Y-57175126D01*
X155956421Y-57174874D01*
X155689857Y-57285016D01*
X155485733Y-57488784D01*
X155375126Y-57755156D01*
X155374874Y-58043579D01*
X153224875Y-58043579D01*
X153225126Y-57756421D01*
X153114984Y-57489857D01*
X152911216Y-57285733D01*
X152809698Y-57243579D01*
X153074874Y-57243579D01*
X153185016Y-57510143D01*
X153388784Y-57714267D01*
X153655156Y-57824874D01*
X153943579Y-57825126D01*
X154210143Y-57714984D01*
X154414267Y-57511216D01*
X154524874Y-57244844D01*
X154525126Y-56956421D01*
X154414984Y-56689857D01*
X154211216Y-56485733D01*
X153944844Y-56375126D01*
X153656421Y-56374874D01*
X153389857Y-56485016D01*
X153185733Y-56688784D01*
X153075126Y-56955156D01*
X153074874Y-57243579D01*
X152809698Y-57243579D01*
X152644844Y-57175126D01*
X152356421Y-57174874D01*
X152089857Y-57285016D01*
X151885733Y-57488784D01*
X151775126Y-57755156D01*
X151774874Y-58043579D01*
X149129043Y-58043579D01*
X149084598Y-58025124D01*
X148796175Y-58024872D01*
X148583640Y-58112690D01*
X148552789Y-58081785D01*
X148515896Y-58066466D01*
X148524874Y-58044844D01*
X148525126Y-57756421D01*
X148414984Y-57489857D01*
X148211216Y-57285733D01*
X148109698Y-57243579D01*
X149474874Y-57243579D01*
X149585016Y-57510143D01*
X149788784Y-57714267D01*
X150055156Y-57824874D01*
X150343579Y-57825126D01*
X150610143Y-57714984D01*
X150814267Y-57511216D01*
X150924874Y-57244844D01*
X150925126Y-56956421D01*
X150814984Y-56689857D01*
X150611216Y-56485733D01*
X150344844Y-56375126D01*
X150056421Y-56374874D01*
X149789857Y-56485016D01*
X149585733Y-56688784D01*
X149475126Y-56955156D01*
X149474874Y-57243579D01*
X148109698Y-57243579D01*
X147944844Y-57175126D01*
X147656421Y-57174874D01*
X147389857Y-57285016D01*
X147185733Y-57488784D01*
X147075126Y-57755156D01*
X147074874Y-58043579D01*
X145024875Y-58043579D01*
X145025126Y-57756421D01*
X144914984Y-57489857D01*
X144711216Y-57285733D01*
X144444844Y-57175126D01*
X144156421Y-57174874D01*
X143889857Y-57285016D01*
X143685733Y-57488784D01*
X143575126Y-57755156D01*
X143574874Y-58043579D01*
X140500000Y-58043579D01*
X140500000Y-55208300D01*
X140594733Y-55437572D01*
X141557360Y-56401881D01*
X142815736Y-56924404D01*
X144178286Y-56925593D01*
X145437572Y-56405267D01*
X146100416Y-55743579D01*
X150674874Y-55743579D01*
X150785016Y-56010143D01*
X150988784Y-56214267D01*
X151255156Y-56324874D01*
X151543579Y-56325126D01*
X151810143Y-56214984D01*
X152014267Y-56011216D01*
X152124874Y-55744844D01*
X152124875Y-55743579D01*
X154274874Y-55743579D01*
X154385016Y-56010143D01*
X154588784Y-56214267D01*
X154855156Y-56324874D01*
X155143579Y-56325126D01*
X155410143Y-56214984D01*
X155614267Y-56011216D01*
X155724874Y-55744844D01*
X155724875Y-55743579D01*
X157874874Y-55743579D01*
X157985016Y-56010143D01*
X158188784Y-56214267D01*
X158455156Y-56324874D01*
X158743579Y-56325126D01*
X159010143Y-56214984D01*
X159214267Y-56011216D01*
X159324874Y-55744844D01*
X159324875Y-55743579D01*
X161474874Y-55743579D01*
X161585016Y-56010143D01*
X161788784Y-56214267D01*
X162055156Y-56324874D01*
X162343579Y-56325126D01*
X162610143Y-56214984D01*
X162814267Y-56011216D01*
X162924874Y-55744844D01*
X162924875Y-55743579D01*
X165074874Y-55743579D01*
X165185016Y-56010143D01*
X165388784Y-56214267D01*
X165655156Y-56324874D01*
X165943579Y-56325126D01*
X166210143Y-56214984D01*
X166414267Y-56011216D01*
X166524874Y-55744844D01*
X166524875Y-55743579D01*
X168674874Y-55743579D01*
X168785016Y-56010143D01*
X168988784Y-56214267D01*
X169255156Y-56324874D01*
X169543579Y-56325126D01*
X169810143Y-56214984D01*
X170014267Y-56011216D01*
X170124874Y-55744844D01*
X170124875Y-55743579D01*
X172274874Y-55743579D01*
X172385016Y-56010143D01*
X172588784Y-56214267D01*
X172855156Y-56324874D01*
X173143579Y-56325126D01*
X173410143Y-56214984D01*
X173614267Y-56011216D01*
X173724874Y-55744844D01*
X173724875Y-55743579D01*
X175774874Y-55743579D01*
X175885016Y-56010143D01*
X176088784Y-56214267D01*
X176355156Y-56324874D01*
X176643579Y-56325126D01*
X176910143Y-56214984D01*
X177114267Y-56011216D01*
X177224874Y-55744844D01*
X177224875Y-55743579D01*
X179474874Y-55743579D01*
X179585016Y-56010143D01*
X179788784Y-56214267D01*
X180055156Y-56324874D01*
X180343579Y-56325126D01*
X180610143Y-56214984D01*
X180814267Y-56011216D01*
X180924874Y-55744844D01*
X180925126Y-55456421D01*
X180814984Y-55189857D01*
X180611216Y-54985733D01*
X180344844Y-54875126D01*
X180056421Y-54874874D01*
X179789857Y-54985016D01*
X179585733Y-55188784D01*
X179475126Y-55455156D01*
X179474874Y-55743579D01*
X177224875Y-55743579D01*
X177225126Y-55456421D01*
X177114984Y-55189857D01*
X176911216Y-54985733D01*
X176644844Y-54875126D01*
X176356421Y-54874874D01*
X176089857Y-54985016D01*
X175885733Y-55188784D01*
X175775126Y-55455156D01*
X175774874Y-55743579D01*
X173724875Y-55743579D01*
X173725126Y-55456421D01*
X173614984Y-55189857D01*
X173411216Y-54985733D01*
X173144844Y-54875126D01*
X172856421Y-54874874D01*
X172589857Y-54985016D01*
X172385733Y-55188784D01*
X172275126Y-55455156D01*
X172274874Y-55743579D01*
X170124875Y-55743579D01*
X170125126Y-55456421D01*
X170014984Y-55189857D01*
X169811216Y-54985733D01*
X169544844Y-54875126D01*
X169256421Y-54874874D01*
X168989857Y-54985016D01*
X168785733Y-55188784D01*
X168675126Y-55455156D01*
X168674874Y-55743579D01*
X166524875Y-55743579D01*
X166525126Y-55456421D01*
X166414984Y-55189857D01*
X166211216Y-54985733D01*
X165944844Y-54875126D01*
X165656421Y-54874874D01*
X165389857Y-54985016D01*
X165185733Y-55188784D01*
X165075126Y-55455156D01*
X165074874Y-55743579D01*
X162924875Y-55743579D01*
X162925126Y-55456421D01*
X162814984Y-55189857D01*
X162611216Y-54985733D01*
X162344844Y-54875126D01*
X162056421Y-54874874D01*
X161789857Y-54985016D01*
X161585733Y-55188784D01*
X161475126Y-55455156D01*
X161474874Y-55743579D01*
X159324875Y-55743579D01*
X159325126Y-55456421D01*
X159214984Y-55189857D01*
X159011216Y-54985733D01*
X158744844Y-54875126D01*
X158456421Y-54874874D01*
X158189857Y-54985016D01*
X157985733Y-55188784D01*
X157875126Y-55455156D01*
X157874874Y-55743579D01*
X155724875Y-55743579D01*
X155725126Y-55456421D01*
X155614984Y-55189857D01*
X155411216Y-54985733D01*
X155144844Y-54875126D01*
X154856421Y-54874874D01*
X154589857Y-54985016D01*
X154385733Y-55188784D01*
X154275126Y-55455156D01*
X154274874Y-55743579D01*
X152124875Y-55743579D01*
X152125126Y-55456421D01*
X152014984Y-55189857D01*
X151811216Y-54985733D01*
X151544844Y-54875126D01*
X151256421Y-54874874D01*
X150989857Y-54985016D01*
X150785733Y-55188784D01*
X150675126Y-55455156D01*
X150674874Y-55743579D01*
X146100416Y-55743579D01*
X146401881Y-55442640D01*
X146924404Y-54184264D01*
X146925387Y-53057452D01*
X147899774Y-53057452D01*
X148097271Y-53535429D01*
X148462647Y-53901444D01*
X148940279Y-54099774D01*
X149457452Y-54100226D01*
X149935429Y-53902729D01*
X150301444Y-53537353D01*
X150450121Y-53179300D01*
X150597271Y-53535429D01*
X150962647Y-53901444D01*
X151440279Y-54099774D01*
X151957452Y-54100226D01*
X152435429Y-53902729D01*
X152801444Y-53537353D01*
X152950121Y-53179300D01*
X153097271Y-53535429D01*
X153462647Y-53901444D01*
X153940279Y-54099774D01*
X154457452Y-54100226D01*
X154935429Y-53902729D01*
X155301444Y-53537353D01*
X155450121Y-53179300D01*
X155597271Y-53535429D01*
X155962647Y-53901444D01*
X156440279Y-54099774D01*
X156957452Y-54100226D01*
X157435429Y-53902729D01*
X157801444Y-53537353D01*
X157950121Y-53179300D01*
X158097271Y-53535429D01*
X158462647Y-53901444D01*
X158940279Y-54099774D01*
X159457452Y-54100226D01*
X159935429Y-53902729D01*
X160301444Y-53537353D01*
X160450121Y-53179300D01*
X160597271Y-53535429D01*
X160962647Y-53901444D01*
X161440279Y-54099774D01*
X161957452Y-54100226D01*
X162435429Y-53902729D01*
X162801444Y-53537353D01*
X162950121Y-53179300D01*
X163097271Y-53535429D01*
X163462647Y-53901444D01*
X163940279Y-54099774D01*
X164457452Y-54100226D01*
X164935429Y-53902729D01*
X165301444Y-53537353D01*
X165450121Y-53179300D01*
X165597271Y-53535429D01*
X165962647Y-53901444D01*
X166440279Y-54099774D01*
X166957452Y-54100226D01*
X167435429Y-53902729D01*
X167801444Y-53537353D01*
X167950121Y-53179300D01*
X168097271Y-53535429D01*
X168462647Y-53901444D01*
X168940279Y-54099774D01*
X169457452Y-54100226D01*
X169935429Y-53902729D01*
X170301444Y-53537353D01*
X170450121Y-53179300D01*
X170597271Y-53535429D01*
X170962647Y-53901444D01*
X171440279Y-54099774D01*
X171957452Y-54100226D01*
X172435429Y-53902729D01*
X172801444Y-53537353D01*
X172950121Y-53179300D01*
X173097271Y-53535429D01*
X173462647Y-53901444D01*
X173940279Y-54099774D01*
X174457452Y-54100226D01*
X174935429Y-53902729D01*
X175301444Y-53537353D01*
X175450121Y-53179300D01*
X175597271Y-53535429D01*
X175962647Y-53901444D01*
X176440279Y-54099774D01*
X176957452Y-54100226D01*
X177435429Y-53902729D01*
X177801444Y-53537353D01*
X177891674Y-53320055D01*
X177891674Y-53675000D01*
X177921309Y-53832496D01*
X178014389Y-53977146D01*
X178156412Y-54074186D01*
X178325000Y-54108326D01*
X180075000Y-54108326D01*
X180232496Y-54078691D01*
X180377146Y-53985611D01*
X180474186Y-53843588D01*
X180508326Y-53675000D01*
X180508326Y-51925000D01*
X180478691Y-51767504D01*
X180385611Y-51622854D01*
X180243588Y-51525814D01*
X180075000Y-51491674D01*
X178325000Y-51491674D01*
X178167504Y-51521309D01*
X178022854Y-51614389D01*
X177925814Y-51756412D01*
X177891674Y-51925000D01*
X177891674Y-52279833D01*
X177802729Y-52064571D01*
X177437353Y-51698556D01*
X176959721Y-51500226D01*
X176442548Y-51499774D01*
X175964571Y-51697271D01*
X175598556Y-52062647D01*
X175449879Y-52420700D01*
X175302729Y-52064571D01*
X174937353Y-51698556D01*
X174459721Y-51500226D01*
X173942548Y-51499774D01*
X173464571Y-51697271D01*
X173098556Y-52062647D01*
X172949879Y-52420700D01*
X172802729Y-52064571D01*
X172437353Y-51698556D01*
X171959721Y-51500226D01*
X171442548Y-51499774D01*
X170964571Y-51697271D01*
X170598556Y-52062647D01*
X170449879Y-52420700D01*
X170302729Y-52064571D01*
X169937353Y-51698556D01*
X169459721Y-51500226D01*
X168942548Y-51499774D01*
X168464571Y-51697271D01*
X168098556Y-52062647D01*
X167949879Y-52420700D01*
X167802729Y-52064571D01*
X167437353Y-51698556D01*
X166959721Y-51500226D01*
X166442548Y-51499774D01*
X165964571Y-51697271D01*
X165598556Y-52062647D01*
X165449879Y-52420700D01*
X165302729Y-52064571D01*
X164937353Y-51698556D01*
X164459721Y-51500226D01*
X163942548Y-51499774D01*
X163464571Y-51697271D01*
X163098556Y-52062647D01*
X162949879Y-52420700D01*
X162802729Y-52064571D01*
X162437353Y-51698556D01*
X161959721Y-51500226D01*
X161442548Y-51499774D01*
X160964571Y-51697271D01*
X160598556Y-52062647D01*
X160449879Y-52420700D01*
X160302729Y-52064571D01*
X159937353Y-51698556D01*
X159459721Y-51500226D01*
X158942548Y-51499774D01*
X158464571Y-51697271D01*
X158098556Y-52062647D01*
X157949879Y-52420700D01*
X157802729Y-52064571D01*
X157437353Y-51698556D01*
X156959721Y-51500226D01*
X156442548Y-51499774D01*
X155964571Y-51697271D01*
X155598556Y-52062647D01*
X155449879Y-52420700D01*
X155302729Y-52064571D01*
X154937353Y-51698556D01*
X154459721Y-51500226D01*
X153942548Y-51499774D01*
X153464571Y-51697271D01*
X153098556Y-52062647D01*
X152949879Y-52420700D01*
X152802729Y-52064571D01*
X152437353Y-51698556D01*
X151959721Y-51500226D01*
X151442548Y-51499774D01*
X150964571Y-51697271D01*
X150598556Y-52062647D01*
X150449879Y-52420700D01*
X150302729Y-52064571D01*
X149937353Y-51698556D01*
X149459721Y-51500226D01*
X148942548Y-51499774D01*
X148464571Y-51697271D01*
X148098556Y-52062647D01*
X147900226Y-52540279D01*
X147899774Y-53057452D01*
X146925387Y-53057452D01*
X146925593Y-52821714D01*
X146405267Y-51562428D01*
X145442640Y-50598119D01*
X145206343Y-50500000D01*
X182933128Y-50500000D01*
X182901007Y-50532065D01*
X182901007Y-50532065D01*
G37*
X182901007Y-50532065D02*
X182775143Y-50835177D01*
X182774857Y-51163383D01*
X182900191Y-51466715D01*
X183033273Y-51600029D01*
X182901007Y-51732065D01*
X182775143Y-52035177D01*
X182774857Y-52363383D01*
X182900191Y-52666715D01*
X182983273Y-52749942D01*
X182901007Y-52832065D01*
X182775143Y-53135177D01*
X182774857Y-53463383D01*
X182900191Y-53766715D01*
X183132065Y-53998993D01*
X183435177Y-54124857D01*
X183763383Y-54125143D01*
X184066715Y-53999809D01*
X184200029Y-53866727D01*
X184233273Y-53900029D01*
X184101007Y-54032065D01*
X183975143Y-54335177D01*
X183974857Y-54663383D01*
X184100191Y-54966715D01*
X184332065Y-55198993D01*
X184635177Y-55324857D01*
X184963383Y-55325143D01*
X185266715Y-55199809D01*
X185349942Y-55116727D01*
X185432065Y-55198993D01*
X185735177Y-55324857D01*
X186063383Y-55325143D01*
X186366715Y-55199809D01*
X186500029Y-55066727D01*
X186632065Y-55198993D01*
X186935177Y-55324857D01*
X187263383Y-55325143D01*
X187566715Y-55199809D01*
X187700029Y-55066727D01*
X187832065Y-55198993D01*
X188135177Y-55324857D01*
X188463383Y-55325143D01*
X188766715Y-55199809D01*
X188900029Y-55066727D01*
X189032065Y-55198993D01*
X189335177Y-55324857D01*
X189435242Y-55324944D01*
X189289857Y-55385016D01*
X189085733Y-55588784D01*
X188975126Y-55855156D01*
X188974874Y-56143579D01*
X189085016Y-56410143D01*
X189288784Y-56614267D01*
X189555156Y-56724874D01*
X189843579Y-56725126D01*
X190110143Y-56614984D01*
X190314267Y-56411216D01*
X190383875Y-56243579D01*
X191374872Y-56243579D01*
X191485014Y-56510143D01*
X191688782Y-56714267D01*
X191955154Y-56824874D01*
X192243577Y-56825126D01*
X192510141Y-56714984D01*
X192714265Y-56511216D01*
X192749950Y-56425277D01*
X192785016Y-56510143D01*
X192988784Y-56714267D01*
X193255156Y-56824874D01*
X193543579Y-56825126D01*
X193810143Y-56714984D01*
X194014267Y-56511216D01*
X194124874Y-56244844D01*
X194125126Y-55956421D01*
X194014984Y-55689857D01*
X193811216Y-55485733D01*
X193544844Y-55375126D01*
X193256421Y-55374874D01*
X192989857Y-55485016D01*
X192785733Y-55688784D01*
X192750048Y-55774723D01*
X192714982Y-55689857D01*
X192511214Y-55485733D01*
X192244842Y-55375126D01*
X191956419Y-55374874D01*
X191689855Y-55485016D01*
X191485731Y-55688784D01*
X191375124Y-55955156D01*
X191374872Y-56243579D01*
X190383875Y-56243579D01*
X190424874Y-56144844D01*
X190425126Y-55856421D01*
X190314984Y-55589857D01*
X190111216Y-55385733D01*
X189844844Y-55275126D01*
X189784561Y-55275073D01*
X189966715Y-55199809D01*
X190198993Y-54967935D01*
X190324857Y-54664823D01*
X190325143Y-54336617D01*
X190199809Y-54033285D01*
X190066727Y-53899971D01*
X190198993Y-53767935D01*
X190324857Y-53464823D01*
X190325143Y-53136617D01*
X190199809Y-52833285D01*
X190116727Y-52750058D01*
X190198993Y-52667935D01*
X190324857Y-52364823D01*
X190325143Y-52036617D01*
X190199809Y-51733285D01*
X190066727Y-51599971D01*
X190198993Y-51467935D01*
X190324857Y-51164823D01*
X190325143Y-50836617D01*
X190199809Y-50533285D01*
X190166582Y-50500000D01*
X190833128Y-50500000D01*
X190801007Y-50532065D01*
X190675143Y-50835177D01*
X190674857Y-51163383D01*
X190800191Y-51466715D01*
X190883273Y-51549942D01*
X190801007Y-51632065D01*
X190675143Y-51935177D01*
X190674857Y-52263383D01*
X190800191Y-52566715D01*
X190933273Y-52700029D01*
X190801007Y-52832065D01*
X190675143Y-53135177D01*
X190674857Y-53463383D01*
X190800191Y-53766715D01*
X190933273Y-53900029D01*
X190801007Y-54032065D01*
X190675143Y-54335177D01*
X190674857Y-54663383D01*
X190800191Y-54966715D01*
X191032065Y-55198993D01*
X191335177Y-55324857D01*
X191663383Y-55325143D01*
X191966715Y-55199809D01*
X192100029Y-55066727D01*
X192232065Y-55198993D01*
X192535177Y-55324857D01*
X192863383Y-55325143D01*
X193166715Y-55199809D01*
X193300029Y-55066727D01*
X193432065Y-55198993D01*
X193735177Y-55324857D01*
X194063383Y-55325143D01*
X194366715Y-55199809D01*
X194500029Y-55066727D01*
X194632065Y-55198993D01*
X194935177Y-55324857D01*
X195263383Y-55325143D01*
X195566715Y-55199809D01*
X195700029Y-55066727D01*
X195832065Y-55198993D01*
X196135177Y-55324857D01*
X196463383Y-55325143D01*
X196766715Y-55199809D01*
X196900029Y-55066727D01*
X197032065Y-55198993D01*
X197335177Y-55324857D01*
X197663383Y-55325143D01*
X197966715Y-55199809D01*
X198198993Y-54967935D01*
X198300087Y-54724475D01*
X198594733Y-55437572D01*
X199557360Y-56401881D01*
X200815736Y-56924404D01*
X202178286Y-56925593D01*
X203437572Y-56405267D01*
X204401881Y-55442640D01*
X204500000Y-55206343D01*
X204500000Y-79791700D01*
X204405267Y-79562428D01*
X203442640Y-78598119D01*
X202281744Y-78116073D01*
X202781161Y-77616656D01*
X203175021Y-77695000D01*
X203224979Y-77695000D01*
X203712900Y-77597946D01*
X204126540Y-77321561D01*
X204402925Y-76907921D01*
X204499979Y-76420000D01*
X204402925Y-75932079D01*
X204126540Y-75518439D01*
X203712900Y-75242054D01*
X203250116Y-75150000D01*
X203712900Y-75057946D01*
X204126540Y-74781561D01*
X204402925Y-74367921D01*
X204499979Y-73880000D01*
X204402925Y-73392079D01*
X204126540Y-72978439D01*
X203712900Y-72702054D01*
X203250116Y-72610000D01*
X203712900Y-72517946D01*
X204126540Y-72241561D01*
X204402925Y-71827921D01*
X204499979Y-71340000D01*
X204402925Y-70852079D01*
X204126540Y-70438439D01*
X203712900Y-70162054D01*
X203250116Y-70070000D01*
X203712900Y-69977946D01*
X204126540Y-69701561D01*
X204402925Y-69287921D01*
X204499979Y-68800000D01*
X204402925Y-68312079D01*
X204126540Y-67898439D01*
X203712900Y-67622054D01*
X203250116Y-67530000D01*
X203712900Y-67437946D01*
X204126540Y-67161561D01*
X204402925Y-66747921D01*
X204499979Y-66260000D01*
X204402925Y-65772079D01*
X204126540Y-65358439D01*
X203712900Y-65082054D01*
X203250116Y-64990000D01*
X203712900Y-64897946D01*
X204126540Y-64621561D01*
X204402925Y-64207921D01*
X204499979Y-63720000D01*
X204402925Y-63232079D01*
X204126540Y-62818439D01*
X203712900Y-62542054D01*
X203250116Y-62450000D01*
X203712900Y-62357946D01*
X204126540Y-62081561D01*
X204402925Y-61667921D01*
X204499979Y-61180000D01*
X204402925Y-60692079D01*
X204126540Y-60278439D01*
X203712900Y-60002054D01*
X203250116Y-59910000D01*
X203712900Y-59817946D01*
X204126540Y-59541561D01*
X204402925Y-59127921D01*
X204499979Y-58640000D01*
X204402925Y-58152079D01*
X204126540Y-57738439D01*
X203712900Y-57462054D01*
X203224979Y-57365000D01*
X203175021Y-57365000D01*
X202687100Y-57462054D01*
X202273460Y-57738439D01*
X201997075Y-58152079D01*
X201943326Y-58422292D01*
X201943326Y-57790000D01*
X201913691Y-57632504D01*
X201820611Y-57487854D01*
X201678588Y-57390814D01*
X201510000Y-57356674D01*
X199810000Y-57356674D01*
X199652504Y-57386309D01*
X199507854Y-57479389D01*
X199410814Y-57621412D01*
X199376674Y-57790000D01*
X199376674Y-59490000D01*
X199406309Y-59647496D01*
X199499389Y-59792146D01*
X199641412Y-59889186D01*
X199810000Y-59923326D01*
X200542890Y-59923326D01*
X200147100Y-60002054D01*
X199733460Y-60278439D01*
X199457075Y-60692079D01*
X199360021Y-61180000D01*
X199457075Y-61667921D01*
X199733460Y-62081561D01*
X200147100Y-62357946D01*
X200609884Y-62450000D01*
X200147100Y-62542054D01*
X199733460Y-62818439D01*
X199457075Y-63232079D01*
X199360021Y-63720000D01*
X199457075Y-64207921D01*
X199733460Y-64621561D01*
X200147100Y-64897946D01*
X200609884Y-64990000D01*
X200147100Y-65082054D01*
X199733460Y-65358439D01*
X199457075Y-65772079D01*
X199417459Y-65971243D01*
X191440128Y-57993912D01*
X191510143Y-57964982D01*
X191531583Y-57943579D01*
X192774874Y-57943579D01*
X192885016Y-58210143D01*
X193088784Y-58414267D01*
X193355156Y-58524874D01*
X193643579Y-58525126D01*
X193910143Y-58414984D01*
X194114267Y-58211216D01*
X194224874Y-57944844D01*
X194225126Y-57656421D01*
X194137182Y-57443579D01*
X195474874Y-57443579D01*
X195585016Y-57710143D01*
X195788784Y-57914267D01*
X196055156Y-58024874D01*
X196343579Y-58025126D01*
X196610143Y-57914984D01*
X196814267Y-57711216D01*
X196924874Y-57444844D01*
X196925126Y-57156421D01*
X196814984Y-56889857D01*
X196611216Y-56685733D01*
X196344844Y-56575126D01*
X196056421Y-56574874D01*
X195789857Y-56685016D01*
X195585733Y-56888784D01*
X195475126Y-57155156D01*
X195474874Y-57443579D01*
X194137182Y-57443579D01*
X194114984Y-57389857D01*
X193911216Y-57185733D01*
X193644844Y-57075126D01*
X193356421Y-57074874D01*
X193089857Y-57185016D01*
X192885733Y-57388784D01*
X192775126Y-57655156D01*
X192774874Y-57943579D01*
X191531583Y-57943579D01*
X191714267Y-57761214D01*
X191824874Y-57494842D01*
X191825126Y-57206419D01*
X191714984Y-56939855D01*
X191511216Y-56735731D01*
X191244844Y-56625124D01*
X190956421Y-56624872D01*
X190689857Y-56735014D01*
X190485733Y-56938782D01*
X190375126Y-57205154D01*
X190374874Y-57493577D01*
X190387857Y-57524999D01*
X187802683Y-57524999D01*
X186707291Y-56429606D01*
X186707370Y-56338798D01*
X186597228Y-56072234D01*
X186393460Y-55868110D01*
X186127088Y-55757503D01*
X186035108Y-55757423D01*
X185913773Y-55636088D01*
X185735340Y-55516863D01*
X185524864Y-55474997D01*
X184899999Y-55474997D01*
X184689523Y-55516863D01*
X184511090Y-55636088D01*
X184424894Y-55722284D01*
X184425126Y-55456421D01*
X184314984Y-55189857D01*
X184111216Y-54985733D01*
X183844844Y-54875126D01*
X183556421Y-54874874D01*
X183289857Y-54985016D01*
X183085733Y-55188784D01*
X182975126Y-55455156D01*
X182974874Y-55743579D01*
X183085016Y-56010143D01*
X183288784Y-56214267D01*
X183555156Y-56324874D01*
X183822071Y-56325107D01*
X183761081Y-56386097D01*
X183641856Y-56564530D01*
X183599990Y-56775006D01*
X183599990Y-57760780D01*
X179225057Y-62135713D01*
X179225126Y-62056421D01*
X179114984Y-61789857D01*
X178911216Y-61585733D01*
X178644844Y-61475126D01*
X178356421Y-61474874D01*
X178089857Y-61585016D01*
X177885733Y-61788784D01*
X177775126Y-62055156D01*
X177774874Y-62343579D01*
X177885016Y-62610143D01*
X178088784Y-62814267D01*
X178355156Y-62924874D01*
X178435826Y-62924944D01*
X177235769Y-64125001D01*
X177124935Y-64125001D01*
X177125126Y-63906421D01*
X177014984Y-63639857D01*
X176811216Y-63435733D01*
X176544844Y-63325126D01*
X176256421Y-63324874D01*
X176075001Y-63399835D01*
X176075126Y-63256421D01*
X175964984Y-62989857D01*
X175761216Y-62785733D01*
X175494844Y-62675126D01*
X175206421Y-62674874D01*
X174939857Y-62785016D01*
X174870934Y-62853819D01*
X174864985Y-62839422D01*
X174661217Y-62635298D01*
X174394845Y-62524691D01*
X174106422Y-62524439D01*
X173839858Y-62634581D01*
X173750023Y-62724260D01*
X173661215Y-62635297D01*
X173394843Y-62524690D01*
X173106420Y-62524438D01*
X172839856Y-62634580D01*
X172750022Y-62724258D01*
X172661217Y-62635298D01*
X172394845Y-62524691D01*
X172106422Y-62524439D01*
X171839858Y-62634581D01*
X171750023Y-62724259D01*
X171661217Y-62635298D01*
X171394845Y-62524691D01*
X171106422Y-62524439D01*
X170839858Y-62634581D01*
X170750024Y-62724259D01*
X170661217Y-62635297D01*
X170394845Y-62524690D01*
X170106422Y-62524438D01*
X169839858Y-62634580D01*
X169750023Y-62724259D01*
X169661217Y-62635298D01*
X169394845Y-62524691D01*
X169106422Y-62524439D01*
X168839858Y-62634581D01*
X168750024Y-62724259D01*
X168661217Y-62635297D01*
X168394845Y-62524690D01*
X168106422Y-62524438D01*
X167839858Y-62634580D01*
X167750023Y-62724258D01*
X167661217Y-62635297D01*
X167394845Y-62524690D01*
X167106422Y-62524438D01*
X166839858Y-62634580D01*
X166721669Y-62752563D01*
X166724874Y-62744844D01*
X166725126Y-62456421D01*
X166614984Y-62189857D01*
X166411216Y-61985733D01*
X166144844Y-61875126D01*
X165856421Y-61874874D01*
X165589857Y-61985016D01*
X165426598Y-62147991D01*
X165371606Y-62125156D01*
X165083183Y-62124904D01*
X164816619Y-62235046D01*
X164703573Y-62347895D01*
X164591225Y-62301244D01*
X164302802Y-62300992D01*
X164166465Y-62357325D01*
X164053143Y-62243806D01*
X163786771Y-62133199D01*
X163498348Y-62132947D01*
X163231784Y-62243089D01*
X163027660Y-62446857D01*
X163026784Y-62448966D01*
X161888909Y-61311091D01*
X161710476Y-61191866D01*
X161500000Y-61150000D01*
X149368071Y-61150000D01*
X149376804Y-61128968D01*
X149377056Y-60840545D01*
X149266914Y-60573981D01*
X149063146Y-60369857D01*
X148796774Y-60259250D01*
X148508351Y-60258998D01*
X148241787Y-60369140D01*
X148037663Y-60572908D01*
X147927056Y-60839280D01*
X147926804Y-61127703D01*
X147936017Y-61150000D01*
X146900000Y-61150000D01*
X146689524Y-61191866D01*
X146511091Y-61311091D01*
X146511089Y-61311094D01*
X145972182Y-61850000D01*
X145275371Y-61850000D01*
X145211216Y-61785733D01*
X144944844Y-61675126D01*
X144656421Y-61674874D01*
X144389857Y-61785016D01*
X144185733Y-61988784D01*
X144150780Y-62072962D01*
X143625047Y-61547229D01*
X143625126Y-61456421D01*
X143514984Y-61189857D01*
X143311216Y-60985733D01*
X143044844Y-60875126D01*
X142756421Y-60874874D01*
X142489857Y-60985016D01*
X142455834Y-61018980D01*
X142455932Y-60906419D01*
X142345790Y-60639855D01*
X142315129Y-60609140D01*
X142424874Y-60344844D01*
X142424875Y-60343579D01*
X144574874Y-60343579D01*
X144685016Y-60610143D01*
X144721996Y-60647188D01*
X144614880Y-60905154D01*
X144614628Y-61193577D01*
X144724770Y-61460141D01*
X144928538Y-61664265D01*
X145194910Y-61774872D01*
X145483333Y-61775124D01*
X145749897Y-61664982D01*
X145954021Y-61461214D01*
X146064628Y-61194842D01*
X146064880Y-60906419D01*
X145954738Y-60639855D01*
X145917758Y-60602810D01*
X146024874Y-60344844D01*
X146025126Y-60056421D01*
X145914984Y-59789857D01*
X145711216Y-59585733D01*
X145609698Y-59543579D01*
X145849874Y-59543579D01*
X145960016Y-59810143D01*
X146163784Y-60014267D01*
X146430156Y-60124874D01*
X146718579Y-60125126D01*
X146985143Y-60014984D01*
X147189267Y-59811216D01*
X147299874Y-59544844D01*
X147300126Y-59256421D01*
X147189984Y-58989857D01*
X146986216Y-58785733D01*
X146719844Y-58675126D01*
X146431421Y-58674874D01*
X146164857Y-58785016D01*
X145960733Y-58988784D01*
X145850126Y-59255156D01*
X145849874Y-59543579D01*
X145609698Y-59543579D01*
X145444844Y-59475126D01*
X145156421Y-59474874D01*
X144889857Y-59585016D01*
X144685733Y-59788784D01*
X144575126Y-60055156D01*
X144574874Y-60343579D01*
X142424875Y-60343579D01*
X142425126Y-60056421D01*
X142314984Y-59789857D01*
X142111216Y-59585733D01*
X142009698Y-59543579D01*
X142274874Y-59543579D01*
X142385016Y-59810143D01*
X142588784Y-60014267D01*
X142855156Y-60124874D01*
X143143579Y-60125126D01*
X143410143Y-60014984D01*
X143614267Y-59811216D01*
X143724874Y-59544844D01*
X143725126Y-59256421D01*
X143614984Y-58989857D01*
X143411216Y-58785733D01*
X143144844Y-58675126D01*
X142856421Y-58674874D01*
X142589857Y-58785016D01*
X142385733Y-58988784D01*
X142275126Y-59255156D01*
X142274874Y-59543579D01*
X142009698Y-59543579D01*
X141844844Y-59475126D01*
X141556421Y-59474874D01*
X141289857Y-59585016D01*
X141085733Y-59788784D01*
X140975126Y-60055156D01*
X140974874Y-60343579D01*
X141085016Y-60610143D01*
X141115677Y-60640858D01*
X141005932Y-60905154D01*
X141005680Y-61193577D01*
X141115822Y-61460141D01*
X141319590Y-61664265D01*
X141585962Y-61774872D01*
X141874385Y-61775124D01*
X142140949Y-61664982D01*
X142174972Y-61631018D01*
X142174874Y-61743579D01*
X142285016Y-62010143D01*
X142299739Y-62024892D01*
X142235735Y-62088784D01*
X142125128Y-62355156D01*
X142124876Y-62643579D01*
X142235018Y-62910143D01*
X142438786Y-63114267D01*
X142705158Y-63224874D01*
X142797138Y-63224954D01*
X143436104Y-63863920D01*
X143614537Y-63983145D01*
X143825013Y-64025012D01*
X143825018Y-64025011D01*
X145329167Y-64025011D01*
X145275126Y-64155156D01*
X145274874Y-64443579D01*
X145385016Y-64710143D01*
X145588784Y-64914267D01*
X145855156Y-65024874D01*
X146143579Y-65025126D01*
X146410143Y-64914984D01*
X146614267Y-64711216D01*
X146724874Y-64444844D01*
X146725126Y-64156421D01*
X146670828Y-64025011D01*
X146725009Y-64025011D01*
X146935485Y-63983145D01*
X147113918Y-63863920D01*
X147827818Y-63150020D01*
X154474554Y-63150020D01*
X154389857Y-63185016D01*
X154185733Y-63388784D01*
X154075126Y-63655156D01*
X154075021Y-63774890D01*
X154036617Y-63774857D01*
X153733285Y-63900191D01*
X153501007Y-64132065D01*
X153375143Y-64435177D01*
X153374857Y-64763383D01*
X153500191Y-65066715D01*
X153732065Y-65298993D01*
X154035177Y-65424857D01*
X154363383Y-65425143D01*
X154666715Y-65299809D01*
X154898993Y-65067935D01*
X155024857Y-64764823D01*
X155025095Y-64491444D01*
X155210143Y-64414984D01*
X155414267Y-64211216D01*
X155524874Y-63944844D01*
X155525126Y-63656421D01*
X155414984Y-63389857D01*
X155211216Y-63185733D01*
X155125209Y-63150020D01*
X160899382Y-63150020D01*
X161512074Y-63762712D01*
X161357381Y-63917136D01*
X161246774Y-64183508D01*
X161246522Y-64471931D01*
X161356664Y-64738495D01*
X161560432Y-64942619D01*
X161826804Y-65053226D01*
X162075626Y-65053443D01*
X162438350Y-65416167D01*
X162438352Y-65416170D01*
X162564471Y-65500440D01*
X162616785Y-65535395D01*
X162827261Y-65577262D01*
X162827266Y-65577261D01*
X163277392Y-65577261D01*
X162562827Y-66291826D01*
X162472019Y-66291747D01*
X162205455Y-66401889D01*
X162001331Y-66605657D01*
X161940121Y-66753067D01*
X161830633Y-66752971D01*
X161564069Y-66863113D01*
X161424056Y-67002882D01*
X161361366Y-66976851D01*
X161072943Y-66976599D01*
X160806379Y-67086741D01*
X160602255Y-67290509D01*
X160491648Y-67556881D01*
X160491396Y-67845304D01*
X160601538Y-68111868D01*
X160805306Y-68315992D01*
X161071678Y-68426599D01*
X161360101Y-68426851D01*
X161626665Y-68316709D01*
X161766678Y-68176940D01*
X161829368Y-68202971D01*
X161939273Y-68203067D01*
X161949996Y-68210232D01*
X162063735Y-68286230D01*
X162274211Y-68328097D01*
X162274216Y-68328096D01*
X163221904Y-68328096D01*
X163432380Y-68286230D01*
X163544250Y-68211481D01*
X163585016Y-68310143D01*
X163788784Y-68514267D01*
X164055156Y-68624874D01*
X164343579Y-68625126D01*
X164610143Y-68514984D01*
X164675241Y-68450000D01*
X165274602Y-68450000D01*
X165189857Y-68485016D01*
X164985733Y-68688784D01*
X164875126Y-68955156D01*
X164874874Y-69243579D01*
X164985016Y-69510143D01*
X165188784Y-69714267D01*
X165455156Y-69824874D01*
X165743579Y-69825126D01*
X166010143Y-69714984D01*
X166214267Y-69511216D01*
X166324874Y-69244844D01*
X166325126Y-68956421D01*
X166214984Y-68689857D01*
X166011216Y-68485733D01*
X165815788Y-68404585D01*
X165988909Y-68288909D01*
X166727818Y-67550000D01*
X169292240Y-67550000D01*
X169993395Y-68251154D01*
X169894844Y-68210232D01*
X169606421Y-68209980D01*
X169339857Y-68320122D01*
X169135733Y-68523890D01*
X169025126Y-68790262D01*
X169024874Y-69078685D01*
X169135016Y-69345249D01*
X169338784Y-69549373D01*
X169605156Y-69659980D01*
X169880917Y-69660221D01*
X169885016Y-69670142D01*
X170088784Y-69874266D01*
X170355156Y-69984873D01*
X170643579Y-69985125D01*
X170910143Y-69874983D01*
X171114267Y-69671215D01*
X171224874Y-69404843D01*
X171225126Y-69116420D01*
X171114984Y-68849856D01*
X170911216Y-68645732D01*
X170644844Y-68535125D01*
X170369083Y-68534884D01*
X170364984Y-68524963D01*
X170223043Y-68382774D01*
X170385059Y-68415001D01*
X172744810Y-68415001D01*
X172635732Y-68523889D01*
X172525125Y-68790261D01*
X172524873Y-69078684D01*
X172635015Y-69345248D01*
X172838783Y-69549372D01*
X173105155Y-69659979D01*
X173393578Y-69660231D01*
X173660142Y-69550089D01*
X173864266Y-69346321D01*
X173974873Y-69079949D01*
X173975125Y-68791526D01*
X173864983Y-68524962D01*
X173783742Y-68443579D01*
X179274874Y-68443579D01*
X179385016Y-68710143D01*
X179588784Y-68914267D01*
X179855156Y-69024874D01*
X180143579Y-69025126D01*
X180340937Y-68943579D01*
X186774874Y-68943579D01*
X186885016Y-69210143D01*
X187088784Y-69414267D01*
X187355156Y-69524874D01*
X187643579Y-69525126D01*
X187910143Y-69414984D01*
X188114267Y-69211216D01*
X188224874Y-68944844D01*
X188225126Y-68656421D01*
X188114984Y-68389857D01*
X188068787Y-68343579D01*
X189574874Y-68343579D01*
X189685016Y-68610143D01*
X189888784Y-68814267D01*
X190155156Y-68924874D01*
X190443579Y-68925126D01*
X190710143Y-68814984D01*
X190914267Y-68611216D01*
X191024874Y-68344844D01*
X191025126Y-68056421D01*
X190914984Y-67789857D01*
X190711216Y-67585733D01*
X190444844Y-67475126D01*
X190156421Y-67474874D01*
X189889857Y-67585016D01*
X189685733Y-67788784D01*
X189575126Y-68055156D01*
X189574874Y-68343579D01*
X188068787Y-68343579D01*
X187911216Y-68185733D01*
X187644844Y-68075126D01*
X187356421Y-68074874D01*
X187089857Y-68185016D01*
X186885733Y-68388784D01*
X186775126Y-68655156D01*
X186774874Y-68943579D01*
X180340937Y-68943579D01*
X180410143Y-68914984D01*
X180614267Y-68711216D01*
X180724874Y-68444844D01*
X180725126Y-68156421D01*
X180614984Y-67889857D01*
X180411216Y-67685733D01*
X180144844Y-67575126D01*
X179856421Y-67574874D01*
X179589857Y-67685016D01*
X179385733Y-67888784D01*
X179275126Y-68155156D01*
X179274874Y-68443579D01*
X173783742Y-68443579D01*
X173661215Y-68320838D01*
X173394843Y-68210231D01*
X173367611Y-68210207D01*
X174462806Y-67115011D01*
X180374899Y-67115011D01*
X180374874Y-67143579D01*
X180485016Y-67410143D01*
X180688784Y-67614267D01*
X180955156Y-67724874D01*
X181243579Y-67725126D01*
X181510143Y-67614984D01*
X181714267Y-67411216D01*
X181824874Y-67144844D01*
X181825126Y-66856421D01*
X181714984Y-66589857D01*
X181568962Y-66443579D01*
X182674874Y-66443579D01*
X182780950Y-66700303D01*
X182675126Y-66955156D01*
X182674874Y-67243579D01*
X182785016Y-67510143D01*
X182988784Y-67714267D01*
X183255156Y-67824874D01*
X183543579Y-67825126D01*
X183800303Y-67719050D01*
X184055156Y-67824874D01*
X184343579Y-67825126D01*
X184600303Y-67719050D01*
X184855156Y-67824874D01*
X185143579Y-67825126D01*
X185400303Y-67719050D01*
X185655156Y-67824874D01*
X185943579Y-67825126D01*
X186200303Y-67719050D01*
X186455156Y-67824874D01*
X186743579Y-67825126D01*
X187010143Y-67714984D01*
X187214267Y-67511216D01*
X187324874Y-67244844D01*
X187325126Y-66956421D01*
X187214984Y-66689857D01*
X187011216Y-66485733D01*
X186744844Y-66375126D01*
X186456421Y-66374874D01*
X186199697Y-66480950D01*
X185944844Y-66375126D01*
X185656421Y-66374874D01*
X185399697Y-66480950D01*
X185144844Y-66375126D01*
X184924935Y-66374934D01*
X184924962Y-66343579D01*
X187474874Y-66343579D01*
X187585016Y-66610143D01*
X187788784Y-66814267D01*
X188055156Y-66924874D01*
X188343579Y-66925126D01*
X188610143Y-66814984D01*
X188814267Y-66611216D01*
X188924874Y-66344844D01*
X188925126Y-66056421D01*
X188919820Y-66043579D01*
X192374874Y-66043579D01*
X192485016Y-66310143D01*
X192688784Y-66514267D01*
X192955156Y-66624874D01*
X193243579Y-66625126D01*
X193510143Y-66514984D01*
X193714267Y-66311216D01*
X193824874Y-66044844D01*
X193825126Y-65756421D01*
X193808731Y-65716742D01*
X193814267Y-65711216D01*
X193924874Y-65444844D01*
X193925126Y-65156421D01*
X193860471Y-64999944D01*
X193924874Y-64844844D01*
X193925126Y-64556421D01*
X193860471Y-64399944D01*
X193924874Y-64244844D01*
X193925126Y-63956421D01*
X193814984Y-63689857D01*
X193611216Y-63485733D01*
X193344844Y-63375126D01*
X193056421Y-63374874D01*
X192789857Y-63485016D01*
X192585733Y-63688784D01*
X192475126Y-63955156D01*
X192474874Y-64243579D01*
X192539529Y-64400056D01*
X192475126Y-64555156D01*
X192474874Y-64843579D01*
X192539529Y-65000056D01*
X192475126Y-65155156D01*
X192474874Y-65443579D01*
X192491269Y-65483258D01*
X192485733Y-65488784D01*
X192375126Y-65755156D01*
X192374874Y-66043579D01*
X188919820Y-66043579D01*
X188814984Y-65789857D01*
X188611216Y-65585733D01*
X188344844Y-65475126D01*
X188056421Y-65474874D01*
X187789857Y-65585016D01*
X187585733Y-65788784D01*
X187475126Y-66055156D01*
X187474874Y-66343579D01*
X184924962Y-66343579D01*
X184925126Y-66156421D01*
X184814984Y-65889857D01*
X184611216Y-65685733D01*
X184344844Y-65575126D01*
X184056421Y-65574874D01*
X183799697Y-65680950D01*
X183544844Y-65575126D01*
X183256421Y-65574874D01*
X182989857Y-65685016D01*
X182785733Y-65888784D01*
X182675126Y-66155156D01*
X182674874Y-66443579D01*
X181568962Y-66443579D01*
X181511216Y-66385733D01*
X181434247Y-66353773D01*
X181599111Y-66188909D01*
X181619654Y-66158164D01*
X182112274Y-65665544D01*
X182255156Y-65724874D01*
X182543579Y-65725126D01*
X182810143Y-65614984D01*
X183014267Y-65411216D01*
X183124874Y-65144844D01*
X183125126Y-64856421D01*
X183014984Y-64589857D01*
X182925306Y-64500022D01*
X183014267Y-64411216D01*
X183124874Y-64144844D01*
X183125126Y-63856421D01*
X183014984Y-63589857D01*
X182811216Y-63385733D01*
X182544844Y-63275126D01*
X182256421Y-63274874D01*
X181989857Y-63385016D01*
X181785733Y-63588784D01*
X181675126Y-63855156D01*
X181674874Y-64143579D01*
X181785016Y-64410143D01*
X181853828Y-64479075D01*
X181789524Y-64491866D01*
X181611091Y-64611091D01*
X181522388Y-64699794D01*
X181450116Y-64524882D01*
X181524874Y-64344844D01*
X181525126Y-64056421D01*
X181414984Y-63789857D01*
X181211216Y-63585733D01*
X180944844Y-63475126D01*
X180656421Y-63474874D01*
X180389857Y-63585016D01*
X180185733Y-63788784D01*
X180075126Y-64055156D01*
X180074874Y-64343579D01*
X180149884Y-64525118D01*
X180075126Y-64705156D01*
X180074879Y-64987598D01*
X180044844Y-64975126D01*
X179756421Y-64974874D01*
X179549821Y-65060240D01*
X179344844Y-64975126D01*
X179056421Y-64974874D01*
X178789857Y-65085016D01*
X178585733Y-65288784D01*
X178475126Y-65555156D01*
X178474874Y-65843579D01*
X178545708Y-66015011D01*
X178030105Y-66015011D01*
X178033135Y-66010477D01*
X178075001Y-65800001D01*
X178075001Y-65477815D01*
X180409236Y-63143579D01*
X187774874Y-63143579D01*
X187885016Y-63410143D01*
X188088784Y-63614267D01*
X188224597Y-63670662D01*
X188189857Y-63685016D01*
X187985733Y-63888784D01*
X187875126Y-64155156D01*
X187874874Y-64443579D01*
X187985016Y-64710143D01*
X188188784Y-64914267D01*
X188455156Y-65024874D01*
X188743579Y-65025126D01*
X189010143Y-64914984D01*
X189214267Y-64711216D01*
X189324874Y-64444844D01*
X189325126Y-64156421D01*
X189214984Y-63889857D01*
X189011216Y-63685733D01*
X188875403Y-63629338D01*
X188910143Y-63614984D01*
X189114267Y-63411216D01*
X189224874Y-63144844D01*
X189224875Y-63143579D01*
X189324874Y-63143579D01*
X189435016Y-63410143D01*
X189638784Y-63614267D01*
X189905156Y-63724874D01*
X190193579Y-63725126D01*
X190460143Y-63614984D01*
X190664267Y-63411216D01*
X190774874Y-63144844D01*
X190775126Y-62856421D01*
X190664984Y-62589857D01*
X190461216Y-62385733D01*
X190194844Y-62275126D01*
X189906421Y-62274874D01*
X189639857Y-62385016D01*
X189435733Y-62588784D01*
X189325126Y-62855156D01*
X189324874Y-63143579D01*
X189224875Y-63143579D01*
X189225126Y-62856421D01*
X189114984Y-62589857D01*
X188911216Y-62385733D01*
X188644844Y-62275126D01*
X188356421Y-62274874D01*
X188089857Y-62385016D01*
X187885733Y-62588784D01*
X187775126Y-62855156D01*
X187774874Y-63143579D01*
X180409236Y-63143579D01*
X181488562Y-62064253D01*
X186295548Y-62064253D01*
X186405690Y-62330817D01*
X186609458Y-62534941D01*
X186875830Y-62645548D01*
X187164253Y-62645800D01*
X187430817Y-62535658D01*
X187634941Y-62331890D01*
X187745548Y-62065518D01*
X187745800Y-61777095D01*
X187635658Y-61510531D01*
X187431890Y-61306407D01*
X187165518Y-61195800D01*
X186877095Y-61195548D01*
X186610531Y-61305690D01*
X186406407Y-61509458D01*
X186295800Y-61775830D01*
X186295548Y-62064253D01*
X181488562Y-62064253D01*
X184059234Y-59493581D01*
X185174874Y-59493581D01*
X185285016Y-59760145D01*
X185488784Y-59964269D01*
X185755156Y-60074876D01*
X186043579Y-60075128D01*
X186310143Y-59964986D01*
X186514267Y-59761218D01*
X186624874Y-59494846D01*
X186625126Y-59206423D01*
X186514984Y-58939859D01*
X186311216Y-58735735D01*
X186044844Y-58625128D01*
X185756421Y-58624876D01*
X185489857Y-58735018D01*
X185285733Y-58938786D01*
X185175126Y-59205158D01*
X185174874Y-59493581D01*
X184059234Y-59493581D01*
X184988906Y-58563909D01*
X184988909Y-58563907D01*
X185108134Y-58385474D01*
X185117267Y-58339559D01*
X185150001Y-58174998D01*
X185150000Y-58174993D01*
X185150000Y-57477816D01*
X185200000Y-57427816D01*
X186686102Y-58913918D01*
X186864535Y-59033143D01*
X187075011Y-59075009D01*
X188572189Y-59075009D01*
X189335980Y-59838800D01*
X189185733Y-59988784D01*
X189075126Y-60255156D01*
X189074874Y-60543579D01*
X189185016Y-60810143D01*
X189388784Y-61014267D01*
X189655156Y-61124874D01*
X189943579Y-61125126D01*
X190210143Y-61014984D01*
X190414267Y-60811216D01*
X190524874Y-60544844D01*
X190525066Y-60324999D01*
X191407181Y-60324999D01*
X194986109Y-63903927D01*
X194789857Y-63985016D01*
X194585733Y-64188784D01*
X194475126Y-64455156D01*
X194474874Y-64743579D01*
X194585016Y-65010143D01*
X194788784Y-65214267D01*
X195055156Y-65324874D01*
X195343579Y-65325126D01*
X195610143Y-65214984D01*
X195814267Y-65011216D01*
X195896165Y-64813983D01*
X199446653Y-68364471D01*
X199360021Y-68800000D01*
X199457075Y-69287921D01*
X199733460Y-69701561D01*
X200147100Y-69977946D01*
X200635021Y-70075000D01*
X200684979Y-70075000D01*
X201172900Y-69977946D01*
X201586540Y-69701561D01*
X201862925Y-69287921D01*
X201930000Y-68950714D01*
X201997075Y-69287921D01*
X202273460Y-69701561D01*
X202687100Y-69977946D01*
X203149884Y-70070000D01*
X202687100Y-70162054D01*
X202273460Y-70438439D01*
X201997075Y-70852079D01*
X201900021Y-71340000D01*
X201986654Y-71775529D01*
X201511091Y-72251091D01*
X201391866Y-72429524D01*
X201350000Y-72640000D01*
X201350000Y-72820388D01*
X201172900Y-72702054D01*
X200684979Y-72605000D01*
X200635021Y-72605000D01*
X200147100Y-72702054D01*
X199733460Y-72978439D01*
X199457075Y-73392079D01*
X199360021Y-73880000D01*
X199446653Y-74315529D01*
X198366081Y-75396101D01*
X198246856Y-75574534D01*
X198204990Y-75785010D01*
X198204990Y-77217193D01*
X196762202Y-78659980D01*
X186820130Y-78659980D01*
X186778263Y-78668308D01*
X186609654Y-78701846D01*
X186574813Y-78725126D01*
X186431220Y-78821072D01*
X186170540Y-79081754D01*
X183619787Y-81632506D01*
X182685808Y-81633239D01*
X182766715Y-81599809D01*
X182998993Y-81367935D01*
X183124857Y-81064823D01*
X183125143Y-80736617D01*
X182999809Y-80433285D01*
X182767935Y-80201007D01*
X182464823Y-80075143D01*
X182136617Y-80074857D01*
X181833285Y-80200191D01*
X181601007Y-80432065D01*
X181583167Y-80475028D01*
X181517033Y-80474971D01*
X181499809Y-80433285D01*
X181267935Y-80201007D01*
X180964823Y-80075143D01*
X180636617Y-80074857D01*
X180333285Y-80200191D01*
X180101007Y-80432065D01*
X180083167Y-80475028D01*
X180017033Y-80474971D01*
X179999809Y-80433285D01*
X179767935Y-80201007D01*
X179464823Y-80075143D01*
X179136617Y-80074857D01*
X178833285Y-80200191D01*
X178750058Y-80283273D01*
X178667935Y-80201007D01*
X178364823Y-80075143D01*
X178036617Y-80074857D01*
X177733285Y-80200191D01*
X177501007Y-80432065D01*
X177375143Y-80735177D01*
X177375050Y-80841615D01*
X177233285Y-80900191D01*
X177001007Y-81132065D01*
X176875143Y-81435177D01*
X176874857Y-81763383D01*
X177000191Y-82066715D01*
X177232065Y-82298993D01*
X177535177Y-82424857D01*
X177863383Y-82425143D01*
X178166715Y-82299809D01*
X178199855Y-82266727D01*
X178232065Y-82298993D01*
X178389400Y-82364324D01*
X177728723Y-83025001D01*
X171460805Y-83025001D01*
X171517675Y-82888043D01*
X171517927Y-82599620D01*
X171407785Y-82333056D01*
X171204017Y-82128932D01*
X170998464Y-82043579D01*
X173774874Y-82043579D01*
X173885016Y-82310143D01*
X174088784Y-82514267D01*
X174355156Y-82624874D01*
X174643579Y-82625126D01*
X174910143Y-82514984D01*
X175114267Y-82311216D01*
X175224874Y-82044844D01*
X175225126Y-81756421D01*
X175114984Y-81489857D01*
X174911216Y-81285733D01*
X174644844Y-81175126D01*
X174356421Y-81174874D01*
X174089857Y-81285016D01*
X173885733Y-81488784D01*
X173775126Y-81755156D01*
X173774874Y-82043579D01*
X170998464Y-82043579D01*
X170937645Y-82018325D01*
X170649222Y-82018073D01*
X170382658Y-82128215D01*
X170244235Y-82266397D01*
X170144844Y-82225126D01*
X169856421Y-82224874D01*
X169589857Y-82335016D01*
X169449935Y-82474694D01*
X169311216Y-82335733D01*
X169044844Y-82225126D01*
X168756421Y-82224874D01*
X168489857Y-82335016D01*
X168285733Y-82538784D01*
X168175126Y-82805156D01*
X168174934Y-83025001D01*
X167217603Y-83025001D01*
X165346930Y-81154328D01*
X165168497Y-81035103D01*
X165070458Y-81015602D01*
X164983977Y-80928970D01*
X164717605Y-80818363D01*
X164429182Y-80818111D01*
X164162618Y-80928253D01*
X163958494Y-81132021D01*
X163847887Y-81398393D01*
X163847635Y-81686816D01*
X163957777Y-81953380D01*
X164072330Y-82068133D01*
X164016257Y-82203173D01*
X164016005Y-82491596D01*
X164126147Y-82758160D01*
X164281168Y-82913452D01*
X164253478Y-82980136D01*
X164253226Y-83268559D01*
X164363368Y-83535123D01*
X164428352Y-83600221D01*
X164428352Y-84028352D01*
X164470218Y-84238828D01*
X164589443Y-84417261D01*
X164672182Y-84500000D01*
X163060448Y-84500000D01*
X163124874Y-84344844D01*
X163125126Y-84056421D01*
X163014984Y-83789857D01*
X162811216Y-83585733D01*
X162544844Y-83475126D01*
X162256421Y-83474874D01*
X161989857Y-83585016D01*
X161785733Y-83788784D01*
X161675126Y-84055156D01*
X161674874Y-84343579D01*
X161739506Y-84500000D01*
X151666698Y-84500000D01*
X151798993Y-84367935D01*
X151924857Y-84064823D01*
X151925014Y-83884772D01*
X152000191Y-84066715D01*
X152232065Y-84298993D01*
X152535177Y-84424857D01*
X152863383Y-84425143D01*
X153166715Y-84299809D01*
X153398993Y-84067935D01*
X153524857Y-83764823D01*
X153525143Y-83436617D01*
X153437683Y-83224946D01*
X153663383Y-83225143D01*
X153966715Y-83099809D01*
X154198993Y-82867935D01*
X154324857Y-82564823D01*
X154325143Y-82236617D01*
X154199809Y-81933285D01*
X153967935Y-81701007D01*
X153829635Y-81643579D01*
X159074874Y-81643579D01*
X159185016Y-81910143D01*
X159388784Y-82114267D01*
X159655156Y-82224874D01*
X159943579Y-82225126D01*
X160210143Y-82114984D01*
X160414267Y-81911216D01*
X160524874Y-81644844D01*
X160525126Y-81356421D01*
X160414984Y-81089857D01*
X160211216Y-80885733D01*
X159944844Y-80775126D01*
X159656421Y-80774874D01*
X159389857Y-80885016D01*
X159185733Y-81088784D01*
X159075126Y-81355156D01*
X159074874Y-81643579D01*
X153829635Y-81643579D01*
X153724685Y-81600000D01*
X154275958Y-81600000D01*
X154649074Y-81525783D01*
X154965387Y-81314429D01*
X155176741Y-80998116D01*
X155250958Y-80625000D01*
X155176741Y-80251884D01*
X155158696Y-80224877D01*
X155443579Y-80225126D01*
X155710143Y-80114984D01*
X155914267Y-79911216D01*
X156024874Y-79644844D01*
X156025126Y-79356421D01*
X155914984Y-79089857D01*
X155711216Y-78885733D01*
X155444844Y-78775126D01*
X155156421Y-78774874D01*
X154889857Y-78885016D01*
X154685733Y-79088784D01*
X154575126Y-79355156D01*
X154574874Y-79643579D01*
X154604532Y-79715357D01*
X154275958Y-79650000D01*
X153524042Y-79650000D01*
X153150926Y-79724217D01*
X152834613Y-79935571D01*
X152623259Y-80251884D01*
X152549042Y-80625000D01*
X152623259Y-80998116D01*
X152834613Y-81314429D01*
X153150926Y-81525783D01*
X153397907Y-81574910D01*
X153336617Y-81574857D01*
X153033285Y-81700191D01*
X152801007Y-81932065D01*
X152675143Y-82235177D01*
X152674857Y-82563383D01*
X152762317Y-82775054D01*
X152654869Y-82774960D01*
X152580660Y-82401884D01*
X152369306Y-82085571D01*
X152052993Y-81874217D01*
X151679877Y-81800000D01*
X150520123Y-81800000D01*
X150147007Y-81874217D01*
X149830694Y-82085571D01*
X149619340Y-82401884D01*
X149545123Y-82775000D01*
X149545148Y-82775126D01*
X149437570Y-82775032D01*
X149524857Y-82564823D01*
X149525143Y-82236617D01*
X149399809Y-81933285D01*
X149167935Y-81701007D01*
X148864823Y-81575143D01*
X148801202Y-81575088D01*
X149049074Y-81525783D01*
X149365387Y-81314429D01*
X149576741Y-80998116D01*
X149650958Y-80625000D01*
X149576741Y-80251884D01*
X149538214Y-80194224D01*
X149766715Y-80099809D01*
X149998993Y-79867935D01*
X150124857Y-79564823D01*
X150125143Y-79236617D01*
X149999809Y-78933285D01*
X149767935Y-78701007D01*
X149464823Y-78575143D01*
X149136617Y-78574857D01*
X148833285Y-78700191D01*
X148601007Y-78932065D01*
X148475143Y-79235177D01*
X148474857Y-79563383D01*
X148510646Y-79650000D01*
X147924042Y-79650000D01*
X147550926Y-79724217D01*
X147234613Y-79935571D01*
X147023259Y-80251884D01*
X146949042Y-80625000D01*
X147023259Y-80998116D01*
X147234613Y-81314429D01*
X147550926Y-81525783D01*
X147924042Y-81600000D01*
X148475766Y-81600000D01*
X148233285Y-81700191D01*
X148001007Y-81932065D01*
X147875143Y-82235177D01*
X147874857Y-82563383D01*
X148000191Y-82866715D01*
X148232065Y-83098993D01*
X148535177Y-83224857D01*
X148662430Y-83224968D01*
X148575143Y-83435177D01*
X148574857Y-83763383D01*
X148700191Y-84066715D01*
X148932065Y-84298993D01*
X149235177Y-84424857D01*
X149563383Y-84425143D01*
X149866715Y-84299809D01*
X150098993Y-84067935D01*
X150224857Y-83764823D01*
X150224921Y-83691281D01*
X150288148Y-83703858D01*
X150275143Y-83735177D01*
X150274857Y-84063383D01*
X150400191Y-84366715D01*
X150533244Y-84500000D01*
X145208300Y-84500000D01*
X145437572Y-84405267D01*
X146401881Y-83442640D01*
X146924404Y-82184264D01*
X146925593Y-80821714D01*
X146405267Y-79562428D01*
X145442640Y-78598119D01*
X145081749Y-78448264D01*
X162670674Y-78448264D01*
X162780816Y-78714828D01*
X162984584Y-78918952D01*
X163250956Y-79029559D01*
X163539379Y-79029811D01*
X163805943Y-78919669D01*
X164010067Y-78715901D01*
X164120674Y-78449529D01*
X164120926Y-78161106D01*
X164100012Y-78110489D01*
X164210143Y-78064984D01*
X164414267Y-77861216D01*
X164524874Y-77594844D01*
X164525006Y-77443579D01*
X167874874Y-77443579D01*
X167985016Y-77710143D01*
X168188784Y-77914267D01*
X168455156Y-78024874D01*
X168743579Y-78025126D01*
X169010143Y-77914984D01*
X169214267Y-77711216D01*
X169324874Y-77444844D01*
X169324962Y-77343579D01*
X171074874Y-77343579D01*
X171180950Y-77600303D01*
X171075126Y-77855156D01*
X171074874Y-78143579D01*
X171185016Y-78410143D01*
X171388784Y-78614267D01*
X171655156Y-78724874D01*
X171943579Y-78725126D01*
X172200303Y-78619050D01*
X172455156Y-78724874D01*
X172743579Y-78725126D01*
X173000303Y-78619050D01*
X173255156Y-78724874D01*
X173543579Y-78725126D01*
X173800303Y-78619050D01*
X174055156Y-78724874D01*
X174343579Y-78725126D01*
X174610143Y-78614984D01*
X174814267Y-78411216D01*
X174924874Y-78144844D01*
X174925126Y-77856421D01*
X174819050Y-77599697D01*
X174924874Y-77344844D01*
X174925126Y-77056421D01*
X174819050Y-76799697D01*
X174924874Y-76544844D01*
X174925126Y-76256421D01*
X174814984Y-75989857D01*
X174611216Y-75785733D01*
X174344844Y-75675126D01*
X174056421Y-75674874D01*
X173799697Y-75780950D01*
X173544844Y-75675126D01*
X173256421Y-75674874D01*
X172999697Y-75780950D01*
X172744844Y-75675126D01*
X172456421Y-75674874D01*
X172189857Y-75785016D01*
X171985733Y-75988784D01*
X171875126Y-76255156D01*
X171874934Y-76475065D01*
X171656421Y-76474874D01*
X171389857Y-76585016D01*
X171185733Y-76788784D01*
X171075126Y-77055156D01*
X171074874Y-77343579D01*
X169324962Y-77343579D01*
X169325126Y-77156421D01*
X169214984Y-76889857D01*
X169011216Y-76685733D01*
X168810777Y-76602504D01*
X168861475Y-76602548D01*
X169128039Y-76492406D01*
X169332163Y-76288638D01*
X169442770Y-76022266D01*
X169443013Y-75743579D01*
X169874874Y-75743579D01*
X169985016Y-76010143D01*
X170188784Y-76214267D01*
X170455156Y-76324874D01*
X170743579Y-76325126D01*
X171010143Y-76214984D01*
X171214267Y-76011216D01*
X171324874Y-75744844D01*
X171325049Y-75543579D01*
X187474874Y-75543579D01*
X187585016Y-75810143D01*
X187788784Y-76014267D01*
X188055156Y-76124874D01*
X188343579Y-76125126D01*
X188610143Y-76014984D01*
X188814267Y-75811216D01*
X188924874Y-75544844D01*
X188925126Y-75256421D01*
X188814984Y-74989857D01*
X188611216Y-74785733D01*
X188344844Y-74675126D01*
X188056421Y-74674874D01*
X187789857Y-74785016D01*
X187585733Y-74988784D01*
X187475126Y-75255156D01*
X187474874Y-75543579D01*
X171325049Y-75543579D01*
X171325126Y-75456421D01*
X171214984Y-75189857D01*
X171011216Y-74985733D01*
X170744844Y-74875126D01*
X170456421Y-74874874D01*
X170189857Y-74985016D01*
X169985733Y-75188784D01*
X169875126Y-75455156D01*
X169874874Y-75743579D01*
X169443013Y-75743579D01*
X169443022Y-75733843D01*
X169332880Y-75467279D01*
X169129112Y-75263155D01*
X168862740Y-75152548D01*
X168574317Y-75152296D01*
X168307753Y-75262438D01*
X168103629Y-75466206D01*
X167993022Y-75732578D01*
X167992770Y-76021001D01*
X168102912Y-76287565D01*
X168306680Y-76491689D01*
X168507119Y-76574918D01*
X168456421Y-76574874D01*
X168189857Y-76685016D01*
X167985733Y-76888784D01*
X167875126Y-77155156D01*
X167874874Y-77443579D01*
X164525006Y-77443579D01*
X164525126Y-77306421D01*
X164414984Y-77039857D01*
X164211216Y-76835733D01*
X163944844Y-76725126D01*
X163656421Y-76724874D01*
X163389857Y-76835016D01*
X163185733Y-77038784D01*
X163075126Y-77305156D01*
X163074874Y-77593579D01*
X163095788Y-77644196D01*
X162985657Y-77689701D01*
X162781533Y-77893469D01*
X162670926Y-78159841D01*
X162670674Y-78448264D01*
X145081749Y-78448264D01*
X144184264Y-78075596D01*
X142821714Y-78074407D01*
X141562428Y-78594733D01*
X140598119Y-79557360D01*
X140500000Y-79793657D01*
X140500000Y-77658579D01*
X148598874Y-77658579D01*
X148709016Y-77925143D01*
X148912784Y-78129267D01*
X149179156Y-78239874D01*
X149467579Y-78240126D01*
X149734143Y-78129984D01*
X149938267Y-77926216D01*
X150005880Y-77763383D01*
X151674857Y-77763383D01*
X151800191Y-78066715D01*
X152032065Y-78298993D01*
X152335177Y-78424857D01*
X152663383Y-78425143D01*
X152966715Y-78299809D01*
X153198993Y-78067935D01*
X153324857Y-77764823D01*
X153325143Y-77436617D01*
X153199809Y-77133285D01*
X152967935Y-76901007D01*
X152664823Y-76775143D01*
X152336617Y-76774857D01*
X152033285Y-76900191D01*
X151801007Y-77132065D01*
X151675143Y-77435177D01*
X151674857Y-77763383D01*
X150005880Y-77763383D01*
X150048874Y-77659844D01*
X150049126Y-77371421D01*
X149938984Y-77104857D01*
X149735216Y-76900733D01*
X149468844Y-76790126D01*
X149180421Y-76789874D01*
X148913857Y-76900016D01*
X148709733Y-77103784D01*
X148599126Y-77370156D01*
X148598874Y-77658579D01*
X140500000Y-77658579D01*
X140500000Y-77043579D01*
X144074874Y-77043579D01*
X144185016Y-77310143D01*
X144388784Y-77514267D01*
X144655156Y-77624874D01*
X144943579Y-77625126D01*
X145210143Y-77514984D01*
X145414267Y-77311216D01*
X145524874Y-77044844D01*
X145525126Y-76756421D01*
X145414984Y-76489857D01*
X145368787Y-76443579D01*
X146074874Y-76443579D01*
X146185016Y-76710143D01*
X146388784Y-76914267D01*
X146655156Y-77024874D01*
X146943579Y-77025126D01*
X147210143Y-76914984D01*
X147414267Y-76711216D01*
X147524874Y-76444844D01*
X147525126Y-76156421D01*
X147414984Y-75889857D01*
X147211216Y-75685733D01*
X146944844Y-75575126D01*
X146656421Y-75574874D01*
X146389857Y-75685016D01*
X146185733Y-75888784D01*
X146075126Y-76155156D01*
X146074874Y-76443579D01*
X145368787Y-76443579D01*
X145211216Y-76285733D01*
X144944844Y-76175126D01*
X144656421Y-76174874D01*
X144389857Y-76285016D01*
X144185733Y-76488784D01*
X144075126Y-76755156D01*
X144074874Y-77043579D01*
X140500000Y-77043579D01*
X140500000Y-75943579D01*
X143074874Y-75943579D01*
X143185016Y-76210143D01*
X143388784Y-76414267D01*
X143655156Y-76524874D01*
X143943579Y-76525126D01*
X144210143Y-76414984D01*
X144414267Y-76211216D01*
X144524874Y-75944844D01*
X144525126Y-75656421D01*
X144414984Y-75389857D01*
X144211216Y-75185733D01*
X143944844Y-75075126D01*
X143656421Y-75074874D01*
X143389857Y-75185016D01*
X143185733Y-75388784D01*
X143075126Y-75655156D01*
X143074874Y-75943579D01*
X140500000Y-75943579D01*
X140500000Y-73657452D01*
X141799774Y-73657452D01*
X141997271Y-74135429D01*
X142362647Y-74501444D01*
X142840279Y-74699774D01*
X143357452Y-74700226D01*
X143835429Y-74502729D01*
X144201444Y-74137353D01*
X144350121Y-73779300D01*
X144497271Y-74135429D01*
X144862647Y-74501444D01*
X145340279Y-74699774D01*
X145857452Y-74700226D01*
X146335429Y-74502729D01*
X146701444Y-74137353D01*
X146850121Y-73779300D01*
X146997271Y-74135429D01*
X147362647Y-74501444D01*
X147840279Y-74699774D01*
X148357452Y-74700226D01*
X148835429Y-74502729D01*
X149201444Y-74137353D01*
X149291674Y-73920055D01*
X149291674Y-74275000D01*
X149321309Y-74432496D01*
X149414389Y-74577146D01*
X149556412Y-74674186D01*
X149725000Y-74708326D01*
X151475000Y-74708326D01*
X151632496Y-74678691D01*
X151777146Y-74585611D01*
X151874186Y-74443588D01*
X151908326Y-74275000D01*
X151908326Y-74143579D01*
X154674874Y-74143579D01*
X154785016Y-74410143D01*
X154988784Y-74614267D01*
X155255156Y-74724874D01*
X155543579Y-74725126D01*
X155810143Y-74614984D01*
X156014267Y-74411216D01*
X156124874Y-74144844D01*
X156124875Y-74143579D01*
X157924874Y-74143579D01*
X158035016Y-74410143D01*
X158238784Y-74614267D01*
X158505156Y-74724874D01*
X158793579Y-74725126D01*
X158921896Y-74672106D01*
X158825126Y-74905156D01*
X158824874Y-75193579D01*
X158935016Y-75460143D01*
X159138784Y-75664267D01*
X159405156Y-75774874D01*
X159558406Y-75775008D01*
X159525126Y-75855156D01*
X159524874Y-76143579D01*
X159635016Y-76410143D01*
X159838784Y-76614267D01*
X160105156Y-76724874D01*
X160393579Y-76725126D01*
X160660143Y-76614984D01*
X160831847Y-76443579D01*
X164874874Y-76443579D01*
X164985016Y-76710143D01*
X165188784Y-76914267D01*
X165455156Y-77024874D01*
X165743579Y-77025126D01*
X166010143Y-76914984D01*
X166214267Y-76711216D01*
X166324874Y-76444844D01*
X166325126Y-76156421D01*
X166214984Y-75889857D01*
X166011216Y-75685733D01*
X165744844Y-75575126D01*
X165456421Y-75574874D01*
X165189857Y-75685016D01*
X164985733Y-75888784D01*
X164875126Y-76155156D01*
X164874874Y-76443579D01*
X160831847Y-76443579D01*
X160864267Y-76411216D01*
X160974874Y-76144844D01*
X160975126Y-75856421D01*
X160864984Y-75589857D01*
X160661216Y-75385733D01*
X160394844Y-75275126D01*
X160241594Y-75274992D01*
X160274874Y-75194844D01*
X160275126Y-74906421D01*
X160164984Y-74639857D01*
X159961216Y-74435733D01*
X159694844Y-74325126D01*
X159406421Y-74324874D01*
X159278104Y-74377894D01*
X159374874Y-74144844D01*
X159375126Y-73856421D01*
X159264984Y-73589857D01*
X159218787Y-73543579D01*
X160474874Y-73543579D01*
X160585016Y-73810143D01*
X160788784Y-74014267D01*
X161055156Y-74124874D01*
X161343579Y-74125126D01*
X161610143Y-74014984D01*
X161814267Y-73811216D01*
X161924874Y-73544844D01*
X161925126Y-73256421D01*
X161814984Y-72989857D01*
X161611216Y-72785733D01*
X161344844Y-72675126D01*
X161056421Y-72674874D01*
X160789857Y-72785016D01*
X160585733Y-72988784D01*
X160475126Y-73255156D01*
X160474874Y-73543579D01*
X159218787Y-73543579D01*
X159061216Y-73385733D01*
X158794844Y-73275126D01*
X158506421Y-73274874D01*
X158239857Y-73385016D01*
X158035733Y-73588784D01*
X157925126Y-73855156D01*
X157924874Y-74143579D01*
X156124875Y-74143579D01*
X156125126Y-73856421D01*
X156014984Y-73589857D01*
X155811216Y-73385733D01*
X155544844Y-73275126D01*
X155256421Y-73274874D01*
X154989857Y-73385016D01*
X154785733Y-73588784D01*
X154675126Y-73855156D01*
X154674874Y-74143579D01*
X151908326Y-74143579D01*
X151908326Y-73805429D01*
X151955156Y-73824874D01*
X152243579Y-73825126D01*
X152510143Y-73714984D01*
X152714267Y-73511216D01*
X152824874Y-73244844D01*
X152825049Y-73043579D01*
X156274874Y-73043579D01*
X156385016Y-73310143D01*
X156588784Y-73514267D01*
X156855156Y-73624874D01*
X157143579Y-73625126D01*
X157410143Y-73514984D01*
X157614267Y-73311216D01*
X157724874Y-73044844D01*
X157725126Y-72756421D01*
X157614984Y-72489857D01*
X157411216Y-72285733D01*
X157144844Y-72175126D01*
X156856421Y-72174874D01*
X156589857Y-72285016D01*
X156385733Y-72488784D01*
X156275126Y-72755156D01*
X156274874Y-73043579D01*
X152825049Y-73043579D01*
X152825126Y-72956421D01*
X152729480Y-72724939D01*
X152943577Y-72725126D01*
X153210141Y-72614984D01*
X153414265Y-72411216D01*
X153494254Y-72218579D01*
X154532932Y-72218579D01*
X154643074Y-72485143D01*
X154846842Y-72689267D01*
X155113214Y-72799874D01*
X155401637Y-72800126D01*
X155668201Y-72689984D01*
X155872325Y-72486216D01*
X155982932Y-72219844D01*
X155983086Y-72043579D01*
X163674874Y-72043579D01*
X163785016Y-72310143D01*
X163988784Y-72514267D01*
X164255156Y-72624874D01*
X164543579Y-72625126D01*
X164724156Y-72550513D01*
X164635733Y-72638782D01*
X164574078Y-72787265D01*
X164544844Y-72775126D01*
X164256421Y-72774874D01*
X163989857Y-72885016D01*
X163785733Y-73088784D01*
X163675126Y-73355156D01*
X163674874Y-73643579D01*
X163785016Y-73910143D01*
X163988784Y-74114267D01*
X164255156Y-74224874D01*
X164543579Y-74225126D01*
X164810143Y-74114984D01*
X165014267Y-73911216D01*
X165075922Y-73762733D01*
X165105156Y-73774872D01*
X165393579Y-73775124D01*
X165660143Y-73664982D01*
X165864267Y-73461214D01*
X165974874Y-73194842D01*
X165975126Y-72906419D01*
X165864984Y-72639855D01*
X165661216Y-72435731D01*
X165394844Y-72325124D01*
X165106421Y-72324872D01*
X164925844Y-72399485D01*
X165014267Y-72311216D01*
X165124874Y-72044844D01*
X165125126Y-71756421D01*
X165014984Y-71489857D01*
X164811216Y-71285733D01*
X164709693Y-71243577D01*
X169074874Y-71243577D01*
X169185016Y-71510141D01*
X169388784Y-71714265D01*
X169655156Y-71824872D01*
X169756210Y-71824960D01*
X169489857Y-71935015D01*
X169285733Y-72138783D01*
X169175126Y-72405155D01*
X169174874Y-72693578D01*
X169285016Y-72960142D01*
X169488784Y-73164266D01*
X169755156Y-73274873D01*
X170043579Y-73275125D01*
X170260314Y-73185572D01*
X170388784Y-73314267D01*
X170655156Y-73424874D01*
X170943579Y-73425126D01*
X171210143Y-73314984D01*
X171414267Y-73111216D01*
X171524874Y-72844844D01*
X171525126Y-72556421D01*
X171414984Y-72289857D01*
X171211216Y-72085733D01*
X170944844Y-71975126D01*
X170656421Y-71974874D01*
X170439686Y-72064427D01*
X170311216Y-71935732D01*
X170044844Y-71825125D01*
X169943790Y-71825037D01*
X170210143Y-71714982D01*
X170281670Y-71643579D01*
X171574874Y-71643579D01*
X171649884Y-71825118D01*
X171575126Y-72005156D01*
X171574874Y-72293579D01*
X171685016Y-72560143D01*
X171888784Y-72764267D01*
X172155156Y-72874874D01*
X172443579Y-72875126D01*
X172625118Y-72800116D01*
X172805156Y-72874874D01*
X173093579Y-72875126D01*
X173275118Y-72800116D01*
X173455156Y-72874874D01*
X173743579Y-72875126D01*
X173925118Y-72800116D01*
X174105156Y-72874874D01*
X174393579Y-72875126D01*
X174660143Y-72764984D01*
X174864267Y-72561216D01*
X174974874Y-72294844D01*
X174975126Y-72006421D01*
X174900116Y-71824882D01*
X174974874Y-71644844D01*
X174975070Y-71420858D01*
X175105154Y-71474874D01*
X175393577Y-71475126D01*
X175660141Y-71364984D01*
X175864265Y-71161216D01*
X175974872Y-70894844D01*
X175975091Y-70643579D01*
X193874874Y-70643579D01*
X193939529Y-70800056D01*
X193875126Y-70955156D01*
X193874874Y-71243579D01*
X193985016Y-71510143D01*
X194174912Y-71700371D01*
X194174874Y-71743579D01*
X194191269Y-71783258D01*
X194185733Y-71788784D01*
X194075126Y-72055156D01*
X194074912Y-72299760D01*
X193985733Y-72388784D01*
X193875126Y-72655156D01*
X193874874Y-72943579D01*
X193939529Y-73100056D01*
X193875126Y-73255156D01*
X193874874Y-73543579D01*
X193985016Y-73810143D01*
X194188784Y-74014267D01*
X194455156Y-74124874D01*
X194743579Y-74125126D01*
X195010143Y-74014984D01*
X195214267Y-73811216D01*
X195324874Y-73544844D01*
X195325126Y-73256421D01*
X195260471Y-73099944D01*
X195324874Y-72944844D01*
X195325088Y-72700240D01*
X195414267Y-72611216D01*
X195524874Y-72344844D01*
X195525126Y-72056421D01*
X195508731Y-72016742D01*
X195514267Y-72011216D01*
X195624874Y-71744844D01*
X195625126Y-71456421D01*
X195514984Y-71189857D01*
X195325088Y-70999629D01*
X195325126Y-70956421D01*
X195260471Y-70799944D01*
X195324874Y-70644844D01*
X195325126Y-70356421D01*
X195214984Y-70089857D01*
X195011216Y-69885733D01*
X194744844Y-69775126D01*
X194456421Y-69774874D01*
X194189857Y-69885016D01*
X193985733Y-70088784D01*
X193875126Y-70355156D01*
X193874874Y-70643579D01*
X175975091Y-70643579D01*
X175975124Y-70606421D01*
X175864982Y-70339857D01*
X175661214Y-70135733D01*
X175394842Y-70025126D01*
X175106419Y-70024874D01*
X174839855Y-70135016D01*
X174635731Y-70338784D01*
X174525124Y-70605156D01*
X174524928Y-70829142D01*
X174394844Y-70775126D01*
X174106421Y-70774874D01*
X173924882Y-70849884D01*
X173744844Y-70775126D01*
X173456421Y-70774874D01*
X173274882Y-70849884D01*
X173094844Y-70775126D01*
X172806421Y-70774874D01*
X172624882Y-70849884D01*
X172444844Y-70775126D01*
X172156421Y-70774874D01*
X171889857Y-70885016D01*
X171685733Y-71088784D01*
X171575126Y-71355156D01*
X171574874Y-71643579D01*
X170281670Y-71643579D01*
X170414267Y-71511214D01*
X170524874Y-71244842D01*
X170525126Y-70956419D01*
X170414984Y-70689855D01*
X170211216Y-70485731D01*
X169944844Y-70375124D01*
X169656421Y-70374872D01*
X169389857Y-70485014D01*
X169185733Y-70688782D01*
X169075126Y-70955154D01*
X169074874Y-71243577D01*
X164709693Y-71243577D01*
X164544844Y-71175126D01*
X164256421Y-71174874D01*
X163989857Y-71285016D01*
X163785733Y-71488784D01*
X163675126Y-71755156D01*
X163674874Y-72043579D01*
X155983086Y-72043579D01*
X155983184Y-71931421D01*
X155873042Y-71664857D01*
X155669274Y-71460733D01*
X155402902Y-71350126D01*
X155114479Y-71349874D01*
X154847915Y-71460016D01*
X154643791Y-71663784D01*
X154533184Y-71930156D01*
X154532932Y-72218579D01*
X153494254Y-72218579D01*
X153524872Y-72144844D01*
X153525124Y-71856421D01*
X153414982Y-71589857D01*
X153211214Y-71385733D01*
X152944842Y-71275126D01*
X152656419Y-71274874D01*
X152389855Y-71385016D01*
X152185731Y-71588784D01*
X152075124Y-71855156D01*
X152074872Y-72143579D01*
X152170518Y-72375061D01*
X151956421Y-72374874D01*
X151918741Y-72390443D01*
X152024874Y-72134845D01*
X152025126Y-71846422D01*
X151914984Y-71579858D01*
X151760449Y-71425053D01*
X151843579Y-71425126D01*
X152110143Y-71314984D01*
X152314267Y-71111216D01*
X152424874Y-70844844D01*
X152425126Y-70556421D01*
X152314984Y-70289857D01*
X152111216Y-70085733D01*
X152067499Y-70067580D01*
X154934874Y-70067580D01*
X155045016Y-70334144D01*
X155248784Y-70538268D01*
X155515156Y-70648875D01*
X155803579Y-70649127D01*
X156070143Y-70538985D01*
X156274267Y-70335217D01*
X156291556Y-70293579D01*
X158824874Y-70293579D01*
X158935016Y-70560143D01*
X159138784Y-70764267D01*
X159405156Y-70874874D01*
X159693579Y-70875126D01*
X159950304Y-70769049D01*
X160205159Y-70874874D01*
X160493582Y-70875126D01*
X160760146Y-70764984D01*
X160964270Y-70561216D01*
X160971593Y-70543579D01*
X165774874Y-70543579D01*
X165885016Y-70810143D01*
X166088784Y-71014267D01*
X166355156Y-71124874D01*
X166643579Y-71125126D01*
X166910143Y-71014984D01*
X166949978Y-70975218D01*
X167088784Y-71114267D01*
X167355156Y-71224874D01*
X167643579Y-71225126D01*
X167910143Y-71114984D01*
X168114267Y-70911216D01*
X168224874Y-70644844D01*
X168225126Y-70356421D01*
X168114984Y-70089857D01*
X167911216Y-69885733D01*
X167644844Y-69775126D01*
X167356421Y-69774874D01*
X167089857Y-69885016D01*
X167050022Y-69924782D01*
X166911216Y-69785733D01*
X166644844Y-69675126D01*
X166356421Y-69674874D01*
X166089857Y-69785016D01*
X165885733Y-69988784D01*
X165775126Y-70255156D01*
X165774874Y-70543579D01*
X160971593Y-70543579D01*
X161074877Y-70294844D01*
X161075129Y-70006421D01*
X160964987Y-69739857D01*
X160761219Y-69535733D01*
X160494847Y-69425126D01*
X160206424Y-69424874D01*
X159949699Y-69530951D01*
X159694844Y-69425126D01*
X159406421Y-69424874D01*
X159139857Y-69535016D01*
X158935733Y-69738784D01*
X158825126Y-70005156D01*
X158824874Y-70293579D01*
X156291556Y-70293579D01*
X156384874Y-70068845D01*
X156385126Y-69780422D01*
X156274984Y-69513858D01*
X156071216Y-69309734D01*
X155804844Y-69199127D01*
X155516421Y-69198875D01*
X155249857Y-69309017D01*
X155045733Y-69512785D01*
X154935126Y-69779157D01*
X154934874Y-70067580D01*
X152067499Y-70067580D01*
X151844844Y-69975126D01*
X151556421Y-69974874D01*
X151289857Y-70085016D01*
X151085733Y-70288784D01*
X150975126Y-70555156D01*
X150974874Y-70843579D01*
X151085016Y-71110143D01*
X151239551Y-71264948D01*
X151156421Y-71264875D01*
X150889857Y-71375017D01*
X150685733Y-71578785D01*
X150575126Y-71845157D01*
X150574911Y-72091674D01*
X149725000Y-72091674D01*
X149567504Y-72121309D01*
X149422854Y-72214389D01*
X149325814Y-72356412D01*
X149291674Y-72525000D01*
X149291674Y-72879833D01*
X149202729Y-72664571D01*
X148837353Y-72298556D01*
X148359721Y-72100226D01*
X147842548Y-72099774D01*
X147364571Y-72297271D01*
X146998556Y-72662647D01*
X146849879Y-73020700D01*
X146702729Y-72664571D01*
X146337353Y-72298556D01*
X145859721Y-72100226D01*
X145342548Y-72099774D01*
X144864571Y-72297271D01*
X144498556Y-72662647D01*
X144349879Y-73020700D01*
X144202729Y-72664571D01*
X143837353Y-72298556D01*
X143359721Y-72100226D01*
X142842548Y-72099774D01*
X142364571Y-72297271D01*
X141998556Y-72662647D01*
X141800226Y-73140279D01*
X141799774Y-73657452D01*
X140500000Y-73657452D01*
X140500000Y-70343579D01*
X148274874Y-70343579D01*
X148385016Y-70610143D01*
X148588784Y-70814267D01*
X148855156Y-70924874D01*
X149143579Y-70925126D01*
X149410143Y-70814984D01*
X149614267Y-70611216D01*
X149724874Y-70344844D01*
X149725126Y-70056421D01*
X149631190Y-69829078D01*
X149749257Y-69711216D01*
X149859864Y-69444844D01*
X149860116Y-69156421D01*
X149749974Y-68889857D01*
X149546206Y-68685733D01*
X149279834Y-68575126D01*
X148991411Y-68574874D01*
X148724847Y-68685016D01*
X148520723Y-68888784D01*
X148410116Y-69155156D01*
X148409864Y-69443579D01*
X148503800Y-69670922D01*
X148385733Y-69788784D01*
X148275126Y-70055156D01*
X148274874Y-70343579D01*
X140500000Y-70343579D01*
X140500000Y-66857452D01*
X141799774Y-66857452D01*
X141997271Y-67335429D01*
X142362647Y-67701444D01*
X142840279Y-67899774D01*
X143357452Y-67900226D01*
X143835429Y-67702729D01*
X144201444Y-67337353D01*
X144350121Y-66979300D01*
X144497271Y-67335429D01*
X144862647Y-67701444D01*
X145340279Y-67899774D01*
X145857452Y-67900226D01*
X146335429Y-67702729D01*
X146701444Y-67337353D01*
X146850121Y-66979300D01*
X146997271Y-67335429D01*
X147362647Y-67701444D01*
X147840279Y-67899774D01*
X148357452Y-67900226D01*
X148835429Y-67702729D01*
X149201444Y-67337353D01*
X149291674Y-67120055D01*
X149291674Y-67475000D01*
X149321309Y-67632496D01*
X149414389Y-67777146D01*
X149556412Y-67874186D01*
X149725000Y-67908326D01*
X151475000Y-67908326D01*
X151632496Y-67878691D01*
X151777146Y-67785611D01*
X151874186Y-67643588D01*
X151908326Y-67475000D01*
X151908326Y-66643579D01*
X154074874Y-66643579D01*
X154185016Y-66910143D01*
X154388784Y-67114267D01*
X154655156Y-67224874D01*
X154943579Y-67225126D01*
X155210143Y-67114984D01*
X155414267Y-66911216D01*
X155524874Y-66644844D01*
X155525126Y-66356421D01*
X155414984Y-66089857D01*
X155211216Y-65885733D01*
X154944844Y-65775126D01*
X154656421Y-65774874D01*
X154389857Y-65885016D01*
X154185733Y-66088784D01*
X154075126Y-66355156D01*
X154074874Y-66643579D01*
X151908326Y-66643579D01*
X151908326Y-65725000D01*
X151878691Y-65567504D01*
X151785611Y-65422854D01*
X151643588Y-65325814D01*
X151475000Y-65291674D01*
X149725000Y-65291674D01*
X149567504Y-65321309D01*
X149422854Y-65414389D01*
X149325814Y-65556412D01*
X149291674Y-65725000D01*
X149291674Y-66079833D01*
X149202729Y-65864571D01*
X148837353Y-65498556D01*
X148359721Y-65300226D01*
X147842548Y-65299774D01*
X147364571Y-65497271D01*
X146998556Y-65862647D01*
X146849879Y-66220700D01*
X146702729Y-65864571D01*
X146337353Y-65498556D01*
X145859721Y-65300226D01*
X145342548Y-65299774D01*
X144864571Y-65497271D01*
X144498556Y-65862647D01*
X144349879Y-66220700D01*
X144202729Y-65864571D01*
X143837353Y-65498556D01*
X143359721Y-65300226D01*
X142842548Y-65299774D01*
X142364571Y-65497271D01*
X141998556Y-65862647D01*
X141800226Y-66340279D01*
X141799774Y-66857452D01*
X140500000Y-66857452D01*
X140500000Y-58043579D01*
X143574874Y-58043579D01*
X143685016Y-58310143D01*
X143888784Y-58514267D01*
X144155156Y-58624874D01*
X144443579Y-58625126D01*
X144710143Y-58514984D01*
X144914267Y-58311216D01*
X145024874Y-58044844D01*
X145024875Y-58043579D01*
X147074874Y-58043579D01*
X147185016Y-58310143D01*
X147388784Y-58514267D01*
X147425677Y-58529586D01*
X147416699Y-58551208D01*
X147416447Y-58839631D01*
X147526589Y-59106195D01*
X147730357Y-59310319D01*
X147996729Y-59420926D01*
X148285152Y-59421178D01*
X148497687Y-59333360D01*
X148528538Y-59364265D01*
X148794910Y-59474872D01*
X149083333Y-59475124D01*
X149349897Y-59364982D01*
X149554021Y-59161214D01*
X149664628Y-58894842D01*
X149664880Y-58606419D01*
X149554738Y-58339855D01*
X149350970Y-58135731D01*
X149129043Y-58043579D01*
X151774874Y-58043579D01*
X151885016Y-58310143D01*
X151921996Y-58347188D01*
X151814880Y-58605154D01*
X151814628Y-58893577D01*
X151924770Y-59160141D01*
X152128538Y-59364265D01*
X152394910Y-59474872D01*
X152683333Y-59475124D01*
X152949897Y-59364982D01*
X153154021Y-59161214D01*
X153264628Y-58894842D01*
X153264880Y-58606419D01*
X153154738Y-58339855D01*
X153117758Y-58302810D01*
X153224874Y-58044844D01*
X153224875Y-58043579D01*
X155374874Y-58043579D01*
X155485016Y-58310143D01*
X155521996Y-58347188D01*
X155414880Y-58605154D01*
X155414628Y-58893577D01*
X155524770Y-59160141D01*
X155728538Y-59364265D01*
X155994910Y-59474872D01*
X156283333Y-59475124D01*
X156549897Y-59364982D01*
X156754021Y-59161214D01*
X156864628Y-58894842D01*
X156864880Y-58606419D01*
X156754738Y-58339855D01*
X156717758Y-58302810D01*
X156824874Y-58044844D01*
X156824875Y-58043579D01*
X158974874Y-58043579D01*
X159085016Y-58310143D01*
X159121997Y-58347188D01*
X159014880Y-58605155D01*
X159014628Y-58893578D01*
X159124770Y-59160142D01*
X159328538Y-59364266D01*
X159594910Y-59474873D01*
X159883333Y-59475125D01*
X160149897Y-59364983D01*
X160354021Y-59161215D01*
X160464628Y-58894843D01*
X160464880Y-58606420D01*
X160354738Y-58339856D01*
X160317757Y-58302811D01*
X160424874Y-58044844D01*
X160424875Y-58043579D01*
X162574874Y-58043579D01*
X162685016Y-58310143D01*
X162721997Y-58347188D01*
X162614880Y-58605155D01*
X162614628Y-58893578D01*
X162724770Y-59160142D01*
X162928538Y-59364266D01*
X163194910Y-59474873D01*
X163483333Y-59475125D01*
X163749897Y-59364983D01*
X163954021Y-59161215D01*
X164064628Y-58894843D01*
X164064880Y-58606420D01*
X163954738Y-58339856D01*
X163917757Y-58302811D01*
X164024874Y-58044844D01*
X164024875Y-58043579D01*
X166174874Y-58043579D01*
X166285016Y-58310143D01*
X166321997Y-58347188D01*
X166214880Y-58605155D01*
X166214628Y-58893578D01*
X166324770Y-59160142D01*
X166528538Y-59364266D01*
X166794910Y-59474873D01*
X167083333Y-59475125D01*
X167349897Y-59364983D01*
X167554021Y-59161215D01*
X167664628Y-58894843D01*
X167664880Y-58606420D01*
X167554738Y-58339856D01*
X167517757Y-58302811D01*
X167613184Y-58072995D01*
X169753316Y-58072995D01*
X169863458Y-58339559D01*
X169907037Y-58383214D01*
X169814880Y-58605154D01*
X169814628Y-58893577D01*
X169924770Y-59160141D01*
X170128538Y-59364265D01*
X170394910Y-59474872D01*
X170683333Y-59475124D01*
X170949897Y-59364982D01*
X171154021Y-59161214D01*
X171264628Y-58894842D01*
X171264880Y-58606419D01*
X171154738Y-58339855D01*
X171111159Y-58296200D01*
X171203316Y-58074260D01*
X171203342Y-58043579D01*
X173374874Y-58043579D01*
X173485016Y-58310143D01*
X173521996Y-58347188D01*
X173414880Y-58605154D01*
X173414628Y-58893577D01*
X173524770Y-59160141D01*
X173728538Y-59364265D01*
X173994910Y-59474872D01*
X174283333Y-59475124D01*
X174549897Y-59364982D01*
X174754021Y-59161214D01*
X174864628Y-58894842D01*
X174864880Y-58606419D01*
X174754738Y-58339855D01*
X174717758Y-58302810D01*
X174824874Y-58044844D01*
X174824875Y-58043579D01*
X176974874Y-58043579D01*
X177085016Y-58310143D01*
X177121996Y-58347188D01*
X177014880Y-58605154D01*
X177014628Y-58893577D01*
X177124770Y-59160141D01*
X177328538Y-59364265D01*
X177594910Y-59474872D01*
X177883333Y-59475124D01*
X178149897Y-59364982D01*
X178354021Y-59161214D01*
X178464628Y-58894842D01*
X178464880Y-58606419D01*
X178354738Y-58339855D01*
X178317758Y-58302810D01*
X178424874Y-58044844D01*
X178424875Y-58043579D01*
X180574874Y-58043579D01*
X180685016Y-58310143D01*
X180721997Y-58347188D01*
X180614880Y-58605155D01*
X180614628Y-58893578D01*
X180724770Y-59160142D01*
X180928538Y-59364266D01*
X181194910Y-59474873D01*
X181483333Y-59475125D01*
X181749897Y-59364983D01*
X181954021Y-59161215D01*
X182064628Y-58894843D01*
X182064880Y-58606420D01*
X181954738Y-58339856D01*
X181917757Y-58302811D01*
X182024874Y-58044844D01*
X182025126Y-57756421D01*
X181914984Y-57489857D01*
X181711216Y-57285733D01*
X181609698Y-57243579D01*
X181874874Y-57243579D01*
X181985016Y-57510143D01*
X182188784Y-57714267D01*
X182455156Y-57824874D01*
X182743579Y-57825126D01*
X183010143Y-57714984D01*
X183214267Y-57511216D01*
X183324874Y-57244844D01*
X183325126Y-56956421D01*
X183214984Y-56689857D01*
X183011216Y-56485733D01*
X182744844Y-56375126D01*
X182456421Y-56374874D01*
X182189857Y-56485016D01*
X181985733Y-56688784D01*
X181875126Y-56955156D01*
X181874874Y-57243579D01*
X181609698Y-57243579D01*
X181444844Y-57175126D01*
X181156421Y-57174874D01*
X180889857Y-57285016D01*
X180685733Y-57488784D01*
X180575126Y-57755156D01*
X180574874Y-58043579D01*
X178424875Y-58043579D01*
X178425126Y-57756421D01*
X178314984Y-57489857D01*
X178111216Y-57285733D01*
X178009698Y-57243579D01*
X178274874Y-57243579D01*
X178385016Y-57510143D01*
X178588784Y-57714267D01*
X178855156Y-57824874D01*
X179143579Y-57825126D01*
X179410143Y-57714984D01*
X179614267Y-57511216D01*
X179724874Y-57244844D01*
X179725126Y-56956421D01*
X179614984Y-56689857D01*
X179411216Y-56485733D01*
X179144844Y-56375126D01*
X178856421Y-56374874D01*
X178589857Y-56485016D01*
X178385733Y-56688784D01*
X178275126Y-56955156D01*
X178274874Y-57243579D01*
X178009698Y-57243579D01*
X177844844Y-57175126D01*
X177556421Y-57174874D01*
X177289857Y-57285016D01*
X177085733Y-57488784D01*
X176975126Y-57755156D01*
X176974874Y-58043579D01*
X174824875Y-58043579D01*
X174825126Y-57756421D01*
X174714984Y-57489857D01*
X174511216Y-57285733D01*
X174409698Y-57243579D01*
X174674874Y-57243579D01*
X174785016Y-57510143D01*
X174988784Y-57714267D01*
X175255156Y-57824874D01*
X175543579Y-57825126D01*
X175810143Y-57714984D01*
X176014267Y-57511216D01*
X176124874Y-57244844D01*
X176125126Y-56956421D01*
X176014984Y-56689857D01*
X175811216Y-56485733D01*
X175544844Y-56375126D01*
X175256421Y-56374874D01*
X174989857Y-56485016D01*
X174785733Y-56688784D01*
X174675126Y-56955156D01*
X174674874Y-57243579D01*
X174409698Y-57243579D01*
X174244844Y-57175126D01*
X173956421Y-57174874D01*
X173689857Y-57285016D01*
X173485733Y-57488784D01*
X173375126Y-57755156D01*
X173374874Y-58043579D01*
X171203342Y-58043579D01*
X171203568Y-57785837D01*
X171093426Y-57519273D01*
X170889658Y-57315149D01*
X170717298Y-57243579D01*
X171074874Y-57243579D01*
X171185016Y-57510143D01*
X171388784Y-57714267D01*
X171655156Y-57824874D01*
X171943579Y-57825126D01*
X172210143Y-57714984D01*
X172414267Y-57511216D01*
X172524874Y-57244844D01*
X172525126Y-56956421D01*
X172414984Y-56689857D01*
X172211216Y-56485733D01*
X171944844Y-56375126D01*
X171656421Y-56374874D01*
X171389857Y-56485016D01*
X171185733Y-56688784D01*
X171075126Y-56955156D01*
X171074874Y-57243579D01*
X170717298Y-57243579D01*
X170623286Y-57204542D01*
X170334863Y-57204290D01*
X170068299Y-57314432D01*
X169864175Y-57518200D01*
X169753568Y-57784572D01*
X169753316Y-58072995D01*
X167613184Y-58072995D01*
X167624874Y-58044844D01*
X167625126Y-57756421D01*
X167514984Y-57489857D01*
X167311216Y-57285733D01*
X167209698Y-57243579D01*
X167474874Y-57243579D01*
X167585016Y-57510143D01*
X167788784Y-57714267D01*
X168055156Y-57824874D01*
X168343579Y-57825126D01*
X168610143Y-57714984D01*
X168814267Y-57511216D01*
X168924874Y-57244844D01*
X168925126Y-56956421D01*
X168814984Y-56689857D01*
X168611216Y-56485733D01*
X168344844Y-56375126D01*
X168056421Y-56374874D01*
X167789857Y-56485016D01*
X167585733Y-56688784D01*
X167475126Y-56955156D01*
X167474874Y-57243579D01*
X167209698Y-57243579D01*
X167044844Y-57175126D01*
X166756421Y-57174874D01*
X166489857Y-57285016D01*
X166285733Y-57488784D01*
X166175126Y-57755156D01*
X166174874Y-58043579D01*
X164024875Y-58043579D01*
X164025126Y-57756421D01*
X163914984Y-57489857D01*
X163711216Y-57285733D01*
X163609698Y-57243579D01*
X163874874Y-57243579D01*
X163985016Y-57510143D01*
X164188784Y-57714267D01*
X164455156Y-57824874D01*
X164743579Y-57825126D01*
X165010143Y-57714984D01*
X165214267Y-57511216D01*
X165324874Y-57244844D01*
X165325126Y-56956421D01*
X165214984Y-56689857D01*
X165011216Y-56485733D01*
X164744844Y-56375126D01*
X164456421Y-56374874D01*
X164189857Y-56485016D01*
X163985733Y-56688784D01*
X163875126Y-56955156D01*
X163874874Y-57243579D01*
X163609698Y-57243579D01*
X163444844Y-57175126D01*
X163156421Y-57174874D01*
X162889857Y-57285016D01*
X162685733Y-57488784D01*
X162575126Y-57755156D01*
X162574874Y-58043579D01*
X160424875Y-58043579D01*
X160425126Y-57756421D01*
X160314984Y-57489857D01*
X160111216Y-57285733D01*
X160009698Y-57243579D01*
X160274874Y-57243579D01*
X160385016Y-57510143D01*
X160588784Y-57714267D01*
X160855156Y-57824874D01*
X161143579Y-57825126D01*
X161410143Y-57714984D01*
X161614267Y-57511216D01*
X161724874Y-57244844D01*
X161725126Y-56956421D01*
X161614984Y-56689857D01*
X161411216Y-56485733D01*
X161144844Y-56375126D01*
X160856421Y-56374874D01*
X160589857Y-56485016D01*
X160385733Y-56688784D01*
X160275126Y-56955156D01*
X160274874Y-57243579D01*
X160009698Y-57243579D01*
X159844844Y-57175126D01*
X159556421Y-57174874D01*
X159289857Y-57285016D01*
X159085733Y-57488784D01*
X158975126Y-57755156D01*
X158974874Y-58043579D01*
X156824875Y-58043579D01*
X156825126Y-57756421D01*
X156714984Y-57489857D01*
X156511216Y-57285733D01*
X156409698Y-57243579D01*
X156649874Y-57243579D01*
X156760016Y-57510143D01*
X156963784Y-57714267D01*
X157230156Y-57824874D01*
X157518579Y-57825126D01*
X157785143Y-57714984D01*
X157989267Y-57511216D01*
X158099874Y-57244844D01*
X158100126Y-56956421D01*
X157989984Y-56689857D01*
X157786216Y-56485733D01*
X157519844Y-56375126D01*
X157231421Y-56374874D01*
X156964857Y-56485016D01*
X156760733Y-56688784D01*
X156650126Y-56955156D01*
X156649874Y-57243579D01*
X156409698Y-57243579D01*
X156244844Y-57175126D01*
X155956421Y-57174874D01*
X155689857Y-57285016D01*
X155485733Y-57488784D01*
X155375126Y-57755156D01*
X155374874Y-58043579D01*
X153224875Y-58043579D01*
X153225126Y-57756421D01*
X153114984Y-57489857D01*
X152911216Y-57285733D01*
X152809698Y-57243579D01*
X153074874Y-57243579D01*
X153185016Y-57510143D01*
X153388784Y-57714267D01*
X153655156Y-57824874D01*
X153943579Y-57825126D01*
X154210143Y-57714984D01*
X154414267Y-57511216D01*
X154524874Y-57244844D01*
X154525126Y-56956421D01*
X154414984Y-56689857D01*
X154211216Y-56485733D01*
X153944844Y-56375126D01*
X153656421Y-56374874D01*
X153389857Y-56485016D01*
X153185733Y-56688784D01*
X153075126Y-56955156D01*
X153074874Y-57243579D01*
X152809698Y-57243579D01*
X152644844Y-57175126D01*
X152356421Y-57174874D01*
X152089857Y-57285016D01*
X151885733Y-57488784D01*
X151775126Y-57755156D01*
X151774874Y-58043579D01*
X149129043Y-58043579D01*
X149084598Y-58025124D01*
X148796175Y-58024872D01*
X148583640Y-58112690D01*
X148552789Y-58081785D01*
X148515896Y-58066466D01*
X148524874Y-58044844D01*
X148525126Y-57756421D01*
X148414984Y-57489857D01*
X148211216Y-57285733D01*
X148109698Y-57243579D01*
X149474874Y-57243579D01*
X149585016Y-57510143D01*
X149788784Y-57714267D01*
X150055156Y-57824874D01*
X150343579Y-57825126D01*
X150610143Y-57714984D01*
X150814267Y-57511216D01*
X150924874Y-57244844D01*
X150925126Y-56956421D01*
X150814984Y-56689857D01*
X150611216Y-56485733D01*
X150344844Y-56375126D01*
X150056421Y-56374874D01*
X149789857Y-56485016D01*
X149585733Y-56688784D01*
X149475126Y-56955156D01*
X149474874Y-57243579D01*
X148109698Y-57243579D01*
X147944844Y-57175126D01*
X147656421Y-57174874D01*
X147389857Y-57285016D01*
X147185733Y-57488784D01*
X147075126Y-57755156D01*
X147074874Y-58043579D01*
X145024875Y-58043579D01*
X145025126Y-57756421D01*
X144914984Y-57489857D01*
X144711216Y-57285733D01*
X144444844Y-57175126D01*
X144156421Y-57174874D01*
X143889857Y-57285016D01*
X143685733Y-57488784D01*
X143575126Y-57755156D01*
X143574874Y-58043579D01*
X140500000Y-58043579D01*
X140500000Y-55208300D01*
X140594733Y-55437572D01*
X141557360Y-56401881D01*
X142815736Y-56924404D01*
X144178286Y-56925593D01*
X145437572Y-56405267D01*
X146100416Y-55743579D01*
X150674874Y-55743579D01*
X150785016Y-56010143D01*
X150988784Y-56214267D01*
X151255156Y-56324874D01*
X151543579Y-56325126D01*
X151810143Y-56214984D01*
X152014267Y-56011216D01*
X152124874Y-55744844D01*
X152124875Y-55743579D01*
X154274874Y-55743579D01*
X154385016Y-56010143D01*
X154588784Y-56214267D01*
X154855156Y-56324874D01*
X155143579Y-56325126D01*
X155410143Y-56214984D01*
X155614267Y-56011216D01*
X155724874Y-55744844D01*
X155724875Y-55743579D01*
X157874874Y-55743579D01*
X157985016Y-56010143D01*
X158188784Y-56214267D01*
X158455156Y-56324874D01*
X158743579Y-56325126D01*
X159010143Y-56214984D01*
X159214267Y-56011216D01*
X159324874Y-55744844D01*
X159324875Y-55743579D01*
X161474874Y-55743579D01*
X161585016Y-56010143D01*
X161788784Y-56214267D01*
X162055156Y-56324874D01*
X162343579Y-56325126D01*
X162610143Y-56214984D01*
X162814267Y-56011216D01*
X162924874Y-55744844D01*
X162924875Y-55743579D01*
X165074874Y-55743579D01*
X165185016Y-56010143D01*
X165388784Y-56214267D01*
X165655156Y-56324874D01*
X165943579Y-56325126D01*
X166210143Y-56214984D01*
X166414267Y-56011216D01*
X166524874Y-55744844D01*
X166524875Y-55743579D01*
X168674874Y-55743579D01*
X168785016Y-56010143D01*
X168988784Y-56214267D01*
X169255156Y-56324874D01*
X169543579Y-56325126D01*
X169810143Y-56214984D01*
X170014267Y-56011216D01*
X170124874Y-55744844D01*
X170124875Y-55743579D01*
X172274874Y-55743579D01*
X172385016Y-56010143D01*
X172588784Y-56214267D01*
X172855156Y-56324874D01*
X173143579Y-56325126D01*
X173410143Y-56214984D01*
X173614267Y-56011216D01*
X173724874Y-55744844D01*
X173724875Y-55743579D01*
X175774874Y-55743579D01*
X175885016Y-56010143D01*
X176088784Y-56214267D01*
X176355156Y-56324874D01*
X176643579Y-56325126D01*
X176910143Y-56214984D01*
X177114267Y-56011216D01*
X177224874Y-55744844D01*
X177224875Y-55743579D01*
X179474874Y-55743579D01*
X179585016Y-56010143D01*
X179788784Y-56214267D01*
X180055156Y-56324874D01*
X180343579Y-56325126D01*
X180610143Y-56214984D01*
X180814267Y-56011216D01*
X180924874Y-55744844D01*
X180925126Y-55456421D01*
X180814984Y-55189857D01*
X180611216Y-54985733D01*
X180344844Y-54875126D01*
X180056421Y-54874874D01*
X179789857Y-54985016D01*
X179585733Y-55188784D01*
X179475126Y-55455156D01*
X179474874Y-55743579D01*
X177224875Y-55743579D01*
X177225126Y-55456421D01*
X177114984Y-55189857D01*
X176911216Y-54985733D01*
X176644844Y-54875126D01*
X176356421Y-54874874D01*
X176089857Y-54985016D01*
X175885733Y-55188784D01*
X175775126Y-55455156D01*
X175774874Y-55743579D01*
X173724875Y-55743579D01*
X173725126Y-55456421D01*
X173614984Y-55189857D01*
X173411216Y-54985733D01*
X173144844Y-54875126D01*
X172856421Y-54874874D01*
X172589857Y-54985016D01*
X172385733Y-55188784D01*
X172275126Y-55455156D01*
X172274874Y-55743579D01*
X170124875Y-55743579D01*
X170125126Y-55456421D01*
X170014984Y-55189857D01*
X169811216Y-54985733D01*
X169544844Y-54875126D01*
X169256421Y-54874874D01*
X168989857Y-54985016D01*
X168785733Y-55188784D01*
X168675126Y-55455156D01*
X168674874Y-55743579D01*
X166524875Y-55743579D01*
X166525126Y-55456421D01*
X166414984Y-55189857D01*
X166211216Y-54985733D01*
X165944844Y-54875126D01*
X165656421Y-54874874D01*
X165389857Y-54985016D01*
X165185733Y-55188784D01*
X165075126Y-55455156D01*
X165074874Y-55743579D01*
X162924875Y-55743579D01*
X162925126Y-55456421D01*
X162814984Y-55189857D01*
X162611216Y-54985733D01*
X162344844Y-54875126D01*
X162056421Y-54874874D01*
X161789857Y-54985016D01*
X161585733Y-55188784D01*
X161475126Y-55455156D01*
X161474874Y-55743579D01*
X159324875Y-55743579D01*
X159325126Y-55456421D01*
X159214984Y-55189857D01*
X159011216Y-54985733D01*
X158744844Y-54875126D01*
X158456421Y-54874874D01*
X158189857Y-54985016D01*
X157985733Y-55188784D01*
X157875126Y-55455156D01*
X157874874Y-55743579D01*
X155724875Y-55743579D01*
X155725126Y-55456421D01*
X155614984Y-55189857D01*
X155411216Y-54985733D01*
X155144844Y-54875126D01*
X154856421Y-54874874D01*
X154589857Y-54985016D01*
X154385733Y-55188784D01*
X154275126Y-55455156D01*
X154274874Y-55743579D01*
X152124875Y-55743579D01*
X152125126Y-55456421D01*
X152014984Y-55189857D01*
X151811216Y-54985733D01*
X151544844Y-54875126D01*
X151256421Y-54874874D01*
X150989857Y-54985016D01*
X150785733Y-55188784D01*
X150675126Y-55455156D01*
X150674874Y-55743579D01*
X146100416Y-55743579D01*
X146401881Y-55442640D01*
X146924404Y-54184264D01*
X146925387Y-53057452D01*
X147899774Y-53057452D01*
X148097271Y-53535429D01*
X148462647Y-53901444D01*
X148940279Y-54099774D01*
X149457452Y-54100226D01*
X149935429Y-53902729D01*
X150301444Y-53537353D01*
X150450121Y-53179300D01*
X150597271Y-53535429D01*
X150962647Y-53901444D01*
X151440279Y-54099774D01*
X151957452Y-54100226D01*
X152435429Y-53902729D01*
X152801444Y-53537353D01*
X152950121Y-53179300D01*
X153097271Y-53535429D01*
X153462647Y-53901444D01*
X153940279Y-54099774D01*
X154457452Y-54100226D01*
X154935429Y-53902729D01*
X155301444Y-53537353D01*
X155450121Y-53179300D01*
X155597271Y-53535429D01*
X155962647Y-53901444D01*
X156440279Y-54099774D01*
X156957452Y-54100226D01*
X157435429Y-53902729D01*
X157801444Y-53537353D01*
X157950121Y-53179300D01*
X158097271Y-53535429D01*
X158462647Y-53901444D01*
X158940279Y-54099774D01*
X159457452Y-54100226D01*
X159935429Y-53902729D01*
X160301444Y-53537353D01*
X160450121Y-53179300D01*
X160597271Y-53535429D01*
X160962647Y-53901444D01*
X161440279Y-54099774D01*
X161957452Y-54100226D01*
X162435429Y-53902729D01*
X162801444Y-53537353D01*
X162950121Y-53179300D01*
X163097271Y-53535429D01*
X163462647Y-53901444D01*
X163940279Y-54099774D01*
X164457452Y-54100226D01*
X164935429Y-53902729D01*
X165301444Y-53537353D01*
X165450121Y-53179300D01*
X165597271Y-53535429D01*
X165962647Y-53901444D01*
X166440279Y-54099774D01*
X166957452Y-54100226D01*
X167435429Y-53902729D01*
X167801444Y-53537353D01*
X167950121Y-53179300D01*
X168097271Y-53535429D01*
X168462647Y-53901444D01*
X168940279Y-54099774D01*
X169457452Y-54100226D01*
X169935429Y-53902729D01*
X170301444Y-53537353D01*
X170450121Y-53179300D01*
X170597271Y-53535429D01*
X170962647Y-53901444D01*
X171440279Y-54099774D01*
X171957452Y-54100226D01*
X172435429Y-53902729D01*
X172801444Y-53537353D01*
X172950121Y-53179300D01*
X173097271Y-53535429D01*
X173462647Y-53901444D01*
X173940279Y-54099774D01*
X174457452Y-54100226D01*
X174935429Y-53902729D01*
X175301444Y-53537353D01*
X175450121Y-53179300D01*
X175597271Y-53535429D01*
X175962647Y-53901444D01*
X176440279Y-54099774D01*
X176957452Y-54100226D01*
X177435429Y-53902729D01*
X177801444Y-53537353D01*
X177891674Y-53320055D01*
X177891674Y-53675000D01*
X177921309Y-53832496D01*
X178014389Y-53977146D01*
X178156412Y-54074186D01*
X178325000Y-54108326D01*
X180075000Y-54108326D01*
X180232496Y-54078691D01*
X180377146Y-53985611D01*
X180474186Y-53843588D01*
X180508326Y-53675000D01*
X180508326Y-51925000D01*
X180478691Y-51767504D01*
X180385611Y-51622854D01*
X180243588Y-51525814D01*
X180075000Y-51491674D01*
X178325000Y-51491674D01*
X178167504Y-51521309D01*
X178022854Y-51614389D01*
X177925814Y-51756412D01*
X177891674Y-51925000D01*
X177891674Y-52279833D01*
X177802729Y-52064571D01*
X177437353Y-51698556D01*
X176959721Y-51500226D01*
X176442548Y-51499774D01*
X175964571Y-51697271D01*
X175598556Y-52062647D01*
X175449879Y-52420700D01*
X175302729Y-52064571D01*
X174937353Y-51698556D01*
X174459721Y-51500226D01*
X173942548Y-51499774D01*
X173464571Y-51697271D01*
X173098556Y-52062647D01*
X172949879Y-52420700D01*
X172802729Y-52064571D01*
X172437353Y-51698556D01*
X171959721Y-51500226D01*
X171442548Y-51499774D01*
X170964571Y-51697271D01*
X170598556Y-52062647D01*
X170449879Y-52420700D01*
X170302729Y-52064571D01*
X169937353Y-51698556D01*
X169459721Y-51500226D01*
X168942548Y-51499774D01*
X168464571Y-51697271D01*
X168098556Y-52062647D01*
X167949879Y-52420700D01*
X167802729Y-52064571D01*
X167437353Y-51698556D01*
X166959721Y-51500226D01*
X166442548Y-51499774D01*
X165964571Y-51697271D01*
X165598556Y-52062647D01*
X165449879Y-52420700D01*
X165302729Y-52064571D01*
X164937353Y-51698556D01*
X164459721Y-51500226D01*
X163942548Y-51499774D01*
X163464571Y-51697271D01*
X163098556Y-52062647D01*
X162949879Y-52420700D01*
X162802729Y-52064571D01*
X162437353Y-51698556D01*
X161959721Y-51500226D01*
X161442548Y-51499774D01*
X160964571Y-51697271D01*
X160598556Y-52062647D01*
X160449879Y-52420700D01*
X160302729Y-52064571D01*
X159937353Y-51698556D01*
X159459721Y-51500226D01*
X158942548Y-51499774D01*
X158464571Y-51697271D01*
X158098556Y-52062647D01*
X157949879Y-52420700D01*
X157802729Y-52064571D01*
X157437353Y-51698556D01*
X156959721Y-51500226D01*
X156442548Y-51499774D01*
X155964571Y-51697271D01*
X155598556Y-52062647D01*
X155449879Y-52420700D01*
X155302729Y-52064571D01*
X154937353Y-51698556D01*
X154459721Y-51500226D01*
X153942548Y-51499774D01*
X153464571Y-51697271D01*
X153098556Y-52062647D01*
X152949879Y-52420700D01*
X152802729Y-52064571D01*
X152437353Y-51698556D01*
X151959721Y-51500226D01*
X151442548Y-51499774D01*
X150964571Y-51697271D01*
X150598556Y-52062647D01*
X150449879Y-52420700D01*
X150302729Y-52064571D01*
X149937353Y-51698556D01*
X149459721Y-51500226D01*
X148942548Y-51499774D01*
X148464571Y-51697271D01*
X148098556Y-52062647D01*
X147900226Y-52540279D01*
X147899774Y-53057452D01*
X146925387Y-53057452D01*
X146925593Y-52821714D01*
X146405267Y-51562428D01*
X145442640Y-50598119D01*
X145206343Y-50500000D01*
X182933128Y-50500000D01*
X182901007Y-50532065D01*
M02*
