G04 #@! TF.FileFunction,Paste,Top*
%FSLAX46Y46*%
G04 Gerber Fmt 4.6, Leading zero omitted, Abs format (unit mm)*
G04 Created by KiCad (PCBNEW 4.0.7) date 05/06/18 00:27:53*
%MOMM*%
%LPD*%
G01*
G04 APERTURE LIST*
%ADD10C,0.100000*%
%ADD11R,0.640000X0.600000*%
%ADD12R,0.600000X0.640000*%
%ADD13R,1.280000X0.800000*%
%ADD14R,3.200000X2.000000*%
%ADD15R,0.640000X0.640000*%
%ADD16R,0.480000X0.360000*%
%ADD17R,0.880000X0.880000*%
%ADD18R,0.360000X1.104000*%
%ADD19R,1.180000X1.680000*%
%ADD20R,1.900000X1.520000*%
%ADD21R,0.940000X1.520000*%
%ADD22R,0.720000X1.360000*%
%ADD23R,1.360000X0.720000*%
%ADD24R,1.680000X1.360000*%
%ADD25R,0.400000X0.720000*%
%ADD26R,0.720000X0.400000*%
%ADD27R,0.840000X0.520000*%
%ADD28R,3.200000X3.200000*%
%ADD29R,0.200000X1.000000*%
%ADD30R,0.800000X4.400000*%
%ADD31R,1.280000X2.400000*%
%ADD32R,0.480000X0.320000*%
%ADD33R,0.360000X1.200000*%
%ADD34R,2.800000X1.280000*%
%ADD35R,0.800000X2.400000*%
G04 APERTURE END LIST*
D10*
D11*
X160500000Y-68950000D03*
X162000000Y-68950000D03*
D12*
X160750000Y-73450000D03*
X160750000Y-74950000D03*
X162350000Y-73450000D03*
X162350000Y-74950000D03*
D11*
X182450000Y-58400000D03*
X183950000Y-58400000D03*
X178850000Y-58400000D03*
X180350000Y-58400000D03*
X175250000Y-58400000D03*
X176750000Y-58400000D03*
X171650000Y-58400000D03*
X173150000Y-58400000D03*
X168050000Y-58400000D03*
X169550000Y-58400000D03*
X164450000Y-58400000D03*
X165950000Y-58400000D03*
X160850000Y-58400000D03*
X162350000Y-58400000D03*
X157250000Y-58400000D03*
X158750000Y-58400000D03*
X153650000Y-58400000D03*
X155150000Y-58400000D03*
X150050000Y-58400000D03*
X151550000Y-58400000D03*
X146450000Y-60700000D03*
X147950000Y-60700000D03*
X142850000Y-60700000D03*
X144350000Y-60700000D03*
D13*
X182950000Y-64650000D03*
X182950000Y-67650000D03*
D12*
X187500000Y-57050000D03*
X187500000Y-58550000D03*
X190200000Y-58550000D03*
X190200000Y-57050000D03*
X188850000Y-58550000D03*
X188850000Y-57050000D03*
D13*
X168350000Y-71950000D03*
X168350000Y-74950000D03*
D12*
X167450000Y-82800000D03*
X167450000Y-81300000D03*
D14*
X186650000Y-68250000D03*
X194650000Y-68250000D03*
D12*
X168800000Y-81300000D03*
X168800000Y-82800000D03*
D15*
X154400000Y-78200000D03*
X156000000Y-78200000D03*
X177200000Y-64200000D03*
X178800000Y-64200000D03*
D16*
X183650000Y-59900000D03*
X181550000Y-59900000D03*
D15*
X181300000Y-55900000D03*
X181300000Y-57500000D03*
D16*
X180050000Y-59900000D03*
X177950000Y-59900000D03*
D15*
X177700000Y-55900000D03*
X177700000Y-57500000D03*
D16*
X176450000Y-59900000D03*
X174350000Y-59900000D03*
D15*
X174100000Y-55900000D03*
X174100000Y-57500000D03*
D16*
X172850000Y-59900000D03*
X170750000Y-59900000D03*
D15*
X170500000Y-55900000D03*
X170500000Y-57500000D03*
D16*
X169250000Y-59900000D03*
X167150000Y-59900000D03*
D15*
X166900000Y-55900000D03*
X166900000Y-57500000D03*
D16*
X165650000Y-59900000D03*
X163550000Y-59900000D03*
D15*
X163300000Y-55900000D03*
X163300000Y-57500000D03*
D16*
X162050000Y-59900000D03*
X159950000Y-59900000D03*
D15*
X159700000Y-55900000D03*
X159700000Y-57500000D03*
D16*
X158450000Y-59900000D03*
X156350000Y-59900000D03*
D15*
X156100000Y-55900000D03*
X156100000Y-57500000D03*
D16*
X154850000Y-59900000D03*
X152750000Y-59900000D03*
D15*
X152500000Y-55900000D03*
X152500000Y-57500000D03*
D16*
X151250000Y-59900000D03*
X149150000Y-59900000D03*
D15*
X148900000Y-55900000D03*
X148900000Y-57500000D03*
D16*
X147650000Y-62200000D03*
X145550000Y-62200000D03*
D15*
X145300000Y-58200000D03*
X145300000Y-59800000D03*
D16*
X144000000Y-62200000D03*
X141900000Y-62200000D03*
D15*
X141700000Y-58200000D03*
X141700000Y-59800000D03*
D17*
X180700000Y-64700000D03*
X180700000Y-67500000D03*
D18*
X149800000Y-80840000D03*
X150450000Y-80840000D03*
X151100000Y-80840000D03*
X151750000Y-80840000D03*
X152400000Y-80840000D03*
D19*
X148637500Y-81200000D03*
X153562500Y-81200000D03*
D20*
X148190000Y-83500000D03*
X154010000Y-83500000D03*
D21*
X150260000Y-83500000D03*
X151940000Y-83500000D03*
D22*
X180150000Y-62100000D03*
X177250000Y-62100000D03*
D23*
X185600000Y-59800000D03*
X185600000Y-56900000D03*
D24*
X159800000Y-80350000D03*
X156000000Y-80350000D03*
X159800000Y-83850000D03*
D25*
X166250000Y-76600000D03*
X164750000Y-76600000D03*
D26*
X160650000Y-72200000D03*
X160650000Y-70700000D03*
X159250000Y-72200000D03*
X159250000Y-70700000D03*
X160050000Y-78700000D03*
X160050000Y-77200000D03*
D25*
X178150000Y-70750000D03*
X176650000Y-70750000D03*
X174750000Y-70750000D03*
X173250000Y-70750000D03*
X180700000Y-70750000D03*
X179200000Y-70750000D03*
D27*
X166075000Y-84150000D03*
X161925000Y-84150000D03*
X166075000Y-82000000D03*
X161925000Y-82000000D03*
X161925000Y-78025000D03*
X166075000Y-78025000D03*
X161925000Y-80175000D03*
X166075000Y-80175000D03*
D28*
X181600000Y-78100000D03*
X171600000Y-78100000D03*
D15*
X154400000Y-76800000D03*
X156000000Y-76800000D03*
D29*
X174850000Y-68900000D03*
X174350000Y-68900000D03*
X173850000Y-68900000D03*
X173350000Y-68900000D03*
X172350000Y-68900000D03*
X171350000Y-68900000D03*
X172850000Y-68900000D03*
X171850000Y-68900000D03*
X169850000Y-68900000D03*
X168850000Y-68900000D03*
X167850000Y-68900000D03*
X167350000Y-68900000D03*
X170350000Y-68900000D03*
X169350000Y-68900000D03*
X170850000Y-68900000D03*
X168350000Y-68900000D03*
X165850000Y-68900000D03*
X164850000Y-68900000D03*
X166350000Y-68900000D03*
X165350000Y-68900000D03*
X166850000Y-68900000D03*
X164350000Y-68900000D03*
X174850000Y-62100000D03*
X174350000Y-62100000D03*
X173850000Y-62100000D03*
X173350000Y-62100000D03*
X172850000Y-62100000D03*
X172350000Y-62100000D03*
X171350000Y-62100000D03*
X170850000Y-62100000D03*
X171850000Y-62100000D03*
X170350000Y-62100000D03*
X169850000Y-62100000D03*
X168850000Y-62100000D03*
X169350000Y-62100000D03*
X168350000Y-62100000D03*
X167850000Y-62100000D03*
X166850000Y-62100000D03*
X167350000Y-62100000D03*
X166350000Y-62100000D03*
X165850000Y-62100000D03*
X164850000Y-62100000D03*
X165350000Y-62100000D03*
X164350000Y-62100000D03*
D30*
X149500000Y-66375000D03*
X147500000Y-66375000D03*
X145500000Y-66375000D03*
X143500000Y-66375000D03*
D31*
X151900000Y-68625000D03*
X141100000Y-68625000D03*
D30*
X149500000Y-74000000D03*
X147500000Y-74000000D03*
X145500000Y-74000000D03*
X143500000Y-74000000D03*
D31*
X151900000Y-76250000D03*
X141100000Y-76250000D03*
D32*
X183700000Y-56250000D03*
X183700000Y-57150000D03*
X182500000Y-55650000D03*
X182500000Y-56550000D03*
X180100000Y-56250000D03*
X180100000Y-57150000D03*
X178900000Y-55650000D03*
X178900000Y-56550000D03*
X176500000Y-56250000D03*
X176500000Y-57150000D03*
X175300000Y-55650000D03*
X175300000Y-56550000D03*
X172900000Y-56250000D03*
X172900000Y-57150000D03*
X171700000Y-55650000D03*
X171700000Y-56550000D03*
X169300000Y-56250000D03*
X169300000Y-57150000D03*
X168100000Y-55650000D03*
X168100000Y-56550000D03*
X165700000Y-56250000D03*
X165700000Y-57150000D03*
X164500000Y-55650000D03*
X164500000Y-56550000D03*
X162100000Y-56250000D03*
X162100000Y-57150000D03*
X160900000Y-55650000D03*
X160900000Y-56550000D03*
X158500000Y-56250000D03*
X158500000Y-57150000D03*
X157300000Y-55650000D03*
X157300000Y-56550000D03*
X154900000Y-56250000D03*
X154900000Y-57150000D03*
X153700000Y-55650000D03*
X153700000Y-56550000D03*
X151300000Y-56250000D03*
X151300000Y-57150000D03*
X150100000Y-55650000D03*
X150100000Y-56550000D03*
X147700000Y-58550000D03*
X147700000Y-59450000D03*
X146500000Y-57950000D03*
X146500000Y-58850000D03*
X144100000Y-58550000D03*
X144100000Y-59450000D03*
X142900000Y-57950000D03*
X142900000Y-58850000D03*
D33*
X151100000Y-80850000D03*
X151750000Y-80850000D03*
X150450000Y-80850000D03*
X152400000Y-80850000D03*
X149800000Y-80850000D03*
D34*
X186400000Y-77000000D03*
X191800000Y-77000000D03*
D35*
X157070000Y-73720000D03*
X157070000Y-68680000D03*
X154530000Y-73720000D03*
X154530000Y-68680000D03*
D12*
X166650000Y-75200000D03*
X166650000Y-73700000D03*
M02*
