G04 #@! TF.FileFunction,Copper,L1,Top,Signal*
%FSLAX46Y46*%
G04 Gerber Fmt 4.6, Leading zero omitted, Abs format (unit mm)*
G04 Created by KiCad (PCBNEW 4.0.7) date 02/25/18 23:04:30*
%MOMM*%
%LPD*%
G01*
G04 APERTURE LIST*
%ADD10C,0.100000*%
%ADD11R,1.750000X1.750000*%
%ADD12C,1.750000*%
%ADD13C,6.000000*%
%ADD14R,0.800000X0.750000*%
%ADD15R,0.750000X0.800000*%
%ADD16R,1.600000X1.000000*%
%ADD17R,4.000000X2.500000*%
%ADD18R,0.800000X0.800000*%
%ADD19R,0.900000X1.200000*%
%ADD20R,0.600000X0.450000*%
%ADD21R,0.450000X1.380000*%
%ADD22R,1.475000X2.100000*%
%ADD23R,2.375000X1.900000*%
%ADD24R,1.175000X1.900000*%
%ADD25R,0.900000X1.700000*%
%ADD26R,2.100000X1.700000*%
%ADD27R,0.510000X0.400000*%
%ADD28R,0.500000X0.900000*%
%ADD29R,0.900000X0.500000*%
%ADD30R,0.285000X1.100000*%
%ADD31R,2.400000X2.000000*%
%ADD32R,2.510000X1.000000*%
%ADD33R,1.800000X3.600000*%
%ADD34O,1.800000X3.600000*%
%ADD35R,0.450000X1.500000*%
%ADD36O,1.800000X1.100000*%
%ADD37O,2.200000X1.100000*%
%ADD38R,1.050000X0.650000*%
%ADD39R,4.000000X4.000000*%
%ADD40R,1.700000X1.700000*%
%ADD41O,1.700000X1.700000*%
%ADD42C,0.800000*%
%ADD43C,0.600000*%
%ADD44C,0.250000*%
%ADD45C,3.000000*%
%ADD46C,0.400000*%
%ADD47C,0.600000*%
%ADD48C,1.000000*%
%ADD49C,0.800000*%
%ADD50C,4.000000*%
%ADD51C,0.254000*%
G04 APERTURE END LIST*
D10*
D11*
X179200000Y-52800000D03*
D12*
X176700000Y-52800000D03*
X174200000Y-52800000D03*
X171700000Y-52800000D03*
X169200000Y-52800000D03*
X166700000Y-52800000D03*
X164200000Y-52800000D03*
X161700000Y-52800000D03*
X159200000Y-52800000D03*
X156700000Y-52800000D03*
X154200000Y-52800000D03*
X151700000Y-52800000D03*
X149200000Y-52800000D03*
D13*
X201500000Y-81500000D03*
X201500000Y-53500000D03*
X143500000Y-53500000D03*
D14*
X165150000Y-69100000D03*
X163650000Y-69100000D03*
X165150000Y-76300000D03*
X163650000Y-76300000D03*
X161150000Y-68500000D03*
X162650000Y-68500000D03*
D15*
X160800000Y-73400000D03*
X160800000Y-74900000D03*
X161900000Y-73400000D03*
X161900000Y-74900000D03*
D14*
X182450000Y-58400000D03*
X183950000Y-58400000D03*
X178850000Y-58400000D03*
X180350000Y-58400000D03*
X175250000Y-58400000D03*
X176750000Y-58400000D03*
X171650000Y-58400000D03*
X173150000Y-58400000D03*
X168050000Y-58400000D03*
X169550000Y-58400000D03*
X164450000Y-58400000D03*
X165950000Y-58400000D03*
X160850000Y-58400000D03*
X162350000Y-58400000D03*
X157250000Y-58400000D03*
X158750000Y-58400000D03*
X153650000Y-58400000D03*
X155150000Y-58400000D03*
X150050000Y-58400000D03*
X151550000Y-58400000D03*
X146450000Y-60700000D03*
X147950000Y-60700000D03*
X142850000Y-60700000D03*
X144350000Y-60700000D03*
D15*
X191500000Y-58550000D03*
X191500000Y-57050000D03*
X190300000Y-58550000D03*
X190300000Y-57050000D03*
D16*
X168400000Y-72100000D03*
X168400000Y-75100000D03*
D15*
X167700000Y-83150000D03*
X167700000Y-81650000D03*
D17*
X185400000Y-74700000D03*
X191500000Y-74700000D03*
X185100000Y-65000000D03*
X193100000Y-65000000D03*
D15*
X168900000Y-81650000D03*
X168900000Y-83150000D03*
D18*
X147000000Y-77000000D03*
X145400000Y-77000000D03*
X177800000Y-66400000D03*
X177800000Y-68000000D03*
D19*
X178000000Y-64900000D03*
X181300000Y-64900000D03*
D20*
X183650000Y-59900000D03*
X181550000Y-59900000D03*
D18*
X181300000Y-55900000D03*
X181300000Y-57500000D03*
D20*
X180050000Y-59900000D03*
X177950000Y-59900000D03*
D18*
X177700000Y-55900000D03*
X177700000Y-57500000D03*
D20*
X176450000Y-59900000D03*
X174350000Y-59900000D03*
D18*
X174100000Y-55900000D03*
X174100000Y-57500000D03*
D20*
X172850000Y-59900000D03*
X170750000Y-59900000D03*
D18*
X170500000Y-55900000D03*
X170500000Y-57500000D03*
D20*
X169250000Y-59900000D03*
X167150000Y-59900000D03*
D18*
X166900000Y-55900000D03*
X166900000Y-57500000D03*
D20*
X165650000Y-59900000D03*
X163550000Y-59900000D03*
D18*
X163300000Y-55900000D03*
X163300000Y-57500000D03*
D20*
X162050000Y-59900000D03*
X159950000Y-59900000D03*
D18*
X159700000Y-55900000D03*
X159700000Y-57500000D03*
D20*
X158450000Y-59900000D03*
X156350000Y-59900000D03*
D18*
X156100000Y-55900000D03*
X156100000Y-57500000D03*
D20*
X154850000Y-59900000D03*
X152750000Y-59900000D03*
D18*
X152500000Y-55900000D03*
X152500000Y-57500000D03*
D20*
X151250000Y-59900000D03*
X149150000Y-59900000D03*
D18*
X148900000Y-55900000D03*
X148900000Y-57500000D03*
D20*
X147650000Y-62200000D03*
X145550000Y-62200000D03*
D18*
X145300000Y-58200000D03*
X145300000Y-59800000D03*
D20*
X144000000Y-62200000D03*
X141900000Y-62200000D03*
D18*
X141700000Y-58200000D03*
X141700000Y-59800000D03*
D21*
X149800000Y-80840000D03*
X150450000Y-80840000D03*
X151100000Y-80840000D03*
X151750000Y-80840000D03*
X152400000Y-80840000D03*
D22*
X148637500Y-81200000D03*
X153562500Y-81200000D03*
D23*
X148190000Y-83500000D03*
X154010000Y-83500000D03*
D24*
X150260000Y-83500000D03*
X151940000Y-83500000D03*
D11*
X150600000Y-66600000D03*
D12*
X148100000Y-66600000D03*
X145600000Y-66600000D03*
X143100000Y-66600000D03*
D11*
X150600000Y-73400000D03*
D12*
X148100000Y-73400000D03*
X145600000Y-73400000D03*
X143100000Y-73400000D03*
D25*
X180950000Y-62500000D03*
X178050000Y-62500000D03*
X185500000Y-58000000D03*
X188400000Y-58000000D03*
D26*
X159800000Y-80350000D03*
X156000000Y-80350000D03*
X159800000Y-83850000D03*
D27*
X180450000Y-68050000D03*
X180450000Y-67050000D03*
X179150000Y-67550000D03*
D28*
X179150000Y-69300000D03*
X180650000Y-69300000D03*
D29*
X181800000Y-66750000D03*
X181800000Y-68250000D03*
X167300000Y-78250000D03*
X167300000Y-76750000D03*
X160550000Y-70950000D03*
X160550000Y-69450000D03*
X159300000Y-70950000D03*
X159300000Y-69450000D03*
D28*
X177350000Y-70750000D03*
X175850000Y-70750000D03*
D29*
X183700000Y-55950000D03*
X183700000Y-57450000D03*
X182500000Y-55950000D03*
X182500000Y-57450000D03*
X180100000Y-55950000D03*
X180100000Y-57450000D03*
X178900000Y-55950000D03*
X178900000Y-57450000D03*
X176500000Y-55950000D03*
X176500000Y-57450000D03*
X175300000Y-55950000D03*
X175300000Y-57450000D03*
X172900000Y-55950000D03*
X172900000Y-57450000D03*
X171700000Y-55950000D03*
X171700000Y-57450000D03*
X169300000Y-55950000D03*
X169300000Y-57450000D03*
X168100000Y-55950000D03*
X168100000Y-57450000D03*
X165700000Y-55950000D03*
X165700000Y-57450000D03*
X164500000Y-55950000D03*
X164500000Y-57450000D03*
X162100000Y-55950000D03*
X162100000Y-57450000D03*
X160900000Y-55950000D03*
X160900000Y-57450000D03*
X158500000Y-55950000D03*
X158500000Y-57450000D03*
X157300000Y-55950000D03*
X157300000Y-57450000D03*
X154900000Y-55950000D03*
X154900000Y-57450000D03*
X153700000Y-55950000D03*
X153700000Y-57450000D03*
X151300000Y-55950000D03*
X151300000Y-57450000D03*
X150100000Y-55950000D03*
X150100000Y-57450000D03*
X147700000Y-58250000D03*
X147700000Y-59750000D03*
X146500000Y-58250000D03*
X146500000Y-59750000D03*
X144100000Y-58250000D03*
X144100000Y-59750000D03*
X142900000Y-58250000D03*
X142900000Y-59750000D03*
D28*
X182600000Y-70750000D03*
X181100000Y-70750000D03*
X179900000Y-70750000D03*
X178400000Y-70750000D03*
D30*
X176750000Y-62350000D03*
X176250000Y-62350000D03*
X175750000Y-62350000D03*
X175250000Y-62350000D03*
X174750000Y-62350000D03*
X174250000Y-62350000D03*
X173750000Y-62350000D03*
X173250000Y-62350000D03*
X172750000Y-62350000D03*
X172250000Y-62350000D03*
X171750000Y-62350000D03*
X171250000Y-62350000D03*
X170750000Y-62350000D03*
X170250000Y-62350000D03*
X169750000Y-62350000D03*
X169250000Y-62350000D03*
X168750000Y-62350000D03*
X168250000Y-62350000D03*
X167750000Y-62350000D03*
X166250000Y-68050000D03*
X166750000Y-68050000D03*
X167250000Y-68050000D03*
X167750000Y-68050000D03*
X168250000Y-68050000D03*
X168750000Y-68050000D03*
X169250000Y-68050000D03*
X169750000Y-68050000D03*
X170250000Y-68050000D03*
X170750000Y-68050000D03*
X171250000Y-68050000D03*
X171750000Y-68050000D03*
X172250000Y-68050000D03*
X172750000Y-68050000D03*
X173250000Y-68050000D03*
X173750000Y-68050000D03*
X167250000Y-62350000D03*
X166750000Y-62350000D03*
X166250000Y-62350000D03*
X174250000Y-68050000D03*
X174750000Y-68050000D03*
X175250000Y-68050000D03*
X175750000Y-68050000D03*
X176250000Y-68050000D03*
X176750000Y-68050000D03*
D31*
X164400000Y-70850000D03*
X164400000Y-74550000D03*
D32*
X158300000Y-72860000D03*
X158300000Y-67780000D03*
X158300000Y-62700000D03*
X154990000Y-70320000D03*
X154990000Y-65240000D03*
D33*
X194500000Y-82400000D03*
D34*
X191000000Y-82400000D03*
X187500000Y-82400000D03*
D28*
X157350000Y-75100000D03*
X155850000Y-75100000D03*
D13*
X143500000Y-81500000D03*
D35*
X151100000Y-80875000D03*
X151750000Y-80875000D03*
X150450000Y-80875000D03*
X152400000Y-80875000D03*
X149800000Y-80875000D03*
D36*
X148300000Y-80625000D03*
X153900000Y-80625000D03*
D37*
X151100000Y-82775000D03*
D38*
X161825000Y-82000000D03*
X165975000Y-82000000D03*
X161825000Y-84150000D03*
X165975000Y-84150000D03*
X161825000Y-78125000D03*
X165975000Y-78125000D03*
X161825000Y-80275000D03*
X165975000Y-80275000D03*
D39*
X181600000Y-78100000D03*
X171600000Y-78100000D03*
D18*
X148400000Y-78300000D03*
X146800000Y-78300000D03*
D28*
X148250000Y-76900000D03*
X149750000Y-76900000D03*
D40*
X200660000Y-58640000D03*
D41*
X203200000Y-58640000D03*
X200660000Y-61180000D03*
X203200000Y-61180000D03*
X200660000Y-63720000D03*
X203200000Y-63720000D03*
X200660000Y-66260000D03*
X203200000Y-66260000D03*
X200660000Y-68800000D03*
X203200000Y-68800000D03*
X200660000Y-71340000D03*
X203200000Y-71340000D03*
X200660000Y-73880000D03*
X203200000Y-73880000D03*
X200660000Y-76420000D03*
X203200000Y-76420000D03*
D42*
X148700000Y-82400000D03*
X153500000Y-82400000D03*
D43*
X170500000Y-69259999D03*
X170201971Y-66798029D03*
X146000000Y-64300000D03*
X172900000Y-64500000D03*
X173600000Y-72150000D03*
X170600000Y-75600000D03*
X162400000Y-84200000D03*
X188600000Y-64300000D03*
D42*
X152500000Y-77600000D03*
X151100000Y-83900000D03*
D43*
X194600000Y-70500000D03*
D42*
X154200000Y-64600000D03*
X183600000Y-53300000D03*
X183600000Y-52200000D03*
X183600000Y-51000000D03*
X184800000Y-51000000D03*
X184800000Y-52200000D03*
X184800000Y-53300000D03*
X184800000Y-54500000D03*
X185900000Y-54500000D03*
X185900000Y-53300000D03*
X185900000Y-52200000D03*
X185900000Y-51000000D03*
X187100000Y-51000000D03*
X187100000Y-52200000D03*
X187100000Y-53300000D03*
X187100000Y-54500000D03*
X188300000Y-54500000D03*
X188300000Y-53300000D03*
X188300000Y-52200000D03*
X188300000Y-51000000D03*
X189500000Y-51000000D03*
X189500000Y-52200000D03*
X189500000Y-53300000D03*
X189500000Y-54500000D03*
D43*
X179200000Y-65700000D03*
X179900000Y-65700000D03*
X180600000Y-65500000D03*
X180800000Y-64200000D03*
X144800000Y-76900000D03*
X193100000Y-65900000D03*
X193200000Y-64700000D03*
X194600000Y-73400000D03*
X194600000Y-72800000D03*
X190300000Y-68200000D03*
X195200000Y-64600000D03*
X193200000Y-65300000D03*
X193200000Y-64100000D03*
X194800000Y-72200000D03*
X194900000Y-71600000D03*
X194600000Y-71100000D03*
X189800000Y-60400000D03*
X185900000Y-59350002D03*
X189700000Y-56000000D03*
X189900000Y-58700000D03*
X193400000Y-56100000D03*
X174250000Y-71500000D03*
X174250000Y-72150000D03*
X172300000Y-71500000D03*
X181100000Y-67000000D03*
X175249998Y-70750000D03*
X172950000Y-71500000D03*
X173600000Y-71500000D03*
X172950000Y-72150000D03*
X172300000Y-72150000D03*
X181300000Y-83875000D03*
X155300000Y-79500000D03*
X180800000Y-64850000D03*
X161216522Y-67701725D03*
X161200000Y-73400000D03*
X165600000Y-69100000D03*
X165600000Y-76300000D03*
X168900000Y-82950000D03*
X170000000Y-82950000D03*
X170792801Y-82743199D03*
X174500000Y-81900000D03*
X168717896Y-75877422D03*
X169800000Y-71099998D03*
X168600000Y-77300000D03*
D42*
X152700000Y-83600000D03*
X149400000Y-83600000D03*
D43*
X151700000Y-70700000D03*
X141730806Y-61049998D03*
X145339754Y-61049998D03*
X148939754Y-58749998D03*
X181339754Y-58749999D03*
X177739754Y-58749998D03*
X174139754Y-58749998D03*
X170539754Y-58749998D03*
X166939754Y-58749999D03*
X163339754Y-58749999D03*
X159739754Y-58749999D03*
X156139754Y-58749998D03*
X152539754Y-58749998D03*
D42*
X149300000Y-79400000D03*
D43*
X164400000Y-71900000D03*
X168200000Y-82200000D03*
X167100000Y-79300000D03*
D42*
X192100000Y-63159998D03*
D43*
X141700000Y-76700000D03*
X144900000Y-69800000D03*
D42*
X152700000Y-79300000D03*
D43*
X192800000Y-69300000D03*
X192800000Y-68600000D03*
X192800000Y-67900000D03*
X193000000Y-70700000D03*
X192800000Y-72500000D03*
X192800000Y-67200000D03*
X185000000Y-58700000D03*
X156050000Y-64239998D03*
X159000000Y-64953352D03*
X179900000Y-69799998D03*
X159900000Y-71000000D03*
X162200000Y-68800000D03*
X161200000Y-74900000D03*
X168900000Y-81700000D03*
X170000000Y-81900000D03*
X154200000Y-78600000D03*
X157550002Y-81100000D03*
D42*
X158100000Y-63425038D03*
D43*
X142100000Y-70600000D03*
X151700000Y-69100000D03*
X164400000Y-73500000D03*
X170950000Y-67250000D03*
X175350000Y-63400000D03*
X148651930Y-60984124D03*
X164446381Y-63026118D03*
X144800000Y-62400000D03*
X166370279Y-63429721D03*
X196200000Y-57300000D03*
D42*
X197500000Y-51000000D03*
X196300000Y-51000000D03*
X195100000Y-51000000D03*
X193900000Y-51000000D03*
X191500000Y-51000000D03*
X192700000Y-51000000D03*
X197500000Y-52100000D03*
X196300000Y-52100000D03*
X195100000Y-52100000D03*
X193900000Y-52100000D03*
X191500000Y-52100000D03*
X192700000Y-52100000D03*
X197500000Y-53300000D03*
X196300000Y-53300000D03*
X195100000Y-53300000D03*
X193900000Y-53300000D03*
X191500000Y-53300000D03*
X192700000Y-53300000D03*
X197500000Y-54500000D03*
X196300000Y-54500000D03*
X195100000Y-54500000D03*
X193900000Y-54500000D03*
X192700000Y-54500000D03*
X191500000Y-54500000D03*
D43*
X191100000Y-57349998D03*
X192099998Y-56100000D03*
X193500000Y-57800000D03*
X170800000Y-72700000D03*
X169900000Y-72549999D03*
X188200000Y-75400000D03*
X146800000Y-76300000D03*
X176900000Y-65500000D03*
X178500000Y-62200000D03*
X181300000Y-57900000D03*
X180200000Y-55600000D03*
X177700000Y-57900000D03*
X176500000Y-55600000D03*
X174100000Y-57900000D03*
X173000000Y-55600000D03*
X170478442Y-57929416D03*
X169400000Y-55600000D03*
X166900000Y-57900000D03*
X165800000Y-55600000D03*
X163300000Y-57900000D03*
X162200000Y-55600000D03*
X159700000Y-57900000D03*
X158600000Y-55600000D03*
X155000000Y-55600000D03*
X156100000Y-57900000D03*
X151400000Y-55600000D03*
X152500000Y-57900000D03*
X148141573Y-58696052D03*
X147800000Y-57900000D03*
X144300000Y-57900000D03*
X145300000Y-60200000D03*
X142850002Y-62500000D03*
X168502850Y-64008557D03*
X141700000Y-60200000D03*
X171800000Y-77200000D03*
X172600000Y-76400000D03*
X174200000Y-76400000D03*
X173400000Y-77200000D03*
X173400000Y-76400000D03*
X174200000Y-78000000D03*
X174200000Y-77200000D03*
X172600000Y-77200000D03*
X171800000Y-78000000D03*
X172600000Y-78000000D03*
X173400000Y-78000000D03*
X152799998Y-72000000D03*
X155258058Y-72075000D03*
X155660000Y-69924001D03*
X165250000Y-73049998D03*
X157000000Y-72900000D03*
X151300000Y-71990001D03*
X152100000Y-73100000D03*
X183700000Y-55600000D03*
X159800000Y-81500000D03*
X174250001Y-63249565D03*
X182600000Y-57100000D03*
X173249999Y-63249564D03*
X179000000Y-57100000D03*
X172250001Y-63249565D03*
X175400000Y-57100000D03*
X171250001Y-63249565D03*
X171800000Y-57100000D03*
X170250001Y-63249564D03*
X168200000Y-57100000D03*
X169250001Y-63249565D03*
X164600000Y-57100000D03*
X168250001Y-63249564D03*
X161000000Y-57100000D03*
X167250001Y-63249564D03*
X157375000Y-57100000D03*
X166000000Y-62600000D03*
X153800000Y-57100000D03*
X163641927Y-62858073D03*
X150200000Y-57100000D03*
X165226762Y-62850030D03*
X146575000Y-59400000D03*
X142900000Y-61600000D03*
X167696952Y-63913067D03*
X143000000Y-59400000D03*
X182900000Y-84550000D03*
X180150000Y-84500000D03*
X158650000Y-74000000D03*
X161974212Y-67478097D03*
X185200000Y-56649998D03*
X160250000Y-76000000D03*
X163800000Y-77450000D03*
X160350003Y-70150000D03*
X162615598Y-67016873D03*
X185982244Y-56482377D03*
X159550000Y-75050000D03*
X163395800Y-78304685D03*
X159550000Y-70150000D03*
X169765462Y-64402260D03*
X171341193Y-65443351D03*
X171200000Y-64600000D03*
X170739807Y-63869397D03*
X154800000Y-63800000D03*
X154800000Y-66500000D03*
X161971648Y-64328352D03*
D42*
X178700000Y-81600000D03*
D43*
X186600000Y-67100000D03*
X185800000Y-67100000D03*
X185000000Y-67100000D03*
X184200000Y-67100000D03*
X184200000Y-66300000D03*
X183400000Y-67100000D03*
X183400000Y-66300000D03*
D42*
X182300000Y-80900000D03*
X181550000Y-81300000D03*
X180800000Y-80900000D03*
X180050000Y-81300000D03*
X179300000Y-80900000D03*
X178200000Y-80900000D03*
X177700000Y-81600000D03*
D43*
X164741131Y-82348017D03*
X164572761Y-81543237D03*
X164978352Y-83124980D03*
X167500000Y-70500000D03*
X149324000Y-77515000D03*
X180000000Y-68300000D03*
X166500000Y-70400000D03*
X173249999Y-68935105D03*
X182400000Y-64000000D03*
X190050000Y-63000000D03*
X188200000Y-66200000D03*
X164900000Y-67100000D03*
X143800000Y-75800000D03*
X172500000Y-67250000D03*
X149134990Y-69300000D03*
X182400000Y-65000000D03*
X164200000Y-67900000D03*
X187500000Y-68800000D03*
X187020674Y-61920674D03*
X188500000Y-63000000D03*
X149000000Y-70200000D03*
X155400000Y-74000000D03*
X169750000Y-68935106D03*
X176400000Y-64050000D03*
D44*
X157350000Y-75100000D02*
X157350000Y-75800000D01*
X157350000Y-75800000D02*
X155550000Y-77600000D01*
X155550000Y-77600000D02*
X153065685Y-77600000D01*
X153065685Y-77600000D02*
X152500000Y-77600000D01*
X165975000Y-84150000D02*
X165975000Y-83575000D01*
X165975000Y-83575000D02*
X166400000Y-83150000D01*
X166400000Y-83150000D02*
X167675000Y-83150000D01*
X167675000Y-83150000D02*
X168300000Y-83150000D01*
X161825000Y-84150000D02*
X162350000Y-84150000D01*
X162350000Y-84150000D02*
X162400000Y-84200000D01*
X151940000Y-83500000D02*
X151100000Y-83500000D01*
X151100000Y-83500000D02*
X150260000Y-83500000D01*
D45*
X195000001Y-66439999D02*
X195000001Y-70800000D01*
X195000001Y-70800000D02*
X195000001Y-73260001D01*
D44*
X194600000Y-70500000D02*
X194899999Y-70799999D01*
X194899999Y-70799999D02*
X195000000Y-70799999D01*
X195000000Y-70799999D02*
X195000001Y-70800000D01*
X154990000Y-65240000D02*
X154840000Y-65240000D01*
X154840000Y-65240000D02*
X154200000Y-64600000D01*
X183600000Y-51000000D02*
X183600000Y-52200000D01*
X184800000Y-52200000D02*
X184800000Y-51000000D01*
X184800000Y-54500000D02*
X184800000Y-53300000D01*
X185900000Y-53300000D02*
X185900000Y-54500000D01*
X185900000Y-51000000D02*
X185900000Y-52200000D01*
X187100000Y-52200000D02*
X187100000Y-51000000D01*
X187100000Y-54500000D02*
X187100000Y-53300000D01*
X188300000Y-53300000D02*
X188300000Y-54500000D01*
X188300000Y-51000000D02*
X188300000Y-52200000D01*
X189500000Y-52200000D02*
X189500000Y-51000000D01*
X189500000Y-54500000D02*
X189500000Y-53300000D01*
X145400000Y-77000000D02*
X144900000Y-77000000D01*
X144900000Y-77000000D02*
X144800000Y-76900000D01*
D45*
X193100000Y-65000000D02*
X193560002Y-65000000D01*
X193560002Y-65000000D02*
X195000001Y-66439999D01*
X195000001Y-73260001D02*
X193560002Y-74700000D01*
X193560002Y-74700000D02*
X191500000Y-74700000D01*
D44*
X190300000Y-58550000D02*
X190050000Y-58550000D01*
X190050000Y-58550000D02*
X189900000Y-58700000D01*
X191500000Y-58550000D02*
X190300000Y-58550000D01*
X181100000Y-66900000D02*
X181650000Y-66900000D01*
X181650000Y-66900000D02*
X181800000Y-66750000D01*
X180450000Y-67050000D02*
X180950000Y-67050000D01*
X180950000Y-67050000D02*
X181100000Y-66900000D01*
X175850000Y-70750000D02*
X175249998Y-70750000D01*
X155300000Y-79500000D02*
X155300000Y-79650000D01*
X155300000Y-79650000D02*
X156000000Y-80350000D01*
D46*
X181300000Y-64900000D02*
X180850000Y-64900000D01*
X180850000Y-64900000D02*
X180800000Y-64850000D01*
D44*
X161216522Y-67701725D02*
X161216522Y-68433478D01*
X161216522Y-68433478D02*
X161150000Y-68500000D01*
X161900000Y-73400000D02*
X161200000Y-73400000D01*
X160800000Y-73400000D02*
X161200000Y-73400000D01*
X165150000Y-69100000D02*
X165600000Y-69100000D01*
X165150000Y-76300000D02*
X165600000Y-76300000D01*
X167300000Y-76750000D02*
X168050000Y-76750000D01*
X168050000Y-76750000D02*
X168600000Y-77300000D01*
X168900000Y-83200000D02*
X169450000Y-83200000D01*
X169450000Y-83200000D02*
X169500000Y-83150000D01*
X168300000Y-83150000D02*
X168850000Y-83150000D01*
X168850000Y-83150000D02*
X168900000Y-83200000D01*
X169500000Y-83150000D02*
X169850000Y-83150000D01*
X169850000Y-83150000D02*
X170000000Y-83000000D01*
X169100000Y-75100000D02*
X169100000Y-75495318D01*
X169100000Y-75495318D02*
X168717896Y-75877422D01*
X148637500Y-81200000D02*
X148524998Y-81200000D01*
X154700000Y-80600000D02*
X154162500Y-80600000D01*
X154162500Y-80600000D02*
X153562500Y-81200000D01*
X156000000Y-80350000D02*
X154950000Y-80350000D01*
X154950000Y-80350000D02*
X154700000Y-80600000D01*
X152400000Y-80840000D02*
X153202500Y-80840000D01*
X153202500Y-80840000D02*
X153562500Y-81200000D01*
X153562500Y-81200000D02*
X153562500Y-83052500D01*
X153562500Y-83052500D02*
X154010000Y-83500000D01*
X150260000Y-83500000D02*
X149500000Y-83500000D01*
X149500000Y-83500000D02*
X149400000Y-83600000D01*
X154010000Y-83500000D02*
X152800000Y-83500000D01*
X152800000Y-83500000D02*
X152700000Y-83600000D01*
X151940000Y-83500000D02*
X152600000Y-83500000D01*
X152600000Y-83500000D02*
X152700000Y-83600000D01*
X148637500Y-81200000D02*
X148637500Y-83052500D01*
X148637500Y-83052500D02*
X148190000Y-83500000D01*
X149400000Y-83600000D02*
X148290000Y-83600000D01*
X148290000Y-83600000D02*
X148190000Y-83500000D01*
X142850000Y-60700000D02*
X142080804Y-60700000D01*
X142080804Y-60700000D02*
X141730806Y-61049998D01*
X146450000Y-60700000D02*
X145689752Y-60700000D01*
X145689752Y-60700000D02*
X145339754Y-61049998D01*
X150050000Y-58400000D02*
X149289752Y-58400000D01*
X149289752Y-58400000D02*
X148939754Y-58749998D01*
X182450000Y-58400000D02*
X181689753Y-58400000D01*
X181689753Y-58400000D02*
X181339754Y-58749999D01*
X178850000Y-58400000D02*
X178089752Y-58400000D01*
X178089752Y-58400000D02*
X177739754Y-58749998D01*
X175250000Y-58400000D02*
X174489752Y-58400000D01*
X174489752Y-58400000D02*
X174139754Y-58749998D01*
X171650000Y-58400000D02*
X170889752Y-58400000D01*
X170889752Y-58400000D02*
X170539754Y-58749998D01*
X168050000Y-58400000D02*
X167289753Y-58400000D01*
X167289753Y-58400000D02*
X166939754Y-58749999D01*
X164450000Y-58400000D02*
X163689753Y-58400000D01*
X163689753Y-58400000D02*
X163339754Y-58749999D01*
X160850000Y-58400000D02*
X160089753Y-58400000D01*
X160089753Y-58400000D02*
X159739754Y-58749999D01*
X157250000Y-58400000D02*
X156489752Y-58400000D01*
X156489752Y-58400000D02*
X156139754Y-58749998D01*
X153650000Y-58400000D02*
X152889752Y-58400000D01*
X152889752Y-58400000D02*
X152539754Y-58749998D01*
D46*
X149800000Y-80840000D02*
X149800000Y-79900000D01*
X149800000Y-79900000D02*
X149300000Y-79400000D01*
D44*
X163650000Y-69100000D02*
X163650000Y-70100000D01*
X163650000Y-70100000D02*
X164400000Y-70850000D01*
X164400000Y-71900000D02*
X164400000Y-70850000D01*
X167700000Y-81650000D02*
X167700000Y-81700000D01*
X167700000Y-81700000D02*
X168200000Y-82200000D01*
X165975000Y-80275000D02*
X166125000Y-80275000D01*
X166125000Y-80275000D02*
X167100000Y-79300000D01*
X161825000Y-80275000D02*
X165975000Y-80275000D01*
X185500000Y-58000000D02*
X185500000Y-58200000D01*
X185500000Y-58200000D02*
X185000000Y-58700000D01*
X179900000Y-70750000D02*
X179900000Y-69799998D01*
X159900000Y-71000000D02*
X160500000Y-71000000D01*
X160500000Y-71000000D02*
X160550000Y-70950000D01*
X159300000Y-70950000D02*
X159850000Y-70950000D01*
X159850000Y-70950000D02*
X159900000Y-71000000D01*
X162200000Y-68800000D02*
X162350000Y-68800000D01*
X162350000Y-68800000D02*
X162650000Y-68500000D01*
X160800000Y-74900000D02*
X161200000Y-74900000D01*
X161900000Y-74900000D02*
X161200000Y-74900000D01*
X168900000Y-81700000D02*
X169450000Y-81700000D01*
X169450000Y-81700000D02*
X169500000Y-81650000D01*
X168850000Y-81650000D02*
X168900000Y-81700000D01*
X169500000Y-81650000D02*
X169750000Y-81650000D01*
X169750000Y-81650000D02*
X170000000Y-81900000D01*
X158200000Y-63425038D02*
X158100000Y-63425038D01*
X158300000Y-62700000D02*
X158300000Y-63325038D01*
X158300000Y-63325038D02*
X158200000Y-63425038D01*
X163650000Y-76300000D02*
X163650000Y-75300000D01*
X163650000Y-75300000D02*
X164400000Y-74550000D01*
X164400000Y-73500000D02*
X164400000Y-74550000D01*
X170750000Y-68050000D02*
X170750000Y-67450000D01*
X170750000Y-67450000D02*
X170950000Y-67250000D01*
X171250000Y-68050000D02*
X171750000Y-68050000D01*
X170750000Y-68050000D02*
X171250000Y-68050000D01*
X175250000Y-62350000D02*
X175250000Y-63300000D01*
X175250000Y-63300000D02*
X175350000Y-63400000D01*
X174750000Y-62350000D02*
X174750000Y-61572498D01*
X176999989Y-60900011D02*
X179599989Y-60900011D01*
X174750000Y-61572498D02*
X174847499Y-61474999D01*
X174847499Y-61474999D02*
X176425001Y-61474999D01*
X176425001Y-61474999D02*
X176999989Y-60900011D01*
X179599989Y-60900011D02*
X180049999Y-60450001D01*
X183100000Y-59900000D02*
X183650000Y-59900000D01*
X180049999Y-60450001D02*
X182549999Y-60450001D01*
X182549999Y-60450001D02*
X183100000Y-59900000D01*
X183950000Y-58400000D02*
X183950000Y-59600000D01*
X183950000Y-59600000D02*
X183650000Y-59900000D01*
X183950000Y-58400000D02*
X183950000Y-57700000D01*
X183950000Y-57700000D02*
X183700000Y-57450000D01*
X173750000Y-62350000D02*
X173750000Y-61572498D01*
X173750000Y-61572498D02*
X174297509Y-61024989D01*
X174297509Y-61024989D02*
X175375011Y-61024989D01*
X175375011Y-61024989D02*
X175949999Y-60450001D01*
X175949999Y-60450001D02*
X178949999Y-60450001D01*
X178949999Y-60450001D02*
X179500000Y-59900000D01*
X179500000Y-59900000D02*
X180050000Y-59900000D01*
X180050000Y-59900000D02*
X181550000Y-59900000D01*
X180350000Y-58400000D02*
X180350000Y-59600000D01*
X180350000Y-59600000D02*
X180050000Y-59900000D01*
X180350000Y-58400000D02*
X180350000Y-57700000D01*
X180350000Y-57700000D02*
X180100000Y-57450000D01*
X172750000Y-62350000D02*
X172750000Y-61572498D01*
X172750000Y-61572498D02*
X173822498Y-60500000D01*
X173822498Y-60500000D02*
X175263590Y-60500000D01*
X175263590Y-60500000D02*
X175863590Y-59900000D01*
X175863590Y-59900000D02*
X175900000Y-59900000D01*
X175900000Y-59900000D02*
X176450000Y-59900000D01*
X176450000Y-59900000D02*
X177950000Y-59900000D01*
X176750000Y-58400000D02*
X176750000Y-59600000D01*
X176750000Y-59600000D02*
X176450000Y-59900000D01*
X176750000Y-58400000D02*
X176750000Y-57700000D01*
X176750000Y-57700000D02*
X176500000Y-57450000D01*
X171750000Y-62350000D02*
X171750000Y-60925000D01*
X171750000Y-60925000D02*
X172775000Y-59900000D01*
X172775000Y-59900000D02*
X172850000Y-59900000D01*
X172850000Y-59900000D02*
X174350000Y-59900000D01*
X173150000Y-58400000D02*
X173150000Y-59600000D01*
X173150000Y-59600000D02*
X172850000Y-59900000D01*
X173150000Y-58400000D02*
X173150000Y-57700000D01*
X173150000Y-57700000D02*
X172900000Y-57450000D01*
X170750000Y-62350000D02*
X170750000Y-59900000D01*
X169250000Y-59900000D02*
X170750000Y-59900000D01*
X169550000Y-58400000D02*
X169550000Y-59600000D01*
X169550000Y-59600000D02*
X169250000Y-59900000D01*
X169550000Y-58400000D02*
X169550000Y-57700000D01*
X169550000Y-57700000D02*
X169300000Y-57450000D01*
X169750000Y-62350000D02*
X169750000Y-61572498D01*
X169750000Y-61572498D02*
X168077502Y-59900000D01*
X168077502Y-59900000D02*
X167700000Y-59900000D01*
X167700000Y-59900000D02*
X167150000Y-59900000D01*
X165650000Y-59900000D02*
X167150000Y-59900000D01*
X165950000Y-58400000D02*
X165950000Y-57700000D01*
X165950000Y-57700000D02*
X165700000Y-57450000D01*
X165950000Y-58400000D02*
X165950000Y-59600000D01*
X165950000Y-59600000D02*
X165650000Y-59900000D01*
X168750000Y-62350000D02*
X168750000Y-61550000D01*
X168750000Y-61550000D02*
X167650001Y-60450001D01*
X167650001Y-60450001D02*
X164650001Y-60450001D01*
X164650001Y-60450001D02*
X164100000Y-59900000D01*
X164100000Y-59900000D02*
X163550000Y-59900000D01*
X162050000Y-59900000D02*
X163550000Y-59900000D01*
X162350000Y-58400000D02*
X162350000Y-59600000D01*
X162350000Y-59600000D02*
X162050000Y-59900000D01*
X162350000Y-58400000D02*
X162350000Y-57700000D01*
X162350000Y-57700000D02*
X162100000Y-57450000D01*
X167750000Y-62350000D02*
X167750000Y-61550000D01*
X167750000Y-61550000D02*
X167100011Y-60900011D01*
X167100011Y-60900011D02*
X161500011Y-60900011D01*
X161500011Y-60900011D02*
X160500000Y-59900000D01*
X160500000Y-59900000D02*
X159950000Y-59900000D01*
X158450000Y-59900000D02*
X159950000Y-59900000D01*
X158750000Y-58400000D02*
X158750000Y-57700000D01*
X158750000Y-57700000D02*
X158500000Y-57450000D01*
X158750000Y-58400000D02*
X158750000Y-59600000D01*
X158750000Y-59600000D02*
X158450000Y-59900000D01*
X166750000Y-62350000D02*
X166750000Y-61572498D01*
X166750000Y-61572498D02*
X166527523Y-61350021D01*
X166527523Y-61350021D02*
X158350021Y-61350021D01*
X158350021Y-61350021D02*
X156900000Y-59900000D01*
X156900000Y-59900000D02*
X156350000Y-59900000D01*
X154850000Y-59900000D02*
X156350000Y-59900000D01*
X155150000Y-58400000D02*
X155150000Y-59600000D01*
X155150000Y-59600000D02*
X154850000Y-59900000D01*
X155150000Y-58400000D02*
X155150000Y-57700000D01*
X155150000Y-57700000D02*
X154900000Y-57450000D01*
X166250000Y-66350031D02*
X161699999Y-61800030D01*
X161699999Y-61800030D02*
X158163620Y-61800030D01*
X166250000Y-68050000D02*
X166250000Y-66350031D01*
X156813591Y-60450001D02*
X153850001Y-60450001D01*
X153850001Y-60450001D02*
X153300000Y-59900000D01*
X153300000Y-59900000D02*
X152750000Y-59900000D01*
X158163620Y-61800030D02*
X156813591Y-60450001D01*
X151250000Y-59900000D02*
X152750000Y-59900000D01*
X151550000Y-58400000D02*
X151550000Y-59600000D01*
X151550000Y-59600000D02*
X151250000Y-59900000D01*
X151550000Y-58400000D02*
X151550000Y-57700000D01*
X151550000Y-57700000D02*
X151300000Y-57450000D01*
X148651930Y-60984124D02*
X148367806Y-60700000D01*
X148367806Y-60700000D02*
X148350000Y-60700000D01*
X167250000Y-68050000D02*
X167250000Y-65829737D01*
X167250000Y-65829737D02*
X164446381Y-63026118D01*
X147950000Y-60700000D02*
X148350000Y-60700000D01*
X148350000Y-60700000D02*
X149150000Y-59900000D01*
X147950000Y-60700000D02*
X147950000Y-61900000D01*
X147950000Y-61900000D02*
X147650000Y-62200000D01*
X147950000Y-60700000D02*
X147950000Y-60000000D01*
X147950000Y-60000000D02*
X147700000Y-59750000D01*
X144800000Y-62400000D02*
X145350000Y-62400000D01*
X145350000Y-62400000D02*
X145550000Y-62200000D01*
X167827199Y-64900019D02*
X167563591Y-64636411D01*
X167563591Y-64636411D02*
X167536411Y-64636411D01*
X167536411Y-64636411D02*
X166300000Y-63400000D01*
X168250000Y-65322820D02*
X167827199Y-64900019D01*
X168250000Y-68050000D02*
X168250000Y-65322820D01*
X144000000Y-62200000D02*
X145550000Y-62200000D01*
X144350000Y-60700000D02*
X144350000Y-60000000D01*
X144350000Y-60000000D02*
X144100000Y-59750000D01*
X144350000Y-60700000D02*
X144350000Y-61850000D01*
X144350000Y-61850000D02*
X144000000Y-62200000D01*
D47*
X186834005Y-59599999D02*
X193900001Y-59599999D01*
X193900001Y-59599999D02*
X196200000Y-57300000D01*
X185234004Y-61200000D02*
X186834005Y-59599999D01*
X183300000Y-61200000D02*
X185234004Y-61200000D01*
X180950000Y-62500000D02*
X182000000Y-62500000D01*
X182000000Y-62500000D02*
X183300000Y-61200000D01*
X191500000Y-54500000D02*
X192600000Y-54500000D01*
D44*
X191500000Y-57050000D02*
X191399998Y-57050000D01*
X191399998Y-57050000D02*
X191100000Y-57349998D01*
D46*
X190300000Y-57050000D02*
X191500000Y-57050000D01*
X188400000Y-58000000D02*
X189350000Y-57050000D01*
X189350000Y-57050000D02*
X190300000Y-57050000D01*
D44*
X193500000Y-57800000D02*
X193500000Y-57500002D01*
X193500000Y-57500002D02*
X192099998Y-56100000D01*
D46*
X181100000Y-70750000D02*
X181100000Y-71600000D01*
X181100000Y-71600000D02*
X179400000Y-73300000D01*
X179400000Y-73300000D02*
X170600000Y-73300000D01*
X170600000Y-73300000D02*
X170300000Y-73000000D01*
X170300000Y-73000000D02*
X169600000Y-73000000D01*
X169600000Y-73000000D02*
X168700000Y-72100000D01*
X168700000Y-72100000D02*
X168400000Y-72100000D01*
D48*
X169900000Y-72549999D02*
X170649999Y-72549999D01*
X170649999Y-72549999D02*
X170800000Y-72700000D01*
X168400000Y-72100000D02*
X169450001Y-72100000D01*
X169450001Y-72100000D02*
X169900000Y-72549999D01*
D46*
X170200000Y-72100000D02*
X169100000Y-72100000D01*
X169100000Y-72100000D02*
X169100000Y-72274426D01*
D44*
X169900000Y-72549999D02*
X169900000Y-72674426D01*
D46*
X188200000Y-75400000D02*
X188200000Y-73600000D01*
X188200000Y-73600000D02*
X183900000Y-69300000D01*
X183900000Y-69300000D02*
X180650000Y-69300000D01*
D44*
X146800000Y-76300000D02*
X146800000Y-76800000D01*
X146800000Y-76800000D02*
X147000000Y-77000000D01*
X176900000Y-65500000D02*
X177800000Y-66400000D01*
X174250000Y-68050000D02*
X174250000Y-68827502D01*
X174250000Y-68827502D02*
X174347499Y-68925001D01*
X174347499Y-68925001D02*
X177524999Y-68925001D01*
X177524999Y-68925001D02*
X177800000Y-68650000D01*
X177800000Y-68650000D02*
X177800000Y-68000000D01*
D46*
X178050000Y-62500000D02*
X178250000Y-62500000D01*
X178250000Y-62500000D02*
X178500000Y-62250000D01*
X178050000Y-62500000D02*
X178050000Y-64850000D01*
X178050000Y-64850000D02*
X178000000Y-64900000D01*
D44*
X182500000Y-55950000D02*
X181350000Y-55950000D01*
X181350000Y-55950000D02*
X181300000Y-55900000D01*
X181300000Y-57500000D02*
X181300000Y-57900000D01*
D46*
X180200000Y-55600000D02*
X178875001Y-54275001D01*
X178875001Y-54275001D02*
X177975001Y-54275001D01*
X177975001Y-54275001D02*
X177574999Y-53874999D01*
X177574999Y-53874999D02*
X176700000Y-53000000D01*
D44*
X180200000Y-55600000D02*
X180200000Y-55850000D01*
X180200000Y-55850000D02*
X180100000Y-55950000D01*
X180100000Y-55950000D02*
X180100000Y-56085002D01*
X180100000Y-56085002D02*
X181300000Y-57285002D01*
X181300000Y-57285002D02*
X181300000Y-57500000D01*
X178900000Y-55950000D02*
X177750000Y-55950000D01*
X177750000Y-55950000D02*
X177700000Y-55900000D01*
X177700000Y-57500000D02*
X177700000Y-57900000D01*
D46*
X176500000Y-55600000D02*
X176500000Y-55300000D01*
X176500000Y-55300000D02*
X174200000Y-53000000D01*
D44*
X176500000Y-55600000D02*
X176500000Y-55950000D01*
X176500000Y-55950000D02*
X176500000Y-56085002D01*
X176500000Y-56085002D02*
X177700000Y-57285002D01*
X177700000Y-57285002D02*
X177700000Y-57500000D01*
X175300000Y-55950000D02*
X174150000Y-55950000D01*
X174150000Y-55950000D02*
X174100000Y-55900000D01*
X174100000Y-57500000D02*
X174100000Y-57900000D01*
D46*
X173000000Y-55600000D02*
X173000000Y-54300000D01*
X173000000Y-54300000D02*
X171700000Y-53000000D01*
D44*
X173000000Y-55600000D02*
X173000000Y-55850000D01*
X173000000Y-55850000D02*
X172900000Y-55950000D01*
X172900000Y-55950000D02*
X172900000Y-56085002D01*
X172900000Y-56085002D02*
X174100000Y-57285002D01*
X174100000Y-57285002D02*
X174100000Y-57500000D01*
X171700000Y-55950000D02*
X170550000Y-55950000D01*
X170550000Y-55950000D02*
X170500000Y-55900000D01*
X170500000Y-57500000D02*
X170500000Y-57907858D01*
X170500000Y-57907858D02*
X170478442Y-57929416D01*
D46*
X169400000Y-55600000D02*
X169400000Y-53200000D01*
X169400000Y-53200000D02*
X169200000Y-53000000D01*
D44*
X169400000Y-55600000D02*
X169400000Y-55850000D01*
X169400000Y-55850000D02*
X169300000Y-55950000D01*
X169300000Y-55950000D02*
X169300000Y-56164998D01*
X169300000Y-56164998D02*
X170500000Y-57364998D01*
X170500000Y-57364998D02*
X170500000Y-57500000D01*
X168100000Y-55950000D02*
X166950000Y-55950000D01*
X166950000Y-55950000D02*
X166900000Y-55900000D01*
X166900000Y-57500000D02*
X166900000Y-57900000D01*
D46*
X165800000Y-55600000D02*
X165800000Y-53900000D01*
X165800000Y-53900000D02*
X166700000Y-53000000D01*
D44*
X165800000Y-55600000D02*
X165800000Y-55850000D01*
X165800000Y-55850000D02*
X165700000Y-55950000D01*
X165700000Y-55950000D02*
X165700000Y-56085002D01*
X165700000Y-56085002D02*
X166900000Y-57285002D01*
X166900000Y-57285002D02*
X166900000Y-57500000D01*
X164500000Y-55950000D02*
X163350000Y-55950000D01*
X163350000Y-55950000D02*
X163300000Y-55900000D01*
X163300000Y-57500000D02*
X163300000Y-57900000D01*
D46*
X162200000Y-55600000D02*
X162200000Y-55000000D01*
X162200000Y-55000000D02*
X164200000Y-53000000D01*
D44*
X162200000Y-55600000D02*
X162200000Y-55850000D01*
X162200000Y-55850000D02*
X162100000Y-55950000D01*
X162100000Y-55950000D02*
X162100000Y-56085002D01*
X162100000Y-56085002D02*
X163300000Y-57285002D01*
X163300000Y-57285002D02*
X163300000Y-57500000D01*
X160900000Y-55950000D02*
X159750000Y-55950000D01*
X159750000Y-55950000D02*
X159700000Y-55900000D01*
X159700000Y-57500000D02*
X159700000Y-57900000D01*
D46*
X159600000Y-54600000D02*
X160100000Y-54600000D01*
X160100000Y-54600000D02*
X161700000Y-53000000D01*
X158600000Y-55600000D02*
X159600000Y-54600000D01*
D44*
X158600000Y-55600000D02*
X158600000Y-55850000D01*
X158600000Y-55850000D02*
X158500000Y-55950000D01*
X158500000Y-55950000D02*
X158500000Y-56085002D01*
X158500000Y-56085002D02*
X159700000Y-57285002D01*
X159700000Y-57285002D02*
X159700000Y-57500000D01*
X157300000Y-55950000D02*
X156150000Y-55950000D01*
X156150000Y-55950000D02*
X156100000Y-55900000D01*
D46*
X155000000Y-55600000D02*
X155500001Y-55099999D01*
X155500001Y-55099999D02*
X157100001Y-55099999D01*
X157100001Y-55099999D02*
X158325001Y-53874999D01*
X158325001Y-53874999D02*
X159200000Y-53000000D01*
D44*
X155000000Y-55600000D02*
X155000000Y-55850000D01*
X155000000Y-55850000D02*
X154900000Y-55950000D01*
X154900000Y-55950000D02*
X154900000Y-56164998D01*
X154900000Y-56164998D02*
X156100000Y-57364998D01*
X156100000Y-57364998D02*
X156100000Y-57500000D01*
X156100000Y-57500000D02*
X156100000Y-57900000D01*
X152500000Y-55900000D02*
X153650000Y-55900000D01*
X153650000Y-55900000D02*
X153700000Y-55950000D01*
D46*
X153548542Y-54500000D02*
X155200000Y-54500000D01*
X155200000Y-54500000D02*
X155825001Y-53874999D01*
X153173531Y-54875011D02*
X153548542Y-54500000D01*
X151400000Y-55600000D02*
X151999990Y-55000010D01*
X151999990Y-55000010D02*
X152448532Y-55000010D01*
X152448532Y-55000010D02*
X152573531Y-54875011D01*
X152573531Y-54875011D02*
X153173531Y-54875011D01*
X155825001Y-53874999D02*
X156700000Y-53000000D01*
D44*
X151400000Y-55600000D02*
X151400000Y-55850000D01*
X151400000Y-55850000D02*
X151300000Y-55950000D01*
X152500000Y-57500000D02*
X152500000Y-57900000D01*
X151300000Y-55950000D02*
X151300000Y-56085002D01*
X151300000Y-56085002D02*
X152500000Y-57285002D01*
X152500000Y-57285002D02*
X152500000Y-57500000D01*
X150100000Y-55950000D02*
X148950000Y-55950000D01*
X148950000Y-55950000D02*
X148900000Y-55900000D01*
X148141573Y-58696052D02*
X148141573Y-58691573D01*
X148141573Y-58691573D02*
X147700000Y-58250000D01*
D46*
X154200000Y-53000000D02*
X152924999Y-54275001D01*
X152924999Y-54275001D02*
X152324999Y-54275001D01*
X152324999Y-54275001D02*
X152200000Y-54400000D01*
X152200000Y-54400000D02*
X148879998Y-54400000D01*
X148879998Y-54400000D02*
X147800000Y-55479998D01*
X147800000Y-55479998D02*
X147800000Y-57900000D01*
D44*
X147800000Y-57900000D02*
X147800000Y-58150000D01*
X147800000Y-58150000D02*
X147700000Y-58250000D01*
X147700000Y-58250000D02*
X148150000Y-58250000D01*
X148150000Y-58250000D02*
X148900000Y-57500000D01*
X146500000Y-58250000D02*
X145350000Y-58250000D01*
X145350000Y-58250000D02*
X145300000Y-58200000D01*
X144300000Y-57900000D02*
X144300000Y-58050000D01*
X144300000Y-58050000D02*
X144100000Y-58250000D01*
X145300000Y-59800000D02*
X145300000Y-60200000D01*
X145300000Y-59800000D02*
X145300000Y-59664998D01*
X145300000Y-59664998D02*
X144100000Y-58464998D01*
X144100000Y-58464998D02*
X144100000Y-58250000D01*
X142850002Y-62500000D02*
X142200000Y-62500000D01*
X142200000Y-62500000D02*
X141900000Y-62200000D01*
X169250000Y-65050000D02*
X169250000Y-64755707D01*
X169250000Y-64755707D02*
X168502850Y-64008557D01*
X169250000Y-67272498D02*
X169250000Y-65050000D01*
X169250000Y-68050000D02*
X169250000Y-67272498D01*
X142900000Y-58250000D02*
X141750000Y-58250000D01*
X141750000Y-58250000D02*
X141700000Y-58200000D01*
D46*
X149200000Y-53000000D02*
X145000001Y-57199999D01*
X145000001Y-57199999D02*
X141179999Y-57199999D01*
X141179999Y-57199999D02*
X140899999Y-57479999D01*
X140899999Y-57479999D02*
X140899999Y-59399999D01*
X140899999Y-59399999D02*
X141400001Y-59900001D01*
X141400001Y-59900001D02*
X141700000Y-60200000D01*
D44*
X141700000Y-59800000D02*
X141700000Y-60200000D01*
D48*
X174200000Y-77200000D02*
X172500000Y-77200000D01*
X172500000Y-77200000D02*
X171600000Y-78100000D01*
X173600000Y-78600000D02*
X172100000Y-78600000D01*
X172100000Y-78600000D02*
X171600000Y-78100000D01*
X174200000Y-78000000D02*
X173600000Y-78600000D01*
D49*
X174200000Y-76400000D02*
X172600000Y-76400000D01*
X174200000Y-78000000D02*
X174200000Y-76400000D01*
X173400000Y-78000000D02*
X174200000Y-78000000D01*
D46*
X171800000Y-78200000D02*
X171800000Y-78010304D01*
X171800000Y-78010304D02*
X171809485Y-78000819D01*
D44*
X150450000Y-80840000D02*
X150450000Y-75885002D01*
X150450000Y-75885002D02*
X152969279Y-73365723D01*
X152969279Y-73365723D02*
X152969279Y-72330721D01*
X152969279Y-72330721D02*
X152799998Y-72161440D01*
X152799998Y-72161440D02*
X152799998Y-72000000D01*
X154671412Y-72300000D02*
X155033058Y-72300000D01*
X155033058Y-72300000D02*
X155258058Y-72075000D01*
X151100000Y-80840000D02*
X151100000Y-75871412D01*
X151100000Y-75871412D02*
X154671412Y-72300000D01*
X155660000Y-69924001D02*
X155385999Y-69924001D01*
X155385999Y-69924001D02*
X154990000Y-70320000D01*
X168065001Y-80109999D02*
X167865001Y-80109999D01*
X167865001Y-80109999D02*
X166750000Y-81225000D01*
X166750000Y-81225000D02*
X166750000Y-81425000D01*
X166750000Y-81425000D02*
X166175000Y-82000000D01*
X166175000Y-82000000D02*
X165975000Y-82000000D01*
X168065001Y-80109999D02*
X168065001Y-77747999D01*
X168065001Y-77747999D02*
X167632003Y-77315001D01*
X167632003Y-77315001D02*
X166597999Y-77315001D01*
X166597999Y-77315001D02*
X166215001Y-76932003D01*
X166215001Y-76932003D02*
X166215001Y-73590735D01*
X166215001Y-73590735D02*
X165674264Y-73049998D01*
X165674264Y-73049998D02*
X165250000Y-73049998D01*
X164199999Y-72749999D02*
X164950001Y-72749999D01*
X164950001Y-72749999D02*
X165250000Y-73049998D01*
X165200000Y-81260274D02*
X165200000Y-81425000D01*
X165200000Y-81425000D02*
X165775000Y-82000000D01*
X165775000Y-82000000D02*
X165975000Y-82000000D01*
X161825000Y-82000000D02*
X163205796Y-82000000D01*
X163205796Y-82000000D02*
X164277560Y-80928236D01*
X164277560Y-80928236D02*
X164867962Y-80928236D01*
X164867962Y-80928236D02*
X165200000Y-81260274D01*
X158300000Y-67780000D02*
X158300000Y-71235002D01*
X160324998Y-72350000D02*
X163800000Y-72350000D01*
X158300000Y-71235002D02*
X158589999Y-71525001D01*
X163800000Y-72350000D02*
X164199999Y-72749999D01*
X158589999Y-71525001D02*
X159499999Y-71525001D01*
X159499999Y-71525001D02*
X160324998Y-72350000D01*
X157000000Y-72900000D02*
X158260000Y-72900000D01*
X158260000Y-72900000D02*
X158300000Y-72860000D01*
X152100000Y-72680001D02*
X151410000Y-71990001D01*
X151410000Y-71990001D02*
X151300000Y-71990001D01*
X152100000Y-73100000D02*
X152100000Y-72680001D01*
X183700000Y-55600000D02*
X183700000Y-55950000D01*
X159800000Y-80350000D02*
X159800000Y-81500000D01*
X179150000Y-67550000D02*
X179150000Y-69300000D01*
X174250000Y-62350000D02*
X174250000Y-63249564D01*
X174250000Y-63249564D02*
X174250001Y-63249565D01*
X182600000Y-57100000D02*
X182600000Y-57350000D01*
X182600000Y-57350000D02*
X182500000Y-57450000D01*
X173250000Y-62350000D02*
X173250000Y-63249563D01*
X173250000Y-63249563D02*
X173249999Y-63249564D01*
X179000000Y-57100000D02*
X179000000Y-57350000D01*
X179000000Y-57350000D02*
X178900000Y-57450000D01*
X172250000Y-62350000D02*
X172250000Y-63249564D01*
X172250000Y-63249564D02*
X172250001Y-63249565D01*
X175400000Y-57100000D02*
X175400000Y-57350000D01*
X175400000Y-57350000D02*
X175300000Y-57450000D01*
X171250000Y-62350000D02*
X171250000Y-63249564D01*
X171250000Y-63249564D02*
X171250001Y-63249565D01*
X171800000Y-57100000D02*
X171800000Y-57350000D01*
X171800000Y-57350000D02*
X171700000Y-57450000D01*
X170250000Y-62350000D02*
X170250000Y-63249563D01*
X170250000Y-63249563D02*
X170250001Y-63249564D01*
X168200000Y-57100000D02*
X168200000Y-57350000D01*
X168200000Y-57350000D02*
X168100000Y-57450000D01*
X169250000Y-62350000D02*
X169250000Y-63249564D01*
X169250000Y-63249564D02*
X169250001Y-63249565D01*
X164600000Y-57100000D02*
X164600000Y-57350000D01*
X164600000Y-57350000D02*
X164500000Y-57450000D01*
X168250000Y-62350000D02*
X168250000Y-63249563D01*
X168250000Y-63249563D02*
X168250001Y-63249564D01*
X161000000Y-57100000D02*
X161000000Y-57350000D01*
X161000000Y-57350000D02*
X160900000Y-57450000D01*
X167250000Y-62350000D02*
X167250000Y-63249563D01*
X167250000Y-63249563D02*
X167250001Y-63249564D01*
X157375000Y-57100000D02*
X157375000Y-57375000D01*
X157375000Y-57375000D02*
X157300000Y-57450000D01*
X166250000Y-62350000D02*
X166000000Y-62600000D01*
X153800000Y-57100000D02*
X153800000Y-57350000D01*
X153800000Y-57350000D02*
X153700000Y-57450000D01*
X166750000Y-68050000D02*
X166750000Y-66213621D01*
X166750000Y-66213621D02*
X163641927Y-63105548D01*
X163641927Y-63105548D02*
X163641927Y-62858073D01*
X150200000Y-57100000D02*
X150200000Y-57350000D01*
X150200000Y-57350000D02*
X150100000Y-57450000D01*
X167750000Y-65800028D02*
X167750000Y-65693327D01*
X167750000Y-65693327D02*
X165226762Y-63170089D01*
X165226762Y-63170089D02*
X165226762Y-62850030D01*
X167750000Y-68050000D02*
X167750000Y-65800028D01*
X146575000Y-59400000D02*
X146575000Y-59675000D01*
X146575000Y-59675000D02*
X146500000Y-59750000D01*
X168013600Y-64450010D02*
X167696952Y-64133362D01*
X167696952Y-64133362D02*
X167696952Y-63913067D01*
X168750000Y-65186410D02*
X168013600Y-64450010D01*
X168750000Y-68050000D02*
X168750000Y-65186410D01*
X143000000Y-59400000D02*
X143000000Y-59650000D01*
X143000000Y-59650000D02*
X142900000Y-59750000D01*
X180150000Y-84500000D02*
X182850000Y-84500000D01*
X182850000Y-84500000D02*
X182900000Y-84550000D01*
X161825000Y-78125000D02*
X162325000Y-78125000D01*
X162325000Y-78125000D02*
X162525000Y-78325000D01*
X162525000Y-78350000D02*
X162525000Y-78325000D01*
X167300000Y-78250000D02*
X166050000Y-78250000D01*
X165975000Y-78325000D02*
X164300487Y-78325000D01*
X166050000Y-78250000D02*
X165975000Y-78325000D01*
X163110599Y-78929686D02*
X162780799Y-78599886D01*
X164300487Y-78325000D02*
X163695801Y-78929686D01*
X163695801Y-78929686D02*
X163110599Y-78929686D01*
X162780799Y-78599886D02*
X162780799Y-78580799D01*
X162780799Y-78580799D02*
X162525000Y-78325000D01*
X162525000Y-78325000D02*
X159775000Y-78325000D01*
X159775000Y-78325000D02*
X158650000Y-77200000D01*
X158650000Y-77200000D02*
X158650000Y-74000000D01*
X160250000Y-76000000D02*
X161989998Y-76000000D01*
X161989998Y-76000000D02*
X163139999Y-77150001D01*
X160424999Y-67568246D02*
X160906521Y-67086724D01*
X160906521Y-67086724D02*
X161582839Y-67086724D01*
X161582839Y-67086724D02*
X161974212Y-67478097D01*
X163800000Y-77450000D02*
X163500001Y-77150001D01*
X163500001Y-77150001D02*
X163139999Y-77150001D01*
X160550000Y-69450000D02*
X160424999Y-69324999D01*
X160424999Y-69324999D02*
X160424999Y-67568246D01*
X160300000Y-69700000D02*
X160550000Y-69450000D01*
X160350003Y-70150000D02*
X160350003Y-69725736D01*
X160350003Y-69725736D02*
X160324267Y-69700000D01*
X160324267Y-69700000D02*
X160300000Y-69700000D01*
X159550000Y-75050000D02*
X159550000Y-76210202D01*
X159550000Y-76210202D02*
X159954799Y-76615001D01*
X159954799Y-76615001D02*
X161706116Y-76615001D01*
X161706116Y-76615001D02*
X163095801Y-78004686D01*
X163095801Y-78004686D02*
X163395800Y-78304685D01*
X159974990Y-67381845D02*
X160710121Y-66646714D01*
X160710121Y-66646714D02*
X162245439Y-66646714D01*
X162245439Y-66646714D02*
X162615598Y-67016873D01*
X159100000Y-69450000D02*
X159300000Y-69450000D01*
X159300000Y-69450000D02*
X159300000Y-69120002D01*
X159300000Y-69120002D02*
X159974989Y-68445013D01*
X159974989Y-68445013D02*
X159974990Y-67381845D01*
X159550000Y-70150000D02*
X159550000Y-69700000D01*
X159550000Y-69700000D02*
X159300000Y-69450000D01*
X159400000Y-69550000D02*
X159300000Y-69450000D01*
X169875000Y-65574998D02*
X169875000Y-64744297D01*
X169875000Y-64744297D02*
X169765462Y-64634759D01*
X169765462Y-64634759D02*
X169765462Y-64402260D01*
X174663912Y-66550000D02*
X170850002Y-66550000D01*
X170850002Y-66550000D02*
X169875000Y-65574998D01*
X175250000Y-68050000D02*
X175250000Y-67136088D01*
X175250000Y-67136088D02*
X174663912Y-66550000D01*
X174850312Y-66099990D02*
X171997832Y-66099990D01*
X171997832Y-66099990D02*
X171341193Y-65443351D01*
X175750000Y-68050000D02*
X175750000Y-66999678D01*
X175750000Y-66999678D02*
X174850312Y-66099990D01*
X172458024Y-65649980D02*
X171408044Y-64600000D01*
X171408044Y-64600000D02*
X171200000Y-64600000D01*
X176250000Y-68050000D02*
X176250000Y-66863268D01*
X176250000Y-66863268D02*
X175036712Y-65649980D01*
X175036712Y-65649980D02*
X172458024Y-65649980D01*
X175223112Y-65199970D02*
X174510172Y-65199970D01*
X174510172Y-65199970D02*
X173179599Y-63869397D01*
X173179599Y-63869397D02*
X171164071Y-63869397D01*
X171164071Y-63869397D02*
X170739807Y-63869397D01*
X159122215Y-63800000D02*
X158782176Y-64140039D01*
X158782176Y-64140039D02*
X156860243Y-64140039D01*
X156860243Y-64140039D02*
X156345201Y-63624997D01*
X156345201Y-63624997D02*
X154975003Y-63624997D01*
X154975003Y-63624997D02*
X154800000Y-63800000D01*
X161443296Y-63800000D02*
X159122215Y-63800000D01*
X161971648Y-64328352D02*
X161443296Y-63800000D01*
X176750000Y-68050000D02*
X176750000Y-66726858D01*
X176750000Y-66726858D02*
X175223112Y-65199970D01*
D48*
X185400000Y-74700000D02*
X185400000Y-76950000D01*
X185400000Y-76950000D02*
X186550000Y-78100000D01*
X186550000Y-78100000D02*
X193000000Y-78100000D01*
X193000000Y-78100000D02*
X194500000Y-79600000D01*
X194500000Y-79600000D02*
X194500000Y-82400000D01*
D46*
X182600000Y-70750000D02*
X182600000Y-72650000D01*
X182600000Y-72650000D02*
X184650000Y-74700000D01*
X184650000Y-74700000D02*
X185400000Y-74700000D01*
D50*
X181800000Y-78200000D02*
X181900000Y-78200000D01*
X181900000Y-78200000D02*
X185400000Y-74700000D01*
D48*
X185000000Y-82400000D02*
X183900000Y-81300000D01*
X183900000Y-81300000D02*
X181550000Y-81300000D01*
X187500000Y-82400000D02*
X185000000Y-82400000D01*
D46*
X178200000Y-80900000D02*
X178200000Y-81100000D01*
X178200000Y-81100000D02*
X178700000Y-81600000D01*
X185800000Y-67100000D02*
X186600000Y-67100000D01*
X184200000Y-67100000D02*
X185000000Y-67100000D01*
X183400000Y-67100000D02*
X184200000Y-66300000D01*
X185100000Y-65000000D02*
X184700000Y-65000000D01*
X184700000Y-65000000D02*
X183400000Y-66300000D01*
D44*
X177350000Y-70750000D02*
X177350000Y-70550000D01*
X177350000Y-70550000D02*
X176774999Y-69974999D01*
X176774999Y-69974999D02*
X171725001Y-69974999D01*
X171725001Y-69974999D02*
X171215003Y-70484997D01*
X171215003Y-70484997D02*
X168815003Y-70484997D01*
X168815003Y-70484997D02*
X168800000Y-70500000D01*
X168800000Y-70500000D02*
X167500000Y-70500000D01*
X178400000Y-70750000D02*
X177350000Y-70750000D01*
X149324000Y-77515000D02*
X149324000Y-77326000D01*
X149324000Y-77326000D02*
X149750000Y-76900000D01*
X171184999Y-69884999D02*
X171269998Y-69800000D01*
X171269998Y-69800000D02*
X171277732Y-69800000D01*
X171277732Y-69800000D02*
X172142627Y-68935105D01*
X172142627Y-68935105D02*
X172825735Y-68935105D01*
X172825735Y-68935105D02*
X173249999Y-68935105D01*
X166799999Y-70100001D02*
X166989797Y-70100001D01*
X166989797Y-70100001D02*
X167204799Y-69884999D01*
X167204799Y-69884999D02*
X171184999Y-69884999D01*
X173249999Y-68935105D02*
X173165105Y-69019999D01*
X166799999Y-70100001D02*
X166500000Y-70400000D01*
X180450000Y-68050000D02*
X180250000Y-68050000D01*
X180250000Y-68050000D02*
X180000000Y-68300000D01*
X173250000Y-68050000D02*
X173250000Y-68935104D01*
X173250000Y-68935104D02*
X173249999Y-68935105D01*
X181800000Y-68250000D02*
X180650000Y-68250000D01*
X180650000Y-68250000D02*
X180450000Y-68050000D01*
X182400000Y-64000000D02*
X182400000Y-63800000D01*
X182400000Y-63800000D02*
X182765001Y-63434999D01*
X182765001Y-63434999D02*
X188024797Y-63434999D01*
X188024797Y-63434999D02*
X188204799Y-63615001D01*
X188204799Y-63615001D02*
X189434999Y-63615001D01*
X189434999Y-63615001D02*
X189750001Y-63299999D01*
X189750001Y-63299999D02*
X190050000Y-63000000D01*
X188200000Y-66200000D02*
X190050000Y-64350000D01*
X190050000Y-64350000D02*
X190050000Y-63000000D01*
X163381695Y-65766695D02*
X163566695Y-65766695D01*
X163566695Y-65766695D02*
X164900000Y-67100000D01*
X148200000Y-68700000D02*
X148200000Y-70310202D01*
X148200000Y-70310202D02*
X150600000Y-72710202D01*
X150600000Y-72710202D02*
X150600000Y-73400000D01*
X148415001Y-68484999D02*
X148200000Y-68700000D01*
X163381695Y-65766695D02*
X156785307Y-65766695D01*
X156785307Y-65766695D02*
X154067003Y-68484999D01*
X154067003Y-68484999D02*
X148415001Y-68484999D01*
X143800000Y-75800000D02*
X145009999Y-74590001D01*
X145009999Y-74590001D02*
X149309999Y-74590001D01*
X149309999Y-74590001D02*
X150500000Y-73400000D01*
X150500000Y-73400000D02*
X150600000Y-73400000D01*
X172500000Y-67800000D02*
X172750000Y-68050000D01*
X174750000Y-68050000D02*
X174750000Y-67272498D01*
X174750000Y-67272498D02*
X174652501Y-67174999D01*
X174652501Y-67174999D02*
X172825001Y-67174999D01*
X172750000Y-67250000D02*
X172750000Y-68050000D01*
X172250000Y-68050000D02*
X172750000Y-68050000D01*
X172500000Y-67250000D02*
X172500000Y-67800000D01*
X172825001Y-67174999D02*
X172750000Y-67250000D01*
X149134990Y-69300000D02*
X149434989Y-69599999D01*
X149434989Y-69599999D02*
X149444989Y-69599999D01*
X149444989Y-69599999D02*
X149559991Y-69715001D01*
X182784999Y-66284999D02*
X182784999Y-65384999D01*
X182784999Y-65384999D02*
X182400000Y-65000000D01*
X158435001Y-66964999D02*
X156209271Y-66964999D01*
X156209271Y-66964999D02*
X153779069Y-69395201D01*
X153779069Y-69395201D02*
X152315001Y-69395201D01*
X152315001Y-69395201D02*
X151995201Y-69715001D01*
X151995201Y-69715001D02*
X149559991Y-69715001D01*
X164200000Y-67900000D02*
X164200000Y-67475736D01*
X164200000Y-67475736D02*
X162930969Y-66206705D01*
X162930969Y-66206705D02*
X159193295Y-66206705D01*
X159193295Y-66206705D02*
X158435001Y-66964999D01*
X187500000Y-68800000D02*
X184189798Y-68800000D01*
X184189798Y-68800000D02*
X182784999Y-67395201D01*
X182784999Y-67395201D02*
X182784999Y-66284999D01*
X187020674Y-61920674D02*
X187420674Y-61920674D01*
X187420674Y-61920674D02*
X188500000Y-63000000D01*
X148250000Y-76900000D02*
X148250000Y-78150000D01*
X148250000Y-78150000D02*
X148400000Y-78300000D01*
X149000000Y-70200000D02*
X150115001Y-71315001D01*
X150115001Y-71315001D02*
X155408261Y-71315001D01*
X155408261Y-71315001D02*
X155873059Y-71779799D01*
X155873059Y-71779799D02*
X155873059Y-73526941D01*
X155873059Y-73526941D02*
X155699999Y-73700001D01*
X155699999Y-73700001D02*
X155400000Y-74000000D01*
X155850000Y-75100000D02*
X155850000Y-74450000D01*
X155850000Y-74450000D02*
X155400000Y-74000000D01*
X169750000Y-68050000D02*
X169750000Y-68935106D01*
D51*
G36*
X197873000Y-52756038D02*
X197865632Y-52773782D01*
X197864370Y-54219874D01*
X197873000Y-54240760D01*
X197873000Y-54873000D01*
X191127000Y-54873000D01*
X191127000Y-50710000D01*
X197873000Y-50710000D01*
X197873000Y-52756038D01*
X197873000Y-52756038D01*
G37*
X197873000Y-52756038D02*
X197865632Y-52773782D01*
X197864370Y-54219874D01*
X197873000Y-54240760D01*
X197873000Y-54873000D01*
X191127000Y-54873000D01*
X191127000Y-50710000D01*
X197873000Y-50710000D01*
X197873000Y-52756038D01*
G36*
X189873000Y-54873000D02*
X184295405Y-54873000D01*
X184230327Y-54807808D01*
X183886799Y-54665162D01*
X183514833Y-54664838D01*
X183171057Y-54806883D01*
X183127000Y-54850863D01*
X183127000Y-50710000D01*
X189873000Y-50710000D01*
X189873000Y-54873000D01*
X189873000Y-54873000D01*
G37*
X189873000Y-54873000D02*
X184295405Y-54873000D01*
X184230327Y-54807808D01*
X183886799Y-54665162D01*
X183514833Y-54664838D01*
X183171057Y-54806883D01*
X183127000Y-54850863D01*
X183127000Y-50710000D01*
X189873000Y-50710000D01*
X189873000Y-54873000D01*
D44*
G36*
X150716674Y-58106327D02*
X150716674Y-58775000D01*
X150746309Y-58932496D01*
X150839389Y-59077146D01*
X150981412Y-59174186D01*
X151000000Y-59177950D01*
X151000000Y-59241674D01*
X150950000Y-59241674D01*
X150792504Y-59271309D01*
X150647854Y-59364389D01*
X150550814Y-59506412D01*
X150516674Y-59675000D01*
X150516674Y-60125000D01*
X150546309Y-60282496D01*
X150639389Y-60427146D01*
X150781412Y-60524186D01*
X150950000Y-60558326D01*
X151550000Y-60558326D01*
X151707496Y-60528691D01*
X151829785Y-60450000D01*
X152172837Y-60450000D01*
X152281412Y-60524186D01*
X152450000Y-60558326D01*
X153050000Y-60558326D01*
X153159840Y-60537658D01*
X153461092Y-60838910D01*
X153639525Y-60958135D01*
X153850001Y-61000001D01*
X156585773Y-61000001D01*
X157352446Y-61766674D01*
X157045000Y-61766674D01*
X156887504Y-61796309D01*
X156742854Y-61889389D01*
X156645814Y-62031412D01*
X156611674Y-62200000D01*
X156611674Y-63154279D01*
X156555677Y-63116863D01*
X156345201Y-63074997D01*
X154975008Y-63074997D01*
X154975003Y-63074996D01*
X154954400Y-63079094D01*
X154944844Y-63075126D01*
X154656421Y-63074874D01*
X154389857Y-63185016D01*
X154185733Y-63388784D01*
X154075126Y-63655156D01*
X154074874Y-63943579D01*
X154185016Y-64210143D01*
X154388784Y-64414267D01*
X154655156Y-64524874D01*
X154943579Y-64525126D01*
X155210143Y-64414984D01*
X155324947Y-64300381D01*
X155324874Y-64383577D01*
X155435016Y-64650141D01*
X155638784Y-64854265D01*
X155905156Y-64964872D01*
X156193579Y-64965124D01*
X156460143Y-64854982D01*
X156664267Y-64651214D01*
X156664327Y-64651069D01*
X156860243Y-64690039D01*
X158324318Y-64690039D01*
X158275126Y-64808508D01*
X158274874Y-65096931D01*
X158324359Y-65216695D01*
X156785307Y-65216695D01*
X156574831Y-65258561D01*
X156396398Y-65377786D01*
X156396396Y-65377789D01*
X155493735Y-66280449D01*
X155414984Y-66089857D01*
X155211216Y-65885733D01*
X154944844Y-65775126D01*
X154656421Y-65774874D01*
X154389857Y-65885016D01*
X154185733Y-66088784D01*
X154075126Y-66355156D01*
X154074874Y-66643579D01*
X154185016Y-66910143D01*
X154388784Y-67114267D01*
X154580366Y-67193818D01*
X153839185Y-67934999D01*
X148415001Y-67934999D01*
X148204525Y-67976865D01*
X148026092Y-68096090D01*
X148026090Y-68096093D01*
X147811091Y-68311091D01*
X147691866Y-68489524D01*
X147650000Y-68700000D01*
X147650000Y-70310202D01*
X147691866Y-70520678D01*
X147811091Y-70699111D01*
X149383689Y-72271709D01*
X149325814Y-72356412D01*
X149291674Y-72525000D01*
X149291674Y-72879833D01*
X149202729Y-72664571D01*
X148837353Y-72298556D01*
X148359721Y-72100226D01*
X147842548Y-72099774D01*
X147364571Y-72297271D01*
X146998556Y-72662647D01*
X146800226Y-73140279D01*
X146799774Y-73657452D01*
X146957841Y-74040001D01*
X145009999Y-74040001D01*
X144799523Y-74081867D01*
X144621090Y-74201092D01*
X143747229Y-75074953D01*
X143656421Y-75074874D01*
X143389857Y-75185016D01*
X143185733Y-75388784D01*
X143075126Y-75655156D01*
X143074874Y-75943579D01*
X143185016Y-76210143D01*
X143388784Y-76414267D01*
X143655156Y-76524874D01*
X143943579Y-76525126D01*
X144210143Y-76414984D01*
X144414267Y-76211216D01*
X144524874Y-75944844D01*
X144524954Y-75852864D01*
X145237817Y-75140001D01*
X149309999Y-75140001D01*
X149520475Y-75098135D01*
X149698908Y-74978910D01*
X149969492Y-74708326D01*
X150848858Y-74708326D01*
X150061091Y-75496093D01*
X149941866Y-75674526D01*
X149900000Y-75885002D01*
X149900000Y-76016674D01*
X149500000Y-76016674D01*
X149342504Y-76046309D01*
X149197854Y-76139389D01*
X149100814Y-76281412D01*
X149066674Y-76450000D01*
X149066674Y-76805508D01*
X149013223Y-76858959D01*
X148933326Y-76891972D01*
X148933326Y-76450000D01*
X148903691Y-76292504D01*
X148810611Y-76147854D01*
X148668588Y-76050814D01*
X148500000Y-76016674D01*
X148000000Y-76016674D01*
X147842504Y-76046309D01*
X147697854Y-76139389D01*
X147628100Y-76241477D01*
X147568588Y-76200814D01*
X147525095Y-76192006D01*
X147525126Y-76156421D01*
X147414984Y-75889857D01*
X147211216Y-75685733D01*
X146944844Y-75575126D01*
X146656421Y-75574874D01*
X146389857Y-75685016D01*
X146185733Y-75888784D01*
X146075126Y-76155156D01*
X146074874Y-76443579D01*
X146166674Y-76665752D01*
X146166674Y-77400000D01*
X146196309Y-77557496D01*
X146289389Y-77702146D01*
X146431412Y-77799186D01*
X146600000Y-77833326D01*
X147400000Y-77833326D01*
X147557496Y-77803691D01*
X147590475Y-77782470D01*
X147566674Y-77900000D01*
X147566674Y-78700000D01*
X147596309Y-78857496D01*
X147689389Y-79002146D01*
X147831412Y-79099186D01*
X148000000Y-79133326D01*
X148517436Y-79133326D01*
X148475143Y-79235177D01*
X148474857Y-79563383D01*
X148600191Y-79866715D01*
X148832065Y-80098993D01*
X149135177Y-80224857D01*
X149141674Y-80224863D01*
X149141674Y-81625000D01*
X149154962Y-81695620D01*
X148864823Y-81575143D01*
X148536617Y-81574857D01*
X148233285Y-81700191D01*
X148001007Y-81932065D01*
X147875143Y-82235177D01*
X147874857Y-82563383D01*
X148000191Y-82866715D01*
X148232065Y-83098993D01*
X148535177Y-83224857D01*
X148863383Y-83225143D01*
X149166715Y-83099809D01*
X149398993Y-82867935D01*
X149524857Y-82564823D01*
X149524858Y-82563383D01*
X152674857Y-82563383D01*
X152800191Y-82866715D01*
X153032065Y-83098993D01*
X153335177Y-83224857D01*
X153663383Y-83225143D01*
X153966715Y-83099809D01*
X154198993Y-82867935D01*
X154324857Y-82564823D01*
X154325143Y-82236617D01*
X154199809Y-81933285D01*
X153967935Y-81701007D01*
X153664823Y-81575143D01*
X153336617Y-81574857D01*
X153033285Y-81700191D01*
X152801007Y-81932065D01*
X152675143Y-82235177D01*
X152674857Y-82563383D01*
X149524858Y-82563383D01*
X149525143Y-82236617D01*
X149440195Y-82031027D01*
X149575000Y-82058326D01*
X150025000Y-82058326D01*
X150128671Y-82038819D01*
X150225000Y-82058326D01*
X150675000Y-82058326D01*
X150778671Y-82038819D01*
X150875000Y-82058326D01*
X151325000Y-82058326D01*
X151428671Y-82038819D01*
X151525000Y-82058326D01*
X151975000Y-82058326D01*
X152132496Y-82028691D01*
X152277146Y-81935611D01*
X152374186Y-81793588D01*
X152408326Y-81625000D01*
X152408326Y-81243579D01*
X156824876Y-81243579D01*
X156935018Y-81510143D01*
X157138786Y-81714267D01*
X157405158Y-81824874D01*
X157693581Y-81825126D01*
X157960145Y-81714984D01*
X158164269Y-81511216D01*
X158274876Y-81244844D01*
X158275128Y-80956421D01*
X158164986Y-80689857D01*
X157961218Y-80485733D01*
X157694846Y-80375126D01*
X157406423Y-80374874D01*
X157139859Y-80485016D01*
X156935735Y-80688784D01*
X156825128Y-80955156D01*
X156824876Y-81243579D01*
X152408326Y-81243579D01*
X152408326Y-80125000D01*
X152397546Y-80067707D01*
X152535177Y-80124857D01*
X152863383Y-80125143D01*
X153166715Y-79999809D01*
X153398993Y-79767935D01*
X153524857Y-79464823D01*
X153525143Y-79136617D01*
X153399809Y-78833285D01*
X153310260Y-78743579D01*
X153474874Y-78743579D01*
X153585016Y-79010143D01*
X153788784Y-79214267D01*
X154055156Y-79324874D01*
X154343579Y-79325126D01*
X154610143Y-79214984D01*
X154814267Y-79011216D01*
X154924874Y-78744844D01*
X154925126Y-78456421D01*
X154814984Y-78189857D01*
X154611216Y-77985733D01*
X154344844Y-77875126D01*
X154056421Y-77874874D01*
X153789857Y-77985016D01*
X153585733Y-78188784D01*
X153475126Y-78455156D01*
X153474874Y-78743579D01*
X153310260Y-78743579D01*
X153167935Y-78601007D01*
X152864823Y-78475143D01*
X152536617Y-78474857D01*
X152233285Y-78600191D01*
X152001007Y-78832065D01*
X151875143Y-79135177D01*
X151874857Y-79463383D01*
X151969185Y-79691674D01*
X151650000Y-79691674D01*
X151650000Y-76099230D01*
X154899230Y-72850000D01*
X155033058Y-72850000D01*
X155243534Y-72808134D01*
X155255710Y-72799999D01*
X155323059Y-72800057D01*
X155323059Y-73274932D01*
X155256421Y-73274874D01*
X154989857Y-73385016D01*
X154785733Y-73588784D01*
X154675126Y-73855156D01*
X154674874Y-74143579D01*
X154785016Y-74410143D01*
X154988784Y-74614267D01*
X155166674Y-74688133D01*
X155166674Y-75550000D01*
X155196309Y-75707496D01*
X155289389Y-75852146D01*
X155431412Y-75949186D01*
X155600000Y-75983326D01*
X156100000Y-75983326D01*
X156257496Y-75953691D01*
X156402146Y-75860611D01*
X156499186Y-75718588D01*
X156533326Y-75550000D01*
X156533326Y-74650000D01*
X156503691Y-74492504D01*
X156410611Y-74347854D01*
X156374817Y-74323397D01*
X156358134Y-74239524D01*
X156238909Y-74061091D01*
X156177818Y-74000000D01*
X156261968Y-73915850D01*
X156381193Y-73737417D01*
X156423060Y-73526941D01*
X156423059Y-73526936D01*
X156423059Y-73348252D01*
X156588784Y-73514267D01*
X156657625Y-73542852D01*
X156734389Y-73662146D01*
X156876412Y-73759186D01*
X157045000Y-73793326D01*
X157950800Y-73793326D01*
X157925126Y-73855156D01*
X157924874Y-74143579D01*
X158035016Y-74410143D01*
X158100000Y-74475241D01*
X158100000Y-77200000D01*
X158141866Y-77410476D01*
X158261091Y-77588909D01*
X159386091Y-78713909D01*
X159564524Y-78833134D01*
X159775000Y-78875000D01*
X161258885Y-78875000D01*
X161300000Y-78883326D01*
X162305509Y-78883326D01*
X162353453Y-78931271D01*
X162391890Y-78988795D01*
X162721688Y-79318592D01*
X162721690Y-79318595D01*
X162863492Y-79413344D01*
X162900123Y-79437820D01*
X163110599Y-79479687D01*
X163110604Y-79479686D01*
X163695801Y-79479686D01*
X163906277Y-79437820D01*
X164084710Y-79318595D01*
X164528305Y-78875000D01*
X165408885Y-78875000D01*
X165450000Y-78883326D01*
X166491201Y-78883326D01*
X166485733Y-78888784D01*
X166375126Y-79155156D01*
X166375046Y-79247136D01*
X166105508Y-79516674D01*
X165450000Y-79516674D01*
X165292504Y-79546309D01*
X165147854Y-79639389D01*
X165089359Y-79725000D01*
X162710253Y-79725000D01*
X162660611Y-79647854D01*
X162518588Y-79550814D01*
X162350000Y-79516674D01*
X161300000Y-79516674D01*
X161283326Y-79519811D01*
X161283326Y-79500000D01*
X161253691Y-79342504D01*
X161160611Y-79197854D01*
X161018588Y-79100814D01*
X160850000Y-79066674D01*
X158750000Y-79066674D01*
X158592504Y-79096309D01*
X158447854Y-79189389D01*
X158350814Y-79331412D01*
X158316674Y-79500000D01*
X158316674Y-81200000D01*
X158346309Y-81357496D01*
X158439389Y-81502146D01*
X158581412Y-81599186D01*
X158750000Y-81633326D01*
X159074883Y-81633326D01*
X159074874Y-81643579D01*
X159185016Y-81910143D01*
X159388784Y-82114267D01*
X159655156Y-82224874D01*
X159943579Y-82225126D01*
X160210143Y-82114984D01*
X160414267Y-81911216D01*
X160524874Y-81644844D01*
X160524884Y-81633326D01*
X160850000Y-81633326D01*
X160876108Y-81628413D01*
X160866674Y-81675000D01*
X160866674Y-82325000D01*
X160896309Y-82482496D01*
X160965531Y-82590070D01*
X160850000Y-82566674D01*
X158750000Y-82566674D01*
X158592504Y-82596309D01*
X158447854Y-82689389D01*
X158350814Y-82831412D01*
X158316674Y-83000000D01*
X158316674Y-84500000D01*
X145208300Y-84500000D01*
X145437572Y-84405267D01*
X146401881Y-83442640D01*
X146924404Y-82184264D01*
X146925593Y-80821714D01*
X146405267Y-79562428D01*
X145442640Y-78598119D01*
X144184264Y-78075596D01*
X142821714Y-78074407D01*
X141562428Y-78594733D01*
X140598119Y-79557360D01*
X140500000Y-79793657D01*
X140500000Y-76843579D01*
X140974874Y-76843579D01*
X141085016Y-77110143D01*
X141288784Y-77314267D01*
X141555156Y-77424874D01*
X141843579Y-77425126D01*
X142110143Y-77314984D01*
X142314267Y-77111216D01*
X142424874Y-76844844D01*
X142425126Y-76556421D01*
X142314984Y-76289857D01*
X142111216Y-76085733D01*
X141844844Y-75975126D01*
X141556421Y-75974874D01*
X141289857Y-76085016D01*
X141085733Y-76288784D01*
X140975126Y-76555156D01*
X140974874Y-76843579D01*
X140500000Y-76843579D01*
X140500000Y-73657452D01*
X141799774Y-73657452D01*
X141997271Y-74135429D01*
X142362647Y-74501444D01*
X142840279Y-74699774D01*
X143357452Y-74700226D01*
X143835429Y-74502729D01*
X144201444Y-74137353D01*
X144399774Y-73659721D01*
X144400226Y-73142548D01*
X144202729Y-72664571D01*
X143837353Y-72298556D01*
X143359721Y-72100226D01*
X142842548Y-72099774D01*
X142364571Y-72297271D01*
X141998556Y-72662647D01*
X141800226Y-73140279D01*
X141799774Y-73657452D01*
X140500000Y-73657452D01*
X140500000Y-70743579D01*
X141374874Y-70743579D01*
X141485016Y-71010143D01*
X141688784Y-71214267D01*
X141955156Y-71324874D01*
X142243579Y-71325126D01*
X142510143Y-71214984D01*
X142714267Y-71011216D01*
X142824874Y-70744844D01*
X142825126Y-70456421D01*
X142714984Y-70189857D01*
X142511216Y-69985733D01*
X142409698Y-69943579D01*
X144174874Y-69943579D01*
X144285016Y-70210143D01*
X144488784Y-70414267D01*
X144755156Y-70524874D01*
X145043579Y-70525126D01*
X145310143Y-70414984D01*
X145514267Y-70211216D01*
X145624874Y-69944844D01*
X145625126Y-69656421D01*
X145514984Y-69389857D01*
X145311216Y-69185733D01*
X145044844Y-69075126D01*
X144756421Y-69074874D01*
X144489857Y-69185016D01*
X144285733Y-69388784D01*
X144175126Y-69655156D01*
X144174874Y-69943579D01*
X142409698Y-69943579D01*
X142244844Y-69875126D01*
X141956421Y-69874874D01*
X141689857Y-69985016D01*
X141485733Y-70188784D01*
X141375126Y-70455156D01*
X141374874Y-70743579D01*
X140500000Y-70743579D01*
X140500000Y-66857452D01*
X141799774Y-66857452D01*
X141997271Y-67335429D01*
X142362647Y-67701444D01*
X142840279Y-67899774D01*
X143357452Y-67900226D01*
X143835429Y-67702729D01*
X144201444Y-67337353D01*
X144350121Y-66979300D01*
X144497271Y-67335429D01*
X144862647Y-67701444D01*
X145340279Y-67899774D01*
X145857452Y-67900226D01*
X146335429Y-67702729D01*
X146701444Y-67337353D01*
X146850121Y-66979300D01*
X146997271Y-67335429D01*
X147362647Y-67701444D01*
X147840279Y-67899774D01*
X148357452Y-67900226D01*
X148835429Y-67702729D01*
X149201444Y-67337353D01*
X149399774Y-66859721D01*
X149400226Y-66342548D01*
X149202729Y-65864571D01*
X148837353Y-65498556D01*
X148359721Y-65300226D01*
X147842548Y-65299774D01*
X147364571Y-65497271D01*
X146998556Y-65862647D01*
X146849879Y-66220700D01*
X146702729Y-65864571D01*
X146337353Y-65498556D01*
X145859721Y-65300226D01*
X145342548Y-65299774D01*
X144864571Y-65497271D01*
X144498556Y-65862647D01*
X144349879Y-66220700D01*
X144202729Y-65864571D01*
X143837353Y-65498556D01*
X143359721Y-65300226D01*
X142842548Y-65299774D01*
X142364571Y-65497271D01*
X141998556Y-65862647D01*
X141800226Y-66340279D01*
X141799774Y-66857452D01*
X140500000Y-66857452D01*
X140500000Y-59883884D01*
X140878392Y-60262275D01*
X140896309Y-60357496D01*
X140989389Y-60502146D01*
X141060456Y-60550704D01*
X141085016Y-60610143D01*
X141288784Y-60814267D01*
X141555156Y-60924874D01*
X141843579Y-60925126D01*
X142110143Y-60814984D01*
X142314267Y-60611216D01*
X142339231Y-60551096D01*
X142402146Y-60510611D01*
X142454952Y-60433326D01*
X143350000Y-60433326D01*
X143505507Y-60404065D01*
X143516674Y-60406327D01*
X143516674Y-61075000D01*
X143546309Y-61232496D01*
X143639389Y-61377146D01*
X143781412Y-61474186D01*
X143800000Y-61477950D01*
X143800000Y-61541674D01*
X143700000Y-61541674D01*
X143625039Y-61555779D01*
X143625126Y-61456421D01*
X143514984Y-61189857D01*
X143311216Y-60985733D01*
X143044844Y-60875126D01*
X142756421Y-60874874D01*
X142489857Y-60985016D01*
X142285733Y-61188784D01*
X142175126Y-61455156D01*
X142175050Y-61541674D01*
X141600000Y-61541674D01*
X141442504Y-61571309D01*
X141297854Y-61664389D01*
X141200814Y-61806412D01*
X141166674Y-61975000D01*
X141166674Y-62425000D01*
X141196309Y-62582496D01*
X141289389Y-62727146D01*
X141431412Y-62824186D01*
X141600000Y-62858326D01*
X141780508Y-62858326D01*
X141811091Y-62888909D01*
X141989524Y-63008134D01*
X142200000Y-63050000D01*
X142374631Y-63050000D01*
X142438786Y-63114267D01*
X142705158Y-63224874D01*
X142993581Y-63225126D01*
X143260145Y-63114984D01*
X143464269Y-62911216D01*
X143507259Y-62807683D01*
X143531412Y-62824186D01*
X143700000Y-62858326D01*
X144233115Y-62858326D01*
X144388784Y-63014267D01*
X144655156Y-63124874D01*
X144943579Y-63125126D01*
X145210143Y-63014984D01*
X145275241Y-62950000D01*
X145350000Y-62950000D01*
X145560476Y-62908134D01*
X145635019Y-62858326D01*
X145850000Y-62858326D01*
X146007496Y-62828691D01*
X146152146Y-62735611D01*
X146249186Y-62593588D01*
X146283326Y-62425000D01*
X146283326Y-61975000D01*
X146253691Y-61817504D01*
X146160611Y-61672854D01*
X146018588Y-61575814D01*
X145850000Y-61541674D01*
X145250000Y-61541674D01*
X145092504Y-61571309D01*
X144970215Y-61650000D01*
X144900000Y-61650000D01*
X144900000Y-61480101D01*
X144907496Y-61478691D01*
X145052146Y-61385611D01*
X145149186Y-61243588D01*
X145183326Y-61075000D01*
X145183326Y-60924899D01*
X145443579Y-60925126D01*
X145710143Y-60814984D01*
X145914267Y-60611216D01*
X145939231Y-60551096D01*
X146002146Y-60510611D01*
X146054952Y-60433326D01*
X146950000Y-60433326D01*
X147105507Y-60404065D01*
X147116674Y-60406327D01*
X147116674Y-61075000D01*
X147146309Y-61232496D01*
X147239389Y-61377146D01*
X147381412Y-61474186D01*
X147400000Y-61477950D01*
X147400000Y-61541674D01*
X147350000Y-61541674D01*
X147192504Y-61571309D01*
X147047854Y-61664389D01*
X146950814Y-61806412D01*
X146916674Y-61975000D01*
X146916674Y-62425000D01*
X146946309Y-62582496D01*
X147039389Y-62727146D01*
X147181412Y-62824186D01*
X147350000Y-62858326D01*
X147950000Y-62858326D01*
X148107496Y-62828691D01*
X148252146Y-62735611D01*
X148349186Y-62593588D01*
X148383326Y-62425000D01*
X148383326Y-62222434D01*
X148458134Y-62110476D01*
X148500000Y-61900000D01*
X148500000Y-61706056D01*
X148507086Y-61708998D01*
X148795509Y-61709250D01*
X149062073Y-61599108D01*
X149266197Y-61395340D01*
X149376804Y-61128968D01*
X149377056Y-60840545D01*
X149266914Y-60573981D01*
X149260381Y-60567437D01*
X149269492Y-60558326D01*
X149450000Y-60558326D01*
X149607496Y-60528691D01*
X149752146Y-60435611D01*
X149849186Y-60293588D01*
X149883326Y-60125000D01*
X149883326Y-59675000D01*
X149853691Y-59517504D01*
X149760611Y-59372854D01*
X149618588Y-59275814D01*
X149450000Y-59241674D01*
X148850000Y-59241674D01*
X148692504Y-59271309D01*
X148556734Y-59358675D01*
X148553691Y-59342504D01*
X148537280Y-59317001D01*
X148551716Y-59311036D01*
X148755840Y-59107268D01*
X148866447Y-58840896D01*
X148866699Y-58552473D01*
X148796131Y-58381687D01*
X148844492Y-58333326D01*
X149300000Y-58333326D01*
X149457496Y-58303691D01*
X149602146Y-58210611D01*
X149654952Y-58133326D01*
X150550000Y-58133326D01*
X150705507Y-58104065D01*
X150716674Y-58106327D01*
X150716674Y-58106327D01*
G37*
X150716674Y-58106327D02*
X150716674Y-58775000D01*
X150746309Y-58932496D01*
X150839389Y-59077146D01*
X150981412Y-59174186D01*
X151000000Y-59177950D01*
X151000000Y-59241674D01*
X150950000Y-59241674D01*
X150792504Y-59271309D01*
X150647854Y-59364389D01*
X150550814Y-59506412D01*
X150516674Y-59675000D01*
X150516674Y-60125000D01*
X150546309Y-60282496D01*
X150639389Y-60427146D01*
X150781412Y-60524186D01*
X150950000Y-60558326D01*
X151550000Y-60558326D01*
X151707496Y-60528691D01*
X151829785Y-60450000D01*
X152172837Y-60450000D01*
X152281412Y-60524186D01*
X152450000Y-60558326D01*
X153050000Y-60558326D01*
X153159840Y-60537658D01*
X153461092Y-60838910D01*
X153639525Y-60958135D01*
X153850001Y-61000001D01*
X156585773Y-61000001D01*
X157352446Y-61766674D01*
X157045000Y-61766674D01*
X156887504Y-61796309D01*
X156742854Y-61889389D01*
X156645814Y-62031412D01*
X156611674Y-62200000D01*
X156611674Y-63154279D01*
X156555677Y-63116863D01*
X156345201Y-63074997D01*
X154975008Y-63074997D01*
X154975003Y-63074996D01*
X154954400Y-63079094D01*
X154944844Y-63075126D01*
X154656421Y-63074874D01*
X154389857Y-63185016D01*
X154185733Y-63388784D01*
X154075126Y-63655156D01*
X154074874Y-63943579D01*
X154185016Y-64210143D01*
X154388784Y-64414267D01*
X154655156Y-64524874D01*
X154943579Y-64525126D01*
X155210143Y-64414984D01*
X155324947Y-64300381D01*
X155324874Y-64383577D01*
X155435016Y-64650141D01*
X155638784Y-64854265D01*
X155905156Y-64964872D01*
X156193579Y-64965124D01*
X156460143Y-64854982D01*
X156664267Y-64651214D01*
X156664327Y-64651069D01*
X156860243Y-64690039D01*
X158324318Y-64690039D01*
X158275126Y-64808508D01*
X158274874Y-65096931D01*
X158324359Y-65216695D01*
X156785307Y-65216695D01*
X156574831Y-65258561D01*
X156396398Y-65377786D01*
X156396396Y-65377789D01*
X155493735Y-66280449D01*
X155414984Y-66089857D01*
X155211216Y-65885733D01*
X154944844Y-65775126D01*
X154656421Y-65774874D01*
X154389857Y-65885016D01*
X154185733Y-66088784D01*
X154075126Y-66355156D01*
X154074874Y-66643579D01*
X154185016Y-66910143D01*
X154388784Y-67114267D01*
X154580366Y-67193818D01*
X153839185Y-67934999D01*
X148415001Y-67934999D01*
X148204525Y-67976865D01*
X148026092Y-68096090D01*
X148026090Y-68096093D01*
X147811091Y-68311091D01*
X147691866Y-68489524D01*
X147650000Y-68700000D01*
X147650000Y-70310202D01*
X147691866Y-70520678D01*
X147811091Y-70699111D01*
X149383689Y-72271709D01*
X149325814Y-72356412D01*
X149291674Y-72525000D01*
X149291674Y-72879833D01*
X149202729Y-72664571D01*
X148837353Y-72298556D01*
X148359721Y-72100226D01*
X147842548Y-72099774D01*
X147364571Y-72297271D01*
X146998556Y-72662647D01*
X146800226Y-73140279D01*
X146799774Y-73657452D01*
X146957841Y-74040001D01*
X145009999Y-74040001D01*
X144799523Y-74081867D01*
X144621090Y-74201092D01*
X143747229Y-75074953D01*
X143656421Y-75074874D01*
X143389857Y-75185016D01*
X143185733Y-75388784D01*
X143075126Y-75655156D01*
X143074874Y-75943579D01*
X143185016Y-76210143D01*
X143388784Y-76414267D01*
X143655156Y-76524874D01*
X143943579Y-76525126D01*
X144210143Y-76414984D01*
X144414267Y-76211216D01*
X144524874Y-75944844D01*
X144524954Y-75852864D01*
X145237817Y-75140001D01*
X149309999Y-75140001D01*
X149520475Y-75098135D01*
X149698908Y-74978910D01*
X149969492Y-74708326D01*
X150848858Y-74708326D01*
X150061091Y-75496093D01*
X149941866Y-75674526D01*
X149900000Y-75885002D01*
X149900000Y-76016674D01*
X149500000Y-76016674D01*
X149342504Y-76046309D01*
X149197854Y-76139389D01*
X149100814Y-76281412D01*
X149066674Y-76450000D01*
X149066674Y-76805508D01*
X149013223Y-76858959D01*
X148933326Y-76891972D01*
X148933326Y-76450000D01*
X148903691Y-76292504D01*
X148810611Y-76147854D01*
X148668588Y-76050814D01*
X148500000Y-76016674D01*
X148000000Y-76016674D01*
X147842504Y-76046309D01*
X147697854Y-76139389D01*
X147628100Y-76241477D01*
X147568588Y-76200814D01*
X147525095Y-76192006D01*
X147525126Y-76156421D01*
X147414984Y-75889857D01*
X147211216Y-75685733D01*
X146944844Y-75575126D01*
X146656421Y-75574874D01*
X146389857Y-75685016D01*
X146185733Y-75888784D01*
X146075126Y-76155156D01*
X146074874Y-76443579D01*
X146166674Y-76665752D01*
X146166674Y-77400000D01*
X146196309Y-77557496D01*
X146289389Y-77702146D01*
X146431412Y-77799186D01*
X146600000Y-77833326D01*
X147400000Y-77833326D01*
X147557496Y-77803691D01*
X147590475Y-77782470D01*
X147566674Y-77900000D01*
X147566674Y-78700000D01*
X147596309Y-78857496D01*
X147689389Y-79002146D01*
X147831412Y-79099186D01*
X148000000Y-79133326D01*
X148517436Y-79133326D01*
X148475143Y-79235177D01*
X148474857Y-79563383D01*
X148600191Y-79866715D01*
X148832065Y-80098993D01*
X149135177Y-80224857D01*
X149141674Y-80224863D01*
X149141674Y-81625000D01*
X149154962Y-81695620D01*
X148864823Y-81575143D01*
X148536617Y-81574857D01*
X148233285Y-81700191D01*
X148001007Y-81932065D01*
X147875143Y-82235177D01*
X147874857Y-82563383D01*
X148000191Y-82866715D01*
X148232065Y-83098993D01*
X148535177Y-83224857D01*
X148863383Y-83225143D01*
X149166715Y-83099809D01*
X149398993Y-82867935D01*
X149524857Y-82564823D01*
X149524858Y-82563383D01*
X152674857Y-82563383D01*
X152800191Y-82866715D01*
X153032065Y-83098993D01*
X153335177Y-83224857D01*
X153663383Y-83225143D01*
X153966715Y-83099809D01*
X154198993Y-82867935D01*
X154324857Y-82564823D01*
X154325143Y-82236617D01*
X154199809Y-81933285D01*
X153967935Y-81701007D01*
X153664823Y-81575143D01*
X153336617Y-81574857D01*
X153033285Y-81700191D01*
X152801007Y-81932065D01*
X152675143Y-82235177D01*
X152674857Y-82563383D01*
X149524858Y-82563383D01*
X149525143Y-82236617D01*
X149440195Y-82031027D01*
X149575000Y-82058326D01*
X150025000Y-82058326D01*
X150128671Y-82038819D01*
X150225000Y-82058326D01*
X150675000Y-82058326D01*
X150778671Y-82038819D01*
X150875000Y-82058326D01*
X151325000Y-82058326D01*
X151428671Y-82038819D01*
X151525000Y-82058326D01*
X151975000Y-82058326D01*
X152132496Y-82028691D01*
X152277146Y-81935611D01*
X152374186Y-81793588D01*
X152408326Y-81625000D01*
X152408326Y-81243579D01*
X156824876Y-81243579D01*
X156935018Y-81510143D01*
X157138786Y-81714267D01*
X157405158Y-81824874D01*
X157693581Y-81825126D01*
X157960145Y-81714984D01*
X158164269Y-81511216D01*
X158274876Y-81244844D01*
X158275128Y-80956421D01*
X158164986Y-80689857D01*
X157961218Y-80485733D01*
X157694846Y-80375126D01*
X157406423Y-80374874D01*
X157139859Y-80485016D01*
X156935735Y-80688784D01*
X156825128Y-80955156D01*
X156824876Y-81243579D01*
X152408326Y-81243579D01*
X152408326Y-80125000D01*
X152397546Y-80067707D01*
X152535177Y-80124857D01*
X152863383Y-80125143D01*
X153166715Y-79999809D01*
X153398993Y-79767935D01*
X153524857Y-79464823D01*
X153525143Y-79136617D01*
X153399809Y-78833285D01*
X153310260Y-78743579D01*
X153474874Y-78743579D01*
X153585016Y-79010143D01*
X153788784Y-79214267D01*
X154055156Y-79324874D01*
X154343579Y-79325126D01*
X154610143Y-79214984D01*
X154814267Y-79011216D01*
X154924874Y-78744844D01*
X154925126Y-78456421D01*
X154814984Y-78189857D01*
X154611216Y-77985733D01*
X154344844Y-77875126D01*
X154056421Y-77874874D01*
X153789857Y-77985016D01*
X153585733Y-78188784D01*
X153475126Y-78455156D01*
X153474874Y-78743579D01*
X153310260Y-78743579D01*
X153167935Y-78601007D01*
X152864823Y-78475143D01*
X152536617Y-78474857D01*
X152233285Y-78600191D01*
X152001007Y-78832065D01*
X151875143Y-79135177D01*
X151874857Y-79463383D01*
X151969185Y-79691674D01*
X151650000Y-79691674D01*
X151650000Y-76099230D01*
X154899230Y-72850000D01*
X155033058Y-72850000D01*
X155243534Y-72808134D01*
X155255710Y-72799999D01*
X155323059Y-72800057D01*
X155323059Y-73274932D01*
X155256421Y-73274874D01*
X154989857Y-73385016D01*
X154785733Y-73588784D01*
X154675126Y-73855156D01*
X154674874Y-74143579D01*
X154785016Y-74410143D01*
X154988784Y-74614267D01*
X155166674Y-74688133D01*
X155166674Y-75550000D01*
X155196309Y-75707496D01*
X155289389Y-75852146D01*
X155431412Y-75949186D01*
X155600000Y-75983326D01*
X156100000Y-75983326D01*
X156257496Y-75953691D01*
X156402146Y-75860611D01*
X156499186Y-75718588D01*
X156533326Y-75550000D01*
X156533326Y-74650000D01*
X156503691Y-74492504D01*
X156410611Y-74347854D01*
X156374817Y-74323397D01*
X156358134Y-74239524D01*
X156238909Y-74061091D01*
X156177818Y-74000000D01*
X156261968Y-73915850D01*
X156381193Y-73737417D01*
X156423060Y-73526941D01*
X156423059Y-73526936D01*
X156423059Y-73348252D01*
X156588784Y-73514267D01*
X156657625Y-73542852D01*
X156734389Y-73662146D01*
X156876412Y-73759186D01*
X157045000Y-73793326D01*
X157950800Y-73793326D01*
X157925126Y-73855156D01*
X157924874Y-74143579D01*
X158035016Y-74410143D01*
X158100000Y-74475241D01*
X158100000Y-77200000D01*
X158141866Y-77410476D01*
X158261091Y-77588909D01*
X159386091Y-78713909D01*
X159564524Y-78833134D01*
X159775000Y-78875000D01*
X161258885Y-78875000D01*
X161300000Y-78883326D01*
X162305509Y-78883326D01*
X162353453Y-78931271D01*
X162391890Y-78988795D01*
X162721688Y-79318592D01*
X162721690Y-79318595D01*
X162863492Y-79413344D01*
X162900123Y-79437820D01*
X163110599Y-79479687D01*
X163110604Y-79479686D01*
X163695801Y-79479686D01*
X163906277Y-79437820D01*
X164084710Y-79318595D01*
X164528305Y-78875000D01*
X165408885Y-78875000D01*
X165450000Y-78883326D01*
X166491201Y-78883326D01*
X166485733Y-78888784D01*
X166375126Y-79155156D01*
X166375046Y-79247136D01*
X166105508Y-79516674D01*
X165450000Y-79516674D01*
X165292504Y-79546309D01*
X165147854Y-79639389D01*
X165089359Y-79725000D01*
X162710253Y-79725000D01*
X162660611Y-79647854D01*
X162518588Y-79550814D01*
X162350000Y-79516674D01*
X161300000Y-79516674D01*
X161283326Y-79519811D01*
X161283326Y-79500000D01*
X161253691Y-79342504D01*
X161160611Y-79197854D01*
X161018588Y-79100814D01*
X160850000Y-79066674D01*
X158750000Y-79066674D01*
X158592504Y-79096309D01*
X158447854Y-79189389D01*
X158350814Y-79331412D01*
X158316674Y-79500000D01*
X158316674Y-81200000D01*
X158346309Y-81357496D01*
X158439389Y-81502146D01*
X158581412Y-81599186D01*
X158750000Y-81633326D01*
X159074883Y-81633326D01*
X159074874Y-81643579D01*
X159185016Y-81910143D01*
X159388784Y-82114267D01*
X159655156Y-82224874D01*
X159943579Y-82225126D01*
X160210143Y-82114984D01*
X160414267Y-81911216D01*
X160524874Y-81644844D01*
X160524884Y-81633326D01*
X160850000Y-81633326D01*
X160876108Y-81628413D01*
X160866674Y-81675000D01*
X160866674Y-82325000D01*
X160896309Y-82482496D01*
X160965531Y-82590070D01*
X160850000Y-82566674D01*
X158750000Y-82566674D01*
X158592504Y-82596309D01*
X158447854Y-82689389D01*
X158350814Y-82831412D01*
X158316674Y-83000000D01*
X158316674Y-84500000D01*
X145208300Y-84500000D01*
X145437572Y-84405267D01*
X146401881Y-83442640D01*
X146924404Y-82184264D01*
X146925593Y-80821714D01*
X146405267Y-79562428D01*
X145442640Y-78598119D01*
X144184264Y-78075596D01*
X142821714Y-78074407D01*
X141562428Y-78594733D01*
X140598119Y-79557360D01*
X140500000Y-79793657D01*
X140500000Y-76843579D01*
X140974874Y-76843579D01*
X141085016Y-77110143D01*
X141288784Y-77314267D01*
X141555156Y-77424874D01*
X141843579Y-77425126D01*
X142110143Y-77314984D01*
X142314267Y-77111216D01*
X142424874Y-76844844D01*
X142425126Y-76556421D01*
X142314984Y-76289857D01*
X142111216Y-76085733D01*
X141844844Y-75975126D01*
X141556421Y-75974874D01*
X141289857Y-76085016D01*
X141085733Y-76288784D01*
X140975126Y-76555156D01*
X140974874Y-76843579D01*
X140500000Y-76843579D01*
X140500000Y-73657452D01*
X141799774Y-73657452D01*
X141997271Y-74135429D01*
X142362647Y-74501444D01*
X142840279Y-74699774D01*
X143357452Y-74700226D01*
X143835429Y-74502729D01*
X144201444Y-74137353D01*
X144399774Y-73659721D01*
X144400226Y-73142548D01*
X144202729Y-72664571D01*
X143837353Y-72298556D01*
X143359721Y-72100226D01*
X142842548Y-72099774D01*
X142364571Y-72297271D01*
X141998556Y-72662647D01*
X141800226Y-73140279D01*
X141799774Y-73657452D01*
X140500000Y-73657452D01*
X140500000Y-70743579D01*
X141374874Y-70743579D01*
X141485016Y-71010143D01*
X141688784Y-71214267D01*
X141955156Y-71324874D01*
X142243579Y-71325126D01*
X142510143Y-71214984D01*
X142714267Y-71011216D01*
X142824874Y-70744844D01*
X142825126Y-70456421D01*
X142714984Y-70189857D01*
X142511216Y-69985733D01*
X142409698Y-69943579D01*
X144174874Y-69943579D01*
X144285016Y-70210143D01*
X144488784Y-70414267D01*
X144755156Y-70524874D01*
X145043579Y-70525126D01*
X145310143Y-70414984D01*
X145514267Y-70211216D01*
X145624874Y-69944844D01*
X145625126Y-69656421D01*
X145514984Y-69389857D01*
X145311216Y-69185733D01*
X145044844Y-69075126D01*
X144756421Y-69074874D01*
X144489857Y-69185016D01*
X144285733Y-69388784D01*
X144175126Y-69655156D01*
X144174874Y-69943579D01*
X142409698Y-69943579D01*
X142244844Y-69875126D01*
X141956421Y-69874874D01*
X141689857Y-69985016D01*
X141485733Y-70188784D01*
X141375126Y-70455156D01*
X141374874Y-70743579D01*
X140500000Y-70743579D01*
X140500000Y-66857452D01*
X141799774Y-66857452D01*
X141997271Y-67335429D01*
X142362647Y-67701444D01*
X142840279Y-67899774D01*
X143357452Y-67900226D01*
X143835429Y-67702729D01*
X144201444Y-67337353D01*
X144350121Y-66979300D01*
X144497271Y-67335429D01*
X144862647Y-67701444D01*
X145340279Y-67899774D01*
X145857452Y-67900226D01*
X146335429Y-67702729D01*
X146701444Y-67337353D01*
X146850121Y-66979300D01*
X146997271Y-67335429D01*
X147362647Y-67701444D01*
X147840279Y-67899774D01*
X148357452Y-67900226D01*
X148835429Y-67702729D01*
X149201444Y-67337353D01*
X149399774Y-66859721D01*
X149400226Y-66342548D01*
X149202729Y-65864571D01*
X148837353Y-65498556D01*
X148359721Y-65300226D01*
X147842548Y-65299774D01*
X147364571Y-65497271D01*
X146998556Y-65862647D01*
X146849879Y-66220700D01*
X146702729Y-65864571D01*
X146337353Y-65498556D01*
X145859721Y-65300226D01*
X145342548Y-65299774D01*
X144864571Y-65497271D01*
X144498556Y-65862647D01*
X144349879Y-66220700D01*
X144202729Y-65864571D01*
X143837353Y-65498556D01*
X143359721Y-65300226D01*
X142842548Y-65299774D01*
X142364571Y-65497271D01*
X141998556Y-65862647D01*
X141800226Y-66340279D01*
X141799774Y-66857452D01*
X140500000Y-66857452D01*
X140500000Y-59883884D01*
X140878392Y-60262275D01*
X140896309Y-60357496D01*
X140989389Y-60502146D01*
X141060456Y-60550704D01*
X141085016Y-60610143D01*
X141288784Y-60814267D01*
X141555156Y-60924874D01*
X141843579Y-60925126D01*
X142110143Y-60814984D01*
X142314267Y-60611216D01*
X142339231Y-60551096D01*
X142402146Y-60510611D01*
X142454952Y-60433326D01*
X143350000Y-60433326D01*
X143505507Y-60404065D01*
X143516674Y-60406327D01*
X143516674Y-61075000D01*
X143546309Y-61232496D01*
X143639389Y-61377146D01*
X143781412Y-61474186D01*
X143800000Y-61477950D01*
X143800000Y-61541674D01*
X143700000Y-61541674D01*
X143625039Y-61555779D01*
X143625126Y-61456421D01*
X143514984Y-61189857D01*
X143311216Y-60985733D01*
X143044844Y-60875126D01*
X142756421Y-60874874D01*
X142489857Y-60985016D01*
X142285733Y-61188784D01*
X142175126Y-61455156D01*
X142175050Y-61541674D01*
X141600000Y-61541674D01*
X141442504Y-61571309D01*
X141297854Y-61664389D01*
X141200814Y-61806412D01*
X141166674Y-61975000D01*
X141166674Y-62425000D01*
X141196309Y-62582496D01*
X141289389Y-62727146D01*
X141431412Y-62824186D01*
X141600000Y-62858326D01*
X141780508Y-62858326D01*
X141811091Y-62888909D01*
X141989524Y-63008134D01*
X142200000Y-63050000D01*
X142374631Y-63050000D01*
X142438786Y-63114267D01*
X142705158Y-63224874D01*
X142993581Y-63225126D01*
X143260145Y-63114984D01*
X143464269Y-62911216D01*
X143507259Y-62807683D01*
X143531412Y-62824186D01*
X143700000Y-62858326D01*
X144233115Y-62858326D01*
X144388784Y-63014267D01*
X144655156Y-63124874D01*
X144943579Y-63125126D01*
X145210143Y-63014984D01*
X145275241Y-62950000D01*
X145350000Y-62950000D01*
X145560476Y-62908134D01*
X145635019Y-62858326D01*
X145850000Y-62858326D01*
X146007496Y-62828691D01*
X146152146Y-62735611D01*
X146249186Y-62593588D01*
X146283326Y-62425000D01*
X146283326Y-61975000D01*
X146253691Y-61817504D01*
X146160611Y-61672854D01*
X146018588Y-61575814D01*
X145850000Y-61541674D01*
X145250000Y-61541674D01*
X145092504Y-61571309D01*
X144970215Y-61650000D01*
X144900000Y-61650000D01*
X144900000Y-61480101D01*
X144907496Y-61478691D01*
X145052146Y-61385611D01*
X145149186Y-61243588D01*
X145183326Y-61075000D01*
X145183326Y-60924899D01*
X145443579Y-60925126D01*
X145710143Y-60814984D01*
X145914267Y-60611216D01*
X145939231Y-60551096D01*
X146002146Y-60510611D01*
X146054952Y-60433326D01*
X146950000Y-60433326D01*
X147105507Y-60404065D01*
X147116674Y-60406327D01*
X147116674Y-61075000D01*
X147146309Y-61232496D01*
X147239389Y-61377146D01*
X147381412Y-61474186D01*
X147400000Y-61477950D01*
X147400000Y-61541674D01*
X147350000Y-61541674D01*
X147192504Y-61571309D01*
X147047854Y-61664389D01*
X146950814Y-61806412D01*
X146916674Y-61975000D01*
X146916674Y-62425000D01*
X146946309Y-62582496D01*
X147039389Y-62727146D01*
X147181412Y-62824186D01*
X147350000Y-62858326D01*
X147950000Y-62858326D01*
X148107496Y-62828691D01*
X148252146Y-62735611D01*
X148349186Y-62593588D01*
X148383326Y-62425000D01*
X148383326Y-62222434D01*
X148458134Y-62110476D01*
X148500000Y-61900000D01*
X148500000Y-61706056D01*
X148507086Y-61708998D01*
X148795509Y-61709250D01*
X149062073Y-61599108D01*
X149266197Y-61395340D01*
X149376804Y-61128968D01*
X149377056Y-60840545D01*
X149266914Y-60573981D01*
X149260381Y-60567437D01*
X149269492Y-60558326D01*
X149450000Y-60558326D01*
X149607496Y-60528691D01*
X149752146Y-60435611D01*
X149849186Y-60293588D01*
X149883326Y-60125000D01*
X149883326Y-59675000D01*
X149853691Y-59517504D01*
X149760611Y-59372854D01*
X149618588Y-59275814D01*
X149450000Y-59241674D01*
X148850000Y-59241674D01*
X148692504Y-59271309D01*
X148556734Y-59358675D01*
X148553691Y-59342504D01*
X148537280Y-59317001D01*
X148551716Y-59311036D01*
X148755840Y-59107268D01*
X148866447Y-58840896D01*
X148866699Y-58552473D01*
X148796131Y-58381687D01*
X148844492Y-58333326D01*
X149300000Y-58333326D01*
X149457496Y-58303691D01*
X149602146Y-58210611D01*
X149654952Y-58133326D01*
X150550000Y-58133326D01*
X150705507Y-58104065D01*
X150716674Y-58106327D01*
G36*
X182047854Y-69989389D02*
X181950814Y-70131412D01*
X181916674Y-70300000D01*
X181916674Y-71200000D01*
X181946309Y-71357496D01*
X181975000Y-71402083D01*
X181975000Y-72650000D01*
X182022575Y-72889177D01*
X182158058Y-73091942D01*
X182868324Y-73802208D01*
X181003858Y-75666674D01*
X179600000Y-75666674D01*
X179442504Y-75696309D01*
X179297854Y-75789389D01*
X179200814Y-75931412D01*
X179166674Y-76100000D01*
X179166674Y-80074883D01*
X179136617Y-80074857D01*
X178964549Y-80145954D01*
X178553678Y-80153563D01*
X178364823Y-80075143D01*
X178036617Y-80074857D01*
X177812935Y-80167280D01*
X177392131Y-80175073D01*
X177268370Y-80195898D01*
X177121522Y-80278947D01*
X177018555Y-80412585D01*
X176975692Y-80575754D01*
X176934790Y-81291531D01*
X176875143Y-81435177D01*
X176874857Y-81763383D01*
X176903822Y-81833483D01*
X176875692Y-82325754D01*
X176888250Y-82455294D01*
X176961655Y-82607192D01*
X177088374Y-82718564D01*
X177248439Y-82771861D01*
X181688285Y-83314509D01*
X182879387Y-83824981D01*
X182756421Y-83824874D01*
X182489857Y-83935016D01*
X182474847Y-83950000D01*
X180625371Y-83950000D01*
X180561216Y-83885733D01*
X180294844Y-83775126D01*
X180006421Y-83774874D01*
X179739857Y-83885016D01*
X179535733Y-84088784D01*
X179425126Y-84355156D01*
X179424999Y-84500000D01*
X161283326Y-84500000D01*
X161283326Y-83000000D01*
X161253691Y-82842504D01*
X161184469Y-82734930D01*
X161300000Y-82758326D01*
X162350000Y-82758326D01*
X162507496Y-82728691D01*
X162652146Y-82635611D01*
X162710641Y-82550000D01*
X163205796Y-82550000D01*
X163416272Y-82508134D01*
X163594705Y-82388909D01*
X163993974Y-81989640D01*
X164072330Y-82068133D01*
X164016257Y-82203173D01*
X164016005Y-82491596D01*
X164126147Y-82758160D01*
X164281168Y-82913452D01*
X164253478Y-82980136D01*
X164253226Y-83268559D01*
X164363368Y-83535123D01*
X164567136Y-83739247D01*
X164833508Y-83849854D01*
X165121931Y-83850106D01*
X165388495Y-83739964D01*
X165592619Y-83536196D01*
X165703226Y-83269824D01*
X165703478Y-82981401D01*
X165611305Y-82758326D01*
X166500000Y-82758326D01*
X166657496Y-82728691D01*
X166802146Y-82635611D01*
X166899186Y-82493588D01*
X166933326Y-82325000D01*
X166933326Y-82226171D01*
X167014389Y-82352146D01*
X167156412Y-82449186D01*
X167325000Y-82483326D01*
X167532616Y-82483326D01*
X167585016Y-82610143D01*
X167788784Y-82814267D01*
X168055156Y-82924874D01*
X168343579Y-82925126D01*
X168610143Y-82814984D01*
X168814267Y-82611216D01*
X168867371Y-82483326D01*
X169275000Y-82483326D01*
X169432496Y-82453691D01*
X169490837Y-82416149D01*
X169588784Y-82514267D01*
X169855156Y-82624874D01*
X170143579Y-82625126D01*
X170410143Y-82514984D01*
X170614267Y-82311216D01*
X170724874Y-82044844D01*
X170725126Y-81756421D01*
X170614984Y-81489857D01*
X170411216Y-81285733D01*
X170144844Y-81175126D01*
X170010077Y-81175008D01*
X169960476Y-81141866D01*
X169750000Y-81100000D01*
X169680101Y-81100000D01*
X169678691Y-81092504D01*
X169585611Y-80947854D01*
X169443588Y-80850814D01*
X169275000Y-80816674D01*
X168525000Y-80816674D01*
X168367504Y-80846309D01*
X168300293Y-80889559D01*
X168243588Y-80850814D01*
X168075000Y-80816674D01*
X167936143Y-80816674D01*
X168099725Y-80653092D01*
X168275477Y-80618133D01*
X168453910Y-80498908D01*
X168573135Y-80320475D01*
X168615001Y-80109999D01*
X168615001Y-77748004D01*
X168615002Y-77747999D01*
X168573135Y-77537523D01*
X168514654Y-77450000D01*
X168453910Y-77359090D01*
X168453907Y-77359088D01*
X168020912Y-76926092D01*
X167842479Y-76806867D01*
X167632003Y-76765001D01*
X166825817Y-76765001D01*
X166765001Y-76704185D01*
X166765001Y-76100000D01*
X169166674Y-76100000D01*
X169166674Y-80100000D01*
X169196309Y-80257496D01*
X169289389Y-80402146D01*
X169431412Y-80499186D01*
X169600000Y-80533326D01*
X173600000Y-80533326D01*
X173757496Y-80503691D01*
X173902146Y-80410611D01*
X173999186Y-80268588D01*
X174033326Y-80100000D01*
X174033326Y-79401574D01*
X174254074Y-79254074D01*
X174854074Y-78654074D01*
X175054589Y-78353983D01*
X175125000Y-78000000D01*
X175054589Y-77646017D01*
X175025000Y-77601734D01*
X175025000Y-77598265D01*
X175054589Y-77553982D01*
X175125000Y-77200000D01*
X175054589Y-76846018D01*
X175025000Y-76801735D01*
X175025000Y-76400000D01*
X174962201Y-76084286D01*
X174783363Y-75816637D01*
X174515714Y-75637799D01*
X174200000Y-75575000D01*
X172600000Y-75575000D01*
X172284286Y-75637799D01*
X172241072Y-75666674D01*
X169600000Y-75666674D01*
X169442504Y-75696309D01*
X169297854Y-75789389D01*
X169200814Y-75931412D01*
X169166674Y-76100000D01*
X166765001Y-76100000D01*
X166765001Y-73590740D01*
X166765002Y-73590735D01*
X166723135Y-73380259D01*
X166680509Y-73316465D01*
X166603910Y-73201826D01*
X166603907Y-73201824D01*
X166063173Y-72661089D01*
X165884740Y-72541864D01*
X165738033Y-72512682D01*
X165661216Y-72435731D01*
X165394844Y-72325124D01*
X165284939Y-72325028D01*
X165222528Y-72283326D01*
X165600000Y-72283326D01*
X165757496Y-72253691D01*
X165902146Y-72160611D01*
X165999186Y-72018588D01*
X166033326Y-71850000D01*
X166033326Y-70958712D01*
X166088784Y-71014267D01*
X166355156Y-71124874D01*
X166643579Y-71125126D01*
X166910143Y-71014984D01*
X166949978Y-70975218D01*
X167088784Y-71114267D01*
X167355156Y-71224874D01*
X167398055Y-71224911D01*
X167297854Y-71289389D01*
X167200814Y-71431412D01*
X167166674Y-71600000D01*
X167166674Y-72600000D01*
X167196309Y-72757496D01*
X167289389Y-72902146D01*
X167431412Y-72999186D01*
X167600000Y-73033326D01*
X168749442Y-73033326D01*
X169158058Y-73441942D01*
X169360822Y-73577425D01*
X169600000Y-73625000D01*
X170041116Y-73625000D01*
X170158058Y-73741942D01*
X170360822Y-73877425D01*
X170600000Y-73925000D01*
X179400000Y-73925000D01*
X179639177Y-73877425D01*
X179841942Y-73741942D01*
X181541942Y-72041942D01*
X181677425Y-71839177D01*
X181725000Y-71600000D01*
X181725000Y-71403985D01*
X181749186Y-71368588D01*
X181783326Y-71200000D01*
X181783326Y-70300000D01*
X181753691Y-70142504D01*
X181660611Y-69997854D01*
X181553985Y-69925000D01*
X182147917Y-69925000D01*
X182047854Y-69989389D01*
X182047854Y-69989389D01*
G37*
X182047854Y-69989389D02*
X181950814Y-70131412D01*
X181916674Y-70300000D01*
X181916674Y-71200000D01*
X181946309Y-71357496D01*
X181975000Y-71402083D01*
X181975000Y-72650000D01*
X182022575Y-72889177D01*
X182158058Y-73091942D01*
X182868324Y-73802208D01*
X181003858Y-75666674D01*
X179600000Y-75666674D01*
X179442504Y-75696309D01*
X179297854Y-75789389D01*
X179200814Y-75931412D01*
X179166674Y-76100000D01*
X179166674Y-80074883D01*
X179136617Y-80074857D01*
X178964549Y-80145954D01*
X178553678Y-80153563D01*
X178364823Y-80075143D01*
X178036617Y-80074857D01*
X177812935Y-80167280D01*
X177392131Y-80175073D01*
X177268370Y-80195898D01*
X177121522Y-80278947D01*
X177018555Y-80412585D01*
X176975692Y-80575754D01*
X176934790Y-81291531D01*
X176875143Y-81435177D01*
X176874857Y-81763383D01*
X176903822Y-81833483D01*
X176875692Y-82325754D01*
X176888250Y-82455294D01*
X176961655Y-82607192D01*
X177088374Y-82718564D01*
X177248439Y-82771861D01*
X181688285Y-83314509D01*
X182879387Y-83824981D01*
X182756421Y-83824874D01*
X182489857Y-83935016D01*
X182474847Y-83950000D01*
X180625371Y-83950000D01*
X180561216Y-83885733D01*
X180294844Y-83775126D01*
X180006421Y-83774874D01*
X179739857Y-83885016D01*
X179535733Y-84088784D01*
X179425126Y-84355156D01*
X179424999Y-84500000D01*
X161283326Y-84500000D01*
X161283326Y-83000000D01*
X161253691Y-82842504D01*
X161184469Y-82734930D01*
X161300000Y-82758326D01*
X162350000Y-82758326D01*
X162507496Y-82728691D01*
X162652146Y-82635611D01*
X162710641Y-82550000D01*
X163205796Y-82550000D01*
X163416272Y-82508134D01*
X163594705Y-82388909D01*
X163993974Y-81989640D01*
X164072330Y-82068133D01*
X164016257Y-82203173D01*
X164016005Y-82491596D01*
X164126147Y-82758160D01*
X164281168Y-82913452D01*
X164253478Y-82980136D01*
X164253226Y-83268559D01*
X164363368Y-83535123D01*
X164567136Y-83739247D01*
X164833508Y-83849854D01*
X165121931Y-83850106D01*
X165388495Y-83739964D01*
X165592619Y-83536196D01*
X165703226Y-83269824D01*
X165703478Y-82981401D01*
X165611305Y-82758326D01*
X166500000Y-82758326D01*
X166657496Y-82728691D01*
X166802146Y-82635611D01*
X166899186Y-82493588D01*
X166933326Y-82325000D01*
X166933326Y-82226171D01*
X167014389Y-82352146D01*
X167156412Y-82449186D01*
X167325000Y-82483326D01*
X167532616Y-82483326D01*
X167585016Y-82610143D01*
X167788784Y-82814267D01*
X168055156Y-82924874D01*
X168343579Y-82925126D01*
X168610143Y-82814984D01*
X168814267Y-82611216D01*
X168867371Y-82483326D01*
X169275000Y-82483326D01*
X169432496Y-82453691D01*
X169490837Y-82416149D01*
X169588784Y-82514267D01*
X169855156Y-82624874D01*
X170143579Y-82625126D01*
X170410143Y-82514984D01*
X170614267Y-82311216D01*
X170724874Y-82044844D01*
X170725126Y-81756421D01*
X170614984Y-81489857D01*
X170411216Y-81285733D01*
X170144844Y-81175126D01*
X170010077Y-81175008D01*
X169960476Y-81141866D01*
X169750000Y-81100000D01*
X169680101Y-81100000D01*
X169678691Y-81092504D01*
X169585611Y-80947854D01*
X169443588Y-80850814D01*
X169275000Y-80816674D01*
X168525000Y-80816674D01*
X168367504Y-80846309D01*
X168300293Y-80889559D01*
X168243588Y-80850814D01*
X168075000Y-80816674D01*
X167936143Y-80816674D01*
X168099725Y-80653092D01*
X168275477Y-80618133D01*
X168453910Y-80498908D01*
X168573135Y-80320475D01*
X168615001Y-80109999D01*
X168615001Y-77748004D01*
X168615002Y-77747999D01*
X168573135Y-77537523D01*
X168514654Y-77450000D01*
X168453910Y-77359090D01*
X168453907Y-77359088D01*
X168020912Y-76926092D01*
X167842479Y-76806867D01*
X167632003Y-76765001D01*
X166825817Y-76765001D01*
X166765001Y-76704185D01*
X166765001Y-76100000D01*
X169166674Y-76100000D01*
X169166674Y-80100000D01*
X169196309Y-80257496D01*
X169289389Y-80402146D01*
X169431412Y-80499186D01*
X169600000Y-80533326D01*
X173600000Y-80533326D01*
X173757496Y-80503691D01*
X173902146Y-80410611D01*
X173999186Y-80268588D01*
X174033326Y-80100000D01*
X174033326Y-79401574D01*
X174254074Y-79254074D01*
X174854074Y-78654074D01*
X175054589Y-78353983D01*
X175125000Y-78000000D01*
X175054589Y-77646017D01*
X175025000Y-77601734D01*
X175025000Y-77598265D01*
X175054589Y-77553982D01*
X175125000Y-77200000D01*
X175054589Y-76846018D01*
X175025000Y-76801735D01*
X175025000Y-76400000D01*
X174962201Y-76084286D01*
X174783363Y-75816637D01*
X174515714Y-75637799D01*
X174200000Y-75575000D01*
X172600000Y-75575000D01*
X172284286Y-75637799D01*
X172241072Y-75666674D01*
X169600000Y-75666674D01*
X169442504Y-75696309D01*
X169297854Y-75789389D01*
X169200814Y-75931412D01*
X169166674Y-76100000D01*
X166765001Y-76100000D01*
X166765001Y-73590740D01*
X166765002Y-73590735D01*
X166723135Y-73380259D01*
X166680509Y-73316465D01*
X166603910Y-73201826D01*
X166603907Y-73201824D01*
X166063173Y-72661089D01*
X165884740Y-72541864D01*
X165738033Y-72512682D01*
X165661216Y-72435731D01*
X165394844Y-72325124D01*
X165284939Y-72325028D01*
X165222528Y-72283326D01*
X165600000Y-72283326D01*
X165757496Y-72253691D01*
X165902146Y-72160611D01*
X165999186Y-72018588D01*
X166033326Y-71850000D01*
X166033326Y-70958712D01*
X166088784Y-71014267D01*
X166355156Y-71124874D01*
X166643579Y-71125126D01*
X166910143Y-71014984D01*
X166949978Y-70975218D01*
X167088784Y-71114267D01*
X167355156Y-71224874D01*
X167398055Y-71224911D01*
X167297854Y-71289389D01*
X167200814Y-71431412D01*
X167166674Y-71600000D01*
X167166674Y-72600000D01*
X167196309Y-72757496D01*
X167289389Y-72902146D01*
X167431412Y-72999186D01*
X167600000Y-73033326D01*
X168749442Y-73033326D01*
X169158058Y-73441942D01*
X169360822Y-73577425D01*
X169600000Y-73625000D01*
X170041116Y-73625000D01*
X170158058Y-73741942D01*
X170360822Y-73877425D01*
X170600000Y-73925000D01*
X179400000Y-73925000D01*
X179639177Y-73877425D01*
X179841942Y-73741942D01*
X181541942Y-72041942D01*
X181677425Y-71839177D01*
X181725000Y-71600000D01*
X181725000Y-71403985D01*
X181749186Y-71368588D01*
X181783326Y-71200000D01*
X181783326Y-70300000D01*
X181753691Y-70142504D01*
X181660611Y-69997854D01*
X181553985Y-69925000D01*
X182147917Y-69925000D01*
X182047854Y-69989389D01*
G36*
X192575000Y-84450000D02*
X192584408Y-84500000D01*
X189414875Y-84500000D01*
X189425000Y-84450000D01*
X189425000Y-80150000D01*
X189420296Y-80125000D01*
X192575000Y-80125000D01*
X192575000Y-84450000D01*
X192575000Y-84450000D01*
G37*
X192575000Y-84450000D02*
X192584408Y-84500000D01*
X189414875Y-84500000D01*
X189425000Y-84450000D01*
X189425000Y-80150000D01*
X189420296Y-80125000D01*
X192575000Y-80125000D01*
X192575000Y-84450000D01*
G36*
X204500000Y-79791700D02*
X204405267Y-79562428D01*
X203442640Y-78598119D01*
X202184264Y-78075596D01*
X200821714Y-78074407D01*
X199562428Y-78594733D01*
X198598119Y-79557360D01*
X198075596Y-80815736D01*
X198074407Y-82178286D01*
X198594733Y-83437572D01*
X199557360Y-84401881D01*
X199793657Y-84500000D01*
X196414875Y-84500000D01*
X196425000Y-84450000D01*
X196425000Y-78750000D01*
X196393763Y-78590076D01*
X196300520Y-78449480D01*
X194300520Y-76449480D01*
X194165349Y-76358484D01*
X194000000Y-76325000D01*
X188776040Y-76325000D01*
X188508162Y-76057122D01*
X188610143Y-76014984D01*
X188814267Y-75811216D01*
X188924874Y-75544844D01*
X188925126Y-75256421D01*
X188825000Y-75014098D01*
X188825000Y-73600000D01*
X188807340Y-73511216D01*
X188777425Y-73360822D01*
X188641942Y-73158058D01*
X188127463Y-72643579D01*
X192074874Y-72643579D01*
X192185016Y-72910143D01*
X192388784Y-73114267D01*
X192655156Y-73224874D01*
X192943579Y-73225126D01*
X193210143Y-73114984D01*
X193414267Y-72911216D01*
X193524874Y-72644844D01*
X193525126Y-72356421D01*
X193414984Y-72089857D01*
X193211216Y-71885733D01*
X192944844Y-71775126D01*
X192656421Y-71774874D01*
X192389857Y-71885016D01*
X192185733Y-72088784D01*
X192075126Y-72355156D01*
X192074874Y-72643579D01*
X188127463Y-72643579D01*
X184833884Y-69350000D01*
X187024629Y-69350000D01*
X187088784Y-69414267D01*
X187355156Y-69524874D01*
X187643579Y-69525126D01*
X187910143Y-69414984D01*
X188114267Y-69211216D01*
X188224874Y-68944844D01*
X188225126Y-68656421D01*
X188114984Y-68389857D01*
X187911216Y-68185733D01*
X187644844Y-68075126D01*
X187356421Y-68074874D01*
X187089857Y-68185016D01*
X187024759Y-68250000D01*
X184417616Y-68250000D01*
X184092616Y-67925000D01*
X187100000Y-67925000D01*
X187254469Y-67895935D01*
X187396340Y-67804643D01*
X187491516Y-67665349D01*
X187525000Y-67500000D01*
X187525000Y-67343579D01*
X192074874Y-67343579D01*
X192160240Y-67550179D01*
X192075126Y-67755156D01*
X192074874Y-68043579D01*
X192160240Y-68250179D01*
X192075126Y-68455156D01*
X192074874Y-68743579D01*
X192160240Y-68950179D01*
X192075126Y-69155156D01*
X192074874Y-69443579D01*
X192185016Y-69710143D01*
X192388784Y-69914267D01*
X192655156Y-70024874D01*
X192735242Y-70024944D01*
X192589857Y-70085016D01*
X192385733Y-70288784D01*
X192275126Y-70555156D01*
X192274874Y-70843579D01*
X192385016Y-71110143D01*
X192588784Y-71314267D01*
X192855156Y-71424874D01*
X193143579Y-71425126D01*
X193410143Y-71314984D01*
X193614267Y-71111216D01*
X193724874Y-70844844D01*
X193725126Y-70556421D01*
X193614984Y-70289857D01*
X193411216Y-70085733D01*
X193144844Y-69975126D01*
X193064758Y-69975056D01*
X193210143Y-69914984D01*
X193414267Y-69711216D01*
X193524874Y-69444844D01*
X193525126Y-69156421D01*
X193439760Y-68949821D01*
X193501971Y-68800000D01*
X199360021Y-68800000D01*
X199457075Y-69287921D01*
X199733460Y-69701561D01*
X200147100Y-69977946D01*
X200609884Y-70070000D01*
X200147100Y-70162054D01*
X199733460Y-70438439D01*
X199457075Y-70852079D01*
X199360021Y-71340000D01*
X199457075Y-71827921D01*
X199733460Y-72241561D01*
X200147100Y-72517946D01*
X200609884Y-72610000D01*
X200147100Y-72702054D01*
X199733460Y-72978439D01*
X199457075Y-73392079D01*
X199360021Y-73880000D01*
X199457075Y-74367921D01*
X199733460Y-74781561D01*
X200147100Y-75057946D01*
X200609884Y-75150000D01*
X200147100Y-75242054D01*
X199733460Y-75518439D01*
X199457075Y-75932079D01*
X199360021Y-76420000D01*
X199457075Y-76907921D01*
X199733460Y-77321561D01*
X200147100Y-77597946D01*
X200635021Y-77695000D01*
X200684979Y-77695000D01*
X201172900Y-77597946D01*
X201586540Y-77321561D01*
X201862925Y-76907921D01*
X201930000Y-76570714D01*
X201997075Y-76907921D01*
X202273460Y-77321561D01*
X202687100Y-77597946D01*
X203175021Y-77695000D01*
X203224979Y-77695000D01*
X203712900Y-77597946D01*
X204126540Y-77321561D01*
X204402925Y-76907921D01*
X204499979Y-76420000D01*
X204402925Y-75932079D01*
X204126540Y-75518439D01*
X203712900Y-75242054D01*
X203250116Y-75150000D01*
X203712900Y-75057946D01*
X204126540Y-74781561D01*
X204402925Y-74367921D01*
X204499979Y-73880000D01*
X204402925Y-73392079D01*
X204126540Y-72978439D01*
X203712900Y-72702054D01*
X203250116Y-72610000D01*
X203712900Y-72517946D01*
X204126540Y-72241561D01*
X204402925Y-71827921D01*
X204499979Y-71340000D01*
X204402925Y-70852079D01*
X204126540Y-70438439D01*
X203712900Y-70162054D01*
X203250116Y-70070000D01*
X203712900Y-69977946D01*
X204126540Y-69701561D01*
X204402925Y-69287921D01*
X204499979Y-68800000D01*
X204402925Y-68312079D01*
X204126540Y-67898439D01*
X203712900Y-67622054D01*
X203224979Y-67525000D01*
X203175021Y-67525000D01*
X202687100Y-67622054D01*
X202273460Y-67898439D01*
X201997075Y-68312079D01*
X201930000Y-68649286D01*
X201862925Y-68312079D01*
X201586540Y-67898439D01*
X201172900Y-67622054D01*
X200684979Y-67525000D01*
X200635021Y-67525000D01*
X200147100Y-67622054D01*
X199733460Y-67898439D01*
X199457075Y-68312079D01*
X199360021Y-68800000D01*
X193501971Y-68800000D01*
X193524874Y-68744844D01*
X193525126Y-68456421D01*
X193439760Y-68249821D01*
X193524874Y-68044844D01*
X193525126Y-67756421D01*
X193439760Y-67549821D01*
X193524874Y-67344844D01*
X193525126Y-67056421D01*
X193414984Y-66789857D01*
X193211216Y-66585733D01*
X192944844Y-66475126D01*
X192656421Y-66474874D01*
X192389857Y-66585016D01*
X192185733Y-66788784D01*
X192075126Y-67055156D01*
X192074874Y-67343579D01*
X187525000Y-67343579D01*
X187525000Y-66464893D01*
X187585016Y-66610143D01*
X187788784Y-66814267D01*
X188055156Y-66924874D01*
X188343579Y-66925126D01*
X188610143Y-66814984D01*
X188814267Y-66611216D01*
X188924874Y-66344844D01*
X188924954Y-66252864D01*
X190438909Y-64738909D01*
X190558134Y-64560476D01*
X190600000Y-64350000D01*
X190600000Y-63475371D01*
X190664267Y-63411216D01*
X190700739Y-63323381D01*
X191274857Y-63323381D01*
X191400191Y-63626713D01*
X191632065Y-63858991D01*
X191935177Y-63984855D01*
X192263383Y-63985141D01*
X192566715Y-63859807D01*
X192798993Y-63627933D01*
X192924857Y-63324821D01*
X192925143Y-62996615D01*
X192799809Y-62693283D01*
X192567935Y-62461005D01*
X192264823Y-62335141D01*
X191936617Y-62334855D01*
X191633285Y-62460189D01*
X191401007Y-62692063D01*
X191275143Y-62995175D01*
X191274857Y-63323381D01*
X190700739Y-63323381D01*
X190774874Y-63144844D01*
X190775126Y-62856421D01*
X190664984Y-62589857D01*
X190461216Y-62385733D01*
X190194844Y-62275126D01*
X189906421Y-62274874D01*
X189639857Y-62385016D01*
X189435733Y-62588784D01*
X189325126Y-62855156D01*
X189325046Y-62947136D01*
X189224959Y-63047223D01*
X189225126Y-62856421D01*
X189114984Y-62589857D01*
X188911216Y-62385733D01*
X188644844Y-62275126D01*
X188552863Y-62275046D01*
X187809583Y-61531765D01*
X187631150Y-61412540D01*
X187514719Y-61389381D01*
X187431890Y-61306407D01*
X187165518Y-61195800D01*
X186877095Y-61195548D01*
X186610531Y-61305690D01*
X186406407Y-61509458D01*
X186295800Y-61775830D01*
X186295548Y-62064253D01*
X186405690Y-62330817D01*
X186609458Y-62534941D01*
X186875830Y-62645548D01*
X187164253Y-62645800D01*
X187308416Y-62586233D01*
X187607182Y-62884999D01*
X182765001Y-62884999D01*
X182609343Y-62915961D01*
X183600305Y-61925000D01*
X185234004Y-61925000D01*
X185484739Y-61875126D01*
X185511450Y-61869813D01*
X185746656Y-61712652D01*
X186279308Y-61180000D01*
X199360021Y-61180000D01*
X199457075Y-61667921D01*
X199733460Y-62081561D01*
X200147100Y-62357946D01*
X200635021Y-62455000D01*
X200684979Y-62455000D01*
X201172900Y-62357946D01*
X201586540Y-62081561D01*
X201862925Y-61667921D01*
X201930000Y-61330714D01*
X201997075Y-61667921D01*
X202273460Y-62081561D01*
X202687100Y-62357946D01*
X203175021Y-62455000D01*
X203224979Y-62455000D01*
X203712900Y-62357946D01*
X204126540Y-62081561D01*
X204402925Y-61667921D01*
X204499979Y-61180000D01*
X204402925Y-60692079D01*
X204126540Y-60278439D01*
X203712900Y-60002054D01*
X203250116Y-59910000D01*
X203712900Y-59817946D01*
X204126540Y-59541561D01*
X204402925Y-59127921D01*
X204499979Y-58640000D01*
X204402925Y-58152079D01*
X204126540Y-57738439D01*
X203712900Y-57462054D01*
X203224979Y-57365000D01*
X203175021Y-57365000D01*
X202687100Y-57462054D01*
X202273460Y-57738439D01*
X201997075Y-58152079D01*
X201943326Y-58422292D01*
X201943326Y-57790000D01*
X201913691Y-57632504D01*
X201820611Y-57487854D01*
X201678588Y-57390814D01*
X201510000Y-57356674D01*
X199810000Y-57356674D01*
X199652504Y-57386309D01*
X199507854Y-57479389D01*
X199410814Y-57621412D01*
X199376674Y-57790000D01*
X199376674Y-59490000D01*
X199406309Y-59647496D01*
X199499389Y-59792146D01*
X199641412Y-59889186D01*
X199810000Y-59923326D01*
X200542890Y-59923326D01*
X200147100Y-60002054D01*
X199733460Y-60278439D01*
X199457075Y-60692079D01*
X199360021Y-61180000D01*
X186279308Y-61180000D01*
X187134309Y-60324999D01*
X193900001Y-60324999D01*
X194134075Y-60278439D01*
X194177447Y-60269812D01*
X194412653Y-60112651D01*
X196712205Y-57813100D01*
X196814267Y-57711216D01*
X196924874Y-57444844D01*
X196925126Y-57156421D01*
X196814984Y-56889857D01*
X196611216Y-56685733D01*
X196344844Y-56575126D01*
X196056421Y-56574874D01*
X195789857Y-56685016D01*
X195585733Y-56888784D01*
X195585607Y-56889088D01*
X193599697Y-58874999D01*
X189278264Y-58874999D01*
X189283326Y-58850000D01*
X189283326Y-58000558D01*
X189582028Y-57701856D01*
X189614389Y-57752146D01*
X189756412Y-57849186D01*
X189925000Y-57883326D01*
X190607986Y-57883326D01*
X190688784Y-57964265D01*
X190955156Y-58074872D01*
X191243579Y-58075124D01*
X191510143Y-57964982D01*
X191591942Y-57883326D01*
X191875000Y-57883326D01*
X192032496Y-57853691D01*
X192177146Y-57760611D01*
X192274186Y-57618588D01*
X192308326Y-57450000D01*
X192308326Y-57086146D01*
X192805115Y-57582935D01*
X192775126Y-57655156D01*
X192774874Y-57943579D01*
X192885016Y-58210143D01*
X193088784Y-58414267D01*
X193355156Y-58524874D01*
X193643579Y-58525126D01*
X193910143Y-58414984D01*
X194114267Y-58211216D01*
X194224874Y-57944844D01*
X194225126Y-57656421D01*
X194114984Y-57389857D01*
X193994583Y-57269246D01*
X193888909Y-57111093D01*
X192825045Y-56047229D01*
X192825124Y-55956421D01*
X192714982Y-55689857D01*
X192658224Y-55633000D01*
X198000000Y-55633000D01*
X198230069Y-55589710D01*
X198441372Y-55453739D01*
X198541103Y-55307778D01*
X198594733Y-55437572D01*
X199557360Y-56401881D01*
X200815736Y-56924404D01*
X202178286Y-56925593D01*
X203437572Y-56405267D01*
X204401881Y-55442640D01*
X204500000Y-55206343D01*
X204500000Y-79791700D01*
X204500000Y-79791700D01*
G37*
X204500000Y-79791700D02*
X204405267Y-79562428D01*
X203442640Y-78598119D01*
X202184264Y-78075596D01*
X200821714Y-78074407D01*
X199562428Y-78594733D01*
X198598119Y-79557360D01*
X198075596Y-80815736D01*
X198074407Y-82178286D01*
X198594733Y-83437572D01*
X199557360Y-84401881D01*
X199793657Y-84500000D01*
X196414875Y-84500000D01*
X196425000Y-84450000D01*
X196425000Y-78750000D01*
X196393763Y-78590076D01*
X196300520Y-78449480D01*
X194300520Y-76449480D01*
X194165349Y-76358484D01*
X194000000Y-76325000D01*
X188776040Y-76325000D01*
X188508162Y-76057122D01*
X188610143Y-76014984D01*
X188814267Y-75811216D01*
X188924874Y-75544844D01*
X188925126Y-75256421D01*
X188825000Y-75014098D01*
X188825000Y-73600000D01*
X188807340Y-73511216D01*
X188777425Y-73360822D01*
X188641942Y-73158058D01*
X188127463Y-72643579D01*
X192074874Y-72643579D01*
X192185016Y-72910143D01*
X192388784Y-73114267D01*
X192655156Y-73224874D01*
X192943579Y-73225126D01*
X193210143Y-73114984D01*
X193414267Y-72911216D01*
X193524874Y-72644844D01*
X193525126Y-72356421D01*
X193414984Y-72089857D01*
X193211216Y-71885733D01*
X192944844Y-71775126D01*
X192656421Y-71774874D01*
X192389857Y-71885016D01*
X192185733Y-72088784D01*
X192075126Y-72355156D01*
X192074874Y-72643579D01*
X188127463Y-72643579D01*
X184833884Y-69350000D01*
X187024629Y-69350000D01*
X187088784Y-69414267D01*
X187355156Y-69524874D01*
X187643579Y-69525126D01*
X187910143Y-69414984D01*
X188114267Y-69211216D01*
X188224874Y-68944844D01*
X188225126Y-68656421D01*
X188114984Y-68389857D01*
X187911216Y-68185733D01*
X187644844Y-68075126D01*
X187356421Y-68074874D01*
X187089857Y-68185016D01*
X187024759Y-68250000D01*
X184417616Y-68250000D01*
X184092616Y-67925000D01*
X187100000Y-67925000D01*
X187254469Y-67895935D01*
X187396340Y-67804643D01*
X187491516Y-67665349D01*
X187525000Y-67500000D01*
X187525000Y-67343579D01*
X192074874Y-67343579D01*
X192160240Y-67550179D01*
X192075126Y-67755156D01*
X192074874Y-68043579D01*
X192160240Y-68250179D01*
X192075126Y-68455156D01*
X192074874Y-68743579D01*
X192160240Y-68950179D01*
X192075126Y-69155156D01*
X192074874Y-69443579D01*
X192185016Y-69710143D01*
X192388784Y-69914267D01*
X192655156Y-70024874D01*
X192735242Y-70024944D01*
X192589857Y-70085016D01*
X192385733Y-70288784D01*
X192275126Y-70555156D01*
X192274874Y-70843579D01*
X192385016Y-71110143D01*
X192588784Y-71314267D01*
X192855156Y-71424874D01*
X193143579Y-71425126D01*
X193410143Y-71314984D01*
X193614267Y-71111216D01*
X193724874Y-70844844D01*
X193725126Y-70556421D01*
X193614984Y-70289857D01*
X193411216Y-70085733D01*
X193144844Y-69975126D01*
X193064758Y-69975056D01*
X193210143Y-69914984D01*
X193414267Y-69711216D01*
X193524874Y-69444844D01*
X193525126Y-69156421D01*
X193439760Y-68949821D01*
X193501971Y-68800000D01*
X199360021Y-68800000D01*
X199457075Y-69287921D01*
X199733460Y-69701561D01*
X200147100Y-69977946D01*
X200609884Y-70070000D01*
X200147100Y-70162054D01*
X199733460Y-70438439D01*
X199457075Y-70852079D01*
X199360021Y-71340000D01*
X199457075Y-71827921D01*
X199733460Y-72241561D01*
X200147100Y-72517946D01*
X200609884Y-72610000D01*
X200147100Y-72702054D01*
X199733460Y-72978439D01*
X199457075Y-73392079D01*
X199360021Y-73880000D01*
X199457075Y-74367921D01*
X199733460Y-74781561D01*
X200147100Y-75057946D01*
X200609884Y-75150000D01*
X200147100Y-75242054D01*
X199733460Y-75518439D01*
X199457075Y-75932079D01*
X199360021Y-76420000D01*
X199457075Y-76907921D01*
X199733460Y-77321561D01*
X200147100Y-77597946D01*
X200635021Y-77695000D01*
X200684979Y-77695000D01*
X201172900Y-77597946D01*
X201586540Y-77321561D01*
X201862925Y-76907921D01*
X201930000Y-76570714D01*
X201997075Y-76907921D01*
X202273460Y-77321561D01*
X202687100Y-77597946D01*
X203175021Y-77695000D01*
X203224979Y-77695000D01*
X203712900Y-77597946D01*
X204126540Y-77321561D01*
X204402925Y-76907921D01*
X204499979Y-76420000D01*
X204402925Y-75932079D01*
X204126540Y-75518439D01*
X203712900Y-75242054D01*
X203250116Y-75150000D01*
X203712900Y-75057946D01*
X204126540Y-74781561D01*
X204402925Y-74367921D01*
X204499979Y-73880000D01*
X204402925Y-73392079D01*
X204126540Y-72978439D01*
X203712900Y-72702054D01*
X203250116Y-72610000D01*
X203712900Y-72517946D01*
X204126540Y-72241561D01*
X204402925Y-71827921D01*
X204499979Y-71340000D01*
X204402925Y-70852079D01*
X204126540Y-70438439D01*
X203712900Y-70162054D01*
X203250116Y-70070000D01*
X203712900Y-69977946D01*
X204126540Y-69701561D01*
X204402925Y-69287921D01*
X204499979Y-68800000D01*
X204402925Y-68312079D01*
X204126540Y-67898439D01*
X203712900Y-67622054D01*
X203224979Y-67525000D01*
X203175021Y-67525000D01*
X202687100Y-67622054D01*
X202273460Y-67898439D01*
X201997075Y-68312079D01*
X201930000Y-68649286D01*
X201862925Y-68312079D01*
X201586540Y-67898439D01*
X201172900Y-67622054D01*
X200684979Y-67525000D01*
X200635021Y-67525000D01*
X200147100Y-67622054D01*
X199733460Y-67898439D01*
X199457075Y-68312079D01*
X199360021Y-68800000D01*
X193501971Y-68800000D01*
X193524874Y-68744844D01*
X193525126Y-68456421D01*
X193439760Y-68249821D01*
X193524874Y-68044844D01*
X193525126Y-67756421D01*
X193439760Y-67549821D01*
X193524874Y-67344844D01*
X193525126Y-67056421D01*
X193414984Y-66789857D01*
X193211216Y-66585733D01*
X192944844Y-66475126D01*
X192656421Y-66474874D01*
X192389857Y-66585016D01*
X192185733Y-66788784D01*
X192075126Y-67055156D01*
X192074874Y-67343579D01*
X187525000Y-67343579D01*
X187525000Y-66464893D01*
X187585016Y-66610143D01*
X187788784Y-66814267D01*
X188055156Y-66924874D01*
X188343579Y-66925126D01*
X188610143Y-66814984D01*
X188814267Y-66611216D01*
X188924874Y-66344844D01*
X188924954Y-66252864D01*
X190438909Y-64738909D01*
X190558134Y-64560476D01*
X190600000Y-64350000D01*
X190600000Y-63475371D01*
X190664267Y-63411216D01*
X190700739Y-63323381D01*
X191274857Y-63323381D01*
X191400191Y-63626713D01*
X191632065Y-63858991D01*
X191935177Y-63984855D01*
X192263383Y-63985141D01*
X192566715Y-63859807D01*
X192798993Y-63627933D01*
X192924857Y-63324821D01*
X192925143Y-62996615D01*
X192799809Y-62693283D01*
X192567935Y-62461005D01*
X192264823Y-62335141D01*
X191936617Y-62334855D01*
X191633285Y-62460189D01*
X191401007Y-62692063D01*
X191275143Y-62995175D01*
X191274857Y-63323381D01*
X190700739Y-63323381D01*
X190774874Y-63144844D01*
X190775126Y-62856421D01*
X190664984Y-62589857D01*
X190461216Y-62385733D01*
X190194844Y-62275126D01*
X189906421Y-62274874D01*
X189639857Y-62385016D01*
X189435733Y-62588784D01*
X189325126Y-62855156D01*
X189325046Y-62947136D01*
X189224959Y-63047223D01*
X189225126Y-62856421D01*
X189114984Y-62589857D01*
X188911216Y-62385733D01*
X188644844Y-62275126D01*
X188552863Y-62275046D01*
X187809583Y-61531765D01*
X187631150Y-61412540D01*
X187514719Y-61389381D01*
X187431890Y-61306407D01*
X187165518Y-61195800D01*
X186877095Y-61195548D01*
X186610531Y-61305690D01*
X186406407Y-61509458D01*
X186295800Y-61775830D01*
X186295548Y-62064253D01*
X186405690Y-62330817D01*
X186609458Y-62534941D01*
X186875830Y-62645548D01*
X187164253Y-62645800D01*
X187308416Y-62586233D01*
X187607182Y-62884999D01*
X182765001Y-62884999D01*
X182609343Y-62915961D01*
X183600305Y-61925000D01*
X185234004Y-61925000D01*
X185484739Y-61875126D01*
X185511450Y-61869813D01*
X185746656Y-61712652D01*
X186279308Y-61180000D01*
X199360021Y-61180000D01*
X199457075Y-61667921D01*
X199733460Y-62081561D01*
X200147100Y-62357946D01*
X200635021Y-62455000D01*
X200684979Y-62455000D01*
X201172900Y-62357946D01*
X201586540Y-62081561D01*
X201862925Y-61667921D01*
X201930000Y-61330714D01*
X201997075Y-61667921D01*
X202273460Y-62081561D01*
X202687100Y-62357946D01*
X203175021Y-62455000D01*
X203224979Y-62455000D01*
X203712900Y-62357946D01*
X204126540Y-62081561D01*
X204402925Y-61667921D01*
X204499979Y-61180000D01*
X204402925Y-60692079D01*
X204126540Y-60278439D01*
X203712900Y-60002054D01*
X203250116Y-59910000D01*
X203712900Y-59817946D01*
X204126540Y-59541561D01*
X204402925Y-59127921D01*
X204499979Y-58640000D01*
X204402925Y-58152079D01*
X204126540Y-57738439D01*
X203712900Y-57462054D01*
X203224979Y-57365000D01*
X203175021Y-57365000D01*
X202687100Y-57462054D01*
X202273460Y-57738439D01*
X201997075Y-58152079D01*
X201943326Y-58422292D01*
X201943326Y-57790000D01*
X201913691Y-57632504D01*
X201820611Y-57487854D01*
X201678588Y-57390814D01*
X201510000Y-57356674D01*
X199810000Y-57356674D01*
X199652504Y-57386309D01*
X199507854Y-57479389D01*
X199410814Y-57621412D01*
X199376674Y-57790000D01*
X199376674Y-59490000D01*
X199406309Y-59647496D01*
X199499389Y-59792146D01*
X199641412Y-59889186D01*
X199810000Y-59923326D01*
X200542890Y-59923326D01*
X200147100Y-60002054D01*
X199733460Y-60278439D01*
X199457075Y-60692079D01*
X199360021Y-61180000D01*
X186279308Y-61180000D01*
X187134309Y-60324999D01*
X193900001Y-60324999D01*
X194134075Y-60278439D01*
X194177447Y-60269812D01*
X194412653Y-60112651D01*
X196712205Y-57813100D01*
X196814267Y-57711216D01*
X196924874Y-57444844D01*
X196925126Y-57156421D01*
X196814984Y-56889857D01*
X196611216Y-56685733D01*
X196344844Y-56575126D01*
X196056421Y-56574874D01*
X195789857Y-56685016D01*
X195585733Y-56888784D01*
X195585607Y-56889088D01*
X193599697Y-58874999D01*
X189278264Y-58874999D01*
X189283326Y-58850000D01*
X189283326Y-58000558D01*
X189582028Y-57701856D01*
X189614389Y-57752146D01*
X189756412Y-57849186D01*
X189925000Y-57883326D01*
X190607986Y-57883326D01*
X190688784Y-57964265D01*
X190955156Y-58074872D01*
X191243579Y-58075124D01*
X191510143Y-57964982D01*
X191591942Y-57883326D01*
X191875000Y-57883326D01*
X192032496Y-57853691D01*
X192177146Y-57760611D01*
X192274186Y-57618588D01*
X192308326Y-57450000D01*
X192308326Y-57086146D01*
X192805115Y-57582935D01*
X192775126Y-57655156D01*
X192774874Y-57943579D01*
X192885016Y-58210143D01*
X193088784Y-58414267D01*
X193355156Y-58524874D01*
X193643579Y-58525126D01*
X193910143Y-58414984D01*
X194114267Y-58211216D01*
X194224874Y-57944844D01*
X194225126Y-57656421D01*
X194114984Y-57389857D01*
X193994583Y-57269246D01*
X193888909Y-57111093D01*
X192825045Y-56047229D01*
X192825124Y-55956421D01*
X192714982Y-55689857D01*
X192658224Y-55633000D01*
X198000000Y-55633000D01*
X198230069Y-55589710D01*
X198441372Y-55453739D01*
X198541103Y-55307778D01*
X198594733Y-55437572D01*
X199557360Y-56401881D01*
X200815736Y-56924404D01*
X202178286Y-56925593D01*
X203437572Y-56405267D01*
X204401881Y-55442640D01*
X204500000Y-55206343D01*
X204500000Y-79791700D01*
G36*
X165665001Y-76932003D02*
X165706867Y-77142479D01*
X165826092Y-77320912D01*
X165871854Y-77366674D01*
X165450000Y-77366674D01*
X165292504Y-77396309D01*
X165147854Y-77489389D01*
X165050814Y-77631412D01*
X165021737Y-77775000D01*
X164450067Y-77775000D01*
X164524874Y-77594844D01*
X164525126Y-77306421D01*
X164414984Y-77039857D01*
X164355676Y-76980445D01*
X164449186Y-76843588D01*
X164483326Y-76675000D01*
X164483326Y-75983326D01*
X165600000Y-75983326D01*
X165665001Y-75971095D01*
X165665001Y-76932003D01*
X165665001Y-76932003D01*
G37*
X165665001Y-76932003D02*
X165706867Y-77142479D01*
X165826092Y-77320912D01*
X165871854Y-77366674D01*
X165450000Y-77366674D01*
X165292504Y-77396309D01*
X165147854Y-77489389D01*
X165050814Y-77631412D01*
X165021737Y-77775000D01*
X164450067Y-77775000D01*
X164524874Y-77594844D01*
X164525126Y-77306421D01*
X164414984Y-77039857D01*
X164355676Y-76980445D01*
X164449186Y-76843588D01*
X164483326Y-76675000D01*
X164483326Y-75983326D01*
X165600000Y-75983326D01*
X165665001Y-75971095D01*
X165665001Y-76932003D01*
G36*
X160114522Y-72858134D02*
X160324998Y-72900001D01*
X160325003Y-72900000D01*
X163572182Y-72900000D01*
X163778466Y-73106284D01*
X163774152Y-73116674D01*
X163200000Y-73116674D01*
X163042504Y-73146309D01*
X162897854Y-73239389D01*
X162800814Y-73381412D01*
X162766674Y-73550000D01*
X162766674Y-75550000D01*
X162796309Y-75707496D01*
X162845302Y-75783633D01*
X162816674Y-75925000D01*
X162816674Y-76048858D01*
X162456233Y-75688417D01*
X162577146Y-75610611D01*
X162674186Y-75468588D01*
X162708326Y-75300000D01*
X162708326Y-74500000D01*
X162678691Y-74342504D01*
X162585611Y-74197854D01*
X162443588Y-74100814D01*
X162275000Y-74066674D01*
X161525000Y-74066674D01*
X161367504Y-74096309D01*
X161351792Y-74106419D01*
X161343588Y-74100814D01*
X161175000Y-74066674D01*
X160425000Y-74066674D01*
X160267504Y-74096309D01*
X160122854Y-74189389D01*
X160025814Y-74331412D01*
X159997357Y-74471937D01*
X159961216Y-74435733D01*
X159694844Y-74325126D01*
X159406421Y-74324874D01*
X159278104Y-74377894D01*
X159374874Y-74144844D01*
X159375126Y-73856421D01*
X159349056Y-73793326D01*
X159555000Y-73793326D01*
X159712496Y-73763691D01*
X159857146Y-73670611D01*
X159954186Y-73528588D01*
X159988326Y-73360000D01*
X159988326Y-72773813D01*
X160114522Y-72858134D01*
X160114522Y-72858134D01*
G37*
X160114522Y-72858134D02*
X160324998Y-72900001D01*
X160325003Y-72900000D01*
X163572182Y-72900000D01*
X163778466Y-73106284D01*
X163774152Y-73116674D01*
X163200000Y-73116674D01*
X163042504Y-73146309D01*
X162897854Y-73239389D01*
X162800814Y-73381412D01*
X162766674Y-73550000D01*
X162766674Y-75550000D01*
X162796309Y-75707496D01*
X162845302Y-75783633D01*
X162816674Y-75925000D01*
X162816674Y-76048858D01*
X162456233Y-75688417D01*
X162577146Y-75610611D01*
X162674186Y-75468588D01*
X162708326Y-75300000D01*
X162708326Y-74500000D01*
X162678691Y-74342504D01*
X162585611Y-74197854D01*
X162443588Y-74100814D01*
X162275000Y-74066674D01*
X161525000Y-74066674D01*
X161367504Y-74096309D01*
X161351792Y-74106419D01*
X161343588Y-74100814D01*
X161175000Y-74066674D01*
X160425000Y-74066674D01*
X160267504Y-74096309D01*
X160122854Y-74189389D01*
X160025814Y-74331412D01*
X159997357Y-74471937D01*
X159961216Y-74435733D01*
X159694844Y-74325126D01*
X159406421Y-74324874D01*
X159278104Y-74377894D01*
X159374874Y-74144844D01*
X159375126Y-73856421D01*
X159349056Y-73793326D01*
X159555000Y-73793326D01*
X159712496Y-73763691D01*
X159857146Y-73670611D01*
X159954186Y-73528588D01*
X159988326Y-73360000D01*
X159988326Y-72773813D01*
X160114522Y-72858134D01*
G36*
X179216674Y-70300000D02*
X179216674Y-71200000D01*
X179246309Y-71357496D01*
X179339389Y-71502146D01*
X179481412Y-71599186D01*
X179650000Y-71633326D01*
X180150000Y-71633326D01*
X180190390Y-71625726D01*
X179141116Y-72675000D01*
X171720027Y-72675000D01*
X171654588Y-72346017D01*
X171454073Y-72045926D01*
X171304073Y-71895925D01*
X171003982Y-71695410D01*
X170649999Y-71624999D01*
X170592466Y-71624999D01*
X170439177Y-71522575D01*
X170200000Y-71475000D01*
X170133149Y-71475000D01*
X170104075Y-71445926D01*
X169803984Y-71245411D01*
X169450001Y-71175000D01*
X169241115Y-71175000D01*
X169200000Y-71166674D01*
X167785044Y-71166674D01*
X167910143Y-71114984D01*
X167975241Y-71050000D01*
X168800000Y-71050000D01*
X168875426Y-71034997D01*
X171215003Y-71034997D01*
X171425479Y-70993131D01*
X171603912Y-70873906D01*
X171952819Y-70524999D01*
X176547181Y-70524999D01*
X176666674Y-70644492D01*
X176666674Y-71200000D01*
X176696309Y-71357496D01*
X176789389Y-71502146D01*
X176931412Y-71599186D01*
X177100000Y-71633326D01*
X177600000Y-71633326D01*
X177757496Y-71603691D01*
X177876207Y-71527302D01*
X177981412Y-71599186D01*
X178150000Y-71633326D01*
X178650000Y-71633326D01*
X178807496Y-71603691D01*
X178952146Y-71510611D01*
X179049186Y-71368588D01*
X179083326Y-71200000D01*
X179083326Y-70300000D01*
X179061372Y-70183326D01*
X179240301Y-70183326D01*
X179216674Y-70300000D01*
X179216674Y-70300000D01*
G37*
X179216674Y-70300000D02*
X179216674Y-71200000D01*
X179246309Y-71357496D01*
X179339389Y-71502146D01*
X179481412Y-71599186D01*
X179650000Y-71633326D01*
X180150000Y-71633326D01*
X180190390Y-71625726D01*
X179141116Y-72675000D01*
X171720027Y-72675000D01*
X171654588Y-72346017D01*
X171454073Y-72045926D01*
X171304073Y-71895925D01*
X171003982Y-71695410D01*
X170649999Y-71624999D01*
X170592466Y-71624999D01*
X170439177Y-71522575D01*
X170200000Y-71475000D01*
X170133149Y-71475000D01*
X170104075Y-71445926D01*
X169803984Y-71245411D01*
X169450001Y-71175000D01*
X169241115Y-71175000D01*
X169200000Y-71166674D01*
X167785044Y-71166674D01*
X167910143Y-71114984D01*
X167975241Y-71050000D01*
X168800000Y-71050000D01*
X168875426Y-71034997D01*
X171215003Y-71034997D01*
X171425479Y-70993131D01*
X171603912Y-70873906D01*
X171952819Y-70524999D01*
X176547181Y-70524999D01*
X176666674Y-70644492D01*
X176666674Y-71200000D01*
X176696309Y-71357496D01*
X176789389Y-71502146D01*
X176931412Y-71599186D01*
X177100000Y-71633326D01*
X177600000Y-71633326D01*
X177757496Y-71603691D01*
X177876207Y-71527302D01*
X177981412Y-71599186D01*
X178150000Y-71633326D01*
X178650000Y-71633326D01*
X178807496Y-71603691D01*
X178952146Y-71510611D01*
X179049186Y-71368588D01*
X179083326Y-71200000D01*
X179083326Y-70300000D01*
X179061372Y-70183326D01*
X179240301Y-70183326D01*
X179216674Y-70300000D01*
G36*
X161359228Y-67888240D02*
X161562996Y-68092364D01*
X161788761Y-68186110D01*
X161585733Y-68388784D01*
X161475126Y-68655156D01*
X161474874Y-68943579D01*
X161585016Y-69210143D01*
X161788784Y-69414267D01*
X162055156Y-69524874D01*
X162343579Y-69525126D01*
X162610143Y-69414984D01*
X162716987Y-69308326D01*
X162816674Y-69308326D01*
X162816674Y-69475000D01*
X162843702Y-69618643D01*
X162800814Y-69681412D01*
X162766674Y-69850000D01*
X162766674Y-71800000D01*
X160552816Y-71800000D01*
X160386142Y-71633326D01*
X161000000Y-71633326D01*
X161157496Y-71603691D01*
X161302146Y-71510611D01*
X161399186Y-71368588D01*
X161433326Y-71200000D01*
X161433326Y-70700000D01*
X161403691Y-70542504D01*
X161310611Y-70397854D01*
X161168588Y-70300814D01*
X161074888Y-70281839D01*
X161075030Y-70119208D01*
X161157496Y-70103691D01*
X161302146Y-70010611D01*
X161399186Y-69868588D01*
X161433326Y-69700000D01*
X161433326Y-69200000D01*
X161403691Y-69042504D01*
X161310611Y-68897854D01*
X161168588Y-68800814D01*
X161000000Y-68766674D01*
X160974999Y-68766674D01*
X160974999Y-67796064D01*
X161134339Y-67636724D01*
X161255304Y-67636724D01*
X161359228Y-67888240D01*
X161359228Y-67888240D01*
G37*
X161359228Y-67888240D02*
X161562996Y-68092364D01*
X161788761Y-68186110D01*
X161585733Y-68388784D01*
X161475126Y-68655156D01*
X161474874Y-68943579D01*
X161585016Y-69210143D01*
X161788784Y-69414267D01*
X162055156Y-69524874D01*
X162343579Y-69525126D01*
X162610143Y-69414984D01*
X162716987Y-69308326D01*
X162816674Y-69308326D01*
X162816674Y-69475000D01*
X162843702Y-69618643D01*
X162800814Y-69681412D01*
X162766674Y-69850000D01*
X162766674Y-71800000D01*
X160552816Y-71800000D01*
X160386142Y-71633326D01*
X161000000Y-71633326D01*
X161157496Y-71603691D01*
X161302146Y-71510611D01*
X161399186Y-71368588D01*
X161433326Y-71200000D01*
X161433326Y-70700000D01*
X161403691Y-70542504D01*
X161310611Y-70397854D01*
X161168588Y-70300814D01*
X161074888Y-70281839D01*
X161075030Y-70119208D01*
X161157496Y-70103691D01*
X161302146Y-70010611D01*
X161399186Y-69868588D01*
X161433326Y-69700000D01*
X161433326Y-69200000D01*
X161403691Y-69042504D01*
X161310611Y-68897854D01*
X161168588Y-68800814D01*
X161000000Y-68766674D01*
X160974999Y-68766674D01*
X160974999Y-67796064D01*
X161134339Y-67636724D01*
X161255304Y-67636724D01*
X161359228Y-67888240D01*
G36*
X153301674Y-70765001D02*
X150342818Y-70765001D01*
X149842819Y-70265001D01*
X151995201Y-70265001D01*
X152205677Y-70223135D01*
X152384110Y-70103910D01*
X152542819Y-69945201D01*
X153301674Y-69945201D01*
X153301674Y-70765001D01*
X153301674Y-70765001D01*
G37*
X153301674Y-70765001D02*
X150342818Y-70765001D01*
X149842819Y-70265001D01*
X151995201Y-70265001D01*
X152205677Y-70223135D01*
X152384110Y-70103910D01*
X152542819Y-69945201D01*
X153301674Y-69945201D01*
X153301674Y-70765001D01*
G36*
X165700000Y-66577849D02*
X165700000Y-67372468D01*
X165674174Y-67500000D01*
X165674174Y-68600000D01*
X165703809Y-68757496D01*
X165796889Y-68902146D01*
X165938912Y-68999186D01*
X166107500Y-69033326D01*
X166392500Y-69033326D01*
X166503946Y-69012356D01*
X166607500Y-69033326D01*
X166892500Y-69033326D01*
X167003946Y-69012356D01*
X167107500Y-69033326D01*
X167392500Y-69033326D01*
X167503946Y-69012356D01*
X167607500Y-69033326D01*
X167892500Y-69033326D01*
X168003946Y-69012356D01*
X168107500Y-69033326D01*
X168392500Y-69033326D01*
X168503946Y-69012356D01*
X168607500Y-69033326D01*
X168892500Y-69033326D01*
X169003946Y-69012356D01*
X169024928Y-69016605D01*
X169024874Y-69078685D01*
X169130781Y-69334999D01*
X167204804Y-69334999D01*
X167204799Y-69334998D01*
X166994323Y-69376865D01*
X166815890Y-69496090D01*
X166752540Y-69559440D01*
X166601312Y-69589522D01*
X166589523Y-69591867D01*
X166465152Y-69674969D01*
X166356421Y-69674874D01*
X166089857Y-69785016D01*
X166031971Y-69842801D01*
X166003691Y-69692504D01*
X165910611Y-69547854D01*
X165768588Y-69450814D01*
X165600000Y-69416674D01*
X164483326Y-69416674D01*
X164483326Y-68725000D01*
X164455808Y-68578754D01*
X164610143Y-68514984D01*
X164814267Y-68311216D01*
X164924874Y-68044844D01*
X164925066Y-67825022D01*
X165043579Y-67825126D01*
X165310143Y-67714984D01*
X165514267Y-67511216D01*
X165624874Y-67244844D01*
X165625126Y-66956421D01*
X165514984Y-66689857D01*
X165311216Y-66485733D01*
X165044844Y-66375126D01*
X164952864Y-66375046D01*
X163955604Y-65377786D01*
X163777171Y-65258561D01*
X163566695Y-65216695D01*
X159675669Y-65216695D01*
X159724874Y-65098196D01*
X159725126Y-64809773D01*
X159614984Y-64543209D01*
X159422112Y-64350000D01*
X161215478Y-64350000D01*
X161246601Y-64381123D01*
X161246522Y-64471931D01*
X161356664Y-64738495D01*
X161560432Y-64942619D01*
X161826804Y-65053226D01*
X162115227Y-65053478D01*
X162381791Y-64943336D01*
X162585915Y-64739568D01*
X162696522Y-64473196D01*
X162696774Y-64184773D01*
X162586632Y-63918209D01*
X162382864Y-63714085D01*
X162116492Y-63603478D01*
X162024511Y-63603398D01*
X161832205Y-63411091D01*
X161653772Y-63291866D01*
X161443296Y-63250000D01*
X159978201Y-63250000D01*
X159988326Y-63200000D01*
X159988326Y-62350030D01*
X161472181Y-62350030D01*
X165700000Y-66577849D01*
X165700000Y-66577849D01*
G37*
X165700000Y-66577849D02*
X165700000Y-67372468D01*
X165674174Y-67500000D01*
X165674174Y-68600000D01*
X165703809Y-68757496D01*
X165796889Y-68902146D01*
X165938912Y-68999186D01*
X166107500Y-69033326D01*
X166392500Y-69033326D01*
X166503946Y-69012356D01*
X166607500Y-69033326D01*
X166892500Y-69033326D01*
X167003946Y-69012356D01*
X167107500Y-69033326D01*
X167392500Y-69033326D01*
X167503946Y-69012356D01*
X167607500Y-69033326D01*
X167892500Y-69033326D01*
X168003946Y-69012356D01*
X168107500Y-69033326D01*
X168392500Y-69033326D01*
X168503946Y-69012356D01*
X168607500Y-69033326D01*
X168892500Y-69033326D01*
X169003946Y-69012356D01*
X169024928Y-69016605D01*
X169024874Y-69078685D01*
X169130781Y-69334999D01*
X167204804Y-69334999D01*
X167204799Y-69334998D01*
X166994323Y-69376865D01*
X166815890Y-69496090D01*
X166752540Y-69559440D01*
X166601312Y-69589522D01*
X166589523Y-69591867D01*
X166465152Y-69674969D01*
X166356421Y-69674874D01*
X166089857Y-69785016D01*
X166031971Y-69842801D01*
X166003691Y-69692504D01*
X165910611Y-69547854D01*
X165768588Y-69450814D01*
X165600000Y-69416674D01*
X164483326Y-69416674D01*
X164483326Y-68725000D01*
X164455808Y-68578754D01*
X164610143Y-68514984D01*
X164814267Y-68311216D01*
X164924874Y-68044844D01*
X164925066Y-67825022D01*
X165043579Y-67825126D01*
X165310143Y-67714984D01*
X165514267Y-67511216D01*
X165624874Y-67244844D01*
X165625126Y-66956421D01*
X165514984Y-66689857D01*
X165311216Y-66485733D01*
X165044844Y-66375126D01*
X164952864Y-66375046D01*
X163955604Y-65377786D01*
X163777171Y-65258561D01*
X163566695Y-65216695D01*
X159675669Y-65216695D01*
X159724874Y-65098196D01*
X159725126Y-64809773D01*
X159614984Y-64543209D01*
X159422112Y-64350000D01*
X161215478Y-64350000D01*
X161246601Y-64381123D01*
X161246522Y-64471931D01*
X161356664Y-64738495D01*
X161560432Y-64942619D01*
X161826804Y-65053226D01*
X162115227Y-65053478D01*
X162381791Y-64943336D01*
X162585915Y-64739568D01*
X162696522Y-64473196D01*
X162696774Y-64184773D01*
X162586632Y-63918209D01*
X162382864Y-63714085D01*
X162116492Y-63603478D01*
X162024511Y-63603398D01*
X161832205Y-63411091D01*
X161653772Y-63291866D01*
X161443296Y-63250000D01*
X159978201Y-63250000D01*
X159988326Y-63200000D01*
X159988326Y-62350030D01*
X161472181Y-62350030D01*
X165700000Y-66577849D01*
G36*
X171107500Y-69033326D02*
X171266588Y-69033326D01*
X170964915Y-69334999D01*
X170368969Y-69334999D01*
X170474874Y-69079950D01*
X170474928Y-69017816D01*
X170503946Y-69012356D01*
X170607500Y-69033326D01*
X170892500Y-69033326D01*
X171003946Y-69012356D01*
X171107500Y-69033326D01*
X171107500Y-69033326D01*
G37*
X171107500Y-69033326D02*
X171266588Y-69033326D01*
X170964915Y-69334999D01*
X170368969Y-69334999D01*
X170474874Y-69079950D01*
X170474928Y-69017816D01*
X170503946Y-69012356D01*
X170607500Y-69033326D01*
X170892500Y-69033326D01*
X171003946Y-69012356D01*
X171107500Y-69033326D01*
G36*
X181831959Y-61642736D02*
X181803691Y-61492504D01*
X181710611Y-61347854D01*
X181568588Y-61250814D01*
X181400000Y-61216674D01*
X180500000Y-61216674D01*
X180342504Y-61246309D01*
X180197854Y-61339389D01*
X180100814Y-61481412D01*
X180066674Y-61650000D01*
X180066674Y-63350000D01*
X180096309Y-63507496D01*
X180189389Y-63652146D01*
X180331412Y-63749186D01*
X180500000Y-63783326D01*
X181400000Y-63783326D01*
X181557496Y-63753691D01*
X181702146Y-63660611D01*
X181799186Y-63518588D01*
X181833326Y-63350000D01*
X181833326Y-63225000D01*
X182000000Y-63225000D01*
X182246143Y-63176039D01*
X182070478Y-63351704D01*
X181989857Y-63385016D01*
X181785733Y-63588784D01*
X181675126Y-63855156D01*
X181674874Y-64143579D01*
X181785016Y-64410143D01*
X181874694Y-64499978D01*
X181785733Y-64588784D01*
X181675126Y-64855156D01*
X181674874Y-65143579D01*
X181785016Y-65410143D01*
X181988784Y-65614267D01*
X182234999Y-65716504D01*
X182234999Y-67395201D01*
X182269909Y-67570706D01*
X182250000Y-67566674D01*
X181350000Y-67566674D01*
X181192504Y-67596309D01*
X181089459Y-67662617D01*
X181015611Y-67547854D01*
X180873588Y-67450814D01*
X180705000Y-67416674D01*
X180195000Y-67416674D01*
X180037504Y-67446309D01*
X179892854Y-67539389D01*
X179868601Y-67574885D01*
X179856421Y-67574874D01*
X179838326Y-67582351D01*
X179838326Y-67350000D01*
X179808691Y-67192504D01*
X179715611Y-67047854D01*
X179573588Y-66950814D01*
X179405000Y-66916674D01*
X178895000Y-66916674D01*
X178737504Y-66946309D01*
X178592854Y-67039389D01*
X178495814Y-67181412D01*
X178476899Y-67274819D01*
X178368588Y-67200814D01*
X178363552Y-67199794D01*
X178502146Y-67110611D01*
X178599186Y-66968588D01*
X178633326Y-66800000D01*
X178633326Y-66000000D01*
X178614372Y-65899267D01*
X178752146Y-65810611D01*
X178849186Y-65668588D01*
X178883326Y-65500000D01*
X178883326Y-64300000D01*
X178853691Y-64142504D01*
X178760611Y-63997854D01*
X178675000Y-63939359D01*
X178675000Y-63742427D01*
X178802146Y-63660611D01*
X178899186Y-63518588D01*
X178933326Y-63350000D01*
X178933326Y-62791841D01*
X179114267Y-62611216D01*
X179224874Y-62344844D01*
X179225126Y-62056421D01*
X179114984Y-61789857D01*
X178923560Y-61598099D01*
X178903691Y-61492504D01*
X178876347Y-61450011D01*
X179599989Y-61450011D01*
X179810465Y-61408145D01*
X179988898Y-61288920D01*
X180277817Y-61000001D01*
X182474694Y-61000001D01*
X181831959Y-61642736D01*
X181831959Y-61642736D01*
G37*
X181831959Y-61642736D02*
X181803691Y-61492504D01*
X181710611Y-61347854D01*
X181568588Y-61250814D01*
X181400000Y-61216674D01*
X180500000Y-61216674D01*
X180342504Y-61246309D01*
X180197854Y-61339389D01*
X180100814Y-61481412D01*
X180066674Y-61650000D01*
X180066674Y-63350000D01*
X180096309Y-63507496D01*
X180189389Y-63652146D01*
X180331412Y-63749186D01*
X180500000Y-63783326D01*
X181400000Y-63783326D01*
X181557496Y-63753691D01*
X181702146Y-63660611D01*
X181799186Y-63518588D01*
X181833326Y-63350000D01*
X181833326Y-63225000D01*
X182000000Y-63225000D01*
X182246143Y-63176039D01*
X182070478Y-63351704D01*
X181989857Y-63385016D01*
X181785733Y-63588784D01*
X181675126Y-63855156D01*
X181674874Y-64143579D01*
X181785016Y-64410143D01*
X181874694Y-64499978D01*
X181785733Y-64588784D01*
X181675126Y-64855156D01*
X181674874Y-65143579D01*
X181785016Y-65410143D01*
X181988784Y-65614267D01*
X182234999Y-65716504D01*
X182234999Y-67395201D01*
X182269909Y-67570706D01*
X182250000Y-67566674D01*
X181350000Y-67566674D01*
X181192504Y-67596309D01*
X181089459Y-67662617D01*
X181015611Y-67547854D01*
X180873588Y-67450814D01*
X180705000Y-67416674D01*
X180195000Y-67416674D01*
X180037504Y-67446309D01*
X179892854Y-67539389D01*
X179868601Y-67574885D01*
X179856421Y-67574874D01*
X179838326Y-67582351D01*
X179838326Y-67350000D01*
X179808691Y-67192504D01*
X179715611Y-67047854D01*
X179573588Y-66950814D01*
X179405000Y-66916674D01*
X178895000Y-66916674D01*
X178737504Y-66946309D01*
X178592854Y-67039389D01*
X178495814Y-67181412D01*
X178476899Y-67274819D01*
X178368588Y-67200814D01*
X178363552Y-67199794D01*
X178502146Y-67110611D01*
X178599186Y-66968588D01*
X178633326Y-66800000D01*
X178633326Y-66000000D01*
X178614372Y-65899267D01*
X178752146Y-65810611D01*
X178849186Y-65668588D01*
X178883326Y-65500000D01*
X178883326Y-64300000D01*
X178853691Y-64142504D01*
X178760611Y-63997854D01*
X178675000Y-63939359D01*
X178675000Y-63742427D01*
X178802146Y-63660611D01*
X178899186Y-63518588D01*
X178933326Y-63350000D01*
X178933326Y-62791841D01*
X179114267Y-62611216D01*
X179224874Y-62344844D01*
X179225126Y-62056421D01*
X179114984Y-61789857D01*
X178923560Y-61598099D01*
X178903691Y-61492504D01*
X178876347Y-61450011D01*
X179599989Y-61450011D01*
X179810465Y-61408145D01*
X179988898Y-61288920D01*
X180277817Y-61000001D01*
X182474694Y-61000001D01*
X181831959Y-61642736D01*
G36*
X170348362Y-66826178D02*
X170335733Y-66838784D01*
X170241105Y-67066674D01*
X170107500Y-67066674D01*
X169996054Y-67087644D01*
X169892500Y-67066674D01*
X169800000Y-67066674D01*
X169800000Y-66277816D01*
X170348362Y-66826178D01*
X170348362Y-66826178D01*
G37*
X170348362Y-66826178D02*
X170335733Y-66838784D01*
X170241105Y-67066674D01*
X170107500Y-67066674D01*
X169996054Y-67087644D01*
X169892500Y-67066674D01*
X169800000Y-67066674D01*
X169800000Y-66277816D01*
X170348362Y-66826178D01*
G36*
X187815890Y-64003910D02*
X187994323Y-64123135D01*
X188204799Y-64165001D01*
X189434999Y-64165001D01*
X189462689Y-64159493D01*
X188147229Y-65474953D01*
X188056421Y-65474874D01*
X187789857Y-65585016D01*
X187585733Y-65788784D01*
X187533326Y-65914994D01*
X187533326Y-63984999D01*
X187796979Y-63984999D01*
X187815890Y-64003910D01*
X187815890Y-64003910D01*
G37*
X187815890Y-64003910D02*
X187994323Y-64123135D01*
X188204799Y-64165001D01*
X189434999Y-64165001D01*
X189462689Y-64159493D01*
X188147229Y-65474953D01*
X188056421Y-65474874D01*
X187789857Y-65585016D01*
X187585733Y-65788784D01*
X187533326Y-65914994D01*
X187533326Y-63984999D01*
X187796979Y-63984999D01*
X187815890Y-64003910D01*
G36*
X173632365Y-65099980D02*
X172685842Y-65099980D01*
X172005259Y-64419397D01*
X172951781Y-64419397D01*
X173632365Y-65099980D01*
X173632365Y-65099980D01*
G37*
X173632365Y-65099980D02*
X172685842Y-65099980D01*
X172005259Y-64419397D01*
X172951781Y-64419397D01*
X173632365Y-65099980D01*
G36*
X172316674Y-58106327D02*
X172316674Y-58775000D01*
X172346309Y-58932496D01*
X172439389Y-59077146D01*
X172581412Y-59174186D01*
X172600000Y-59177950D01*
X172600000Y-59241674D01*
X172550000Y-59241674D01*
X172392504Y-59271309D01*
X172247854Y-59364389D01*
X172150814Y-59506412D01*
X172116674Y-59675000D01*
X172116674Y-59780508D01*
X171361091Y-60536091D01*
X171300000Y-60627520D01*
X171300000Y-60469166D01*
X171352146Y-60435611D01*
X171449186Y-60293588D01*
X171483326Y-60125000D01*
X171483326Y-59675000D01*
X171453691Y-59517504D01*
X171360611Y-59372854D01*
X171218588Y-59275814D01*
X171050000Y-59241674D01*
X170450000Y-59241674D01*
X170292504Y-59271309D01*
X170170215Y-59350000D01*
X170100000Y-59350000D01*
X170100000Y-59180101D01*
X170107496Y-59178691D01*
X170252146Y-59085611D01*
X170349186Y-58943588D01*
X170383326Y-58775000D01*
X170383326Y-58654333D01*
X170622021Y-58654542D01*
X170888585Y-58544400D01*
X171092709Y-58340632D01*
X171126481Y-58259300D01*
X171202146Y-58210611D01*
X171254952Y-58133326D01*
X172150000Y-58133326D01*
X172305507Y-58104065D01*
X172316674Y-58106327D01*
X172316674Y-58106327D01*
G37*
X172316674Y-58106327D02*
X172316674Y-58775000D01*
X172346309Y-58932496D01*
X172439389Y-59077146D01*
X172581412Y-59174186D01*
X172600000Y-59177950D01*
X172600000Y-59241674D01*
X172550000Y-59241674D01*
X172392504Y-59271309D01*
X172247854Y-59364389D01*
X172150814Y-59506412D01*
X172116674Y-59675000D01*
X172116674Y-59780508D01*
X171361091Y-60536091D01*
X171300000Y-60627520D01*
X171300000Y-60469166D01*
X171352146Y-60435611D01*
X171449186Y-60293588D01*
X171483326Y-60125000D01*
X171483326Y-59675000D01*
X171453691Y-59517504D01*
X171360611Y-59372854D01*
X171218588Y-59275814D01*
X171050000Y-59241674D01*
X170450000Y-59241674D01*
X170292504Y-59271309D01*
X170170215Y-59350000D01*
X170100000Y-59350000D01*
X170100000Y-59180101D01*
X170107496Y-59178691D01*
X170252146Y-59085611D01*
X170349186Y-58943588D01*
X170383326Y-58775000D01*
X170383326Y-58654333D01*
X170622021Y-58654542D01*
X170888585Y-58544400D01*
X171092709Y-58340632D01*
X171126481Y-58259300D01*
X171202146Y-58210611D01*
X171254952Y-58133326D01*
X172150000Y-58133326D01*
X172305507Y-58104065D01*
X172316674Y-58106327D01*
G36*
X184933700Y-60475000D02*
X184190934Y-60475000D01*
X184252146Y-60435611D01*
X184349186Y-60293588D01*
X184383326Y-60125000D01*
X184383326Y-59922434D01*
X184458134Y-59810476D01*
X184500000Y-59600000D01*
X184500000Y-59225328D01*
X184588784Y-59314267D01*
X184855156Y-59424874D01*
X185143579Y-59425126D01*
X185410143Y-59314984D01*
X185441856Y-59283326D01*
X185950000Y-59283326D01*
X186107496Y-59253691D01*
X186240766Y-59167934D01*
X184933700Y-60475000D01*
X184933700Y-60475000D01*
G37*
X184933700Y-60475000D02*
X184190934Y-60475000D01*
X184252146Y-60435611D01*
X184349186Y-60293588D01*
X184383326Y-60125000D01*
X184383326Y-59922434D01*
X184458134Y-59810476D01*
X184500000Y-59600000D01*
X184500000Y-59225328D01*
X184588784Y-59314267D01*
X184855156Y-59424874D01*
X185143579Y-59425126D01*
X185410143Y-59314984D01*
X185441856Y-59283326D01*
X185950000Y-59283326D01*
X186107496Y-59253691D01*
X186240766Y-59167934D01*
X184933700Y-60475000D01*
G36*
X157916674Y-58106327D02*
X157916674Y-58775000D01*
X157946309Y-58932496D01*
X158039389Y-59077146D01*
X158181412Y-59174186D01*
X158200000Y-59177950D01*
X158200000Y-59241674D01*
X158150000Y-59241674D01*
X157992504Y-59271309D01*
X157847854Y-59364389D01*
X157750814Y-59506412D01*
X157716674Y-59675000D01*
X157716674Y-59938856D01*
X157288909Y-59511091D01*
X157110476Y-59391866D01*
X156938318Y-59357622D01*
X156818588Y-59275814D01*
X156650000Y-59241674D01*
X156050000Y-59241674D01*
X155892504Y-59271309D01*
X155770215Y-59350000D01*
X155700000Y-59350000D01*
X155700000Y-59180101D01*
X155707496Y-59178691D01*
X155852146Y-59085611D01*
X155949186Y-58943588D01*
X155983326Y-58775000D01*
X155983326Y-58624899D01*
X156243579Y-58625126D01*
X156510143Y-58514984D01*
X156714267Y-58311216D01*
X156739231Y-58251096D01*
X156802146Y-58210611D01*
X156854952Y-58133326D01*
X157750000Y-58133326D01*
X157905507Y-58104065D01*
X157916674Y-58106327D01*
X157916674Y-58106327D01*
G37*
X157916674Y-58106327D02*
X157916674Y-58775000D01*
X157946309Y-58932496D01*
X158039389Y-59077146D01*
X158181412Y-59174186D01*
X158200000Y-59177950D01*
X158200000Y-59241674D01*
X158150000Y-59241674D01*
X157992504Y-59271309D01*
X157847854Y-59364389D01*
X157750814Y-59506412D01*
X157716674Y-59675000D01*
X157716674Y-59938856D01*
X157288909Y-59511091D01*
X157110476Y-59391866D01*
X156938318Y-59357622D01*
X156818588Y-59275814D01*
X156650000Y-59241674D01*
X156050000Y-59241674D01*
X155892504Y-59271309D01*
X155770215Y-59350000D01*
X155700000Y-59350000D01*
X155700000Y-59180101D01*
X155707496Y-59178691D01*
X155852146Y-59085611D01*
X155949186Y-58943588D01*
X155983326Y-58775000D01*
X155983326Y-58624899D01*
X156243579Y-58625126D01*
X156510143Y-58514984D01*
X156714267Y-58311216D01*
X156739231Y-58251096D01*
X156802146Y-58210611D01*
X156854952Y-58133326D01*
X157750000Y-58133326D01*
X157905507Y-58104065D01*
X157916674Y-58106327D01*
G36*
X161516674Y-58106327D02*
X161516674Y-58775000D01*
X161546309Y-58932496D01*
X161639389Y-59077146D01*
X161781412Y-59174186D01*
X161800000Y-59177950D01*
X161800000Y-59241674D01*
X161750000Y-59241674D01*
X161592504Y-59271309D01*
X161447854Y-59364389D01*
X161350814Y-59506412D01*
X161316674Y-59675000D01*
X161316674Y-59938856D01*
X160888909Y-59511091D01*
X160710476Y-59391866D01*
X160538318Y-59357622D01*
X160418588Y-59275814D01*
X160250000Y-59241674D01*
X159650000Y-59241674D01*
X159492504Y-59271309D01*
X159370215Y-59350000D01*
X159300000Y-59350000D01*
X159300000Y-59180101D01*
X159307496Y-59178691D01*
X159452146Y-59085611D01*
X159549186Y-58943588D01*
X159583326Y-58775000D01*
X159583326Y-58624899D01*
X159843579Y-58625126D01*
X160110143Y-58514984D01*
X160314267Y-58311216D01*
X160339231Y-58251096D01*
X160402146Y-58210611D01*
X160454952Y-58133326D01*
X161350000Y-58133326D01*
X161505507Y-58104065D01*
X161516674Y-58106327D01*
X161516674Y-58106327D01*
G37*
X161516674Y-58106327D02*
X161516674Y-58775000D01*
X161546309Y-58932496D01*
X161639389Y-59077146D01*
X161781412Y-59174186D01*
X161800000Y-59177950D01*
X161800000Y-59241674D01*
X161750000Y-59241674D01*
X161592504Y-59271309D01*
X161447854Y-59364389D01*
X161350814Y-59506412D01*
X161316674Y-59675000D01*
X161316674Y-59938856D01*
X160888909Y-59511091D01*
X160710476Y-59391866D01*
X160538318Y-59357622D01*
X160418588Y-59275814D01*
X160250000Y-59241674D01*
X159650000Y-59241674D01*
X159492504Y-59271309D01*
X159370215Y-59350000D01*
X159300000Y-59350000D01*
X159300000Y-59180101D01*
X159307496Y-59178691D01*
X159452146Y-59085611D01*
X159549186Y-58943588D01*
X159583326Y-58775000D01*
X159583326Y-58624899D01*
X159843579Y-58625126D01*
X160110143Y-58514984D01*
X160314267Y-58311216D01*
X160339231Y-58251096D01*
X160402146Y-58210611D01*
X160454952Y-58133326D01*
X161350000Y-58133326D01*
X161505507Y-58104065D01*
X161516674Y-58106327D01*
G36*
X175916674Y-58106327D02*
X175916674Y-58775000D01*
X175946309Y-58932496D01*
X176039389Y-59077146D01*
X176181412Y-59174186D01*
X176200000Y-59177950D01*
X176200000Y-59241674D01*
X176150000Y-59241674D01*
X175992504Y-59271309D01*
X175870215Y-59350000D01*
X175863590Y-59350000D01*
X175653114Y-59391866D01*
X175474681Y-59511091D01*
X175083326Y-59902446D01*
X175083326Y-59675000D01*
X175053691Y-59517504D01*
X174960611Y-59372854D01*
X174818588Y-59275814D01*
X174650000Y-59241674D01*
X174050000Y-59241674D01*
X173892504Y-59271309D01*
X173770215Y-59350000D01*
X173700000Y-59350000D01*
X173700000Y-59180101D01*
X173707496Y-59178691D01*
X173852146Y-59085611D01*
X173949186Y-58943588D01*
X173983326Y-58775000D01*
X173983326Y-58624899D01*
X174243579Y-58625126D01*
X174510143Y-58514984D01*
X174714267Y-58311216D01*
X174739231Y-58251096D01*
X174802146Y-58210611D01*
X174854952Y-58133326D01*
X175750000Y-58133326D01*
X175905507Y-58104065D01*
X175916674Y-58106327D01*
X175916674Y-58106327D01*
G37*
X175916674Y-58106327D02*
X175916674Y-58775000D01*
X175946309Y-58932496D01*
X176039389Y-59077146D01*
X176181412Y-59174186D01*
X176200000Y-59177950D01*
X176200000Y-59241674D01*
X176150000Y-59241674D01*
X175992504Y-59271309D01*
X175870215Y-59350000D01*
X175863590Y-59350000D01*
X175653114Y-59391866D01*
X175474681Y-59511091D01*
X175083326Y-59902446D01*
X175083326Y-59675000D01*
X175053691Y-59517504D01*
X174960611Y-59372854D01*
X174818588Y-59275814D01*
X174650000Y-59241674D01*
X174050000Y-59241674D01*
X173892504Y-59271309D01*
X173770215Y-59350000D01*
X173700000Y-59350000D01*
X173700000Y-59180101D01*
X173707496Y-59178691D01*
X173852146Y-59085611D01*
X173949186Y-58943588D01*
X173983326Y-58775000D01*
X173983326Y-58624899D01*
X174243579Y-58625126D01*
X174510143Y-58514984D01*
X174714267Y-58311216D01*
X174739231Y-58251096D01*
X174802146Y-58210611D01*
X174854952Y-58133326D01*
X175750000Y-58133326D01*
X175905507Y-58104065D01*
X175916674Y-58106327D01*
G36*
X183116674Y-58106327D02*
X183116674Y-58775000D01*
X183146309Y-58932496D01*
X183239389Y-59077146D01*
X183381412Y-59174186D01*
X183400000Y-59177950D01*
X183400000Y-59241674D01*
X183350000Y-59241674D01*
X183192504Y-59271309D01*
X183056889Y-59358575D01*
X182889524Y-59391866D01*
X182711091Y-59511091D01*
X182322181Y-59900001D01*
X182283326Y-59900001D01*
X182283326Y-59675000D01*
X182253691Y-59517504D01*
X182160611Y-59372854D01*
X182018588Y-59275814D01*
X181850000Y-59241674D01*
X181250000Y-59241674D01*
X181092504Y-59271309D01*
X180970215Y-59350000D01*
X180900000Y-59350000D01*
X180900000Y-59180101D01*
X180907496Y-59178691D01*
X181052146Y-59085611D01*
X181149186Y-58943588D01*
X181183326Y-58775000D01*
X181183326Y-58624899D01*
X181443579Y-58625126D01*
X181710143Y-58514984D01*
X181914267Y-58311216D01*
X181939231Y-58251096D01*
X182002146Y-58210611D01*
X182054952Y-58133326D01*
X182950000Y-58133326D01*
X183105507Y-58104065D01*
X183116674Y-58106327D01*
X183116674Y-58106327D01*
G37*
X183116674Y-58106327D02*
X183116674Y-58775000D01*
X183146309Y-58932496D01*
X183239389Y-59077146D01*
X183381412Y-59174186D01*
X183400000Y-59177950D01*
X183400000Y-59241674D01*
X183350000Y-59241674D01*
X183192504Y-59271309D01*
X183056889Y-59358575D01*
X182889524Y-59391866D01*
X182711091Y-59511091D01*
X182322181Y-59900001D01*
X182283326Y-59900001D01*
X182283326Y-59675000D01*
X182253691Y-59517504D01*
X182160611Y-59372854D01*
X182018588Y-59275814D01*
X181850000Y-59241674D01*
X181250000Y-59241674D01*
X181092504Y-59271309D01*
X180970215Y-59350000D01*
X180900000Y-59350000D01*
X180900000Y-59180101D01*
X180907496Y-59178691D01*
X181052146Y-59085611D01*
X181149186Y-58943588D01*
X181183326Y-58775000D01*
X181183326Y-58624899D01*
X181443579Y-58625126D01*
X181710143Y-58514984D01*
X181914267Y-58311216D01*
X181939231Y-58251096D01*
X182002146Y-58210611D01*
X182054952Y-58133326D01*
X182950000Y-58133326D01*
X183105507Y-58104065D01*
X183116674Y-58106327D01*
G36*
X154316674Y-58106327D02*
X154316674Y-58775000D01*
X154346309Y-58932496D01*
X154439389Y-59077146D01*
X154581412Y-59174186D01*
X154600000Y-59177950D01*
X154600000Y-59241674D01*
X154550000Y-59241674D01*
X154392504Y-59271309D01*
X154247854Y-59364389D01*
X154150814Y-59506412D01*
X154116674Y-59675000D01*
X154116674Y-59900001D01*
X154077819Y-59900001D01*
X153688909Y-59511091D01*
X153510476Y-59391866D01*
X153338318Y-59357622D01*
X153218588Y-59275814D01*
X153050000Y-59241674D01*
X152450000Y-59241674D01*
X152292504Y-59271309D01*
X152170215Y-59350000D01*
X152100000Y-59350000D01*
X152100000Y-59180101D01*
X152107496Y-59178691D01*
X152252146Y-59085611D01*
X152349186Y-58943588D01*
X152383326Y-58775000D01*
X152383326Y-58624899D01*
X152643579Y-58625126D01*
X152910143Y-58514984D01*
X153114267Y-58311216D01*
X153139231Y-58251096D01*
X153202146Y-58210611D01*
X153254952Y-58133326D01*
X154150000Y-58133326D01*
X154305507Y-58104065D01*
X154316674Y-58106327D01*
X154316674Y-58106327D01*
G37*
X154316674Y-58106327D02*
X154316674Y-58775000D01*
X154346309Y-58932496D01*
X154439389Y-59077146D01*
X154581412Y-59174186D01*
X154600000Y-59177950D01*
X154600000Y-59241674D01*
X154550000Y-59241674D01*
X154392504Y-59271309D01*
X154247854Y-59364389D01*
X154150814Y-59506412D01*
X154116674Y-59675000D01*
X154116674Y-59900001D01*
X154077819Y-59900001D01*
X153688909Y-59511091D01*
X153510476Y-59391866D01*
X153338318Y-59357622D01*
X153218588Y-59275814D01*
X153050000Y-59241674D01*
X152450000Y-59241674D01*
X152292504Y-59271309D01*
X152170215Y-59350000D01*
X152100000Y-59350000D01*
X152100000Y-59180101D01*
X152107496Y-59178691D01*
X152252146Y-59085611D01*
X152349186Y-58943588D01*
X152383326Y-58775000D01*
X152383326Y-58624899D01*
X152643579Y-58625126D01*
X152910143Y-58514984D01*
X153114267Y-58311216D01*
X153139231Y-58251096D01*
X153202146Y-58210611D01*
X153254952Y-58133326D01*
X154150000Y-58133326D01*
X154305507Y-58104065D01*
X154316674Y-58106327D01*
G36*
X165116674Y-58106327D02*
X165116674Y-58775000D01*
X165146309Y-58932496D01*
X165239389Y-59077146D01*
X165381412Y-59174186D01*
X165400000Y-59177950D01*
X165400000Y-59241674D01*
X165350000Y-59241674D01*
X165192504Y-59271309D01*
X165047854Y-59364389D01*
X164950814Y-59506412D01*
X164916674Y-59675000D01*
X164916674Y-59900001D01*
X164877819Y-59900001D01*
X164488909Y-59511091D01*
X164310476Y-59391866D01*
X164138318Y-59357622D01*
X164018588Y-59275814D01*
X163850000Y-59241674D01*
X163250000Y-59241674D01*
X163092504Y-59271309D01*
X162970215Y-59350000D01*
X162900000Y-59350000D01*
X162900000Y-59180101D01*
X162907496Y-59178691D01*
X163052146Y-59085611D01*
X163149186Y-58943588D01*
X163183326Y-58775000D01*
X163183326Y-58624899D01*
X163443579Y-58625126D01*
X163710143Y-58514984D01*
X163914267Y-58311216D01*
X163939231Y-58251096D01*
X164002146Y-58210611D01*
X164054952Y-58133326D01*
X164950000Y-58133326D01*
X165105507Y-58104065D01*
X165116674Y-58106327D01*
X165116674Y-58106327D01*
G37*
X165116674Y-58106327D02*
X165116674Y-58775000D01*
X165146309Y-58932496D01*
X165239389Y-59077146D01*
X165381412Y-59174186D01*
X165400000Y-59177950D01*
X165400000Y-59241674D01*
X165350000Y-59241674D01*
X165192504Y-59271309D01*
X165047854Y-59364389D01*
X164950814Y-59506412D01*
X164916674Y-59675000D01*
X164916674Y-59900001D01*
X164877819Y-59900001D01*
X164488909Y-59511091D01*
X164310476Y-59391866D01*
X164138318Y-59357622D01*
X164018588Y-59275814D01*
X163850000Y-59241674D01*
X163250000Y-59241674D01*
X163092504Y-59271309D01*
X162970215Y-59350000D01*
X162900000Y-59350000D01*
X162900000Y-59180101D01*
X162907496Y-59178691D01*
X163052146Y-59085611D01*
X163149186Y-58943588D01*
X163183326Y-58775000D01*
X163183326Y-58624899D01*
X163443579Y-58625126D01*
X163710143Y-58514984D01*
X163914267Y-58311216D01*
X163939231Y-58251096D01*
X164002146Y-58210611D01*
X164054952Y-58133326D01*
X164950000Y-58133326D01*
X165105507Y-58104065D01*
X165116674Y-58106327D01*
G36*
X179516674Y-58106327D02*
X179516674Y-58775000D01*
X179546309Y-58932496D01*
X179639389Y-59077146D01*
X179781412Y-59174186D01*
X179800000Y-59177950D01*
X179800000Y-59241674D01*
X179750000Y-59241674D01*
X179592504Y-59271309D01*
X179456889Y-59358575D01*
X179289524Y-59391866D01*
X179111091Y-59511091D01*
X178722181Y-59900001D01*
X178683326Y-59900001D01*
X178683326Y-59675000D01*
X178653691Y-59517504D01*
X178560611Y-59372854D01*
X178418588Y-59275814D01*
X178250000Y-59241674D01*
X177650000Y-59241674D01*
X177492504Y-59271309D01*
X177370215Y-59350000D01*
X177300000Y-59350000D01*
X177300000Y-59180101D01*
X177307496Y-59178691D01*
X177452146Y-59085611D01*
X177549186Y-58943588D01*
X177583326Y-58775000D01*
X177583326Y-58624899D01*
X177843579Y-58625126D01*
X178110143Y-58514984D01*
X178314267Y-58311216D01*
X178339231Y-58251096D01*
X178402146Y-58210611D01*
X178454952Y-58133326D01*
X179350000Y-58133326D01*
X179505507Y-58104065D01*
X179516674Y-58106327D01*
X179516674Y-58106327D01*
G37*
X179516674Y-58106327D02*
X179516674Y-58775000D01*
X179546309Y-58932496D01*
X179639389Y-59077146D01*
X179781412Y-59174186D01*
X179800000Y-59177950D01*
X179800000Y-59241674D01*
X179750000Y-59241674D01*
X179592504Y-59271309D01*
X179456889Y-59358575D01*
X179289524Y-59391866D01*
X179111091Y-59511091D01*
X178722181Y-59900001D01*
X178683326Y-59900001D01*
X178683326Y-59675000D01*
X178653691Y-59517504D01*
X178560611Y-59372854D01*
X178418588Y-59275814D01*
X178250000Y-59241674D01*
X177650000Y-59241674D01*
X177492504Y-59271309D01*
X177370215Y-59350000D01*
X177300000Y-59350000D01*
X177300000Y-59180101D01*
X177307496Y-59178691D01*
X177452146Y-59085611D01*
X177549186Y-58943588D01*
X177583326Y-58775000D01*
X177583326Y-58624899D01*
X177843579Y-58625126D01*
X178110143Y-58514984D01*
X178314267Y-58311216D01*
X178339231Y-58251096D01*
X178402146Y-58210611D01*
X178454952Y-58133326D01*
X179350000Y-58133326D01*
X179505507Y-58104065D01*
X179516674Y-58106327D01*
G36*
X168716674Y-58106327D02*
X168716674Y-58775000D01*
X168746309Y-58932496D01*
X168839389Y-59077146D01*
X168981412Y-59174186D01*
X169000000Y-59177950D01*
X169000000Y-59241674D01*
X168950000Y-59241674D01*
X168792504Y-59271309D01*
X168647854Y-59364389D01*
X168550814Y-59506412D01*
X168535812Y-59580492D01*
X168466411Y-59511091D01*
X168287978Y-59391866D01*
X168077502Y-59350000D01*
X167727163Y-59350000D01*
X167618588Y-59275814D01*
X167450000Y-59241674D01*
X166850000Y-59241674D01*
X166692504Y-59271309D01*
X166570215Y-59350000D01*
X166500000Y-59350000D01*
X166500000Y-59180101D01*
X166507496Y-59178691D01*
X166652146Y-59085611D01*
X166749186Y-58943588D01*
X166783326Y-58775000D01*
X166783326Y-58624899D01*
X167043579Y-58625126D01*
X167310143Y-58514984D01*
X167514267Y-58311216D01*
X167539231Y-58251096D01*
X167602146Y-58210611D01*
X167654952Y-58133326D01*
X168550000Y-58133326D01*
X168705507Y-58104065D01*
X168716674Y-58106327D01*
X168716674Y-58106327D01*
G37*
X168716674Y-58106327D02*
X168716674Y-58775000D01*
X168746309Y-58932496D01*
X168839389Y-59077146D01*
X168981412Y-59174186D01*
X169000000Y-59177950D01*
X169000000Y-59241674D01*
X168950000Y-59241674D01*
X168792504Y-59271309D01*
X168647854Y-59364389D01*
X168550814Y-59506412D01*
X168535812Y-59580492D01*
X168466411Y-59511091D01*
X168287978Y-59391866D01*
X168077502Y-59350000D01*
X167727163Y-59350000D01*
X167618588Y-59275814D01*
X167450000Y-59241674D01*
X166850000Y-59241674D01*
X166692504Y-59271309D01*
X166570215Y-59350000D01*
X166500000Y-59350000D01*
X166500000Y-59180101D01*
X166507496Y-59178691D01*
X166652146Y-59085611D01*
X166749186Y-58943588D01*
X166783326Y-58775000D01*
X166783326Y-58624899D01*
X167043579Y-58625126D01*
X167310143Y-58514984D01*
X167514267Y-58311216D01*
X167539231Y-58251096D01*
X167602146Y-58210611D01*
X167654952Y-58133326D01*
X168550000Y-58133326D01*
X168705507Y-58104065D01*
X168716674Y-58106327D01*
G36*
X190367000Y-55000000D02*
X190410290Y-55230069D01*
X190546261Y-55441372D01*
X190753728Y-55583129D01*
X191000000Y-55633000D01*
X191541612Y-55633000D01*
X191485731Y-55688784D01*
X191375124Y-55955156D01*
X191374896Y-56216674D01*
X191125000Y-56216674D01*
X190967504Y-56246309D01*
X190900293Y-56289559D01*
X190843588Y-56250814D01*
X190675000Y-56216674D01*
X189925000Y-56216674D01*
X189767504Y-56246309D01*
X189622854Y-56339389D01*
X189564359Y-56425000D01*
X189350000Y-56425000D01*
X189110823Y-56472575D01*
X188908058Y-56608058D01*
X188799442Y-56716674D01*
X187950000Y-56716674D01*
X187792504Y-56746309D01*
X187647854Y-56839389D01*
X187550814Y-56981412D01*
X187516674Y-57150000D01*
X187516674Y-58850000D01*
X187521378Y-58874999D01*
X186834005Y-58874999D01*
X186556560Y-58930186D01*
X186352292Y-59066674D01*
X186321353Y-59087347D01*
X186260898Y-59147802D01*
X186349186Y-59018588D01*
X186383326Y-58850000D01*
X186383326Y-57150000D01*
X186374789Y-57104632D01*
X186392387Y-57097361D01*
X186596511Y-56893593D01*
X186707118Y-56627221D01*
X186707370Y-56338798D01*
X186597228Y-56072234D01*
X186393460Y-55868110D01*
X186127088Y-55757503D01*
X185838665Y-55757251D01*
X185572101Y-55867393D01*
X185464498Y-55974808D01*
X185344844Y-55925124D01*
X185056421Y-55924872D01*
X184789857Y-56035014D01*
X184585733Y-56238782D01*
X184565705Y-56287015D01*
X184583326Y-56200000D01*
X184583326Y-55700000D01*
X184553691Y-55542504D01*
X184460611Y-55397854D01*
X184377448Y-55341031D01*
X184314984Y-55189857D01*
X184250240Y-55125000D01*
X190000000Y-55125000D01*
X190045432Y-55116451D01*
X190087159Y-55089601D01*
X190115152Y-55048632D01*
X190125000Y-55000000D01*
X190125000Y-50500000D01*
X190367000Y-50500000D01*
X190367000Y-55000000D01*
X190367000Y-55000000D01*
G37*
X190367000Y-55000000D02*
X190410290Y-55230069D01*
X190546261Y-55441372D01*
X190753728Y-55583129D01*
X191000000Y-55633000D01*
X191541612Y-55633000D01*
X191485731Y-55688784D01*
X191375124Y-55955156D01*
X191374896Y-56216674D01*
X191125000Y-56216674D01*
X190967504Y-56246309D01*
X190900293Y-56289559D01*
X190843588Y-56250814D01*
X190675000Y-56216674D01*
X189925000Y-56216674D01*
X189767504Y-56246309D01*
X189622854Y-56339389D01*
X189564359Y-56425000D01*
X189350000Y-56425000D01*
X189110823Y-56472575D01*
X188908058Y-56608058D01*
X188799442Y-56716674D01*
X187950000Y-56716674D01*
X187792504Y-56746309D01*
X187647854Y-56839389D01*
X187550814Y-56981412D01*
X187516674Y-57150000D01*
X187516674Y-58850000D01*
X187521378Y-58874999D01*
X186834005Y-58874999D01*
X186556560Y-58930186D01*
X186352292Y-59066674D01*
X186321353Y-59087347D01*
X186260898Y-59147802D01*
X186349186Y-59018588D01*
X186383326Y-58850000D01*
X186383326Y-57150000D01*
X186374789Y-57104632D01*
X186392387Y-57097361D01*
X186596511Y-56893593D01*
X186707118Y-56627221D01*
X186707370Y-56338798D01*
X186597228Y-56072234D01*
X186393460Y-55868110D01*
X186127088Y-55757503D01*
X185838665Y-55757251D01*
X185572101Y-55867393D01*
X185464498Y-55974808D01*
X185344844Y-55925124D01*
X185056421Y-55924872D01*
X184789857Y-56035014D01*
X184585733Y-56238782D01*
X184565705Y-56287015D01*
X184583326Y-56200000D01*
X184583326Y-55700000D01*
X184553691Y-55542504D01*
X184460611Y-55397854D01*
X184377448Y-55341031D01*
X184314984Y-55189857D01*
X184250240Y-55125000D01*
X190000000Y-55125000D01*
X190045432Y-55116451D01*
X190087159Y-55089601D01*
X190115152Y-55048632D01*
X190125000Y-55000000D01*
X190125000Y-50500000D01*
X190367000Y-50500000D01*
X190367000Y-55000000D01*
G36*
X188875000Y-84323299D02*
X185326464Y-84275346D01*
X181849240Y-82785107D01*
X181815165Y-82775923D01*
X177431481Y-82240139D01*
X177518184Y-80722833D01*
X185502314Y-80574979D01*
X185550756Y-80564232D01*
X185588388Y-80538388D01*
X185851776Y-80275000D01*
X188875000Y-80275000D01*
X188875000Y-84323299D01*
X188875000Y-84323299D01*
G37*
X188875000Y-84323299D02*
X185326464Y-84275346D01*
X181849240Y-82785107D01*
X181815165Y-82775923D01*
X177431481Y-82240139D01*
X177518184Y-80722833D01*
X185502314Y-80574979D01*
X185550756Y-80564232D01*
X185588388Y-80538388D01*
X185851776Y-80275000D01*
X188875000Y-80275000D01*
X188875000Y-84323299D01*
G36*
X188511612Y-76838388D02*
X188552963Y-76865813D01*
X188600000Y-76875000D01*
X193948224Y-76875000D01*
X195875000Y-78801776D01*
X195875000Y-84325000D01*
X193125000Y-84325000D01*
X193125000Y-79850000D01*
X193104006Y-79780662D01*
X193004006Y-79630662D01*
X192968836Y-79595661D01*
X192900000Y-79575000D01*
X183383508Y-79575000D01*
X186855113Y-75775000D01*
X187448224Y-75775000D01*
X188511612Y-76838388D01*
X188511612Y-76838388D01*
G37*
X188511612Y-76838388D02*
X188552963Y-76865813D01*
X188600000Y-76875000D01*
X193948224Y-76875000D01*
X195875000Y-78801776D01*
X195875000Y-84325000D01*
X193125000Y-84325000D01*
X193125000Y-79850000D01*
X193104006Y-79780662D01*
X193004006Y-79630662D01*
X192968836Y-79595661D01*
X192900000Y-79575000D01*
X183383508Y-79575000D01*
X186855113Y-75775000D01*
X187448224Y-75775000D01*
X188511612Y-76838388D01*
D51*
G36*
X186973000Y-67373000D02*
X183543444Y-67373000D01*
X183336999Y-67166555D01*
X183336999Y-65427000D01*
X186973000Y-65427000D01*
X186973000Y-67373000D01*
X186973000Y-67373000D01*
G37*
X186973000Y-67373000D02*
X183543444Y-67373000D01*
X183336999Y-67166555D01*
X183336999Y-65427000D01*
X186973000Y-65427000D01*
X186973000Y-67373000D01*
M02*
