%TF.GenerationSoftware,KiCad,Pcbnew,4.0.7*%
%TF.CreationDate,2018-05-06T22:33:30+03:00*%
%TF.ProjectId,FlexiBMS,466C657869424D532E6B696361645F70,rev?*%
%TF.FileFunction,Soldermask,Top*%
%FSLAX46Y46*%
G04 Gerber Fmt 4.6, Leading zero omitted, Abs format (unit mm)*
G04 Created by KiCad (PCBNEW 4.0.7) date 05/06/18 22:33:30*
%MOMM*%
%LPD*%
G01*
G04 APERTURE LIST*
%ADD10C,0.100000*%
%ADD11C,6.240000*%
%ADD12R,1.990000X1.990000*%
%ADD13C,1.990000*%
%ADD14R,1.040000X0.990000*%
%ADD15R,0.990000X1.040000*%
%ADD16R,1.840000X1.240000*%
%ADD17R,4.240000X2.740000*%
%ADD18R,1.040000X1.040000*%
%ADD19R,0.840000X0.690000*%
%ADD20R,1.340000X1.340000*%
%ADD21R,0.690000X1.620000*%
%ADD22R,1.715000X2.340000*%
%ADD23R,2.615000X2.140000*%
%ADD24R,1.415000X2.140000*%
%ADD25R,1.140000X1.940000*%
%ADD26R,1.940000X1.140000*%
%ADD27R,2.340000X1.940000*%
%ADD28R,0.740000X1.140000*%
%ADD29R,1.140000X0.740000*%
%ADD30R,1.290000X0.890000*%
%ADD31R,4.240000X4.240000*%
%ADD32R,1.940000X1.940000*%
%ADD33O,1.940000X1.940000*%
%ADD34R,0.490000X1.490000*%
%ADD35R,1.240000X5.740000*%
%ADD36R,1.840000X3.240000*%
%ADD37R,0.840000X0.640000*%
%ADD38R,0.690000X1.740000*%
%ADD39O,2.040000X1.340000*%
%ADD40O,2.440000X1.340000*%
%ADD41R,3.740000X1.840000*%
%ADD42R,1.240000X3.240000*%
%ADD43C,0.254000*%
G04 APERTURE END LIST*
D10*
D11*
X201500000Y-81500000D03*
X201500000Y-53500000D03*
X143500000Y-81500000D03*
D12*
X179200000Y-52800000D03*
D13*
X176700000Y-52800000D03*
X174200000Y-52800000D03*
X171700000Y-52800000D03*
X169200000Y-52800000D03*
X166700000Y-52800000D03*
X164200000Y-52800000D03*
X161700000Y-52800000D03*
X159200000Y-52800000D03*
X156700000Y-52800000D03*
X154200000Y-52800000D03*
X151700000Y-52800000D03*
X149200000Y-52800000D03*
D14*
X160500000Y-68950000D03*
X162000000Y-68950000D03*
D15*
X160750000Y-73450000D03*
X160750000Y-74950000D03*
X162350000Y-73450000D03*
X162350000Y-74950000D03*
D14*
X182450000Y-58400000D03*
X183950000Y-58400000D03*
X178850000Y-58400000D03*
X180350000Y-58400000D03*
X175250000Y-58400000D03*
X176750000Y-58400000D03*
X171650000Y-58400000D03*
X173150000Y-58400000D03*
X168050000Y-58400000D03*
X169550000Y-58400000D03*
X164450000Y-58400000D03*
X165950000Y-58400000D03*
X160850000Y-58400000D03*
X162350000Y-58400000D03*
X157250000Y-58400000D03*
X158750000Y-58400000D03*
X153650000Y-58400000D03*
X155150000Y-58400000D03*
X150050000Y-58400000D03*
X151550000Y-58400000D03*
X146450000Y-60700000D03*
X147950000Y-60700000D03*
X142850000Y-60700000D03*
X144350000Y-60700000D03*
D16*
X182950000Y-64650000D03*
X182950000Y-67650000D03*
D15*
X187500000Y-57050000D03*
X187500000Y-58550000D03*
X190200000Y-58550000D03*
X190200000Y-57050000D03*
X188850000Y-58550000D03*
X188850000Y-57050000D03*
D16*
X168350000Y-71950000D03*
X168350000Y-74950000D03*
D15*
X167450000Y-82800000D03*
X167450000Y-81300000D03*
D17*
X186650000Y-68250000D03*
X194650000Y-68250000D03*
D15*
X168800000Y-81300000D03*
X168800000Y-82800000D03*
D18*
X154400000Y-78200000D03*
X156000000Y-78200000D03*
X177200000Y-64200000D03*
X178800000Y-64200000D03*
D19*
X183650000Y-59900000D03*
X181550000Y-59900000D03*
D18*
X181300000Y-55900000D03*
X181300000Y-57500000D03*
D19*
X180050000Y-59900000D03*
X177950000Y-59900000D03*
D18*
X177700000Y-55900000D03*
X177700000Y-57500000D03*
D19*
X176450000Y-59900000D03*
X174350000Y-59900000D03*
D18*
X174100000Y-55900000D03*
X174100000Y-57500000D03*
D19*
X172850000Y-59900000D03*
X170750000Y-59900000D03*
D18*
X170500000Y-55900000D03*
X170500000Y-57500000D03*
D19*
X169250000Y-59900000D03*
X167150000Y-59900000D03*
D18*
X166900000Y-55900000D03*
X166900000Y-57500000D03*
D19*
X165650000Y-59900000D03*
X163550000Y-59900000D03*
D18*
X163300000Y-55900000D03*
X163300000Y-57500000D03*
D19*
X162050000Y-59900000D03*
X159950000Y-59900000D03*
D18*
X159700000Y-55900000D03*
X159700000Y-57500000D03*
D19*
X158450000Y-59900000D03*
X156350000Y-59900000D03*
D18*
X156100000Y-55900000D03*
X156100000Y-57500000D03*
D19*
X154850000Y-59900000D03*
X152750000Y-59900000D03*
D18*
X152500000Y-55900000D03*
X152500000Y-57500000D03*
D19*
X151250000Y-59900000D03*
X149150000Y-59900000D03*
D18*
X148900000Y-55900000D03*
X148900000Y-57500000D03*
D19*
X147650000Y-62200000D03*
X145550000Y-62200000D03*
D18*
X145300000Y-58200000D03*
X145300000Y-59800000D03*
D19*
X144000000Y-62200000D03*
X141900000Y-62200000D03*
D18*
X141700000Y-58200000D03*
X141700000Y-59800000D03*
D20*
X180700000Y-64700000D03*
X180700000Y-67500000D03*
D21*
X149800000Y-80840000D03*
X150450000Y-80840000D03*
X151100000Y-80840000D03*
X151750000Y-80840000D03*
X152400000Y-80840000D03*
D22*
X148637500Y-81200000D03*
X153562500Y-81200000D03*
D23*
X148190000Y-83500000D03*
X154010000Y-83500000D03*
D24*
X150260000Y-83500000D03*
X151940000Y-83500000D03*
D25*
X180150000Y-62100000D03*
X177250000Y-62100000D03*
D26*
X185600000Y-59800000D03*
X185600000Y-56900000D03*
D27*
X159800000Y-80350000D03*
X156000000Y-80350000D03*
X159800000Y-83850000D03*
D28*
X166250000Y-76600000D03*
X164750000Y-76600000D03*
D29*
X160650000Y-72200000D03*
X160650000Y-70700000D03*
X159250000Y-72200000D03*
X159250000Y-70700000D03*
X160050000Y-78700000D03*
X160050000Y-77200000D03*
D28*
X178150000Y-70750000D03*
X176650000Y-70750000D03*
X174750000Y-70750000D03*
X173250000Y-70750000D03*
X180700000Y-70750000D03*
X179200000Y-70750000D03*
D30*
X166075000Y-84150000D03*
X161925000Y-84150000D03*
X166075000Y-82000000D03*
X161925000Y-82000000D03*
X161925000Y-78025000D03*
X166075000Y-78025000D03*
X161925000Y-80175000D03*
X166075000Y-80175000D03*
D31*
X181600000Y-78100000D03*
X171600000Y-78100000D03*
D18*
X154400000Y-76800000D03*
X156000000Y-76800000D03*
D32*
X200660000Y-58640000D03*
D33*
X203200000Y-58640000D03*
X200660000Y-61180000D03*
X203200000Y-61180000D03*
X200660000Y-63720000D03*
X203200000Y-63720000D03*
X200660000Y-66260000D03*
X203200000Y-66260000D03*
X200660000Y-68800000D03*
X203200000Y-68800000D03*
X200660000Y-71340000D03*
X203200000Y-71340000D03*
X200660000Y-73880000D03*
X203200000Y-73880000D03*
X200660000Y-76420000D03*
X203200000Y-76420000D03*
D34*
X174850000Y-68900000D03*
X174350000Y-68900000D03*
X173850000Y-68900000D03*
X173350000Y-68900000D03*
X172350000Y-68900000D03*
X171350000Y-68900000D03*
X172850000Y-68900000D03*
X171850000Y-68900000D03*
X169850000Y-68900000D03*
X168850000Y-68900000D03*
X167850000Y-68900000D03*
X167350000Y-68900000D03*
X170350000Y-68900000D03*
X169350000Y-68900000D03*
X170850000Y-68900000D03*
X168350000Y-68900000D03*
X165850000Y-68900000D03*
X164850000Y-68900000D03*
X166350000Y-68900000D03*
X165350000Y-68900000D03*
X166850000Y-68900000D03*
X164350000Y-68900000D03*
X174850000Y-62100000D03*
X174350000Y-62100000D03*
X173850000Y-62100000D03*
X173350000Y-62100000D03*
X172850000Y-62100000D03*
X172350000Y-62100000D03*
X171350000Y-62100000D03*
X170850000Y-62100000D03*
X171850000Y-62100000D03*
X170350000Y-62100000D03*
X169850000Y-62100000D03*
X168850000Y-62100000D03*
X169350000Y-62100000D03*
X168350000Y-62100000D03*
X167850000Y-62100000D03*
X166850000Y-62100000D03*
X167350000Y-62100000D03*
X166350000Y-62100000D03*
X165850000Y-62100000D03*
X164850000Y-62100000D03*
X165350000Y-62100000D03*
X164350000Y-62100000D03*
D35*
X149500000Y-66375000D03*
X147500000Y-66375000D03*
X145500000Y-66375000D03*
X143500000Y-66375000D03*
D36*
X151900000Y-68625000D03*
X141100000Y-68625000D03*
D35*
X149500000Y-74000000D03*
X147500000Y-74000000D03*
X145500000Y-74000000D03*
X143500000Y-74000000D03*
D36*
X151900000Y-76250000D03*
X141100000Y-76250000D03*
D37*
X183700000Y-56250000D03*
X183700000Y-57150000D03*
X182500000Y-55650000D03*
X182500000Y-56550000D03*
X180100000Y-56250000D03*
X180100000Y-57150000D03*
X178900000Y-55650000D03*
X178900000Y-56550000D03*
X176500000Y-56250000D03*
X176500000Y-57150000D03*
X175300000Y-55650000D03*
X175300000Y-56550000D03*
X172900000Y-56250000D03*
X172900000Y-57150000D03*
X171700000Y-55650000D03*
X171700000Y-56550000D03*
X169300000Y-56250000D03*
X169300000Y-57150000D03*
X168100000Y-55650000D03*
X168100000Y-56550000D03*
X165700000Y-56250000D03*
X165700000Y-57150000D03*
X164500000Y-55650000D03*
X164500000Y-56550000D03*
X162100000Y-56250000D03*
X162100000Y-57150000D03*
X160900000Y-55650000D03*
X160900000Y-56550000D03*
X158500000Y-56250000D03*
X158500000Y-57150000D03*
X157300000Y-55650000D03*
X157300000Y-56550000D03*
X154900000Y-56250000D03*
X154900000Y-57150000D03*
X153700000Y-55650000D03*
X153700000Y-56550000D03*
X151300000Y-56250000D03*
X151300000Y-57150000D03*
X150100000Y-55650000D03*
X150100000Y-56550000D03*
X147700000Y-58550000D03*
X147700000Y-59450000D03*
X146500000Y-57950000D03*
X146500000Y-58850000D03*
X144100000Y-58550000D03*
X144100000Y-59450000D03*
X142900000Y-57950000D03*
X142900000Y-58850000D03*
D38*
X151100000Y-80850000D03*
X151750000Y-80850000D03*
X150450000Y-80850000D03*
X152400000Y-80850000D03*
X149800000Y-80850000D03*
D39*
X148300000Y-80600000D03*
X153900000Y-80600000D03*
D40*
X151100000Y-82750000D03*
D11*
X143500000Y-53500000D03*
D41*
X186400000Y-77000000D03*
X191800000Y-77000000D03*
D42*
X157070000Y-73720000D03*
X157070000Y-68680000D03*
X154530000Y-73720000D03*
X154530000Y-68680000D03*
D15*
X166650000Y-75200000D03*
X166650000Y-73700000D03*
D43*
G36*
X189873000Y-50626034D02*
X189873000Y-54872027D01*
X183577000Y-54823966D01*
X183577000Y-50577973D01*
X189873000Y-50626034D01*
X189873000Y-50626034D01*
G37*
X189873000Y-50626034D02*
X189873000Y-54872027D01*
X183577000Y-54823966D01*
X183577000Y-50577973D01*
X189873000Y-50626034D01*
G36*
X197873000Y-54873000D02*
X191127000Y-54873000D01*
X191127000Y-50627000D01*
X197873000Y-50627000D01*
X197873000Y-54873000D01*
X197873000Y-54873000D01*
G37*
X197873000Y-54873000D02*
X191127000Y-54873000D01*
X191127000Y-50627000D01*
X197873000Y-50627000D01*
X197873000Y-54873000D01*
G36*
X189873000Y-82823000D02*
X184279619Y-82823000D01*
X184324435Y-80627000D01*
X189873000Y-80627000D01*
X189873000Y-82823000D01*
X189873000Y-82823000D01*
G37*
X189873000Y-82823000D02*
X184279619Y-82823000D01*
X184324435Y-80627000D01*
X189873000Y-80627000D01*
X189873000Y-82823000D01*
G36*
X196023000Y-82773000D02*
X190527000Y-82773000D01*
X190527000Y-80627000D01*
X192450000Y-80627000D01*
X192499410Y-80616994D01*
X192539803Y-80589803D01*
X193289803Y-79839803D01*
X193317666Y-79797789D01*
X193327000Y-79750000D01*
X193327000Y-79227000D01*
X196023000Y-79227000D01*
X196023000Y-82773000D01*
X196023000Y-82773000D01*
G37*
X196023000Y-82773000D02*
X190527000Y-82773000D01*
X190527000Y-80627000D01*
X192450000Y-80627000D01*
X192499410Y-80616994D01*
X192539803Y-80589803D01*
X193289803Y-79839803D01*
X193317666Y-79797789D01*
X193327000Y-79750000D01*
X193327000Y-79227000D01*
X196023000Y-79227000D01*
X196023000Y-82773000D01*
G36*
X198323000Y-74647394D02*
X197860197Y-75110197D01*
X197832334Y-75152211D01*
X197823000Y-75200000D01*
X197823000Y-77823000D01*
X194177000Y-77823000D01*
X194177000Y-73727000D01*
X198323000Y-73727000D01*
X198323000Y-74647394D01*
X198323000Y-74647394D01*
G37*
X198323000Y-74647394D02*
X197860197Y-75110197D01*
X197832334Y-75152211D01*
X197823000Y-75200000D01*
X197823000Y-77823000D01*
X194177000Y-77823000D01*
X194177000Y-73727000D01*
X198323000Y-73727000D01*
X198323000Y-74647394D01*
M02*
