%TF.GenerationSoftware,KiCad,Pcbnew,4.0.7*%
%TF.CreationDate,2018-05-06T22:33:30+03:00*%
%TF.ProjectId,FlexiBMS,466C657869424D532E6B696361645F70,rev?*%
%TF.FileFunction,Copper,L1,Top,Signal*%
%FSLAX46Y46*%
G04 Gerber Fmt 4.6, Leading zero omitted, Abs format (unit mm)*
G04 Created by KiCad (PCBNEW 4.0.7) date 05/06/18 22:33:30*
%MOMM*%
%LPD*%
G01*
G04 APERTURE LIST*
%ADD10C,0.100000*%
%ADD11C,6.000000*%
%ADD12R,1.750000X1.750000*%
%ADD13C,1.750000*%
%ADD14R,0.800000X0.750000*%
%ADD15R,0.750000X0.800000*%
%ADD16R,1.600000X1.000000*%
%ADD17R,4.000000X2.500000*%
%ADD18R,0.800000X0.800000*%
%ADD19R,0.600000X0.450000*%
%ADD20R,1.100000X1.100000*%
%ADD21R,0.450000X1.380000*%
%ADD22R,1.475000X2.100000*%
%ADD23R,2.375000X1.900000*%
%ADD24R,1.175000X1.900000*%
%ADD25R,0.900000X1.700000*%
%ADD26R,1.700000X0.900000*%
%ADD27R,2.100000X1.700000*%
%ADD28R,0.500000X0.900000*%
%ADD29R,0.900000X0.500000*%
%ADD30R,1.050000X0.650000*%
%ADD31R,4.000000X4.000000*%
%ADD32R,1.700000X1.700000*%
%ADD33O,1.700000X1.700000*%
%ADD34R,0.250000X1.250000*%
%ADD35R,1.000000X5.500000*%
%ADD36R,1.600000X3.000000*%
%ADD37R,0.600000X0.400000*%
%ADD38R,0.450000X1.500000*%
%ADD39O,1.800000X1.100000*%
%ADD40O,2.200000X1.100000*%
%ADD41R,3.500000X1.600000*%
%ADD42R,1.000000X3.000000*%
%ADD43C,0.600000*%
%ADD44C,0.180000*%
%ADD45C,0.600000*%
%ADD46C,0.250000*%
%ADD47C,0.400000*%
%ADD48C,1.000000*%
%ADD49C,0.254000*%
G04 APERTURE END LIST*
D10*
D11*
X201500000Y-81500000D03*
X201500000Y-53500000D03*
X143500000Y-81500000D03*
D12*
X179200000Y-52800000D03*
D13*
X176700000Y-52800000D03*
X174200000Y-52800000D03*
X171700000Y-52800000D03*
X169200000Y-52800000D03*
X166700000Y-52800000D03*
X164200000Y-52800000D03*
X161700000Y-52800000D03*
X159200000Y-52800000D03*
X156700000Y-52800000D03*
X154200000Y-52800000D03*
X151700000Y-52800000D03*
X149200000Y-52800000D03*
D14*
X160500000Y-68950000D03*
X162000000Y-68950000D03*
D15*
X160750000Y-73450000D03*
X160750000Y-74950000D03*
X162350000Y-73450000D03*
X162350000Y-74950000D03*
D14*
X182450000Y-58400000D03*
X183950000Y-58400000D03*
X178850000Y-58400000D03*
X180350000Y-58400000D03*
X175250000Y-58400000D03*
X176750000Y-58400000D03*
X171650000Y-58400000D03*
X173150000Y-58400000D03*
X168050000Y-58400000D03*
X169550000Y-58400000D03*
X164450000Y-58400000D03*
X165950000Y-58400000D03*
X160850000Y-58400000D03*
X162350000Y-58400000D03*
X157250000Y-58400000D03*
X158750000Y-58400000D03*
X153650000Y-58400000D03*
X155150000Y-58400000D03*
X150050000Y-58400000D03*
X151550000Y-58400000D03*
X146450000Y-60700000D03*
X147950000Y-60700000D03*
X142850000Y-60700000D03*
X144350000Y-60700000D03*
D16*
X182950000Y-64650000D03*
X182950000Y-67650000D03*
D15*
X187500000Y-57050000D03*
X187500000Y-58550000D03*
X190200000Y-58550000D03*
X190200000Y-57050000D03*
X188850000Y-58550000D03*
X188850000Y-57050000D03*
D16*
X168350000Y-71950000D03*
X168350000Y-74950000D03*
D15*
X167450000Y-82800000D03*
X167450000Y-81300000D03*
D17*
X186650000Y-68250000D03*
X194650000Y-68250000D03*
D15*
X168800000Y-81300000D03*
X168800000Y-82800000D03*
D18*
X154400000Y-78200000D03*
X156000000Y-78200000D03*
X177200000Y-64200000D03*
X178800000Y-64200000D03*
D19*
X183650000Y-59900000D03*
X181550000Y-59900000D03*
D18*
X181300000Y-55900000D03*
X181300000Y-57500000D03*
D19*
X180050000Y-59900000D03*
X177950000Y-59900000D03*
D18*
X177700000Y-55900000D03*
X177700000Y-57500000D03*
D19*
X176450000Y-59900000D03*
X174350000Y-59900000D03*
D18*
X174100000Y-55900000D03*
X174100000Y-57500000D03*
D19*
X172850000Y-59900000D03*
X170750000Y-59900000D03*
D18*
X170500000Y-55900000D03*
X170500000Y-57500000D03*
D19*
X169250000Y-59900000D03*
X167150000Y-59900000D03*
D18*
X166900000Y-55900000D03*
X166900000Y-57500000D03*
D19*
X165650000Y-59900000D03*
X163550000Y-59900000D03*
D18*
X163300000Y-55900000D03*
X163300000Y-57500000D03*
D19*
X162050000Y-59900000D03*
X159950000Y-59900000D03*
D18*
X159700000Y-55900000D03*
X159700000Y-57500000D03*
D19*
X158450000Y-59900000D03*
X156350000Y-59900000D03*
D18*
X156100000Y-55900000D03*
X156100000Y-57500000D03*
D19*
X154850000Y-59900000D03*
X152750000Y-59900000D03*
D18*
X152500000Y-55900000D03*
X152500000Y-57500000D03*
D19*
X151250000Y-59900000D03*
X149150000Y-59900000D03*
D18*
X148900000Y-55900000D03*
X148900000Y-57500000D03*
D19*
X147650000Y-62200000D03*
X145550000Y-62200000D03*
D18*
X145300000Y-58200000D03*
X145300000Y-59800000D03*
D19*
X144000000Y-62200000D03*
X141900000Y-62200000D03*
D18*
X141700000Y-58200000D03*
X141700000Y-59800000D03*
D20*
X180700000Y-64700000D03*
X180700000Y-67500000D03*
D21*
X149800000Y-80840000D03*
X150450000Y-80840000D03*
X151100000Y-80840000D03*
X151750000Y-80840000D03*
X152400000Y-80840000D03*
D22*
X148637500Y-81200000D03*
X153562500Y-81200000D03*
D23*
X148190000Y-83500000D03*
X154010000Y-83500000D03*
D24*
X150260000Y-83500000D03*
X151940000Y-83500000D03*
D25*
X180150000Y-62100000D03*
X177250000Y-62100000D03*
D26*
X185600000Y-59800000D03*
X185600000Y-56900000D03*
D27*
X159800000Y-80350000D03*
X156000000Y-80350000D03*
X159800000Y-83850000D03*
D28*
X166250000Y-76600000D03*
X164750000Y-76600000D03*
D29*
X160650000Y-72200000D03*
X160650000Y-70700000D03*
X159250000Y-72200000D03*
X159250000Y-70700000D03*
X160050000Y-78700000D03*
X160050000Y-77200000D03*
D28*
X178150000Y-70750000D03*
X176650000Y-70750000D03*
X174750000Y-70750000D03*
X173250000Y-70750000D03*
X180700000Y-70750000D03*
X179200000Y-70750000D03*
D30*
X166075000Y-84150000D03*
X161925000Y-84150000D03*
X166075000Y-82000000D03*
X161925000Y-82000000D03*
X161925000Y-78025000D03*
X166075000Y-78025000D03*
X161925000Y-80175000D03*
X166075000Y-80175000D03*
D31*
X181600000Y-78100000D03*
X171600000Y-78100000D03*
D18*
X154400000Y-76800000D03*
X156000000Y-76800000D03*
D32*
X200660000Y-58640000D03*
D33*
X203200000Y-58640000D03*
X200660000Y-61180000D03*
X203200000Y-61180000D03*
X200660000Y-63720000D03*
X203200000Y-63720000D03*
X200660000Y-66260000D03*
X203200000Y-66260000D03*
X200660000Y-68800000D03*
X203200000Y-68800000D03*
X200660000Y-71340000D03*
X203200000Y-71340000D03*
X200660000Y-73880000D03*
X203200000Y-73880000D03*
X200660000Y-76420000D03*
X203200000Y-76420000D03*
D34*
X174850000Y-68900000D03*
X174350000Y-68900000D03*
X173850000Y-68900000D03*
X173350000Y-68900000D03*
X172350000Y-68900000D03*
X171350000Y-68900000D03*
X172850000Y-68900000D03*
X171850000Y-68900000D03*
X169850000Y-68900000D03*
X168850000Y-68900000D03*
X167850000Y-68900000D03*
X167350000Y-68900000D03*
X170350000Y-68900000D03*
X169350000Y-68900000D03*
X170850000Y-68900000D03*
X168350000Y-68900000D03*
X165850000Y-68900000D03*
X164850000Y-68900000D03*
X166350000Y-68900000D03*
X165350000Y-68900000D03*
X166850000Y-68900000D03*
X164350000Y-68900000D03*
X174850000Y-62100000D03*
X174350000Y-62100000D03*
X173850000Y-62100000D03*
X173350000Y-62100000D03*
X172850000Y-62100000D03*
X172350000Y-62100000D03*
X171350000Y-62100000D03*
X170850000Y-62100000D03*
X171850000Y-62100000D03*
X170350000Y-62100000D03*
X169850000Y-62100000D03*
X168850000Y-62100000D03*
X169350000Y-62100000D03*
X168350000Y-62100000D03*
X167850000Y-62100000D03*
X166850000Y-62100000D03*
X167350000Y-62100000D03*
X166350000Y-62100000D03*
X165850000Y-62100000D03*
X164850000Y-62100000D03*
X165350000Y-62100000D03*
X164350000Y-62100000D03*
D35*
X149500000Y-66375000D03*
X147500000Y-66375000D03*
X145500000Y-66375000D03*
X143500000Y-66375000D03*
D36*
X151900000Y-68625000D03*
X141100000Y-68625000D03*
D35*
X149500000Y-74000000D03*
X147500000Y-74000000D03*
X145500000Y-74000000D03*
X143500000Y-74000000D03*
D36*
X151900000Y-76250000D03*
X141100000Y-76250000D03*
D37*
X183700000Y-56250000D03*
X183700000Y-57150000D03*
X182500000Y-55650000D03*
X182500000Y-56550000D03*
X180100000Y-56250000D03*
X180100000Y-57150000D03*
X178900000Y-55650000D03*
X178900000Y-56550000D03*
X176500000Y-56250000D03*
X176500000Y-57150000D03*
X175300000Y-55650000D03*
X175300000Y-56550000D03*
X172900000Y-56250000D03*
X172900000Y-57150000D03*
X171700000Y-55650000D03*
X171700000Y-56550000D03*
X169300000Y-56250000D03*
X169300000Y-57150000D03*
X168100000Y-55650000D03*
X168100000Y-56550000D03*
X165700000Y-56250000D03*
X165700000Y-57150000D03*
X164500000Y-55650000D03*
X164500000Y-56550000D03*
X162100000Y-56250000D03*
X162100000Y-57150000D03*
X160900000Y-55650000D03*
X160900000Y-56550000D03*
X158500000Y-56250000D03*
X158500000Y-57150000D03*
X157300000Y-55650000D03*
X157300000Y-56550000D03*
X154900000Y-56250000D03*
X154900000Y-57150000D03*
X153700000Y-55650000D03*
X153700000Y-56550000D03*
X151300000Y-56250000D03*
X151300000Y-57150000D03*
X150100000Y-55650000D03*
X150100000Y-56550000D03*
X147700000Y-58550000D03*
X147700000Y-59450000D03*
X146500000Y-57950000D03*
X146500000Y-58850000D03*
X144100000Y-58550000D03*
X144100000Y-59450000D03*
X142900000Y-57950000D03*
X142900000Y-58850000D03*
D38*
X151100000Y-80850000D03*
X151750000Y-80850000D03*
X150450000Y-80850000D03*
X152400000Y-80850000D03*
X149800000Y-80850000D03*
D39*
X148300000Y-80600000D03*
X153900000Y-80600000D03*
D40*
X151100000Y-82750000D03*
D11*
X143500000Y-53500000D03*
D41*
X186400000Y-77000000D03*
X191800000Y-77000000D03*
D42*
X157070000Y-73720000D03*
X157070000Y-68680000D03*
X154530000Y-73720000D03*
X154530000Y-68680000D03*
D15*
X166650000Y-75200000D03*
X166650000Y-73700000D03*
D43*
X179100000Y-65550000D03*
X178600000Y-66050000D03*
X183900000Y-51100000D03*
X183900000Y-51900000D03*
X183900000Y-52700000D03*
X183900000Y-53500000D03*
X183900000Y-54300000D03*
X184700000Y-51100000D03*
X184700000Y-51900000D03*
X184700000Y-52700000D03*
X184700000Y-53500000D03*
X184700000Y-54300000D03*
X185500000Y-51100000D03*
X185500000Y-51900000D03*
X185500000Y-52700000D03*
X185500000Y-53500000D03*
X185500000Y-54300000D03*
X186300000Y-51100000D03*
X186300000Y-51900000D03*
X186300000Y-52700000D03*
X186300000Y-53500000D03*
X186300000Y-54300000D03*
X187100000Y-51100000D03*
X187100000Y-51900000D03*
X187100000Y-52700000D03*
X187100000Y-53500000D03*
X187100000Y-54300000D03*
X187900000Y-51100000D03*
X187900000Y-51900000D03*
X187900000Y-52700000D03*
X187900000Y-53500000D03*
X187900000Y-54300000D03*
X188700000Y-51100000D03*
X188700000Y-51900000D03*
X188700000Y-52700000D03*
X188700000Y-53500000D03*
X188700000Y-54300000D03*
X189500000Y-51100000D03*
X189500000Y-51900000D03*
X189500000Y-52700000D03*
X189500000Y-53500000D03*
X189500000Y-54300000D03*
X192200000Y-68000000D03*
X192200000Y-67250000D03*
X197100000Y-68000000D03*
X197100000Y-67250000D03*
X192400000Y-66550000D03*
X193150000Y-66550000D03*
X193900000Y-66550000D03*
X196900000Y-66550000D03*
X196150000Y-66550000D03*
X195400000Y-66550000D03*
X194650000Y-66550000D03*
X195300000Y-80850000D03*
X195300000Y-80100000D03*
X195300000Y-79350000D03*
X193800000Y-82350000D03*
X193050000Y-82350000D03*
X192300000Y-82350000D03*
X191550000Y-82350000D03*
X190800000Y-82350000D03*
X190800000Y-81600000D03*
X191550000Y-81600000D03*
X192300000Y-81600000D03*
X193050000Y-81600000D03*
X193800000Y-81600000D03*
X194550000Y-81600000D03*
X194550000Y-80850000D03*
X194550000Y-80100000D03*
X194550000Y-79350000D03*
X193800000Y-79350000D03*
X193800000Y-80100000D03*
X193800000Y-80850000D03*
X193050000Y-80850000D03*
X192300000Y-80850000D03*
X191550000Y-80850000D03*
X190800000Y-80850000D03*
X193050000Y-78150000D03*
X192300000Y-78150000D03*
X191550000Y-78150000D03*
X190800000Y-78150000D03*
X190050000Y-78150000D03*
X189300000Y-77900000D03*
X191500000Y-74400000D03*
X190750000Y-74400000D03*
X190000000Y-74400000D03*
X189250000Y-74400000D03*
X188500000Y-74400000D03*
X187750000Y-74400000D03*
X187000000Y-74400000D03*
X186250000Y-74400000D03*
X185500000Y-74400000D03*
X184700000Y-74400000D03*
X192850000Y-55850000D03*
X193700000Y-61050000D03*
X190400000Y-67750000D03*
X175873643Y-70730101D03*
X176307200Y-67799436D03*
X181800000Y-62200000D03*
X181800000Y-62950000D03*
X187950000Y-62200000D03*
X187250000Y-62200000D03*
X176318051Y-66181949D03*
X176300000Y-65450000D03*
X179200000Y-67850000D03*
X189300000Y-66400000D03*
X184400000Y-66350000D03*
X184169998Y-68850000D03*
X184169998Y-67100000D03*
X170599868Y-66596641D03*
X170154470Y-71703496D03*
X186634227Y-58351875D03*
X174050000Y-73900000D03*
X174050000Y-73100000D03*
X174050000Y-72350000D03*
X174650000Y-71850000D03*
X175450000Y-75050000D03*
X176250000Y-75050000D03*
X176250000Y-74250000D03*
X176250000Y-73450000D03*
X176250000Y-72650000D03*
X175400000Y-71850000D03*
X168100000Y-76900000D03*
X170200000Y-82570000D03*
X165450000Y-76600000D03*
X180300000Y-82450000D03*
X161350000Y-83400000D03*
X161266080Y-67627567D03*
X151700000Y-71400000D03*
X147250000Y-78100000D03*
X156800000Y-79050000D03*
X155450000Y-73700000D03*
X167329068Y-66581396D03*
X153150000Y-82400000D03*
X154000000Y-82400000D03*
X149050000Y-82400000D03*
X148200000Y-82400000D03*
X146500000Y-72450000D03*
X154300000Y-64449999D03*
X144500000Y-64900000D03*
X142950000Y-61550000D03*
X145300000Y-60700000D03*
X148900000Y-58400000D03*
X152500000Y-58400000D03*
X156100000Y-58400000D03*
X159700000Y-58400000D03*
X163300000Y-58400000D03*
X166900000Y-58400000D03*
X170500000Y-58400000D03*
X174100000Y-58400000D03*
X177700000Y-58400000D03*
X181300000Y-58400000D03*
X161550000Y-73750000D03*
X149450000Y-79650000D03*
X166100000Y-79400000D03*
X180281429Y-69845873D03*
X175921555Y-68477434D03*
X148368748Y-77057290D03*
X184650000Y-60680000D03*
X169550000Y-82000000D03*
X159250000Y-72900000D03*
X161450000Y-81050000D03*
X161650000Y-69750000D03*
X150150000Y-69600000D03*
X141450000Y-70605002D03*
X153600000Y-79350000D03*
X156147655Y-73351173D03*
X161550000Y-74650000D03*
X155900000Y-83250000D03*
X159300000Y-66500000D03*
X157800000Y-66500000D03*
X156300000Y-66500000D03*
X154800000Y-66500000D03*
X153300000Y-66900000D03*
X148500000Y-72000000D03*
X169030002Y-67600000D03*
X173100000Y-63800000D03*
X152300000Y-63500000D03*
X151980002Y-60300000D03*
X150892555Y-62796543D03*
X148795873Y-61018571D03*
X149663533Y-62975041D03*
X144800000Y-62230000D03*
X197100000Y-54300000D03*
X197100000Y-51900000D03*
X197100000Y-53500000D03*
X197100000Y-51100000D03*
X197100000Y-52700000D03*
X196300000Y-54300000D03*
X196300000Y-51900000D03*
X196300000Y-53500000D03*
X196300000Y-51100000D03*
X196300000Y-52700000D03*
X195500000Y-54300000D03*
X195500000Y-51900000D03*
X195500000Y-53500000D03*
X195500000Y-51100000D03*
X195500000Y-52700000D03*
X194700000Y-54300000D03*
X194700000Y-51900000D03*
X194700000Y-53500000D03*
X194700000Y-51100000D03*
X194700000Y-52700000D03*
X193900000Y-54300000D03*
X193900000Y-51900000D03*
X193900000Y-53500000D03*
X193900000Y-51100000D03*
X193900000Y-52700000D03*
X193100000Y-54300000D03*
X193100000Y-51900000D03*
X193100000Y-53500000D03*
X193100000Y-51100000D03*
X193100000Y-52700000D03*
X192300000Y-54300000D03*
X192300000Y-51900000D03*
X192300000Y-53500000D03*
X192300000Y-51100000D03*
X192300000Y-52700000D03*
X191500000Y-51100000D03*
X191500000Y-51900000D03*
X191500000Y-52700000D03*
X191500000Y-53500000D03*
X191500000Y-54300000D03*
X187500000Y-59400000D03*
X193850000Y-57800000D03*
X189550000Y-56250000D03*
X171550000Y-71850000D03*
X168650000Y-72909998D03*
X153500000Y-77450000D03*
X176100000Y-64300000D03*
X174619998Y-64500000D03*
X172400000Y-67800000D03*
X176300000Y-62200000D03*
X180400000Y-55100000D03*
X176800000Y-55100000D03*
X173200000Y-55100000D03*
X169600000Y-55100000D03*
X166000000Y-55100000D03*
X162400000Y-55100000D03*
X158800000Y-55100000D03*
X155300000Y-55100000D03*
X151600000Y-55100000D03*
X147700000Y-57300000D03*
X144461393Y-57605000D03*
X142900000Y-62500000D03*
X141000000Y-62900000D03*
X141400000Y-60800000D03*
X174900000Y-79800000D03*
X175700000Y-79800000D03*
X176550000Y-79800000D03*
X176550000Y-79000000D03*
X176550000Y-78200000D03*
X176550000Y-77400000D03*
X175750000Y-77400000D03*
X174900000Y-77400000D03*
X174900000Y-78200000D03*
X175700000Y-78200000D03*
X175700000Y-79000000D03*
X174900000Y-79000000D03*
X174100000Y-79000000D03*
X152600000Y-72400000D03*
X152239651Y-73121319D03*
X155950000Y-70000000D03*
X155100000Y-71200000D03*
X142400000Y-67100000D03*
X183038148Y-55033241D03*
X157950000Y-80850000D03*
X172300000Y-63200000D03*
X182520000Y-57200000D03*
X171300000Y-63200000D03*
X178920000Y-57200000D03*
X170300000Y-63200000D03*
X175320000Y-57200000D03*
X169300000Y-63200000D03*
X171720000Y-57200000D03*
X168300000Y-63200000D03*
X168120000Y-57200000D03*
X167400000Y-63200000D03*
X164520000Y-57200000D03*
X166400000Y-63200000D03*
X160920000Y-57200000D03*
X165400000Y-63200000D03*
X157320000Y-57200000D03*
X164400000Y-63200000D03*
X153720000Y-57200000D03*
X151600000Y-63125061D03*
X150120000Y-57200000D03*
X150200000Y-62405041D03*
X146520000Y-59500000D03*
X148790001Y-62194158D03*
X142900000Y-59500000D03*
X175123134Y-75758210D03*
X171800000Y-75400000D03*
X170300000Y-70005002D03*
X172120932Y-70068604D03*
X159850000Y-73400000D03*
X164630000Y-80000000D03*
X185314817Y-55969998D03*
X162640010Y-76555002D03*
X162300000Y-67000000D03*
X158620000Y-70005027D03*
X162840000Y-77298579D03*
X164500000Y-80850000D03*
X184535337Y-56020673D03*
X161770570Y-66427194D03*
X157915526Y-70513186D03*
X160050000Y-76450000D03*
X156900000Y-64900000D03*
X166587123Y-65060021D03*
X159600000Y-64910011D03*
X165854839Y-64700011D03*
X158500000Y-64900000D03*
X165113947Y-64340001D03*
X155500000Y-64900000D03*
X164399999Y-63980001D03*
X163389571Y-82262476D03*
X163674942Y-81536552D03*
X198780000Y-75300000D03*
X164421568Y-83456273D03*
X164950000Y-84030000D03*
X198650870Y-77100000D03*
X163859929Y-82886273D03*
X168264950Y-70114950D03*
X179681828Y-69058152D03*
X177650000Y-68000000D03*
X171350000Y-69950000D03*
X153550000Y-76650000D03*
X147300000Y-70800000D03*
X168100000Y-66700000D03*
X188750000Y-82400000D03*
X188000000Y-82400000D03*
X187250000Y-82400000D03*
X186500000Y-82400000D03*
X185750000Y-82400000D03*
X185000000Y-82400000D03*
X188750000Y-81650000D03*
X188000000Y-81650000D03*
X187250000Y-81650000D03*
X186500000Y-81650000D03*
X185750000Y-81650000D03*
X185000000Y-81650000D03*
X188750000Y-80900000D03*
X188000000Y-80900000D03*
X187250000Y-80900000D03*
X186500000Y-80900000D03*
X185750000Y-80900000D03*
X185000000Y-80900000D03*
X188750000Y-79000000D03*
X188000000Y-79000000D03*
X187250000Y-79000000D03*
X186500000Y-79000000D03*
X185750000Y-79000000D03*
X185000000Y-79000000D03*
X172100000Y-66900000D03*
X183600000Y-66000000D03*
X182100000Y-66000000D03*
X182850000Y-66000000D03*
X187694998Y-65850011D03*
X194400000Y-75350000D03*
X195150000Y-75350000D03*
X195900000Y-75350000D03*
X196650000Y-75350000D03*
X197400000Y-75350000D03*
X197400000Y-76100000D03*
X196650000Y-76100000D03*
X195900000Y-76100000D03*
X195150000Y-76100000D03*
X194400000Y-76100000D03*
X194400000Y-76850000D03*
X195150000Y-76850000D03*
X195900000Y-76850000D03*
X196650000Y-76850000D03*
X196643687Y-77593687D03*
X195900000Y-77600000D03*
X195150000Y-77600000D03*
X194400000Y-77600000D03*
X187600000Y-71300000D03*
X186850000Y-71300000D03*
X186100000Y-71300000D03*
X185350000Y-71300000D03*
X193000000Y-73300000D03*
X192250000Y-73300000D03*
X191500000Y-73300000D03*
X190750000Y-73300000D03*
X190000000Y-73300000D03*
X189250000Y-73300000D03*
X188500000Y-73300000D03*
X187750000Y-73300000D03*
X187000000Y-73300000D03*
X186250000Y-73300000D03*
X185500000Y-73300000D03*
X184700000Y-73300000D03*
X184600000Y-71300000D03*
X148500000Y-74950000D03*
X163760010Y-73600000D03*
X157250000Y-71000000D03*
X163771781Y-70236542D03*
X174033051Y-65623052D03*
X188880002Y-64400000D03*
X146480002Y-67900000D03*
X146500000Y-66900000D03*
X144519998Y-73400000D03*
X171378117Y-74652499D03*
X164430851Y-73202037D03*
X158520000Y-81900000D03*
X160821218Y-81640802D03*
D44*
X178600000Y-66050000D02*
X179100000Y-65550000D01*
X184700000Y-54300000D02*
X183900000Y-54300000D01*
X185500000Y-54300000D02*
X184700000Y-54300000D01*
X186300000Y-54300000D02*
X185500000Y-54300000D01*
X187100000Y-54300000D02*
X186300000Y-54300000D01*
X187900000Y-54300000D02*
X187100000Y-54300000D01*
X188700000Y-54300000D02*
X187900000Y-54300000D01*
X189500000Y-54300000D02*
X188700000Y-54300000D01*
X183900000Y-54300000D02*
X183900000Y-53500000D01*
X183900000Y-52700000D02*
X183900000Y-51900000D01*
X184700000Y-54300000D02*
X184700000Y-53500000D01*
X184700000Y-52700000D02*
X184700000Y-51900000D01*
X185500000Y-54300000D02*
X185500000Y-53500000D01*
X185500000Y-52700000D02*
X185500000Y-51900000D01*
X186300000Y-54300000D02*
X186300000Y-53500000D01*
X186300000Y-52700000D02*
X186300000Y-51900000D01*
X187100000Y-54300000D02*
X187100000Y-53500000D01*
X187100000Y-52700000D02*
X187100000Y-51900000D01*
X187900000Y-54300000D02*
X187900000Y-53500000D01*
X187900000Y-52700000D02*
X187900000Y-51900000D01*
X188700000Y-54300000D02*
X188700000Y-53500000D01*
X188700000Y-52700000D02*
X188700000Y-51900000D01*
X189500000Y-52700000D02*
X189500000Y-51900000D01*
X189500000Y-54300000D02*
X189500000Y-53500000D01*
D45*
X192400000Y-66550000D02*
X192400000Y-67050000D01*
X192400000Y-67050000D02*
X192200000Y-67250000D01*
X196900000Y-66550000D02*
X196900000Y-67050000D01*
X196900000Y-67050000D02*
X197100000Y-67250000D01*
X193900000Y-66550000D02*
X193150000Y-66550000D01*
X194650000Y-66550000D02*
X193900000Y-66550000D01*
X195400000Y-66550000D02*
X196150000Y-66550000D01*
X194650000Y-68250000D02*
X194650000Y-66550000D01*
D44*
X195300000Y-79350000D02*
X195300000Y-80100000D01*
X193050000Y-82350000D02*
X193800000Y-82350000D01*
X191550000Y-82350000D02*
X192300000Y-82350000D01*
X190800000Y-81600000D02*
X190800000Y-82350000D01*
X192300000Y-81600000D02*
X191550000Y-81600000D01*
X193800000Y-81600000D02*
X193050000Y-81600000D01*
X194550000Y-80850000D02*
X194550000Y-81600000D01*
X194550000Y-79350000D02*
X194550000Y-80100000D01*
X193800000Y-80100000D02*
X193800000Y-79350000D01*
X193050000Y-80850000D02*
X193800000Y-80850000D01*
X191550000Y-80850000D02*
X192300000Y-80850000D01*
X190800000Y-78150000D02*
X190800000Y-80850000D01*
X191800000Y-77000000D02*
X191800000Y-77980000D01*
X191800000Y-77980000D02*
X191970000Y-78150000D01*
X191970000Y-78150000D02*
X192625736Y-78150000D01*
X192625736Y-78150000D02*
X193050000Y-78150000D01*
X192300000Y-78150000D02*
X193050000Y-78150000D01*
X190800000Y-78150000D02*
X191550000Y-78150000D01*
X189300000Y-77900000D02*
X189800000Y-77900000D01*
X189800000Y-77900000D02*
X190050000Y-78150000D01*
X190000000Y-74400000D02*
X190750000Y-74400000D01*
X188500000Y-74400000D02*
X189250000Y-74400000D01*
X187000000Y-74400000D02*
X187750000Y-74400000D01*
X185500000Y-74400000D02*
X186250000Y-74400000D01*
X175873643Y-70730101D02*
X176630101Y-70730101D01*
X176630101Y-70730101D02*
X176650000Y-70750000D01*
X181800000Y-62200000D02*
X181800000Y-62950000D01*
X181750000Y-62900000D02*
X181800000Y-62950000D01*
X187250000Y-62200000D02*
X187950000Y-62200000D01*
X179200000Y-67850000D02*
X180350000Y-67850000D01*
X180350000Y-67850000D02*
X180700000Y-67500000D01*
X182950000Y-67650000D02*
X183619998Y-67650000D01*
X183619998Y-67650000D02*
X184169998Y-67100000D01*
X180700000Y-67500000D02*
X182800000Y-67500000D01*
X182800000Y-67500000D02*
X182950000Y-67650000D01*
X168350000Y-74950000D02*
X168350000Y-74270000D01*
X168350000Y-74270000D02*
X170154470Y-72465530D01*
X170154470Y-72465530D02*
X170154470Y-71703496D01*
X186634227Y-58351875D02*
X186634227Y-57915773D01*
X186634227Y-57915773D02*
X187500000Y-57050000D01*
X188850000Y-58550000D02*
X190200000Y-58550000D01*
X174050000Y-73100000D02*
X174050000Y-73900000D01*
X174650000Y-71850000D02*
X174550000Y-71850000D01*
X174550000Y-71850000D02*
X174050000Y-72350000D01*
X176250000Y-74250000D02*
X176250000Y-75050000D01*
X176250000Y-72650000D02*
X176250000Y-73450000D01*
X166650000Y-73700000D02*
X166650000Y-73550000D01*
X168800000Y-82800000D02*
X169970000Y-82800000D01*
X169970000Y-82800000D02*
X170200000Y-82570000D01*
X167450000Y-82800000D02*
X168800000Y-82800000D01*
X164750000Y-76600000D02*
X165450000Y-76600000D01*
X161825000Y-84150000D02*
X161825000Y-83875000D01*
X161825000Y-83875000D02*
X161350000Y-83400000D01*
X160500000Y-68950000D02*
X160500000Y-68393647D01*
X160500000Y-68393647D02*
X161266080Y-67627567D01*
X156000000Y-78200000D02*
X156000000Y-78250000D01*
X156000000Y-78250000D02*
X156800000Y-79050000D01*
X156000000Y-76800000D02*
X156000000Y-78200000D01*
X156700000Y-79450000D02*
X156800000Y-79350000D01*
X156800000Y-79350000D02*
X156800000Y-79050000D01*
X156000000Y-80150000D02*
X156700000Y-79450000D01*
X156000000Y-80350000D02*
X156000000Y-80150000D01*
D46*
X154530000Y-73720000D02*
X155430000Y-73720000D01*
D44*
X155430000Y-73720000D02*
X155450000Y-73700000D01*
D47*
X153562500Y-81200000D02*
X153562500Y-81962500D01*
X153562500Y-81962500D02*
X154000000Y-82400000D01*
X148637500Y-81200000D02*
X148637500Y-81962500D01*
X148637500Y-81962500D02*
X148200000Y-82400000D01*
X151940000Y-83500000D02*
X154010000Y-83500000D01*
X151940000Y-83500000D02*
X150260000Y-83500000D01*
X148190000Y-83500000D02*
X150260000Y-83500000D01*
X148637500Y-81200000D02*
X148637500Y-83052500D01*
X148637500Y-83052500D02*
X148190000Y-83500000D01*
X153562500Y-81200000D02*
X153562500Y-83052500D01*
X153562500Y-83052500D02*
X154010000Y-83500000D01*
X152400000Y-80840000D02*
X153202500Y-80840000D01*
X153202500Y-80840000D02*
X153562500Y-81200000D01*
D44*
X149500000Y-66375000D02*
X152374999Y-66375000D01*
X152374999Y-66375000D02*
X154300000Y-64449999D01*
X146500000Y-72450000D02*
X145500000Y-73450000D01*
X145500000Y-73450000D02*
X145500000Y-74000000D01*
X142850000Y-60700000D02*
X142850000Y-61450000D01*
X142850000Y-61450000D02*
X142950000Y-61550000D01*
X146450000Y-60700000D02*
X145300000Y-60700000D01*
X150050000Y-58400000D02*
X148900000Y-58400000D01*
X153650000Y-58400000D02*
X152500000Y-58400000D01*
X157250000Y-58400000D02*
X156100000Y-58400000D01*
X160850000Y-58400000D02*
X159700000Y-58400000D01*
X164450000Y-58400000D02*
X163300000Y-58400000D01*
X168050000Y-58400000D02*
X166900000Y-58400000D01*
X171650000Y-58400000D02*
X170500000Y-58400000D01*
X175250000Y-58400000D02*
X174100000Y-58400000D01*
X178850000Y-58400000D02*
X177700000Y-58400000D01*
X182450000Y-58400000D02*
X181300000Y-58400000D01*
X161550000Y-73750000D02*
X161050000Y-73750000D01*
X161050000Y-73750000D02*
X160750000Y-73450000D01*
X161550000Y-73750000D02*
X162050000Y-73750000D01*
X162050000Y-73750000D02*
X162350000Y-73450000D01*
D47*
X149800000Y-80840000D02*
X149800000Y-80000000D01*
X149800000Y-80000000D02*
X149450000Y-79650000D01*
D44*
X166075000Y-80175000D02*
X166075000Y-79425000D01*
X166075000Y-79425000D02*
X166100000Y-79400000D01*
X180700000Y-70750000D02*
X180700000Y-70264444D01*
X180700000Y-70264444D02*
X180281429Y-69845873D01*
X185600000Y-59800000D02*
X185530000Y-59800000D01*
X185530000Y-59800000D02*
X184650000Y-60680000D01*
X168800000Y-81300000D02*
X168850000Y-81300000D01*
X168850000Y-81300000D02*
X169550000Y-82000000D01*
X168800000Y-81300000D02*
X167450000Y-81300000D01*
X159250000Y-72200000D02*
X159250000Y-72900000D01*
X159250000Y-72200000D02*
X160650000Y-72200000D01*
X161825000Y-80275000D02*
X161825000Y-80675000D01*
X161825000Y-80675000D02*
X161450000Y-81050000D01*
X162000000Y-68950000D02*
X162000000Y-69400000D01*
X162000000Y-69400000D02*
X161650000Y-69750000D01*
D46*
X157070000Y-73720000D02*
X156516482Y-73720000D01*
X156516482Y-73720000D02*
X156147655Y-73351173D01*
D44*
X161550000Y-74650000D02*
X161050000Y-74650000D01*
X161050000Y-74650000D02*
X160750000Y-74950000D01*
X161550000Y-74650000D02*
X162050000Y-74650000D01*
X162050000Y-74650000D02*
X162350000Y-74950000D01*
X169350000Y-68900000D02*
X169350000Y-67919998D01*
X169350000Y-67919998D02*
X169030002Y-67600000D01*
D46*
X169350000Y-68900000D02*
X169850000Y-68900000D01*
X168850000Y-68900000D02*
X169350000Y-68900000D01*
X173350000Y-62100000D02*
X173350000Y-63550000D01*
X173350000Y-63550000D02*
X173100000Y-63800000D01*
D44*
X183700000Y-57150000D02*
X183700000Y-58150000D01*
X183700000Y-58150000D02*
X183950000Y-58400000D01*
X183650000Y-59900000D02*
X183650000Y-58700000D01*
X183650000Y-58700000D02*
X183950000Y-58400000D01*
X179584130Y-60395001D02*
X182674999Y-60395001D01*
X182674999Y-60395001D02*
X183170000Y-59900000D01*
X183170000Y-59900000D02*
X183650000Y-59900000D01*
X176133250Y-60755011D02*
X179224120Y-60755011D01*
X179224120Y-60755011D02*
X179584130Y-60395001D01*
X172850000Y-62100000D02*
X172850000Y-61295000D01*
X172850000Y-61295000D02*
X173029979Y-61115021D01*
X173029979Y-61115021D02*
X175773240Y-61115021D01*
X175773240Y-61115021D02*
X176133250Y-60755011D01*
X180100000Y-57150000D02*
X180100000Y-58150000D01*
X180100000Y-58150000D02*
X180350000Y-58400000D01*
X180050000Y-59900000D02*
X181550000Y-59900000D01*
X180050000Y-59900000D02*
X180050000Y-58700000D01*
X180050000Y-58700000D02*
X180350000Y-58400000D01*
X172533250Y-60755011D02*
X175624120Y-60755011D01*
X175624120Y-60755011D02*
X175984130Y-60395001D01*
X175984130Y-60395001D02*
X179074999Y-60395001D01*
X179074999Y-60395001D02*
X179570000Y-59900000D01*
X179570000Y-59900000D02*
X180050000Y-59900000D01*
X171850000Y-62100000D02*
X171850000Y-61438261D01*
X171850000Y-61438261D02*
X172533250Y-60755011D01*
X176500000Y-57150000D02*
X176500000Y-58150000D01*
X176500000Y-58150000D02*
X176750000Y-58400000D01*
X176450000Y-59900000D02*
X177950000Y-59900000D01*
X176450000Y-59900000D02*
X176450000Y-58700000D01*
X176450000Y-58700000D02*
X176750000Y-58400000D01*
X170850000Y-62100000D02*
X170850000Y-61295000D01*
X170850000Y-61295000D02*
X171389989Y-60755011D01*
X171389989Y-60755011D02*
X172024120Y-60755011D01*
X172024120Y-60755011D02*
X172384130Y-60395001D01*
X172384130Y-60395001D02*
X175474999Y-60395001D01*
X175474999Y-60395001D02*
X175970000Y-59900000D01*
X175970000Y-59900000D02*
X176450000Y-59900000D01*
X172900000Y-57150000D02*
X172900000Y-58150000D01*
X172900000Y-58150000D02*
X173150000Y-58400000D01*
X172850000Y-59900000D02*
X174350000Y-59900000D01*
X172850000Y-59900000D02*
X172850000Y-58700000D01*
X172850000Y-58700000D02*
X173150000Y-58400000D01*
X170400000Y-60395001D02*
X171874999Y-60395001D01*
X171874999Y-60395001D02*
X172370000Y-59900000D01*
X172370000Y-59900000D02*
X172850000Y-59900000D01*
X169850000Y-60945001D02*
X170400000Y-60395001D01*
X169850000Y-62100000D02*
X169850000Y-60945001D01*
X169300000Y-57150000D02*
X169300000Y-58150000D01*
X169300000Y-58150000D02*
X169550000Y-58400000D01*
X169250000Y-59900000D02*
X170750000Y-59900000D01*
X169250000Y-59900000D02*
X169250000Y-58700000D01*
X169250000Y-58700000D02*
X169550000Y-58400000D01*
X168850000Y-62100000D02*
X168850000Y-60300000D01*
X168850000Y-60300000D02*
X169250000Y-59900000D01*
X165700000Y-57150000D02*
X165700000Y-58150000D01*
X165700000Y-58150000D02*
X165950000Y-58400000D01*
X165650000Y-59900000D02*
X167150000Y-59900000D01*
X165650000Y-59900000D02*
X165650000Y-58700000D01*
X165650000Y-58700000D02*
X165950000Y-58400000D01*
X167850000Y-62100000D02*
X167850000Y-60525000D01*
X167850000Y-60525000D02*
X167225000Y-59900000D01*
X167225000Y-59900000D02*
X167150000Y-59900000D01*
X162100000Y-57150000D02*
X162100000Y-58150000D01*
X162100000Y-58150000D02*
X162350000Y-58400000D01*
X162050000Y-59900000D02*
X162050000Y-58700000D01*
X162050000Y-58700000D02*
X162350000Y-58400000D01*
X162050000Y-59900000D02*
X163550000Y-59900000D01*
X166850000Y-62100000D02*
X166850000Y-61295000D01*
X166850000Y-61295000D02*
X165950001Y-60395001D01*
X165950001Y-60395001D02*
X164525001Y-60395001D01*
X164525001Y-60395001D02*
X164030000Y-59900000D01*
X164030000Y-59900000D02*
X163550000Y-59900000D01*
X158500000Y-57150000D02*
X158500000Y-58150000D01*
X158500000Y-58150000D02*
X158750000Y-58400000D01*
X158450000Y-59900000D02*
X159950000Y-59900000D01*
X158450000Y-59900000D02*
X158450000Y-58700000D01*
X158450000Y-58700000D02*
X158750000Y-58400000D01*
X164015871Y-60395001D02*
X164375881Y-60755011D01*
X159950000Y-59900000D02*
X160430000Y-59900000D01*
X160430000Y-59900000D02*
X160925001Y-60395001D01*
X160925001Y-60395001D02*
X164015871Y-60395001D01*
X165850000Y-62100000D02*
X165850000Y-61363998D01*
X165850000Y-61363998D02*
X165241013Y-60755011D01*
X165241013Y-60755011D02*
X164375881Y-60755011D01*
X154900000Y-57150000D02*
X154900000Y-58150000D01*
X154900000Y-58150000D02*
X155150000Y-58400000D01*
X154850000Y-59900000D02*
X156350000Y-59900000D01*
X154850000Y-59900000D02*
X154850000Y-58700000D01*
X154850000Y-58700000D02*
X155150000Y-58400000D01*
X164850000Y-62100000D02*
X164850000Y-61295000D01*
X164850000Y-61295000D02*
X164670021Y-61115021D01*
X164670021Y-61115021D02*
X164226761Y-61115021D01*
X164226761Y-61115021D02*
X163866751Y-60755011D01*
X163866751Y-60755011D02*
X160775880Y-60755011D01*
X160775880Y-60755011D02*
X160415871Y-60395001D01*
X160415871Y-60395001D02*
X157325001Y-60395001D01*
X157325001Y-60395001D02*
X156830000Y-59900000D01*
X156830000Y-59900000D02*
X156350000Y-59900000D01*
X161575081Y-63275081D02*
X152500000Y-63275081D01*
X152300000Y-63500000D02*
X152300000Y-63475081D01*
X152300000Y-63475081D02*
X152500000Y-63275081D01*
X151980002Y-60300000D02*
X151650000Y-60300000D01*
X151650000Y-60300000D02*
X151250000Y-59900000D01*
X161575081Y-63275081D02*
X161669939Y-63369939D01*
X161669939Y-63369939D02*
X161669939Y-65520461D01*
X164324741Y-68175261D02*
X164324741Y-68874741D01*
X161669939Y-65520461D02*
X164324741Y-68175261D01*
X164324741Y-68874741D02*
X164350000Y-68900000D01*
X164350000Y-68900000D02*
X164350000Y-68400000D01*
X151300000Y-57150000D02*
X151300000Y-58150000D01*
X151300000Y-58150000D02*
X151550000Y-58400000D01*
X151250000Y-59900000D02*
X152750000Y-59900000D01*
X151250000Y-59900000D02*
X151250000Y-58700000D01*
X151250000Y-58700000D02*
X151550000Y-58400000D01*
X161400000Y-62555061D02*
X151200000Y-62555061D01*
X151200000Y-62555061D02*
X151000000Y-62555061D01*
X150892555Y-62796543D02*
X151134037Y-62555061D01*
X151134037Y-62555061D02*
X151200000Y-62555061D01*
X148795873Y-61018571D02*
X148268571Y-61018571D01*
X148268571Y-61018571D02*
X147950000Y-60700000D01*
X162036801Y-62555061D02*
X161400000Y-62555061D01*
X162389959Y-65171483D02*
X162389959Y-62908219D01*
X162389959Y-62908219D02*
X162036801Y-62555061D01*
X165350000Y-68900000D02*
X165350000Y-68182259D01*
X165350000Y-68182259D02*
X162389959Y-65222219D01*
X162389959Y-65222219D02*
X162389959Y-65171483D01*
X147700000Y-59450000D02*
X147700000Y-60450000D01*
X147700000Y-60450000D02*
X147950000Y-60700000D01*
X147950000Y-60700000D02*
X148350000Y-60700000D01*
X148350000Y-60700000D02*
X149150000Y-59900000D01*
X147650000Y-62200000D02*
X147650000Y-61000000D01*
X147650000Y-61000000D02*
X147950000Y-60700000D01*
X149629999Y-62131440D02*
X149629999Y-62941507D01*
X149629999Y-62941507D02*
X149663533Y-62975041D01*
X162335041Y-61835041D02*
X149926399Y-61835040D01*
X149926399Y-61835040D02*
X149629999Y-62131440D01*
X144000000Y-62200000D02*
X145200000Y-62200000D01*
X144800000Y-62230000D02*
X145170000Y-62230000D01*
X145170000Y-62230000D02*
X145200000Y-62200000D01*
X145200000Y-62200000D02*
X145550000Y-62200000D01*
X166350000Y-68900000D02*
X166350000Y-68163998D01*
X163109979Y-62609979D02*
X162335041Y-61835041D01*
X163109979Y-64923977D02*
X163109979Y-62609979D01*
X166350000Y-68163998D02*
X163109979Y-64923977D01*
X144100000Y-59450000D02*
X144100000Y-60450000D01*
X144100000Y-60450000D02*
X144350000Y-60700000D01*
X144000000Y-62200000D02*
X144000000Y-61050000D01*
X144000000Y-61050000D02*
X144350000Y-60700000D01*
D47*
X197100000Y-52700000D02*
X197100000Y-51900000D01*
X197100000Y-54300000D02*
X197100000Y-53500000D01*
X196300000Y-52700000D02*
X196300000Y-51900000D01*
X196300000Y-54300000D02*
X196300000Y-53500000D01*
X195500000Y-52700000D02*
X195500000Y-51900000D01*
X195500000Y-54300000D02*
X195500000Y-53500000D01*
X194700000Y-52700000D02*
X194700000Y-51900000D01*
X194700000Y-54300000D02*
X194700000Y-53500000D01*
X193900000Y-52700000D02*
X193900000Y-51900000D01*
X193900000Y-54300000D02*
X193900000Y-53500000D01*
X193100000Y-52700000D02*
X193100000Y-51900000D01*
X193100000Y-54300000D02*
X193100000Y-53500000D01*
X192300000Y-52700000D02*
X192300000Y-51900000D01*
X192300000Y-54300000D02*
X192300000Y-53500000D01*
X191500000Y-52700000D02*
X191500000Y-51900000D01*
X191500000Y-54300000D02*
X191500000Y-53500000D01*
D44*
X184000000Y-61250000D02*
X183700000Y-60950000D01*
X183700000Y-60950000D02*
X180500000Y-60950000D01*
X185150000Y-61250000D02*
X184000000Y-61250000D01*
X185450000Y-60950000D02*
X185150000Y-61250000D01*
X186236002Y-60950000D02*
X185450000Y-60950000D01*
X187500000Y-59400000D02*
X187200001Y-59699999D01*
X187200001Y-59699999D02*
X187200001Y-59986001D01*
X187200001Y-59986001D02*
X186236002Y-60950000D01*
X180500000Y-60950000D02*
X180150000Y-61300000D01*
X180150000Y-61300000D02*
X180150000Y-62100000D01*
X187500000Y-59400000D02*
X187500000Y-58550000D01*
X187500000Y-58550000D02*
X187500000Y-58525000D01*
X187500000Y-58525000D02*
X188225000Y-57800000D01*
X188225000Y-57800000D02*
X193850000Y-57800000D01*
X188850000Y-57050000D02*
X188850000Y-57025000D01*
X188850000Y-57025000D02*
X188095000Y-56270000D01*
X188095000Y-56270000D02*
X186630000Y-56270000D01*
X186630000Y-56270000D02*
X186000000Y-56900000D01*
X186000000Y-56900000D02*
X185600000Y-56900000D01*
X190200000Y-57050000D02*
X190200000Y-56900000D01*
X190200000Y-56900000D02*
X189550000Y-56250000D01*
X188850000Y-57050000D02*
X190200000Y-57050000D01*
X172880000Y-71900000D02*
X172830000Y-71850000D01*
X172830000Y-71850000D02*
X171550000Y-71850000D01*
X173250000Y-70900000D02*
X173250000Y-71530000D01*
X173250000Y-71530000D02*
X172880000Y-71900000D01*
X171600000Y-71800000D02*
X171550000Y-71850000D01*
X168350000Y-71950000D02*
X168350000Y-72609998D01*
X168350000Y-72609998D02*
X168650000Y-72909998D01*
X154400000Y-78200000D02*
X154250000Y-78200000D01*
X154250000Y-78200000D02*
X153500000Y-77450000D01*
X176100000Y-64300000D02*
X177100000Y-64300000D01*
X177100000Y-64300000D02*
X177200000Y-64200000D01*
X174619998Y-64500000D02*
X174919997Y-64200001D01*
X174919997Y-64200001D02*
X174919997Y-63904267D01*
X174919997Y-63904267D02*
X175294265Y-63529999D01*
X175294265Y-63529999D02*
X178709999Y-63529999D01*
X178709999Y-63529999D02*
X178800000Y-63620000D01*
X178800000Y-63620000D02*
X178800000Y-64200000D01*
X172350000Y-68900000D02*
X172350000Y-67850000D01*
X172350000Y-67850000D02*
X172400000Y-67800000D01*
D46*
X176300000Y-62200000D02*
X177150000Y-62200000D01*
X177150000Y-62200000D02*
X177250000Y-62100000D01*
D44*
X182500000Y-55650000D02*
X181550000Y-55650000D01*
X181550000Y-55650000D02*
X181300000Y-55900000D01*
D46*
X180100000Y-56250000D02*
X180100000Y-55400000D01*
X180100000Y-55400000D02*
X180400000Y-55100000D01*
X181300000Y-57500000D02*
X181300000Y-57350000D01*
X181300000Y-57350000D02*
X180200000Y-56250000D01*
X180200000Y-56250000D02*
X180100000Y-56250000D01*
X177562564Y-54900000D02*
X180200000Y-54900000D01*
X180200000Y-54900000D02*
X180400000Y-55100000D01*
X176700000Y-52800000D02*
X176700000Y-54037436D01*
X176700000Y-54037436D02*
X177562564Y-54900000D01*
D44*
X178900000Y-55650000D02*
X177950000Y-55650000D01*
X177950000Y-55650000D02*
X177700000Y-55900000D01*
D46*
X176500000Y-56250000D02*
X176500000Y-55400000D01*
X176500000Y-55400000D02*
X176800000Y-55100000D01*
X177700000Y-57500000D02*
X177700000Y-57350000D01*
X177700000Y-57350000D02*
X176600000Y-56250000D01*
X176600000Y-56250000D02*
X176500000Y-56250000D01*
X175062564Y-54900000D02*
X176600000Y-54900000D01*
X176600000Y-54900000D02*
X176800000Y-55100000D01*
X174200000Y-52800000D02*
X174200000Y-54037436D01*
X174200000Y-54037436D02*
X175062564Y-54900000D01*
D44*
X175300000Y-55650000D02*
X174350000Y-55650000D01*
X174350000Y-55650000D02*
X174100000Y-55900000D01*
D46*
X172900000Y-56250000D02*
X172900000Y-55400000D01*
X172900000Y-55400000D02*
X173200000Y-55100000D01*
X174100000Y-57500000D02*
X174100000Y-57350000D01*
X174100000Y-57350000D02*
X173000000Y-56250000D01*
X173000000Y-56250000D02*
X172900000Y-56250000D01*
X172462564Y-54800000D02*
X172900000Y-54800000D01*
X172900000Y-54800000D02*
X173200000Y-55100000D01*
X171700000Y-52800000D02*
X171700000Y-54037436D01*
X171700000Y-54037436D02*
X172462564Y-54800000D01*
D44*
X171700000Y-55650000D02*
X170750000Y-55650000D01*
X170750000Y-55650000D02*
X170500000Y-55900000D01*
D46*
X169300000Y-56250000D02*
X169300000Y-55400000D01*
X169300000Y-55400000D02*
X169600000Y-55100000D01*
X170500000Y-57500000D02*
X170500000Y-57350000D01*
X170500000Y-57350000D02*
X169400000Y-56250000D01*
X169400000Y-56250000D02*
X169300000Y-56250000D01*
X169200000Y-52800000D02*
X169200000Y-54700000D01*
X169200000Y-54700000D02*
X169600000Y-55100000D01*
D44*
X168100000Y-55650000D02*
X167150000Y-55650000D01*
X167150000Y-55650000D02*
X166900000Y-55900000D01*
D46*
X165700000Y-56250000D02*
X165700000Y-55400000D01*
X165700000Y-55400000D02*
X166000000Y-55100000D01*
X166900000Y-57500000D02*
X166900000Y-57350000D01*
X166900000Y-57350000D02*
X165800000Y-56250000D01*
X165800000Y-56250000D02*
X165700000Y-56250000D01*
X166700000Y-52800000D02*
X166700000Y-54400000D01*
X166700000Y-54400000D02*
X166000000Y-55100000D01*
D44*
X164500000Y-55650000D02*
X163550000Y-55650000D01*
X163550000Y-55650000D02*
X163300000Y-55900000D01*
D46*
X162100000Y-56250000D02*
X162100000Y-55400000D01*
X162100000Y-55400000D02*
X162400000Y-55100000D01*
X163300000Y-57500000D02*
X163300000Y-57350000D01*
X163300000Y-57350000D02*
X162200000Y-56250000D01*
X162200000Y-56250000D02*
X162100000Y-56250000D01*
X164200000Y-52800000D02*
X162400000Y-54600000D01*
X162400000Y-54600000D02*
X162400000Y-55100000D01*
D44*
X160900000Y-55650000D02*
X159950000Y-55650000D01*
X159950000Y-55650000D02*
X159700000Y-55900000D01*
D46*
X158500000Y-56250000D02*
X158500000Y-55400000D01*
X158500000Y-55400000D02*
X158800000Y-55100000D01*
X159700000Y-57500000D02*
X159700000Y-57350000D01*
X159700000Y-57350000D02*
X158600000Y-56250000D01*
X158600000Y-56250000D02*
X158500000Y-56250000D01*
X159900000Y-54600000D02*
X159300000Y-54600000D01*
X159300000Y-54600000D02*
X158800000Y-55100000D01*
X161700000Y-52800000D02*
X159900000Y-54600000D01*
D44*
X157300000Y-55650000D02*
X156350000Y-55650000D01*
X156350000Y-55650000D02*
X156100000Y-55900000D01*
D46*
X156100000Y-57500000D02*
X156100000Y-57350000D01*
X156100000Y-57350000D02*
X155000000Y-56250000D01*
X155000000Y-56250000D02*
X154900000Y-56250000D01*
X154900000Y-56250000D02*
X154900000Y-55500000D01*
X154900000Y-55500000D02*
X155300000Y-55100000D01*
X157800000Y-54200000D02*
X156200000Y-54200000D01*
X156200000Y-54200000D02*
X155300000Y-55100000D01*
X159200000Y-52800000D02*
X157800000Y-54200000D01*
D44*
X153700000Y-55650000D02*
X152750000Y-55650000D01*
X152750000Y-55650000D02*
X152500000Y-55900000D01*
D46*
X151300000Y-56250000D02*
X151300000Y-55400000D01*
X151300000Y-55400000D02*
X151600000Y-55100000D01*
X152500000Y-57500000D02*
X152500000Y-57350000D01*
X152500000Y-57350000D02*
X151400000Y-56250000D01*
X151400000Y-56250000D02*
X151300000Y-56250000D01*
X152700000Y-54200000D02*
X151800000Y-55100000D01*
X151800000Y-55100000D02*
X151600000Y-55100000D01*
X155300000Y-54200000D02*
X152700000Y-54200000D01*
X156700000Y-52800000D02*
X155300000Y-54200000D01*
D44*
X150100000Y-55650000D02*
X149150000Y-55650000D01*
X149150000Y-55650000D02*
X148900000Y-55900000D01*
D46*
X148100000Y-58150000D02*
X147700000Y-58550000D01*
X148750000Y-57500000D02*
X148100000Y-58150000D01*
X148100000Y-58150000D02*
X148100000Y-57700000D01*
X148100000Y-57700000D02*
X147700000Y-57300000D01*
X148900000Y-54634072D02*
X148816926Y-54634072D01*
X148816926Y-54634072D02*
X147700000Y-55750998D01*
X147700000Y-55750998D02*
X147700000Y-57300000D01*
X150474053Y-54634072D02*
X148900000Y-54634072D01*
X150908124Y-54200000D02*
X150474053Y-54634072D01*
X154200000Y-52800000D02*
X153446402Y-52800000D01*
X153446402Y-52800000D02*
X152046402Y-54200000D01*
X152046402Y-54200000D02*
X150908124Y-54200000D01*
X148900000Y-57500000D02*
X148750000Y-57500000D01*
D44*
X146500000Y-57950000D02*
X145550000Y-57950000D01*
X145550000Y-57950000D02*
X145300000Y-58200000D01*
D46*
X145300000Y-59800000D02*
X145300000Y-59650000D01*
X145300000Y-59650000D02*
X144200000Y-58550000D01*
X144200000Y-58550000D02*
X144100000Y-58550000D01*
X144100000Y-58550000D02*
X144100000Y-57966393D01*
X144100000Y-57966393D02*
X144461393Y-57605000D01*
X150295938Y-54204062D02*
X148404062Y-54204062D01*
X148404062Y-54204062D02*
X145178115Y-57430010D01*
X145178115Y-57430010D02*
X144636383Y-57430010D01*
X144636383Y-57430010D02*
X144461393Y-57605000D01*
X151700000Y-52800000D02*
X150295938Y-54204062D01*
D44*
X143200000Y-62800000D02*
X142900000Y-62500000D01*
X148522272Y-61588572D02*
X149069474Y-61588572D01*
X143200000Y-62800000D02*
X148061002Y-62800000D01*
X148220001Y-61890843D02*
X148522272Y-61588572D01*
X149069474Y-61588572D02*
X149543025Y-61115021D01*
X148061002Y-62800000D02*
X148220001Y-62641001D01*
X167350000Y-68095000D02*
X167350000Y-68900000D01*
X148220001Y-62641001D02*
X148220001Y-61890843D01*
X162675019Y-61115021D02*
X163829999Y-62270001D01*
X163829999Y-62270001D02*
X163829999Y-64574999D01*
X163829999Y-64574999D02*
X167350000Y-68095000D01*
X149543025Y-61115021D02*
X162675019Y-61115021D01*
D46*
X141900000Y-62200000D02*
X141700000Y-62200000D01*
X141700000Y-62200000D02*
X141000000Y-62900000D01*
D44*
X142900000Y-57950000D02*
X141950000Y-57950000D01*
X141950000Y-57950000D02*
X141700000Y-58200000D01*
D46*
X141700000Y-59800000D02*
X141700000Y-60500000D01*
X141700000Y-60500000D02*
X141400000Y-60800000D01*
X149200000Y-52800000D02*
X145000000Y-57000000D01*
X145000000Y-57000000D02*
X141600000Y-57000000D01*
X141600000Y-57000000D02*
X140900000Y-57700000D01*
X140900000Y-57700000D02*
X140900000Y-59000000D01*
X140900000Y-59000000D02*
X141700000Y-59800000D01*
D48*
X173150000Y-78100000D02*
X173300000Y-78250000D01*
X173300000Y-78250000D02*
X174050000Y-79000000D01*
X175650000Y-78200000D02*
X173350000Y-78200000D01*
X173350000Y-78200000D02*
X173300000Y-78250000D01*
X176500000Y-79000000D02*
X176450000Y-79000000D01*
X176450000Y-79000000D02*
X175650000Y-78200000D01*
X176500000Y-79800000D02*
X173300000Y-79800000D01*
X173300000Y-79800000D02*
X171600000Y-78100000D01*
X176500000Y-77400000D02*
X176500000Y-79800000D01*
X174850000Y-77400000D02*
X176500000Y-77400000D01*
X173600000Y-77300000D02*
X173700000Y-77400000D01*
X173700000Y-77400000D02*
X174850000Y-77400000D01*
X172800000Y-78100000D02*
X173600000Y-77300000D01*
X171600000Y-78100000D02*
X172800000Y-78100000D01*
X176500000Y-79000000D02*
X176500000Y-79800000D01*
X176500000Y-77400000D02*
X176500000Y-78200000D01*
X174850000Y-77400000D02*
X175700000Y-77400000D01*
X175650000Y-78200000D02*
X174850000Y-78200000D01*
X174850000Y-79000000D02*
X175650000Y-79000000D01*
X171600000Y-78100000D02*
X173150000Y-78100000D01*
D44*
X150450000Y-80840000D02*
X150450000Y-74067368D01*
X150450000Y-74067368D02*
X151966050Y-72551318D01*
X151966050Y-72551318D02*
X152448682Y-72551318D01*
X152448682Y-72551318D02*
X152600000Y-72400000D01*
X151063998Y-74300000D02*
X151063998Y-74296972D01*
X151063998Y-74296972D02*
X152239651Y-73121319D01*
X151100000Y-80840000D02*
X151100000Y-79970000D01*
X151100000Y-79970000D02*
X150829999Y-79699999D01*
X150829999Y-79699999D02*
X150829999Y-74533999D01*
X150829999Y-74533999D02*
X151063998Y-74300000D01*
X157070000Y-69980000D02*
X155970000Y-69980000D01*
X155970000Y-69980000D02*
X155950000Y-70000000D01*
X155100000Y-71200000D02*
X154530000Y-70630000D01*
X154530000Y-70630000D02*
X154530000Y-70360000D01*
X154530000Y-70360000D02*
X154530000Y-68680000D01*
X142400000Y-67100000D02*
X143375000Y-67100000D01*
X143375000Y-67100000D02*
X143500000Y-66975000D01*
D46*
X183700000Y-56250000D02*
X183700000Y-55695093D01*
X183700000Y-55695093D02*
X183038148Y-55033241D01*
X180794999Y-54494999D02*
X181333241Y-55033241D01*
X181333241Y-55033241D02*
X183038148Y-55033241D01*
X179200000Y-52800000D02*
X179200000Y-53300000D01*
X179200000Y-53300000D02*
X180394999Y-54494999D01*
X180394999Y-54494999D02*
X180794999Y-54494999D01*
D44*
X160050000Y-78700000D02*
X159063998Y-78700000D01*
X159063998Y-78700000D02*
X157950000Y-79813998D01*
X157950000Y-79813998D02*
X157950000Y-80850000D01*
X172350000Y-62100000D02*
X172350000Y-63150000D01*
X172350000Y-63150000D02*
X172300000Y-63200000D01*
X182500000Y-56550000D02*
X182500000Y-57180000D01*
X182500000Y-57180000D02*
X182520000Y-57200000D01*
X171350000Y-62100000D02*
X171350000Y-63150000D01*
X171350000Y-63150000D02*
X171300000Y-63200000D01*
X178900000Y-56550000D02*
X178900000Y-57180000D01*
X178900000Y-57180000D02*
X178920000Y-57200000D01*
X170350000Y-62100000D02*
X170350000Y-63150000D01*
X170350000Y-63150000D02*
X170300000Y-63200000D01*
X175300000Y-56550000D02*
X175300000Y-57180000D01*
X175300000Y-57180000D02*
X175320000Y-57200000D01*
X169350000Y-62100000D02*
X169350000Y-63150000D01*
X169350000Y-63150000D02*
X169300000Y-63200000D01*
X171700000Y-56550000D02*
X171700000Y-57180000D01*
X171700000Y-57180000D02*
X171720000Y-57200000D01*
X168350000Y-62100000D02*
X168350000Y-63150000D01*
X168350000Y-63150000D02*
X168300000Y-63200000D01*
X168100000Y-56550000D02*
X168100000Y-57180000D01*
X168100000Y-57180000D02*
X168120000Y-57200000D01*
X167350000Y-62100000D02*
X167350000Y-63150000D01*
X167350000Y-63150000D02*
X167400000Y-63200000D01*
X164500000Y-56550000D02*
X164500000Y-57180000D01*
X164500000Y-57180000D02*
X164520000Y-57200000D01*
X166350000Y-62100000D02*
X166350000Y-63150000D01*
X166350000Y-63150000D02*
X166400000Y-63200000D01*
X160900000Y-56550000D02*
X160900000Y-57180000D01*
X160900000Y-57180000D02*
X160920000Y-57200000D01*
X165350000Y-62100000D02*
X165350000Y-63150000D01*
X165350000Y-63150000D02*
X165400000Y-63200000D01*
X157300000Y-56550000D02*
X157300000Y-57180000D01*
X157300000Y-57180000D02*
X157320000Y-57200000D01*
X164350000Y-62100000D02*
X164350000Y-63150000D01*
X164350000Y-63150000D02*
X164400000Y-63200000D01*
X153700000Y-56550000D02*
X153700000Y-57180000D01*
X153700000Y-57180000D02*
X153720000Y-57200000D01*
X161887681Y-62915071D02*
X151800000Y-62915071D01*
X151600000Y-63125061D02*
X151600000Y-63115071D01*
X151600000Y-63115071D02*
X151800000Y-62915071D01*
X162029949Y-65320604D02*
X162029949Y-63057339D01*
X162029949Y-63057339D02*
X161887681Y-62915071D01*
X164850000Y-68900000D02*
X164850000Y-68191390D01*
X164850000Y-68191390D02*
X162029949Y-65371340D01*
X162029949Y-65371340D02*
X162029949Y-65320604D01*
X150100000Y-56550000D02*
X150100000Y-57180000D01*
X150100000Y-57180000D02*
X150120000Y-57200000D01*
X151000000Y-62195051D02*
X150409990Y-62195051D01*
X150409990Y-62195051D02*
X150200000Y-62405041D01*
X162185921Y-62195051D02*
X151000000Y-62195051D01*
X162749969Y-62849969D02*
X162749969Y-62759099D01*
X162749969Y-62759099D02*
X162185921Y-62195051D01*
X162749969Y-65022362D02*
X162749969Y-62849969D01*
X165850000Y-68900000D02*
X165850000Y-68173128D01*
X165850000Y-68173128D02*
X162749969Y-65073098D01*
X162749969Y-65073098D02*
X162749969Y-65022362D01*
X146500000Y-58850000D02*
X146500000Y-59480000D01*
X146500000Y-59480000D02*
X146520000Y-59500000D01*
X149777278Y-61475031D02*
X149058151Y-62194158D01*
X149058151Y-62194158D02*
X148790001Y-62194158D01*
X150665900Y-61475031D02*
X149777278Y-61475031D01*
X162525899Y-61475031D02*
X150665900Y-61475031D01*
X163469989Y-62900000D02*
X163469989Y-62419121D01*
X163469989Y-62419121D02*
X162525899Y-61475031D01*
X163469989Y-64724120D02*
X163469989Y-62900000D01*
X166850000Y-68900000D02*
X166850000Y-68104131D01*
X166850000Y-68104131D02*
X163469989Y-64724120D01*
X142900000Y-58850000D02*
X142900000Y-59500000D01*
D46*
X172099999Y-75100001D02*
X174450001Y-75100001D01*
X171800000Y-75400000D02*
X172099999Y-75100001D01*
X174450001Y-75100001D02*
X175108210Y-75758210D01*
D44*
X175108210Y-75758210D02*
X175123134Y-75758210D01*
X172120932Y-70068604D02*
X171669535Y-70520001D01*
X171669535Y-70520001D02*
X170814999Y-70520001D01*
X170814999Y-70520001D02*
X170300000Y-70005002D01*
X161320001Y-75620001D02*
X160158999Y-75620001D01*
X160158999Y-75620001D02*
X159850000Y-75311002D01*
X159850000Y-75311002D02*
X159850000Y-73400000D01*
X161750000Y-76080002D02*
X161750000Y-76050000D01*
X161750000Y-76050000D02*
X161320001Y-75620001D01*
X161750000Y-77300000D02*
X161750000Y-76080002D01*
X165975000Y-78125000D02*
X165975000Y-76875000D01*
X165975000Y-76875000D02*
X166250000Y-76600000D01*
X161750000Y-77300000D02*
X161750000Y-78050000D01*
X161750000Y-78050000D02*
X161825000Y-78125000D01*
X162640010Y-76555002D02*
X163255002Y-76555002D01*
X163255002Y-76555002D02*
X163839990Y-77139990D01*
X163839990Y-77139990D02*
X163839990Y-77839990D01*
X163839990Y-77839990D02*
X164630000Y-78630000D01*
X164630000Y-78630000D02*
X164630000Y-80000000D01*
X158620000Y-70005027D02*
X158620000Y-69430045D01*
X158620000Y-69430045D02*
X161050045Y-67000000D01*
X161050045Y-67000000D02*
X162300000Y-67000000D01*
X159929999Y-70179999D02*
X158794972Y-70179999D01*
X158794972Y-70179999D02*
X158620000Y-70005027D01*
X160650000Y-70700000D02*
X160450000Y-70700000D01*
X160450000Y-70700000D02*
X159929999Y-70179999D01*
X159929999Y-70179999D02*
X159916001Y-70179999D01*
X164500000Y-80850000D02*
X162940009Y-79290009D01*
X162940009Y-79290009D02*
X162940009Y-77398588D01*
X162940009Y-77398588D02*
X162840000Y-77298579D01*
X157915526Y-70513186D02*
X157915526Y-69625388D01*
X157915526Y-69625388D02*
X161113720Y-66427194D01*
X161113720Y-66427194D02*
X161770570Y-66427194D01*
X158013186Y-70513186D02*
X158200000Y-70700000D01*
X158200000Y-70700000D02*
X158350000Y-70700000D01*
X157915526Y-70513186D02*
X158013186Y-70513186D01*
X159250000Y-70700000D02*
X158350000Y-70700000D01*
X160050000Y-76450000D02*
X160050000Y-77200000D01*
X170943602Y-64900000D02*
X166747144Y-64900000D01*
X166747144Y-64900000D02*
X166587123Y-65060021D01*
X173350000Y-68900000D02*
X173330011Y-68880011D01*
X173330011Y-68880011D02*
X173330011Y-67286409D01*
X173330011Y-67286409D02*
X170943602Y-64900000D01*
X170949121Y-64490021D02*
X166064829Y-64490021D01*
X166064829Y-64490021D02*
X165854839Y-64700011D01*
X173850000Y-68900000D02*
X173850000Y-67297267D01*
X173850000Y-67297267D02*
X171042754Y-64490021D01*
X171042754Y-64490021D02*
X170949121Y-64490021D01*
X174350000Y-68900000D02*
X174350000Y-67288136D01*
X174350000Y-67288136D02*
X173510985Y-66449121D01*
X173510985Y-66420115D02*
X171220881Y-64130011D01*
X173510985Y-66449121D02*
X173510985Y-66420115D01*
X171220881Y-64130011D02*
X165323937Y-64130011D01*
X165323937Y-64130011D02*
X165113947Y-64340001D01*
X174850000Y-68900000D02*
X174850000Y-67279006D01*
X174850000Y-67279006D02*
X173870994Y-66300000D01*
X173870994Y-66300000D02*
X173870994Y-66270994D01*
X173870994Y-66270994D02*
X171370001Y-63770001D01*
X171370001Y-63770001D02*
X164609999Y-63770001D01*
X164609999Y-63770001D02*
X164399999Y-63980001D01*
X198780000Y-75300000D02*
X200200000Y-73880000D01*
X200200000Y-73880000D02*
X200660000Y-73880000D01*
X198650870Y-77100000D02*
X199090871Y-77540001D01*
X199090871Y-77540001D02*
X202079999Y-77540001D01*
X202079999Y-77540001D02*
X202350001Y-77269999D01*
X202350001Y-77269999D02*
X203200000Y-76420000D01*
X178150000Y-70750000D02*
X178150000Y-70550000D01*
X178150000Y-70550000D02*
X177629999Y-70029999D01*
X177629999Y-70029999D02*
X172783999Y-70029999D01*
X172783999Y-70029999D02*
X172729999Y-70083999D01*
X172729999Y-70083999D02*
X172729999Y-70750000D01*
X172729999Y-70750000D02*
X172599988Y-70880011D01*
X172599988Y-70880011D02*
X169030011Y-70880011D01*
X169030011Y-70880011D02*
X168264950Y-70114950D01*
X178150000Y-70750000D02*
X179200000Y-70750000D01*
X177650000Y-68000000D02*
X178708152Y-69058152D01*
X178708152Y-69058152D02*
X179681828Y-69058152D01*
X171350000Y-69950000D02*
X171350000Y-68900000D01*
X154400000Y-76800000D02*
X153700000Y-76800000D01*
X153700000Y-76800000D02*
X153550000Y-76650000D01*
X147300000Y-70800000D02*
X147300000Y-73800000D01*
X147300000Y-73800000D02*
X147500000Y-74000000D01*
X167850000Y-68900000D02*
X167850000Y-66950000D01*
X167850000Y-66950000D02*
X168100000Y-66700000D01*
X188000000Y-82400000D02*
X188750000Y-82400000D01*
X186500000Y-82400000D02*
X187250000Y-82400000D01*
X185000000Y-82400000D02*
X185750000Y-82400000D01*
X188750000Y-80900000D02*
X188750000Y-81650000D01*
X188750000Y-81650000D02*
X188750000Y-81900000D01*
X188000000Y-81650000D02*
X188750000Y-81650000D01*
X186500000Y-81650000D02*
X187250000Y-81650000D01*
X185000000Y-81650000D02*
X185750000Y-81650000D01*
X188750000Y-79750000D02*
X188750000Y-80900000D01*
X188000000Y-80900000D02*
X188750000Y-80900000D01*
X186500000Y-80900000D02*
X187250000Y-80900000D01*
X185000000Y-80900000D02*
X185750000Y-80900000D01*
X188650000Y-81800000D02*
X188550000Y-81800000D01*
X188550000Y-81800000D02*
X185750000Y-79000000D01*
X188750000Y-81900000D02*
X188650000Y-81800000D01*
X188750000Y-79000000D02*
X188750000Y-79750000D01*
X188750000Y-79750000D02*
X188000000Y-79000000D01*
X175129999Y-71279999D02*
X175723601Y-71279999D01*
X175723601Y-71279999D02*
X177400000Y-72956398D01*
X177400000Y-72956398D02*
X177400000Y-74400000D01*
X181600000Y-78100000D02*
X179950000Y-76450000D01*
X179950000Y-76450000D02*
X179450000Y-76450000D01*
X179450000Y-76450000D02*
X177400000Y-74400000D01*
X175129999Y-71279999D02*
X174750000Y-70900000D01*
X186400000Y-77000000D02*
X182700000Y-77000000D01*
X182700000Y-77000000D02*
X181600000Y-78100000D01*
X185000000Y-78250000D02*
X181750000Y-78250000D01*
X181750000Y-78250000D02*
X181600000Y-78100000D01*
X187250000Y-78250000D02*
X187250000Y-79000000D01*
X185000000Y-79000000D02*
X185000000Y-78250000D01*
X172100000Y-66900000D02*
X172126399Y-66926399D01*
X172126399Y-66926399D02*
X172126399Y-67229999D01*
X171595001Y-68004999D02*
X170940001Y-68004999D01*
X170940001Y-68004999D02*
X170850000Y-68095000D01*
X170850000Y-68095000D02*
X170850000Y-68900000D01*
X171800000Y-67556398D02*
X171800000Y-67800000D01*
X171800000Y-67800000D02*
X171595001Y-68004999D01*
X172850000Y-68900000D02*
X172850000Y-68193602D01*
X172850000Y-68193602D02*
X172970001Y-68073601D01*
X172970001Y-68073601D02*
X172970001Y-67526399D01*
X172970001Y-67526399D02*
X172673601Y-67229999D01*
X172673601Y-67229999D02*
X172126399Y-67229999D01*
X172126399Y-67229999D02*
X171800000Y-67556398D01*
D46*
X170350000Y-68900000D02*
X170850000Y-68900000D01*
D44*
X184400000Y-65150000D02*
X184400000Y-65200000D01*
X184400000Y-65200000D02*
X183600000Y-66000000D01*
X183600000Y-66000000D02*
X183274264Y-66000000D01*
X183274264Y-66000000D02*
X182850000Y-66000000D01*
X182950000Y-64650000D02*
X182950000Y-65350000D01*
X182950000Y-65350000D02*
X183600000Y-66000000D01*
X182950000Y-64650000D02*
X182950000Y-65900000D01*
X182950000Y-65900000D02*
X182850000Y-66000000D01*
X180700000Y-64700000D02*
X182900000Y-64700000D01*
X182900000Y-64700000D02*
X182950000Y-64650000D01*
X182950000Y-64650000D02*
X182950000Y-65400000D01*
X184400000Y-65150000D02*
X186994987Y-65150000D01*
X186994987Y-65150000D02*
X187694998Y-65850011D01*
X194400000Y-74700000D02*
X194400000Y-75350000D01*
X194400000Y-75350000D02*
X194400000Y-76100000D01*
X195900000Y-75350000D02*
X195150000Y-75350000D01*
X197400000Y-75350000D02*
X196650000Y-75350000D01*
X196650000Y-76100000D02*
X197400000Y-76100000D01*
X195150000Y-76100000D02*
X195900000Y-76100000D01*
X194400000Y-76850000D02*
X194400000Y-76100000D01*
X194400000Y-76850000D02*
X194400000Y-77600000D01*
X195900000Y-76850000D02*
X195150000Y-76850000D01*
X196643687Y-77593687D02*
X196643687Y-76856313D01*
X196643687Y-76856313D02*
X196650000Y-76850000D01*
X195150000Y-77600000D02*
X195900000Y-77600000D01*
X193000000Y-73300000D02*
X194400000Y-74700000D01*
X186850000Y-71300000D02*
X187600000Y-71300000D01*
X185350000Y-71300000D02*
X186100000Y-71300000D01*
X184600000Y-71300000D02*
X184600000Y-70300000D01*
X184600000Y-70300000D02*
X184470000Y-70170000D01*
X184470000Y-70170000D02*
X184470000Y-69680000D01*
X184470000Y-69680000D02*
X185900000Y-68250000D01*
X185900000Y-68250000D02*
X186650000Y-68250000D01*
X148500000Y-75000000D02*
X149500000Y-74000000D01*
X163760010Y-73600000D02*
X163760010Y-74024264D01*
X163760010Y-74024264D02*
X164200000Y-74464254D01*
X164200000Y-74464254D02*
X164200000Y-77236002D01*
X164200000Y-77236002D02*
X165200000Y-78236002D01*
X166075000Y-81495000D02*
X166075000Y-82000000D01*
X165200000Y-78236002D02*
X165200000Y-80620000D01*
X165200000Y-80620000D02*
X166075000Y-81495000D01*
X163760010Y-73600000D02*
X163760010Y-73539990D01*
X165975000Y-82000000D02*
X166175000Y-82000000D01*
X163771781Y-70236542D02*
X162720238Y-71288085D01*
X162720238Y-71288085D02*
X157538085Y-71288085D01*
X157538085Y-71288085D02*
X157250000Y-71000000D01*
X179470001Y-64779999D02*
X179370001Y-64879999D01*
X179370001Y-64879999D02*
X175083601Y-64879999D01*
X175083601Y-64879999D02*
X174340548Y-65623052D01*
X174340548Y-65623052D02*
X174033051Y-65623052D01*
X184020001Y-64470001D02*
X184020001Y-63933999D01*
X184020001Y-63933999D02*
X183966001Y-63879999D01*
X183966001Y-63879999D02*
X179933999Y-63879999D01*
X179933999Y-63879999D02*
X179470001Y-64343997D01*
X179470001Y-64343997D02*
X179470001Y-64779999D01*
X184400000Y-64789990D02*
X184339990Y-64789990D01*
X184339990Y-64789990D02*
X184020001Y-64470001D01*
X187144108Y-64789990D02*
X184400000Y-64789990D01*
X188880002Y-64400000D02*
X188455738Y-64400000D01*
X188455738Y-64400000D02*
X188065748Y-64789990D01*
X188065748Y-64789990D02*
X187144108Y-64789990D01*
D46*
X146480002Y-67900000D02*
X146575000Y-67900000D01*
X146575000Y-67900000D02*
X147500000Y-66975000D01*
X146000000Y-67400000D02*
X145575000Y-66975000D01*
X145575000Y-66975000D02*
X145500000Y-66975000D01*
X146500000Y-66900000D02*
X146000000Y-67400000D01*
D44*
X144519998Y-73400000D02*
X144100000Y-73400000D01*
X144100000Y-73400000D02*
X143500000Y-74000000D01*
X166878814Y-75650000D02*
X166948815Y-75720001D01*
X166948815Y-75720001D02*
X170310615Y-75720001D01*
X170310615Y-75720001D02*
X171378117Y-74652499D01*
X164430851Y-73202037D02*
X166878814Y-75650000D01*
X166650000Y-75200000D02*
X166650000Y-75421186D01*
X166650000Y-75421186D02*
X166878814Y-75650000D01*
D46*
X160821218Y-81640802D02*
X160821218Y-81371218D01*
X160821218Y-81371218D02*
X159800000Y-80350000D01*
X158520000Y-81900000D02*
X158520000Y-81630000D01*
X158520000Y-81630000D02*
X159800000Y-80350000D01*
D44*
X159954680Y-80350000D02*
X159800000Y-80350000D01*
X160550000Y-81100000D02*
X159800000Y-80350000D01*
X159300000Y-80850000D02*
X159800000Y-80350000D01*
D49*
G36*
X197873000Y-52756038D02*
X197865632Y-52773782D01*
X197864370Y-54219874D01*
X197873000Y-54240760D01*
X197873000Y-54873000D01*
X191127000Y-54873000D01*
X191127000Y-50710000D01*
X197873000Y-50710000D01*
X197873000Y-52756038D01*
X197873000Y-52756038D01*
G37*
X197873000Y-52756038D02*
X197865632Y-52773782D01*
X197864370Y-54219874D01*
X197873000Y-54240760D01*
X197873000Y-54873000D01*
X191127000Y-54873000D01*
X191127000Y-50710000D01*
X197873000Y-50710000D01*
X197873000Y-52756038D01*
G36*
X189873000Y-54873000D02*
X183973288Y-54873000D01*
X183973310Y-54848074D01*
X183831265Y-54504298D01*
X183577000Y-54249589D01*
X183577000Y-50710000D01*
X189873000Y-50710000D01*
X189873000Y-54873000D01*
X189873000Y-54873000D01*
G37*
X189873000Y-54873000D02*
X183973288Y-54873000D01*
X183973310Y-54848074D01*
X183831265Y-54504298D01*
X183577000Y-54249589D01*
X183577000Y-50710000D01*
X189873000Y-50710000D01*
X189873000Y-54873000D01*
D46*
G36*
X148988416Y-63108718D02*
X149090962Y-63356898D01*
X149280677Y-63546944D01*
X149528678Y-63649924D01*
X149797210Y-63650158D01*
X150045390Y-63547612D01*
X150235436Y-63357897D01*
X150314990Y-63166313D01*
X150319984Y-63178400D01*
X150509699Y-63368446D01*
X150757700Y-63471426D01*
X151012856Y-63471648D01*
X151027429Y-63506918D01*
X151217144Y-63696964D01*
X151465145Y-63799944D01*
X151693665Y-63800143D01*
X151727429Y-63881857D01*
X151917144Y-64071903D01*
X152165145Y-64174883D01*
X152433677Y-64175117D01*
X152681857Y-64072571D01*
X152871903Y-63882856D01*
X152931189Y-63740081D01*
X161204939Y-63740081D01*
X161204939Y-65520461D01*
X161240335Y-65698409D01*
X161341134Y-65849266D01*
X161367584Y-65875716D01*
X161280954Y-65962194D01*
X161113720Y-65962194D01*
X160935772Y-65997590D01*
X160784915Y-66098389D01*
X160784913Y-66098392D01*
X157952346Y-68930958D01*
X157952346Y-67180000D01*
X157950147Y-67168312D01*
X158181857Y-67072571D01*
X158371903Y-66882856D01*
X158474883Y-66634855D01*
X158474884Y-66633677D01*
X158624883Y-66633677D01*
X158727429Y-66881857D01*
X158917144Y-67071903D01*
X159165145Y-67174883D01*
X159433677Y-67175117D01*
X159681857Y-67072571D01*
X159871903Y-66882856D01*
X159974883Y-66634855D01*
X159975117Y-66366323D01*
X159872571Y-66118143D01*
X159682856Y-65928097D01*
X159434855Y-65825117D01*
X159166323Y-65824883D01*
X158918143Y-65927429D01*
X158728097Y-66117144D01*
X158625117Y-66365145D01*
X158624883Y-66633677D01*
X158474884Y-66633677D01*
X158475117Y-66366323D01*
X158372571Y-66118143D01*
X158182856Y-65928097D01*
X157934855Y-65825117D01*
X157666323Y-65824883D01*
X157418143Y-65927429D01*
X157228097Y-66117144D01*
X157125117Y-66365145D01*
X157124883Y-66633677D01*
X157192637Y-66797654D01*
X156907282Y-66797654D01*
X156974883Y-66634855D01*
X156975117Y-66366323D01*
X156872571Y-66118143D01*
X156682856Y-65928097D01*
X156434855Y-65825117D01*
X156166323Y-65824883D01*
X155918143Y-65927429D01*
X155728097Y-66117144D01*
X155625117Y-66365145D01*
X155624883Y-66633677D01*
X155727429Y-66881857D01*
X155917144Y-67071903D01*
X156165145Y-67174883D01*
X156188686Y-67174904D01*
X156187654Y-67180000D01*
X156187654Y-69367803D01*
X156084855Y-69325117D01*
X155816323Y-69324883D01*
X155568143Y-69427429D01*
X155412346Y-69582955D01*
X155412346Y-67180000D01*
X155386198Y-67041034D01*
X155318633Y-66936034D01*
X155371903Y-66882856D01*
X155474883Y-66634855D01*
X155475117Y-66366323D01*
X155372571Y-66118143D01*
X155182856Y-65928097D01*
X154934855Y-65825117D01*
X154666323Y-65824883D01*
X154418143Y-65927429D01*
X154228097Y-66117144D01*
X154125117Y-66365145D01*
X154124883Y-66633677D01*
X154192637Y-66797654D01*
X154030000Y-66797654D01*
X153975081Y-66807988D01*
X153975117Y-66766323D01*
X153872571Y-66518143D01*
X153682856Y-66328097D01*
X153434855Y-66225117D01*
X153166323Y-66224883D01*
X152918143Y-66327429D01*
X152728097Y-66517144D01*
X152634456Y-66742654D01*
X151100000Y-66742654D01*
X150961034Y-66768802D01*
X150833401Y-66850931D01*
X150747777Y-66976246D01*
X150717654Y-67125000D01*
X150717654Y-69213217D01*
X150532856Y-69028097D01*
X150284855Y-68925117D01*
X150016323Y-68924883D01*
X149768143Y-69027429D01*
X149578097Y-69217144D01*
X149475117Y-69465145D01*
X149474883Y-69733677D01*
X149577429Y-69981857D01*
X149767144Y-70171903D01*
X150015145Y-70274883D01*
X150283677Y-70275117D01*
X150531857Y-70172571D01*
X150717654Y-69987098D01*
X150717654Y-70125000D01*
X150743802Y-70263966D01*
X150825931Y-70391599D01*
X150951246Y-70477223D01*
X151100000Y-70507346D01*
X152700000Y-70507346D01*
X152838966Y-70481198D01*
X152966599Y-70399069D01*
X153052223Y-70273754D01*
X153082346Y-70125000D01*
X153082346Y-67540502D01*
X153165145Y-67574883D01*
X153433677Y-67575117D01*
X153647654Y-67486703D01*
X153647654Y-70180000D01*
X153673802Y-70318966D01*
X153755931Y-70446599D01*
X153881246Y-70532223D01*
X154030000Y-70562346D01*
X154065000Y-70562346D01*
X154065000Y-70630000D01*
X154100396Y-70807948D01*
X154201195Y-70958805D01*
X154425015Y-71182624D01*
X154424883Y-71333677D01*
X154527429Y-71581857D01*
X154717144Y-71771903D01*
X154965145Y-71874883D01*
X155233677Y-71875117D01*
X155481857Y-71772571D01*
X155671903Y-71582856D01*
X155774883Y-71334855D01*
X155775117Y-71066323D01*
X155672571Y-70818143D01*
X155482856Y-70628097D01*
X155234855Y-70525117D01*
X155186252Y-70525075D01*
X155296599Y-70454069D01*
X155365562Y-70353138D01*
X155377429Y-70381857D01*
X155567144Y-70571903D01*
X155815145Y-70674883D01*
X156083677Y-70675117D01*
X156331857Y-70572571D01*
X156392174Y-70512359D01*
X156421246Y-70532223D01*
X156570000Y-70562346D01*
X156732991Y-70562346D01*
X156678097Y-70617144D01*
X156575117Y-70865145D01*
X156574883Y-71133677D01*
X156677429Y-71381857D01*
X156867144Y-71571903D01*
X157115145Y-71674883D01*
X157296309Y-71675041D01*
X157360137Y-71717689D01*
X157389661Y-71723562D01*
X157538085Y-71753086D01*
X157538090Y-71753085D01*
X158480684Y-71753085D01*
X158447777Y-71801246D01*
X158417654Y-71950000D01*
X158417654Y-72450000D01*
X158443802Y-72588966D01*
X158525931Y-72716599D01*
X158579949Y-72753508D01*
X158575117Y-72765145D01*
X158574883Y-73033677D01*
X158677429Y-73281857D01*
X158867144Y-73471903D01*
X159115145Y-73574883D01*
X159191937Y-73574950D01*
X159277429Y-73781857D01*
X159385000Y-73889616D01*
X159385000Y-75311002D01*
X159420396Y-75488950D01*
X159521195Y-75639807D01*
X159732306Y-75850917D01*
X159668143Y-75877429D01*
X159478097Y-76067144D01*
X159375117Y-76315145D01*
X159374883Y-76583677D01*
X159396283Y-76635468D01*
X159333401Y-76675931D01*
X159247777Y-76801246D01*
X159217654Y-76950000D01*
X159217654Y-77450000D01*
X159243802Y-77588966D01*
X159325931Y-77716599D01*
X159451246Y-77802223D01*
X159600000Y-77832346D01*
X160500000Y-77832346D01*
X160638966Y-77806198D01*
X160766599Y-77724069D01*
X160852223Y-77598754D01*
X160882346Y-77450000D01*
X160882346Y-76950000D01*
X160856198Y-76811034D01*
X160774069Y-76683401D01*
X160703878Y-76635441D01*
X160724883Y-76584855D01*
X160725117Y-76316323D01*
X160629537Y-76085001D01*
X161127391Y-76085001D01*
X161285000Y-76242609D01*
X161285000Y-77339293D01*
X161261034Y-77343802D01*
X161133401Y-77425931D01*
X161047777Y-77551246D01*
X161017654Y-77700000D01*
X161017654Y-78350000D01*
X161043802Y-78488966D01*
X161125931Y-78616599D01*
X161251246Y-78702223D01*
X161400000Y-78732346D01*
X162450000Y-78732346D01*
X162475009Y-78727640D01*
X162475009Y-79290009D01*
X162510405Y-79467957D01*
X162519623Y-79481753D01*
X162450000Y-79467654D01*
X161400000Y-79467654D01*
X161261034Y-79493802D01*
X161232346Y-79512262D01*
X161232346Y-79500000D01*
X161206198Y-79361034D01*
X161124069Y-79233401D01*
X160998754Y-79147777D01*
X160850000Y-79117654D01*
X160839309Y-79117654D01*
X160852223Y-79098754D01*
X160882346Y-78950000D01*
X160882346Y-78450000D01*
X160856198Y-78311034D01*
X160774069Y-78183401D01*
X160648754Y-78097777D01*
X160500000Y-78067654D01*
X159600000Y-78067654D01*
X159461034Y-78093802D01*
X159333401Y-78175931D01*
X159293041Y-78235000D01*
X159063998Y-78235000D01*
X158886050Y-78270396D01*
X158735193Y-78371195D01*
X157621195Y-79485193D01*
X157520396Y-79636050D01*
X157485000Y-79813998D01*
X157485000Y-80360427D01*
X157378097Y-80467144D01*
X157275117Y-80715145D01*
X157274883Y-80983677D01*
X157377429Y-81231857D01*
X157567144Y-81421903D01*
X157815145Y-81524883D01*
X157944837Y-81524996D01*
X157845117Y-81765145D01*
X157844883Y-82033677D01*
X157947429Y-82281857D01*
X158137144Y-82471903D01*
X158385145Y-82574883D01*
X158653677Y-82575117D01*
X158901857Y-82472571D01*
X159091903Y-82282856D01*
X159194883Y-82034855D01*
X159195117Y-81766323D01*
X159164612Y-81692495D01*
X159274760Y-81582346D01*
X160146268Y-81582346D01*
X160146101Y-81774479D01*
X160248647Y-82022659D01*
X160438362Y-82212705D01*
X160686363Y-82315685D01*
X160954895Y-82315919D01*
X161017654Y-82289987D01*
X161017654Y-82325000D01*
X161043802Y-82463966D01*
X161125931Y-82591599D01*
X161251246Y-82677223D01*
X161400000Y-82707346D01*
X162450000Y-82707346D01*
X162588966Y-82681198D01*
X162716599Y-82599069D01*
X162767510Y-82524558D01*
X162817000Y-82644333D01*
X163006715Y-82834379D01*
X163184909Y-82908372D01*
X163184812Y-83019950D01*
X163287358Y-83268130D01*
X163477073Y-83458176D01*
X163725074Y-83561156D01*
X163746476Y-83561175D01*
X163746451Y-83589950D01*
X163848997Y-83838130D01*
X164038712Y-84028176D01*
X164274916Y-84126257D01*
X164274883Y-84163677D01*
X164377429Y-84411857D01*
X164515331Y-84550000D01*
X161232346Y-84550000D01*
X161232346Y-83000000D01*
X161206198Y-82861034D01*
X161124069Y-82733401D01*
X160998754Y-82647777D01*
X160850000Y-82617654D01*
X158750000Y-82617654D01*
X158611034Y-82643802D01*
X158483401Y-82725931D01*
X158397777Y-82851246D01*
X158367654Y-83000000D01*
X158367654Y-84550000D01*
X144956358Y-84550000D01*
X145409286Y-84362854D01*
X146359517Y-83414280D01*
X146874413Y-82174274D01*
X146875584Y-80831616D01*
X146362854Y-79590714D01*
X145414280Y-78640483D01*
X144174274Y-78125587D01*
X142831616Y-78124416D01*
X141590714Y-78637146D01*
X140640483Y-79585720D01*
X140450000Y-80044454D01*
X140450000Y-78132346D01*
X141900000Y-78132346D01*
X142038966Y-78106198D01*
X142166599Y-78024069D01*
X142252223Y-77898754D01*
X142282346Y-77750000D01*
X142282346Y-74750000D01*
X142256198Y-74611034D01*
X142174069Y-74483401D01*
X142048754Y-74397777D01*
X141900000Y-74367654D01*
X140450000Y-74367654D01*
X140450000Y-70507346D01*
X140775085Y-70507346D01*
X140774883Y-70738679D01*
X140877429Y-70986859D01*
X141067144Y-71176905D01*
X141315145Y-71279885D01*
X141583677Y-71280119D01*
X141656570Y-71250000D01*
X142617654Y-71250000D01*
X142617654Y-76750000D01*
X142643802Y-76888966D01*
X142725931Y-77016599D01*
X142851246Y-77102223D01*
X143000000Y-77132346D01*
X144000000Y-77132346D01*
X144138966Y-77106198D01*
X144266599Y-77024069D01*
X144352223Y-76898754D01*
X144382346Y-76750000D01*
X144382346Y-74073722D01*
X144385143Y-74074883D01*
X144653675Y-74075117D01*
X144901855Y-73972571D01*
X145091901Y-73782856D01*
X145194881Y-73534855D01*
X145195115Y-73266323D01*
X145092569Y-73018143D01*
X144902854Y-72828097D01*
X144654853Y-72725117D01*
X144386321Y-72724883D01*
X144382346Y-72726525D01*
X144382346Y-71250000D01*
X146617654Y-71250000D01*
X146617654Y-76750000D01*
X146643802Y-76888966D01*
X146725931Y-77016599D01*
X146851246Y-77102223D01*
X147000000Y-77132346D01*
X147693682Y-77132346D01*
X147693631Y-77190967D01*
X147796177Y-77439147D01*
X147985892Y-77629193D01*
X148233893Y-77732173D01*
X148502425Y-77732407D01*
X148750605Y-77629861D01*
X148940651Y-77440146D01*
X149043631Y-77192145D01*
X149043683Y-77132346D01*
X149985000Y-77132346D01*
X149985000Y-79230506D01*
X149832856Y-79078097D01*
X149584855Y-78975117D01*
X149316323Y-78974883D01*
X149068143Y-79077429D01*
X148878097Y-79267144D01*
X148775117Y-79515145D01*
X148774960Y-79694887D01*
X148674979Y-79675000D01*
X147925021Y-79675000D01*
X147571039Y-79745411D01*
X147270947Y-79945926D01*
X147070432Y-80246018D01*
X147000021Y-80600000D01*
X147070432Y-80953982D01*
X147270947Y-81254074D01*
X147571039Y-81454589D01*
X147925021Y-81525000D01*
X148674979Y-81525000D01*
X149028961Y-81454589D01*
X149192654Y-81345213D01*
X149192654Y-81600000D01*
X149218802Y-81738966D01*
X149300931Y-81866599D01*
X149426246Y-81952223D01*
X149575000Y-81982346D01*
X150025000Y-81982346D01*
X150041723Y-81979199D01*
X149867029Y-82095926D01*
X149666514Y-82396018D01*
X149596103Y-82750000D01*
X149666514Y-83103982D01*
X149867029Y-83404074D01*
X150167121Y-83604589D01*
X150521103Y-83675000D01*
X151678897Y-83675000D01*
X152032879Y-83604589D01*
X152332971Y-83404074D01*
X152346599Y-83383677D01*
X155224883Y-83383677D01*
X155327429Y-83631857D01*
X155517144Y-83821903D01*
X155765145Y-83924883D01*
X156033677Y-83925117D01*
X156281857Y-83822571D01*
X156471903Y-83632856D01*
X156574883Y-83384855D01*
X156575117Y-83116323D01*
X156472571Y-82868143D01*
X156282856Y-82678097D01*
X156034855Y-82575117D01*
X155766323Y-82574883D01*
X155518143Y-82677429D01*
X155328097Y-82867144D01*
X155225117Y-83115145D01*
X155224883Y-83383677D01*
X152346599Y-83383677D01*
X152533486Y-83103982D01*
X152603897Y-82750000D01*
X152533486Y-82396018D01*
X152332971Y-82095926D01*
X152157762Y-81978855D01*
X152175000Y-81982346D01*
X152625000Y-81982346D01*
X152763966Y-81956198D01*
X152891599Y-81874069D01*
X152977223Y-81748754D01*
X153007346Y-81600000D01*
X153007346Y-81345213D01*
X153171039Y-81454589D01*
X153525021Y-81525000D01*
X154274979Y-81525000D01*
X154628961Y-81454589D01*
X154929053Y-81254074D01*
X155129568Y-80953982D01*
X155199979Y-80600000D01*
X155129568Y-80246018D01*
X154929053Y-79945926D01*
X154628961Y-79745411D01*
X154274979Y-79675000D01*
X154195927Y-79675000D01*
X154274883Y-79484855D01*
X154275117Y-79216323D01*
X154178440Y-78982346D01*
X154800000Y-78982346D01*
X154938966Y-78956198D01*
X155066599Y-78874069D01*
X155152223Y-78748754D01*
X155182346Y-78600000D01*
X155182346Y-77800000D01*
X155156198Y-77661034D01*
X155074069Y-77533401D01*
X155025726Y-77500370D01*
X155066599Y-77474069D01*
X155152223Y-77348754D01*
X155182346Y-77200000D01*
X155182346Y-76400000D01*
X155156198Y-76261034D01*
X155074069Y-76133401D01*
X154948754Y-76047777D01*
X154800000Y-76017654D01*
X154000000Y-76017654D01*
X153861034Y-76043802D01*
X153856810Y-76046520D01*
X153684855Y-75975117D01*
X153416323Y-75974883D01*
X153168143Y-76077429D01*
X153082346Y-76163077D01*
X153082346Y-74750000D01*
X153056198Y-74611034D01*
X152974069Y-74483401D01*
X152848754Y-74397777D01*
X152700000Y-74367654D01*
X151650926Y-74367654D01*
X152222275Y-73796304D01*
X152373328Y-73796436D01*
X152621508Y-73693890D01*
X152811554Y-73504175D01*
X152819578Y-73484850D01*
X155472538Y-73484850D01*
X155575084Y-73733030D01*
X155764799Y-73923076D01*
X156012800Y-74026056D01*
X156115522Y-74026146D01*
X156162929Y-74073553D01*
X156187654Y-74090074D01*
X156187654Y-75220000D01*
X156213802Y-75358966D01*
X156295931Y-75486599D01*
X156421246Y-75572223D01*
X156570000Y-75602346D01*
X157570000Y-75602346D01*
X157708966Y-75576198D01*
X157836599Y-75494069D01*
X157922223Y-75368754D01*
X157952346Y-75220000D01*
X157952346Y-72220000D01*
X157926198Y-72081034D01*
X157844069Y-71953401D01*
X157718754Y-71867777D01*
X157570000Y-71837654D01*
X156570000Y-71837654D01*
X156431034Y-71863802D01*
X156303401Y-71945931D01*
X156217777Y-72071246D01*
X156187654Y-72220000D01*
X156187654Y-72676207D01*
X156013978Y-72676056D01*
X155765798Y-72778602D01*
X155575752Y-72968317D01*
X155472772Y-73216318D01*
X155472538Y-73484850D01*
X152819578Y-73484850D01*
X152914534Y-73256174D01*
X152914757Y-73000296D01*
X152981857Y-72972571D01*
X153171903Y-72782856D01*
X153274883Y-72534855D01*
X153275117Y-72266323D01*
X153172571Y-72018143D01*
X152982856Y-71828097D01*
X152734855Y-71725117D01*
X152466323Y-71724883D01*
X152218143Y-71827429D01*
X152028097Y-72017144D01*
X151999373Y-72086318D01*
X151966050Y-72086318D01*
X151788102Y-72121714D01*
X151637245Y-72222513D01*
X151637243Y-72222516D01*
X150382346Y-73477412D01*
X150382346Y-71250000D01*
X150356198Y-71111034D01*
X150274069Y-70983401D01*
X150148754Y-70897777D01*
X150000000Y-70867654D01*
X149000000Y-70867654D01*
X148861034Y-70893802D01*
X148733401Y-70975931D01*
X148647777Y-71101246D01*
X148617654Y-71250000D01*
X148617654Y-71325102D01*
X148382346Y-71324897D01*
X148382346Y-71250000D01*
X148356198Y-71111034D01*
X148274069Y-70983401D01*
X148148754Y-70897777D01*
X148000000Y-70867654D01*
X147974942Y-70867654D01*
X147975117Y-70666323D01*
X147872571Y-70418143D01*
X147682856Y-70228097D01*
X147434855Y-70125117D01*
X147166323Y-70124883D01*
X146918143Y-70227429D01*
X146728097Y-70417144D01*
X146625117Y-70665145D01*
X146624883Y-70933677D01*
X146676657Y-71058979D01*
X146647777Y-71101246D01*
X146617654Y-71250000D01*
X144382346Y-71250000D01*
X144356198Y-71111034D01*
X144274069Y-70983401D01*
X144148754Y-70897777D01*
X144000000Y-70867654D01*
X143000000Y-70867654D01*
X142861034Y-70893802D01*
X142733401Y-70975931D01*
X142647777Y-71101246D01*
X142617654Y-71250000D01*
X141656570Y-71250000D01*
X141831857Y-71177573D01*
X142021903Y-70987858D01*
X142124883Y-70739857D01*
X142125117Y-70471325D01*
X142110245Y-70435332D01*
X142166599Y-70399069D01*
X142252223Y-70273754D01*
X142282346Y-70125000D01*
X142282346Y-67774898D01*
X142533677Y-67775117D01*
X142617654Y-67740418D01*
X142617654Y-69125000D01*
X142643802Y-69263966D01*
X142725931Y-69391599D01*
X142851246Y-69477223D01*
X143000000Y-69507346D01*
X144000000Y-69507346D01*
X144138966Y-69481198D01*
X144266599Y-69399069D01*
X144352223Y-69273754D01*
X144382346Y-69125000D01*
X144382346Y-63625000D01*
X144356198Y-63486034D01*
X144274069Y-63358401D01*
X144148754Y-63272777D01*
X144110349Y-63265000D01*
X144881240Y-63265000D01*
X144861034Y-63268802D01*
X144733401Y-63350931D01*
X144647777Y-63476246D01*
X144617654Y-63625000D01*
X144617654Y-69125000D01*
X144643802Y-69263966D01*
X144725931Y-69391599D01*
X144851246Y-69477223D01*
X145000000Y-69507346D01*
X146000000Y-69507346D01*
X146138966Y-69481198D01*
X146266599Y-69399069D01*
X146352223Y-69273754D01*
X146382346Y-69125000D01*
X146382346Y-68574915D01*
X146613679Y-68575117D01*
X146617654Y-68573475D01*
X146617654Y-69125000D01*
X146643802Y-69263966D01*
X146725931Y-69391599D01*
X146851246Y-69477223D01*
X147000000Y-69507346D01*
X148000000Y-69507346D01*
X148138966Y-69481198D01*
X148266599Y-69399069D01*
X148352223Y-69273754D01*
X148382346Y-69125000D01*
X148382346Y-65033677D01*
X154824883Y-65033677D01*
X154927429Y-65281857D01*
X155117144Y-65471903D01*
X155365145Y-65574883D01*
X155633677Y-65575117D01*
X155881857Y-65472571D01*
X156071903Y-65282856D01*
X156174883Y-65034855D01*
X156174884Y-65033677D01*
X156224883Y-65033677D01*
X156327429Y-65281857D01*
X156517144Y-65471903D01*
X156765145Y-65574883D01*
X157033677Y-65575117D01*
X157281857Y-65472571D01*
X157471903Y-65282856D01*
X157574883Y-65034855D01*
X157574884Y-65033677D01*
X157824883Y-65033677D01*
X157927429Y-65281857D01*
X158117144Y-65471903D01*
X158365145Y-65574883D01*
X158633677Y-65575117D01*
X158881857Y-65472571D01*
X159045121Y-65309591D01*
X159217144Y-65481914D01*
X159465145Y-65584894D01*
X159733677Y-65585128D01*
X159981857Y-65482582D01*
X160171903Y-65292867D01*
X160274883Y-65044866D01*
X160275117Y-64776334D01*
X160172571Y-64528154D01*
X159982856Y-64338108D01*
X159734855Y-64235128D01*
X159466323Y-64234894D01*
X159218143Y-64337440D01*
X159054879Y-64500420D01*
X158882856Y-64328097D01*
X158634855Y-64225117D01*
X158366323Y-64224883D01*
X158118143Y-64327429D01*
X157928097Y-64517144D01*
X157825117Y-64765145D01*
X157824883Y-65033677D01*
X157574884Y-65033677D01*
X157575117Y-64766323D01*
X157472571Y-64518143D01*
X157282856Y-64328097D01*
X157034855Y-64225117D01*
X156766323Y-64224883D01*
X156518143Y-64327429D01*
X156328097Y-64517144D01*
X156225117Y-64765145D01*
X156224883Y-65033677D01*
X156174884Y-65033677D01*
X156175117Y-64766323D01*
X156072571Y-64518143D01*
X155882856Y-64328097D01*
X155634855Y-64225117D01*
X155366323Y-64224883D01*
X155118143Y-64327429D01*
X154928097Y-64517144D01*
X154825117Y-64765145D01*
X154824883Y-65033677D01*
X148382346Y-65033677D01*
X148382346Y-63625000D01*
X148356198Y-63486034D01*
X148274069Y-63358401D01*
X148148754Y-63272777D01*
X148085896Y-63260048D01*
X148238950Y-63229604D01*
X148389807Y-63128805D01*
X148548803Y-62969808D01*
X148548806Y-62969806D01*
X148624608Y-62856360D01*
X148655146Y-62869041D01*
X148923678Y-62869275D01*
X148988648Y-62842430D01*
X148988416Y-63108718D01*
X148988416Y-63108718D01*
G37*
X148988416Y-63108718D02*
X149090962Y-63356898D01*
X149280677Y-63546944D01*
X149528678Y-63649924D01*
X149797210Y-63650158D01*
X150045390Y-63547612D01*
X150235436Y-63357897D01*
X150314990Y-63166313D01*
X150319984Y-63178400D01*
X150509699Y-63368446D01*
X150757700Y-63471426D01*
X151012856Y-63471648D01*
X151027429Y-63506918D01*
X151217144Y-63696964D01*
X151465145Y-63799944D01*
X151693665Y-63800143D01*
X151727429Y-63881857D01*
X151917144Y-64071903D01*
X152165145Y-64174883D01*
X152433677Y-64175117D01*
X152681857Y-64072571D01*
X152871903Y-63882856D01*
X152931189Y-63740081D01*
X161204939Y-63740081D01*
X161204939Y-65520461D01*
X161240335Y-65698409D01*
X161341134Y-65849266D01*
X161367584Y-65875716D01*
X161280954Y-65962194D01*
X161113720Y-65962194D01*
X160935772Y-65997590D01*
X160784915Y-66098389D01*
X160784913Y-66098392D01*
X157952346Y-68930958D01*
X157952346Y-67180000D01*
X157950147Y-67168312D01*
X158181857Y-67072571D01*
X158371903Y-66882856D01*
X158474883Y-66634855D01*
X158474884Y-66633677D01*
X158624883Y-66633677D01*
X158727429Y-66881857D01*
X158917144Y-67071903D01*
X159165145Y-67174883D01*
X159433677Y-67175117D01*
X159681857Y-67072571D01*
X159871903Y-66882856D01*
X159974883Y-66634855D01*
X159975117Y-66366323D01*
X159872571Y-66118143D01*
X159682856Y-65928097D01*
X159434855Y-65825117D01*
X159166323Y-65824883D01*
X158918143Y-65927429D01*
X158728097Y-66117144D01*
X158625117Y-66365145D01*
X158624883Y-66633677D01*
X158474884Y-66633677D01*
X158475117Y-66366323D01*
X158372571Y-66118143D01*
X158182856Y-65928097D01*
X157934855Y-65825117D01*
X157666323Y-65824883D01*
X157418143Y-65927429D01*
X157228097Y-66117144D01*
X157125117Y-66365145D01*
X157124883Y-66633677D01*
X157192637Y-66797654D01*
X156907282Y-66797654D01*
X156974883Y-66634855D01*
X156975117Y-66366323D01*
X156872571Y-66118143D01*
X156682856Y-65928097D01*
X156434855Y-65825117D01*
X156166323Y-65824883D01*
X155918143Y-65927429D01*
X155728097Y-66117144D01*
X155625117Y-66365145D01*
X155624883Y-66633677D01*
X155727429Y-66881857D01*
X155917144Y-67071903D01*
X156165145Y-67174883D01*
X156188686Y-67174904D01*
X156187654Y-67180000D01*
X156187654Y-69367803D01*
X156084855Y-69325117D01*
X155816323Y-69324883D01*
X155568143Y-69427429D01*
X155412346Y-69582955D01*
X155412346Y-67180000D01*
X155386198Y-67041034D01*
X155318633Y-66936034D01*
X155371903Y-66882856D01*
X155474883Y-66634855D01*
X155475117Y-66366323D01*
X155372571Y-66118143D01*
X155182856Y-65928097D01*
X154934855Y-65825117D01*
X154666323Y-65824883D01*
X154418143Y-65927429D01*
X154228097Y-66117144D01*
X154125117Y-66365145D01*
X154124883Y-66633677D01*
X154192637Y-66797654D01*
X154030000Y-66797654D01*
X153975081Y-66807988D01*
X153975117Y-66766323D01*
X153872571Y-66518143D01*
X153682856Y-66328097D01*
X153434855Y-66225117D01*
X153166323Y-66224883D01*
X152918143Y-66327429D01*
X152728097Y-66517144D01*
X152634456Y-66742654D01*
X151100000Y-66742654D01*
X150961034Y-66768802D01*
X150833401Y-66850931D01*
X150747777Y-66976246D01*
X150717654Y-67125000D01*
X150717654Y-69213217D01*
X150532856Y-69028097D01*
X150284855Y-68925117D01*
X150016323Y-68924883D01*
X149768143Y-69027429D01*
X149578097Y-69217144D01*
X149475117Y-69465145D01*
X149474883Y-69733677D01*
X149577429Y-69981857D01*
X149767144Y-70171903D01*
X150015145Y-70274883D01*
X150283677Y-70275117D01*
X150531857Y-70172571D01*
X150717654Y-69987098D01*
X150717654Y-70125000D01*
X150743802Y-70263966D01*
X150825931Y-70391599D01*
X150951246Y-70477223D01*
X151100000Y-70507346D01*
X152700000Y-70507346D01*
X152838966Y-70481198D01*
X152966599Y-70399069D01*
X153052223Y-70273754D01*
X153082346Y-70125000D01*
X153082346Y-67540502D01*
X153165145Y-67574883D01*
X153433677Y-67575117D01*
X153647654Y-67486703D01*
X153647654Y-70180000D01*
X153673802Y-70318966D01*
X153755931Y-70446599D01*
X153881246Y-70532223D01*
X154030000Y-70562346D01*
X154065000Y-70562346D01*
X154065000Y-70630000D01*
X154100396Y-70807948D01*
X154201195Y-70958805D01*
X154425015Y-71182624D01*
X154424883Y-71333677D01*
X154527429Y-71581857D01*
X154717144Y-71771903D01*
X154965145Y-71874883D01*
X155233677Y-71875117D01*
X155481857Y-71772571D01*
X155671903Y-71582856D01*
X155774883Y-71334855D01*
X155775117Y-71066323D01*
X155672571Y-70818143D01*
X155482856Y-70628097D01*
X155234855Y-70525117D01*
X155186252Y-70525075D01*
X155296599Y-70454069D01*
X155365562Y-70353138D01*
X155377429Y-70381857D01*
X155567144Y-70571903D01*
X155815145Y-70674883D01*
X156083677Y-70675117D01*
X156331857Y-70572571D01*
X156392174Y-70512359D01*
X156421246Y-70532223D01*
X156570000Y-70562346D01*
X156732991Y-70562346D01*
X156678097Y-70617144D01*
X156575117Y-70865145D01*
X156574883Y-71133677D01*
X156677429Y-71381857D01*
X156867144Y-71571903D01*
X157115145Y-71674883D01*
X157296309Y-71675041D01*
X157360137Y-71717689D01*
X157389661Y-71723562D01*
X157538085Y-71753086D01*
X157538090Y-71753085D01*
X158480684Y-71753085D01*
X158447777Y-71801246D01*
X158417654Y-71950000D01*
X158417654Y-72450000D01*
X158443802Y-72588966D01*
X158525931Y-72716599D01*
X158579949Y-72753508D01*
X158575117Y-72765145D01*
X158574883Y-73033677D01*
X158677429Y-73281857D01*
X158867144Y-73471903D01*
X159115145Y-73574883D01*
X159191937Y-73574950D01*
X159277429Y-73781857D01*
X159385000Y-73889616D01*
X159385000Y-75311002D01*
X159420396Y-75488950D01*
X159521195Y-75639807D01*
X159732306Y-75850917D01*
X159668143Y-75877429D01*
X159478097Y-76067144D01*
X159375117Y-76315145D01*
X159374883Y-76583677D01*
X159396283Y-76635468D01*
X159333401Y-76675931D01*
X159247777Y-76801246D01*
X159217654Y-76950000D01*
X159217654Y-77450000D01*
X159243802Y-77588966D01*
X159325931Y-77716599D01*
X159451246Y-77802223D01*
X159600000Y-77832346D01*
X160500000Y-77832346D01*
X160638966Y-77806198D01*
X160766599Y-77724069D01*
X160852223Y-77598754D01*
X160882346Y-77450000D01*
X160882346Y-76950000D01*
X160856198Y-76811034D01*
X160774069Y-76683401D01*
X160703878Y-76635441D01*
X160724883Y-76584855D01*
X160725117Y-76316323D01*
X160629537Y-76085001D01*
X161127391Y-76085001D01*
X161285000Y-76242609D01*
X161285000Y-77339293D01*
X161261034Y-77343802D01*
X161133401Y-77425931D01*
X161047777Y-77551246D01*
X161017654Y-77700000D01*
X161017654Y-78350000D01*
X161043802Y-78488966D01*
X161125931Y-78616599D01*
X161251246Y-78702223D01*
X161400000Y-78732346D01*
X162450000Y-78732346D01*
X162475009Y-78727640D01*
X162475009Y-79290009D01*
X162510405Y-79467957D01*
X162519623Y-79481753D01*
X162450000Y-79467654D01*
X161400000Y-79467654D01*
X161261034Y-79493802D01*
X161232346Y-79512262D01*
X161232346Y-79500000D01*
X161206198Y-79361034D01*
X161124069Y-79233401D01*
X160998754Y-79147777D01*
X160850000Y-79117654D01*
X160839309Y-79117654D01*
X160852223Y-79098754D01*
X160882346Y-78950000D01*
X160882346Y-78450000D01*
X160856198Y-78311034D01*
X160774069Y-78183401D01*
X160648754Y-78097777D01*
X160500000Y-78067654D01*
X159600000Y-78067654D01*
X159461034Y-78093802D01*
X159333401Y-78175931D01*
X159293041Y-78235000D01*
X159063998Y-78235000D01*
X158886050Y-78270396D01*
X158735193Y-78371195D01*
X157621195Y-79485193D01*
X157520396Y-79636050D01*
X157485000Y-79813998D01*
X157485000Y-80360427D01*
X157378097Y-80467144D01*
X157275117Y-80715145D01*
X157274883Y-80983677D01*
X157377429Y-81231857D01*
X157567144Y-81421903D01*
X157815145Y-81524883D01*
X157944837Y-81524996D01*
X157845117Y-81765145D01*
X157844883Y-82033677D01*
X157947429Y-82281857D01*
X158137144Y-82471903D01*
X158385145Y-82574883D01*
X158653677Y-82575117D01*
X158901857Y-82472571D01*
X159091903Y-82282856D01*
X159194883Y-82034855D01*
X159195117Y-81766323D01*
X159164612Y-81692495D01*
X159274760Y-81582346D01*
X160146268Y-81582346D01*
X160146101Y-81774479D01*
X160248647Y-82022659D01*
X160438362Y-82212705D01*
X160686363Y-82315685D01*
X160954895Y-82315919D01*
X161017654Y-82289987D01*
X161017654Y-82325000D01*
X161043802Y-82463966D01*
X161125931Y-82591599D01*
X161251246Y-82677223D01*
X161400000Y-82707346D01*
X162450000Y-82707346D01*
X162588966Y-82681198D01*
X162716599Y-82599069D01*
X162767510Y-82524558D01*
X162817000Y-82644333D01*
X163006715Y-82834379D01*
X163184909Y-82908372D01*
X163184812Y-83019950D01*
X163287358Y-83268130D01*
X163477073Y-83458176D01*
X163725074Y-83561156D01*
X163746476Y-83561175D01*
X163746451Y-83589950D01*
X163848997Y-83838130D01*
X164038712Y-84028176D01*
X164274916Y-84126257D01*
X164274883Y-84163677D01*
X164377429Y-84411857D01*
X164515331Y-84550000D01*
X161232346Y-84550000D01*
X161232346Y-83000000D01*
X161206198Y-82861034D01*
X161124069Y-82733401D01*
X160998754Y-82647777D01*
X160850000Y-82617654D01*
X158750000Y-82617654D01*
X158611034Y-82643802D01*
X158483401Y-82725931D01*
X158397777Y-82851246D01*
X158367654Y-83000000D01*
X158367654Y-84550000D01*
X144956358Y-84550000D01*
X145409286Y-84362854D01*
X146359517Y-83414280D01*
X146874413Y-82174274D01*
X146875584Y-80831616D01*
X146362854Y-79590714D01*
X145414280Y-78640483D01*
X144174274Y-78125587D01*
X142831616Y-78124416D01*
X141590714Y-78637146D01*
X140640483Y-79585720D01*
X140450000Y-80044454D01*
X140450000Y-78132346D01*
X141900000Y-78132346D01*
X142038966Y-78106198D01*
X142166599Y-78024069D01*
X142252223Y-77898754D01*
X142282346Y-77750000D01*
X142282346Y-74750000D01*
X142256198Y-74611034D01*
X142174069Y-74483401D01*
X142048754Y-74397777D01*
X141900000Y-74367654D01*
X140450000Y-74367654D01*
X140450000Y-70507346D01*
X140775085Y-70507346D01*
X140774883Y-70738679D01*
X140877429Y-70986859D01*
X141067144Y-71176905D01*
X141315145Y-71279885D01*
X141583677Y-71280119D01*
X141656570Y-71250000D01*
X142617654Y-71250000D01*
X142617654Y-76750000D01*
X142643802Y-76888966D01*
X142725931Y-77016599D01*
X142851246Y-77102223D01*
X143000000Y-77132346D01*
X144000000Y-77132346D01*
X144138966Y-77106198D01*
X144266599Y-77024069D01*
X144352223Y-76898754D01*
X144382346Y-76750000D01*
X144382346Y-74073722D01*
X144385143Y-74074883D01*
X144653675Y-74075117D01*
X144901855Y-73972571D01*
X145091901Y-73782856D01*
X145194881Y-73534855D01*
X145195115Y-73266323D01*
X145092569Y-73018143D01*
X144902854Y-72828097D01*
X144654853Y-72725117D01*
X144386321Y-72724883D01*
X144382346Y-72726525D01*
X144382346Y-71250000D01*
X146617654Y-71250000D01*
X146617654Y-76750000D01*
X146643802Y-76888966D01*
X146725931Y-77016599D01*
X146851246Y-77102223D01*
X147000000Y-77132346D01*
X147693682Y-77132346D01*
X147693631Y-77190967D01*
X147796177Y-77439147D01*
X147985892Y-77629193D01*
X148233893Y-77732173D01*
X148502425Y-77732407D01*
X148750605Y-77629861D01*
X148940651Y-77440146D01*
X149043631Y-77192145D01*
X149043683Y-77132346D01*
X149985000Y-77132346D01*
X149985000Y-79230506D01*
X149832856Y-79078097D01*
X149584855Y-78975117D01*
X149316323Y-78974883D01*
X149068143Y-79077429D01*
X148878097Y-79267144D01*
X148775117Y-79515145D01*
X148774960Y-79694887D01*
X148674979Y-79675000D01*
X147925021Y-79675000D01*
X147571039Y-79745411D01*
X147270947Y-79945926D01*
X147070432Y-80246018D01*
X147000021Y-80600000D01*
X147070432Y-80953982D01*
X147270947Y-81254074D01*
X147571039Y-81454589D01*
X147925021Y-81525000D01*
X148674979Y-81525000D01*
X149028961Y-81454589D01*
X149192654Y-81345213D01*
X149192654Y-81600000D01*
X149218802Y-81738966D01*
X149300931Y-81866599D01*
X149426246Y-81952223D01*
X149575000Y-81982346D01*
X150025000Y-81982346D01*
X150041723Y-81979199D01*
X149867029Y-82095926D01*
X149666514Y-82396018D01*
X149596103Y-82750000D01*
X149666514Y-83103982D01*
X149867029Y-83404074D01*
X150167121Y-83604589D01*
X150521103Y-83675000D01*
X151678897Y-83675000D01*
X152032879Y-83604589D01*
X152332971Y-83404074D01*
X152346599Y-83383677D01*
X155224883Y-83383677D01*
X155327429Y-83631857D01*
X155517144Y-83821903D01*
X155765145Y-83924883D01*
X156033677Y-83925117D01*
X156281857Y-83822571D01*
X156471903Y-83632856D01*
X156574883Y-83384855D01*
X156575117Y-83116323D01*
X156472571Y-82868143D01*
X156282856Y-82678097D01*
X156034855Y-82575117D01*
X155766323Y-82574883D01*
X155518143Y-82677429D01*
X155328097Y-82867144D01*
X155225117Y-83115145D01*
X155224883Y-83383677D01*
X152346599Y-83383677D01*
X152533486Y-83103982D01*
X152603897Y-82750000D01*
X152533486Y-82396018D01*
X152332971Y-82095926D01*
X152157762Y-81978855D01*
X152175000Y-81982346D01*
X152625000Y-81982346D01*
X152763966Y-81956198D01*
X152891599Y-81874069D01*
X152977223Y-81748754D01*
X153007346Y-81600000D01*
X153007346Y-81345213D01*
X153171039Y-81454589D01*
X153525021Y-81525000D01*
X154274979Y-81525000D01*
X154628961Y-81454589D01*
X154929053Y-81254074D01*
X155129568Y-80953982D01*
X155199979Y-80600000D01*
X155129568Y-80246018D01*
X154929053Y-79945926D01*
X154628961Y-79745411D01*
X154274979Y-79675000D01*
X154195927Y-79675000D01*
X154274883Y-79484855D01*
X154275117Y-79216323D01*
X154178440Y-78982346D01*
X154800000Y-78982346D01*
X154938966Y-78956198D01*
X155066599Y-78874069D01*
X155152223Y-78748754D01*
X155182346Y-78600000D01*
X155182346Y-77800000D01*
X155156198Y-77661034D01*
X155074069Y-77533401D01*
X155025726Y-77500370D01*
X155066599Y-77474069D01*
X155152223Y-77348754D01*
X155182346Y-77200000D01*
X155182346Y-76400000D01*
X155156198Y-76261034D01*
X155074069Y-76133401D01*
X154948754Y-76047777D01*
X154800000Y-76017654D01*
X154000000Y-76017654D01*
X153861034Y-76043802D01*
X153856810Y-76046520D01*
X153684855Y-75975117D01*
X153416323Y-75974883D01*
X153168143Y-76077429D01*
X153082346Y-76163077D01*
X153082346Y-74750000D01*
X153056198Y-74611034D01*
X152974069Y-74483401D01*
X152848754Y-74397777D01*
X152700000Y-74367654D01*
X151650926Y-74367654D01*
X152222275Y-73796304D01*
X152373328Y-73796436D01*
X152621508Y-73693890D01*
X152811554Y-73504175D01*
X152819578Y-73484850D01*
X155472538Y-73484850D01*
X155575084Y-73733030D01*
X155764799Y-73923076D01*
X156012800Y-74026056D01*
X156115522Y-74026146D01*
X156162929Y-74073553D01*
X156187654Y-74090074D01*
X156187654Y-75220000D01*
X156213802Y-75358966D01*
X156295931Y-75486599D01*
X156421246Y-75572223D01*
X156570000Y-75602346D01*
X157570000Y-75602346D01*
X157708966Y-75576198D01*
X157836599Y-75494069D01*
X157922223Y-75368754D01*
X157952346Y-75220000D01*
X157952346Y-72220000D01*
X157926198Y-72081034D01*
X157844069Y-71953401D01*
X157718754Y-71867777D01*
X157570000Y-71837654D01*
X156570000Y-71837654D01*
X156431034Y-71863802D01*
X156303401Y-71945931D01*
X156217777Y-72071246D01*
X156187654Y-72220000D01*
X156187654Y-72676207D01*
X156013978Y-72676056D01*
X155765798Y-72778602D01*
X155575752Y-72968317D01*
X155472772Y-73216318D01*
X155472538Y-73484850D01*
X152819578Y-73484850D01*
X152914534Y-73256174D01*
X152914757Y-73000296D01*
X152981857Y-72972571D01*
X153171903Y-72782856D01*
X153274883Y-72534855D01*
X153275117Y-72266323D01*
X153172571Y-72018143D01*
X152982856Y-71828097D01*
X152734855Y-71725117D01*
X152466323Y-71724883D01*
X152218143Y-71827429D01*
X152028097Y-72017144D01*
X151999373Y-72086318D01*
X151966050Y-72086318D01*
X151788102Y-72121714D01*
X151637245Y-72222513D01*
X151637243Y-72222516D01*
X150382346Y-73477412D01*
X150382346Y-71250000D01*
X150356198Y-71111034D01*
X150274069Y-70983401D01*
X150148754Y-70897777D01*
X150000000Y-70867654D01*
X149000000Y-70867654D01*
X148861034Y-70893802D01*
X148733401Y-70975931D01*
X148647777Y-71101246D01*
X148617654Y-71250000D01*
X148617654Y-71325102D01*
X148382346Y-71324897D01*
X148382346Y-71250000D01*
X148356198Y-71111034D01*
X148274069Y-70983401D01*
X148148754Y-70897777D01*
X148000000Y-70867654D01*
X147974942Y-70867654D01*
X147975117Y-70666323D01*
X147872571Y-70418143D01*
X147682856Y-70228097D01*
X147434855Y-70125117D01*
X147166323Y-70124883D01*
X146918143Y-70227429D01*
X146728097Y-70417144D01*
X146625117Y-70665145D01*
X146624883Y-70933677D01*
X146676657Y-71058979D01*
X146647777Y-71101246D01*
X146617654Y-71250000D01*
X144382346Y-71250000D01*
X144356198Y-71111034D01*
X144274069Y-70983401D01*
X144148754Y-70897777D01*
X144000000Y-70867654D01*
X143000000Y-70867654D01*
X142861034Y-70893802D01*
X142733401Y-70975931D01*
X142647777Y-71101246D01*
X142617654Y-71250000D01*
X141656570Y-71250000D01*
X141831857Y-71177573D01*
X142021903Y-70987858D01*
X142124883Y-70739857D01*
X142125117Y-70471325D01*
X142110245Y-70435332D01*
X142166599Y-70399069D01*
X142252223Y-70273754D01*
X142282346Y-70125000D01*
X142282346Y-67774898D01*
X142533677Y-67775117D01*
X142617654Y-67740418D01*
X142617654Y-69125000D01*
X142643802Y-69263966D01*
X142725931Y-69391599D01*
X142851246Y-69477223D01*
X143000000Y-69507346D01*
X144000000Y-69507346D01*
X144138966Y-69481198D01*
X144266599Y-69399069D01*
X144352223Y-69273754D01*
X144382346Y-69125000D01*
X144382346Y-63625000D01*
X144356198Y-63486034D01*
X144274069Y-63358401D01*
X144148754Y-63272777D01*
X144110349Y-63265000D01*
X144881240Y-63265000D01*
X144861034Y-63268802D01*
X144733401Y-63350931D01*
X144647777Y-63476246D01*
X144617654Y-63625000D01*
X144617654Y-69125000D01*
X144643802Y-69263966D01*
X144725931Y-69391599D01*
X144851246Y-69477223D01*
X145000000Y-69507346D01*
X146000000Y-69507346D01*
X146138966Y-69481198D01*
X146266599Y-69399069D01*
X146352223Y-69273754D01*
X146382346Y-69125000D01*
X146382346Y-68574915D01*
X146613679Y-68575117D01*
X146617654Y-68573475D01*
X146617654Y-69125000D01*
X146643802Y-69263966D01*
X146725931Y-69391599D01*
X146851246Y-69477223D01*
X147000000Y-69507346D01*
X148000000Y-69507346D01*
X148138966Y-69481198D01*
X148266599Y-69399069D01*
X148352223Y-69273754D01*
X148382346Y-69125000D01*
X148382346Y-65033677D01*
X154824883Y-65033677D01*
X154927429Y-65281857D01*
X155117144Y-65471903D01*
X155365145Y-65574883D01*
X155633677Y-65575117D01*
X155881857Y-65472571D01*
X156071903Y-65282856D01*
X156174883Y-65034855D01*
X156174884Y-65033677D01*
X156224883Y-65033677D01*
X156327429Y-65281857D01*
X156517144Y-65471903D01*
X156765145Y-65574883D01*
X157033677Y-65575117D01*
X157281857Y-65472571D01*
X157471903Y-65282856D01*
X157574883Y-65034855D01*
X157574884Y-65033677D01*
X157824883Y-65033677D01*
X157927429Y-65281857D01*
X158117144Y-65471903D01*
X158365145Y-65574883D01*
X158633677Y-65575117D01*
X158881857Y-65472571D01*
X159045121Y-65309591D01*
X159217144Y-65481914D01*
X159465145Y-65584894D01*
X159733677Y-65585128D01*
X159981857Y-65482582D01*
X160171903Y-65292867D01*
X160274883Y-65044866D01*
X160275117Y-64776334D01*
X160172571Y-64528154D01*
X159982856Y-64338108D01*
X159734855Y-64235128D01*
X159466323Y-64234894D01*
X159218143Y-64337440D01*
X159054879Y-64500420D01*
X158882856Y-64328097D01*
X158634855Y-64225117D01*
X158366323Y-64224883D01*
X158118143Y-64327429D01*
X157928097Y-64517144D01*
X157825117Y-64765145D01*
X157824883Y-65033677D01*
X157574884Y-65033677D01*
X157575117Y-64766323D01*
X157472571Y-64518143D01*
X157282856Y-64328097D01*
X157034855Y-64225117D01*
X156766323Y-64224883D01*
X156518143Y-64327429D01*
X156328097Y-64517144D01*
X156225117Y-64765145D01*
X156224883Y-65033677D01*
X156174884Y-65033677D01*
X156175117Y-64766323D01*
X156072571Y-64518143D01*
X155882856Y-64328097D01*
X155634855Y-64225117D01*
X155366323Y-64224883D01*
X155118143Y-64327429D01*
X154928097Y-64517144D01*
X154825117Y-64765145D01*
X154824883Y-65033677D01*
X148382346Y-65033677D01*
X148382346Y-63625000D01*
X148356198Y-63486034D01*
X148274069Y-63358401D01*
X148148754Y-63272777D01*
X148085896Y-63260048D01*
X148238950Y-63229604D01*
X148389807Y-63128805D01*
X148548803Y-62969808D01*
X148548806Y-62969806D01*
X148624608Y-62856360D01*
X148655146Y-62869041D01*
X148923678Y-62869275D01*
X148988648Y-62842430D01*
X148988416Y-63108718D01*
G36*
X190367000Y-50500000D02*
X190367000Y-55000000D01*
X190410290Y-55230069D01*
X190546261Y-55441372D01*
X190753728Y-55583129D01*
X191000000Y-55633000D01*
X198000000Y-55633000D01*
X198230069Y-55589710D01*
X198441372Y-55453739D01*
X198574817Y-55258437D01*
X198637146Y-55409286D01*
X199585720Y-56359517D01*
X200825726Y-56874413D01*
X202168384Y-56875584D01*
X203409286Y-56362854D01*
X204359517Y-55414280D01*
X204550000Y-54955546D01*
X204550000Y-80043642D01*
X204362854Y-79590714D01*
X203414280Y-78640483D01*
X202174274Y-78125587D01*
X200831616Y-78124416D01*
X199590714Y-78637146D01*
X198640483Y-79585720D01*
X198125587Y-80825726D01*
X198124416Y-82168384D01*
X198637146Y-83409286D01*
X199585720Y-84359517D01*
X200044454Y-84550000D01*
X165384520Y-84550000D01*
X165521903Y-84412856D01*
X165624883Y-84164855D01*
X165625117Y-83896323D01*
X165522571Y-83648143D01*
X165332856Y-83458097D01*
X165096652Y-83360016D01*
X165096685Y-83322596D01*
X164994139Y-83074416D01*
X164804424Y-82884370D01*
X164556423Y-82781390D01*
X164535021Y-82781371D01*
X164535046Y-82752596D01*
X164432500Y-82504416D01*
X164242785Y-82314370D01*
X164064591Y-82240377D01*
X164064688Y-82128799D01*
X164056593Y-82109208D01*
X164056799Y-82109123D01*
X164246845Y-81919408D01*
X164349825Y-81671407D01*
X164349958Y-81518577D01*
X164365145Y-81524883D01*
X164633677Y-81525117D01*
X164881857Y-81422571D01*
X165071903Y-81232856D01*
X165096356Y-81173966D01*
X165307691Y-81385301D01*
X165283401Y-81400931D01*
X165197777Y-81526246D01*
X165167654Y-81675000D01*
X165167654Y-82325000D01*
X165193802Y-82463966D01*
X165275931Y-82591599D01*
X165401246Y-82677223D01*
X165550000Y-82707346D01*
X166600000Y-82707346D01*
X166738966Y-82681198D01*
X166866599Y-82599069D01*
X166952223Y-82473754D01*
X166982346Y-82325000D01*
X166982346Y-82063583D01*
X167075000Y-82082346D01*
X167825000Y-82082346D01*
X167963966Y-82056198D01*
X168091599Y-81974069D01*
X168124630Y-81925726D01*
X168150931Y-81966599D01*
X168276246Y-82052223D01*
X168425000Y-82082346D01*
X168874928Y-82082346D01*
X168874883Y-82133677D01*
X168977429Y-82381857D01*
X169167144Y-82571903D01*
X169415145Y-82674883D01*
X169683677Y-82675117D01*
X169931857Y-82572571D01*
X170121903Y-82382856D01*
X170224883Y-82134855D01*
X170225117Y-81866323D01*
X170122571Y-81618143D01*
X169932856Y-81428097D01*
X169684855Y-81325117D01*
X169557346Y-81325006D01*
X169557346Y-80900000D01*
X169531198Y-80761034D01*
X169449069Y-80633401D01*
X169323754Y-80547777D01*
X169175000Y-80517654D01*
X168425000Y-80517654D01*
X168286034Y-80543802D01*
X168158401Y-80625931D01*
X168125370Y-80674274D01*
X168099069Y-80633401D01*
X167973754Y-80547777D01*
X167825000Y-80517654D01*
X167075000Y-80517654D01*
X166974959Y-80536478D01*
X166982346Y-80500000D01*
X166982346Y-79850000D01*
X166956198Y-79711034D01*
X166874069Y-79583401D01*
X166774900Y-79515642D01*
X166775117Y-79266323D01*
X166672571Y-79018143D01*
X166482856Y-78828097D01*
X166252264Y-78732346D01*
X166600000Y-78732346D01*
X166738966Y-78706198D01*
X166866599Y-78624069D01*
X166952223Y-78498754D01*
X166982346Y-78350000D01*
X166982346Y-77700000D01*
X166956198Y-77561034D01*
X166874069Y-77433401D01*
X166748754Y-77347777D01*
X166734303Y-77344851D01*
X166766599Y-77324069D01*
X166852223Y-77198754D01*
X166882346Y-77050000D01*
X166882346Y-76171780D01*
X166948815Y-76185001D01*
X169217654Y-76185001D01*
X169217654Y-80100000D01*
X169243802Y-80238966D01*
X169325931Y-80366599D01*
X169451246Y-80452223D01*
X169600000Y-80482346D01*
X172776507Y-80482346D01*
X172965152Y-80608395D01*
X173300000Y-80675000D01*
X176500000Y-80675000D01*
X176834848Y-80608395D01*
X177118718Y-80418718D01*
X177308395Y-80134848D01*
X177375000Y-79800000D01*
X177375000Y-77400000D01*
X177308395Y-77065152D01*
X177118718Y-76781282D01*
X176834848Y-76591605D01*
X176500000Y-76525000D01*
X173984827Y-76525000D01*
X173982346Y-76523342D01*
X173982346Y-76100000D01*
X173956198Y-75961034D01*
X173874069Y-75833401D01*
X173748754Y-75747777D01*
X173600000Y-75717654D01*
X172398977Y-75717654D01*
X172447832Y-75600001D01*
X174242895Y-75600001D01*
X174448093Y-75805199D01*
X174448017Y-75891887D01*
X174550563Y-76140067D01*
X174740278Y-76330113D01*
X174988279Y-76433093D01*
X175256811Y-76433327D01*
X175504991Y-76330781D01*
X175695037Y-76141066D01*
X175798017Y-75893065D01*
X175798251Y-75624533D01*
X175695705Y-75376353D01*
X175505990Y-75186307D01*
X175257989Y-75083327D01*
X175140330Y-75083224D01*
X174803554Y-74746448D01*
X174641343Y-74638061D01*
X174450001Y-74600001D01*
X172099999Y-74600001D01*
X172053155Y-74609319D01*
X172053234Y-74518822D01*
X171950688Y-74270642D01*
X171760973Y-74080596D01*
X171512972Y-73977616D01*
X171244440Y-73977382D01*
X170996260Y-74079928D01*
X170806214Y-74269643D01*
X170703234Y-74517644D01*
X170703101Y-74669905D01*
X170118005Y-75255001D01*
X167407346Y-75255001D01*
X167407346Y-74800000D01*
X167381198Y-74661034D01*
X167299069Y-74533401D01*
X167173754Y-74447777D01*
X167025000Y-74417654D01*
X166304077Y-74417654D01*
X165105836Y-73219413D01*
X165105968Y-73068360D01*
X165003422Y-72820180D01*
X164813707Y-72630134D01*
X164565706Y-72527154D01*
X164297174Y-72526920D01*
X164048994Y-72629466D01*
X163858948Y-72819181D01*
X163814988Y-72925047D01*
X163626333Y-72924883D01*
X163378153Y-73027429D01*
X163188107Y-73217144D01*
X163085127Y-73465145D01*
X163084893Y-73733677D01*
X163187439Y-73981857D01*
X163311244Y-74105878D01*
X163330406Y-74202212D01*
X163431205Y-74353069D01*
X163735000Y-74656864D01*
X163735000Y-76377390D01*
X163583807Y-76226197D01*
X163432950Y-76125398D01*
X163255002Y-76090002D01*
X163129583Y-76090002D01*
X163022866Y-75983099D01*
X162774865Y-75880119D01*
X162506333Y-75879885D01*
X162258153Y-75982431D01*
X162210935Y-76029566D01*
X162179604Y-75872052D01*
X162086256Y-75732346D01*
X162725000Y-75732346D01*
X162863966Y-75706198D01*
X162991599Y-75624069D01*
X163077223Y-75498754D01*
X163107346Y-75350000D01*
X163107346Y-74550000D01*
X163081198Y-74411034D01*
X162999069Y-74283401D01*
X162873754Y-74197777D01*
X162725000Y-74167654D01*
X162022257Y-74167654D01*
X161932856Y-74078097D01*
X161684855Y-73975117D01*
X161416323Y-73974883D01*
X161168143Y-74077429D01*
X161077761Y-74167654D01*
X160375000Y-74167654D01*
X160315000Y-74178944D01*
X160315000Y-73889573D01*
X160421903Y-73782856D01*
X160524883Y-73534855D01*
X160525117Y-73266323D01*
X160422571Y-73018143D01*
X160237098Y-72832346D01*
X161100000Y-72832346D01*
X161238966Y-72806198D01*
X161366599Y-72724069D01*
X161452223Y-72598754D01*
X161482346Y-72450000D01*
X161482346Y-71950000D01*
X161456198Y-71811034D01*
X161418909Y-71753085D01*
X162720238Y-71753085D01*
X162898186Y-71717689D01*
X163049043Y-71616890D01*
X163754405Y-70911527D01*
X163905458Y-70911659D01*
X164153638Y-70809113D01*
X164343684Y-70619398D01*
X164446664Y-70371397D01*
X164446898Y-70102865D01*
X164366111Y-69907346D01*
X164475000Y-69907346D01*
X164604589Y-69882962D01*
X164725000Y-69907346D01*
X164975000Y-69907346D01*
X165104589Y-69882962D01*
X165225000Y-69907346D01*
X165475000Y-69907346D01*
X165604589Y-69882962D01*
X165725000Y-69907346D01*
X165975000Y-69907346D01*
X166104589Y-69882962D01*
X166225000Y-69907346D01*
X166475000Y-69907346D01*
X166604589Y-69882962D01*
X166725000Y-69907346D01*
X166975000Y-69907346D01*
X167104589Y-69882962D01*
X167225000Y-69907346D01*
X167475000Y-69907346D01*
X167604589Y-69882962D01*
X167628398Y-69887784D01*
X167590067Y-69980095D01*
X167589833Y-70248627D01*
X167692379Y-70496807D01*
X167882094Y-70686853D01*
X168130095Y-70789833D01*
X168282356Y-70789966D01*
X168560045Y-71067654D01*
X167550000Y-71067654D01*
X167411034Y-71093802D01*
X167283401Y-71175931D01*
X167197777Y-71301246D01*
X167167654Y-71450000D01*
X167167654Y-72450000D01*
X167193802Y-72588966D01*
X167275931Y-72716599D01*
X167401246Y-72802223D01*
X167550000Y-72832346D01*
X167950063Y-72832346D01*
X167975035Y-72869719D01*
X167974883Y-73043675D01*
X168077429Y-73291855D01*
X168267144Y-73481901D01*
X168515145Y-73584881D01*
X168783677Y-73585115D01*
X169031857Y-73482569D01*
X169221903Y-73292854D01*
X169324883Y-73044853D01*
X169325111Y-72782939D01*
X169416599Y-72724069D01*
X169502223Y-72598754D01*
X169532346Y-72450000D01*
X169532346Y-71450000D01*
X169512591Y-71345011D01*
X171100443Y-71345011D01*
X170978097Y-71467144D01*
X170875117Y-71715145D01*
X170874883Y-71983677D01*
X170977429Y-72231857D01*
X171167144Y-72421903D01*
X171415145Y-72524883D01*
X171683677Y-72525117D01*
X171931857Y-72422571D01*
X172039616Y-72315000D01*
X172680195Y-72315000D01*
X172702052Y-72329604D01*
X172731576Y-72335477D01*
X172880000Y-72365001D01*
X173057948Y-72329604D01*
X173208805Y-72228805D01*
X173578805Y-71858805D01*
X173679604Y-71707948D01*
X173715000Y-71530000D01*
X173715000Y-71507272D01*
X173766599Y-71474069D01*
X173852223Y-71348754D01*
X173882346Y-71200000D01*
X173882346Y-70494999D01*
X174117654Y-70494999D01*
X174117654Y-71200000D01*
X174143802Y-71338966D01*
X174225931Y-71466599D01*
X174351246Y-71552223D01*
X174500000Y-71582346D01*
X174774737Y-71582346D01*
X174801192Y-71608801D01*
X174801194Y-71608804D01*
X174952051Y-71709603D01*
X174979913Y-71715145D01*
X175129999Y-71745000D01*
X175130004Y-71744999D01*
X175530991Y-71744999D01*
X176935000Y-73149008D01*
X176935000Y-74400000D01*
X176970396Y-74577948D01*
X177071195Y-74728805D01*
X179121195Y-76778805D01*
X179217654Y-76843257D01*
X179217654Y-80100000D01*
X179243802Y-80238966D01*
X179325931Y-80366599D01*
X179451246Y-80452223D01*
X179600000Y-80482346D01*
X183381306Y-80482346D01*
X183675000Y-80776040D01*
X183675000Y-83000000D01*
X183704065Y-83154469D01*
X183795357Y-83296340D01*
X183934651Y-83391516D01*
X184100000Y-83425000D01*
X190050000Y-83425000D01*
X190204469Y-83395935D01*
X190346340Y-83304643D01*
X190441516Y-83165349D01*
X190475000Y-83000000D01*
X190475000Y-79400000D01*
X190443763Y-79240076D01*
X190350520Y-79099480D01*
X188625000Y-77373960D01*
X188625000Y-76150000D01*
X188595935Y-75995531D01*
X188504643Y-75853660D01*
X188365349Y-75758484D01*
X188200000Y-75725000D01*
X183636276Y-75725000D01*
X183600000Y-75717654D01*
X179600000Y-75717654D01*
X179461034Y-75743802D01*
X179424756Y-75767146D01*
X177865000Y-74207390D01*
X177865000Y-72956398D01*
X177829604Y-72778450D01*
X177728805Y-72627593D01*
X176052406Y-70951194D01*
X175901549Y-70850395D01*
X175723601Y-70814999D01*
X175382346Y-70814999D01*
X175382346Y-70494999D01*
X177437389Y-70494999D01*
X177517654Y-70575264D01*
X177517654Y-71200000D01*
X177543802Y-71338966D01*
X177625931Y-71466599D01*
X177751246Y-71552223D01*
X177900000Y-71582346D01*
X178400000Y-71582346D01*
X178538966Y-71556198D01*
X178666599Y-71474069D01*
X178673880Y-71463412D01*
X178675931Y-71466599D01*
X178801246Y-71552223D01*
X178950000Y-71582346D01*
X179450000Y-71582346D01*
X179588966Y-71556198D01*
X179716599Y-71474069D01*
X179802223Y-71348754D01*
X179832346Y-71200000D01*
X179832346Y-70351433D01*
X179898573Y-70417776D01*
X180067654Y-70487985D01*
X180067654Y-71200000D01*
X180093802Y-71338966D01*
X180175931Y-71466599D01*
X180301246Y-71552223D01*
X180450000Y-71582346D01*
X180950000Y-71582346D01*
X181088966Y-71556198D01*
X181216599Y-71474069D01*
X181244197Y-71433677D01*
X183924883Y-71433677D01*
X183975000Y-71554969D01*
X183975000Y-73200000D01*
X184006237Y-73359924D01*
X184024923Y-73388099D01*
X184024883Y-73433677D01*
X184127429Y-73681857D01*
X184317144Y-73871903D01*
X184565145Y-73974883D01*
X184573851Y-73974891D01*
X184649480Y-74050520D01*
X184784651Y-74141516D01*
X184950000Y-74175000D01*
X191573960Y-74175000D01*
X193575000Y-76176040D01*
X193575000Y-78000000D01*
X193604065Y-78154469D01*
X193695357Y-78296340D01*
X193834651Y-78391516D01*
X194000000Y-78425000D01*
X198000000Y-78425000D01*
X198154469Y-78395935D01*
X198296340Y-78304643D01*
X198391516Y-78165349D01*
X198425000Y-78000000D01*
X198425000Y-77737090D01*
X198516015Y-77774883D01*
X198668276Y-77775016D01*
X198762064Y-77868803D01*
X198762066Y-77868806D01*
X198879170Y-77947052D01*
X198912923Y-77969605D01*
X199090871Y-78005001D01*
X202079999Y-78005001D01*
X202257947Y-77969605D01*
X202408804Y-77868806D01*
X202408805Y-77868805D01*
X202678803Y-77598806D01*
X202678806Y-77598804D01*
X202722765Y-77554845D01*
X203176001Y-77645000D01*
X203223999Y-77645000D01*
X203692786Y-77551752D01*
X204090205Y-77286206D01*
X204355751Y-76888787D01*
X204448999Y-76420000D01*
X204355751Y-75951213D01*
X204090205Y-75553794D01*
X203692786Y-75288248D01*
X203223999Y-75195000D01*
X203176001Y-75195000D01*
X202707214Y-75288248D01*
X202309795Y-75553794D01*
X202044249Y-75951213D01*
X201951001Y-76420000D01*
X202044249Y-76888787D01*
X202056007Y-76906383D01*
X202021196Y-76941194D01*
X202021194Y-76941197D01*
X201887390Y-77075001D01*
X201691327Y-77075001D01*
X201815751Y-76888787D01*
X201908999Y-76420000D01*
X201815751Y-75951213D01*
X201550205Y-75553794D01*
X201152786Y-75288248D01*
X200683999Y-75195000D01*
X200636001Y-75195000D01*
X200167214Y-75288248D01*
X199769795Y-75553794D01*
X199504249Y-75951213D01*
X199411001Y-76420000D01*
X199504249Y-76888787D01*
X199628673Y-77075001D01*
X199325892Y-77075001D01*
X199325987Y-76966323D01*
X199223441Y-76718143D01*
X199033726Y-76528097D01*
X198785725Y-76425117D01*
X198517193Y-76424883D01*
X198425000Y-76462976D01*
X198425000Y-75883470D01*
X198645145Y-75974883D01*
X198913677Y-75975117D01*
X199161857Y-75872571D01*
X199351903Y-75682856D01*
X199454883Y-75434855D01*
X199455016Y-75282594D01*
X199902640Y-74834970D01*
X200167214Y-75011752D01*
X200636001Y-75105000D01*
X200683999Y-75105000D01*
X201152786Y-75011752D01*
X201550205Y-74746206D01*
X201815751Y-74348787D01*
X201908999Y-73880000D01*
X201951001Y-73880000D01*
X202044249Y-74348787D01*
X202309795Y-74746206D01*
X202707214Y-75011752D01*
X203176001Y-75105000D01*
X203223999Y-75105000D01*
X203692786Y-75011752D01*
X204090205Y-74746206D01*
X204355751Y-74348787D01*
X204448999Y-73880000D01*
X204355751Y-73411213D01*
X204090205Y-73013794D01*
X203692786Y-72748248D01*
X203223999Y-72655000D01*
X203176001Y-72655000D01*
X202707214Y-72748248D01*
X202309795Y-73013794D01*
X202044249Y-73411213D01*
X201951001Y-73880000D01*
X201908999Y-73880000D01*
X201815751Y-73411213D01*
X201550205Y-73013794D01*
X201152786Y-72748248D01*
X200683999Y-72655000D01*
X200636001Y-72655000D01*
X200167214Y-72748248D01*
X199769795Y-73013794D01*
X199504249Y-73411213D01*
X199411001Y-73880000D01*
X199432800Y-73989591D01*
X198925000Y-74497390D01*
X198925000Y-73500000D01*
X198906086Y-73374623D01*
X198825313Y-73226511D01*
X198693280Y-73121493D01*
X195204523Y-71340000D01*
X199411001Y-71340000D01*
X199504249Y-71808787D01*
X199769795Y-72206206D01*
X200167214Y-72471752D01*
X200636001Y-72565000D01*
X200683999Y-72565000D01*
X201152786Y-72471752D01*
X201550205Y-72206206D01*
X201815751Y-71808787D01*
X201908999Y-71340000D01*
X201951001Y-71340000D01*
X202044249Y-71808787D01*
X202309795Y-72206206D01*
X202707214Y-72471752D01*
X203176001Y-72565000D01*
X203223999Y-72565000D01*
X203692786Y-72471752D01*
X204090205Y-72206206D01*
X204355751Y-71808787D01*
X204448999Y-71340000D01*
X204355751Y-70871213D01*
X204090205Y-70473794D01*
X203692786Y-70208248D01*
X203223999Y-70115000D01*
X203176001Y-70115000D01*
X202707214Y-70208248D01*
X202309795Y-70473794D01*
X202044249Y-70871213D01*
X201951001Y-71340000D01*
X201908999Y-71340000D01*
X201815751Y-70871213D01*
X201550205Y-70473794D01*
X201152786Y-70208248D01*
X200683999Y-70115000D01*
X200636001Y-70115000D01*
X200167214Y-70208248D01*
X199769795Y-70473794D01*
X199504249Y-70871213D01*
X199411001Y-71340000D01*
X195204523Y-71340000D01*
X193993280Y-70721493D01*
X193800000Y-70675000D01*
X190945072Y-70675000D01*
X189032346Y-69196985D01*
X189032346Y-68800000D01*
X199411001Y-68800000D01*
X199504249Y-69268787D01*
X199769795Y-69666206D01*
X200167214Y-69931752D01*
X200636001Y-70025000D01*
X200683999Y-70025000D01*
X201152786Y-69931752D01*
X201550205Y-69666206D01*
X201815751Y-69268787D01*
X201908999Y-68800000D01*
X201951001Y-68800000D01*
X202044249Y-69268787D01*
X202309795Y-69666206D01*
X202707214Y-69931752D01*
X203176001Y-70025000D01*
X203223999Y-70025000D01*
X203692786Y-69931752D01*
X204090205Y-69666206D01*
X204355751Y-69268787D01*
X204448999Y-68800000D01*
X204355751Y-68331213D01*
X204090205Y-67933794D01*
X203692786Y-67668248D01*
X203223999Y-67575000D01*
X203176001Y-67575000D01*
X202707214Y-67668248D01*
X202309795Y-67933794D01*
X202044249Y-68331213D01*
X201951001Y-68800000D01*
X201908999Y-68800000D01*
X201815751Y-68331213D01*
X201550205Y-67933794D01*
X201152786Y-67668248D01*
X200683999Y-67575000D01*
X200636001Y-67575000D01*
X200167214Y-67668248D01*
X199769795Y-67933794D01*
X199504249Y-68331213D01*
X199411001Y-68800000D01*
X189032346Y-68800000D01*
X189032346Y-67000000D01*
X189006198Y-66861034D01*
X188924069Y-66733401D01*
X188798754Y-66647777D01*
X188650000Y-66617654D01*
X184650000Y-66617654D01*
X184511034Y-66643802D01*
X184383401Y-66725931D01*
X184297777Y-66851246D01*
X184267654Y-67000000D01*
X184267654Y-68999902D01*
X184245531Y-69004065D01*
X184103660Y-69095357D01*
X184008484Y-69234651D01*
X183975000Y-69400000D01*
X183975000Y-71045015D01*
X183925117Y-71165145D01*
X183924883Y-71433677D01*
X181244197Y-71433677D01*
X181302223Y-71348754D01*
X181332346Y-71200000D01*
X181332346Y-70300000D01*
X181306198Y-70161034D01*
X181224069Y-70033401D01*
X181098754Y-69947777D01*
X181026264Y-69933098D01*
X180956414Y-69863248D01*
X180956546Y-69712196D01*
X180854000Y-69464016D01*
X180664285Y-69273970D01*
X180416284Y-69170990D01*
X180356730Y-69170938D01*
X180356945Y-68924475D01*
X180254399Y-68676295D01*
X180064684Y-68486249D01*
X179816683Y-68383269D01*
X179548151Y-68383035D01*
X179299971Y-68485581D01*
X179192212Y-68593152D01*
X178900762Y-68593152D01*
X178324985Y-68017375D01*
X178325117Y-67866323D01*
X178222571Y-67618143D01*
X178032856Y-67428097D01*
X177784855Y-67325117D01*
X177516323Y-67324883D01*
X177268143Y-67427429D01*
X177078097Y-67617144D01*
X176975117Y-67865145D01*
X176974883Y-68133677D01*
X177077429Y-68381857D01*
X177267144Y-68571903D01*
X177515145Y-68674883D01*
X177667406Y-68675016D01*
X178379347Y-69386957D01*
X178530204Y-69487756D01*
X178708152Y-69523153D01*
X178708157Y-69523152D01*
X179192255Y-69523152D01*
X179298972Y-69630055D01*
X179546973Y-69733035D01*
X179606527Y-69733087D01*
X179606335Y-69952957D01*
X179598754Y-69947777D01*
X179450000Y-69917654D01*
X178950000Y-69917654D01*
X178811034Y-69943802D01*
X178683401Y-70025931D01*
X178676120Y-70036588D01*
X178674069Y-70033401D01*
X178548754Y-69947777D01*
X178400000Y-69917654D01*
X178175264Y-69917654D01*
X177958804Y-69701194D01*
X177807947Y-69600395D01*
X177629999Y-69564999D01*
X175349246Y-69564999D01*
X175357346Y-69525000D01*
X175357346Y-68867668D01*
X175538699Y-69049337D01*
X175786700Y-69152317D01*
X176055232Y-69152551D01*
X176303412Y-69050005D01*
X176493458Y-68860290D01*
X176596438Y-68612289D01*
X176596672Y-68343757D01*
X176494126Y-68095577D01*
X176304411Y-67905531D01*
X176056410Y-67802551D01*
X175787878Y-67802317D01*
X175539698Y-67904863D01*
X175349652Y-68094578D01*
X175331585Y-68138089D01*
X175331198Y-68136034D01*
X175315000Y-68110861D01*
X175315000Y-67279011D01*
X175315001Y-67279006D01*
X175281420Y-67110188D01*
X175279604Y-67101058D01*
X175178805Y-66950201D01*
X175178802Y-66950199D01*
X174419571Y-66190968D01*
X174604954Y-66005908D01*
X174611288Y-65990655D01*
X174669353Y-65951857D01*
X175276210Y-65344999D01*
X179370001Y-65344999D01*
X179547949Y-65309603D01*
X179698806Y-65208804D01*
X179698807Y-65208803D01*
X179767654Y-65139955D01*
X179767654Y-65250000D01*
X179793802Y-65388966D01*
X179875931Y-65516599D01*
X180001246Y-65602223D01*
X180150000Y-65632346D01*
X181250000Y-65632346D01*
X181388966Y-65606198D01*
X181516599Y-65524069D01*
X181602223Y-65398754D01*
X181632346Y-65250000D01*
X181632346Y-65165000D01*
X181770476Y-65165000D01*
X181793802Y-65288966D01*
X181848295Y-65373651D01*
X181718143Y-65427429D01*
X181528097Y-65617144D01*
X181425117Y-65865145D01*
X181424883Y-66133677D01*
X181527429Y-66381857D01*
X181717144Y-66571903D01*
X181965145Y-66674883D01*
X182233677Y-66675117D01*
X182475289Y-66575285D01*
X182715145Y-66674883D01*
X182983677Y-66675117D01*
X183225289Y-66575285D01*
X183465145Y-66674883D01*
X183733677Y-66675117D01*
X183981857Y-66572571D01*
X184171903Y-66382856D01*
X184274883Y-66134855D01*
X184275016Y-65982594D01*
X184642610Y-65615000D01*
X186802377Y-65615000D01*
X187020013Y-65832636D01*
X187019881Y-65983688D01*
X187122427Y-66231868D01*
X187312142Y-66421914D01*
X187560143Y-66524894D01*
X187828675Y-66525128D01*
X188076855Y-66422582D01*
X188266901Y-66232867D01*
X188369881Y-65984866D01*
X188370115Y-65716334D01*
X188267569Y-65468154D01*
X188077854Y-65278108D01*
X188022180Y-65254990D01*
X188065748Y-65254990D01*
X188243696Y-65219594D01*
X188394553Y-65118795D01*
X188528447Y-64984901D01*
X188745147Y-65074883D01*
X189013679Y-65075117D01*
X189261859Y-64972571D01*
X189451905Y-64782856D01*
X189554885Y-64534855D01*
X189555119Y-64266323D01*
X189452573Y-64018143D01*
X189262858Y-63828097D01*
X189014857Y-63725117D01*
X188746325Y-63724883D01*
X188498145Y-63827429D01*
X188374124Y-63951234D01*
X188277790Y-63970396D01*
X188126933Y-64071195D01*
X187873138Y-64324990D01*
X184532600Y-64324990D01*
X184485001Y-64277391D01*
X184485001Y-63934004D01*
X184485002Y-63933999D01*
X184452758Y-63771903D01*
X184449605Y-63756051D01*
X184348806Y-63605194D01*
X184348803Y-63605192D01*
X184294806Y-63551194D01*
X184143949Y-63450395D01*
X183966001Y-63414999D01*
X179933999Y-63414999D01*
X179756051Y-63450395D01*
X179605194Y-63551194D01*
X179605192Y-63551197D01*
X179532376Y-63624013D01*
X179474069Y-63533401D01*
X179348754Y-63447777D01*
X179215383Y-63420769D01*
X179128805Y-63291195D01*
X179128802Y-63291193D01*
X179038804Y-63201194D01*
X178887947Y-63100395D01*
X178709999Y-63064999D01*
X178059058Y-63064999D01*
X178082346Y-62950000D01*
X178082346Y-61250000D01*
X178076703Y-61220011D01*
X179224120Y-61220011D01*
X179327907Y-61199366D01*
X179317654Y-61250000D01*
X179317654Y-62950000D01*
X179343802Y-63088966D01*
X179425931Y-63216599D01*
X179551246Y-63302223D01*
X179700000Y-63332346D01*
X180600000Y-63332346D01*
X180738966Y-63306198D01*
X180866599Y-63224069D01*
X180952223Y-63098754D01*
X180982346Y-62950000D01*
X180982346Y-61415000D01*
X183507390Y-61415000D01*
X183671195Y-61578805D01*
X183822052Y-61679604D01*
X184000000Y-61715000D01*
X185150000Y-61715000D01*
X185327948Y-61679604D01*
X185478805Y-61578805D01*
X185642610Y-61415000D01*
X186236002Y-61415000D01*
X186413950Y-61379604D01*
X186564807Y-61278805D01*
X186564808Y-61278804D01*
X186663611Y-61180000D01*
X199411001Y-61180000D01*
X199504249Y-61648787D01*
X199769795Y-62046206D01*
X200167214Y-62311752D01*
X200636001Y-62405000D01*
X200683999Y-62405000D01*
X201152786Y-62311752D01*
X201550205Y-62046206D01*
X201815751Y-61648787D01*
X201908999Y-61180000D01*
X201951001Y-61180000D01*
X202044249Y-61648787D01*
X202309795Y-62046206D01*
X202707214Y-62311752D01*
X203176001Y-62405000D01*
X203223999Y-62405000D01*
X203692786Y-62311752D01*
X204090205Y-62046206D01*
X204355751Y-61648787D01*
X204448999Y-61180000D01*
X204355751Y-60711213D01*
X204090205Y-60313794D01*
X203692786Y-60048248D01*
X203223999Y-59955000D01*
X203176001Y-59955000D01*
X202707214Y-60048248D01*
X202309795Y-60313794D01*
X202044249Y-60711213D01*
X201951001Y-61180000D01*
X201908999Y-61180000D01*
X201815751Y-60711213D01*
X201550205Y-60313794D01*
X201152786Y-60048248D01*
X200683999Y-59955000D01*
X200636001Y-59955000D01*
X200167214Y-60048248D01*
X199769795Y-60313794D01*
X199504249Y-60711213D01*
X199411001Y-61180000D01*
X186663611Y-61180000D01*
X187528803Y-60314808D01*
X187528806Y-60314806D01*
X187629605Y-60163949D01*
X187648492Y-60068995D01*
X187881857Y-59972571D01*
X188071903Y-59782856D01*
X188174883Y-59534855D01*
X188175117Y-59266323D01*
X188151606Y-59209423D01*
X188227223Y-59098754D01*
X188257346Y-58950000D01*
X188257346Y-58425264D01*
X188417610Y-58265000D01*
X193360427Y-58265000D01*
X193467144Y-58371903D01*
X193715145Y-58474883D01*
X193983677Y-58475117D01*
X194231857Y-58372571D01*
X194421903Y-58182856D01*
X194524883Y-57934855D01*
X194525009Y-57790000D01*
X199427654Y-57790000D01*
X199427654Y-59490000D01*
X199453802Y-59628966D01*
X199535931Y-59756599D01*
X199661246Y-59842223D01*
X199810000Y-59872346D01*
X201510000Y-59872346D01*
X201648966Y-59846198D01*
X201776599Y-59764069D01*
X201862223Y-59638754D01*
X201892346Y-59490000D01*
X201892346Y-58640000D01*
X201951001Y-58640000D01*
X202044249Y-59108787D01*
X202309795Y-59506206D01*
X202707214Y-59771752D01*
X203176001Y-59865000D01*
X203223999Y-59865000D01*
X203692786Y-59771752D01*
X204090205Y-59506206D01*
X204355751Y-59108787D01*
X204448999Y-58640000D01*
X204355751Y-58171213D01*
X204090205Y-57773794D01*
X203692786Y-57508248D01*
X203223999Y-57415000D01*
X203176001Y-57415000D01*
X202707214Y-57508248D01*
X202309795Y-57773794D01*
X202044249Y-58171213D01*
X201951001Y-58640000D01*
X201892346Y-58640000D01*
X201892346Y-57790000D01*
X201866198Y-57651034D01*
X201784069Y-57523401D01*
X201658754Y-57437777D01*
X201510000Y-57407654D01*
X199810000Y-57407654D01*
X199671034Y-57433802D01*
X199543401Y-57515931D01*
X199457777Y-57641246D01*
X199427654Y-57790000D01*
X194525009Y-57790000D01*
X194525117Y-57666323D01*
X194422571Y-57418143D01*
X194232856Y-57228097D01*
X193984855Y-57125117D01*
X193716323Y-57124883D01*
X193468143Y-57227429D01*
X193360384Y-57335000D01*
X190957346Y-57335000D01*
X190957346Y-56650000D01*
X190931198Y-56511034D01*
X190849069Y-56383401D01*
X190723754Y-56297777D01*
X190575000Y-56267654D01*
X190225264Y-56267654D01*
X190224985Y-56267375D01*
X190225117Y-56116323D01*
X190122571Y-55868143D01*
X189932856Y-55678097D01*
X189684855Y-55575117D01*
X189416323Y-55574883D01*
X189168143Y-55677429D01*
X188978097Y-55867144D01*
X188875117Y-56115145D01*
X188874984Y-56267654D01*
X188750264Y-56267654D01*
X188423805Y-55941195D01*
X188272948Y-55840396D01*
X188095000Y-55805000D01*
X186630005Y-55805000D01*
X186630000Y-55804999D01*
X186481576Y-55834523D01*
X186452052Y-55840396D01*
X186301195Y-55941195D01*
X186301193Y-55941198D01*
X186174737Y-56067654D01*
X185989732Y-56067654D01*
X185989934Y-55836321D01*
X185887388Y-55588141D01*
X185697673Y-55398095D01*
X185449672Y-55295115D01*
X185181140Y-55294881D01*
X184932960Y-55397427D01*
X184892299Y-55438018D01*
X184670192Y-55345790D01*
X184401660Y-55345556D01*
X184153480Y-55448102D01*
X184136249Y-55465303D01*
X184053553Y-55341540D01*
X183837013Y-55125000D01*
X190000000Y-55125000D01*
X190045432Y-55116451D01*
X190087159Y-55089601D01*
X190115152Y-55048632D01*
X190125000Y-55000000D01*
X190125000Y-50500000D01*
X190116451Y-50454568D01*
X190113512Y-50450000D01*
X190377125Y-50450000D01*
X190367000Y-50500000D01*
X190367000Y-50500000D01*
G37*
X190367000Y-50500000D02*
X190367000Y-55000000D01*
X190410290Y-55230069D01*
X190546261Y-55441372D01*
X190753728Y-55583129D01*
X191000000Y-55633000D01*
X198000000Y-55633000D01*
X198230069Y-55589710D01*
X198441372Y-55453739D01*
X198574817Y-55258437D01*
X198637146Y-55409286D01*
X199585720Y-56359517D01*
X200825726Y-56874413D01*
X202168384Y-56875584D01*
X203409286Y-56362854D01*
X204359517Y-55414280D01*
X204550000Y-54955546D01*
X204550000Y-80043642D01*
X204362854Y-79590714D01*
X203414280Y-78640483D01*
X202174274Y-78125587D01*
X200831616Y-78124416D01*
X199590714Y-78637146D01*
X198640483Y-79585720D01*
X198125587Y-80825726D01*
X198124416Y-82168384D01*
X198637146Y-83409286D01*
X199585720Y-84359517D01*
X200044454Y-84550000D01*
X165384520Y-84550000D01*
X165521903Y-84412856D01*
X165624883Y-84164855D01*
X165625117Y-83896323D01*
X165522571Y-83648143D01*
X165332856Y-83458097D01*
X165096652Y-83360016D01*
X165096685Y-83322596D01*
X164994139Y-83074416D01*
X164804424Y-82884370D01*
X164556423Y-82781390D01*
X164535021Y-82781371D01*
X164535046Y-82752596D01*
X164432500Y-82504416D01*
X164242785Y-82314370D01*
X164064591Y-82240377D01*
X164064688Y-82128799D01*
X164056593Y-82109208D01*
X164056799Y-82109123D01*
X164246845Y-81919408D01*
X164349825Y-81671407D01*
X164349958Y-81518577D01*
X164365145Y-81524883D01*
X164633677Y-81525117D01*
X164881857Y-81422571D01*
X165071903Y-81232856D01*
X165096356Y-81173966D01*
X165307691Y-81385301D01*
X165283401Y-81400931D01*
X165197777Y-81526246D01*
X165167654Y-81675000D01*
X165167654Y-82325000D01*
X165193802Y-82463966D01*
X165275931Y-82591599D01*
X165401246Y-82677223D01*
X165550000Y-82707346D01*
X166600000Y-82707346D01*
X166738966Y-82681198D01*
X166866599Y-82599069D01*
X166952223Y-82473754D01*
X166982346Y-82325000D01*
X166982346Y-82063583D01*
X167075000Y-82082346D01*
X167825000Y-82082346D01*
X167963966Y-82056198D01*
X168091599Y-81974069D01*
X168124630Y-81925726D01*
X168150931Y-81966599D01*
X168276246Y-82052223D01*
X168425000Y-82082346D01*
X168874928Y-82082346D01*
X168874883Y-82133677D01*
X168977429Y-82381857D01*
X169167144Y-82571903D01*
X169415145Y-82674883D01*
X169683677Y-82675117D01*
X169931857Y-82572571D01*
X170121903Y-82382856D01*
X170224883Y-82134855D01*
X170225117Y-81866323D01*
X170122571Y-81618143D01*
X169932856Y-81428097D01*
X169684855Y-81325117D01*
X169557346Y-81325006D01*
X169557346Y-80900000D01*
X169531198Y-80761034D01*
X169449069Y-80633401D01*
X169323754Y-80547777D01*
X169175000Y-80517654D01*
X168425000Y-80517654D01*
X168286034Y-80543802D01*
X168158401Y-80625931D01*
X168125370Y-80674274D01*
X168099069Y-80633401D01*
X167973754Y-80547777D01*
X167825000Y-80517654D01*
X167075000Y-80517654D01*
X166974959Y-80536478D01*
X166982346Y-80500000D01*
X166982346Y-79850000D01*
X166956198Y-79711034D01*
X166874069Y-79583401D01*
X166774900Y-79515642D01*
X166775117Y-79266323D01*
X166672571Y-79018143D01*
X166482856Y-78828097D01*
X166252264Y-78732346D01*
X166600000Y-78732346D01*
X166738966Y-78706198D01*
X166866599Y-78624069D01*
X166952223Y-78498754D01*
X166982346Y-78350000D01*
X166982346Y-77700000D01*
X166956198Y-77561034D01*
X166874069Y-77433401D01*
X166748754Y-77347777D01*
X166734303Y-77344851D01*
X166766599Y-77324069D01*
X166852223Y-77198754D01*
X166882346Y-77050000D01*
X166882346Y-76171780D01*
X166948815Y-76185001D01*
X169217654Y-76185001D01*
X169217654Y-80100000D01*
X169243802Y-80238966D01*
X169325931Y-80366599D01*
X169451246Y-80452223D01*
X169600000Y-80482346D01*
X172776507Y-80482346D01*
X172965152Y-80608395D01*
X173300000Y-80675000D01*
X176500000Y-80675000D01*
X176834848Y-80608395D01*
X177118718Y-80418718D01*
X177308395Y-80134848D01*
X177375000Y-79800000D01*
X177375000Y-77400000D01*
X177308395Y-77065152D01*
X177118718Y-76781282D01*
X176834848Y-76591605D01*
X176500000Y-76525000D01*
X173984827Y-76525000D01*
X173982346Y-76523342D01*
X173982346Y-76100000D01*
X173956198Y-75961034D01*
X173874069Y-75833401D01*
X173748754Y-75747777D01*
X173600000Y-75717654D01*
X172398977Y-75717654D01*
X172447832Y-75600001D01*
X174242895Y-75600001D01*
X174448093Y-75805199D01*
X174448017Y-75891887D01*
X174550563Y-76140067D01*
X174740278Y-76330113D01*
X174988279Y-76433093D01*
X175256811Y-76433327D01*
X175504991Y-76330781D01*
X175695037Y-76141066D01*
X175798017Y-75893065D01*
X175798251Y-75624533D01*
X175695705Y-75376353D01*
X175505990Y-75186307D01*
X175257989Y-75083327D01*
X175140330Y-75083224D01*
X174803554Y-74746448D01*
X174641343Y-74638061D01*
X174450001Y-74600001D01*
X172099999Y-74600001D01*
X172053155Y-74609319D01*
X172053234Y-74518822D01*
X171950688Y-74270642D01*
X171760973Y-74080596D01*
X171512972Y-73977616D01*
X171244440Y-73977382D01*
X170996260Y-74079928D01*
X170806214Y-74269643D01*
X170703234Y-74517644D01*
X170703101Y-74669905D01*
X170118005Y-75255001D01*
X167407346Y-75255001D01*
X167407346Y-74800000D01*
X167381198Y-74661034D01*
X167299069Y-74533401D01*
X167173754Y-74447777D01*
X167025000Y-74417654D01*
X166304077Y-74417654D01*
X165105836Y-73219413D01*
X165105968Y-73068360D01*
X165003422Y-72820180D01*
X164813707Y-72630134D01*
X164565706Y-72527154D01*
X164297174Y-72526920D01*
X164048994Y-72629466D01*
X163858948Y-72819181D01*
X163814988Y-72925047D01*
X163626333Y-72924883D01*
X163378153Y-73027429D01*
X163188107Y-73217144D01*
X163085127Y-73465145D01*
X163084893Y-73733677D01*
X163187439Y-73981857D01*
X163311244Y-74105878D01*
X163330406Y-74202212D01*
X163431205Y-74353069D01*
X163735000Y-74656864D01*
X163735000Y-76377390D01*
X163583807Y-76226197D01*
X163432950Y-76125398D01*
X163255002Y-76090002D01*
X163129583Y-76090002D01*
X163022866Y-75983099D01*
X162774865Y-75880119D01*
X162506333Y-75879885D01*
X162258153Y-75982431D01*
X162210935Y-76029566D01*
X162179604Y-75872052D01*
X162086256Y-75732346D01*
X162725000Y-75732346D01*
X162863966Y-75706198D01*
X162991599Y-75624069D01*
X163077223Y-75498754D01*
X163107346Y-75350000D01*
X163107346Y-74550000D01*
X163081198Y-74411034D01*
X162999069Y-74283401D01*
X162873754Y-74197777D01*
X162725000Y-74167654D01*
X162022257Y-74167654D01*
X161932856Y-74078097D01*
X161684855Y-73975117D01*
X161416323Y-73974883D01*
X161168143Y-74077429D01*
X161077761Y-74167654D01*
X160375000Y-74167654D01*
X160315000Y-74178944D01*
X160315000Y-73889573D01*
X160421903Y-73782856D01*
X160524883Y-73534855D01*
X160525117Y-73266323D01*
X160422571Y-73018143D01*
X160237098Y-72832346D01*
X161100000Y-72832346D01*
X161238966Y-72806198D01*
X161366599Y-72724069D01*
X161452223Y-72598754D01*
X161482346Y-72450000D01*
X161482346Y-71950000D01*
X161456198Y-71811034D01*
X161418909Y-71753085D01*
X162720238Y-71753085D01*
X162898186Y-71717689D01*
X163049043Y-71616890D01*
X163754405Y-70911527D01*
X163905458Y-70911659D01*
X164153638Y-70809113D01*
X164343684Y-70619398D01*
X164446664Y-70371397D01*
X164446898Y-70102865D01*
X164366111Y-69907346D01*
X164475000Y-69907346D01*
X164604589Y-69882962D01*
X164725000Y-69907346D01*
X164975000Y-69907346D01*
X165104589Y-69882962D01*
X165225000Y-69907346D01*
X165475000Y-69907346D01*
X165604589Y-69882962D01*
X165725000Y-69907346D01*
X165975000Y-69907346D01*
X166104589Y-69882962D01*
X166225000Y-69907346D01*
X166475000Y-69907346D01*
X166604589Y-69882962D01*
X166725000Y-69907346D01*
X166975000Y-69907346D01*
X167104589Y-69882962D01*
X167225000Y-69907346D01*
X167475000Y-69907346D01*
X167604589Y-69882962D01*
X167628398Y-69887784D01*
X167590067Y-69980095D01*
X167589833Y-70248627D01*
X167692379Y-70496807D01*
X167882094Y-70686853D01*
X168130095Y-70789833D01*
X168282356Y-70789966D01*
X168560045Y-71067654D01*
X167550000Y-71067654D01*
X167411034Y-71093802D01*
X167283401Y-71175931D01*
X167197777Y-71301246D01*
X167167654Y-71450000D01*
X167167654Y-72450000D01*
X167193802Y-72588966D01*
X167275931Y-72716599D01*
X167401246Y-72802223D01*
X167550000Y-72832346D01*
X167950063Y-72832346D01*
X167975035Y-72869719D01*
X167974883Y-73043675D01*
X168077429Y-73291855D01*
X168267144Y-73481901D01*
X168515145Y-73584881D01*
X168783677Y-73585115D01*
X169031857Y-73482569D01*
X169221903Y-73292854D01*
X169324883Y-73044853D01*
X169325111Y-72782939D01*
X169416599Y-72724069D01*
X169502223Y-72598754D01*
X169532346Y-72450000D01*
X169532346Y-71450000D01*
X169512591Y-71345011D01*
X171100443Y-71345011D01*
X170978097Y-71467144D01*
X170875117Y-71715145D01*
X170874883Y-71983677D01*
X170977429Y-72231857D01*
X171167144Y-72421903D01*
X171415145Y-72524883D01*
X171683677Y-72525117D01*
X171931857Y-72422571D01*
X172039616Y-72315000D01*
X172680195Y-72315000D01*
X172702052Y-72329604D01*
X172731576Y-72335477D01*
X172880000Y-72365001D01*
X173057948Y-72329604D01*
X173208805Y-72228805D01*
X173578805Y-71858805D01*
X173679604Y-71707948D01*
X173715000Y-71530000D01*
X173715000Y-71507272D01*
X173766599Y-71474069D01*
X173852223Y-71348754D01*
X173882346Y-71200000D01*
X173882346Y-70494999D01*
X174117654Y-70494999D01*
X174117654Y-71200000D01*
X174143802Y-71338966D01*
X174225931Y-71466599D01*
X174351246Y-71552223D01*
X174500000Y-71582346D01*
X174774737Y-71582346D01*
X174801192Y-71608801D01*
X174801194Y-71608804D01*
X174952051Y-71709603D01*
X174979913Y-71715145D01*
X175129999Y-71745000D01*
X175130004Y-71744999D01*
X175530991Y-71744999D01*
X176935000Y-73149008D01*
X176935000Y-74400000D01*
X176970396Y-74577948D01*
X177071195Y-74728805D01*
X179121195Y-76778805D01*
X179217654Y-76843257D01*
X179217654Y-80100000D01*
X179243802Y-80238966D01*
X179325931Y-80366599D01*
X179451246Y-80452223D01*
X179600000Y-80482346D01*
X183381306Y-80482346D01*
X183675000Y-80776040D01*
X183675000Y-83000000D01*
X183704065Y-83154469D01*
X183795357Y-83296340D01*
X183934651Y-83391516D01*
X184100000Y-83425000D01*
X190050000Y-83425000D01*
X190204469Y-83395935D01*
X190346340Y-83304643D01*
X190441516Y-83165349D01*
X190475000Y-83000000D01*
X190475000Y-79400000D01*
X190443763Y-79240076D01*
X190350520Y-79099480D01*
X188625000Y-77373960D01*
X188625000Y-76150000D01*
X188595935Y-75995531D01*
X188504643Y-75853660D01*
X188365349Y-75758484D01*
X188200000Y-75725000D01*
X183636276Y-75725000D01*
X183600000Y-75717654D01*
X179600000Y-75717654D01*
X179461034Y-75743802D01*
X179424756Y-75767146D01*
X177865000Y-74207390D01*
X177865000Y-72956398D01*
X177829604Y-72778450D01*
X177728805Y-72627593D01*
X176052406Y-70951194D01*
X175901549Y-70850395D01*
X175723601Y-70814999D01*
X175382346Y-70814999D01*
X175382346Y-70494999D01*
X177437389Y-70494999D01*
X177517654Y-70575264D01*
X177517654Y-71200000D01*
X177543802Y-71338966D01*
X177625931Y-71466599D01*
X177751246Y-71552223D01*
X177900000Y-71582346D01*
X178400000Y-71582346D01*
X178538966Y-71556198D01*
X178666599Y-71474069D01*
X178673880Y-71463412D01*
X178675931Y-71466599D01*
X178801246Y-71552223D01*
X178950000Y-71582346D01*
X179450000Y-71582346D01*
X179588966Y-71556198D01*
X179716599Y-71474069D01*
X179802223Y-71348754D01*
X179832346Y-71200000D01*
X179832346Y-70351433D01*
X179898573Y-70417776D01*
X180067654Y-70487985D01*
X180067654Y-71200000D01*
X180093802Y-71338966D01*
X180175931Y-71466599D01*
X180301246Y-71552223D01*
X180450000Y-71582346D01*
X180950000Y-71582346D01*
X181088966Y-71556198D01*
X181216599Y-71474069D01*
X181244197Y-71433677D01*
X183924883Y-71433677D01*
X183975000Y-71554969D01*
X183975000Y-73200000D01*
X184006237Y-73359924D01*
X184024923Y-73388099D01*
X184024883Y-73433677D01*
X184127429Y-73681857D01*
X184317144Y-73871903D01*
X184565145Y-73974883D01*
X184573851Y-73974891D01*
X184649480Y-74050520D01*
X184784651Y-74141516D01*
X184950000Y-74175000D01*
X191573960Y-74175000D01*
X193575000Y-76176040D01*
X193575000Y-78000000D01*
X193604065Y-78154469D01*
X193695357Y-78296340D01*
X193834651Y-78391516D01*
X194000000Y-78425000D01*
X198000000Y-78425000D01*
X198154469Y-78395935D01*
X198296340Y-78304643D01*
X198391516Y-78165349D01*
X198425000Y-78000000D01*
X198425000Y-77737090D01*
X198516015Y-77774883D01*
X198668276Y-77775016D01*
X198762064Y-77868803D01*
X198762066Y-77868806D01*
X198879170Y-77947052D01*
X198912923Y-77969605D01*
X199090871Y-78005001D01*
X202079999Y-78005001D01*
X202257947Y-77969605D01*
X202408804Y-77868806D01*
X202408805Y-77868805D01*
X202678803Y-77598806D01*
X202678806Y-77598804D01*
X202722765Y-77554845D01*
X203176001Y-77645000D01*
X203223999Y-77645000D01*
X203692786Y-77551752D01*
X204090205Y-77286206D01*
X204355751Y-76888787D01*
X204448999Y-76420000D01*
X204355751Y-75951213D01*
X204090205Y-75553794D01*
X203692786Y-75288248D01*
X203223999Y-75195000D01*
X203176001Y-75195000D01*
X202707214Y-75288248D01*
X202309795Y-75553794D01*
X202044249Y-75951213D01*
X201951001Y-76420000D01*
X202044249Y-76888787D01*
X202056007Y-76906383D01*
X202021196Y-76941194D01*
X202021194Y-76941197D01*
X201887390Y-77075001D01*
X201691327Y-77075001D01*
X201815751Y-76888787D01*
X201908999Y-76420000D01*
X201815751Y-75951213D01*
X201550205Y-75553794D01*
X201152786Y-75288248D01*
X200683999Y-75195000D01*
X200636001Y-75195000D01*
X200167214Y-75288248D01*
X199769795Y-75553794D01*
X199504249Y-75951213D01*
X199411001Y-76420000D01*
X199504249Y-76888787D01*
X199628673Y-77075001D01*
X199325892Y-77075001D01*
X199325987Y-76966323D01*
X199223441Y-76718143D01*
X199033726Y-76528097D01*
X198785725Y-76425117D01*
X198517193Y-76424883D01*
X198425000Y-76462976D01*
X198425000Y-75883470D01*
X198645145Y-75974883D01*
X198913677Y-75975117D01*
X199161857Y-75872571D01*
X199351903Y-75682856D01*
X199454883Y-75434855D01*
X199455016Y-75282594D01*
X199902640Y-74834970D01*
X200167214Y-75011752D01*
X200636001Y-75105000D01*
X200683999Y-75105000D01*
X201152786Y-75011752D01*
X201550205Y-74746206D01*
X201815751Y-74348787D01*
X201908999Y-73880000D01*
X201951001Y-73880000D01*
X202044249Y-74348787D01*
X202309795Y-74746206D01*
X202707214Y-75011752D01*
X203176001Y-75105000D01*
X203223999Y-75105000D01*
X203692786Y-75011752D01*
X204090205Y-74746206D01*
X204355751Y-74348787D01*
X204448999Y-73880000D01*
X204355751Y-73411213D01*
X204090205Y-73013794D01*
X203692786Y-72748248D01*
X203223999Y-72655000D01*
X203176001Y-72655000D01*
X202707214Y-72748248D01*
X202309795Y-73013794D01*
X202044249Y-73411213D01*
X201951001Y-73880000D01*
X201908999Y-73880000D01*
X201815751Y-73411213D01*
X201550205Y-73013794D01*
X201152786Y-72748248D01*
X200683999Y-72655000D01*
X200636001Y-72655000D01*
X200167214Y-72748248D01*
X199769795Y-73013794D01*
X199504249Y-73411213D01*
X199411001Y-73880000D01*
X199432800Y-73989591D01*
X198925000Y-74497390D01*
X198925000Y-73500000D01*
X198906086Y-73374623D01*
X198825313Y-73226511D01*
X198693280Y-73121493D01*
X195204523Y-71340000D01*
X199411001Y-71340000D01*
X199504249Y-71808787D01*
X199769795Y-72206206D01*
X200167214Y-72471752D01*
X200636001Y-72565000D01*
X200683999Y-72565000D01*
X201152786Y-72471752D01*
X201550205Y-72206206D01*
X201815751Y-71808787D01*
X201908999Y-71340000D01*
X201951001Y-71340000D01*
X202044249Y-71808787D01*
X202309795Y-72206206D01*
X202707214Y-72471752D01*
X203176001Y-72565000D01*
X203223999Y-72565000D01*
X203692786Y-72471752D01*
X204090205Y-72206206D01*
X204355751Y-71808787D01*
X204448999Y-71340000D01*
X204355751Y-70871213D01*
X204090205Y-70473794D01*
X203692786Y-70208248D01*
X203223999Y-70115000D01*
X203176001Y-70115000D01*
X202707214Y-70208248D01*
X202309795Y-70473794D01*
X202044249Y-70871213D01*
X201951001Y-71340000D01*
X201908999Y-71340000D01*
X201815751Y-70871213D01*
X201550205Y-70473794D01*
X201152786Y-70208248D01*
X200683999Y-70115000D01*
X200636001Y-70115000D01*
X200167214Y-70208248D01*
X199769795Y-70473794D01*
X199504249Y-70871213D01*
X199411001Y-71340000D01*
X195204523Y-71340000D01*
X193993280Y-70721493D01*
X193800000Y-70675000D01*
X190945072Y-70675000D01*
X189032346Y-69196985D01*
X189032346Y-68800000D01*
X199411001Y-68800000D01*
X199504249Y-69268787D01*
X199769795Y-69666206D01*
X200167214Y-69931752D01*
X200636001Y-70025000D01*
X200683999Y-70025000D01*
X201152786Y-69931752D01*
X201550205Y-69666206D01*
X201815751Y-69268787D01*
X201908999Y-68800000D01*
X201951001Y-68800000D01*
X202044249Y-69268787D01*
X202309795Y-69666206D01*
X202707214Y-69931752D01*
X203176001Y-70025000D01*
X203223999Y-70025000D01*
X203692786Y-69931752D01*
X204090205Y-69666206D01*
X204355751Y-69268787D01*
X204448999Y-68800000D01*
X204355751Y-68331213D01*
X204090205Y-67933794D01*
X203692786Y-67668248D01*
X203223999Y-67575000D01*
X203176001Y-67575000D01*
X202707214Y-67668248D01*
X202309795Y-67933794D01*
X202044249Y-68331213D01*
X201951001Y-68800000D01*
X201908999Y-68800000D01*
X201815751Y-68331213D01*
X201550205Y-67933794D01*
X201152786Y-67668248D01*
X200683999Y-67575000D01*
X200636001Y-67575000D01*
X200167214Y-67668248D01*
X199769795Y-67933794D01*
X199504249Y-68331213D01*
X199411001Y-68800000D01*
X189032346Y-68800000D01*
X189032346Y-67000000D01*
X189006198Y-66861034D01*
X188924069Y-66733401D01*
X188798754Y-66647777D01*
X188650000Y-66617654D01*
X184650000Y-66617654D01*
X184511034Y-66643802D01*
X184383401Y-66725931D01*
X184297777Y-66851246D01*
X184267654Y-67000000D01*
X184267654Y-68999902D01*
X184245531Y-69004065D01*
X184103660Y-69095357D01*
X184008484Y-69234651D01*
X183975000Y-69400000D01*
X183975000Y-71045015D01*
X183925117Y-71165145D01*
X183924883Y-71433677D01*
X181244197Y-71433677D01*
X181302223Y-71348754D01*
X181332346Y-71200000D01*
X181332346Y-70300000D01*
X181306198Y-70161034D01*
X181224069Y-70033401D01*
X181098754Y-69947777D01*
X181026264Y-69933098D01*
X180956414Y-69863248D01*
X180956546Y-69712196D01*
X180854000Y-69464016D01*
X180664285Y-69273970D01*
X180416284Y-69170990D01*
X180356730Y-69170938D01*
X180356945Y-68924475D01*
X180254399Y-68676295D01*
X180064684Y-68486249D01*
X179816683Y-68383269D01*
X179548151Y-68383035D01*
X179299971Y-68485581D01*
X179192212Y-68593152D01*
X178900762Y-68593152D01*
X178324985Y-68017375D01*
X178325117Y-67866323D01*
X178222571Y-67618143D01*
X178032856Y-67428097D01*
X177784855Y-67325117D01*
X177516323Y-67324883D01*
X177268143Y-67427429D01*
X177078097Y-67617144D01*
X176975117Y-67865145D01*
X176974883Y-68133677D01*
X177077429Y-68381857D01*
X177267144Y-68571903D01*
X177515145Y-68674883D01*
X177667406Y-68675016D01*
X178379347Y-69386957D01*
X178530204Y-69487756D01*
X178708152Y-69523153D01*
X178708157Y-69523152D01*
X179192255Y-69523152D01*
X179298972Y-69630055D01*
X179546973Y-69733035D01*
X179606527Y-69733087D01*
X179606335Y-69952957D01*
X179598754Y-69947777D01*
X179450000Y-69917654D01*
X178950000Y-69917654D01*
X178811034Y-69943802D01*
X178683401Y-70025931D01*
X178676120Y-70036588D01*
X178674069Y-70033401D01*
X178548754Y-69947777D01*
X178400000Y-69917654D01*
X178175264Y-69917654D01*
X177958804Y-69701194D01*
X177807947Y-69600395D01*
X177629999Y-69564999D01*
X175349246Y-69564999D01*
X175357346Y-69525000D01*
X175357346Y-68867668D01*
X175538699Y-69049337D01*
X175786700Y-69152317D01*
X176055232Y-69152551D01*
X176303412Y-69050005D01*
X176493458Y-68860290D01*
X176596438Y-68612289D01*
X176596672Y-68343757D01*
X176494126Y-68095577D01*
X176304411Y-67905531D01*
X176056410Y-67802551D01*
X175787878Y-67802317D01*
X175539698Y-67904863D01*
X175349652Y-68094578D01*
X175331585Y-68138089D01*
X175331198Y-68136034D01*
X175315000Y-68110861D01*
X175315000Y-67279011D01*
X175315001Y-67279006D01*
X175281420Y-67110188D01*
X175279604Y-67101058D01*
X175178805Y-66950201D01*
X175178802Y-66950199D01*
X174419571Y-66190968D01*
X174604954Y-66005908D01*
X174611288Y-65990655D01*
X174669353Y-65951857D01*
X175276210Y-65344999D01*
X179370001Y-65344999D01*
X179547949Y-65309603D01*
X179698806Y-65208804D01*
X179698807Y-65208803D01*
X179767654Y-65139955D01*
X179767654Y-65250000D01*
X179793802Y-65388966D01*
X179875931Y-65516599D01*
X180001246Y-65602223D01*
X180150000Y-65632346D01*
X181250000Y-65632346D01*
X181388966Y-65606198D01*
X181516599Y-65524069D01*
X181602223Y-65398754D01*
X181632346Y-65250000D01*
X181632346Y-65165000D01*
X181770476Y-65165000D01*
X181793802Y-65288966D01*
X181848295Y-65373651D01*
X181718143Y-65427429D01*
X181528097Y-65617144D01*
X181425117Y-65865145D01*
X181424883Y-66133677D01*
X181527429Y-66381857D01*
X181717144Y-66571903D01*
X181965145Y-66674883D01*
X182233677Y-66675117D01*
X182475289Y-66575285D01*
X182715145Y-66674883D01*
X182983677Y-66675117D01*
X183225289Y-66575285D01*
X183465145Y-66674883D01*
X183733677Y-66675117D01*
X183981857Y-66572571D01*
X184171903Y-66382856D01*
X184274883Y-66134855D01*
X184275016Y-65982594D01*
X184642610Y-65615000D01*
X186802377Y-65615000D01*
X187020013Y-65832636D01*
X187019881Y-65983688D01*
X187122427Y-66231868D01*
X187312142Y-66421914D01*
X187560143Y-66524894D01*
X187828675Y-66525128D01*
X188076855Y-66422582D01*
X188266901Y-66232867D01*
X188369881Y-65984866D01*
X188370115Y-65716334D01*
X188267569Y-65468154D01*
X188077854Y-65278108D01*
X188022180Y-65254990D01*
X188065748Y-65254990D01*
X188243696Y-65219594D01*
X188394553Y-65118795D01*
X188528447Y-64984901D01*
X188745147Y-65074883D01*
X189013679Y-65075117D01*
X189261859Y-64972571D01*
X189451905Y-64782856D01*
X189554885Y-64534855D01*
X189555119Y-64266323D01*
X189452573Y-64018143D01*
X189262858Y-63828097D01*
X189014857Y-63725117D01*
X188746325Y-63724883D01*
X188498145Y-63827429D01*
X188374124Y-63951234D01*
X188277790Y-63970396D01*
X188126933Y-64071195D01*
X187873138Y-64324990D01*
X184532600Y-64324990D01*
X184485001Y-64277391D01*
X184485001Y-63934004D01*
X184485002Y-63933999D01*
X184452758Y-63771903D01*
X184449605Y-63756051D01*
X184348806Y-63605194D01*
X184348803Y-63605192D01*
X184294806Y-63551194D01*
X184143949Y-63450395D01*
X183966001Y-63414999D01*
X179933999Y-63414999D01*
X179756051Y-63450395D01*
X179605194Y-63551194D01*
X179605192Y-63551197D01*
X179532376Y-63624013D01*
X179474069Y-63533401D01*
X179348754Y-63447777D01*
X179215383Y-63420769D01*
X179128805Y-63291195D01*
X179128802Y-63291193D01*
X179038804Y-63201194D01*
X178887947Y-63100395D01*
X178709999Y-63064999D01*
X178059058Y-63064999D01*
X178082346Y-62950000D01*
X178082346Y-61250000D01*
X178076703Y-61220011D01*
X179224120Y-61220011D01*
X179327907Y-61199366D01*
X179317654Y-61250000D01*
X179317654Y-62950000D01*
X179343802Y-63088966D01*
X179425931Y-63216599D01*
X179551246Y-63302223D01*
X179700000Y-63332346D01*
X180600000Y-63332346D01*
X180738966Y-63306198D01*
X180866599Y-63224069D01*
X180952223Y-63098754D01*
X180982346Y-62950000D01*
X180982346Y-61415000D01*
X183507390Y-61415000D01*
X183671195Y-61578805D01*
X183822052Y-61679604D01*
X184000000Y-61715000D01*
X185150000Y-61715000D01*
X185327948Y-61679604D01*
X185478805Y-61578805D01*
X185642610Y-61415000D01*
X186236002Y-61415000D01*
X186413950Y-61379604D01*
X186564807Y-61278805D01*
X186564808Y-61278804D01*
X186663611Y-61180000D01*
X199411001Y-61180000D01*
X199504249Y-61648787D01*
X199769795Y-62046206D01*
X200167214Y-62311752D01*
X200636001Y-62405000D01*
X200683999Y-62405000D01*
X201152786Y-62311752D01*
X201550205Y-62046206D01*
X201815751Y-61648787D01*
X201908999Y-61180000D01*
X201951001Y-61180000D01*
X202044249Y-61648787D01*
X202309795Y-62046206D01*
X202707214Y-62311752D01*
X203176001Y-62405000D01*
X203223999Y-62405000D01*
X203692786Y-62311752D01*
X204090205Y-62046206D01*
X204355751Y-61648787D01*
X204448999Y-61180000D01*
X204355751Y-60711213D01*
X204090205Y-60313794D01*
X203692786Y-60048248D01*
X203223999Y-59955000D01*
X203176001Y-59955000D01*
X202707214Y-60048248D01*
X202309795Y-60313794D01*
X202044249Y-60711213D01*
X201951001Y-61180000D01*
X201908999Y-61180000D01*
X201815751Y-60711213D01*
X201550205Y-60313794D01*
X201152786Y-60048248D01*
X200683999Y-59955000D01*
X200636001Y-59955000D01*
X200167214Y-60048248D01*
X199769795Y-60313794D01*
X199504249Y-60711213D01*
X199411001Y-61180000D01*
X186663611Y-61180000D01*
X187528803Y-60314808D01*
X187528806Y-60314806D01*
X187629605Y-60163949D01*
X187648492Y-60068995D01*
X187881857Y-59972571D01*
X188071903Y-59782856D01*
X188174883Y-59534855D01*
X188175117Y-59266323D01*
X188151606Y-59209423D01*
X188227223Y-59098754D01*
X188257346Y-58950000D01*
X188257346Y-58425264D01*
X188417610Y-58265000D01*
X193360427Y-58265000D01*
X193467144Y-58371903D01*
X193715145Y-58474883D01*
X193983677Y-58475117D01*
X194231857Y-58372571D01*
X194421903Y-58182856D01*
X194524883Y-57934855D01*
X194525009Y-57790000D01*
X199427654Y-57790000D01*
X199427654Y-59490000D01*
X199453802Y-59628966D01*
X199535931Y-59756599D01*
X199661246Y-59842223D01*
X199810000Y-59872346D01*
X201510000Y-59872346D01*
X201648966Y-59846198D01*
X201776599Y-59764069D01*
X201862223Y-59638754D01*
X201892346Y-59490000D01*
X201892346Y-58640000D01*
X201951001Y-58640000D01*
X202044249Y-59108787D01*
X202309795Y-59506206D01*
X202707214Y-59771752D01*
X203176001Y-59865000D01*
X203223999Y-59865000D01*
X203692786Y-59771752D01*
X204090205Y-59506206D01*
X204355751Y-59108787D01*
X204448999Y-58640000D01*
X204355751Y-58171213D01*
X204090205Y-57773794D01*
X203692786Y-57508248D01*
X203223999Y-57415000D01*
X203176001Y-57415000D01*
X202707214Y-57508248D01*
X202309795Y-57773794D01*
X202044249Y-58171213D01*
X201951001Y-58640000D01*
X201892346Y-58640000D01*
X201892346Y-57790000D01*
X201866198Y-57651034D01*
X201784069Y-57523401D01*
X201658754Y-57437777D01*
X201510000Y-57407654D01*
X199810000Y-57407654D01*
X199671034Y-57433802D01*
X199543401Y-57515931D01*
X199457777Y-57641246D01*
X199427654Y-57790000D01*
X194525009Y-57790000D01*
X194525117Y-57666323D01*
X194422571Y-57418143D01*
X194232856Y-57228097D01*
X193984855Y-57125117D01*
X193716323Y-57124883D01*
X193468143Y-57227429D01*
X193360384Y-57335000D01*
X190957346Y-57335000D01*
X190957346Y-56650000D01*
X190931198Y-56511034D01*
X190849069Y-56383401D01*
X190723754Y-56297777D01*
X190575000Y-56267654D01*
X190225264Y-56267654D01*
X190224985Y-56267375D01*
X190225117Y-56116323D01*
X190122571Y-55868143D01*
X189932856Y-55678097D01*
X189684855Y-55575117D01*
X189416323Y-55574883D01*
X189168143Y-55677429D01*
X188978097Y-55867144D01*
X188875117Y-56115145D01*
X188874984Y-56267654D01*
X188750264Y-56267654D01*
X188423805Y-55941195D01*
X188272948Y-55840396D01*
X188095000Y-55805000D01*
X186630005Y-55805000D01*
X186630000Y-55804999D01*
X186481576Y-55834523D01*
X186452052Y-55840396D01*
X186301195Y-55941195D01*
X186301193Y-55941198D01*
X186174737Y-56067654D01*
X185989732Y-56067654D01*
X185989934Y-55836321D01*
X185887388Y-55588141D01*
X185697673Y-55398095D01*
X185449672Y-55295115D01*
X185181140Y-55294881D01*
X184932960Y-55397427D01*
X184892299Y-55438018D01*
X184670192Y-55345790D01*
X184401660Y-55345556D01*
X184153480Y-55448102D01*
X184136249Y-55465303D01*
X184053553Y-55341540D01*
X183837013Y-55125000D01*
X190000000Y-55125000D01*
X190045432Y-55116451D01*
X190087159Y-55089601D01*
X190115152Y-55048632D01*
X190125000Y-55000000D01*
X190125000Y-50500000D01*
X190116451Y-50454568D01*
X190113512Y-50450000D01*
X190377125Y-50450000D01*
X190367000Y-50500000D01*
G36*
X164448257Y-73877053D02*
X165892654Y-75321449D01*
X165892654Y-75600000D01*
X165918802Y-75738966D01*
X165944038Y-75778184D01*
X165861034Y-75793802D01*
X165733401Y-75875931D01*
X165647777Y-76001246D01*
X165617654Y-76150000D01*
X165617654Y-76588910D01*
X165545396Y-76697052D01*
X165510000Y-76875000D01*
X165510000Y-77325180D01*
X165411034Y-77343802D01*
X165283401Y-77425931D01*
X165197777Y-77551246D01*
X165193580Y-77571973D01*
X164665000Y-77043392D01*
X164665000Y-74464259D01*
X164665001Y-74464254D01*
X164629604Y-74286306D01*
X164528805Y-74135449D01*
X164344911Y-73951555D01*
X164375873Y-73876990D01*
X164448257Y-73877053D01*
X164448257Y-73877053D01*
G37*
X164448257Y-73877053D02*
X165892654Y-75321449D01*
X165892654Y-75600000D01*
X165918802Y-75738966D01*
X165944038Y-75778184D01*
X165861034Y-75793802D01*
X165733401Y-75875931D01*
X165647777Y-76001246D01*
X165617654Y-76150000D01*
X165617654Y-76588910D01*
X165545396Y-76697052D01*
X165510000Y-76875000D01*
X165510000Y-77325180D01*
X165411034Y-77343802D01*
X165283401Y-77425931D01*
X165197777Y-77551246D01*
X165193580Y-77571973D01*
X164665000Y-77043392D01*
X164665000Y-74464259D01*
X164665001Y-74464254D01*
X164629604Y-74286306D01*
X164528805Y-74135449D01*
X164344911Y-73951555D01*
X164375873Y-73876990D01*
X164448257Y-73877053D01*
G36*
X163842654Y-68350783D02*
X163842654Y-69525000D01*
X163849542Y-69561609D01*
X163638104Y-69561425D01*
X163389924Y-69663971D01*
X163199878Y-69853686D01*
X163096898Y-70101687D01*
X163096765Y-70253948D01*
X162527628Y-70823085D01*
X161482346Y-70823085D01*
X161482346Y-70450000D01*
X161474440Y-70407980D01*
X161515145Y-70424883D01*
X161783677Y-70425117D01*
X162031857Y-70322571D01*
X162221903Y-70132856D01*
X162324883Y-69884855D01*
X162325016Y-69732593D01*
X162328802Y-69728807D01*
X162328805Y-69728805D01*
X162343143Y-69707346D01*
X162400000Y-69707346D01*
X162538966Y-69681198D01*
X162666599Y-69599069D01*
X162752223Y-69473754D01*
X162782346Y-69325000D01*
X162782346Y-68575000D01*
X162756198Y-68436034D01*
X162674069Y-68308401D01*
X162548754Y-68222777D01*
X162400000Y-68192654D01*
X161600000Y-68192654D01*
X161461034Y-68218802D01*
X161333401Y-68300931D01*
X161247777Y-68426246D01*
X161217654Y-68575000D01*
X161217654Y-69227830D01*
X161078097Y-69367144D01*
X160975117Y-69615145D01*
X160974883Y-69883677D01*
X161050901Y-70067654D01*
X160475264Y-70067654D01*
X160258804Y-69851194D01*
X160107947Y-69750395D01*
X159929999Y-69714999D01*
X159230514Y-69714999D01*
X159192571Y-69623170D01*
X159138575Y-69569080D01*
X161242654Y-67465000D01*
X161810427Y-67465000D01*
X161917144Y-67571903D01*
X162165145Y-67674883D01*
X162433677Y-67675117D01*
X162681857Y-67572571D01*
X162871903Y-67382856D01*
X162872731Y-67380861D01*
X163842654Y-68350783D01*
X163842654Y-68350783D01*
G37*
X163842654Y-68350783D02*
X163842654Y-69525000D01*
X163849542Y-69561609D01*
X163638104Y-69561425D01*
X163389924Y-69663971D01*
X163199878Y-69853686D01*
X163096898Y-70101687D01*
X163096765Y-70253948D01*
X162527628Y-70823085D01*
X161482346Y-70823085D01*
X161482346Y-70450000D01*
X161474440Y-70407980D01*
X161515145Y-70424883D01*
X161783677Y-70425117D01*
X162031857Y-70322571D01*
X162221903Y-70132856D01*
X162324883Y-69884855D01*
X162325016Y-69732593D01*
X162328802Y-69728807D01*
X162328805Y-69728805D01*
X162343143Y-69707346D01*
X162400000Y-69707346D01*
X162538966Y-69681198D01*
X162666599Y-69599069D01*
X162752223Y-69473754D01*
X162782346Y-69325000D01*
X162782346Y-68575000D01*
X162756198Y-68436034D01*
X162674069Y-68308401D01*
X162548754Y-68222777D01*
X162400000Y-68192654D01*
X161600000Y-68192654D01*
X161461034Y-68218802D01*
X161333401Y-68300931D01*
X161247777Y-68426246D01*
X161217654Y-68575000D01*
X161217654Y-69227830D01*
X161078097Y-69367144D01*
X160975117Y-69615145D01*
X160974883Y-69883677D01*
X161050901Y-70067654D01*
X160475264Y-70067654D01*
X160258804Y-69851194D01*
X160107947Y-69750395D01*
X159929999Y-69714999D01*
X159230514Y-69714999D01*
X159192571Y-69623170D01*
X159138575Y-69569080D01*
X161242654Y-67465000D01*
X161810427Y-67465000D01*
X161917144Y-67571903D01*
X162165145Y-67674883D01*
X162433677Y-67675117D01*
X162681857Y-67572571D01*
X162871903Y-67382856D01*
X162872731Y-67380861D01*
X163842654Y-68350783D01*
G36*
X164979092Y-65014884D02*
X165247624Y-65015118D01*
X165253657Y-65012625D01*
X165282268Y-65081868D01*
X165471983Y-65271914D01*
X165719984Y-65374894D01*
X165986971Y-65375127D01*
X166014552Y-65441878D01*
X166204267Y-65631924D01*
X166452268Y-65734904D01*
X166720800Y-65735138D01*
X166968980Y-65632592D01*
X167159026Y-65442877D01*
X167191364Y-65365000D01*
X170750992Y-65365000D01*
X171715780Y-66329788D01*
X171528097Y-66517144D01*
X171425117Y-66765145D01*
X171424883Y-67033677D01*
X171495121Y-67203667D01*
X171471195Y-67227593D01*
X171370396Y-67378450D01*
X171338262Y-67539999D01*
X170940006Y-67539999D01*
X170940001Y-67539998D01*
X170814312Y-67565000D01*
X170762053Y-67575395D01*
X170611196Y-67676194D01*
X170611194Y-67676197D01*
X170521195Y-67766195D01*
X170436698Y-67892654D01*
X170225000Y-67892654D01*
X170095411Y-67917038D01*
X169975000Y-67892654D01*
X169809562Y-67892654D01*
X169779604Y-67742051D01*
X169779604Y-67742050D01*
X169704976Y-67630361D01*
X169705119Y-67466323D01*
X169602573Y-67218143D01*
X169412858Y-67028097D01*
X169164857Y-66925117D01*
X168896325Y-66924883D01*
X168704606Y-67004100D01*
X168774883Y-66834855D01*
X168775117Y-66566323D01*
X168672571Y-66318143D01*
X168482856Y-66128097D01*
X168234855Y-66025117D01*
X167966323Y-66024883D01*
X167718143Y-66127429D01*
X167528097Y-66317144D01*
X167425117Y-66565145D01*
X167424943Y-66765247D01*
X167420396Y-66772052D01*
X167385000Y-66950000D01*
X167385000Y-67472390D01*
X164890854Y-64978244D01*
X164979092Y-65014884D01*
X164979092Y-65014884D01*
G37*
X164979092Y-65014884D02*
X165247624Y-65015118D01*
X165253657Y-65012625D01*
X165282268Y-65081868D01*
X165471983Y-65271914D01*
X165719984Y-65374894D01*
X165986971Y-65375127D01*
X166014552Y-65441878D01*
X166204267Y-65631924D01*
X166452268Y-65734904D01*
X166720800Y-65735138D01*
X166968980Y-65632592D01*
X167159026Y-65442877D01*
X167191364Y-65365000D01*
X170750992Y-65365000D01*
X171715780Y-66329788D01*
X171528097Y-66517144D01*
X171425117Y-66765145D01*
X171424883Y-67033677D01*
X171495121Y-67203667D01*
X171471195Y-67227593D01*
X171370396Y-67378450D01*
X171338262Y-67539999D01*
X170940006Y-67539999D01*
X170940001Y-67539998D01*
X170814312Y-67565000D01*
X170762053Y-67575395D01*
X170611196Y-67676194D01*
X170611194Y-67676197D01*
X170521195Y-67766195D01*
X170436698Y-67892654D01*
X170225000Y-67892654D01*
X170095411Y-67917038D01*
X169975000Y-67892654D01*
X169809562Y-67892654D01*
X169779604Y-67742051D01*
X169779604Y-67742050D01*
X169704976Y-67630361D01*
X169705119Y-67466323D01*
X169602573Y-67218143D01*
X169412858Y-67028097D01*
X169164857Y-66925117D01*
X168896325Y-66924883D01*
X168704606Y-67004100D01*
X168774883Y-66834855D01*
X168775117Y-66566323D01*
X168672571Y-66318143D01*
X168482856Y-66128097D01*
X168234855Y-66025117D01*
X167966323Y-66024883D01*
X167718143Y-66127429D01*
X167528097Y-66317144D01*
X167425117Y-66565145D01*
X167424943Y-66765247D01*
X167420396Y-66772052D01*
X167385000Y-66950000D01*
X167385000Y-67472390D01*
X164890854Y-64978244D01*
X164979092Y-65014884D01*
G36*
X140546447Y-59353553D02*
X140917654Y-59724760D01*
X140917654Y-60200000D01*
X140937889Y-60307543D01*
X140828097Y-60417144D01*
X140725117Y-60665145D01*
X140724883Y-60933677D01*
X140827429Y-61181857D01*
X141017144Y-61371903D01*
X141265145Y-61474883D01*
X141533677Y-61475117D01*
X141781857Y-61372571D01*
X141971903Y-61182856D01*
X142074883Y-60934855D01*
X142074982Y-60821483D01*
X142161940Y-60691342D01*
X142165947Y-60671195D01*
X142186872Y-60566000D01*
X142238966Y-60556198D01*
X142366599Y-60474069D01*
X142452223Y-60348754D01*
X142482346Y-60200000D01*
X142482346Y-60037044D01*
X142517144Y-60071903D01*
X142765145Y-60174883D01*
X143033677Y-60175117D01*
X143281857Y-60072571D01*
X143471903Y-59882856D01*
X143484577Y-59852333D01*
X143525931Y-59916599D01*
X143635000Y-59991123D01*
X143635000Y-60121768D01*
X143597777Y-60176246D01*
X143567654Y-60325000D01*
X143567654Y-60885837D01*
X143535000Y-61050000D01*
X143535000Y-61635554D01*
X143433401Y-61700931D01*
X143347777Y-61826246D01*
X143319682Y-61964987D01*
X143282856Y-61928097D01*
X143034855Y-61825117D01*
X142766323Y-61824883D01*
X142569409Y-61906246D01*
X142556198Y-61836034D01*
X142474069Y-61708401D01*
X142348754Y-61622777D01*
X142200000Y-61592654D01*
X141600000Y-61592654D01*
X141461034Y-61618802D01*
X141333401Y-61700931D01*
X141247777Y-61826246D01*
X141217654Y-61975000D01*
X141217654Y-61975239D01*
X140967922Y-62224972D01*
X140866323Y-62224883D01*
X140618143Y-62327429D01*
X140450000Y-62495279D01*
X140450000Y-59209211D01*
X140546447Y-59353553D01*
X140546447Y-59353553D01*
G37*
X140546447Y-59353553D02*
X140917654Y-59724760D01*
X140917654Y-60200000D01*
X140937889Y-60307543D01*
X140828097Y-60417144D01*
X140725117Y-60665145D01*
X140724883Y-60933677D01*
X140827429Y-61181857D01*
X141017144Y-61371903D01*
X141265145Y-61474883D01*
X141533677Y-61475117D01*
X141781857Y-61372571D01*
X141971903Y-61182856D01*
X142074883Y-60934855D01*
X142074982Y-60821483D01*
X142161940Y-60691342D01*
X142165947Y-60671195D01*
X142186872Y-60566000D01*
X142238966Y-60556198D01*
X142366599Y-60474069D01*
X142452223Y-60348754D01*
X142482346Y-60200000D01*
X142482346Y-60037044D01*
X142517144Y-60071903D01*
X142765145Y-60174883D01*
X143033677Y-60175117D01*
X143281857Y-60072571D01*
X143471903Y-59882856D01*
X143484577Y-59852333D01*
X143525931Y-59916599D01*
X143635000Y-59991123D01*
X143635000Y-60121768D01*
X143597777Y-60176246D01*
X143567654Y-60325000D01*
X143567654Y-60885837D01*
X143535000Y-61050000D01*
X143535000Y-61635554D01*
X143433401Y-61700931D01*
X143347777Y-61826246D01*
X143319682Y-61964987D01*
X143282856Y-61928097D01*
X143034855Y-61825117D01*
X142766323Y-61824883D01*
X142569409Y-61906246D01*
X142556198Y-61836034D01*
X142474069Y-61708401D01*
X142348754Y-61622777D01*
X142200000Y-61592654D01*
X141600000Y-61592654D01*
X141461034Y-61618802D01*
X141333401Y-61700931D01*
X141247777Y-61826246D01*
X141217654Y-61975000D01*
X141217654Y-61975239D01*
X140967922Y-62224972D01*
X140866323Y-62224883D01*
X140618143Y-62327429D01*
X140450000Y-62495279D01*
X140450000Y-59209211D01*
X140546447Y-59353553D01*
G36*
X147125931Y-59916599D02*
X147235000Y-59991123D01*
X147235000Y-60121768D01*
X147197777Y-60176246D01*
X147167654Y-60325000D01*
X147167654Y-61075000D01*
X147185000Y-61167187D01*
X147185000Y-61635554D01*
X147083401Y-61700931D01*
X146997777Y-61826246D01*
X146967654Y-61975000D01*
X146967654Y-62335000D01*
X146232346Y-62335000D01*
X146232346Y-61975000D01*
X146206198Y-61836034D01*
X146124069Y-61708401D01*
X145998754Y-61622777D01*
X145850000Y-61592654D01*
X145250000Y-61592654D01*
X145111034Y-61618802D01*
X145102088Y-61624559D01*
X144934855Y-61555117D01*
X144666323Y-61554883D01*
X144468822Y-61636489D01*
X144465000Y-61633877D01*
X144465000Y-61457346D01*
X144750000Y-61457346D01*
X144888966Y-61431198D01*
X145016599Y-61349069D01*
X145102223Y-61223754D01*
X145132346Y-61075000D01*
X145132346Y-60582346D01*
X145700000Y-60582346D01*
X145838966Y-60556198D01*
X145966599Y-60474069D01*
X146052223Y-60348754D01*
X146082346Y-60200000D01*
X146082346Y-60017009D01*
X146137144Y-60071903D01*
X146385145Y-60174883D01*
X146653677Y-60175117D01*
X146901857Y-60072571D01*
X147091903Y-59882856D01*
X147096733Y-59871224D01*
X147125931Y-59916599D01*
X147125931Y-59916599D01*
G37*
X147125931Y-59916599D02*
X147235000Y-59991123D01*
X147235000Y-60121768D01*
X147197777Y-60176246D01*
X147167654Y-60325000D01*
X147167654Y-61075000D01*
X147185000Y-61167187D01*
X147185000Y-61635554D01*
X147083401Y-61700931D01*
X146997777Y-61826246D01*
X146967654Y-61975000D01*
X146967654Y-62335000D01*
X146232346Y-62335000D01*
X146232346Y-61975000D01*
X146206198Y-61836034D01*
X146124069Y-61708401D01*
X145998754Y-61622777D01*
X145850000Y-61592654D01*
X145250000Y-61592654D01*
X145111034Y-61618802D01*
X145102088Y-61624559D01*
X144934855Y-61555117D01*
X144666323Y-61554883D01*
X144468822Y-61636489D01*
X144465000Y-61633877D01*
X144465000Y-61457346D01*
X144750000Y-61457346D01*
X144888966Y-61431198D01*
X145016599Y-61349069D01*
X145102223Y-61223754D01*
X145132346Y-61075000D01*
X145132346Y-60582346D01*
X145700000Y-60582346D01*
X145838966Y-60556198D01*
X145966599Y-60474069D01*
X146052223Y-60348754D01*
X146082346Y-60200000D01*
X146082346Y-60017009D01*
X146137144Y-60071903D01*
X146385145Y-60174883D01*
X146653677Y-60175117D01*
X146901857Y-60072571D01*
X147091903Y-59882856D01*
X147096733Y-59871224D01*
X147125931Y-59916599D01*
G36*
X168725931Y-57616599D02*
X168835000Y-57691123D01*
X168835000Y-57821768D01*
X168797777Y-57876246D01*
X168767654Y-58025000D01*
X168767654Y-58775000D01*
X168785000Y-58867187D01*
X168785000Y-59335554D01*
X168683401Y-59400931D01*
X168597777Y-59526246D01*
X168567654Y-59675000D01*
X168567654Y-59924736D01*
X168521195Y-59971195D01*
X168420396Y-60122052D01*
X168385000Y-60300000D01*
X168385000Y-61092654D01*
X168315000Y-61092654D01*
X168315000Y-60525000D01*
X168279604Y-60347052D01*
X168178805Y-60196195D01*
X168178802Y-60196193D01*
X167832346Y-59849736D01*
X167832346Y-59675000D01*
X167806198Y-59536034D01*
X167724069Y-59408401D01*
X167598754Y-59322777D01*
X167450000Y-59292654D01*
X166850000Y-59292654D01*
X166711034Y-59318802D01*
X166583401Y-59400931D01*
X166560123Y-59435000D01*
X166241185Y-59435000D01*
X166224069Y-59408401D01*
X166115000Y-59333877D01*
X166115000Y-59157346D01*
X166350000Y-59157346D01*
X166488966Y-59131198D01*
X166616599Y-59049069D01*
X166702223Y-58923754D01*
X166732346Y-58775000D01*
X166732346Y-58282346D01*
X167300000Y-58282346D01*
X167438966Y-58256198D01*
X167566599Y-58174069D01*
X167652223Y-58048754D01*
X167682346Y-57900000D01*
X167682346Y-57717009D01*
X167737144Y-57771903D01*
X167985145Y-57874883D01*
X168253677Y-57875117D01*
X168501857Y-57772571D01*
X168691903Y-57582856D01*
X168696733Y-57571224D01*
X168725931Y-57616599D01*
X168725931Y-57616599D01*
G37*
X168725931Y-57616599D02*
X168835000Y-57691123D01*
X168835000Y-57821768D01*
X168797777Y-57876246D01*
X168767654Y-58025000D01*
X168767654Y-58775000D01*
X168785000Y-58867187D01*
X168785000Y-59335554D01*
X168683401Y-59400931D01*
X168597777Y-59526246D01*
X168567654Y-59675000D01*
X168567654Y-59924736D01*
X168521195Y-59971195D01*
X168420396Y-60122052D01*
X168385000Y-60300000D01*
X168385000Y-61092654D01*
X168315000Y-61092654D01*
X168315000Y-60525000D01*
X168279604Y-60347052D01*
X168178805Y-60196195D01*
X168178802Y-60196193D01*
X167832346Y-59849736D01*
X167832346Y-59675000D01*
X167806198Y-59536034D01*
X167724069Y-59408401D01*
X167598754Y-59322777D01*
X167450000Y-59292654D01*
X166850000Y-59292654D01*
X166711034Y-59318802D01*
X166583401Y-59400931D01*
X166560123Y-59435000D01*
X166241185Y-59435000D01*
X166224069Y-59408401D01*
X166115000Y-59333877D01*
X166115000Y-59157346D01*
X166350000Y-59157346D01*
X166488966Y-59131198D01*
X166616599Y-59049069D01*
X166702223Y-58923754D01*
X166732346Y-58775000D01*
X166732346Y-58282346D01*
X167300000Y-58282346D01*
X167438966Y-58256198D01*
X167566599Y-58174069D01*
X167652223Y-58048754D01*
X167682346Y-57900000D01*
X167682346Y-57717009D01*
X167737144Y-57771903D01*
X167985145Y-57874883D01*
X168253677Y-57875117D01*
X168501857Y-57772571D01*
X168691903Y-57582856D01*
X168696733Y-57571224D01*
X168725931Y-57616599D01*
G36*
X150725931Y-57616599D02*
X150835000Y-57691123D01*
X150835000Y-57821768D01*
X150797777Y-57876246D01*
X150767654Y-58025000D01*
X150767654Y-58775000D01*
X150785000Y-58867187D01*
X150785000Y-59335554D01*
X150683401Y-59400931D01*
X150597777Y-59526246D01*
X150567654Y-59675000D01*
X150567654Y-60125000D01*
X150593802Y-60263966D01*
X150675931Y-60391599D01*
X150801246Y-60477223D01*
X150950000Y-60507346D01*
X151199737Y-60507346D01*
X151321193Y-60628802D01*
X151321195Y-60628805D01*
X151352947Y-60650021D01*
X149543025Y-60650021D01*
X149386784Y-60681099D01*
X149368444Y-60636714D01*
X149239301Y-60507346D01*
X149450000Y-60507346D01*
X149588966Y-60481198D01*
X149716599Y-60399069D01*
X149802223Y-60273754D01*
X149832346Y-60125000D01*
X149832346Y-59675000D01*
X149806198Y-59536034D01*
X149724069Y-59408401D01*
X149598754Y-59322777D01*
X149450000Y-59292654D01*
X148850000Y-59292654D01*
X148711034Y-59318802D01*
X148583401Y-59400931D01*
X148497777Y-59526246D01*
X148467654Y-59675000D01*
X148467654Y-59924736D01*
X148432940Y-59959450D01*
X148350000Y-59942654D01*
X148237717Y-59942654D01*
X148266599Y-59924069D01*
X148352223Y-59798754D01*
X148382346Y-59650000D01*
X148382346Y-59250000D01*
X148356198Y-59111034D01*
X148283923Y-58998715D01*
X148352223Y-58898754D01*
X148382346Y-58750000D01*
X148382346Y-58574761D01*
X148453553Y-58503554D01*
X148453555Y-58503551D01*
X148674760Y-58282346D01*
X149300000Y-58282346D01*
X149438966Y-58256198D01*
X149566599Y-58174069D01*
X149652223Y-58048754D01*
X149682346Y-57900000D01*
X149682346Y-57717009D01*
X149737144Y-57771903D01*
X149985145Y-57874883D01*
X150253677Y-57875117D01*
X150501857Y-57772571D01*
X150691903Y-57582856D01*
X150696733Y-57571224D01*
X150725931Y-57616599D01*
X150725931Y-57616599D01*
G37*
X150725931Y-57616599D02*
X150835000Y-57691123D01*
X150835000Y-57821768D01*
X150797777Y-57876246D01*
X150767654Y-58025000D01*
X150767654Y-58775000D01*
X150785000Y-58867187D01*
X150785000Y-59335554D01*
X150683401Y-59400931D01*
X150597777Y-59526246D01*
X150567654Y-59675000D01*
X150567654Y-60125000D01*
X150593802Y-60263966D01*
X150675931Y-60391599D01*
X150801246Y-60477223D01*
X150950000Y-60507346D01*
X151199737Y-60507346D01*
X151321193Y-60628802D01*
X151321195Y-60628805D01*
X151352947Y-60650021D01*
X149543025Y-60650021D01*
X149386784Y-60681099D01*
X149368444Y-60636714D01*
X149239301Y-60507346D01*
X149450000Y-60507346D01*
X149588966Y-60481198D01*
X149716599Y-60399069D01*
X149802223Y-60273754D01*
X149832346Y-60125000D01*
X149832346Y-59675000D01*
X149806198Y-59536034D01*
X149724069Y-59408401D01*
X149598754Y-59322777D01*
X149450000Y-59292654D01*
X148850000Y-59292654D01*
X148711034Y-59318802D01*
X148583401Y-59400931D01*
X148497777Y-59526246D01*
X148467654Y-59675000D01*
X148467654Y-59924736D01*
X148432940Y-59959450D01*
X148350000Y-59942654D01*
X148237717Y-59942654D01*
X148266599Y-59924069D01*
X148352223Y-59798754D01*
X148382346Y-59650000D01*
X148382346Y-59250000D01*
X148356198Y-59111034D01*
X148283923Y-58998715D01*
X148352223Y-58898754D01*
X148382346Y-58750000D01*
X148382346Y-58574761D01*
X148453553Y-58503554D01*
X148453555Y-58503551D01*
X148674760Y-58282346D01*
X149300000Y-58282346D01*
X149438966Y-58256198D01*
X149566599Y-58174069D01*
X149652223Y-58048754D01*
X149682346Y-57900000D01*
X149682346Y-57717009D01*
X149737144Y-57771903D01*
X149985145Y-57874883D01*
X150253677Y-57875117D01*
X150501857Y-57772571D01*
X150691903Y-57582856D01*
X150696733Y-57571224D01*
X150725931Y-57616599D01*
G36*
X154325931Y-57616599D02*
X154435000Y-57691123D01*
X154435000Y-57821768D01*
X154397777Y-57876246D01*
X154367654Y-58025000D01*
X154367654Y-58775000D01*
X154385000Y-58867187D01*
X154385000Y-59335554D01*
X154283401Y-59400931D01*
X154197777Y-59526246D01*
X154167654Y-59675000D01*
X154167654Y-60125000D01*
X154193802Y-60263966D01*
X154275931Y-60391599D01*
X154401246Y-60477223D01*
X154550000Y-60507346D01*
X155150000Y-60507346D01*
X155288966Y-60481198D01*
X155416599Y-60399069D01*
X155439877Y-60365000D01*
X155758815Y-60365000D01*
X155775931Y-60391599D01*
X155901246Y-60477223D01*
X156050000Y-60507346D01*
X156650000Y-60507346D01*
X156759191Y-60486801D01*
X156922411Y-60650021D01*
X152565539Y-60650021D01*
X152624784Y-60507346D01*
X153050000Y-60507346D01*
X153188966Y-60481198D01*
X153316599Y-60399069D01*
X153402223Y-60273754D01*
X153432346Y-60125000D01*
X153432346Y-59675000D01*
X153406198Y-59536034D01*
X153324069Y-59408401D01*
X153198754Y-59322777D01*
X153050000Y-59292654D01*
X152450000Y-59292654D01*
X152311034Y-59318802D01*
X152183401Y-59400931D01*
X152160123Y-59435000D01*
X151841185Y-59435000D01*
X151824069Y-59408401D01*
X151715000Y-59333877D01*
X151715000Y-59157346D01*
X151950000Y-59157346D01*
X152088966Y-59131198D01*
X152216599Y-59049069D01*
X152302223Y-58923754D01*
X152332346Y-58775000D01*
X152332346Y-58282346D01*
X152900000Y-58282346D01*
X153038966Y-58256198D01*
X153166599Y-58174069D01*
X153252223Y-58048754D01*
X153282346Y-57900000D01*
X153282346Y-57717009D01*
X153337144Y-57771903D01*
X153585145Y-57874883D01*
X153853677Y-57875117D01*
X154101857Y-57772571D01*
X154291903Y-57582856D01*
X154296733Y-57571224D01*
X154325931Y-57616599D01*
X154325931Y-57616599D01*
G37*
X154325931Y-57616599D02*
X154435000Y-57691123D01*
X154435000Y-57821768D01*
X154397777Y-57876246D01*
X154367654Y-58025000D01*
X154367654Y-58775000D01*
X154385000Y-58867187D01*
X154385000Y-59335554D01*
X154283401Y-59400931D01*
X154197777Y-59526246D01*
X154167654Y-59675000D01*
X154167654Y-60125000D01*
X154193802Y-60263966D01*
X154275931Y-60391599D01*
X154401246Y-60477223D01*
X154550000Y-60507346D01*
X155150000Y-60507346D01*
X155288966Y-60481198D01*
X155416599Y-60399069D01*
X155439877Y-60365000D01*
X155758815Y-60365000D01*
X155775931Y-60391599D01*
X155901246Y-60477223D01*
X156050000Y-60507346D01*
X156650000Y-60507346D01*
X156759191Y-60486801D01*
X156922411Y-60650021D01*
X152565539Y-60650021D01*
X152624784Y-60507346D01*
X153050000Y-60507346D01*
X153188966Y-60481198D01*
X153316599Y-60399069D01*
X153402223Y-60273754D01*
X153432346Y-60125000D01*
X153432346Y-59675000D01*
X153406198Y-59536034D01*
X153324069Y-59408401D01*
X153198754Y-59322777D01*
X153050000Y-59292654D01*
X152450000Y-59292654D01*
X152311034Y-59318802D01*
X152183401Y-59400931D01*
X152160123Y-59435000D01*
X151841185Y-59435000D01*
X151824069Y-59408401D01*
X151715000Y-59333877D01*
X151715000Y-59157346D01*
X151950000Y-59157346D01*
X152088966Y-59131198D01*
X152216599Y-59049069D01*
X152302223Y-58923754D01*
X152332346Y-58775000D01*
X152332346Y-58282346D01*
X152900000Y-58282346D01*
X153038966Y-58256198D01*
X153166599Y-58174069D01*
X153252223Y-58048754D01*
X153282346Y-57900000D01*
X153282346Y-57717009D01*
X153337144Y-57771903D01*
X153585145Y-57874883D01*
X153853677Y-57875117D01*
X154101857Y-57772571D01*
X154291903Y-57582856D01*
X154296733Y-57571224D01*
X154325931Y-57616599D01*
G36*
X179525931Y-57616599D02*
X179635000Y-57691123D01*
X179635000Y-57821768D01*
X179597777Y-57876246D01*
X179567654Y-58025000D01*
X179567654Y-58775000D01*
X179585000Y-58867187D01*
X179585000Y-59335554D01*
X179483401Y-59400931D01*
X179442840Y-59460294D01*
X179392052Y-59470396D01*
X179241195Y-59571195D01*
X178882389Y-59930001D01*
X178632346Y-59930001D01*
X178632346Y-59675000D01*
X178606198Y-59536034D01*
X178524069Y-59408401D01*
X178398754Y-59322777D01*
X178250000Y-59292654D01*
X177650000Y-59292654D01*
X177511034Y-59318802D01*
X177383401Y-59400931D01*
X177360123Y-59435000D01*
X177041185Y-59435000D01*
X177024069Y-59408401D01*
X176915000Y-59333877D01*
X176915000Y-59157346D01*
X177150000Y-59157346D01*
X177288966Y-59131198D01*
X177416599Y-59049069D01*
X177502223Y-58923754D01*
X177532346Y-58775000D01*
X177532346Y-58282346D01*
X178100000Y-58282346D01*
X178238966Y-58256198D01*
X178366599Y-58174069D01*
X178452223Y-58048754D01*
X178482346Y-57900000D01*
X178482346Y-57717009D01*
X178537144Y-57771903D01*
X178785145Y-57874883D01*
X179053677Y-57875117D01*
X179301857Y-57772571D01*
X179491903Y-57582856D01*
X179496733Y-57571224D01*
X179525931Y-57616599D01*
X179525931Y-57616599D01*
G37*
X179525931Y-57616599D02*
X179635000Y-57691123D01*
X179635000Y-57821768D01*
X179597777Y-57876246D01*
X179567654Y-58025000D01*
X179567654Y-58775000D01*
X179585000Y-58867187D01*
X179585000Y-59335554D01*
X179483401Y-59400931D01*
X179442840Y-59460294D01*
X179392052Y-59470396D01*
X179241195Y-59571195D01*
X178882389Y-59930001D01*
X178632346Y-59930001D01*
X178632346Y-59675000D01*
X178606198Y-59536034D01*
X178524069Y-59408401D01*
X178398754Y-59322777D01*
X178250000Y-59292654D01*
X177650000Y-59292654D01*
X177511034Y-59318802D01*
X177383401Y-59400931D01*
X177360123Y-59435000D01*
X177041185Y-59435000D01*
X177024069Y-59408401D01*
X176915000Y-59333877D01*
X176915000Y-59157346D01*
X177150000Y-59157346D01*
X177288966Y-59131198D01*
X177416599Y-59049069D01*
X177502223Y-58923754D01*
X177532346Y-58775000D01*
X177532346Y-58282346D01*
X178100000Y-58282346D01*
X178238966Y-58256198D01*
X178366599Y-58174069D01*
X178452223Y-58048754D01*
X178482346Y-57900000D01*
X178482346Y-57717009D01*
X178537144Y-57771903D01*
X178785145Y-57874883D01*
X179053677Y-57875117D01*
X179301857Y-57772571D01*
X179491903Y-57582856D01*
X179496733Y-57571224D01*
X179525931Y-57616599D01*
G36*
X183125931Y-57616599D02*
X183235000Y-57691123D01*
X183235000Y-57821768D01*
X183197777Y-57876246D01*
X183167654Y-58025000D01*
X183167654Y-58775000D01*
X183185000Y-58867187D01*
X183185000Y-59335554D01*
X183083401Y-59400931D01*
X183042840Y-59460294D01*
X182992052Y-59470396D01*
X182841195Y-59571195D01*
X182482389Y-59930001D01*
X182232346Y-59930001D01*
X182232346Y-59675000D01*
X182206198Y-59536034D01*
X182124069Y-59408401D01*
X181998754Y-59322777D01*
X181850000Y-59292654D01*
X181250000Y-59292654D01*
X181111034Y-59318802D01*
X180983401Y-59400931D01*
X180960123Y-59435000D01*
X180641185Y-59435000D01*
X180624069Y-59408401D01*
X180515000Y-59333877D01*
X180515000Y-59157346D01*
X180750000Y-59157346D01*
X180888966Y-59131198D01*
X181016599Y-59049069D01*
X181102223Y-58923754D01*
X181132346Y-58775000D01*
X181132346Y-58282346D01*
X181700000Y-58282346D01*
X181838966Y-58256198D01*
X181966599Y-58174069D01*
X182052223Y-58048754D01*
X182082346Y-57900000D01*
X182082346Y-57717009D01*
X182137144Y-57771903D01*
X182385145Y-57874883D01*
X182653677Y-57875117D01*
X182901857Y-57772571D01*
X183091903Y-57582856D01*
X183096733Y-57571224D01*
X183125931Y-57616599D01*
X183125931Y-57616599D01*
G37*
X183125931Y-57616599D02*
X183235000Y-57691123D01*
X183235000Y-57821768D01*
X183197777Y-57876246D01*
X183167654Y-58025000D01*
X183167654Y-58775000D01*
X183185000Y-58867187D01*
X183185000Y-59335554D01*
X183083401Y-59400931D01*
X183042840Y-59460294D01*
X182992052Y-59470396D01*
X182841195Y-59571195D01*
X182482389Y-59930001D01*
X182232346Y-59930001D01*
X182232346Y-59675000D01*
X182206198Y-59536034D01*
X182124069Y-59408401D01*
X181998754Y-59322777D01*
X181850000Y-59292654D01*
X181250000Y-59292654D01*
X181111034Y-59318802D01*
X180983401Y-59400931D01*
X180960123Y-59435000D01*
X180641185Y-59435000D01*
X180624069Y-59408401D01*
X180515000Y-59333877D01*
X180515000Y-59157346D01*
X180750000Y-59157346D01*
X180888966Y-59131198D01*
X181016599Y-59049069D01*
X181102223Y-58923754D01*
X181132346Y-58775000D01*
X181132346Y-58282346D01*
X181700000Y-58282346D01*
X181838966Y-58256198D01*
X181966599Y-58174069D01*
X182052223Y-58048754D01*
X182082346Y-57900000D01*
X182082346Y-57717009D01*
X182137144Y-57771903D01*
X182385145Y-57874883D01*
X182653677Y-57875117D01*
X182901857Y-57772571D01*
X183091903Y-57582856D01*
X183096733Y-57571224D01*
X183125931Y-57616599D01*
G36*
X175925931Y-57616599D02*
X176035000Y-57691123D01*
X176035000Y-57821768D01*
X175997777Y-57876246D01*
X175967654Y-58025000D01*
X175967654Y-58775000D01*
X175985000Y-58867187D01*
X175985000Y-59335554D01*
X175883401Y-59400931D01*
X175842840Y-59460294D01*
X175792052Y-59470396D01*
X175641195Y-59571195D01*
X175282389Y-59930001D01*
X175032346Y-59930001D01*
X175032346Y-59675000D01*
X175006198Y-59536034D01*
X174924069Y-59408401D01*
X174798754Y-59322777D01*
X174650000Y-59292654D01*
X174050000Y-59292654D01*
X173911034Y-59318802D01*
X173783401Y-59400931D01*
X173760123Y-59435000D01*
X173441185Y-59435000D01*
X173424069Y-59408401D01*
X173315000Y-59333877D01*
X173315000Y-59157346D01*
X173550000Y-59157346D01*
X173688966Y-59131198D01*
X173816599Y-59049069D01*
X173902223Y-58923754D01*
X173932346Y-58775000D01*
X173932346Y-58282346D01*
X174500000Y-58282346D01*
X174638966Y-58256198D01*
X174766599Y-58174069D01*
X174852223Y-58048754D01*
X174882346Y-57900000D01*
X174882346Y-57717009D01*
X174937144Y-57771903D01*
X175185145Y-57874883D01*
X175453677Y-57875117D01*
X175701857Y-57772571D01*
X175891903Y-57582856D01*
X175896733Y-57571224D01*
X175925931Y-57616599D01*
X175925931Y-57616599D01*
G37*
X175925931Y-57616599D02*
X176035000Y-57691123D01*
X176035000Y-57821768D01*
X175997777Y-57876246D01*
X175967654Y-58025000D01*
X175967654Y-58775000D01*
X175985000Y-58867187D01*
X175985000Y-59335554D01*
X175883401Y-59400931D01*
X175842840Y-59460294D01*
X175792052Y-59470396D01*
X175641195Y-59571195D01*
X175282389Y-59930001D01*
X175032346Y-59930001D01*
X175032346Y-59675000D01*
X175006198Y-59536034D01*
X174924069Y-59408401D01*
X174798754Y-59322777D01*
X174650000Y-59292654D01*
X174050000Y-59292654D01*
X173911034Y-59318802D01*
X173783401Y-59400931D01*
X173760123Y-59435000D01*
X173441185Y-59435000D01*
X173424069Y-59408401D01*
X173315000Y-59333877D01*
X173315000Y-59157346D01*
X173550000Y-59157346D01*
X173688966Y-59131198D01*
X173816599Y-59049069D01*
X173902223Y-58923754D01*
X173932346Y-58775000D01*
X173932346Y-58282346D01*
X174500000Y-58282346D01*
X174638966Y-58256198D01*
X174766599Y-58174069D01*
X174852223Y-58048754D01*
X174882346Y-57900000D01*
X174882346Y-57717009D01*
X174937144Y-57771903D01*
X175185145Y-57874883D01*
X175453677Y-57875117D01*
X175701857Y-57772571D01*
X175891903Y-57582856D01*
X175896733Y-57571224D01*
X175925931Y-57616599D01*
G36*
X172325931Y-57616599D02*
X172435000Y-57691123D01*
X172435000Y-57821768D01*
X172397777Y-57876246D01*
X172367654Y-58025000D01*
X172367654Y-58775000D01*
X172385000Y-58867187D01*
X172385000Y-59335554D01*
X172283401Y-59400931D01*
X172242840Y-59460294D01*
X172192052Y-59470396D01*
X172041195Y-59571195D01*
X171682389Y-59930001D01*
X171432346Y-59930001D01*
X171432346Y-59675000D01*
X171406198Y-59536034D01*
X171324069Y-59408401D01*
X171198754Y-59322777D01*
X171050000Y-59292654D01*
X170450000Y-59292654D01*
X170311034Y-59318802D01*
X170183401Y-59400931D01*
X170160123Y-59435000D01*
X169841185Y-59435000D01*
X169824069Y-59408401D01*
X169715000Y-59333877D01*
X169715000Y-59157346D01*
X169950000Y-59157346D01*
X170088966Y-59131198D01*
X170216599Y-59049069D01*
X170302223Y-58923754D01*
X170332346Y-58775000D01*
X170332346Y-58282346D01*
X170900000Y-58282346D01*
X171038966Y-58256198D01*
X171166599Y-58174069D01*
X171252223Y-58048754D01*
X171282346Y-57900000D01*
X171282346Y-57717009D01*
X171337144Y-57771903D01*
X171585145Y-57874883D01*
X171853677Y-57875117D01*
X172101857Y-57772571D01*
X172291903Y-57582856D01*
X172296733Y-57571224D01*
X172325931Y-57616599D01*
X172325931Y-57616599D01*
G37*
X172325931Y-57616599D02*
X172435000Y-57691123D01*
X172435000Y-57821768D01*
X172397777Y-57876246D01*
X172367654Y-58025000D01*
X172367654Y-58775000D01*
X172385000Y-58867187D01*
X172385000Y-59335554D01*
X172283401Y-59400931D01*
X172242840Y-59460294D01*
X172192052Y-59470396D01*
X172041195Y-59571195D01*
X171682389Y-59930001D01*
X171432346Y-59930001D01*
X171432346Y-59675000D01*
X171406198Y-59536034D01*
X171324069Y-59408401D01*
X171198754Y-59322777D01*
X171050000Y-59292654D01*
X170450000Y-59292654D01*
X170311034Y-59318802D01*
X170183401Y-59400931D01*
X170160123Y-59435000D01*
X169841185Y-59435000D01*
X169824069Y-59408401D01*
X169715000Y-59333877D01*
X169715000Y-59157346D01*
X169950000Y-59157346D01*
X170088966Y-59131198D01*
X170216599Y-59049069D01*
X170302223Y-58923754D01*
X170332346Y-58775000D01*
X170332346Y-58282346D01*
X170900000Y-58282346D01*
X171038966Y-58256198D01*
X171166599Y-58174069D01*
X171252223Y-58048754D01*
X171282346Y-57900000D01*
X171282346Y-57717009D01*
X171337144Y-57771903D01*
X171585145Y-57874883D01*
X171853677Y-57875117D01*
X172101857Y-57772571D01*
X172291903Y-57582856D01*
X172296733Y-57571224D01*
X172325931Y-57616599D01*
G36*
X165125931Y-57616599D02*
X165235000Y-57691123D01*
X165235000Y-57821768D01*
X165197777Y-57876246D01*
X165167654Y-58025000D01*
X165167654Y-58775000D01*
X165185000Y-58867187D01*
X165185000Y-59335554D01*
X165083401Y-59400931D01*
X164997777Y-59526246D01*
X164967654Y-59675000D01*
X164967654Y-59930001D01*
X164717611Y-59930001D01*
X164358805Y-59571195D01*
X164207948Y-59470396D01*
X164157505Y-59460362D01*
X164124069Y-59408401D01*
X163998754Y-59322777D01*
X163850000Y-59292654D01*
X163250000Y-59292654D01*
X163111034Y-59318802D01*
X162983401Y-59400931D01*
X162960123Y-59435000D01*
X162641185Y-59435000D01*
X162624069Y-59408401D01*
X162515000Y-59333877D01*
X162515000Y-59157346D01*
X162750000Y-59157346D01*
X162888966Y-59131198D01*
X163016599Y-59049069D01*
X163102223Y-58923754D01*
X163132346Y-58775000D01*
X163132346Y-58282346D01*
X163700000Y-58282346D01*
X163838966Y-58256198D01*
X163966599Y-58174069D01*
X164052223Y-58048754D01*
X164082346Y-57900000D01*
X164082346Y-57717009D01*
X164137144Y-57771903D01*
X164385145Y-57874883D01*
X164653677Y-57875117D01*
X164901857Y-57772571D01*
X165091903Y-57582856D01*
X165096733Y-57571224D01*
X165125931Y-57616599D01*
X165125931Y-57616599D01*
G37*
X165125931Y-57616599D02*
X165235000Y-57691123D01*
X165235000Y-57821768D01*
X165197777Y-57876246D01*
X165167654Y-58025000D01*
X165167654Y-58775000D01*
X165185000Y-58867187D01*
X165185000Y-59335554D01*
X165083401Y-59400931D01*
X164997777Y-59526246D01*
X164967654Y-59675000D01*
X164967654Y-59930001D01*
X164717611Y-59930001D01*
X164358805Y-59571195D01*
X164207948Y-59470396D01*
X164157505Y-59460362D01*
X164124069Y-59408401D01*
X163998754Y-59322777D01*
X163850000Y-59292654D01*
X163250000Y-59292654D01*
X163111034Y-59318802D01*
X162983401Y-59400931D01*
X162960123Y-59435000D01*
X162641185Y-59435000D01*
X162624069Y-59408401D01*
X162515000Y-59333877D01*
X162515000Y-59157346D01*
X162750000Y-59157346D01*
X162888966Y-59131198D01*
X163016599Y-59049069D01*
X163102223Y-58923754D01*
X163132346Y-58775000D01*
X163132346Y-58282346D01*
X163700000Y-58282346D01*
X163838966Y-58256198D01*
X163966599Y-58174069D01*
X164052223Y-58048754D01*
X164082346Y-57900000D01*
X164082346Y-57717009D01*
X164137144Y-57771903D01*
X164385145Y-57874883D01*
X164653677Y-57875117D01*
X164901857Y-57772571D01*
X165091903Y-57582856D01*
X165096733Y-57571224D01*
X165125931Y-57616599D01*
G36*
X161525931Y-57616599D02*
X161635000Y-57691123D01*
X161635000Y-57821768D01*
X161597777Y-57876246D01*
X161567654Y-58025000D01*
X161567654Y-58775000D01*
X161585000Y-58867187D01*
X161585000Y-59335554D01*
X161483401Y-59400931D01*
X161397777Y-59526246D01*
X161367654Y-59675000D01*
X161367654Y-59930001D01*
X161117611Y-59930001D01*
X160758805Y-59571195D01*
X160607948Y-59470396D01*
X160557505Y-59460362D01*
X160524069Y-59408401D01*
X160398754Y-59322777D01*
X160250000Y-59292654D01*
X159650000Y-59292654D01*
X159511034Y-59318802D01*
X159383401Y-59400931D01*
X159360123Y-59435000D01*
X159041185Y-59435000D01*
X159024069Y-59408401D01*
X158915000Y-59333877D01*
X158915000Y-59157346D01*
X159150000Y-59157346D01*
X159288966Y-59131198D01*
X159416599Y-59049069D01*
X159502223Y-58923754D01*
X159532346Y-58775000D01*
X159532346Y-58282346D01*
X160100000Y-58282346D01*
X160238966Y-58256198D01*
X160366599Y-58174069D01*
X160452223Y-58048754D01*
X160482346Y-57900000D01*
X160482346Y-57717009D01*
X160537144Y-57771903D01*
X160785145Y-57874883D01*
X161053677Y-57875117D01*
X161301857Y-57772571D01*
X161491903Y-57582856D01*
X161496733Y-57571224D01*
X161525931Y-57616599D01*
X161525931Y-57616599D01*
G37*
X161525931Y-57616599D02*
X161635000Y-57691123D01*
X161635000Y-57821768D01*
X161597777Y-57876246D01*
X161567654Y-58025000D01*
X161567654Y-58775000D01*
X161585000Y-58867187D01*
X161585000Y-59335554D01*
X161483401Y-59400931D01*
X161397777Y-59526246D01*
X161367654Y-59675000D01*
X161367654Y-59930001D01*
X161117611Y-59930001D01*
X160758805Y-59571195D01*
X160607948Y-59470396D01*
X160557505Y-59460362D01*
X160524069Y-59408401D01*
X160398754Y-59322777D01*
X160250000Y-59292654D01*
X159650000Y-59292654D01*
X159511034Y-59318802D01*
X159383401Y-59400931D01*
X159360123Y-59435000D01*
X159041185Y-59435000D01*
X159024069Y-59408401D01*
X158915000Y-59333877D01*
X158915000Y-59157346D01*
X159150000Y-59157346D01*
X159288966Y-59131198D01*
X159416599Y-59049069D01*
X159502223Y-58923754D01*
X159532346Y-58775000D01*
X159532346Y-58282346D01*
X160100000Y-58282346D01*
X160238966Y-58256198D01*
X160366599Y-58174069D01*
X160452223Y-58048754D01*
X160482346Y-57900000D01*
X160482346Y-57717009D01*
X160537144Y-57771903D01*
X160785145Y-57874883D01*
X161053677Y-57875117D01*
X161301857Y-57772571D01*
X161491903Y-57582856D01*
X161496733Y-57571224D01*
X161525931Y-57616599D01*
G36*
X157925931Y-57616599D02*
X158035000Y-57691123D01*
X158035000Y-57821768D01*
X157997777Y-57876246D01*
X157967654Y-58025000D01*
X157967654Y-58775000D01*
X157985000Y-58867187D01*
X157985000Y-59335554D01*
X157883401Y-59400931D01*
X157797777Y-59526246D01*
X157767654Y-59675000D01*
X157767654Y-59930001D01*
X157517611Y-59930001D01*
X157158805Y-59571195D01*
X157007948Y-59470396D01*
X156957505Y-59460362D01*
X156924069Y-59408401D01*
X156798754Y-59322777D01*
X156650000Y-59292654D01*
X156050000Y-59292654D01*
X155911034Y-59318802D01*
X155783401Y-59400931D01*
X155760123Y-59435000D01*
X155441185Y-59435000D01*
X155424069Y-59408401D01*
X155315000Y-59333877D01*
X155315000Y-59157346D01*
X155550000Y-59157346D01*
X155688966Y-59131198D01*
X155816599Y-59049069D01*
X155902223Y-58923754D01*
X155932346Y-58775000D01*
X155932346Y-58282346D01*
X156500000Y-58282346D01*
X156638966Y-58256198D01*
X156766599Y-58174069D01*
X156852223Y-58048754D01*
X156882346Y-57900000D01*
X156882346Y-57717009D01*
X156937144Y-57771903D01*
X157185145Y-57874883D01*
X157453677Y-57875117D01*
X157701857Y-57772571D01*
X157891903Y-57582856D01*
X157896733Y-57571224D01*
X157925931Y-57616599D01*
X157925931Y-57616599D01*
G37*
X157925931Y-57616599D02*
X158035000Y-57691123D01*
X158035000Y-57821768D01*
X157997777Y-57876246D01*
X157967654Y-58025000D01*
X157967654Y-58775000D01*
X157985000Y-58867187D01*
X157985000Y-59335554D01*
X157883401Y-59400931D01*
X157797777Y-59526246D01*
X157767654Y-59675000D01*
X157767654Y-59930001D01*
X157517611Y-59930001D01*
X157158805Y-59571195D01*
X157007948Y-59470396D01*
X156957505Y-59460362D01*
X156924069Y-59408401D01*
X156798754Y-59322777D01*
X156650000Y-59292654D01*
X156050000Y-59292654D01*
X155911034Y-59318802D01*
X155783401Y-59400931D01*
X155760123Y-59435000D01*
X155441185Y-59435000D01*
X155424069Y-59408401D01*
X155315000Y-59333877D01*
X155315000Y-59157346D01*
X155550000Y-59157346D01*
X155688966Y-59131198D01*
X155816599Y-59049069D01*
X155902223Y-58923754D01*
X155932346Y-58775000D01*
X155932346Y-58282346D01*
X156500000Y-58282346D01*
X156638966Y-58256198D01*
X156766599Y-58174069D01*
X156852223Y-58048754D01*
X156882346Y-57900000D01*
X156882346Y-57717009D01*
X156937144Y-57771903D01*
X157185145Y-57874883D01*
X157453677Y-57875117D01*
X157701857Y-57772571D01*
X157891903Y-57582856D01*
X157896733Y-57571224D01*
X157925931Y-57616599D01*
G36*
X188092654Y-56925264D02*
X188092654Y-57361325D01*
X188047052Y-57370396D01*
X187896195Y-57471195D01*
X187599736Y-57767654D01*
X187125000Y-57767654D01*
X186986034Y-57793802D01*
X186858401Y-57875931D01*
X186772777Y-58001246D01*
X186742654Y-58150000D01*
X186742654Y-58950000D01*
X186768802Y-59088966D01*
X186847493Y-59211257D01*
X186825117Y-59265145D01*
X186825077Y-59311367D01*
X186806198Y-59211034D01*
X186724069Y-59083401D01*
X186598754Y-58997777D01*
X186450000Y-58967654D01*
X184750000Y-58967654D01*
X184660753Y-58984447D01*
X184702223Y-58923754D01*
X184732346Y-58775000D01*
X184732346Y-58025000D01*
X184706198Y-57886034D01*
X184624069Y-57758401D01*
X184498754Y-57672777D01*
X184350000Y-57642654D01*
X184237717Y-57642654D01*
X184266599Y-57624069D01*
X184352223Y-57498754D01*
X184374730Y-57387608D01*
X184393802Y-57488966D01*
X184475931Y-57616599D01*
X184601246Y-57702223D01*
X184750000Y-57732346D01*
X186450000Y-57732346D01*
X186588966Y-57706198D01*
X186716599Y-57624069D01*
X186802223Y-57498754D01*
X186832346Y-57350000D01*
X186832346Y-56735000D01*
X187902390Y-56735000D01*
X188092654Y-56925264D01*
X188092654Y-56925264D01*
G37*
X188092654Y-56925264D02*
X188092654Y-57361325D01*
X188047052Y-57370396D01*
X187896195Y-57471195D01*
X187599736Y-57767654D01*
X187125000Y-57767654D01*
X186986034Y-57793802D01*
X186858401Y-57875931D01*
X186772777Y-58001246D01*
X186742654Y-58150000D01*
X186742654Y-58950000D01*
X186768802Y-59088966D01*
X186847493Y-59211257D01*
X186825117Y-59265145D01*
X186825077Y-59311367D01*
X186806198Y-59211034D01*
X186724069Y-59083401D01*
X186598754Y-58997777D01*
X186450000Y-58967654D01*
X184750000Y-58967654D01*
X184660753Y-58984447D01*
X184702223Y-58923754D01*
X184732346Y-58775000D01*
X184732346Y-58025000D01*
X184706198Y-57886034D01*
X184624069Y-57758401D01*
X184498754Y-57672777D01*
X184350000Y-57642654D01*
X184237717Y-57642654D01*
X184266599Y-57624069D01*
X184352223Y-57498754D01*
X184374730Y-57387608D01*
X184393802Y-57488966D01*
X184475931Y-57616599D01*
X184601246Y-57702223D01*
X184750000Y-57732346D01*
X186450000Y-57732346D01*
X186588966Y-57706198D01*
X186716599Y-57624069D01*
X186802223Y-57498754D01*
X186832346Y-57350000D01*
X186832346Y-56735000D01*
X187902390Y-56735000D01*
X188092654Y-56925264D01*
D49*
G36*
X188073000Y-77550000D02*
X188083006Y-77599410D01*
X188110197Y-77639803D01*
X188614069Y-78143675D01*
X188683320Y-78311275D01*
X188887650Y-78515961D01*
X189056446Y-78586052D01*
X189923000Y-79452606D01*
X189923000Y-82873000D01*
X184227000Y-82873000D01*
X184227000Y-80600000D01*
X184216994Y-80550590D01*
X184189803Y-80510197D01*
X183589803Y-79910197D01*
X183547789Y-79882334D01*
X183500000Y-79873000D01*
X181010112Y-79873000D01*
X181850736Y-76277000D01*
X188073000Y-76277000D01*
X188073000Y-77550000D01*
X188073000Y-77550000D01*
G37*
X188073000Y-77550000D02*
X188083006Y-77599410D01*
X188110197Y-77639803D01*
X188614069Y-78143675D01*
X188683320Y-78311275D01*
X188887650Y-78515961D01*
X189056446Y-78586052D01*
X189923000Y-79452606D01*
X189923000Y-82873000D01*
X184227000Y-82873000D01*
X184227000Y-80600000D01*
X184216994Y-80550590D01*
X184189803Y-80510197D01*
X183589803Y-79910197D01*
X183547789Y-79882334D01*
X183500000Y-79873000D01*
X181010112Y-79873000D01*
X181850736Y-76277000D01*
X188073000Y-76277000D01*
X188073000Y-77550000D01*
G36*
X190722346Y-71200493D02*
X190767562Y-71222787D01*
X190800000Y-71227000D01*
X193769450Y-71227000D01*
X198373000Y-73577749D01*
X198373000Y-74681554D01*
X198368725Y-74683320D01*
X198164039Y-74887650D01*
X198150757Y-74919637D01*
X197910197Y-75160197D01*
X197882334Y-75202211D01*
X197873000Y-75250000D01*
X197873000Y-77873000D01*
X194127000Y-77873000D01*
X194127000Y-76000000D01*
X194116994Y-75950590D01*
X194089803Y-75910197D01*
X191839803Y-73660197D01*
X191797789Y-73632334D01*
X191750000Y-73623000D01*
X185002606Y-73623000D01*
X184527000Y-73147394D01*
X184527000Y-69527000D01*
X188556649Y-69527000D01*
X190722346Y-71200493D01*
X190722346Y-71200493D01*
G37*
X190722346Y-71200493D02*
X190767562Y-71222787D01*
X190800000Y-71227000D01*
X193769450Y-71227000D01*
X198373000Y-73577749D01*
X198373000Y-74681554D01*
X198368725Y-74683320D01*
X198164039Y-74887650D01*
X198150757Y-74919637D01*
X197910197Y-75160197D01*
X197882334Y-75202211D01*
X197873000Y-75250000D01*
X197873000Y-77873000D01*
X194127000Y-77873000D01*
X194127000Y-76000000D01*
X194116994Y-75950590D01*
X194089803Y-75910197D01*
X191839803Y-73660197D01*
X191797789Y-73632334D01*
X191750000Y-73623000D01*
X185002606Y-73623000D01*
X184527000Y-73147394D01*
X184527000Y-69527000D01*
X188556649Y-69527000D01*
X190722346Y-71200493D01*
M02*
