G04 #@! TF.FileFunction,Soldermask,Bot*
%FSLAX46Y46*%
G04 Gerber Fmt 4.6, Leading zero omitted, Abs format (unit mm)*
G04 Created by KiCad (PCBNEW 4.0.7) date 02/25/18 23:04:30*
%MOMM*%
%LPD*%
G01*
G04 APERTURE LIST*
%ADD10C,0.100000*%
%ADD11R,2.150000X2.150000*%
%ADD12C,2.150000*%
%ADD13C,6.400000*%
%ADD14R,1.200000X1.150000*%
%ADD15R,1.150000X1.200000*%
%ADD16R,2.000000X1.400000*%
%ADD17R,1.400000X2.000000*%
%ADD18R,1.000000X0.850000*%
%ADD19R,2.900000X3.700000*%
%ADD20R,1.500000X1.500000*%
%ADD21R,1.670000X1.800000*%
%ADD22R,5.200000X5.120000*%
%ADD23R,1.300000X2.100000*%
%ADD24R,1.300000X2.900000*%
%ADD25R,2.400000X4.200000*%
%ADD26R,2.400000X1.900000*%
%ADD27R,1.200000X1.300000*%
%ADD28R,1.300000X1.200000*%
%ADD29R,0.850000X1.100000*%
%ADD30R,0.900000X1.300000*%
%ADD31R,1.300000X0.900000*%
%ADD32R,2.100000X1.300000*%
%ADD33R,1.700000X0.650000*%
%ADD34R,0.650000X1.700000*%
%ADD35R,1.100000X0.650000*%
%ADD36R,1.040000X1.600000*%
%ADD37R,1.800000X0.700000*%
%ADD38R,0.800000X1.620000*%
%ADD39R,1.850000X0.850000*%
%ADD40R,2.700000X2.900000*%
%ADD41R,2.040000X1.400000*%
%ADD42R,0.750000X1.400000*%
%ADD43R,1.100000X1.700000*%
%ADD44R,2.200000X4.000000*%
%ADD45O,2.200000X4.000000*%
%ADD46O,2.200000X1.500000*%
%ADD47O,2.600000X1.500000*%
%ADD48R,2.100000X2.100000*%
%ADD49O,2.100000X2.100000*%
G04 APERTURE END LIST*
D10*
D11*
X179200000Y-52800000D03*
D12*
X176700000Y-52800000D03*
X174200000Y-52800000D03*
X171700000Y-52800000D03*
X169200000Y-52800000D03*
X166700000Y-52800000D03*
X164200000Y-52800000D03*
X161700000Y-52800000D03*
X159200000Y-52800000D03*
X156700000Y-52800000D03*
X154200000Y-52800000D03*
X151700000Y-52800000D03*
X149200000Y-52800000D03*
D13*
X201500000Y-81500000D03*
X201500000Y-53500000D03*
X143500000Y-53500000D03*
D14*
X147050000Y-78600000D03*
X148550000Y-78600000D03*
X150450000Y-81000000D03*
X151950000Y-81000000D03*
X155700000Y-79100000D03*
X154200000Y-79100000D03*
D15*
X152400000Y-70650000D03*
X152400000Y-69150000D03*
X151000000Y-70650000D03*
X151000000Y-69150000D03*
X172400000Y-64950000D03*
X172400000Y-66450000D03*
D14*
X169700000Y-66450000D03*
X171200000Y-66450000D03*
X175350000Y-63800000D03*
X176850000Y-63800000D03*
D16*
X190500000Y-65900000D03*
X190500000Y-68900000D03*
D14*
X189050000Y-64300000D03*
X190550000Y-64300000D03*
D15*
X195400000Y-65150000D03*
X195400000Y-63650000D03*
D17*
X192300000Y-72900000D03*
X195300000Y-72900000D03*
D14*
X193000000Y-56100000D03*
X194500000Y-56100000D03*
X191650000Y-56100000D03*
X190150000Y-56100000D03*
X190050000Y-60900000D03*
X191550000Y-60900000D03*
D15*
X168600000Y-79350000D03*
X168600000Y-77850000D03*
X169300000Y-71150000D03*
X169300000Y-72650000D03*
X170400000Y-71150000D03*
X170400000Y-72650000D03*
D18*
X183100000Y-78100000D03*
X185200000Y-78100000D03*
D19*
X186250000Y-64350000D03*
X179450000Y-64350000D03*
D20*
X192400000Y-70800000D03*
X195200000Y-70800000D03*
D21*
X176100000Y-78060000D03*
D22*
X179900000Y-79100000D03*
D21*
X176100000Y-80140000D03*
X176100000Y-73060000D03*
D22*
X179900000Y-74100000D03*
D21*
X176100000Y-75140000D03*
D11*
X150600000Y-66600000D03*
D12*
X148100000Y-66600000D03*
X145600000Y-66600000D03*
X143100000Y-66600000D03*
D11*
X150600000Y-73400000D03*
D12*
X148100000Y-73400000D03*
X145600000Y-73400000D03*
X143100000Y-73400000D03*
D23*
X196050000Y-61600000D03*
X193150000Y-61600000D03*
D24*
X195250000Y-68100000D03*
X192350000Y-68100000D03*
D25*
X190250000Y-73700000D03*
D26*
X183950000Y-73700000D03*
X183950000Y-71400000D03*
X183950000Y-76000000D03*
D27*
X144150000Y-71100000D03*
X142250000Y-71100000D03*
X143200000Y-69100000D03*
D28*
X158200000Y-82950000D03*
X158200000Y-81050000D03*
X160200000Y-82000000D03*
D29*
X181950000Y-56000000D03*
X183250000Y-56000000D03*
X182600000Y-58000000D03*
X178350000Y-56000000D03*
X179650000Y-56000000D03*
X179000000Y-58000000D03*
X174750000Y-56000000D03*
X176050000Y-56000000D03*
X175400000Y-58000000D03*
X171150000Y-56000000D03*
X172450000Y-56000000D03*
X171800000Y-58000000D03*
X167550000Y-56000000D03*
X168850000Y-56000000D03*
X168200000Y-58000000D03*
X163950000Y-56000000D03*
X165250000Y-56000000D03*
X164600000Y-58000000D03*
X160350000Y-56000000D03*
X161650000Y-56000000D03*
X161000000Y-58000000D03*
X156750000Y-56000000D03*
X158050000Y-56000000D03*
X157400000Y-58000000D03*
X153150000Y-56000000D03*
X154450000Y-56000000D03*
X153800000Y-58000000D03*
X149550000Y-56000000D03*
X150850000Y-56000000D03*
X150200000Y-58000000D03*
X145950000Y-58300000D03*
X147250000Y-58300000D03*
X146600000Y-60300000D03*
X142350000Y-58300000D03*
X143650000Y-58300000D03*
X143000000Y-60300000D03*
D30*
X184550000Y-79700000D03*
X183050000Y-79700000D03*
X180050000Y-70750000D03*
X178550000Y-70750000D03*
X177500000Y-70750000D03*
X176000000Y-70750000D03*
X184950000Y-84100000D03*
X183450000Y-84100000D03*
X182400000Y-84100000D03*
X180900000Y-84100000D03*
D31*
X145500000Y-71300000D03*
X145500000Y-69800000D03*
D30*
X148300000Y-71200000D03*
X146800000Y-71200000D03*
X146750000Y-69700000D03*
X148250000Y-69700000D03*
X147150000Y-76800000D03*
X148650000Y-76800000D03*
D31*
X155800000Y-82950000D03*
X155800000Y-81450000D03*
X157000000Y-82950000D03*
X157000000Y-81450000D03*
D30*
X174950000Y-65500000D03*
X173450000Y-65500000D03*
D31*
X156700000Y-64800000D03*
X156700000Y-66300000D03*
X159700000Y-64800000D03*
X159700000Y-66300000D03*
X158400000Y-64800000D03*
X158400000Y-66300000D03*
X155400000Y-64800000D03*
X155400000Y-66300000D03*
D30*
X177500000Y-62550000D03*
X176000000Y-62550000D03*
X141200000Y-63800000D03*
X142700000Y-63800000D03*
X194650000Y-57900000D03*
X193150000Y-57900000D03*
X194650000Y-59200000D03*
X193150000Y-59200000D03*
D32*
X196100000Y-56850000D03*
X196100000Y-59750000D03*
D31*
X170100000Y-77800000D03*
X170100000Y-79300000D03*
D32*
X173200000Y-73750000D03*
X173200000Y-70850000D03*
D31*
X174600000Y-80700000D03*
X174600000Y-82200000D03*
D30*
X175750000Y-82300000D03*
X177250000Y-82300000D03*
D31*
X173200000Y-81450000D03*
X173200000Y-79950000D03*
D28*
X151900000Y-77650000D03*
X151900000Y-79550000D03*
X149900000Y-78600000D03*
D33*
X162650000Y-70450000D03*
X162650000Y-70950000D03*
X162650000Y-71450000D03*
X162650000Y-71950000D03*
X162650000Y-72450000D03*
X162650000Y-72950000D03*
X162650000Y-73450000D03*
X162650000Y-73950000D03*
X162650000Y-74450000D03*
X162650000Y-74950000D03*
X162650000Y-75450000D03*
X162650000Y-75950000D03*
D34*
X161050000Y-77550000D03*
X160550000Y-77550000D03*
X160050000Y-77550000D03*
X159550000Y-77550000D03*
X159050000Y-77550000D03*
X158550000Y-77550000D03*
X158050000Y-77550000D03*
X157550000Y-77550000D03*
X157050000Y-77550000D03*
X156550000Y-77550000D03*
X156050000Y-77550000D03*
X155550000Y-77550000D03*
D33*
X153950000Y-75950000D03*
X153950000Y-75450000D03*
X153950000Y-74950000D03*
X153950000Y-74450000D03*
X153950000Y-73950000D03*
X153950000Y-73450000D03*
X153950000Y-72950000D03*
X153950000Y-72450000D03*
X153950000Y-71950000D03*
X153950000Y-71450000D03*
X153950000Y-70950000D03*
X153950000Y-70450000D03*
D34*
X155550000Y-68850000D03*
X156050000Y-68850000D03*
X156550000Y-68850000D03*
X157050000Y-68850000D03*
X157550000Y-68850000D03*
X158050000Y-68850000D03*
X158550000Y-68850000D03*
X159050000Y-68850000D03*
X159550000Y-68850000D03*
X160050000Y-68850000D03*
X160550000Y-68850000D03*
X161050000Y-68850000D03*
D35*
X192275000Y-65700000D03*
X192275000Y-65200000D03*
X192275000Y-64700000D03*
X192275000Y-64200000D03*
X192275000Y-63700000D03*
X194125000Y-63700000D03*
X194125000Y-64200000D03*
X194125000Y-64700000D03*
X194125000Y-65200000D03*
X194125000Y-65700000D03*
D36*
X193200000Y-64100000D03*
X193200000Y-65300000D03*
D37*
X186700000Y-59500000D03*
X186700000Y-59000000D03*
X186700000Y-58500000D03*
X186700000Y-58000000D03*
X186700000Y-57500000D03*
X191100000Y-57500000D03*
X191100000Y-58000000D03*
X191100000Y-58500000D03*
X191100000Y-59000000D03*
X191100000Y-59500000D03*
D38*
X170700000Y-76620000D03*
X170060000Y-76620000D03*
X169400000Y-76620000D03*
X168760000Y-76620000D03*
X168760000Y-74000000D03*
X169400000Y-74000000D03*
X170060000Y-74000000D03*
X170700000Y-74000000D03*
D39*
X167200000Y-82675000D03*
X167200000Y-82025000D03*
X167200000Y-81375000D03*
X167200000Y-80725000D03*
X171600000Y-80725000D03*
X171600000Y-81375000D03*
X171600000Y-82025000D03*
X171600000Y-82675000D03*
D40*
X173425000Y-77200000D03*
D41*
X173100000Y-75050000D03*
D42*
X174400000Y-75050000D03*
D43*
X181650000Y-59900000D03*
X183550000Y-59900000D03*
X178050000Y-59900000D03*
X179950000Y-59900000D03*
X174450000Y-59900000D03*
X176350000Y-59900000D03*
X170850000Y-59900000D03*
X172750000Y-59900000D03*
X167250000Y-59900000D03*
X169150000Y-59900000D03*
X163650000Y-59900000D03*
X165550000Y-59900000D03*
X160050000Y-59900000D03*
X161950000Y-59900000D03*
X156450000Y-59900000D03*
X158350000Y-59900000D03*
X152850000Y-59900000D03*
X154750000Y-59900000D03*
X149250000Y-59900000D03*
X151150000Y-59900000D03*
X145650000Y-62200000D03*
X147550000Y-62200000D03*
X142000000Y-62200000D03*
X143900000Y-62200000D03*
D44*
X194500000Y-82400000D03*
D45*
X191000000Y-82400000D03*
X187500000Y-82400000D03*
D30*
X187550000Y-69400000D03*
X189050000Y-69400000D03*
X175250000Y-67800000D03*
X176750000Y-67800000D03*
D31*
X188700000Y-68100000D03*
X188700000Y-66600000D03*
D30*
X164050000Y-70500000D03*
X165550000Y-70500000D03*
D13*
X143500000Y-81500000D03*
D46*
X148300000Y-80625000D03*
X153900000Y-80625000D03*
D47*
X151100000Y-82775000D03*
D18*
X143750000Y-76200000D03*
X141650000Y-76200000D03*
D30*
X190550000Y-63000000D03*
X189050000Y-63000000D03*
D48*
X200660000Y-58640000D03*
D49*
X203200000Y-58640000D03*
X200660000Y-61180000D03*
X203200000Y-61180000D03*
X200660000Y-63720000D03*
X203200000Y-63720000D03*
X200660000Y-66260000D03*
X203200000Y-66260000D03*
X200660000Y-68800000D03*
X203200000Y-68800000D03*
X200660000Y-71340000D03*
X203200000Y-71340000D03*
X200660000Y-73880000D03*
X203200000Y-73880000D03*
X200660000Y-76420000D03*
X203200000Y-76420000D03*
D14*
X145400000Y-64300000D03*
X143900000Y-64300000D03*
D30*
X169500000Y-69400000D03*
X171000000Y-69400000D03*
M02*
