G04 #@! TF.FileFunction,Copper,L4,Bot,Signal*
%FSLAX46Y46*%
G04 Gerber Fmt 4.6, Leading zero omitted, Abs format (unit mm)*
G04 Created by KiCad (PCBNEW 4.0.7) date 02/25/18 23:04:30*
%MOMM*%
%LPD*%
G01*
G04 APERTURE LIST*
%ADD10C,0.100000*%
%ADD11R,1.750000X1.750000*%
%ADD12C,1.750000*%
%ADD13C,6.000000*%
%ADD14R,0.800000X0.750000*%
%ADD15R,0.750000X0.800000*%
%ADD16R,1.600000X1.000000*%
%ADD17R,1.000000X1.600000*%
%ADD18R,0.600000X0.450000*%
%ADD19R,2.500000X3.300000*%
%ADD20R,1.100000X1.100000*%
%ADD21R,1.270000X1.400000*%
%ADD22R,4.800000X4.720000*%
%ADD23R,0.900000X1.700000*%
%ADD24R,0.900000X2.500000*%
%ADD25R,2.000000X3.800000*%
%ADD26R,2.000000X1.500000*%
%ADD27R,0.800000X0.900000*%
%ADD28R,0.900000X0.800000*%
%ADD29R,0.450000X0.700000*%
%ADD30R,0.500000X0.900000*%
%ADD31R,0.900000X0.500000*%
%ADD32R,1.700000X0.900000*%
%ADD33R,1.300000X0.250000*%
%ADD34R,0.250000X1.300000*%
%ADD35R,0.700000X0.250000*%
%ADD36R,0.640000X1.200000*%
%ADD37R,1.400000X0.300000*%
%ADD38R,0.400000X1.220000*%
%ADD39R,1.450000X0.450000*%
%ADD40R,2.300000X2.500000*%
%ADD41R,1.640000X1.000000*%
%ADD42R,0.350000X1.000000*%
%ADD43R,0.700000X1.300000*%
%ADD44R,1.800000X3.600000*%
%ADD45O,1.800000X3.600000*%
%ADD46O,1.800000X1.100000*%
%ADD47O,2.200000X1.100000*%
%ADD48R,1.700000X1.700000*%
%ADD49O,1.700000X1.700000*%
%ADD50C,0.800000*%
%ADD51C,0.600000*%
%ADD52C,0.250000*%
%ADD53C,0.800000*%
%ADD54C,0.400000*%
%ADD55C,0.600000*%
%ADD56C,1.000000*%
%ADD57C,2.000000*%
%ADD58C,4.000000*%
%ADD59C,2.400000*%
%ADD60C,0.254000*%
G04 APERTURE END LIST*
D10*
D11*
X179200000Y-52800000D03*
D12*
X176700000Y-52800000D03*
X174200000Y-52800000D03*
X171700000Y-52800000D03*
X169200000Y-52800000D03*
X166700000Y-52800000D03*
X164200000Y-52800000D03*
X161700000Y-52800000D03*
X159200000Y-52800000D03*
X156700000Y-52800000D03*
X154200000Y-52800000D03*
X151700000Y-52800000D03*
X149200000Y-52800000D03*
D13*
X201500000Y-81500000D03*
X201500000Y-53500000D03*
X143500000Y-53500000D03*
D14*
X147050000Y-78600000D03*
X148550000Y-78600000D03*
X150450000Y-81000000D03*
X151950000Y-81000000D03*
X155700000Y-79100000D03*
X154200000Y-79100000D03*
D15*
X152400000Y-70650000D03*
X152400000Y-69150000D03*
X151000000Y-70650000D03*
X151000000Y-69150000D03*
X172400000Y-64950000D03*
X172400000Y-66450000D03*
D14*
X169700000Y-66450000D03*
X171200000Y-66450000D03*
X175350000Y-63800000D03*
X176850000Y-63800000D03*
D16*
X190500000Y-65900000D03*
X190500000Y-68900000D03*
D14*
X189050000Y-64300000D03*
X190550000Y-64300000D03*
D15*
X195400000Y-65150000D03*
X195400000Y-63650000D03*
D17*
X192300000Y-72900000D03*
X195300000Y-72900000D03*
D14*
X193000000Y-56100000D03*
X194500000Y-56100000D03*
X191650000Y-56100000D03*
X190150000Y-56100000D03*
X190050000Y-60900000D03*
X191550000Y-60900000D03*
D15*
X168600000Y-79350000D03*
X168600000Y-77850000D03*
X169300000Y-71150000D03*
X169300000Y-72650000D03*
X170400000Y-71150000D03*
X170400000Y-72650000D03*
D18*
X183100000Y-78100000D03*
X185200000Y-78100000D03*
D19*
X186250000Y-64350000D03*
X179450000Y-64350000D03*
D20*
X192400000Y-70800000D03*
X195200000Y-70800000D03*
D21*
X176100000Y-78060000D03*
D22*
X179900000Y-79100000D03*
D21*
X176100000Y-80140000D03*
X176100000Y-73060000D03*
D22*
X179900000Y-74100000D03*
D21*
X176100000Y-75140000D03*
D11*
X150600000Y-66600000D03*
D12*
X148100000Y-66600000D03*
X145600000Y-66600000D03*
X143100000Y-66600000D03*
D11*
X150600000Y-73400000D03*
D12*
X148100000Y-73400000D03*
X145600000Y-73400000D03*
X143100000Y-73400000D03*
D23*
X196050000Y-61600000D03*
X193150000Y-61600000D03*
D24*
X195250000Y-68100000D03*
X192350000Y-68100000D03*
D25*
X190250000Y-73700000D03*
D26*
X183950000Y-73700000D03*
X183950000Y-71400000D03*
X183950000Y-76000000D03*
D27*
X144150000Y-71100000D03*
X142250000Y-71100000D03*
X143200000Y-69100000D03*
D28*
X158200000Y-82950000D03*
X158200000Y-81050000D03*
X160200000Y-82000000D03*
D29*
X181950000Y-56000000D03*
X183250000Y-56000000D03*
X182600000Y-58000000D03*
X178350000Y-56000000D03*
X179650000Y-56000000D03*
X179000000Y-58000000D03*
X174750000Y-56000000D03*
X176050000Y-56000000D03*
X175400000Y-58000000D03*
X171150000Y-56000000D03*
X172450000Y-56000000D03*
X171800000Y-58000000D03*
X167550000Y-56000000D03*
X168850000Y-56000000D03*
X168200000Y-58000000D03*
X163950000Y-56000000D03*
X165250000Y-56000000D03*
X164600000Y-58000000D03*
X160350000Y-56000000D03*
X161650000Y-56000000D03*
X161000000Y-58000000D03*
X156750000Y-56000000D03*
X158050000Y-56000000D03*
X157400000Y-58000000D03*
X153150000Y-56000000D03*
X154450000Y-56000000D03*
X153800000Y-58000000D03*
X149550000Y-56000000D03*
X150850000Y-56000000D03*
X150200000Y-58000000D03*
X145950000Y-58300000D03*
X147250000Y-58300000D03*
X146600000Y-60300000D03*
X142350000Y-58300000D03*
X143650000Y-58300000D03*
X143000000Y-60300000D03*
D30*
X184550000Y-79700000D03*
X183050000Y-79700000D03*
X180050000Y-70750000D03*
X178550000Y-70750000D03*
X177500000Y-70750000D03*
X176000000Y-70750000D03*
X184950000Y-84100000D03*
X183450000Y-84100000D03*
X182400000Y-84100000D03*
X180900000Y-84100000D03*
D31*
X145500000Y-71300000D03*
X145500000Y-69800000D03*
D30*
X148300000Y-71200000D03*
X146800000Y-71200000D03*
X146750000Y-69700000D03*
X148250000Y-69700000D03*
X147150000Y-76800000D03*
X148650000Y-76800000D03*
D31*
X155800000Y-82950000D03*
X155800000Y-81450000D03*
X157000000Y-82950000D03*
X157000000Y-81450000D03*
D30*
X174950000Y-65500000D03*
X173450000Y-65500000D03*
D31*
X156700000Y-64800000D03*
X156700000Y-66300000D03*
X159700000Y-64800000D03*
X159700000Y-66300000D03*
X158400000Y-64800000D03*
X158400000Y-66300000D03*
X155400000Y-64800000D03*
X155400000Y-66300000D03*
D30*
X177500000Y-62550000D03*
X176000000Y-62550000D03*
X141200000Y-63800000D03*
X142700000Y-63800000D03*
X194650000Y-57900000D03*
X193150000Y-57900000D03*
X194650000Y-59200000D03*
X193150000Y-59200000D03*
D32*
X196100000Y-56850000D03*
X196100000Y-59750000D03*
D31*
X170100000Y-77800000D03*
X170100000Y-79300000D03*
D32*
X173200000Y-73750000D03*
X173200000Y-70850000D03*
D31*
X174600000Y-80700000D03*
X174600000Y-82200000D03*
D30*
X175750000Y-82300000D03*
X177250000Y-82300000D03*
D31*
X173200000Y-81450000D03*
X173200000Y-79950000D03*
D28*
X151900000Y-77650000D03*
X151900000Y-79550000D03*
X149900000Y-78600000D03*
D33*
X162650000Y-70450000D03*
X162650000Y-70950000D03*
X162650000Y-71450000D03*
X162650000Y-71950000D03*
X162650000Y-72450000D03*
X162650000Y-72950000D03*
X162650000Y-73450000D03*
X162650000Y-73950000D03*
X162650000Y-74450000D03*
X162650000Y-74950000D03*
X162650000Y-75450000D03*
X162650000Y-75950000D03*
D34*
X161050000Y-77550000D03*
X160550000Y-77550000D03*
X160050000Y-77550000D03*
X159550000Y-77550000D03*
X159050000Y-77550000D03*
X158550000Y-77550000D03*
X158050000Y-77550000D03*
X157550000Y-77550000D03*
X157050000Y-77550000D03*
X156550000Y-77550000D03*
X156050000Y-77550000D03*
X155550000Y-77550000D03*
D33*
X153950000Y-75950000D03*
X153950000Y-75450000D03*
X153950000Y-74950000D03*
X153950000Y-74450000D03*
X153950000Y-73950000D03*
X153950000Y-73450000D03*
X153950000Y-72950000D03*
X153950000Y-72450000D03*
X153950000Y-71950000D03*
X153950000Y-71450000D03*
X153950000Y-70950000D03*
X153950000Y-70450000D03*
D34*
X155550000Y-68850000D03*
X156050000Y-68850000D03*
X156550000Y-68850000D03*
X157050000Y-68850000D03*
X157550000Y-68850000D03*
X158050000Y-68850000D03*
X158550000Y-68850000D03*
X159050000Y-68850000D03*
X159550000Y-68850000D03*
X160050000Y-68850000D03*
X160550000Y-68850000D03*
X161050000Y-68850000D03*
D35*
X192275000Y-65700000D03*
X192275000Y-65200000D03*
X192275000Y-64700000D03*
X192275000Y-64200000D03*
X192275000Y-63700000D03*
X194125000Y-63700000D03*
X194125000Y-64200000D03*
X194125000Y-64700000D03*
X194125000Y-65200000D03*
X194125000Y-65700000D03*
D36*
X193200000Y-64100000D03*
X193200000Y-65300000D03*
D37*
X186700000Y-59500000D03*
X186700000Y-59000000D03*
X186700000Y-58500000D03*
X186700000Y-58000000D03*
X186700000Y-57500000D03*
X191100000Y-57500000D03*
X191100000Y-58000000D03*
X191100000Y-58500000D03*
X191100000Y-59000000D03*
X191100000Y-59500000D03*
D38*
X170700000Y-76620000D03*
X170060000Y-76620000D03*
X169400000Y-76620000D03*
X168760000Y-76620000D03*
X168760000Y-74000000D03*
X169400000Y-74000000D03*
X170060000Y-74000000D03*
X170700000Y-74000000D03*
D39*
X167200000Y-82675000D03*
X167200000Y-82025000D03*
X167200000Y-81375000D03*
X167200000Y-80725000D03*
X171600000Y-80725000D03*
X171600000Y-81375000D03*
X171600000Y-82025000D03*
X171600000Y-82675000D03*
D40*
X173425000Y-77200000D03*
D41*
X173100000Y-75050000D03*
D42*
X174400000Y-75050000D03*
D43*
X181650000Y-59900000D03*
X183550000Y-59900000D03*
X178050000Y-59900000D03*
X179950000Y-59900000D03*
X174450000Y-59900000D03*
X176350000Y-59900000D03*
X170850000Y-59900000D03*
X172750000Y-59900000D03*
X167250000Y-59900000D03*
X169150000Y-59900000D03*
X163650000Y-59900000D03*
X165550000Y-59900000D03*
X160050000Y-59900000D03*
X161950000Y-59900000D03*
X156450000Y-59900000D03*
X158350000Y-59900000D03*
X152850000Y-59900000D03*
X154750000Y-59900000D03*
X149250000Y-59900000D03*
X151150000Y-59900000D03*
X145650000Y-62200000D03*
X147550000Y-62200000D03*
X142000000Y-62200000D03*
X143900000Y-62200000D03*
D44*
X194500000Y-82400000D03*
D45*
X191000000Y-82400000D03*
X187500000Y-82400000D03*
D30*
X187550000Y-69400000D03*
X189050000Y-69400000D03*
X175250000Y-67800000D03*
X176750000Y-67800000D03*
D31*
X188700000Y-68100000D03*
X188700000Y-66600000D03*
D30*
X164050000Y-70500000D03*
X165550000Y-70500000D03*
D13*
X143500000Y-81500000D03*
D46*
X148300000Y-80625000D03*
X153900000Y-80625000D03*
D47*
X151100000Y-82775000D03*
D18*
X143750000Y-76200000D03*
X141650000Y-76200000D03*
D30*
X190550000Y-63000000D03*
X189050000Y-63000000D03*
D48*
X200660000Y-58640000D03*
D49*
X203200000Y-58640000D03*
X200660000Y-61180000D03*
X203200000Y-61180000D03*
X200660000Y-63720000D03*
X203200000Y-63720000D03*
X200660000Y-66260000D03*
X203200000Y-66260000D03*
X200660000Y-68800000D03*
X203200000Y-68800000D03*
X200660000Y-71340000D03*
X203200000Y-71340000D03*
X200660000Y-73880000D03*
X203200000Y-73880000D03*
X200660000Y-76420000D03*
X203200000Y-76420000D03*
D14*
X145400000Y-64300000D03*
X143900000Y-64300000D03*
D30*
X169500000Y-69400000D03*
X171000000Y-69400000D03*
D50*
X148700000Y-82400000D03*
X153500000Y-82400000D03*
D51*
X170500000Y-69259999D03*
X170201971Y-66798029D03*
X146000000Y-64300000D03*
X172900000Y-64500000D03*
X173600000Y-72150000D03*
X170600000Y-75600000D03*
X162400000Y-84200000D03*
X188600000Y-64300000D03*
D50*
X152500000Y-77600000D03*
X151100000Y-83900000D03*
D51*
X194600000Y-70500000D03*
D50*
X154200000Y-64600000D03*
X183600000Y-53300000D03*
X183600000Y-52200000D03*
X183600000Y-51000000D03*
X184800000Y-51000000D03*
X184800000Y-52200000D03*
X184800000Y-53300000D03*
X184800000Y-54500000D03*
X185900000Y-54500000D03*
X185900000Y-53300000D03*
X185900000Y-52200000D03*
X185900000Y-51000000D03*
X187100000Y-51000000D03*
X187100000Y-52200000D03*
X187100000Y-53300000D03*
X187100000Y-54500000D03*
X188300000Y-54500000D03*
X188300000Y-53300000D03*
X188300000Y-52200000D03*
X188300000Y-51000000D03*
X189500000Y-51000000D03*
X189500000Y-52200000D03*
X189500000Y-53300000D03*
X189500000Y-54500000D03*
D51*
X179200000Y-65700000D03*
X179900000Y-65700000D03*
X180600000Y-65500000D03*
X180800000Y-64200000D03*
X144800000Y-76900000D03*
X193100000Y-65900000D03*
X193200000Y-64700000D03*
X194600000Y-73400000D03*
X194600000Y-72800000D03*
X190300000Y-68200000D03*
X195200000Y-64600000D03*
X193200000Y-65300000D03*
X193200000Y-64100000D03*
X194800000Y-72200000D03*
X194900000Y-71600000D03*
X194600000Y-71100000D03*
X189800000Y-60400000D03*
X185900000Y-59350002D03*
X189700000Y-56000000D03*
X189900000Y-58700000D03*
X193400000Y-56100000D03*
X174250000Y-71500000D03*
X174250000Y-72150000D03*
X172300000Y-71500000D03*
X181100000Y-67000000D03*
X175249998Y-70750000D03*
X172950000Y-71500000D03*
X173600000Y-71500000D03*
X172950000Y-72150000D03*
X172300000Y-72150000D03*
X181300000Y-83875000D03*
X155300000Y-79500000D03*
X180800000Y-64850000D03*
X161216522Y-67701725D03*
X161200000Y-73400000D03*
X165600000Y-69100000D03*
X165600000Y-76300000D03*
X168900000Y-82950000D03*
X170000000Y-82950000D03*
X170792801Y-82743199D03*
X174500000Y-81900000D03*
X168717896Y-75877422D03*
X169800000Y-71099998D03*
X168600000Y-77300000D03*
D50*
X152700000Y-83600000D03*
X149400000Y-83600000D03*
D51*
X151700000Y-70700000D03*
X141730806Y-61049998D03*
X145339754Y-61049998D03*
X148939754Y-58749998D03*
X181339754Y-58749999D03*
X177739754Y-58749998D03*
X174139754Y-58749998D03*
X170539754Y-58749998D03*
X166939754Y-58749999D03*
X163339754Y-58749999D03*
X159739754Y-58749999D03*
X156139754Y-58749998D03*
X152539754Y-58749998D03*
D50*
X149300000Y-79400000D03*
D51*
X164400000Y-71900000D03*
X168200000Y-82200000D03*
X167100000Y-79300000D03*
D50*
X192100000Y-63159998D03*
D51*
X141700000Y-76700000D03*
X144900000Y-69800000D03*
D50*
X152700000Y-79300000D03*
D51*
X192800000Y-69300000D03*
X192800000Y-68600000D03*
X192800000Y-67900000D03*
X193000000Y-70700000D03*
X192800000Y-72500000D03*
X192800000Y-67200000D03*
X185000000Y-58700000D03*
X156050000Y-64239998D03*
X159000000Y-64953352D03*
X179900000Y-69799998D03*
X159900000Y-71000000D03*
X162200000Y-68800000D03*
X161200000Y-74900000D03*
X168900000Y-81700000D03*
X170000000Y-81900000D03*
X154200000Y-78600000D03*
X157550002Y-81100000D03*
D50*
X158100000Y-63425038D03*
D51*
X142100000Y-70600000D03*
X151700000Y-69100000D03*
X164400000Y-73500000D03*
X170950000Y-67250000D03*
X175350000Y-63400000D03*
X148651930Y-60984124D03*
X164446381Y-63026118D03*
X144800000Y-62400000D03*
X166370279Y-63429721D03*
X196200000Y-57300000D03*
D50*
X197500000Y-51000000D03*
X196300000Y-51000000D03*
X195100000Y-51000000D03*
X193900000Y-51000000D03*
X191500000Y-51000000D03*
X192700000Y-51000000D03*
X197500000Y-52100000D03*
X196300000Y-52100000D03*
X195100000Y-52100000D03*
X193900000Y-52100000D03*
X191500000Y-52100000D03*
X192700000Y-52100000D03*
X197500000Y-53300000D03*
X196300000Y-53300000D03*
X195100000Y-53300000D03*
X193900000Y-53300000D03*
X191500000Y-53300000D03*
X192700000Y-53300000D03*
X197500000Y-54500000D03*
X196300000Y-54500000D03*
X195100000Y-54500000D03*
X193900000Y-54500000D03*
X192700000Y-54500000D03*
X191500000Y-54500000D03*
D51*
X191100000Y-57349998D03*
X192099998Y-56100000D03*
X193500000Y-57800000D03*
X170800000Y-72700000D03*
X169900000Y-72549999D03*
X188200000Y-75400000D03*
X146800000Y-76300000D03*
X176900000Y-65500000D03*
X178500000Y-62200000D03*
X181300000Y-57900000D03*
X180200000Y-55600000D03*
X177700000Y-57900000D03*
X176500000Y-55600000D03*
X174100000Y-57900000D03*
X173000000Y-55600000D03*
X170478442Y-57929416D03*
X169400000Y-55600000D03*
X166900000Y-57900000D03*
X165800000Y-55600000D03*
X163300000Y-57900000D03*
X162200000Y-55600000D03*
X159700000Y-57900000D03*
X158600000Y-55600000D03*
X155000000Y-55600000D03*
X156100000Y-57900000D03*
X151400000Y-55600000D03*
X152500000Y-57900000D03*
X148141573Y-58696052D03*
X147800000Y-57900000D03*
X144300000Y-57900000D03*
X145300000Y-60200000D03*
X142850002Y-62500000D03*
X168502850Y-64008557D03*
X141700000Y-60200000D03*
X171800000Y-77200000D03*
X172600000Y-76400000D03*
X174200000Y-76400000D03*
X173400000Y-77200000D03*
X173400000Y-76400000D03*
X174200000Y-78000000D03*
X174200000Y-77200000D03*
X172600000Y-77200000D03*
X171800000Y-78000000D03*
X172600000Y-78000000D03*
X173400000Y-78000000D03*
X152799998Y-72000000D03*
X155258058Y-72075000D03*
X155660000Y-69924001D03*
X165250000Y-73049998D03*
X157000000Y-72900000D03*
X151300000Y-71990001D03*
X152100000Y-73100000D03*
X183700000Y-55600000D03*
X159800000Y-81500000D03*
X174250001Y-63249565D03*
X182600000Y-57100000D03*
X173249999Y-63249564D03*
X179000000Y-57100000D03*
X172250001Y-63249565D03*
X175400000Y-57100000D03*
X171250001Y-63249565D03*
X171800000Y-57100000D03*
X170250001Y-63249564D03*
X168200000Y-57100000D03*
X169250001Y-63249565D03*
X164600000Y-57100000D03*
X168250001Y-63249564D03*
X161000000Y-57100000D03*
X167250001Y-63249564D03*
X157375000Y-57100000D03*
X166000000Y-62600000D03*
X153800000Y-57100000D03*
X163641927Y-62858073D03*
X150200000Y-57100000D03*
X165226762Y-62850030D03*
X146575000Y-59400000D03*
X142900000Y-61600000D03*
X167696952Y-63913067D03*
X143000000Y-59400000D03*
X182900000Y-84550000D03*
X180150000Y-84500000D03*
X158650000Y-74000000D03*
X161974212Y-67478097D03*
X185200000Y-56649998D03*
X160250000Y-76000000D03*
X163800000Y-77450000D03*
X160350003Y-70150000D03*
X162615598Y-67016873D03*
X185982244Y-56482377D03*
X159550000Y-75050000D03*
X163395800Y-78304685D03*
X159550000Y-70150000D03*
X169765462Y-64402260D03*
X171341193Y-65443351D03*
X171200000Y-64600000D03*
X170739807Y-63869397D03*
X154800000Y-63800000D03*
X154800000Y-66500000D03*
X161971648Y-64328352D03*
D50*
X178700000Y-81600000D03*
D51*
X186600000Y-67100000D03*
X185800000Y-67100000D03*
X185000000Y-67100000D03*
X184200000Y-67100000D03*
X184200000Y-66300000D03*
X183400000Y-67100000D03*
X183400000Y-66300000D03*
D50*
X182300000Y-80900000D03*
X181550000Y-81300000D03*
X180800000Y-80900000D03*
X180050000Y-81300000D03*
X179300000Y-80900000D03*
X178200000Y-80900000D03*
X177700000Y-81600000D03*
D51*
X164741131Y-82348017D03*
X164572761Y-81543237D03*
X164978352Y-83124980D03*
X167500000Y-70500000D03*
X149324000Y-77515000D03*
X180000000Y-68300000D03*
X166500000Y-70400000D03*
X173249999Y-68935105D03*
X182400000Y-64000000D03*
X190050000Y-63000000D03*
X188200000Y-66200000D03*
X164900000Y-67100000D03*
X143800000Y-75800000D03*
X172500000Y-67250000D03*
X149134990Y-69300000D03*
X182400000Y-65000000D03*
X164200000Y-67900000D03*
X187500000Y-68800000D03*
X187020674Y-61920674D03*
X188500000Y-63000000D03*
X149000000Y-70200000D03*
X155400000Y-74000000D03*
X169750000Y-68935106D03*
X176400000Y-64050000D03*
D52*
X171000000Y-69400000D02*
X170640001Y-69400000D01*
X170640001Y-69400000D02*
X170500000Y-69259999D01*
X169700000Y-66450000D02*
X169853942Y-66450000D01*
X169853942Y-66450000D02*
X170201971Y-66798029D01*
X145400000Y-64300000D02*
X146000000Y-64300000D01*
X172400000Y-64950000D02*
X172450000Y-64950000D01*
X172450000Y-64950000D02*
X172900000Y-64500000D01*
X172950000Y-72150000D02*
X173600000Y-72150000D01*
D53*
X173200000Y-70850000D02*
X173600000Y-70850000D01*
X173600000Y-70850000D02*
X174250000Y-71500000D01*
X173600000Y-71500000D02*
X172950000Y-71500000D01*
X174250000Y-71500000D02*
X173600000Y-71500000D01*
X174250000Y-72150000D02*
X174250000Y-71500000D01*
X172950000Y-72150000D02*
X174250000Y-72150000D01*
X172300000Y-72150000D02*
X172950000Y-72150000D01*
X172300000Y-71500000D02*
X172300000Y-72150000D01*
X173200000Y-70850000D02*
X172950000Y-70850000D01*
X172950000Y-70850000D02*
X172300000Y-71500000D01*
D52*
X170700000Y-76620000D02*
X170700000Y-75700000D01*
X170700000Y-75700000D02*
X170600000Y-75600000D01*
X189050000Y-64300000D02*
X188600000Y-64300000D01*
D54*
X151900000Y-77650000D02*
X152450000Y-77650000D01*
X152450000Y-77650000D02*
X152500000Y-77600000D01*
X150450000Y-81000000D02*
X150450000Y-82850000D01*
X150450000Y-82850000D02*
X151100000Y-83500000D01*
D52*
X183600000Y-52200000D02*
X183600000Y-53300000D01*
X184800000Y-51000000D02*
X183600000Y-51000000D01*
X184800000Y-53300000D02*
X184800000Y-52200000D01*
X185900000Y-54500000D02*
X184800000Y-54500000D01*
X185900000Y-52200000D02*
X185900000Y-53300000D01*
X187100000Y-51000000D02*
X185900000Y-51000000D01*
X187100000Y-53300000D02*
X187100000Y-52200000D01*
X188300000Y-54500000D02*
X187100000Y-54500000D01*
X188300000Y-52200000D02*
X188300000Y-53300000D01*
X189500000Y-51000000D02*
X188300000Y-51000000D01*
X189500000Y-53300000D02*
X189500000Y-52200000D01*
X190150000Y-56100000D02*
X190150000Y-55150000D01*
X190150000Y-55150000D02*
X189500000Y-54500000D01*
X179450000Y-64350000D02*
X180650000Y-64350000D01*
X180650000Y-64350000D02*
X180800000Y-64200000D01*
X190500000Y-68800000D02*
X190500000Y-68400000D01*
X190500000Y-68400000D02*
X190300000Y-68200000D01*
X195400000Y-65150000D02*
X195400000Y-64800000D01*
X195400000Y-64800000D02*
X195200000Y-64600000D01*
X194125000Y-65200000D02*
X195350000Y-65200000D01*
X195350000Y-65200000D02*
X195400000Y-65150000D01*
X194125000Y-65200000D02*
X193300000Y-65200000D01*
X193300000Y-65200000D02*
X193200000Y-65300000D01*
X192275000Y-65700000D02*
X192800000Y-65700000D01*
X192800000Y-65700000D02*
X193200000Y-65300000D01*
D55*
X194900000Y-71600000D02*
X194900000Y-72100000D01*
X194900000Y-72100000D02*
X194800000Y-72200000D01*
X195200000Y-70800000D02*
X194900000Y-70800000D01*
X194900000Y-70800000D02*
X194600000Y-71100000D01*
X195300000Y-72800000D02*
X195300000Y-70900000D01*
X195300000Y-70900000D02*
X195200000Y-70800000D01*
D52*
X191100000Y-58000000D02*
X190150000Y-58000000D01*
X190150000Y-58000000D02*
X189900000Y-58250000D01*
X189900000Y-58250000D02*
X189900000Y-58275736D01*
X189900000Y-58275736D02*
X189900000Y-58700000D01*
X190050000Y-60900000D02*
X190050000Y-60650000D01*
X190050000Y-60650000D02*
X189800000Y-60400000D01*
X186700000Y-59500000D02*
X186049998Y-59500000D01*
X186049998Y-59500000D02*
X185900000Y-59350002D01*
X186700000Y-59000000D02*
X186700000Y-59500000D01*
X186700000Y-58500000D02*
X186700000Y-59000000D01*
X190150000Y-56100000D02*
X189800000Y-56100000D01*
X189800000Y-56100000D02*
X189700000Y-56000000D01*
X193000000Y-56100000D02*
X193400000Y-56100000D01*
X176000000Y-70750000D02*
X175249998Y-70750000D01*
X180900000Y-84100000D02*
X181075000Y-84100000D01*
X181075000Y-84100000D02*
X181300000Y-83875000D01*
X155700000Y-79100000D02*
X155300000Y-79500000D01*
X160550000Y-68850000D02*
X160550000Y-67950000D01*
X160550000Y-67950000D02*
X160798275Y-67701725D01*
X160798275Y-67701725D02*
X161216522Y-67701725D01*
X161200000Y-73400000D02*
X161750000Y-73950000D01*
X161750000Y-73950000D02*
X162650000Y-73950000D01*
X171600000Y-82675000D02*
X170861000Y-82675000D01*
X170861000Y-82675000D02*
X170792801Y-82743199D01*
X174600000Y-82200000D02*
X174600000Y-82000000D01*
X174600000Y-82000000D02*
X174500000Y-81900000D01*
X168717896Y-75877422D02*
X168717896Y-76577896D01*
X168717896Y-76577896D02*
X168760000Y-76620000D01*
X169800000Y-71099998D02*
X169350002Y-71099998D01*
X169350002Y-71099998D02*
X169300000Y-71150000D01*
X170400000Y-71150000D02*
X169850002Y-71150000D01*
X169850002Y-71150000D02*
X169800000Y-71099998D01*
X168600000Y-77300000D02*
X168600000Y-76780000D01*
X168600000Y-76780000D02*
X168760000Y-76620000D01*
X168600000Y-77850000D02*
X168600000Y-77300000D01*
X156050000Y-77550000D02*
X156050000Y-78750000D01*
X156050000Y-78750000D02*
X155700000Y-79100000D01*
X151000000Y-70650000D02*
X151650000Y-70650000D01*
X151650000Y-70650000D02*
X151700000Y-70700000D01*
X152400000Y-70650000D02*
X151750000Y-70650000D01*
X151750000Y-70650000D02*
X151700000Y-70700000D01*
X153950000Y-70950000D02*
X152700000Y-70950000D01*
X152700000Y-70950000D02*
X152400000Y-70650000D01*
D54*
X148550000Y-78600000D02*
X148550000Y-78650000D01*
X148550000Y-78650000D02*
X149300000Y-79400000D01*
X149300000Y-79400000D02*
X149300000Y-79200000D01*
X149300000Y-79200000D02*
X149900000Y-78600000D01*
D52*
X162650000Y-72450000D02*
X163850000Y-72450000D01*
X163850000Y-72450000D02*
X164400000Y-71900000D01*
X168200000Y-82200000D02*
X167675000Y-82200000D01*
X167675000Y-82200000D02*
X167200000Y-82675000D01*
X192100000Y-63159998D02*
X192100000Y-63525000D01*
X192100000Y-63525000D02*
X192275000Y-63700000D01*
X141650000Y-76200000D02*
X141650000Y-76650000D01*
X141650000Y-76650000D02*
X141700000Y-76700000D01*
X145500000Y-69800000D02*
X144900000Y-69800000D01*
D54*
X151900000Y-79550000D02*
X152450000Y-79550000D01*
X152450000Y-79550000D02*
X152700000Y-79300000D01*
X151950000Y-81000000D02*
X151950000Y-79600000D01*
X151950000Y-79600000D02*
X151900000Y-79550000D01*
D53*
X192800000Y-68600000D02*
X192800000Y-69300000D01*
X192800000Y-67900000D02*
X192800000Y-68600000D01*
X192800000Y-67200000D02*
X192800000Y-67900000D01*
D52*
X192350000Y-68100000D02*
X192600000Y-68100000D01*
X192600000Y-68100000D02*
X192800000Y-67900000D01*
X192400000Y-70800000D02*
X192900000Y-70800000D01*
X192900000Y-70800000D02*
X193000000Y-70700000D01*
X192300000Y-72800000D02*
X192500000Y-72800000D01*
X192500000Y-72800000D02*
X192800000Y-72500000D01*
X192350000Y-68100000D02*
X192350000Y-67650000D01*
X192350000Y-67650000D02*
X192800000Y-67200000D01*
D53*
X192400000Y-70800000D02*
X192400000Y-68150000D01*
X192400000Y-68150000D02*
X192350000Y-68100000D01*
X192300000Y-72800000D02*
X192300000Y-70900000D01*
X192300000Y-70900000D02*
X192400000Y-70800000D01*
D52*
X156050000Y-64239998D02*
X155960002Y-64239998D01*
X155960002Y-64239998D02*
X155400000Y-64800000D01*
X156700000Y-64800000D02*
X156610002Y-64800000D01*
X156610002Y-64800000D02*
X156050000Y-64239998D01*
X159000000Y-64953352D02*
X159546648Y-64953352D01*
X159546648Y-64953352D02*
X159700000Y-64800000D01*
X158400000Y-64800000D02*
X158846648Y-64800000D01*
X158846648Y-64800000D02*
X159000000Y-64953352D01*
X161800000Y-69600000D02*
X161050000Y-68850000D01*
X162650000Y-70450000D02*
X161800000Y-69600000D01*
X161800000Y-69600000D02*
X161800000Y-69200000D01*
X161800000Y-69200000D02*
X162200000Y-68800000D01*
X161050000Y-68850000D02*
X162150000Y-68850000D01*
X162150000Y-68850000D02*
X162200000Y-68800000D01*
X161200000Y-74900000D02*
X161650000Y-74450000D01*
X161650000Y-74450000D02*
X162650000Y-74450000D01*
X167200000Y-82025000D02*
X168575000Y-82025000D01*
X168575000Y-82025000D02*
X168900000Y-81700000D01*
X167200000Y-82025000D02*
X167200000Y-82675000D01*
X170000000Y-81900000D02*
X170125000Y-82025000D01*
X170125000Y-82025000D02*
X171600000Y-82025000D01*
X154200000Y-79100000D02*
X154200000Y-78600000D01*
X154200000Y-79100000D02*
X154200000Y-78900000D01*
X154200000Y-78900000D02*
X155550000Y-77550000D01*
X157550002Y-81100000D02*
X157350000Y-81100000D01*
X157350000Y-81100000D02*
X157000000Y-81450000D01*
X158200000Y-81050000D02*
X157600002Y-81050000D01*
X157600002Y-81050000D02*
X157550002Y-81100000D01*
X142250000Y-71100000D02*
X142250000Y-70750000D01*
X142250000Y-70750000D02*
X142100000Y-70600000D01*
X153950000Y-70450000D02*
X153700000Y-70450000D01*
X153700000Y-70450000D02*
X152400000Y-69150000D01*
X152400000Y-69150000D02*
X151750000Y-69150000D01*
X151750000Y-69150000D02*
X151700000Y-69100000D01*
X151000000Y-69150000D02*
X151650000Y-69150000D01*
X151650000Y-69150000D02*
X151700000Y-69100000D01*
X162650000Y-72950000D02*
X163850000Y-72950000D01*
X163850000Y-72950000D02*
X164400000Y-73500000D01*
X170950000Y-67250000D02*
X170950000Y-66700000D01*
X170950000Y-66700000D02*
X171200000Y-66450000D01*
X176000000Y-62550000D02*
X176000000Y-62750000D01*
X176000000Y-62750000D02*
X175350000Y-63400000D01*
X175350000Y-63400000D02*
X175350000Y-63800000D01*
D54*
X176000000Y-62550000D02*
X176000000Y-63150000D01*
X176000000Y-63150000D02*
X175350000Y-63800000D01*
D52*
X153188601Y-61325011D02*
X148992817Y-61325011D01*
X148992817Y-61325011D02*
X148651930Y-60984124D01*
X156602201Y-61775021D02*
X153638610Y-61775020D01*
X153638610Y-61775020D02*
X153188601Y-61325011D01*
X160169387Y-62250029D02*
X157077208Y-62250028D01*
X157077208Y-62250028D02*
X156602201Y-61775021D01*
X162848228Y-63125048D02*
X161044405Y-63125047D01*
X161044405Y-63125047D02*
X160169387Y-62250029D01*
X164446381Y-63026118D02*
X163989425Y-63483074D01*
X163989425Y-63483074D02*
X163206254Y-63483074D01*
X163206254Y-63483074D02*
X162848228Y-63125048D01*
D55*
X190500000Y-65800000D02*
X189069202Y-65800000D01*
X189069202Y-65800000D02*
X188679201Y-65409999D01*
X188679201Y-65409999D02*
X187590001Y-65409999D01*
X187590001Y-65409999D02*
X186530002Y-64350000D01*
X186530002Y-64350000D02*
X186250000Y-64350000D01*
D53*
X193150000Y-61600000D02*
X192884999Y-61865001D01*
X192884999Y-61865001D02*
X188334999Y-61865001D01*
X188334999Y-61865001D02*
X187500000Y-62700000D01*
X187500000Y-62700000D02*
X187500000Y-63100000D01*
X187500000Y-63100000D02*
X186250000Y-64350000D01*
D52*
X192275000Y-65200000D02*
X191675000Y-65200000D01*
X191675000Y-65200000D02*
X191300000Y-65575000D01*
X192275000Y-65200000D02*
X192250002Y-65200000D01*
D55*
X187000000Y-63600000D02*
X186250000Y-64350000D01*
X193150000Y-61600000D02*
X193150000Y-62000000D01*
D52*
X192275000Y-64200000D02*
X190650000Y-64200000D01*
X190650000Y-64200000D02*
X190550000Y-64300000D01*
X194125000Y-63700000D02*
X195350000Y-63700000D01*
X195350000Y-63700000D02*
X195400000Y-63650000D01*
D55*
X196200000Y-57300000D02*
X197200000Y-57300000D01*
X197200000Y-57300000D02*
X197400000Y-57100000D01*
D52*
X191100000Y-58500000D02*
X192035002Y-58500000D01*
X192035002Y-58500000D02*
X192574999Y-57960003D01*
X192574999Y-57960003D02*
X192574999Y-57189999D01*
X192574999Y-57189999D02*
X192964997Y-56800001D01*
X192964997Y-56800001D02*
X194599999Y-56800001D01*
X194599999Y-56800001D02*
X195200000Y-56200000D01*
X194500000Y-56100000D02*
X195500000Y-57100000D01*
X194650000Y-57900000D02*
X195050000Y-57900000D01*
X195050000Y-57900000D02*
X196100000Y-56850000D01*
D56*
X193900000Y-53300000D02*
X193900000Y-52100000D01*
X191500000Y-52100000D02*
X191500000Y-51000000D01*
X191500000Y-53300000D02*
X191500000Y-52100000D01*
X191500000Y-54500000D02*
X191500000Y-53300000D01*
X192700000Y-54500000D02*
X191500000Y-54500000D01*
D57*
X192700000Y-53300000D02*
X193900000Y-53300000D01*
X193900000Y-52100000D02*
X192700000Y-52100000D01*
X195100000Y-52100000D02*
X193900000Y-52100000D01*
X196300000Y-52100000D02*
X195100000Y-52100000D01*
X196300000Y-53300000D02*
X196300000Y-52100000D01*
D56*
X196300000Y-54500000D02*
X196300000Y-53300000D01*
X197500000Y-54500000D02*
X196300000Y-54500000D01*
X197500000Y-53300000D02*
X197500000Y-54500000D01*
X197500000Y-52100000D02*
X197500000Y-53300000D01*
X197500000Y-51000000D02*
X197500000Y-52100000D01*
X196300000Y-51000000D02*
X197500000Y-51000000D01*
X195100000Y-51000000D02*
X196300000Y-51000000D01*
X193900000Y-51000000D02*
X195100000Y-51000000D01*
X192700000Y-51000000D02*
X193900000Y-51000000D01*
X191500000Y-51000000D02*
X192700000Y-51000000D01*
D55*
X192600000Y-54500000D02*
X193700000Y-54500000D01*
X195200000Y-55000000D02*
X192000000Y-55000000D01*
X192000000Y-55000000D02*
X191500000Y-54500000D01*
D57*
X200300000Y-61220000D02*
X200300000Y-60000000D01*
X200300000Y-60000000D02*
X198980000Y-58680000D01*
X195200000Y-55000000D02*
X195200000Y-53700000D01*
X196800000Y-55400000D02*
X200080000Y-58680000D01*
X200440000Y-58400000D02*
X203200000Y-58400000D01*
X196800000Y-55016002D02*
X196800000Y-55400000D01*
X195200000Y-55000000D02*
X196783998Y-55000000D01*
X196783998Y-55000000D02*
X196800000Y-55016002D01*
X195200000Y-56200000D02*
X195200000Y-55000000D01*
X195500000Y-56500000D02*
X195200000Y-56200000D01*
X198980000Y-58680000D02*
X197400000Y-57100000D01*
X200300000Y-58680000D02*
X198980000Y-58680000D01*
X202840000Y-61220000D02*
X200300000Y-58680000D01*
X203300000Y-58700000D02*
X203300000Y-61240000D01*
X200300000Y-58680000D02*
X200300000Y-61220000D01*
X202840000Y-61220000D02*
X200300000Y-61220000D01*
D52*
X191100000Y-57500000D02*
X191100000Y-57349998D01*
X192099998Y-56100000D02*
X191650000Y-56100000D01*
X193150000Y-57900000D02*
X193400000Y-57900000D01*
X193400000Y-57900000D02*
X193500000Y-57800000D01*
X193150000Y-57900000D02*
X193150000Y-58021412D01*
X193150000Y-58021412D02*
X192171412Y-59000000D01*
X192171412Y-59000000D02*
X192050000Y-59000000D01*
X192050000Y-59000000D02*
X191100000Y-59000000D01*
X191100000Y-59500000D02*
X192850000Y-59500000D01*
X191550000Y-60900000D02*
X191550000Y-59950000D01*
X191550000Y-59950000D02*
X191100000Y-59500000D01*
X192850000Y-59500000D02*
X193150000Y-59200000D01*
X170100000Y-79300000D02*
X168650000Y-79300000D01*
X168650000Y-79300000D02*
X168600000Y-79350000D01*
D54*
X170400000Y-72650000D02*
X170750000Y-72650000D01*
X170750000Y-72650000D02*
X170800000Y-72700000D01*
X169100000Y-72850000D02*
X169300000Y-72650000D01*
X169272001Y-72999999D02*
X169100000Y-72999999D01*
X169400000Y-74000000D02*
X169400000Y-73127998D01*
X169400000Y-73127998D02*
X169272001Y-72999999D01*
X169999999Y-72999999D02*
X170349998Y-72650000D01*
X170349998Y-72650000D02*
X170400000Y-72650000D01*
X169547999Y-72999999D02*
X169999999Y-72999999D01*
X169400000Y-74000000D02*
X169400000Y-73147998D01*
X169400000Y-73147998D02*
X169547999Y-72999999D01*
D52*
X170400000Y-72650000D02*
X170000001Y-72650000D01*
X170000001Y-72650000D02*
X169900000Y-72549999D01*
D54*
X188200000Y-75400000D02*
X184550000Y-75400000D01*
X184550000Y-75400000D02*
X183950000Y-76000000D01*
X183950000Y-76000000D02*
X184200000Y-76000000D01*
X183950000Y-76000000D02*
X183950000Y-76850000D01*
X183950000Y-76850000D02*
X185200000Y-78100000D01*
X184550000Y-79700000D02*
X184550000Y-78750000D01*
X184550000Y-78750000D02*
X185200000Y-78100000D01*
D52*
X147150000Y-76800000D02*
X147150000Y-76650000D01*
X147150000Y-76650000D02*
X146800000Y-76300000D01*
X175300000Y-65500000D02*
X176900000Y-65500000D01*
X174950000Y-65500000D02*
X175300000Y-65500000D01*
D54*
X178500000Y-62250000D02*
X177800000Y-62250000D01*
X177800000Y-62250000D02*
X177500000Y-62550000D01*
D52*
X181650000Y-59900000D02*
X181650000Y-59850000D01*
X181650000Y-59850000D02*
X181175000Y-59375000D01*
X181175000Y-59375000D02*
X181039753Y-59375000D01*
X181039753Y-59375000D02*
X180714753Y-59050000D01*
X180714753Y-59050000D02*
X180714753Y-58485247D01*
X180714753Y-58485247D02*
X181000001Y-58199999D01*
X181000001Y-58199999D02*
X181300000Y-57900000D01*
X179650000Y-56000000D02*
X179800000Y-56000000D01*
X179800000Y-56000000D02*
X180200000Y-55600000D01*
X178050000Y-59900000D02*
X178050000Y-59850000D01*
X178050000Y-59850000D02*
X177574999Y-59374999D01*
X177574999Y-59374999D02*
X177439753Y-59374999D01*
X177439753Y-59374999D02*
X177114753Y-59049999D01*
X177114753Y-59049999D02*
X177114753Y-58485247D01*
X177114753Y-58485247D02*
X177400001Y-58199999D01*
X177400001Y-58199999D02*
X177700000Y-57900000D01*
X176050000Y-56000000D02*
X176100000Y-56000000D01*
X176100000Y-56000000D02*
X176500000Y-55600000D01*
X174450000Y-59900000D02*
X174450000Y-59550000D01*
X174450000Y-59550000D02*
X174274999Y-59374999D01*
X174274999Y-59374999D02*
X173839753Y-59374999D01*
X173839753Y-59374999D02*
X173514753Y-59049999D01*
X173514753Y-59049999D02*
X173514753Y-58485247D01*
X173514753Y-58485247D02*
X173800001Y-58199999D01*
X173800001Y-58199999D02*
X174100000Y-57900000D01*
X172450000Y-56000000D02*
X172600000Y-56000000D01*
X172600000Y-56000000D02*
X173000000Y-55600000D01*
X170239753Y-58124997D02*
X170282861Y-58124997D01*
X170282861Y-58124997D02*
X170478442Y-57929416D01*
X170850000Y-59900000D02*
X170850000Y-59850000D01*
X170850000Y-59850000D02*
X170374999Y-59374999D01*
X170374999Y-59374999D02*
X170239753Y-59374999D01*
X170239753Y-59374999D02*
X169914753Y-59049999D01*
X169914753Y-59049999D02*
X169914753Y-58449997D01*
X169914753Y-58449997D02*
X170239753Y-58124997D01*
X168850000Y-56000000D02*
X169000000Y-56000000D01*
X169000000Y-56000000D02*
X169400000Y-55600000D01*
X167250000Y-59900000D02*
X167250000Y-59850000D01*
X167250000Y-59850000D02*
X166775000Y-59375000D01*
X166775000Y-59375000D02*
X166639753Y-59375000D01*
X166639753Y-59375000D02*
X166314753Y-59050000D01*
X166314753Y-59050000D02*
X166314753Y-58485247D01*
X166314753Y-58485247D02*
X166600001Y-58199999D01*
X166600001Y-58199999D02*
X166900000Y-57900000D01*
X165250000Y-56000000D02*
X165400000Y-56000000D01*
X165400000Y-56000000D02*
X165800000Y-55600000D01*
X163650000Y-59900000D02*
X163650000Y-59850000D01*
X163650000Y-59850000D02*
X163175000Y-59375000D01*
X163175000Y-59375000D02*
X163039753Y-59375000D01*
X163039753Y-59375000D02*
X162714753Y-59050000D01*
X162714753Y-59050000D02*
X162714753Y-58485247D01*
X162714753Y-58485247D02*
X163000001Y-58199999D01*
X163000001Y-58199999D02*
X163300000Y-57900000D01*
X161650000Y-56000000D02*
X161800000Y-56000000D01*
X161800000Y-56000000D02*
X162200000Y-55600000D01*
X160050000Y-59900000D02*
X160050000Y-59750000D01*
X160050000Y-59750000D02*
X159675000Y-59375000D01*
X159675000Y-59375000D02*
X159439753Y-59375000D01*
X159439753Y-59375000D02*
X159114753Y-59050000D01*
X159114753Y-59050000D02*
X159114753Y-58485247D01*
X159114753Y-58485247D02*
X159400001Y-58199999D01*
X159400001Y-58199999D02*
X159700000Y-57900000D01*
X158050000Y-56000000D02*
X158200000Y-56000000D01*
X158200000Y-56000000D02*
X158600000Y-55600000D01*
X154450000Y-56000000D02*
X154600000Y-56000000D01*
X154600000Y-56000000D02*
X155000000Y-55600000D01*
X156450000Y-59900000D02*
X156364754Y-59900000D01*
X156364754Y-59900000D02*
X155514753Y-59049999D01*
X155514753Y-59049999D02*
X155514753Y-58485247D01*
X155514753Y-58485247D02*
X156100000Y-57900000D01*
X150850000Y-56000000D02*
X151000000Y-56000000D01*
X151000000Y-56000000D02*
X151400000Y-55600000D01*
X152850000Y-59900000D02*
X152850000Y-59850000D01*
X152850000Y-59850000D02*
X152374999Y-59374999D01*
X152374999Y-59374999D02*
X152239753Y-59374999D01*
X152239753Y-59374999D02*
X151914753Y-59049999D01*
X151914753Y-59049999D02*
X151914753Y-58485247D01*
X151914753Y-58485247D02*
X152200001Y-58199999D01*
X152200001Y-58199999D02*
X152500000Y-57900000D01*
X149250000Y-59900000D02*
X148650000Y-59900000D01*
X148650000Y-59900000D02*
X148141573Y-59391573D01*
X148141573Y-59391573D02*
X148141573Y-58696052D01*
X147250000Y-58300000D02*
X147400000Y-58300000D01*
X147400000Y-58300000D02*
X147800000Y-57900000D01*
D54*
X151700000Y-53000000D02*
X150825001Y-53874999D01*
X150825001Y-53874999D02*
X150212003Y-53874999D01*
X150212003Y-53874999D02*
X146537003Y-57549999D01*
X146537003Y-57549999D02*
X144650001Y-57549999D01*
X144650001Y-57549999D02*
X144599999Y-57600001D01*
X144599999Y-57600001D02*
X144300000Y-57900000D01*
D52*
X143650000Y-58300000D02*
X143900000Y-58300000D01*
X143900000Y-58300000D02*
X144300000Y-57900000D01*
X145650000Y-62200000D02*
X145650000Y-62050000D01*
X145650000Y-62050000D02*
X145274999Y-61674999D01*
X145274999Y-61674999D02*
X145039753Y-61674999D01*
X145039753Y-61674999D02*
X144714753Y-61349999D01*
X144714753Y-61349999D02*
X144714753Y-60785247D01*
X144714753Y-60785247D02*
X145000001Y-60499999D01*
X145000001Y-60499999D02*
X145300000Y-60200000D01*
X143900000Y-64300000D02*
X143200000Y-64300000D01*
X143200000Y-64300000D02*
X142700000Y-63800000D01*
X142700000Y-63800000D02*
X142700000Y-62650002D01*
X142700000Y-62650002D02*
X142850002Y-62500000D01*
X142000000Y-62200000D02*
X142000000Y-63000000D01*
X142000000Y-63000000D02*
X141200000Y-63800000D01*
X141430805Y-60424997D02*
X141475003Y-60424997D01*
X141475003Y-60424997D02*
X141700000Y-60200000D01*
X141105805Y-60749997D02*
X141430805Y-60424997D01*
X142000000Y-62200000D02*
X142000000Y-62000000D01*
X142000000Y-62000000D02*
X141674999Y-61674999D01*
X141674999Y-61674999D02*
X141430805Y-61674999D01*
X141430805Y-61674999D02*
X141105805Y-61349999D01*
X141105805Y-61349999D02*
X141105805Y-60749997D01*
D56*
X176100000Y-78060000D02*
X176100000Y-75140000D01*
D53*
X173400000Y-77200000D02*
X173500000Y-77200000D01*
X173500000Y-77200000D02*
X174600000Y-78300000D01*
X171809485Y-78000819D02*
X172600000Y-78000819D01*
X171800000Y-77200000D02*
X171800000Y-77991334D01*
X171800000Y-77991334D02*
X171809485Y-78000819D01*
X172600000Y-77200000D02*
X171800000Y-77200000D01*
D54*
X176100000Y-75140000D02*
X176100000Y-73060000D01*
X176100000Y-78060000D02*
X176100000Y-80140000D01*
X173425000Y-77200000D02*
X175240000Y-77200000D01*
X175240000Y-77200000D02*
X176100000Y-78060000D01*
D52*
X153950000Y-72450000D02*
X153050000Y-72450000D01*
X153050000Y-72450000D02*
X152799998Y-72199998D01*
X152799998Y-72199998D02*
X152799998Y-72000000D01*
X155258058Y-72075000D02*
X155133058Y-71950000D01*
X155133058Y-71950000D02*
X153950000Y-71950000D01*
X155550000Y-68850000D02*
X155550000Y-69814001D01*
X155550000Y-69814001D02*
X155660000Y-69924001D01*
X162650000Y-73450000D02*
X163424998Y-73450000D01*
X163424998Y-73450000D02*
X164099999Y-74125001D01*
X164099999Y-74125001D02*
X164700001Y-74125001D01*
X164700001Y-74125001D02*
X165250000Y-73575002D01*
X165250000Y-73575002D02*
X165250000Y-73049998D01*
X153950000Y-71450000D02*
X155550000Y-71450000D01*
X155550000Y-71450000D02*
X157000000Y-72900000D01*
X150200000Y-71192002D02*
X150200000Y-68700000D01*
X150200000Y-68700000D02*
X149400000Y-67900000D01*
X152184997Y-71615003D02*
X151934995Y-71365001D01*
X151934995Y-71365001D02*
X150372999Y-71365001D01*
X150372999Y-71365001D02*
X150200000Y-71192002D01*
X152824996Y-72950000D02*
X152824996Y-72935200D01*
X152824996Y-72935200D02*
X152184997Y-72295201D01*
X152184997Y-72295201D02*
X152184997Y-71615003D01*
X149400000Y-67900000D02*
X148100000Y-66600000D01*
X153950000Y-72950000D02*
X152824996Y-72950000D01*
X151300000Y-71990001D02*
X150375731Y-71990001D01*
X150375731Y-71990001D02*
X149759990Y-71374260D01*
X149759990Y-71374260D02*
X149759990Y-68882258D01*
X149759990Y-68882258D02*
X149088866Y-68211134D01*
X149088866Y-68211134D02*
X147211134Y-68211134D01*
X147211134Y-68211134D02*
X145600000Y-66600000D01*
X152350000Y-73450000D02*
X152350000Y-73350000D01*
X152350000Y-73350000D02*
X152100000Y-73100000D01*
X152885002Y-73450000D02*
X152350000Y-73450000D01*
X153950000Y-73450000D02*
X152885002Y-73450000D01*
X143100000Y-66600000D02*
X143100000Y-69000000D01*
X143100000Y-69000000D02*
X143200000Y-69100000D01*
D54*
X179200000Y-53000000D02*
X181300000Y-55100000D01*
X181300000Y-55100000D02*
X183200000Y-55100000D01*
X183200000Y-55100000D02*
X183700000Y-55600000D01*
D52*
X183250000Y-56000000D02*
X183300000Y-56000000D01*
X183300000Y-56000000D02*
X183700000Y-55600000D01*
X194125000Y-65700000D02*
X194125000Y-65815002D01*
X194125000Y-65815002D02*
X194020001Y-65920001D01*
D55*
X194020001Y-65920001D02*
X194100000Y-66000000D01*
X194100000Y-66150000D02*
X194100000Y-66000000D01*
X195250000Y-68100000D02*
X195250000Y-67300000D01*
X195250000Y-67300000D02*
X194100000Y-66150000D01*
D52*
X159800000Y-81500000D02*
X159800000Y-81600000D01*
X159800000Y-81600000D02*
X160200000Y-82000000D01*
X145500000Y-71300000D02*
X146700000Y-71300000D01*
X146700000Y-71300000D02*
X146800000Y-71200000D01*
X145500000Y-71300000D02*
X144350000Y-71300000D01*
X144350000Y-71300000D02*
X144150000Y-71100000D01*
X157000000Y-82950000D02*
X155800000Y-82950000D01*
X158200000Y-82950000D02*
X157000000Y-82950000D01*
X181950000Y-56000000D02*
X181950000Y-58614998D01*
X182135002Y-61000000D02*
X179171412Y-61000000D01*
X181950000Y-58614998D02*
X182325001Y-58989999D01*
X182325001Y-58989999D02*
X182325001Y-60810001D01*
X182325001Y-60810001D02*
X182135002Y-61000000D01*
X179171412Y-61000000D02*
X178721402Y-61450010D01*
X178721402Y-61450010D02*
X175757812Y-61450010D01*
X175757812Y-61450010D02*
X175307802Y-61900020D01*
X175307802Y-61900020D02*
X174499980Y-61900020D01*
X174499980Y-61900020D02*
X174250001Y-62149999D01*
X174250001Y-62149999D02*
X174250001Y-63249565D01*
X182600000Y-58000000D02*
X182600000Y-57100000D01*
X182600000Y-58000000D02*
X183550000Y-58950000D01*
X183550000Y-58950000D02*
X183550000Y-59900000D01*
X173949990Y-61450010D02*
X173249999Y-62150001D01*
X173249999Y-62150001D02*
X173249999Y-63249564D01*
X175121402Y-61450010D02*
X173949990Y-61450010D01*
X178535002Y-61000000D02*
X175571412Y-61000000D01*
X175571412Y-61000000D02*
X175121402Y-61450010D01*
X178350000Y-56000000D02*
X178350000Y-58614998D01*
X178350000Y-58614998D02*
X178725001Y-58989999D01*
X178725001Y-58989999D02*
X178725001Y-60810001D01*
X178725001Y-60810001D02*
X178535002Y-61000000D01*
X179000000Y-58000000D02*
X179000000Y-57100000D01*
X179000000Y-58000000D02*
X179950000Y-58950000D01*
X179950000Y-58950000D02*
X179950000Y-59900000D01*
X174750000Y-56000000D02*
X174750000Y-58614998D01*
X174750000Y-58614998D02*
X175125001Y-58989999D01*
X175125001Y-58989999D02*
X175125001Y-60810001D01*
X175125001Y-60810001D02*
X174935002Y-61000000D01*
X174935002Y-61000000D02*
X173200000Y-61000000D01*
X173200000Y-61000000D02*
X172250001Y-61949999D01*
X172250001Y-61949999D02*
X172250001Y-63249565D01*
X175400000Y-58000000D02*
X175400000Y-57100000D01*
X175400000Y-58000000D02*
X176350000Y-58950000D01*
X176350000Y-58950000D02*
X176350000Y-59900000D01*
X171150000Y-56000000D02*
X171150000Y-58614998D01*
X171150000Y-58614998D02*
X171525001Y-58989999D01*
X171525001Y-58989999D02*
X171525001Y-60810001D01*
X171525001Y-60810001D02*
X171250001Y-61085001D01*
X171250001Y-61085001D02*
X171250001Y-63249565D01*
X171800000Y-58000000D02*
X171800000Y-57100000D01*
X171800000Y-58000000D02*
X172750000Y-58950000D01*
X172750000Y-58950000D02*
X172750000Y-59900000D01*
X170250001Y-63249564D02*
X170250001Y-62825300D01*
X170250001Y-62825300D02*
X167925001Y-60500300D01*
X167925001Y-60500300D02*
X167925001Y-58989999D01*
X167550000Y-56000000D02*
X167550000Y-58614998D01*
X167550000Y-58614998D02*
X167925001Y-58989999D01*
X168200000Y-58000000D02*
X168200000Y-57100000D01*
X168200000Y-58000000D02*
X169150000Y-58950000D01*
X169150000Y-58950000D02*
X169150000Y-59900000D01*
X169250001Y-63249565D02*
X169250001Y-62825301D01*
X169250001Y-62825301D02*
X167299701Y-60875001D01*
X167299701Y-60875001D02*
X164939999Y-60875001D01*
X164939999Y-60875001D02*
X164325001Y-60260003D01*
X164325001Y-60260003D02*
X164325001Y-58989999D01*
X163950000Y-56000000D02*
X163950000Y-58614998D01*
X163950000Y-58614998D02*
X164325001Y-58989999D01*
X164600000Y-58000000D02*
X164600000Y-57100000D01*
X164600000Y-58000000D02*
X165550000Y-58950000D01*
X165550000Y-58950000D02*
X165550000Y-59900000D01*
X168250001Y-63249564D02*
X168250001Y-62825300D01*
X168250001Y-62825300D02*
X166749712Y-61325011D01*
X166749712Y-61325011D02*
X161790009Y-61325011D01*
X161790009Y-61325011D02*
X160725001Y-60260003D01*
X160725001Y-60260003D02*
X160725001Y-58989999D01*
X160350000Y-56000000D02*
X160350000Y-58614998D01*
X160350000Y-58614998D02*
X160725001Y-58989999D01*
X161000000Y-58000000D02*
X161000000Y-57100000D01*
X161900000Y-59025000D02*
X161900000Y-59850000D01*
X161900000Y-59850000D02*
X161950000Y-59900000D01*
X161000000Y-58000000D02*
X161000000Y-58125000D01*
X161000000Y-58125000D02*
X161900000Y-59025000D01*
X160728588Y-60900000D02*
X157764998Y-60900000D01*
X157764998Y-60900000D02*
X157125001Y-60260003D01*
X161603608Y-61775020D02*
X160728588Y-60900000D01*
X167250001Y-62924999D02*
X166100023Y-61775021D01*
X166100023Y-61775021D02*
X161603608Y-61775020D01*
X167250001Y-63249564D02*
X167250001Y-62924999D01*
X157125001Y-60260003D02*
X157125001Y-58989999D01*
X156750000Y-58614998D02*
X156750000Y-56000000D01*
X157125001Y-58989999D02*
X156750000Y-58614998D01*
X157400000Y-58000000D02*
X157400000Y-57125000D01*
X157400000Y-57125000D02*
X157375000Y-57100000D01*
X157400000Y-58000000D02*
X158350000Y-58950000D01*
X158350000Y-58950000D02*
X158350000Y-59900000D01*
X157450010Y-61350010D02*
X156975001Y-60875001D01*
X156975001Y-60875001D02*
X154139999Y-60875001D01*
X154139999Y-60875001D02*
X153525001Y-60260003D01*
X160542188Y-61350010D02*
X157450010Y-61350010D01*
X161417207Y-62225029D02*
X160542188Y-61350010D01*
X166000000Y-62600000D02*
X165625030Y-62225030D01*
X165625030Y-62225030D02*
X161417207Y-62225029D01*
X153525001Y-60260003D02*
X153525001Y-58989999D01*
X153525001Y-58989999D02*
X153150000Y-58614998D01*
X153150000Y-58614998D02*
X153150000Y-56000000D01*
X153800000Y-58000000D02*
X153800000Y-57100000D01*
X153800000Y-58000000D02*
X154750000Y-58950000D01*
X154750000Y-58950000D02*
X154750000Y-59900000D01*
X153375001Y-60875001D02*
X150539999Y-60875001D01*
X150539999Y-60875001D02*
X149925001Y-60260003D01*
X149925001Y-60260003D02*
X149925001Y-58989999D01*
X157263609Y-61800019D02*
X156788601Y-61325011D01*
X156788601Y-61325011D02*
X153825011Y-61325011D01*
X153825011Y-61325011D02*
X153375001Y-60875001D01*
X161230806Y-62675038D02*
X160355788Y-61800020D01*
X160355788Y-61800020D02*
X157263609Y-61800019D01*
X163641927Y-62858073D02*
X163217663Y-62858073D01*
X163217663Y-62858073D02*
X163034629Y-62675039D01*
X163034629Y-62675039D02*
X161230806Y-62675038D01*
X149550000Y-56000000D02*
X149550000Y-58614998D01*
X149550000Y-58614998D02*
X149925001Y-58989999D01*
X150200000Y-58000000D02*
X150200000Y-57100000D01*
X150200000Y-58000000D02*
X151150000Y-58950000D01*
X151150000Y-58950000D02*
X151150000Y-59900000D01*
X156890807Y-62700037D02*
X156415800Y-62225030D01*
X156415800Y-62225030D02*
X149256423Y-62225027D01*
X149256423Y-62225027D02*
X148306449Y-63175001D01*
X148306449Y-63175001D02*
X146939999Y-63175001D01*
X146939999Y-63175001D02*
X146325001Y-62560003D01*
X146325001Y-62560003D02*
X146325001Y-61289999D01*
X159900038Y-62700038D02*
X156890807Y-62700037D01*
X162661827Y-63575057D02*
X160775057Y-63575057D01*
X160775057Y-63575057D02*
X159900038Y-62700038D01*
X165226762Y-62850030D02*
X165226762Y-63170739D01*
X165226762Y-63170739D02*
X164464417Y-63933084D01*
X164464417Y-63933084D02*
X163019854Y-63933084D01*
X163019854Y-63933084D02*
X162661827Y-63575057D01*
X145950000Y-58300000D02*
X145950000Y-60914998D01*
X145950000Y-60914998D02*
X146325001Y-61289999D01*
X146600000Y-60300000D02*
X146600000Y-59425000D01*
X146600000Y-59425000D02*
X146575000Y-59400000D01*
X146600000Y-60300000D02*
X147550000Y-61250000D01*
X147550000Y-61250000D02*
X147550000Y-62200000D01*
X142900000Y-61600000D02*
X142675001Y-61375001D01*
X142675001Y-61375001D02*
X142675001Y-61289999D01*
X142350000Y-58300000D02*
X142350000Y-60964998D01*
X142350000Y-60964998D02*
X142675001Y-61289999D01*
X143000000Y-60300000D02*
X143000000Y-59400000D01*
X143000000Y-60300000D02*
X143900000Y-61200000D01*
X143900000Y-61200000D02*
X143900000Y-62200000D01*
X174400000Y-75050000D02*
X174375001Y-75025001D01*
X174375001Y-75025001D02*
X174375001Y-73039999D01*
X174375001Y-73039999D02*
X174357001Y-73039999D01*
X174357001Y-73039999D02*
X174251993Y-72934991D01*
X174251993Y-72934991D02*
X171945193Y-72934991D01*
X171945193Y-72934991D02*
X170935201Y-71924999D01*
X170935201Y-71924999D02*
X168664999Y-71924999D01*
X168674999Y-71934999D02*
X168664999Y-71924999D01*
X168664999Y-71924999D02*
X168310000Y-72279998D01*
X168310000Y-72279998D02*
X168310000Y-73550000D01*
X168310000Y-73550000D02*
X168760000Y-74000000D01*
X162650000Y-75450000D02*
X164647822Y-75450000D01*
X164647822Y-75450000D02*
X166700009Y-73397813D01*
X174784999Y-69984999D02*
X176934999Y-69984999D01*
X176934999Y-69984999D02*
X177500000Y-70550000D01*
X166700009Y-73397813D02*
X166700010Y-72389988D01*
X166700010Y-72389988D02*
X168839998Y-70250000D01*
X168839998Y-70250000D02*
X171932998Y-70250000D01*
X171932998Y-70250000D02*
X172097999Y-70084999D01*
X172097999Y-70084999D02*
X174684999Y-70084999D01*
X174684999Y-70084999D02*
X174784999Y-69984999D01*
X177500000Y-70550000D02*
X177500000Y-70750000D01*
D54*
X178550000Y-70750000D02*
X177500000Y-70750000D01*
D52*
X159050000Y-77550000D02*
X159050000Y-78050000D01*
X164250000Y-84650000D02*
X180000000Y-84650000D01*
X159050000Y-78050000D02*
X159109990Y-78109990D01*
X159109990Y-79509990D02*
X164250000Y-84650000D01*
X159109990Y-78109990D02*
X159109990Y-79509990D01*
X180000000Y-84650000D02*
X180150000Y-84500000D01*
X182400000Y-84100000D02*
X183450000Y-84100000D01*
X182900000Y-84550000D02*
X182850000Y-84550000D01*
X182850000Y-84550000D02*
X182400000Y-84100000D01*
X153950000Y-74450000D02*
X152013590Y-74450000D01*
X152013590Y-74450000D02*
X151863589Y-74600001D01*
X151863589Y-74600001D02*
X149464999Y-74600001D01*
X149464999Y-74600001D02*
X149300001Y-74435003D01*
X149300001Y-74435003D02*
X149300001Y-72900001D01*
X149300001Y-72900001D02*
X148300000Y-71900000D01*
X148300000Y-71900000D02*
X148300000Y-71200000D01*
X159050000Y-68850000D02*
X159050000Y-69750000D01*
X159050000Y-69750000D02*
X158650000Y-70150000D01*
X158650000Y-70150000D02*
X158650000Y-73575736D01*
X158650000Y-73575736D02*
X158650000Y-74000000D01*
X186700000Y-58000000D02*
X185750000Y-58000000D01*
X185750000Y-58000000D02*
X185200000Y-57450000D01*
X185200000Y-57450000D02*
X185200000Y-57074262D01*
X185200000Y-57074262D02*
X185200000Y-56649998D01*
X160250000Y-76000000D02*
X160250000Y-71575002D01*
X160250000Y-71575002D02*
X160650002Y-71175000D01*
X160650002Y-71175000D02*
X160650002Y-70449999D01*
X160650002Y-70449999D02*
X160350003Y-70150000D01*
X167200000Y-80725000D02*
X166700000Y-80725000D01*
X166700000Y-80725000D02*
X163800000Y-77825000D01*
X163800000Y-77825000D02*
X163800000Y-77450000D01*
X160050000Y-68850000D02*
X160050000Y-69750000D01*
X160050000Y-69750000D02*
X160350003Y-70050003D01*
X160350003Y-70050003D02*
X160350003Y-70150000D01*
X163395800Y-78304685D02*
X164774999Y-79683884D01*
X164774999Y-79683884D02*
X164783884Y-79683884D01*
X164783884Y-79683884D02*
X166159999Y-81059999D01*
X166159999Y-81059999D02*
X166159999Y-81309999D01*
X166159999Y-81309999D02*
X166225000Y-81375000D01*
X166225000Y-81375000D02*
X167200000Y-81375000D01*
X185982244Y-56482377D02*
X185982244Y-56782244D01*
X185982244Y-56782244D02*
X186700000Y-57500000D01*
X159550000Y-75050000D02*
X159550000Y-71575002D01*
X159550000Y-71575002D02*
X159250001Y-71275003D01*
X159250001Y-71275003D02*
X159250001Y-70449999D01*
X159250001Y-70449999D02*
X159550000Y-70150000D01*
X159550000Y-68850000D02*
X159550000Y-70150000D01*
X155800000Y-81450000D02*
X155800000Y-80950000D01*
X155800000Y-80950000D02*
X156550000Y-80200000D01*
X156550000Y-80200000D02*
X156550000Y-78450000D01*
X156550000Y-78450000D02*
X156550000Y-77550000D01*
X169765462Y-64402260D02*
X169019349Y-64402260D01*
X169019349Y-64402260D02*
X168798051Y-64623558D01*
X168798051Y-64623558D02*
X162923558Y-64623558D01*
X157689999Y-64224999D02*
X157475001Y-64439997D01*
X162923558Y-64623558D02*
X162923553Y-64623553D01*
X162923553Y-64623553D02*
X162586649Y-64623553D01*
X162586649Y-64623553D02*
X162266849Y-64943353D01*
X161676447Y-64943353D02*
X160958093Y-64224999D01*
X162266849Y-64943353D02*
X161676447Y-64943353D01*
X160958093Y-64224999D02*
X157689999Y-64224999D01*
X157475001Y-64439997D02*
X157475001Y-65724999D01*
X157475001Y-65724999D02*
X156900000Y-66300000D01*
X156900000Y-66300000D02*
X156700000Y-66300000D01*
X156550000Y-68850000D02*
X156550000Y-66450000D01*
X156550000Y-66450000D02*
X156700000Y-66300000D01*
X170724823Y-65540936D02*
X171243608Y-65540936D01*
X171243608Y-65540936D02*
X171341193Y-65443351D01*
X169209064Y-65540936D02*
X168450000Y-66300000D01*
X168450000Y-66300000D02*
X159700000Y-66300000D01*
X170724823Y-65540936D02*
X169209064Y-65540936D01*
X157550000Y-68850000D02*
X157550000Y-67950000D01*
X157550000Y-67950000D02*
X158624999Y-66875001D01*
X158624999Y-66875001D02*
X159624999Y-66875001D01*
X159624999Y-66875001D02*
X159700000Y-66800000D01*
X159700000Y-66800000D02*
X159700000Y-66300000D01*
X158400000Y-66300000D02*
X158400000Y-65800000D01*
X158400000Y-65800000D02*
X158475001Y-65724999D01*
X158475001Y-65724999D02*
X161025009Y-65724999D01*
X161025009Y-65724999D02*
X161150000Y-65849990D01*
X161150000Y-65849990D02*
X168263600Y-65849990D01*
X168263600Y-65849990D02*
X169022663Y-65090927D01*
X170249831Y-65090926D02*
X170740757Y-64600000D01*
X169022663Y-65090927D02*
X170249831Y-65090926D01*
X170740757Y-64600000D02*
X171200000Y-64600000D01*
X157050000Y-68850000D02*
X157050000Y-67650000D01*
X157050000Y-67650000D02*
X158400000Y-66300000D01*
X154800000Y-63800000D02*
X153941798Y-63800000D01*
X153941798Y-63800000D02*
X153484999Y-64256799D01*
X153484999Y-64256799D02*
X153484999Y-65184999D01*
X153484999Y-65184999D02*
X154500001Y-66200001D01*
X154500001Y-66200001D02*
X154800000Y-66500000D01*
X155400000Y-66300000D02*
X156050000Y-66950000D01*
X156050000Y-66950000D02*
X156050000Y-67122215D01*
X156050000Y-67122215D02*
X156050000Y-68850000D01*
X154800000Y-66500000D02*
X155200000Y-66500000D01*
X155200000Y-66500000D02*
X155400000Y-66300000D01*
X170060000Y-76620000D02*
X170060000Y-77760000D01*
X170060000Y-77760000D02*
X170100000Y-77800000D01*
X171600000Y-81375000D02*
X173125000Y-81375000D01*
X173125000Y-81375000D02*
X173200000Y-81450000D01*
X184950000Y-84100000D02*
X185450000Y-84100000D01*
X185450000Y-84100000D02*
X185875010Y-84525010D01*
X185875010Y-84525010D02*
X193274990Y-84525010D01*
X193274990Y-84525010D02*
X194500000Y-83300000D01*
X194500000Y-83300000D02*
X194500000Y-82400000D01*
D53*
X182300000Y-80334315D02*
X181134315Y-80334315D01*
X181134315Y-80334315D02*
X179900000Y-79100000D01*
X182300000Y-80900000D02*
X182300000Y-80334315D01*
X178700000Y-81600000D02*
X181600000Y-81600000D01*
X181600000Y-81600000D02*
X182300000Y-80900000D01*
X178700000Y-81600000D02*
X181250000Y-81600000D01*
X181250000Y-81600000D02*
X181550000Y-81300000D01*
X178700000Y-81600000D02*
X179750000Y-81600000D01*
X179750000Y-81600000D02*
X180050000Y-81300000D01*
X177700000Y-81600000D02*
X178700000Y-81600000D01*
X177250000Y-82300000D02*
X177250000Y-82050000D01*
X177250000Y-82050000D02*
X177700000Y-81600000D01*
D54*
X185000000Y-67100000D02*
X185800000Y-67100000D01*
X184200000Y-66300000D02*
X184200000Y-67100000D01*
X183400000Y-66300000D02*
X183400000Y-67100000D01*
X183100000Y-78100000D02*
X180900000Y-78100000D01*
X180900000Y-78100000D02*
X179900000Y-79100000D01*
X183050000Y-79700000D02*
X180500000Y-79700000D01*
X180500000Y-79700000D02*
X179900000Y-79100000D01*
X180850000Y-78150000D02*
X179900000Y-79100000D01*
X180500000Y-74100000D02*
X179900000Y-74100000D01*
X181900000Y-76100000D02*
X179900000Y-74100000D01*
X179900000Y-74100000D02*
X179900000Y-70900000D01*
X179900000Y-70900000D02*
X180050000Y-70750000D01*
D58*
X179900000Y-74100000D02*
X179900000Y-79100000D01*
D52*
X177250000Y-82300000D02*
X177250000Y-81600000D01*
X177250000Y-81600000D02*
X179750000Y-79100000D01*
X179750000Y-79100000D02*
X179900000Y-79100000D01*
X161050000Y-77550000D02*
X161050000Y-78904360D01*
X161050000Y-78904360D02*
X164493657Y-82348017D01*
X164493657Y-82348017D02*
X164741131Y-82348017D01*
X162650000Y-75950000D02*
X162650000Y-79620476D01*
X162650000Y-79620476D02*
X164000010Y-80970486D01*
X164000010Y-80970486D02*
X164572761Y-81543237D01*
X203200000Y-73880000D02*
X201900000Y-75180000D01*
X201900000Y-75180000D02*
X201900000Y-75200000D01*
X201900000Y-75200000D02*
X200000000Y-75200000D01*
X200000000Y-75200000D02*
X199188866Y-76011134D01*
X199188866Y-76011134D02*
X199188866Y-77488866D01*
X199188866Y-77488866D02*
X196852752Y-79824980D01*
X179328608Y-83749980D02*
X164622800Y-83749980D01*
X196852752Y-79824980D02*
X186806185Y-79824980D01*
X164622800Y-83749980D02*
X160050000Y-79177180D01*
X186806185Y-79824980D02*
X184031175Y-82599990D01*
X184031175Y-82599990D02*
X180478598Y-82599990D01*
X180478598Y-82599990D02*
X179328608Y-83749980D01*
X160050000Y-79177180D02*
X160050000Y-77550000D01*
X159550000Y-77550000D02*
X159550000Y-79313590D01*
X159550000Y-79313590D02*
X164436400Y-84199990D01*
X164436400Y-84199990D02*
X179529374Y-84199990D01*
X179529374Y-84199990D02*
X180018481Y-83710883D01*
X186992585Y-80274990D02*
X197125010Y-80274990D01*
X197125010Y-80274990D02*
X200660000Y-76740000D01*
X200660000Y-76740000D02*
X200660000Y-76420000D01*
X180018481Y-83710883D02*
X180018481Y-83696517D01*
X180018481Y-83696517D02*
X180664998Y-83050000D01*
X180664998Y-83050000D02*
X184217575Y-83050000D01*
X184217575Y-83050000D02*
X186992585Y-80274990D01*
X200660000Y-76640000D02*
X200660000Y-76420000D01*
X160550000Y-77550000D02*
X160550000Y-79040770D01*
X160550000Y-79040770D02*
X164634210Y-83124980D01*
X164634210Y-83124980D02*
X164978352Y-83124980D01*
D57*
X183950000Y-73700000D02*
X190250000Y-73700000D01*
D56*
X195600000Y-60300000D02*
X196200000Y-60300000D01*
X196200000Y-60300000D02*
X196600000Y-60700000D01*
X196100000Y-59800000D02*
X195600000Y-60300000D01*
X196100000Y-59750000D02*
X196100000Y-59800000D01*
D52*
X196050000Y-61600000D02*
X196050000Y-61250000D01*
X196050000Y-61250000D02*
X196600000Y-60700000D01*
D59*
X191100000Y-76400000D02*
X191900000Y-76400000D01*
X191900000Y-76400000D02*
X195700000Y-76400000D01*
D57*
X190250000Y-73700000D02*
X190250000Y-74750000D01*
X190250000Y-74750000D02*
X191900000Y-76400000D01*
X190250000Y-73700000D02*
X190250000Y-75550000D01*
X190250000Y-75550000D02*
X191100000Y-76400000D01*
D59*
X195700000Y-76400000D02*
X197400000Y-76400000D01*
D57*
X195700000Y-76400000D02*
X195700000Y-76000000D01*
D59*
X197500000Y-76300000D02*
X197500000Y-74200000D01*
X197500000Y-74200000D02*
X197500000Y-61600000D01*
D57*
X195700000Y-76000000D02*
X197500000Y-74200000D01*
X197500000Y-61600000D02*
X196600000Y-60700000D01*
X197400000Y-76400000D02*
X197500000Y-76300000D01*
D54*
X196100000Y-59750000D02*
X195200000Y-59750000D01*
X195200000Y-59750000D02*
X194650000Y-59200000D01*
D52*
X162650000Y-70950000D02*
X163600000Y-70950000D01*
X163600000Y-70950000D02*
X164050000Y-70500000D01*
D54*
X170700000Y-74000000D02*
X172950000Y-74000000D01*
X172950000Y-74000000D02*
X173200000Y-73750000D01*
D56*
X173524999Y-74375001D02*
X173524999Y-74074999D01*
X173524999Y-74074999D02*
X173200000Y-73750000D01*
X172800000Y-74400000D02*
X173500000Y-74400000D01*
X173500000Y-74400000D02*
X173524999Y-74375001D01*
X173100000Y-74700000D02*
X172800000Y-74400000D01*
X173100000Y-75050000D02*
X173100000Y-74700000D01*
D52*
X148650000Y-76800000D02*
X148650000Y-76600000D01*
X148650000Y-76600000D02*
X149749979Y-75500021D01*
X149749979Y-75500021D02*
X152236389Y-75500021D01*
X152236389Y-75500021D02*
X152286410Y-75450000D01*
X153950000Y-75450000D02*
X152286410Y-75450000D01*
X167500000Y-70500000D02*
X166250000Y-71750000D01*
X166250000Y-71750000D02*
X166250000Y-73211412D01*
X166250000Y-73211412D02*
X164511412Y-74950000D01*
X164511412Y-74950000D02*
X162650000Y-74950000D01*
X174800000Y-81150000D02*
X174800000Y-80900000D01*
X174800000Y-80900000D02*
X174600000Y-80700000D01*
X175750000Y-82300000D02*
X175750000Y-82100000D01*
X175750000Y-82100000D02*
X174800000Y-81150000D01*
X173200000Y-79950000D02*
X173850000Y-79950000D01*
X173850000Y-79950000D02*
X174600000Y-80700000D01*
X169400000Y-76620000D02*
X169324999Y-76695001D01*
X169324999Y-76695001D02*
X169324999Y-78310001D01*
X169324999Y-78310001D02*
X169739997Y-78724999D01*
X169739997Y-78724999D02*
X171774999Y-78724999D01*
X171774999Y-78724999D02*
X173000000Y-79950000D01*
X173000000Y-79950000D02*
X173200000Y-79950000D01*
X150249969Y-75950031D02*
X149324000Y-76876000D01*
X149324000Y-76876000D02*
X149324000Y-77515000D01*
X152422789Y-75950031D02*
X150249969Y-75950031D01*
X153950000Y-75950000D02*
X153050000Y-75950000D01*
X153050000Y-75950000D02*
X153049969Y-75950031D01*
X153049969Y-75950031D02*
X152422789Y-75950031D01*
X153950000Y-74950000D02*
X152150000Y-74950000D01*
X152150000Y-74950000D02*
X152049989Y-75050011D01*
X152049989Y-75050011D02*
X144750011Y-75050011D01*
X144750011Y-75050011D02*
X143974999Y-74274999D01*
X143974999Y-74274999D02*
X143100000Y-73400000D01*
X176872268Y-69300000D02*
X173614894Y-69300000D01*
X173614894Y-69300000D02*
X173249999Y-68935105D01*
X178500000Y-69800000D02*
X177372268Y-69800000D01*
X177372268Y-69800000D02*
X176872268Y-69300000D01*
X180000000Y-68300000D02*
X178500000Y-69800000D01*
X173249999Y-68935105D02*
X174385104Y-67800000D01*
X174385104Y-67800000D02*
X175250000Y-67800000D01*
X165550000Y-70500000D02*
X166400000Y-70500000D01*
X166400000Y-70500000D02*
X166500000Y-70400000D01*
X189050000Y-69400000D02*
X189050000Y-68450000D01*
X189050000Y-68450000D02*
X188700000Y-68100000D01*
X176750000Y-67800000D02*
X176750000Y-67600000D01*
X176750000Y-67600000D02*
X177965001Y-66384999D01*
X177965001Y-66384999D02*
X180882003Y-66384999D01*
X180882003Y-66384999D02*
X181415001Y-65852001D01*
X181415001Y-65852001D02*
X181415001Y-64515001D01*
X181415001Y-64515001D02*
X181930002Y-64000000D01*
X181930002Y-64000000D02*
X182400000Y-64000000D01*
X188700000Y-66600000D02*
X188600000Y-66600000D01*
X188600000Y-66600000D02*
X188200000Y-66200000D01*
X192275000Y-64700000D02*
X191552732Y-64700000D01*
X191552732Y-64700000D02*
X191262731Y-64990001D01*
X191262731Y-64990001D02*
X189897999Y-64990001D01*
X189897999Y-64990001D02*
X189834999Y-64927001D01*
X189834999Y-64927001D02*
X189834999Y-63215001D01*
X189834999Y-63215001D02*
X190050000Y-63000000D01*
X190050000Y-63000000D02*
X190550000Y-63000000D01*
X164900000Y-67100000D02*
X165324264Y-67100000D01*
X165324264Y-67100000D02*
X165564135Y-67339871D01*
X165564135Y-67339871D02*
X169859929Y-67339871D01*
X169859929Y-67339871D02*
X170385059Y-67865001D01*
X170385059Y-67865001D02*
X171434999Y-67865001D01*
X171434999Y-67865001D02*
X172050000Y-67250000D01*
X172050000Y-67250000D02*
X172500000Y-67250000D01*
X143750000Y-76200000D02*
X143750000Y-75850000D01*
X143750000Y-75850000D02*
X143800000Y-75800000D01*
X172400000Y-66450000D02*
X172500000Y-66450000D01*
X172500000Y-66450000D02*
X173450000Y-65500000D01*
X172600000Y-66750000D02*
X172575736Y-66750000D01*
X172575736Y-66750000D02*
X172500000Y-66825736D01*
X172500000Y-66825736D02*
X172500000Y-67250000D01*
X172400000Y-66450000D02*
X172400000Y-67150000D01*
X172400000Y-67150000D02*
X172500000Y-67250000D01*
X148779989Y-68934999D02*
X148779989Y-68944999D01*
X148779989Y-68944999D02*
X149134990Y-69300000D01*
X148779989Y-68934999D02*
X147315001Y-68934999D01*
X147315001Y-68934999D02*
X146750000Y-69500000D01*
X146750000Y-69500000D02*
X146750000Y-69700000D01*
X148100000Y-73400000D02*
X147734999Y-73034999D01*
X147734999Y-73034999D02*
X147734999Y-70884999D01*
X147734999Y-70884999D02*
X146750000Y-69900000D01*
X146750000Y-69900000D02*
X146750000Y-69700000D01*
X187550000Y-69400000D02*
X187550000Y-68850000D01*
X187550000Y-68850000D02*
X187500000Y-68800000D01*
X187020674Y-61920674D02*
X185212324Y-61920674D01*
X178824797Y-68565001D02*
X176247999Y-68565001D01*
X176184999Y-68502001D02*
X176184999Y-67467997D01*
X185212324Y-61920674D02*
X183400000Y-63732998D01*
X169687671Y-67789881D02*
X168210119Y-67789881D01*
X164984999Y-69797999D02*
X164984999Y-70832003D01*
X183400000Y-63732998D02*
X183400000Y-64910202D01*
X175752001Y-67034999D02*
X173625203Y-67034999D01*
X164552001Y-71265001D02*
X164124797Y-71265001D01*
X173625203Y-67034999D02*
X172355192Y-68305010D01*
X170202800Y-68305010D02*
X169687671Y-67789881D01*
X183400000Y-64910202D02*
X182100000Y-66210202D01*
X164984999Y-70832003D02*
X164552001Y-71265001D01*
X182100000Y-66210202D02*
X182100000Y-66910202D01*
X181395201Y-67615001D02*
X179774797Y-67615001D01*
X182100000Y-66910202D02*
X181395201Y-67615001D01*
X179774797Y-67615001D02*
X178824797Y-68565001D01*
X163939798Y-71450000D02*
X162650000Y-71450000D01*
X176247999Y-68565001D02*
X176184999Y-68502001D01*
X176184999Y-67467997D02*
X175752001Y-67034999D01*
X164124797Y-71265001D02*
X163939798Y-71450000D01*
X172355192Y-68305010D02*
X170202800Y-68305010D01*
X168210119Y-67789881D02*
X166284999Y-69715001D01*
X166284999Y-69715001D02*
X165067997Y-69715001D01*
X165067997Y-69715001D02*
X164984999Y-69797999D01*
X189050000Y-63000000D02*
X188500000Y-63000000D01*
X148250000Y-69700000D02*
X148500000Y-69700000D01*
X148500000Y-69700000D02*
X149000000Y-70200000D01*
X153950000Y-73950000D02*
X155350000Y-73950000D01*
X155350000Y-73950000D02*
X155400000Y-74000000D01*
X169500000Y-69400000D02*
X169500000Y-69185106D01*
X169500000Y-69185106D02*
X169750000Y-68935106D01*
D54*
X176850000Y-63800000D02*
X176650000Y-63800000D01*
X176650000Y-63800000D02*
X176400000Y-64050000D01*
D60*
G36*
X176573000Y-79873000D02*
X175552606Y-79873000D01*
X174029210Y-78349604D01*
X174119772Y-76176131D01*
X174225000Y-76197440D01*
X174575000Y-76197440D01*
X174810317Y-76153162D01*
X175026441Y-76014090D01*
X175171431Y-75801890D01*
X175222440Y-75550000D01*
X175222440Y-75261033D01*
X175575103Y-75002413D01*
X175609031Y-74965125D01*
X175627000Y-74900000D01*
X175627000Y-73727000D01*
X176573000Y-73727000D01*
X176573000Y-79873000D01*
X176573000Y-79873000D01*
G37*
X176573000Y-79873000D02*
X175552606Y-79873000D01*
X174029210Y-78349604D01*
X174119772Y-76176131D01*
X174225000Y-76197440D01*
X174575000Y-76197440D01*
X174810317Y-76153162D01*
X175026441Y-76014090D01*
X175171431Y-75801890D01*
X175222440Y-75550000D01*
X175222440Y-75261033D01*
X175575103Y-75002413D01*
X175609031Y-74965125D01*
X175627000Y-74900000D01*
X175627000Y-73727000D01*
X176573000Y-73727000D01*
X176573000Y-79873000D01*
D52*
G36*
X181716674Y-83650000D02*
X181716674Y-84500000D01*
X180875001Y-84500000D01*
X180875126Y-84356421D01*
X180764984Y-84089857D01*
X180584129Y-83908687D01*
X180892816Y-83600000D01*
X181726799Y-83600000D01*
X181716674Y-83650000D01*
X181716674Y-83650000D01*
G37*
X181716674Y-83650000D02*
X181716674Y-84500000D01*
X180875001Y-84500000D01*
X180875126Y-84356421D01*
X180764984Y-84089857D01*
X180584129Y-83908687D01*
X180892816Y-83600000D01*
X181726799Y-83600000D01*
X181716674Y-83650000D01*
G36*
X190645411Y-50646018D02*
X190575000Y-51000000D01*
X190575000Y-54500000D01*
X190645411Y-54853982D01*
X190845926Y-55154074D01*
X191095396Y-55320765D01*
X191092504Y-55321309D01*
X190947854Y-55414389D01*
X190850814Y-55556412D01*
X190816674Y-55725000D01*
X190816674Y-56475000D01*
X190846309Y-56632496D01*
X190865561Y-56662415D01*
X190689857Y-56735014D01*
X190507880Y-56916674D01*
X190400000Y-56916674D01*
X190242504Y-56946309D01*
X190097854Y-57039389D01*
X190000814Y-57181412D01*
X189966674Y-57350000D01*
X189966674Y-57650000D01*
X189996309Y-57807496D01*
X190089389Y-57952146D01*
X190159251Y-57999881D01*
X190097854Y-58039389D01*
X190000814Y-58181412D01*
X189966674Y-58350000D01*
X189966674Y-58650000D01*
X189986181Y-58753671D01*
X189966674Y-58850000D01*
X189966674Y-59150000D01*
X189986181Y-59253671D01*
X189966674Y-59350000D01*
X189966674Y-59650000D01*
X189996309Y-59807496D01*
X190089389Y-59952146D01*
X190231412Y-60049186D01*
X190400000Y-60083326D01*
X190905508Y-60083326D01*
X190962681Y-60140499D01*
X190847854Y-60214389D01*
X190750814Y-60356412D01*
X190716674Y-60525000D01*
X190716674Y-61040001D01*
X188334999Y-61040001D01*
X188019285Y-61102800D01*
X187751636Y-61281638D01*
X187579250Y-61454024D01*
X187431890Y-61306407D01*
X187165518Y-61195800D01*
X186877095Y-61195548D01*
X186610531Y-61305690D01*
X186545433Y-61370674D01*
X185212324Y-61370674D01*
X185001848Y-61412540D01*
X184823415Y-61531765D01*
X183011091Y-63344089D01*
X182914280Y-63488977D01*
X182811216Y-63385733D01*
X182544844Y-63275126D01*
X182256421Y-63274874D01*
X181989857Y-63385016D01*
X181923455Y-63451302D01*
X181719526Y-63491866D01*
X181541093Y-63611091D01*
X181541091Y-63611094D01*
X181026092Y-64126092D01*
X180906867Y-64304525D01*
X180865001Y-64515001D01*
X180865001Y-65624183D01*
X180654185Y-65834999D01*
X177965001Y-65834999D01*
X177754525Y-65876865D01*
X177576092Y-65996090D01*
X176655508Y-66916674D01*
X176500000Y-66916674D01*
X176425510Y-66930690D01*
X176140910Y-66646090D01*
X175962477Y-66526865D01*
X175752001Y-66484999D01*
X173625208Y-66484999D01*
X173625203Y-66484998D01*
X173414727Y-66526865D01*
X173236294Y-66646090D01*
X173208326Y-66674058D01*
X173208326Y-66519492D01*
X173344492Y-66383326D01*
X173700000Y-66383326D01*
X173857496Y-66353691D01*
X174002146Y-66260611D01*
X174099186Y-66118588D01*
X174133326Y-65950000D01*
X174133326Y-65050000D01*
X174266674Y-65050000D01*
X174266674Y-65950000D01*
X174296309Y-66107496D01*
X174389389Y-66252146D01*
X174531412Y-66349186D01*
X174700000Y-66383326D01*
X175200000Y-66383326D01*
X175357496Y-66353691D01*
X175502146Y-66260611D01*
X175599186Y-66118588D01*
X175613075Y-66050000D01*
X176424629Y-66050000D01*
X176488784Y-66114267D01*
X176755156Y-66224874D01*
X177043579Y-66225126D01*
X177310143Y-66114984D01*
X177514267Y-65911216D01*
X177624874Y-65644844D01*
X177625126Y-65356421D01*
X177514984Y-65089857D01*
X177311216Y-64885733D01*
X177044844Y-64775126D01*
X176756421Y-64774874D01*
X176489857Y-64885016D01*
X176424759Y-64950000D01*
X175614510Y-64950000D01*
X175603691Y-64892504D01*
X175510611Y-64747854D01*
X175368588Y-64650814D01*
X175200000Y-64616674D01*
X174700000Y-64616674D01*
X174542504Y-64646309D01*
X174397854Y-64739389D01*
X174300814Y-64881412D01*
X174266674Y-65050000D01*
X174133326Y-65050000D01*
X174103691Y-64892504D01*
X174010611Y-64747854D01*
X173868588Y-64650814D01*
X173700000Y-64616674D01*
X173200000Y-64616674D01*
X173042504Y-64646309D01*
X172897854Y-64739389D01*
X172800814Y-64881412D01*
X172766674Y-65050000D01*
X172766674Y-65405508D01*
X172555508Y-65616674D01*
X172054242Y-65616674D01*
X172066067Y-65588195D01*
X172066319Y-65299772D01*
X171956177Y-65033208D01*
X171849506Y-64926351D01*
X171924874Y-64744844D01*
X171925126Y-64456421D01*
X171814984Y-64189857D01*
X171611216Y-63985733D01*
X171489338Y-63935125D01*
X171660144Y-63864549D01*
X171749979Y-63774871D01*
X171838785Y-63863832D01*
X172105157Y-63974439D01*
X172393580Y-63974691D01*
X172660144Y-63864549D01*
X172749978Y-63774871D01*
X172838783Y-63863831D01*
X173105155Y-63974438D01*
X173393578Y-63974690D01*
X173660142Y-63864548D01*
X173749977Y-63774869D01*
X173838785Y-63863832D01*
X174105157Y-63974439D01*
X174393580Y-63974691D01*
X174516674Y-63923830D01*
X174516674Y-64175000D01*
X174546309Y-64332496D01*
X174639389Y-64477146D01*
X174781412Y-64574186D01*
X174950000Y-64608326D01*
X175750000Y-64608326D01*
X175904012Y-64579347D01*
X175988784Y-64664267D01*
X176255156Y-64774874D01*
X176543579Y-64775126D01*
X176810143Y-64664984D01*
X176866900Y-64608326D01*
X177250000Y-64608326D01*
X177407496Y-64578691D01*
X177552146Y-64485611D01*
X177649186Y-64343588D01*
X177683326Y-64175000D01*
X177683326Y-63433326D01*
X177750000Y-63433326D01*
X177907496Y-63403691D01*
X178052146Y-63310611D01*
X178149186Y-63168588D01*
X178183326Y-63000000D01*
X178183326Y-62875000D01*
X178235046Y-62875000D01*
X178355156Y-62924874D01*
X178643579Y-62925126D01*
X178910143Y-62814984D01*
X179114267Y-62611216D01*
X179224874Y-62344844D01*
X179225126Y-62056421D01*
X179127963Y-61821267D01*
X179399230Y-61550000D01*
X182135002Y-61550000D01*
X182345478Y-61508134D01*
X182523911Y-61388909D01*
X182713910Y-61198910D01*
X182833135Y-61020477D01*
X182871995Y-60825115D01*
X182889389Y-60852146D01*
X183031412Y-60949186D01*
X183200000Y-60983326D01*
X183900000Y-60983326D01*
X184057496Y-60953691D01*
X184202146Y-60860611D01*
X184299186Y-60718588D01*
X184333326Y-60550000D01*
X184333326Y-59250000D01*
X184303691Y-59092504D01*
X184210611Y-58947854D01*
X184082108Y-58860052D01*
X184078832Y-58843579D01*
X184274874Y-58843579D01*
X184385016Y-59110143D01*
X184588784Y-59314267D01*
X184855156Y-59424874D01*
X185143579Y-59425126D01*
X185410143Y-59314984D01*
X185614267Y-59111216D01*
X185724874Y-58844844D01*
X185725126Y-58556421D01*
X185720008Y-58544034D01*
X185750000Y-58550000D01*
X185835432Y-58550000D01*
X186000000Y-58583326D01*
X187400000Y-58583326D01*
X187557496Y-58553691D01*
X187702146Y-58460611D01*
X187799186Y-58318588D01*
X187833326Y-58150000D01*
X187833326Y-57850000D01*
X187813819Y-57746329D01*
X187833326Y-57650000D01*
X187833326Y-57350000D01*
X187803691Y-57192504D01*
X187710611Y-57047854D01*
X187568588Y-56950814D01*
X187400000Y-56916674D01*
X186894492Y-56916674D01*
X186677168Y-56699350D01*
X186707118Y-56627221D01*
X186707370Y-56338798D01*
X186597228Y-56072234D01*
X186393460Y-55868110D01*
X186127088Y-55757503D01*
X185838665Y-55757251D01*
X185572101Y-55867393D01*
X185464498Y-55974808D01*
X185344844Y-55925124D01*
X185056421Y-55924872D01*
X184789857Y-56035014D01*
X184585733Y-56238782D01*
X184475126Y-56505154D01*
X184474874Y-56793577D01*
X184585016Y-57060141D01*
X184650000Y-57125239D01*
X184650000Y-57450000D01*
X184691866Y-57660476D01*
X184811091Y-57838909D01*
X184947136Y-57974953D01*
X184856421Y-57974874D01*
X184589857Y-58085016D01*
X184385733Y-58288784D01*
X184275126Y-58555156D01*
X184274874Y-58843579D01*
X184078832Y-58843579D01*
X184058134Y-58739524D01*
X183938909Y-58561091D01*
X183258326Y-57880508D01*
X183258326Y-57650000D01*
X183228691Y-57492504D01*
X183224647Y-57486219D01*
X183324874Y-57244844D01*
X183325126Y-56956421D01*
X183253605Y-56783326D01*
X183475000Y-56783326D01*
X183632496Y-56753691D01*
X183777146Y-56660611D01*
X183874186Y-56518588D01*
X183908326Y-56350000D01*
X183908326Y-56298373D01*
X184110143Y-56214984D01*
X184314267Y-56011216D01*
X184424874Y-55744844D01*
X184425126Y-55456421D01*
X184314984Y-55189857D01*
X184111216Y-54985733D01*
X183869069Y-54885185D01*
X183641942Y-54658058D01*
X183439177Y-54522575D01*
X183200000Y-54475000D01*
X181558883Y-54475000D01*
X180508326Y-53424442D01*
X180508326Y-51925000D01*
X180478691Y-51767504D01*
X180385611Y-51622854D01*
X180243588Y-51525814D01*
X180075000Y-51491674D01*
X178325000Y-51491674D01*
X178167504Y-51521309D01*
X178022854Y-51614389D01*
X177925814Y-51756412D01*
X177891674Y-51925000D01*
X177891674Y-52279833D01*
X177802729Y-52064571D01*
X177437353Y-51698556D01*
X176959721Y-51500226D01*
X176442548Y-51499774D01*
X175964571Y-51697271D01*
X175598556Y-52062647D01*
X175449879Y-52420700D01*
X175302729Y-52064571D01*
X174937353Y-51698556D01*
X174459721Y-51500226D01*
X173942548Y-51499774D01*
X173464571Y-51697271D01*
X173098556Y-52062647D01*
X172949879Y-52420700D01*
X172802729Y-52064571D01*
X172437353Y-51698556D01*
X171959721Y-51500226D01*
X171442548Y-51499774D01*
X170964571Y-51697271D01*
X170598556Y-52062647D01*
X170449879Y-52420700D01*
X170302729Y-52064571D01*
X169937353Y-51698556D01*
X169459721Y-51500226D01*
X168942548Y-51499774D01*
X168464571Y-51697271D01*
X168098556Y-52062647D01*
X167949879Y-52420700D01*
X167802729Y-52064571D01*
X167437353Y-51698556D01*
X166959721Y-51500226D01*
X166442548Y-51499774D01*
X165964571Y-51697271D01*
X165598556Y-52062647D01*
X165449879Y-52420700D01*
X165302729Y-52064571D01*
X164937353Y-51698556D01*
X164459721Y-51500226D01*
X163942548Y-51499774D01*
X163464571Y-51697271D01*
X163098556Y-52062647D01*
X162949879Y-52420700D01*
X162802729Y-52064571D01*
X162437353Y-51698556D01*
X161959721Y-51500226D01*
X161442548Y-51499774D01*
X160964571Y-51697271D01*
X160598556Y-52062647D01*
X160449879Y-52420700D01*
X160302729Y-52064571D01*
X159937353Y-51698556D01*
X159459721Y-51500226D01*
X158942548Y-51499774D01*
X158464571Y-51697271D01*
X158098556Y-52062647D01*
X157949879Y-52420700D01*
X157802729Y-52064571D01*
X157437353Y-51698556D01*
X156959721Y-51500226D01*
X156442548Y-51499774D01*
X155964571Y-51697271D01*
X155598556Y-52062647D01*
X155449879Y-52420700D01*
X155302729Y-52064571D01*
X154937353Y-51698556D01*
X154459721Y-51500226D01*
X153942548Y-51499774D01*
X153464571Y-51697271D01*
X153098556Y-52062647D01*
X152949879Y-52420700D01*
X152802729Y-52064571D01*
X152437353Y-51698556D01*
X151959721Y-51500226D01*
X151442548Y-51499774D01*
X150964571Y-51697271D01*
X150598556Y-52062647D01*
X150449879Y-52420700D01*
X150302729Y-52064571D01*
X149937353Y-51698556D01*
X149459721Y-51500226D01*
X148942548Y-51499774D01*
X148464571Y-51697271D01*
X148098556Y-52062647D01*
X147900226Y-52540279D01*
X147899774Y-53057452D01*
X148097271Y-53535429D01*
X148462647Y-53901444D01*
X148940279Y-54099774D01*
X149103202Y-54099916D01*
X146278119Y-56924999D01*
X144650006Y-56924999D01*
X144650001Y-56924998D01*
X144410824Y-56972574D01*
X144208059Y-57108057D01*
X144208057Y-57108060D01*
X144158057Y-57158059D01*
X144158055Y-57158062D01*
X144130556Y-57185561D01*
X143889857Y-57285016D01*
X143685733Y-57488784D01*
X143674152Y-57516674D01*
X143425000Y-57516674D01*
X143267504Y-57546309D01*
X143122854Y-57639389D01*
X143025814Y-57781412D01*
X143000306Y-57907376D01*
X142978691Y-57792504D01*
X142885611Y-57647854D01*
X142743588Y-57550814D01*
X142575000Y-57516674D01*
X142125000Y-57516674D01*
X141967504Y-57546309D01*
X141822854Y-57639389D01*
X141725814Y-57781412D01*
X141691674Y-57950000D01*
X141691674Y-58650000D01*
X141721309Y-58807496D01*
X141800000Y-58929785D01*
X141800000Y-59475087D01*
X141556421Y-59474874D01*
X141289857Y-59585016D01*
X141085733Y-59788784D01*
X140975126Y-60055156D01*
X140975084Y-60102901D01*
X140716896Y-60361088D01*
X140597671Y-60539521D01*
X140555805Y-60749997D01*
X140555805Y-61349999D01*
X140597671Y-61560475D01*
X140716896Y-61738908D01*
X141041894Y-62063905D01*
X141041896Y-62063908D01*
X141216674Y-62180691D01*
X141216674Y-62850000D01*
X141229220Y-62916674D01*
X140950000Y-62916674D01*
X140792504Y-62946309D01*
X140647854Y-63039389D01*
X140550814Y-63181412D01*
X140516674Y-63350000D01*
X140516674Y-64250000D01*
X140546309Y-64407496D01*
X140639389Y-64552146D01*
X140781412Y-64649186D01*
X140950000Y-64683326D01*
X141450000Y-64683326D01*
X141607496Y-64653691D01*
X141752146Y-64560611D01*
X141849186Y-64418588D01*
X141883326Y-64250000D01*
X141883326Y-63894492D01*
X142016674Y-63761144D01*
X142016674Y-64250000D01*
X142046309Y-64407496D01*
X142139389Y-64552146D01*
X142281412Y-64649186D01*
X142450000Y-64683326D01*
X142805508Y-64683326D01*
X142811091Y-64688909D01*
X142989524Y-64808134D01*
X143095699Y-64829254D01*
X143096309Y-64832496D01*
X143189389Y-64977146D01*
X143331412Y-65074186D01*
X143500000Y-65108326D01*
X144300000Y-65108326D01*
X144457496Y-65078691D01*
X144602146Y-64985611D01*
X144699186Y-64843588D01*
X144733326Y-64675000D01*
X144733326Y-63925000D01*
X144703691Y-63767504D01*
X144610611Y-63622854D01*
X144468588Y-63525814D01*
X144300000Y-63491674D01*
X143500000Y-63491674D01*
X143383326Y-63513628D01*
X143383326Y-63350000D01*
X143361840Y-63235813D01*
X143381412Y-63249186D01*
X143550000Y-63283326D01*
X144250000Y-63283326D01*
X144407496Y-63253691D01*
X144552146Y-63160611D01*
X144593934Y-63099452D01*
X144655156Y-63124874D01*
X144943579Y-63125126D01*
X144966032Y-63115849D01*
X144989389Y-63152146D01*
X145131412Y-63249186D01*
X145300000Y-63283326D01*
X146000000Y-63283326D01*
X146157496Y-63253691D01*
X146208227Y-63221046D01*
X146551088Y-63563907D01*
X146551090Y-63563910D01*
X146717420Y-63675048D01*
X146729523Y-63683135D01*
X146939999Y-63725002D01*
X146940004Y-63725001D01*
X148306449Y-63725001D01*
X148516925Y-63683135D01*
X148695358Y-63563910D01*
X149484241Y-62775027D01*
X156187982Y-62775030D01*
X156501896Y-63088943D01*
X156501898Y-63088946D01*
X156680331Y-63208171D01*
X156890807Y-63250037D01*
X157279369Y-63250037D01*
X157275143Y-63260215D01*
X157274857Y-63588421D01*
X157360727Y-63796242D01*
X157301090Y-63836090D01*
X157086092Y-64051088D01*
X157042269Y-64116674D01*
X156775108Y-64116674D01*
X156775126Y-64096419D01*
X156664984Y-63829855D01*
X156461216Y-63625731D01*
X156194844Y-63515124D01*
X155906421Y-63514872D01*
X155639857Y-63625014D01*
X155525053Y-63739617D01*
X155525126Y-63656421D01*
X155414984Y-63389857D01*
X155211216Y-63185733D01*
X154944844Y-63075126D01*
X154656421Y-63074874D01*
X154389857Y-63185016D01*
X154324759Y-63250000D01*
X153941798Y-63250000D01*
X153731322Y-63291866D01*
X153552889Y-63411091D01*
X153552887Y-63411094D01*
X153096090Y-63867890D01*
X152976865Y-64046323D01*
X152934999Y-64256799D01*
X152934999Y-65184999D01*
X152976865Y-65395475D01*
X153096090Y-65573908D01*
X154074953Y-66552770D01*
X154074874Y-66643579D01*
X154185016Y-66910143D01*
X154388784Y-67114267D01*
X154655156Y-67224874D01*
X154943579Y-67225126D01*
X155210143Y-67114984D01*
X155293964Y-67031310D01*
X155343615Y-67021433D01*
X155500000Y-67177818D01*
X155500000Y-67766674D01*
X155425000Y-67766674D01*
X155267504Y-67796309D01*
X155122854Y-67889389D01*
X155025814Y-68031412D01*
X154991674Y-68200000D01*
X154991674Y-69500000D01*
X155000000Y-69544249D01*
X155000000Y-69622923D01*
X154935126Y-69779157D01*
X154934880Y-70060569D01*
X154910611Y-70022854D01*
X154768588Y-69925814D01*
X154600000Y-69891674D01*
X153919491Y-69891674D01*
X153208326Y-69180508D01*
X153208326Y-68750000D01*
X153178691Y-68592504D01*
X153085611Y-68447854D01*
X152943588Y-68350814D01*
X152775000Y-68316674D01*
X152025000Y-68316674D01*
X151867504Y-68346309D01*
X151822751Y-68375107D01*
X151578830Y-68374894D01*
X151543588Y-68350814D01*
X151375000Y-68316674D01*
X150625000Y-68316674D01*
X150596254Y-68322083D01*
X150588909Y-68311091D01*
X149788909Y-67511091D01*
X149788906Y-67511089D01*
X149322833Y-67045016D01*
X149399774Y-66859721D01*
X149400226Y-66342548D01*
X149202729Y-65864571D01*
X148837353Y-65498556D01*
X148359721Y-65300226D01*
X147842548Y-65299774D01*
X147364571Y-65497271D01*
X146998556Y-65862647D01*
X146849879Y-66220700D01*
X146702729Y-65864571D01*
X146337353Y-65498556D01*
X145859721Y-65300226D01*
X145342548Y-65299774D01*
X144864571Y-65497271D01*
X144498556Y-65862647D01*
X144349879Y-66220700D01*
X144202729Y-65864571D01*
X143837353Y-65498556D01*
X143359721Y-65300226D01*
X142842548Y-65299774D01*
X142364571Y-65497271D01*
X141998556Y-65862647D01*
X141800226Y-66340279D01*
X141799774Y-66857452D01*
X141997271Y-67335429D01*
X142362647Y-67701444D01*
X142550000Y-67779240D01*
X142550000Y-68305834D01*
X142497854Y-68339389D01*
X142400814Y-68481412D01*
X142366674Y-68650000D01*
X142366674Y-69550000D01*
X142396309Y-69707496D01*
X142489389Y-69852146D01*
X142631412Y-69949186D01*
X142800000Y-69983326D01*
X143600000Y-69983326D01*
X143757496Y-69953691D01*
X143902146Y-69860611D01*
X143999186Y-69718588D01*
X144033326Y-69550000D01*
X144033326Y-68650000D01*
X144003691Y-68492504D01*
X143910611Y-68347854D01*
X143768588Y-68250814D01*
X143650000Y-68226799D01*
X143650000Y-67779347D01*
X143835429Y-67702729D01*
X144201444Y-67337353D01*
X144350121Y-66979300D01*
X144497271Y-67335429D01*
X144862647Y-67701444D01*
X145340279Y-67899774D01*
X145857452Y-67900226D01*
X146044940Y-67822757D01*
X146822223Y-68600040D01*
X146822225Y-68600043D01*
X146852146Y-68620036D01*
X146655508Y-68816674D01*
X146500000Y-68816674D01*
X146342504Y-68846309D01*
X146197854Y-68939389D01*
X146100814Y-69081412D01*
X146088014Y-69144623D01*
X145950000Y-69116674D01*
X145144903Y-69116674D01*
X145044844Y-69075126D01*
X144756421Y-69074874D01*
X144489857Y-69185016D01*
X144285733Y-69388784D01*
X144175126Y-69655156D01*
X144174874Y-69943579D01*
X144285016Y-70210143D01*
X144291536Y-70216674D01*
X143750000Y-70216674D01*
X143592504Y-70246309D01*
X143447854Y-70339389D01*
X143350814Y-70481412D01*
X143316674Y-70650000D01*
X143316674Y-71550000D01*
X143346309Y-71707496D01*
X143439389Y-71852146D01*
X143581412Y-71949186D01*
X143750000Y-71983326D01*
X144550000Y-71983326D01*
X144707496Y-71953691D01*
X144800457Y-71893872D01*
X144881412Y-71949186D01*
X145050000Y-71983326D01*
X145950000Y-71983326D01*
X146107496Y-71953691D01*
X146201471Y-71893220D01*
X146239389Y-71952146D01*
X146381412Y-72049186D01*
X146550000Y-72083326D01*
X147050000Y-72083326D01*
X147184999Y-72057924D01*
X147184999Y-72476529D01*
X146998556Y-72662647D01*
X146800226Y-73140279D01*
X146799774Y-73657452D01*
X146997271Y-74135429D01*
X147361217Y-74500011D01*
X144977828Y-74500011D01*
X144363908Y-73886090D01*
X144363905Y-73886088D01*
X144322833Y-73845016D01*
X144399774Y-73659721D01*
X144400226Y-73142548D01*
X144202729Y-72664571D01*
X143837353Y-72298556D01*
X143359721Y-72100226D01*
X142842548Y-72099774D01*
X142364571Y-72297271D01*
X141998556Y-72662647D01*
X141800226Y-73140279D01*
X141799774Y-73657452D01*
X141997271Y-74135429D01*
X142362647Y-74501444D01*
X142840279Y-74699774D01*
X143357452Y-74700226D01*
X143544940Y-74622757D01*
X143586088Y-74663905D01*
X143586090Y-74663908D01*
X144034563Y-75112381D01*
X143944844Y-75075126D01*
X143656421Y-75074874D01*
X143389857Y-75185016D01*
X143185733Y-75388784D01*
X143075126Y-75655156D01*
X143075025Y-75770978D01*
X143050814Y-75806412D01*
X143016674Y-75975000D01*
X143016674Y-76425000D01*
X143046309Y-76582496D01*
X143139389Y-76727146D01*
X143281412Y-76824186D01*
X143450000Y-76858326D01*
X144050000Y-76858326D01*
X144207496Y-76828691D01*
X144352146Y-76735611D01*
X144449186Y-76593588D01*
X144483326Y-76425000D01*
X144483326Y-76044903D01*
X144524874Y-75944844D01*
X144525126Y-75656421D01*
X144463537Y-75507365D01*
X144519629Y-75544844D01*
X144539535Y-75558145D01*
X144750011Y-75600011D01*
X146595585Y-75600011D01*
X146389857Y-75685016D01*
X146185733Y-75888784D01*
X146075126Y-76155156D01*
X146074874Y-76443579D01*
X146185016Y-76710143D01*
X146388784Y-76914267D01*
X146466674Y-76946610D01*
X146466674Y-77250000D01*
X146496309Y-77407496D01*
X146589389Y-77552146D01*
X146731412Y-77649186D01*
X146900000Y-77683326D01*
X147400000Y-77683326D01*
X147557496Y-77653691D01*
X147702146Y-77560611D01*
X147799186Y-77418588D01*
X147833326Y-77250000D01*
X147833326Y-76350000D01*
X147803691Y-76192504D01*
X147710611Y-76047854D01*
X147568588Y-75950814D01*
X147428445Y-75922434D01*
X147414984Y-75889857D01*
X147211216Y-75685733D01*
X147004774Y-75600011D01*
X148872171Y-75600011D01*
X148555508Y-75916674D01*
X148400000Y-75916674D01*
X148242504Y-75946309D01*
X148097854Y-76039389D01*
X148000814Y-76181412D01*
X147966674Y-76350000D01*
X147966674Y-77250000D01*
X147996309Y-77407496D01*
X148089389Y-77552146D01*
X148231412Y-77649186D01*
X148400000Y-77683326D01*
X148609099Y-77683326D01*
X148653868Y-77791674D01*
X148150000Y-77791674D01*
X147992504Y-77821309D01*
X147847854Y-77914389D01*
X147750814Y-78056412D01*
X147716674Y-78225000D01*
X147716674Y-78975000D01*
X147746309Y-79132496D01*
X147839389Y-79277146D01*
X147981412Y-79374186D01*
X148150000Y-79408326D01*
X148424442Y-79408326D01*
X148474948Y-79458832D01*
X148474857Y-79563383D01*
X148600191Y-79866715D01*
X148832065Y-80098993D01*
X149135177Y-80224857D01*
X149463383Y-80225143D01*
X149766715Y-80099809D01*
X149998993Y-79867935D01*
X150124857Y-79564823D01*
X150124972Y-79433326D01*
X150350000Y-79433326D01*
X150507496Y-79403691D01*
X150652146Y-79310611D01*
X150749186Y-79168588D01*
X150783326Y-79000000D01*
X150783326Y-78200000D01*
X150753691Y-78042504D01*
X150660611Y-77897854D01*
X150518588Y-77800814D01*
X150350000Y-77766674D01*
X150004514Y-77766674D01*
X150048874Y-77659844D01*
X150049126Y-77371421D01*
X149938984Y-77104857D01*
X149906001Y-77071817D01*
X150477787Y-76500031D01*
X153049969Y-76500031D01*
X153050125Y-76500000D01*
X153258885Y-76500000D01*
X153300000Y-76508326D01*
X154600000Y-76508326D01*
X154757496Y-76478691D01*
X154902146Y-76385611D01*
X154999186Y-76243588D01*
X155033326Y-76075000D01*
X155033326Y-75825000D01*
X155008942Y-75695411D01*
X155033326Y-75575000D01*
X155033326Y-75325000D01*
X155008942Y-75195411D01*
X155033326Y-75075000D01*
X155033326Y-74825000D01*
X155008942Y-74695411D01*
X155022536Y-74628282D01*
X155255156Y-74724874D01*
X155543579Y-74725126D01*
X155810143Y-74614984D01*
X156014267Y-74411216D01*
X156124874Y-74144844D01*
X156125126Y-73856421D01*
X156014984Y-73589857D01*
X155811216Y-73385733D01*
X155544844Y-73275126D01*
X155256421Y-73274874D01*
X155033326Y-73367055D01*
X155033326Y-73325000D01*
X155008942Y-73195411D01*
X155033326Y-73075000D01*
X155033326Y-72825000D01*
X155021427Y-72761761D01*
X155113214Y-72799874D01*
X155401637Y-72800126D01*
X155668201Y-72689984D01*
X155840334Y-72518151D01*
X156274953Y-72952771D01*
X156274874Y-73043579D01*
X156385016Y-73310143D01*
X156588784Y-73514267D01*
X156855156Y-73624874D01*
X157143579Y-73625126D01*
X157410143Y-73514984D01*
X157614267Y-73311216D01*
X157724874Y-73044844D01*
X157725126Y-72756421D01*
X157614984Y-72489857D01*
X157411216Y-72285733D01*
X157144844Y-72175126D01*
X157052863Y-72175046D01*
X155938909Y-71061091D01*
X155760476Y-70941866D01*
X155550000Y-70900000D01*
X154879785Y-70900000D01*
X154902146Y-70885611D01*
X154999186Y-70743588D01*
X155033326Y-70575000D01*
X155033326Y-70325000D01*
X155026710Y-70289841D01*
X155045016Y-70334144D01*
X155248784Y-70538268D01*
X155515156Y-70648875D01*
X155803579Y-70649127D01*
X156070143Y-70538985D01*
X156274267Y-70335217D01*
X156384874Y-70068845D01*
X156384999Y-69925226D01*
X156425000Y-69933326D01*
X156675000Y-69933326D01*
X156804589Y-69908942D01*
X156925000Y-69933326D01*
X157175000Y-69933326D01*
X157304589Y-69908942D01*
X157425000Y-69933326D01*
X157675000Y-69933326D01*
X157804589Y-69908942D01*
X157925000Y-69933326D01*
X158146007Y-69933326D01*
X158141866Y-69939524D01*
X158100000Y-70150000D01*
X158100000Y-73524629D01*
X158035733Y-73588784D01*
X157925126Y-73855156D01*
X157924874Y-74143579D01*
X158035016Y-74410143D01*
X158238784Y-74614267D01*
X158505156Y-74724874D01*
X158793579Y-74725126D01*
X158921896Y-74672106D01*
X158825126Y-74905156D01*
X158824874Y-75193579D01*
X158935016Y-75460143D01*
X159138784Y-75664267D01*
X159405156Y-75774874D01*
X159558406Y-75775008D01*
X159525126Y-75855156D01*
X159524874Y-76143579D01*
X159635016Y-76410143D01*
X159695616Y-76470849D01*
X159675000Y-76466674D01*
X159425000Y-76466674D01*
X159295411Y-76491058D01*
X159175000Y-76466674D01*
X158925000Y-76466674D01*
X158795411Y-76491058D01*
X158675000Y-76466674D01*
X158425000Y-76466674D01*
X158295411Y-76491058D01*
X158175000Y-76466674D01*
X157925000Y-76466674D01*
X157795411Y-76491058D01*
X157675000Y-76466674D01*
X157425000Y-76466674D01*
X157295411Y-76491058D01*
X157175000Y-76466674D01*
X156925000Y-76466674D01*
X156795411Y-76491058D01*
X156675000Y-76466674D01*
X156425000Y-76466674D01*
X156267504Y-76496309D01*
X156122854Y-76589389D01*
X156049370Y-76696937D01*
X155985611Y-76597854D01*
X155843588Y-76500814D01*
X155675000Y-76466674D01*
X155425000Y-76466674D01*
X155267504Y-76496309D01*
X155122854Y-76589389D01*
X155025814Y-76731412D01*
X154991674Y-76900000D01*
X154991674Y-77330508D01*
X154417067Y-77905115D01*
X154344844Y-77875126D01*
X154056421Y-77874874D01*
X153789857Y-77985016D01*
X153585733Y-78188784D01*
X153483068Y-78436028D01*
X153400814Y-78556412D01*
X153366674Y-78725000D01*
X153366674Y-78800092D01*
X153167935Y-78601007D01*
X152864823Y-78475143D01*
X152536617Y-78474857D01*
X152233285Y-78600191D01*
X152116599Y-78716674D01*
X151450000Y-78716674D01*
X151292504Y-78746309D01*
X151147854Y-78839389D01*
X151050814Y-78981412D01*
X151016674Y-79150000D01*
X151016674Y-79950000D01*
X151046309Y-80107496D01*
X151139389Y-80252146D01*
X151242326Y-80322480D01*
X151150814Y-80456412D01*
X151116674Y-80625000D01*
X151116674Y-81375000D01*
X151146309Y-81532496D01*
X151239389Y-81677146D01*
X151381412Y-81774186D01*
X151550000Y-81808326D01*
X152350000Y-81808326D01*
X152507496Y-81778691D01*
X152652146Y-81685611D01*
X152749186Y-81543588D01*
X152783326Y-81375000D01*
X152783326Y-80625000D01*
X152753691Y-80467504D01*
X152660611Y-80322854D01*
X152609592Y-80287994D01*
X152652146Y-80260611D01*
X152744778Y-80125040D01*
X152863383Y-80125143D01*
X153166715Y-79999809D01*
X153398993Y-79767935D01*
X153432122Y-79688151D01*
X153489389Y-79777146D01*
X153631412Y-79874186D01*
X153800000Y-79908326D01*
X154600000Y-79908326D01*
X154757496Y-79878691D01*
X154902146Y-79785611D01*
X154999186Y-79643588D01*
X155033326Y-79475000D01*
X155033326Y-78844492D01*
X155274890Y-78602928D01*
X155425000Y-78633326D01*
X155675000Y-78633326D01*
X155832496Y-78603691D01*
X155977146Y-78510611D01*
X156000000Y-78477163D01*
X156000000Y-79972182D01*
X155411091Y-80561091D01*
X155291866Y-80739524D01*
X155283995Y-80779094D01*
X155192504Y-80796309D01*
X155047854Y-80889389D01*
X154950814Y-81031412D01*
X154916674Y-81200000D01*
X154916674Y-81700000D01*
X154946309Y-81857496D01*
X155039389Y-82002146D01*
X155181412Y-82099186D01*
X155350000Y-82133326D01*
X156250000Y-82133326D01*
X156405507Y-82104065D01*
X156550000Y-82133326D01*
X157450000Y-82133326D01*
X157607496Y-82103691D01*
X157752146Y-82010611D01*
X157839116Y-81883326D01*
X158650000Y-81883326D01*
X158807496Y-81853691D01*
X158952146Y-81760611D01*
X159049186Y-81618588D01*
X159075007Y-81491079D01*
X159074874Y-81643579D01*
X159185016Y-81910143D01*
X159316674Y-82042031D01*
X159316674Y-82400000D01*
X159346309Y-82557496D01*
X159439389Y-82702146D01*
X159581412Y-82799186D01*
X159750000Y-82833326D01*
X160650000Y-82833326D01*
X160807496Y-82803691D01*
X160952146Y-82710611D01*
X161049186Y-82568588D01*
X161083326Y-82400000D01*
X161083326Y-82261144D01*
X163322182Y-84500000D01*
X145208300Y-84500000D01*
X145437572Y-84405267D01*
X146401881Y-83442640D01*
X146766980Y-82563383D01*
X147874857Y-82563383D01*
X148000191Y-82866715D01*
X148232065Y-83098993D01*
X148535177Y-83224857D01*
X148863383Y-83225143D01*
X149166715Y-83099809D01*
X149398993Y-82867935D01*
X149524857Y-82564823D01*
X149524858Y-82563383D01*
X152674857Y-82563383D01*
X152800191Y-82866715D01*
X153032065Y-83098993D01*
X153335177Y-83224857D01*
X153663383Y-83225143D01*
X153966715Y-83099809D01*
X154198993Y-82867935D01*
X154268726Y-82700000D01*
X154916674Y-82700000D01*
X154916674Y-83200000D01*
X154946309Y-83357496D01*
X155039389Y-83502146D01*
X155181412Y-83599186D01*
X155350000Y-83633326D01*
X156250000Y-83633326D01*
X156405507Y-83604065D01*
X156550000Y-83633326D01*
X157427279Y-83633326D01*
X157439389Y-83652146D01*
X157581412Y-83749186D01*
X157750000Y-83783326D01*
X158650000Y-83783326D01*
X158807496Y-83753691D01*
X158952146Y-83660611D01*
X159049186Y-83518588D01*
X159083326Y-83350000D01*
X159083326Y-82550000D01*
X159053691Y-82392504D01*
X158960611Y-82247854D01*
X158818588Y-82150814D01*
X158650000Y-82116674D01*
X157750000Y-82116674D01*
X157592504Y-82146309D01*
X157447854Y-82239389D01*
X157429211Y-82266674D01*
X156550000Y-82266674D01*
X156394493Y-82295935D01*
X156250000Y-82266674D01*
X155350000Y-82266674D01*
X155192504Y-82296309D01*
X155047854Y-82389389D01*
X154950814Y-82531412D01*
X154916674Y-82700000D01*
X154268726Y-82700000D01*
X154324857Y-82564823D01*
X154325143Y-82236617D01*
X154199809Y-81933285D01*
X153967935Y-81701007D01*
X153664823Y-81575143D01*
X153336617Y-81574857D01*
X153033285Y-81700191D01*
X152801007Y-81932065D01*
X152675143Y-82235177D01*
X152674857Y-82563383D01*
X149524858Y-82563383D01*
X149525143Y-82236617D01*
X149399809Y-81933285D01*
X149167935Y-81701007D01*
X148864823Y-81575143D01*
X148536617Y-81574857D01*
X148233285Y-81700191D01*
X148001007Y-81932065D01*
X147875143Y-82235177D01*
X147874857Y-82563383D01*
X146766980Y-82563383D01*
X146924404Y-82184264D01*
X146925593Y-80821714D01*
X146405267Y-79562428D01*
X145442640Y-78598119D01*
X144184264Y-78075596D01*
X142821714Y-78074407D01*
X141562428Y-78594733D01*
X140598119Y-79557360D01*
X140500000Y-79793657D01*
X140500000Y-75975000D01*
X140916674Y-75975000D01*
X140916674Y-76425000D01*
X140946309Y-76582496D01*
X140975063Y-76627181D01*
X140974874Y-76843579D01*
X141085016Y-77110143D01*
X141288784Y-77314267D01*
X141555156Y-77424874D01*
X141843579Y-77425126D01*
X142110143Y-77314984D01*
X142314267Y-77111216D01*
X142424874Y-76844844D01*
X142425126Y-76556421D01*
X142379214Y-76445306D01*
X142383326Y-76425000D01*
X142383326Y-75975000D01*
X142353691Y-75817504D01*
X142260611Y-75672854D01*
X142118588Y-75575814D01*
X141950000Y-75541674D01*
X141350000Y-75541674D01*
X141192504Y-75571309D01*
X141047854Y-75664389D01*
X140950814Y-75806412D01*
X140916674Y-75975000D01*
X140500000Y-75975000D01*
X140500000Y-70743579D01*
X141374874Y-70743579D01*
X141416674Y-70844743D01*
X141416674Y-71550000D01*
X141446309Y-71707496D01*
X141539389Y-71852146D01*
X141681412Y-71949186D01*
X141850000Y-71983326D01*
X142650000Y-71983326D01*
X142807496Y-71953691D01*
X142952146Y-71860611D01*
X143049186Y-71718588D01*
X143083326Y-71550000D01*
X143083326Y-70650000D01*
X143053691Y-70492504D01*
X142960611Y-70347854D01*
X142818588Y-70250814D01*
X142733010Y-70233484D01*
X142714984Y-70189857D01*
X142511216Y-69985733D01*
X142244844Y-69875126D01*
X141956421Y-69874874D01*
X141689857Y-69985016D01*
X141485733Y-70188784D01*
X141375126Y-70455156D01*
X141374874Y-70743579D01*
X140500000Y-70743579D01*
X140500000Y-55208300D01*
X140594733Y-55437572D01*
X141557360Y-56401881D01*
X142815736Y-56924404D01*
X144178286Y-56925593D01*
X145437572Y-56405267D01*
X146401881Y-55442640D01*
X146924404Y-54184264D01*
X146925593Y-52821714D01*
X146405267Y-51562428D01*
X145442640Y-50598119D01*
X145206343Y-50500000D01*
X190742977Y-50500000D01*
X190645411Y-50646018D01*
X190645411Y-50646018D01*
G37*
X190645411Y-50646018D02*
X190575000Y-51000000D01*
X190575000Y-54500000D01*
X190645411Y-54853982D01*
X190845926Y-55154074D01*
X191095396Y-55320765D01*
X191092504Y-55321309D01*
X190947854Y-55414389D01*
X190850814Y-55556412D01*
X190816674Y-55725000D01*
X190816674Y-56475000D01*
X190846309Y-56632496D01*
X190865561Y-56662415D01*
X190689857Y-56735014D01*
X190507880Y-56916674D01*
X190400000Y-56916674D01*
X190242504Y-56946309D01*
X190097854Y-57039389D01*
X190000814Y-57181412D01*
X189966674Y-57350000D01*
X189966674Y-57650000D01*
X189996309Y-57807496D01*
X190089389Y-57952146D01*
X190159251Y-57999881D01*
X190097854Y-58039389D01*
X190000814Y-58181412D01*
X189966674Y-58350000D01*
X189966674Y-58650000D01*
X189986181Y-58753671D01*
X189966674Y-58850000D01*
X189966674Y-59150000D01*
X189986181Y-59253671D01*
X189966674Y-59350000D01*
X189966674Y-59650000D01*
X189996309Y-59807496D01*
X190089389Y-59952146D01*
X190231412Y-60049186D01*
X190400000Y-60083326D01*
X190905508Y-60083326D01*
X190962681Y-60140499D01*
X190847854Y-60214389D01*
X190750814Y-60356412D01*
X190716674Y-60525000D01*
X190716674Y-61040001D01*
X188334999Y-61040001D01*
X188019285Y-61102800D01*
X187751636Y-61281638D01*
X187579250Y-61454024D01*
X187431890Y-61306407D01*
X187165518Y-61195800D01*
X186877095Y-61195548D01*
X186610531Y-61305690D01*
X186545433Y-61370674D01*
X185212324Y-61370674D01*
X185001848Y-61412540D01*
X184823415Y-61531765D01*
X183011091Y-63344089D01*
X182914280Y-63488977D01*
X182811216Y-63385733D01*
X182544844Y-63275126D01*
X182256421Y-63274874D01*
X181989857Y-63385016D01*
X181923455Y-63451302D01*
X181719526Y-63491866D01*
X181541093Y-63611091D01*
X181541091Y-63611094D01*
X181026092Y-64126092D01*
X180906867Y-64304525D01*
X180865001Y-64515001D01*
X180865001Y-65624183D01*
X180654185Y-65834999D01*
X177965001Y-65834999D01*
X177754525Y-65876865D01*
X177576092Y-65996090D01*
X176655508Y-66916674D01*
X176500000Y-66916674D01*
X176425510Y-66930690D01*
X176140910Y-66646090D01*
X175962477Y-66526865D01*
X175752001Y-66484999D01*
X173625208Y-66484999D01*
X173625203Y-66484998D01*
X173414727Y-66526865D01*
X173236294Y-66646090D01*
X173208326Y-66674058D01*
X173208326Y-66519492D01*
X173344492Y-66383326D01*
X173700000Y-66383326D01*
X173857496Y-66353691D01*
X174002146Y-66260611D01*
X174099186Y-66118588D01*
X174133326Y-65950000D01*
X174133326Y-65050000D01*
X174266674Y-65050000D01*
X174266674Y-65950000D01*
X174296309Y-66107496D01*
X174389389Y-66252146D01*
X174531412Y-66349186D01*
X174700000Y-66383326D01*
X175200000Y-66383326D01*
X175357496Y-66353691D01*
X175502146Y-66260611D01*
X175599186Y-66118588D01*
X175613075Y-66050000D01*
X176424629Y-66050000D01*
X176488784Y-66114267D01*
X176755156Y-66224874D01*
X177043579Y-66225126D01*
X177310143Y-66114984D01*
X177514267Y-65911216D01*
X177624874Y-65644844D01*
X177625126Y-65356421D01*
X177514984Y-65089857D01*
X177311216Y-64885733D01*
X177044844Y-64775126D01*
X176756421Y-64774874D01*
X176489857Y-64885016D01*
X176424759Y-64950000D01*
X175614510Y-64950000D01*
X175603691Y-64892504D01*
X175510611Y-64747854D01*
X175368588Y-64650814D01*
X175200000Y-64616674D01*
X174700000Y-64616674D01*
X174542504Y-64646309D01*
X174397854Y-64739389D01*
X174300814Y-64881412D01*
X174266674Y-65050000D01*
X174133326Y-65050000D01*
X174103691Y-64892504D01*
X174010611Y-64747854D01*
X173868588Y-64650814D01*
X173700000Y-64616674D01*
X173200000Y-64616674D01*
X173042504Y-64646309D01*
X172897854Y-64739389D01*
X172800814Y-64881412D01*
X172766674Y-65050000D01*
X172766674Y-65405508D01*
X172555508Y-65616674D01*
X172054242Y-65616674D01*
X172066067Y-65588195D01*
X172066319Y-65299772D01*
X171956177Y-65033208D01*
X171849506Y-64926351D01*
X171924874Y-64744844D01*
X171925126Y-64456421D01*
X171814984Y-64189857D01*
X171611216Y-63985733D01*
X171489338Y-63935125D01*
X171660144Y-63864549D01*
X171749979Y-63774871D01*
X171838785Y-63863832D01*
X172105157Y-63974439D01*
X172393580Y-63974691D01*
X172660144Y-63864549D01*
X172749978Y-63774871D01*
X172838783Y-63863831D01*
X173105155Y-63974438D01*
X173393578Y-63974690D01*
X173660142Y-63864548D01*
X173749977Y-63774869D01*
X173838785Y-63863832D01*
X174105157Y-63974439D01*
X174393580Y-63974691D01*
X174516674Y-63923830D01*
X174516674Y-64175000D01*
X174546309Y-64332496D01*
X174639389Y-64477146D01*
X174781412Y-64574186D01*
X174950000Y-64608326D01*
X175750000Y-64608326D01*
X175904012Y-64579347D01*
X175988784Y-64664267D01*
X176255156Y-64774874D01*
X176543579Y-64775126D01*
X176810143Y-64664984D01*
X176866900Y-64608326D01*
X177250000Y-64608326D01*
X177407496Y-64578691D01*
X177552146Y-64485611D01*
X177649186Y-64343588D01*
X177683326Y-64175000D01*
X177683326Y-63433326D01*
X177750000Y-63433326D01*
X177907496Y-63403691D01*
X178052146Y-63310611D01*
X178149186Y-63168588D01*
X178183326Y-63000000D01*
X178183326Y-62875000D01*
X178235046Y-62875000D01*
X178355156Y-62924874D01*
X178643579Y-62925126D01*
X178910143Y-62814984D01*
X179114267Y-62611216D01*
X179224874Y-62344844D01*
X179225126Y-62056421D01*
X179127963Y-61821267D01*
X179399230Y-61550000D01*
X182135002Y-61550000D01*
X182345478Y-61508134D01*
X182523911Y-61388909D01*
X182713910Y-61198910D01*
X182833135Y-61020477D01*
X182871995Y-60825115D01*
X182889389Y-60852146D01*
X183031412Y-60949186D01*
X183200000Y-60983326D01*
X183900000Y-60983326D01*
X184057496Y-60953691D01*
X184202146Y-60860611D01*
X184299186Y-60718588D01*
X184333326Y-60550000D01*
X184333326Y-59250000D01*
X184303691Y-59092504D01*
X184210611Y-58947854D01*
X184082108Y-58860052D01*
X184078832Y-58843579D01*
X184274874Y-58843579D01*
X184385016Y-59110143D01*
X184588784Y-59314267D01*
X184855156Y-59424874D01*
X185143579Y-59425126D01*
X185410143Y-59314984D01*
X185614267Y-59111216D01*
X185724874Y-58844844D01*
X185725126Y-58556421D01*
X185720008Y-58544034D01*
X185750000Y-58550000D01*
X185835432Y-58550000D01*
X186000000Y-58583326D01*
X187400000Y-58583326D01*
X187557496Y-58553691D01*
X187702146Y-58460611D01*
X187799186Y-58318588D01*
X187833326Y-58150000D01*
X187833326Y-57850000D01*
X187813819Y-57746329D01*
X187833326Y-57650000D01*
X187833326Y-57350000D01*
X187803691Y-57192504D01*
X187710611Y-57047854D01*
X187568588Y-56950814D01*
X187400000Y-56916674D01*
X186894492Y-56916674D01*
X186677168Y-56699350D01*
X186707118Y-56627221D01*
X186707370Y-56338798D01*
X186597228Y-56072234D01*
X186393460Y-55868110D01*
X186127088Y-55757503D01*
X185838665Y-55757251D01*
X185572101Y-55867393D01*
X185464498Y-55974808D01*
X185344844Y-55925124D01*
X185056421Y-55924872D01*
X184789857Y-56035014D01*
X184585733Y-56238782D01*
X184475126Y-56505154D01*
X184474874Y-56793577D01*
X184585016Y-57060141D01*
X184650000Y-57125239D01*
X184650000Y-57450000D01*
X184691866Y-57660476D01*
X184811091Y-57838909D01*
X184947136Y-57974953D01*
X184856421Y-57974874D01*
X184589857Y-58085016D01*
X184385733Y-58288784D01*
X184275126Y-58555156D01*
X184274874Y-58843579D01*
X184078832Y-58843579D01*
X184058134Y-58739524D01*
X183938909Y-58561091D01*
X183258326Y-57880508D01*
X183258326Y-57650000D01*
X183228691Y-57492504D01*
X183224647Y-57486219D01*
X183324874Y-57244844D01*
X183325126Y-56956421D01*
X183253605Y-56783326D01*
X183475000Y-56783326D01*
X183632496Y-56753691D01*
X183777146Y-56660611D01*
X183874186Y-56518588D01*
X183908326Y-56350000D01*
X183908326Y-56298373D01*
X184110143Y-56214984D01*
X184314267Y-56011216D01*
X184424874Y-55744844D01*
X184425126Y-55456421D01*
X184314984Y-55189857D01*
X184111216Y-54985733D01*
X183869069Y-54885185D01*
X183641942Y-54658058D01*
X183439177Y-54522575D01*
X183200000Y-54475000D01*
X181558883Y-54475000D01*
X180508326Y-53424442D01*
X180508326Y-51925000D01*
X180478691Y-51767504D01*
X180385611Y-51622854D01*
X180243588Y-51525814D01*
X180075000Y-51491674D01*
X178325000Y-51491674D01*
X178167504Y-51521309D01*
X178022854Y-51614389D01*
X177925814Y-51756412D01*
X177891674Y-51925000D01*
X177891674Y-52279833D01*
X177802729Y-52064571D01*
X177437353Y-51698556D01*
X176959721Y-51500226D01*
X176442548Y-51499774D01*
X175964571Y-51697271D01*
X175598556Y-52062647D01*
X175449879Y-52420700D01*
X175302729Y-52064571D01*
X174937353Y-51698556D01*
X174459721Y-51500226D01*
X173942548Y-51499774D01*
X173464571Y-51697271D01*
X173098556Y-52062647D01*
X172949879Y-52420700D01*
X172802729Y-52064571D01*
X172437353Y-51698556D01*
X171959721Y-51500226D01*
X171442548Y-51499774D01*
X170964571Y-51697271D01*
X170598556Y-52062647D01*
X170449879Y-52420700D01*
X170302729Y-52064571D01*
X169937353Y-51698556D01*
X169459721Y-51500226D01*
X168942548Y-51499774D01*
X168464571Y-51697271D01*
X168098556Y-52062647D01*
X167949879Y-52420700D01*
X167802729Y-52064571D01*
X167437353Y-51698556D01*
X166959721Y-51500226D01*
X166442548Y-51499774D01*
X165964571Y-51697271D01*
X165598556Y-52062647D01*
X165449879Y-52420700D01*
X165302729Y-52064571D01*
X164937353Y-51698556D01*
X164459721Y-51500226D01*
X163942548Y-51499774D01*
X163464571Y-51697271D01*
X163098556Y-52062647D01*
X162949879Y-52420700D01*
X162802729Y-52064571D01*
X162437353Y-51698556D01*
X161959721Y-51500226D01*
X161442548Y-51499774D01*
X160964571Y-51697271D01*
X160598556Y-52062647D01*
X160449879Y-52420700D01*
X160302729Y-52064571D01*
X159937353Y-51698556D01*
X159459721Y-51500226D01*
X158942548Y-51499774D01*
X158464571Y-51697271D01*
X158098556Y-52062647D01*
X157949879Y-52420700D01*
X157802729Y-52064571D01*
X157437353Y-51698556D01*
X156959721Y-51500226D01*
X156442548Y-51499774D01*
X155964571Y-51697271D01*
X155598556Y-52062647D01*
X155449879Y-52420700D01*
X155302729Y-52064571D01*
X154937353Y-51698556D01*
X154459721Y-51500226D01*
X153942548Y-51499774D01*
X153464571Y-51697271D01*
X153098556Y-52062647D01*
X152949879Y-52420700D01*
X152802729Y-52064571D01*
X152437353Y-51698556D01*
X151959721Y-51500226D01*
X151442548Y-51499774D01*
X150964571Y-51697271D01*
X150598556Y-52062647D01*
X150449879Y-52420700D01*
X150302729Y-52064571D01*
X149937353Y-51698556D01*
X149459721Y-51500226D01*
X148942548Y-51499774D01*
X148464571Y-51697271D01*
X148098556Y-52062647D01*
X147900226Y-52540279D01*
X147899774Y-53057452D01*
X148097271Y-53535429D01*
X148462647Y-53901444D01*
X148940279Y-54099774D01*
X149103202Y-54099916D01*
X146278119Y-56924999D01*
X144650006Y-56924999D01*
X144650001Y-56924998D01*
X144410824Y-56972574D01*
X144208059Y-57108057D01*
X144208057Y-57108060D01*
X144158057Y-57158059D01*
X144158055Y-57158062D01*
X144130556Y-57185561D01*
X143889857Y-57285016D01*
X143685733Y-57488784D01*
X143674152Y-57516674D01*
X143425000Y-57516674D01*
X143267504Y-57546309D01*
X143122854Y-57639389D01*
X143025814Y-57781412D01*
X143000306Y-57907376D01*
X142978691Y-57792504D01*
X142885611Y-57647854D01*
X142743588Y-57550814D01*
X142575000Y-57516674D01*
X142125000Y-57516674D01*
X141967504Y-57546309D01*
X141822854Y-57639389D01*
X141725814Y-57781412D01*
X141691674Y-57950000D01*
X141691674Y-58650000D01*
X141721309Y-58807496D01*
X141800000Y-58929785D01*
X141800000Y-59475087D01*
X141556421Y-59474874D01*
X141289857Y-59585016D01*
X141085733Y-59788784D01*
X140975126Y-60055156D01*
X140975084Y-60102901D01*
X140716896Y-60361088D01*
X140597671Y-60539521D01*
X140555805Y-60749997D01*
X140555805Y-61349999D01*
X140597671Y-61560475D01*
X140716896Y-61738908D01*
X141041894Y-62063905D01*
X141041896Y-62063908D01*
X141216674Y-62180691D01*
X141216674Y-62850000D01*
X141229220Y-62916674D01*
X140950000Y-62916674D01*
X140792504Y-62946309D01*
X140647854Y-63039389D01*
X140550814Y-63181412D01*
X140516674Y-63350000D01*
X140516674Y-64250000D01*
X140546309Y-64407496D01*
X140639389Y-64552146D01*
X140781412Y-64649186D01*
X140950000Y-64683326D01*
X141450000Y-64683326D01*
X141607496Y-64653691D01*
X141752146Y-64560611D01*
X141849186Y-64418588D01*
X141883326Y-64250000D01*
X141883326Y-63894492D01*
X142016674Y-63761144D01*
X142016674Y-64250000D01*
X142046309Y-64407496D01*
X142139389Y-64552146D01*
X142281412Y-64649186D01*
X142450000Y-64683326D01*
X142805508Y-64683326D01*
X142811091Y-64688909D01*
X142989524Y-64808134D01*
X143095699Y-64829254D01*
X143096309Y-64832496D01*
X143189389Y-64977146D01*
X143331412Y-65074186D01*
X143500000Y-65108326D01*
X144300000Y-65108326D01*
X144457496Y-65078691D01*
X144602146Y-64985611D01*
X144699186Y-64843588D01*
X144733326Y-64675000D01*
X144733326Y-63925000D01*
X144703691Y-63767504D01*
X144610611Y-63622854D01*
X144468588Y-63525814D01*
X144300000Y-63491674D01*
X143500000Y-63491674D01*
X143383326Y-63513628D01*
X143383326Y-63350000D01*
X143361840Y-63235813D01*
X143381412Y-63249186D01*
X143550000Y-63283326D01*
X144250000Y-63283326D01*
X144407496Y-63253691D01*
X144552146Y-63160611D01*
X144593934Y-63099452D01*
X144655156Y-63124874D01*
X144943579Y-63125126D01*
X144966032Y-63115849D01*
X144989389Y-63152146D01*
X145131412Y-63249186D01*
X145300000Y-63283326D01*
X146000000Y-63283326D01*
X146157496Y-63253691D01*
X146208227Y-63221046D01*
X146551088Y-63563907D01*
X146551090Y-63563910D01*
X146717420Y-63675048D01*
X146729523Y-63683135D01*
X146939999Y-63725002D01*
X146940004Y-63725001D01*
X148306449Y-63725001D01*
X148516925Y-63683135D01*
X148695358Y-63563910D01*
X149484241Y-62775027D01*
X156187982Y-62775030D01*
X156501896Y-63088943D01*
X156501898Y-63088946D01*
X156680331Y-63208171D01*
X156890807Y-63250037D01*
X157279369Y-63250037D01*
X157275143Y-63260215D01*
X157274857Y-63588421D01*
X157360727Y-63796242D01*
X157301090Y-63836090D01*
X157086092Y-64051088D01*
X157042269Y-64116674D01*
X156775108Y-64116674D01*
X156775126Y-64096419D01*
X156664984Y-63829855D01*
X156461216Y-63625731D01*
X156194844Y-63515124D01*
X155906421Y-63514872D01*
X155639857Y-63625014D01*
X155525053Y-63739617D01*
X155525126Y-63656421D01*
X155414984Y-63389857D01*
X155211216Y-63185733D01*
X154944844Y-63075126D01*
X154656421Y-63074874D01*
X154389857Y-63185016D01*
X154324759Y-63250000D01*
X153941798Y-63250000D01*
X153731322Y-63291866D01*
X153552889Y-63411091D01*
X153552887Y-63411094D01*
X153096090Y-63867890D01*
X152976865Y-64046323D01*
X152934999Y-64256799D01*
X152934999Y-65184999D01*
X152976865Y-65395475D01*
X153096090Y-65573908D01*
X154074953Y-66552770D01*
X154074874Y-66643579D01*
X154185016Y-66910143D01*
X154388784Y-67114267D01*
X154655156Y-67224874D01*
X154943579Y-67225126D01*
X155210143Y-67114984D01*
X155293964Y-67031310D01*
X155343615Y-67021433D01*
X155500000Y-67177818D01*
X155500000Y-67766674D01*
X155425000Y-67766674D01*
X155267504Y-67796309D01*
X155122854Y-67889389D01*
X155025814Y-68031412D01*
X154991674Y-68200000D01*
X154991674Y-69500000D01*
X155000000Y-69544249D01*
X155000000Y-69622923D01*
X154935126Y-69779157D01*
X154934880Y-70060569D01*
X154910611Y-70022854D01*
X154768588Y-69925814D01*
X154600000Y-69891674D01*
X153919491Y-69891674D01*
X153208326Y-69180508D01*
X153208326Y-68750000D01*
X153178691Y-68592504D01*
X153085611Y-68447854D01*
X152943588Y-68350814D01*
X152775000Y-68316674D01*
X152025000Y-68316674D01*
X151867504Y-68346309D01*
X151822751Y-68375107D01*
X151578830Y-68374894D01*
X151543588Y-68350814D01*
X151375000Y-68316674D01*
X150625000Y-68316674D01*
X150596254Y-68322083D01*
X150588909Y-68311091D01*
X149788909Y-67511091D01*
X149788906Y-67511089D01*
X149322833Y-67045016D01*
X149399774Y-66859721D01*
X149400226Y-66342548D01*
X149202729Y-65864571D01*
X148837353Y-65498556D01*
X148359721Y-65300226D01*
X147842548Y-65299774D01*
X147364571Y-65497271D01*
X146998556Y-65862647D01*
X146849879Y-66220700D01*
X146702729Y-65864571D01*
X146337353Y-65498556D01*
X145859721Y-65300226D01*
X145342548Y-65299774D01*
X144864571Y-65497271D01*
X144498556Y-65862647D01*
X144349879Y-66220700D01*
X144202729Y-65864571D01*
X143837353Y-65498556D01*
X143359721Y-65300226D01*
X142842548Y-65299774D01*
X142364571Y-65497271D01*
X141998556Y-65862647D01*
X141800226Y-66340279D01*
X141799774Y-66857452D01*
X141997271Y-67335429D01*
X142362647Y-67701444D01*
X142550000Y-67779240D01*
X142550000Y-68305834D01*
X142497854Y-68339389D01*
X142400814Y-68481412D01*
X142366674Y-68650000D01*
X142366674Y-69550000D01*
X142396309Y-69707496D01*
X142489389Y-69852146D01*
X142631412Y-69949186D01*
X142800000Y-69983326D01*
X143600000Y-69983326D01*
X143757496Y-69953691D01*
X143902146Y-69860611D01*
X143999186Y-69718588D01*
X144033326Y-69550000D01*
X144033326Y-68650000D01*
X144003691Y-68492504D01*
X143910611Y-68347854D01*
X143768588Y-68250814D01*
X143650000Y-68226799D01*
X143650000Y-67779347D01*
X143835429Y-67702729D01*
X144201444Y-67337353D01*
X144350121Y-66979300D01*
X144497271Y-67335429D01*
X144862647Y-67701444D01*
X145340279Y-67899774D01*
X145857452Y-67900226D01*
X146044940Y-67822757D01*
X146822223Y-68600040D01*
X146822225Y-68600043D01*
X146852146Y-68620036D01*
X146655508Y-68816674D01*
X146500000Y-68816674D01*
X146342504Y-68846309D01*
X146197854Y-68939389D01*
X146100814Y-69081412D01*
X146088014Y-69144623D01*
X145950000Y-69116674D01*
X145144903Y-69116674D01*
X145044844Y-69075126D01*
X144756421Y-69074874D01*
X144489857Y-69185016D01*
X144285733Y-69388784D01*
X144175126Y-69655156D01*
X144174874Y-69943579D01*
X144285016Y-70210143D01*
X144291536Y-70216674D01*
X143750000Y-70216674D01*
X143592504Y-70246309D01*
X143447854Y-70339389D01*
X143350814Y-70481412D01*
X143316674Y-70650000D01*
X143316674Y-71550000D01*
X143346309Y-71707496D01*
X143439389Y-71852146D01*
X143581412Y-71949186D01*
X143750000Y-71983326D01*
X144550000Y-71983326D01*
X144707496Y-71953691D01*
X144800457Y-71893872D01*
X144881412Y-71949186D01*
X145050000Y-71983326D01*
X145950000Y-71983326D01*
X146107496Y-71953691D01*
X146201471Y-71893220D01*
X146239389Y-71952146D01*
X146381412Y-72049186D01*
X146550000Y-72083326D01*
X147050000Y-72083326D01*
X147184999Y-72057924D01*
X147184999Y-72476529D01*
X146998556Y-72662647D01*
X146800226Y-73140279D01*
X146799774Y-73657452D01*
X146997271Y-74135429D01*
X147361217Y-74500011D01*
X144977828Y-74500011D01*
X144363908Y-73886090D01*
X144363905Y-73886088D01*
X144322833Y-73845016D01*
X144399774Y-73659721D01*
X144400226Y-73142548D01*
X144202729Y-72664571D01*
X143837353Y-72298556D01*
X143359721Y-72100226D01*
X142842548Y-72099774D01*
X142364571Y-72297271D01*
X141998556Y-72662647D01*
X141800226Y-73140279D01*
X141799774Y-73657452D01*
X141997271Y-74135429D01*
X142362647Y-74501444D01*
X142840279Y-74699774D01*
X143357452Y-74700226D01*
X143544940Y-74622757D01*
X143586088Y-74663905D01*
X143586090Y-74663908D01*
X144034563Y-75112381D01*
X143944844Y-75075126D01*
X143656421Y-75074874D01*
X143389857Y-75185016D01*
X143185733Y-75388784D01*
X143075126Y-75655156D01*
X143075025Y-75770978D01*
X143050814Y-75806412D01*
X143016674Y-75975000D01*
X143016674Y-76425000D01*
X143046309Y-76582496D01*
X143139389Y-76727146D01*
X143281412Y-76824186D01*
X143450000Y-76858326D01*
X144050000Y-76858326D01*
X144207496Y-76828691D01*
X144352146Y-76735611D01*
X144449186Y-76593588D01*
X144483326Y-76425000D01*
X144483326Y-76044903D01*
X144524874Y-75944844D01*
X144525126Y-75656421D01*
X144463537Y-75507365D01*
X144519629Y-75544844D01*
X144539535Y-75558145D01*
X144750011Y-75600011D01*
X146595585Y-75600011D01*
X146389857Y-75685016D01*
X146185733Y-75888784D01*
X146075126Y-76155156D01*
X146074874Y-76443579D01*
X146185016Y-76710143D01*
X146388784Y-76914267D01*
X146466674Y-76946610D01*
X146466674Y-77250000D01*
X146496309Y-77407496D01*
X146589389Y-77552146D01*
X146731412Y-77649186D01*
X146900000Y-77683326D01*
X147400000Y-77683326D01*
X147557496Y-77653691D01*
X147702146Y-77560611D01*
X147799186Y-77418588D01*
X147833326Y-77250000D01*
X147833326Y-76350000D01*
X147803691Y-76192504D01*
X147710611Y-76047854D01*
X147568588Y-75950814D01*
X147428445Y-75922434D01*
X147414984Y-75889857D01*
X147211216Y-75685733D01*
X147004774Y-75600011D01*
X148872171Y-75600011D01*
X148555508Y-75916674D01*
X148400000Y-75916674D01*
X148242504Y-75946309D01*
X148097854Y-76039389D01*
X148000814Y-76181412D01*
X147966674Y-76350000D01*
X147966674Y-77250000D01*
X147996309Y-77407496D01*
X148089389Y-77552146D01*
X148231412Y-77649186D01*
X148400000Y-77683326D01*
X148609099Y-77683326D01*
X148653868Y-77791674D01*
X148150000Y-77791674D01*
X147992504Y-77821309D01*
X147847854Y-77914389D01*
X147750814Y-78056412D01*
X147716674Y-78225000D01*
X147716674Y-78975000D01*
X147746309Y-79132496D01*
X147839389Y-79277146D01*
X147981412Y-79374186D01*
X148150000Y-79408326D01*
X148424442Y-79408326D01*
X148474948Y-79458832D01*
X148474857Y-79563383D01*
X148600191Y-79866715D01*
X148832065Y-80098993D01*
X149135177Y-80224857D01*
X149463383Y-80225143D01*
X149766715Y-80099809D01*
X149998993Y-79867935D01*
X150124857Y-79564823D01*
X150124972Y-79433326D01*
X150350000Y-79433326D01*
X150507496Y-79403691D01*
X150652146Y-79310611D01*
X150749186Y-79168588D01*
X150783326Y-79000000D01*
X150783326Y-78200000D01*
X150753691Y-78042504D01*
X150660611Y-77897854D01*
X150518588Y-77800814D01*
X150350000Y-77766674D01*
X150004514Y-77766674D01*
X150048874Y-77659844D01*
X150049126Y-77371421D01*
X149938984Y-77104857D01*
X149906001Y-77071817D01*
X150477787Y-76500031D01*
X153049969Y-76500031D01*
X153050125Y-76500000D01*
X153258885Y-76500000D01*
X153300000Y-76508326D01*
X154600000Y-76508326D01*
X154757496Y-76478691D01*
X154902146Y-76385611D01*
X154999186Y-76243588D01*
X155033326Y-76075000D01*
X155033326Y-75825000D01*
X155008942Y-75695411D01*
X155033326Y-75575000D01*
X155033326Y-75325000D01*
X155008942Y-75195411D01*
X155033326Y-75075000D01*
X155033326Y-74825000D01*
X155008942Y-74695411D01*
X155022536Y-74628282D01*
X155255156Y-74724874D01*
X155543579Y-74725126D01*
X155810143Y-74614984D01*
X156014267Y-74411216D01*
X156124874Y-74144844D01*
X156125126Y-73856421D01*
X156014984Y-73589857D01*
X155811216Y-73385733D01*
X155544844Y-73275126D01*
X155256421Y-73274874D01*
X155033326Y-73367055D01*
X155033326Y-73325000D01*
X155008942Y-73195411D01*
X155033326Y-73075000D01*
X155033326Y-72825000D01*
X155021427Y-72761761D01*
X155113214Y-72799874D01*
X155401637Y-72800126D01*
X155668201Y-72689984D01*
X155840334Y-72518151D01*
X156274953Y-72952771D01*
X156274874Y-73043579D01*
X156385016Y-73310143D01*
X156588784Y-73514267D01*
X156855156Y-73624874D01*
X157143579Y-73625126D01*
X157410143Y-73514984D01*
X157614267Y-73311216D01*
X157724874Y-73044844D01*
X157725126Y-72756421D01*
X157614984Y-72489857D01*
X157411216Y-72285733D01*
X157144844Y-72175126D01*
X157052863Y-72175046D01*
X155938909Y-71061091D01*
X155760476Y-70941866D01*
X155550000Y-70900000D01*
X154879785Y-70900000D01*
X154902146Y-70885611D01*
X154999186Y-70743588D01*
X155033326Y-70575000D01*
X155033326Y-70325000D01*
X155026710Y-70289841D01*
X155045016Y-70334144D01*
X155248784Y-70538268D01*
X155515156Y-70648875D01*
X155803579Y-70649127D01*
X156070143Y-70538985D01*
X156274267Y-70335217D01*
X156384874Y-70068845D01*
X156384999Y-69925226D01*
X156425000Y-69933326D01*
X156675000Y-69933326D01*
X156804589Y-69908942D01*
X156925000Y-69933326D01*
X157175000Y-69933326D01*
X157304589Y-69908942D01*
X157425000Y-69933326D01*
X157675000Y-69933326D01*
X157804589Y-69908942D01*
X157925000Y-69933326D01*
X158146007Y-69933326D01*
X158141866Y-69939524D01*
X158100000Y-70150000D01*
X158100000Y-73524629D01*
X158035733Y-73588784D01*
X157925126Y-73855156D01*
X157924874Y-74143579D01*
X158035016Y-74410143D01*
X158238784Y-74614267D01*
X158505156Y-74724874D01*
X158793579Y-74725126D01*
X158921896Y-74672106D01*
X158825126Y-74905156D01*
X158824874Y-75193579D01*
X158935016Y-75460143D01*
X159138784Y-75664267D01*
X159405156Y-75774874D01*
X159558406Y-75775008D01*
X159525126Y-75855156D01*
X159524874Y-76143579D01*
X159635016Y-76410143D01*
X159695616Y-76470849D01*
X159675000Y-76466674D01*
X159425000Y-76466674D01*
X159295411Y-76491058D01*
X159175000Y-76466674D01*
X158925000Y-76466674D01*
X158795411Y-76491058D01*
X158675000Y-76466674D01*
X158425000Y-76466674D01*
X158295411Y-76491058D01*
X158175000Y-76466674D01*
X157925000Y-76466674D01*
X157795411Y-76491058D01*
X157675000Y-76466674D01*
X157425000Y-76466674D01*
X157295411Y-76491058D01*
X157175000Y-76466674D01*
X156925000Y-76466674D01*
X156795411Y-76491058D01*
X156675000Y-76466674D01*
X156425000Y-76466674D01*
X156267504Y-76496309D01*
X156122854Y-76589389D01*
X156049370Y-76696937D01*
X155985611Y-76597854D01*
X155843588Y-76500814D01*
X155675000Y-76466674D01*
X155425000Y-76466674D01*
X155267504Y-76496309D01*
X155122854Y-76589389D01*
X155025814Y-76731412D01*
X154991674Y-76900000D01*
X154991674Y-77330508D01*
X154417067Y-77905115D01*
X154344844Y-77875126D01*
X154056421Y-77874874D01*
X153789857Y-77985016D01*
X153585733Y-78188784D01*
X153483068Y-78436028D01*
X153400814Y-78556412D01*
X153366674Y-78725000D01*
X153366674Y-78800092D01*
X153167935Y-78601007D01*
X152864823Y-78475143D01*
X152536617Y-78474857D01*
X152233285Y-78600191D01*
X152116599Y-78716674D01*
X151450000Y-78716674D01*
X151292504Y-78746309D01*
X151147854Y-78839389D01*
X151050814Y-78981412D01*
X151016674Y-79150000D01*
X151016674Y-79950000D01*
X151046309Y-80107496D01*
X151139389Y-80252146D01*
X151242326Y-80322480D01*
X151150814Y-80456412D01*
X151116674Y-80625000D01*
X151116674Y-81375000D01*
X151146309Y-81532496D01*
X151239389Y-81677146D01*
X151381412Y-81774186D01*
X151550000Y-81808326D01*
X152350000Y-81808326D01*
X152507496Y-81778691D01*
X152652146Y-81685611D01*
X152749186Y-81543588D01*
X152783326Y-81375000D01*
X152783326Y-80625000D01*
X152753691Y-80467504D01*
X152660611Y-80322854D01*
X152609592Y-80287994D01*
X152652146Y-80260611D01*
X152744778Y-80125040D01*
X152863383Y-80125143D01*
X153166715Y-79999809D01*
X153398993Y-79767935D01*
X153432122Y-79688151D01*
X153489389Y-79777146D01*
X153631412Y-79874186D01*
X153800000Y-79908326D01*
X154600000Y-79908326D01*
X154757496Y-79878691D01*
X154902146Y-79785611D01*
X154999186Y-79643588D01*
X155033326Y-79475000D01*
X155033326Y-78844492D01*
X155274890Y-78602928D01*
X155425000Y-78633326D01*
X155675000Y-78633326D01*
X155832496Y-78603691D01*
X155977146Y-78510611D01*
X156000000Y-78477163D01*
X156000000Y-79972182D01*
X155411091Y-80561091D01*
X155291866Y-80739524D01*
X155283995Y-80779094D01*
X155192504Y-80796309D01*
X155047854Y-80889389D01*
X154950814Y-81031412D01*
X154916674Y-81200000D01*
X154916674Y-81700000D01*
X154946309Y-81857496D01*
X155039389Y-82002146D01*
X155181412Y-82099186D01*
X155350000Y-82133326D01*
X156250000Y-82133326D01*
X156405507Y-82104065D01*
X156550000Y-82133326D01*
X157450000Y-82133326D01*
X157607496Y-82103691D01*
X157752146Y-82010611D01*
X157839116Y-81883326D01*
X158650000Y-81883326D01*
X158807496Y-81853691D01*
X158952146Y-81760611D01*
X159049186Y-81618588D01*
X159075007Y-81491079D01*
X159074874Y-81643579D01*
X159185016Y-81910143D01*
X159316674Y-82042031D01*
X159316674Y-82400000D01*
X159346309Y-82557496D01*
X159439389Y-82702146D01*
X159581412Y-82799186D01*
X159750000Y-82833326D01*
X160650000Y-82833326D01*
X160807496Y-82803691D01*
X160952146Y-82710611D01*
X161049186Y-82568588D01*
X161083326Y-82400000D01*
X161083326Y-82261144D01*
X163322182Y-84500000D01*
X145208300Y-84500000D01*
X145437572Y-84405267D01*
X146401881Y-83442640D01*
X146766980Y-82563383D01*
X147874857Y-82563383D01*
X148000191Y-82866715D01*
X148232065Y-83098993D01*
X148535177Y-83224857D01*
X148863383Y-83225143D01*
X149166715Y-83099809D01*
X149398993Y-82867935D01*
X149524857Y-82564823D01*
X149524858Y-82563383D01*
X152674857Y-82563383D01*
X152800191Y-82866715D01*
X153032065Y-83098993D01*
X153335177Y-83224857D01*
X153663383Y-83225143D01*
X153966715Y-83099809D01*
X154198993Y-82867935D01*
X154268726Y-82700000D01*
X154916674Y-82700000D01*
X154916674Y-83200000D01*
X154946309Y-83357496D01*
X155039389Y-83502146D01*
X155181412Y-83599186D01*
X155350000Y-83633326D01*
X156250000Y-83633326D01*
X156405507Y-83604065D01*
X156550000Y-83633326D01*
X157427279Y-83633326D01*
X157439389Y-83652146D01*
X157581412Y-83749186D01*
X157750000Y-83783326D01*
X158650000Y-83783326D01*
X158807496Y-83753691D01*
X158952146Y-83660611D01*
X159049186Y-83518588D01*
X159083326Y-83350000D01*
X159083326Y-82550000D01*
X159053691Y-82392504D01*
X158960611Y-82247854D01*
X158818588Y-82150814D01*
X158650000Y-82116674D01*
X157750000Y-82116674D01*
X157592504Y-82146309D01*
X157447854Y-82239389D01*
X157429211Y-82266674D01*
X156550000Y-82266674D01*
X156394493Y-82295935D01*
X156250000Y-82266674D01*
X155350000Y-82266674D01*
X155192504Y-82296309D01*
X155047854Y-82389389D01*
X154950814Y-82531412D01*
X154916674Y-82700000D01*
X154268726Y-82700000D01*
X154324857Y-82564823D01*
X154325143Y-82236617D01*
X154199809Y-81933285D01*
X153967935Y-81701007D01*
X153664823Y-81575143D01*
X153336617Y-81574857D01*
X153033285Y-81700191D01*
X152801007Y-81932065D01*
X152675143Y-82235177D01*
X152674857Y-82563383D01*
X149524858Y-82563383D01*
X149525143Y-82236617D01*
X149399809Y-81933285D01*
X149167935Y-81701007D01*
X148864823Y-81575143D01*
X148536617Y-81574857D01*
X148233285Y-81700191D01*
X148001007Y-81932065D01*
X147875143Y-82235177D01*
X147874857Y-82563383D01*
X146766980Y-82563383D01*
X146924404Y-82184264D01*
X146925593Y-80821714D01*
X146405267Y-79562428D01*
X145442640Y-78598119D01*
X144184264Y-78075596D01*
X142821714Y-78074407D01*
X141562428Y-78594733D01*
X140598119Y-79557360D01*
X140500000Y-79793657D01*
X140500000Y-75975000D01*
X140916674Y-75975000D01*
X140916674Y-76425000D01*
X140946309Y-76582496D01*
X140975063Y-76627181D01*
X140974874Y-76843579D01*
X141085016Y-77110143D01*
X141288784Y-77314267D01*
X141555156Y-77424874D01*
X141843579Y-77425126D01*
X142110143Y-77314984D01*
X142314267Y-77111216D01*
X142424874Y-76844844D01*
X142425126Y-76556421D01*
X142379214Y-76445306D01*
X142383326Y-76425000D01*
X142383326Y-75975000D01*
X142353691Y-75817504D01*
X142260611Y-75672854D01*
X142118588Y-75575814D01*
X141950000Y-75541674D01*
X141350000Y-75541674D01*
X141192504Y-75571309D01*
X141047854Y-75664389D01*
X140950814Y-75806412D01*
X140916674Y-75975000D01*
X140500000Y-75975000D01*
X140500000Y-70743579D01*
X141374874Y-70743579D01*
X141416674Y-70844743D01*
X141416674Y-71550000D01*
X141446309Y-71707496D01*
X141539389Y-71852146D01*
X141681412Y-71949186D01*
X141850000Y-71983326D01*
X142650000Y-71983326D01*
X142807496Y-71953691D01*
X142952146Y-71860611D01*
X143049186Y-71718588D01*
X143083326Y-71550000D01*
X143083326Y-70650000D01*
X143053691Y-70492504D01*
X142960611Y-70347854D01*
X142818588Y-70250814D01*
X142733010Y-70233484D01*
X142714984Y-70189857D01*
X142511216Y-69985733D01*
X142244844Y-69875126D01*
X141956421Y-69874874D01*
X141689857Y-69985016D01*
X141485733Y-70188784D01*
X141375126Y-70455156D01*
X141374874Y-70743579D01*
X140500000Y-70743579D01*
X140500000Y-55208300D01*
X140594733Y-55437572D01*
X141557360Y-56401881D01*
X142815736Y-56924404D01*
X144178286Y-56925593D01*
X145437572Y-56405267D01*
X146401881Y-55442640D01*
X146924404Y-54184264D01*
X146925593Y-52821714D01*
X146405267Y-51562428D01*
X145442640Y-50598119D01*
X145206343Y-50500000D01*
X190742977Y-50500000D01*
X190645411Y-50646018D01*
G36*
X193166674Y-83855508D02*
X193047172Y-83975010D01*
X188641042Y-83975010D01*
X188724140Y-83850646D01*
X188825000Y-83343590D01*
X188825000Y-81456410D01*
X188724140Y-80949354D01*
X188641042Y-80824990D01*
X193166674Y-80824990D01*
X193166674Y-83855508D01*
X193166674Y-83855508D01*
G37*
X193166674Y-83855508D02*
X193047172Y-83975010D01*
X188641042Y-83975010D01*
X188724140Y-83850646D01*
X188825000Y-83343590D01*
X188825000Y-81456410D01*
X188724140Y-80949354D01*
X188641042Y-80824990D01*
X193166674Y-80824990D01*
X193166674Y-83855508D01*
G36*
X174150000Y-81383326D02*
X174307134Y-81383326D01*
X174411091Y-81538909D01*
X175066674Y-82194492D01*
X175066674Y-82750000D01*
X175096309Y-82907496D01*
X175189389Y-83052146D01*
X175331412Y-83149186D01*
X175500000Y-83183326D01*
X176000000Y-83183326D01*
X176157496Y-83153691D01*
X176302146Y-83060611D01*
X176399186Y-82918588D01*
X176433326Y-82750000D01*
X176433326Y-82341858D01*
X176487799Y-82615714D01*
X176566674Y-82733758D01*
X176566674Y-82750000D01*
X176596309Y-82907496D01*
X176689389Y-83052146D01*
X176831412Y-83149186D01*
X177000000Y-83183326D01*
X177500000Y-83183326D01*
X177657496Y-83153691D01*
X177802146Y-83060611D01*
X177899186Y-82918588D01*
X177933326Y-82750000D01*
X177933326Y-82733758D01*
X178012201Y-82615714D01*
X178050136Y-82425000D01*
X178699280Y-82425000D01*
X178863383Y-82425143D01*
X178863729Y-82425000D01*
X179875771Y-82425000D01*
X179100790Y-83199980D01*
X168234410Y-83199980D01*
X168324186Y-83068588D01*
X168354120Y-82920771D01*
X168610143Y-82814984D01*
X168814267Y-82611216D01*
X168870195Y-82476527D01*
X168947248Y-82425042D01*
X169043579Y-82425126D01*
X169310143Y-82314984D01*
X169364568Y-82260654D01*
X169385016Y-82310143D01*
X169588784Y-82514267D01*
X169855156Y-82624874D01*
X170143579Y-82625126D01*
X170264893Y-82575000D01*
X170597837Y-82575000D01*
X170706412Y-82649186D01*
X170875000Y-82683326D01*
X172325000Y-82683326D01*
X172482496Y-82653691D01*
X172627146Y-82560611D01*
X172724186Y-82418588D01*
X172758326Y-82250000D01*
X172758326Y-82133326D01*
X173650000Y-82133326D01*
X173807496Y-82103691D01*
X173952146Y-82010611D01*
X174049186Y-81868588D01*
X174083326Y-81700000D01*
X174083326Y-81369824D01*
X174150000Y-81383326D01*
X174150000Y-81383326D01*
G37*
X174150000Y-81383326D02*
X174307134Y-81383326D01*
X174411091Y-81538909D01*
X175066674Y-82194492D01*
X175066674Y-82750000D01*
X175096309Y-82907496D01*
X175189389Y-83052146D01*
X175331412Y-83149186D01*
X175500000Y-83183326D01*
X176000000Y-83183326D01*
X176157496Y-83153691D01*
X176302146Y-83060611D01*
X176399186Y-82918588D01*
X176433326Y-82750000D01*
X176433326Y-82341858D01*
X176487799Y-82615714D01*
X176566674Y-82733758D01*
X176566674Y-82750000D01*
X176596309Y-82907496D01*
X176689389Y-83052146D01*
X176831412Y-83149186D01*
X177000000Y-83183326D01*
X177500000Y-83183326D01*
X177657496Y-83153691D01*
X177802146Y-83060611D01*
X177899186Y-82918588D01*
X177933326Y-82750000D01*
X177933326Y-82733758D01*
X178012201Y-82615714D01*
X178050136Y-82425000D01*
X178699280Y-82425000D01*
X178863383Y-82425143D01*
X178863729Y-82425000D01*
X179875771Y-82425000D01*
X179100790Y-83199980D01*
X168234410Y-83199980D01*
X168324186Y-83068588D01*
X168354120Y-82920771D01*
X168610143Y-82814984D01*
X168814267Y-82611216D01*
X168870195Y-82476527D01*
X168947248Y-82425042D01*
X169043579Y-82425126D01*
X169310143Y-82314984D01*
X169364568Y-82260654D01*
X169385016Y-82310143D01*
X169588784Y-82514267D01*
X169855156Y-82624874D01*
X170143579Y-82625126D01*
X170264893Y-82575000D01*
X170597837Y-82575000D01*
X170706412Y-82649186D01*
X170875000Y-82683326D01*
X172325000Y-82683326D01*
X172482496Y-82653691D01*
X172627146Y-82560611D01*
X172724186Y-82418588D01*
X172758326Y-82250000D01*
X172758326Y-82133326D01*
X173650000Y-82133326D01*
X173807496Y-82103691D01*
X173952146Y-82010611D01*
X174049186Y-81868588D01*
X174083326Y-81700000D01*
X174083326Y-81369824D01*
X174150000Y-81383326D01*
G36*
X167801866Y-72069522D02*
X167760000Y-72279998D01*
X167760000Y-73550000D01*
X167801866Y-73760476D01*
X167921091Y-73938909D01*
X168126674Y-74144492D01*
X168126674Y-74610000D01*
X168156309Y-74767496D01*
X168249389Y-74912146D01*
X168391412Y-75009186D01*
X168560000Y-75043326D01*
X168960000Y-75043326D01*
X169084405Y-75019917D01*
X169200000Y-75043326D01*
X169600000Y-75043326D01*
X169734772Y-75017967D01*
X169860000Y-75043326D01*
X170260000Y-75043326D01*
X170384405Y-75019917D01*
X170500000Y-75043326D01*
X170900000Y-75043326D01*
X171057496Y-75013691D01*
X171202146Y-74920611D01*
X171299186Y-74778588D01*
X171330288Y-74625000D01*
X171846674Y-74625000D01*
X171846674Y-75550000D01*
X171876309Y-75707496D01*
X171900564Y-75745189D01*
X171875814Y-75781412D01*
X171841674Y-75950000D01*
X171841674Y-76375000D01*
X171800000Y-76375000D01*
X171484286Y-76437799D01*
X171216637Y-76616637D01*
X171037799Y-76884286D01*
X170975000Y-77200000D01*
X170975000Y-77505751D01*
X170953691Y-77392504D01*
X170860611Y-77247854D01*
X170718588Y-77150814D01*
X170693326Y-77145698D01*
X170693326Y-76010000D01*
X170663691Y-75852504D01*
X170570611Y-75707854D01*
X170428588Y-75610814D01*
X170260000Y-75576674D01*
X169860000Y-75576674D01*
X169725228Y-75602033D01*
X169600000Y-75576674D01*
X169200000Y-75576674D01*
X169042504Y-75606309D01*
X168897854Y-75699389D01*
X168800814Y-75841412D01*
X168766674Y-76010000D01*
X168766674Y-77230000D01*
X168774999Y-77274243D01*
X168774999Y-78310001D01*
X168816109Y-78516674D01*
X168225000Y-78516674D01*
X168067504Y-78546309D01*
X167922854Y-78639389D01*
X167825814Y-78781412D01*
X167791674Y-78950000D01*
X167791674Y-79075461D01*
X167714984Y-78889857D01*
X167511216Y-78685733D01*
X167244844Y-78575126D01*
X166956421Y-78574874D01*
X166689857Y-78685016D01*
X166485733Y-78888784D01*
X166375126Y-79155156D01*
X166374874Y-79443579D01*
X166485016Y-79710143D01*
X166688784Y-79914267D01*
X166955156Y-80024874D01*
X167243579Y-80025126D01*
X167510143Y-79914984D01*
X167714267Y-79711216D01*
X167791674Y-79524799D01*
X167791674Y-79750000D01*
X167821309Y-79907496D01*
X167914389Y-80052146D01*
X167940138Y-80069740D01*
X167925000Y-80066674D01*
X166819491Y-80066674D01*
X164472879Y-77720061D01*
X164524874Y-77594844D01*
X164525126Y-77306421D01*
X164414984Y-77039857D01*
X164211216Y-76835733D01*
X163944844Y-76725126D01*
X163656421Y-76724874D01*
X163389857Y-76835016D01*
X163200000Y-77024542D01*
X163200000Y-76508326D01*
X163300000Y-76508326D01*
X163457496Y-76478691D01*
X163602146Y-76385611D01*
X163699186Y-76243588D01*
X163733326Y-76075000D01*
X163733326Y-76000000D01*
X164647822Y-76000000D01*
X164858298Y-75958134D01*
X165036731Y-75838909D01*
X167088918Y-73786722D01*
X167132821Y-73721017D01*
X167208143Y-73608290D01*
X167220650Y-73545411D01*
X167250010Y-73397813D01*
X167250009Y-73397808D01*
X167250010Y-72617806D01*
X167809059Y-72058757D01*
X167801866Y-72069522D01*
X167801866Y-72069522D01*
G37*
X167801866Y-72069522D02*
X167760000Y-72279998D01*
X167760000Y-73550000D01*
X167801866Y-73760476D01*
X167921091Y-73938909D01*
X168126674Y-74144492D01*
X168126674Y-74610000D01*
X168156309Y-74767496D01*
X168249389Y-74912146D01*
X168391412Y-75009186D01*
X168560000Y-75043326D01*
X168960000Y-75043326D01*
X169084405Y-75019917D01*
X169200000Y-75043326D01*
X169600000Y-75043326D01*
X169734772Y-75017967D01*
X169860000Y-75043326D01*
X170260000Y-75043326D01*
X170384405Y-75019917D01*
X170500000Y-75043326D01*
X170900000Y-75043326D01*
X171057496Y-75013691D01*
X171202146Y-74920611D01*
X171299186Y-74778588D01*
X171330288Y-74625000D01*
X171846674Y-74625000D01*
X171846674Y-75550000D01*
X171876309Y-75707496D01*
X171900564Y-75745189D01*
X171875814Y-75781412D01*
X171841674Y-75950000D01*
X171841674Y-76375000D01*
X171800000Y-76375000D01*
X171484286Y-76437799D01*
X171216637Y-76616637D01*
X171037799Y-76884286D01*
X170975000Y-77200000D01*
X170975000Y-77505751D01*
X170953691Y-77392504D01*
X170860611Y-77247854D01*
X170718588Y-77150814D01*
X170693326Y-77145698D01*
X170693326Y-76010000D01*
X170663691Y-75852504D01*
X170570611Y-75707854D01*
X170428588Y-75610814D01*
X170260000Y-75576674D01*
X169860000Y-75576674D01*
X169725228Y-75602033D01*
X169600000Y-75576674D01*
X169200000Y-75576674D01*
X169042504Y-75606309D01*
X168897854Y-75699389D01*
X168800814Y-75841412D01*
X168766674Y-76010000D01*
X168766674Y-77230000D01*
X168774999Y-77274243D01*
X168774999Y-78310001D01*
X168816109Y-78516674D01*
X168225000Y-78516674D01*
X168067504Y-78546309D01*
X167922854Y-78639389D01*
X167825814Y-78781412D01*
X167791674Y-78950000D01*
X167791674Y-79075461D01*
X167714984Y-78889857D01*
X167511216Y-78685733D01*
X167244844Y-78575126D01*
X166956421Y-78574874D01*
X166689857Y-78685016D01*
X166485733Y-78888784D01*
X166375126Y-79155156D01*
X166374874Y-79443579D01*
X166485016Y-79710143D01*
X166688784Y-79914267D01*
X166955156Y-80024874D01*
X167243579Y-80025126D01*
X167510143Y-79914984D01*
X167714267Y-79711216D01*
X167791674Y-79524799D01*
X167791674Y-79750000D01*
X167821309Y-79907496D01*
X167914389Y-80052146D01*
X167940138Y-80069740D01*
X167925000Y-80066674D01*
X166819491Y-80066674D01*
X164472879Y-77720061D01*
X164524874Y-77594844D01*
X164525126Y-77306421D01*
X164414984Y-77039857D01*
X164211216Y-76835733D01*
X163944844Y-76725126D01*
X163656421Y-76724874D01*
X163389857Y-76835016D01*
X163200000Y-77024542D01*
X163200000Y-76508326D01*
X163300000Y-76508326D01*
X163457496Y-76478691D01*
X163602146Y-76385611D01*
X163699186Y-76243588D01*
X163733326Y-76075000D01*
X163733326Y-76000000D01*
X164647822Y-76000000D01*
X164858298Y-75958134D01*
X165036731Y-75838909D01*
X167088918Y-73786722D01*
X167132821Y-73721017D01*
X167208143Y-73608290D01*
X167220650Y-73545411D01*
X167250010Y-73397813D01*
X167250009Y-73397808D01*
X167250010Y-72617806D01*
X167809059Y-72058757D01*
X167801866Y-72069522D01*
G36*
X204500000Y-79791700D02*
X204405267Y-79562428D01*
X203442640Y-78598119D01*
X202184264Y-78075596D01*
X200821714Y-78074407D01*
X199597630Y-78580188D01*
X200508070Y-77669748D01*
X200635021Y-77695000D01*
X200684979Y-77695000D01*
X201172900Y-77597946D01*
X201586540Y-77321561D01*
X201862925Y-76907921D01*
X201930000Y-76570714D01*
X201997075Y-76907921D01*
X202273460Y-77321561D01*
X202687100Y-77597946D01*
X203175021Y-77695000D01*
X203224979Y-77695000D01*
X203712900Y-77597946D01*
X204126540Y-77321561D01*
X204402925Y-76907921D01*
X204499979Y-76420000D01*
X204402925Y-75932079D01*
X204126540Y-75518439D01*
X203712900Y-75242054D01*
X203250116Y-75150000D01*
X203712900Y-75057946D01*
X204126540Y-74781561D01*
X204402925Y-74367921D01*
X204499979Y-73880000D01*
X204402925Y-73392079D01*
X204126540Y-72978439D01*
X203712900Y-72702054D01*
X203250116Y-72610000D01*
X203712900Y-72517946D01*
X204126540Y-72241561D01*
X204402925Y-71827921D01*
X204499979Y-71340000D01*
X204402925Y-70852079D01*
X204126540Y-70438439D01*
X203712900Y-70162054D01*
X203250116Y-70070000D01*
X203712900Y-69977946D01*
X204126540Y-69701561D01*
X204402925Y-69287921D01*
X204499979Y-68800000D01*
X204402925Y-68312079D01*
X204126540Y-67898439D01*
X203712900Y-67622054D01*
X203224979Y-67525000D01*
X203175021Y-67525000D01*
X202687100Y-67622054D01*
X202273460Y-67898439D01*
X201997075Y-68312079D01*
X201930000Y-68649286D01*
X201862925Y-68312079D01*
X201586540Y-67898439D01*
X201172900Y-67622054D01*
X200684979Y-67525000D01*
X200635021Y-67525000D01*
X200147100Y-67622054D01*
X199733460Y-67898439D01*
X199457075Y-68312079D01*
X199360021Y-68800000D01*
X199457075Y-69287921D01*
X199733460Y-69701561D01*
X200147100Y-69977946D01*
X200609884Y-70070000D01*
X200147100Y-70162054D01*
X199733460Y-70438439D01*
X199457075Y-70852079D01*
X199360021Y-71340000D01*
X199457075Y-71827921D01*
X199733460Y-72241561D01*
X200147100Y-72517946D01*
X200609884Y-72610000D01*
X200147100Y-72702054D01*
X199733460Y-72978439D01*
X199457075Y-73392079D01*
X199360021Y-73880000D01*
X199457075Y-74367921D01*
X199709331Y-74745449D01*
X199611091Y-74811091D01*
X199125000Y-75297182D01*
X199125000Y-61977136D01*
X199292373Y-62227627D01*
X199754676Y-62536528D01*
X200300000Y-62645000D01*
X202840000Y-62645000D01*
X203019727Y-62609250D01*
X203300000Y-62665000D01*
X203845324Y-62556528D01*
X204307627Y-62247627D01*
X204500000Y-61959720D01*
X204500000Y-79791700D01*
X204500000Y-79791700D01*
G37*
X204500000Y-79791700D02*
X204405267Y-79562428D01*
X203442640Y-78598119D01*
X202184264Y-78075596D01*
X200821714Y-78074407D01*
X199597630Y-78580188D01*
X200508070Y-77669748D01*
X200635021Y-77695000D01*
X200684979Y-77695000D01*
X201172900Y-77597946D01*
X201586540Y-77321561D01*
X201862925Y-76907921D01*
X201930000Y-76570714D01*
X201997075Y-76907921D01*
X202273460Y-77321561D01*
X202687100Y-77597946D01*
X203175021Y-77695000D01*
X203224979Y-77695000D01*
X203712900Y-77597946D01*
X204126540Y-77321561D01*
X204402925Y-76907921D01*
X204499979Y-76420000D01*
X204402925Y-75932079D01*
X204126540Y-75518439D01*
X203712900Y-75242054D01*
X203250116Y-75150000D01*
X203712900Y-75057946D01*
X204126540Y-74781561D01*
X204402925Y-74367921D01*
X204499979Y-73880000D01*
X204402925Y-73392079D01*
X204126540Y-72978439D01*
X203712900Y-72702054D01*
X203250116Y-72610000D01*
X203712900Y-72517946D01*
X204126540Y-72241561D01*
X204402925Y-71827921D01*
X204499979Y-71340000D01*
X204402925Y-70852079D01*
X204126540Y-70438439D01*
X203712900Y-70162054D01*
X203250116Y-70070000D01*
X203712900Y-69977946D01*
X204126540Y-69701561D01*
X204402925Y-69287921D01*
X204499979Y-68800000D01*
X204402925Y-68312079D01*
X204126540Y-67898439D01*
X203712900Y-67622054D01*
X203224979Y-67525000D01*
X203175021Y-67525000D01*
X202687100Y-67622054D01*
X202273460Y-67898439D01*
X201997075Y-68312079D01*
X201930000Y-68649286D01*
X201862925Y-68312079D01*
X201586540Y-67898439D01*
X201172900Y-67622054D01*
X200684979Y-67525000D01*
X200635021Y-67525000D01*
X200147100Y-67622054D01*
X199733460Y-67898439D01*
X199457075Y-68312079D01*
X199360021Y-68800000D01*
X199457075Y-69287921D01*
X199733460Y-69701561D01*
X200147100Y-69977946D01*
X200609884Y-70070000D01*
X200147100Y-70162054D01*
X199733460Y-70438439D01*
X199457075Y-70852079D01*
X199360021Y-71340000D01*
X199457075Y-71827921D01*
X199733460Y-72241561D01*
X200147100Y-72517946D01*
X200609884Y-72610000D01*
X200147100Y-72702054D01*
X199733460Y-72978439D01*
X199457075Y-73392079D01*
X199360021Y-73880000D01*
X199457075Y-74367921D01*
X199709331Y-74745449D01*
X199611091Y-74811091D01*
X199125000Y-75297182D01*
X199125000Y-61977136D01*
X199292373Y-62227627D01*
X199754676Y-62536528D01*
X200300000Y-62645000D01*
X202840000Y-62645000D01*
X203019727Y-62609250D01*
X203300000Y-62665000D01*
X203845324Y-62556528D01*
X204307627Y-62247627D01*
X204500000Y-61959720D01*
X204500000Y-79791700D01*
G36*
X193996309Y-58507496D02*
X194022989Y-58548958D01*
X194000814Y-58581412D01*
X193966674Y-58750000D01*
X193966674Y-59650000D01*
X193996309Y-59807496D01*
X194089389Y-59952146D01*
X194231412Y-60049186D01*
X194400000Y-60083326D01*
X194649443Y-60083326D01*
X194706708Y-60140591D01*
X194675000Y-60300000D01*
X194745411Y-60653983D01*
X194945926Y-60954074D01*
X195166674Y-61101574D01*
X195166674Y-62450000D01*
X195196309Y-62607496D01*
X195289389Y-62752146D01*
X195383829Y-62816674D01*
X195025000Y-62816674D01*
X194867504Y-62846309D01*
X194722854Y-62939389D01*
X194625814Y-63081412D01*
X194611925Y-63150000D01*
X194516115Y-63150000D01*
X194475000Y-63141674D01*
X193775000Y-63141674D01*
X193617504Y-63171309D01*
X193472854Y-63264389D01*
X193375814Y-63406412D01*
X193341674Y-63575000D01*
X193341674Y-63825000D01*
X193366058Y-63954589D01*
X193341674Y-64075000D01*
X193341674Y-64325000D01*
X193366058Y-64454589D01*
X193341674Y-64575000D01*
X193341674Y-64825000D01*
X193371309Y-64982496D01*
X193464389Y-65127146D01*
X193571937Y-65200630D01*
X193472854Y-65264389D01*
X193375814Y-65406412D01*
X193341674Y-65575000D01*
X193341674Y-65685359D01*
X193295002Y-65920001D01*
X193350188Y-66197447D01*
X193398955Y-66270432D01*
X193417766Y-66365002D01*
X193430187Y-66427446D01*
X193587348Y-66662652D01*
X194366674Y-67441979D01*
X194366674Y-69350000D01*
X194396309Y-69507496D01*
X194489389Y-69652146D01*
X194631412Y-69749186D01*
X194800000Y-69783326D01*
X195700000Y-69783326D01*
X195857496Y-69753691D01*
X195875000Y-69742427D01*
X195875000Y-73809746D01*
X194909746Y-74775000D01*
X192290254Y-74775000D01*
X191683326Y-74168072D01*
X191683326Y-74109699D01*
X191800000Y-74133326D01*
X192800000Y-74133326D01*
X192957496Y-74103691D01*
X193102146Y-74010611D01*
X193199186Y-73868588D01*
X193233326Y-73700000D01*
X193233326Y-73091841D01*
X193414267Y-72911216D01*
X193524874Y-72644844D01*
X193525126Y-72356421D01*
X193414984Y-72089857D01*
X193211216Y-71885733D01*
X193151096Y-71860769D01*
X193125000Y-71820215D01*
X193125000Y-71742427D01*
X193252146Y-71660611D01*
X193349186Y-71518588D01*
X193383326Y-71350000D01*
X193383326Y-71326065D01*
X193410143Y-71314984D01*
X193614267Y-71111216D01*
X193724874Y-70844844D01*
X193725126Y-70556421D01*
X193614984Y-70289857D01*
X193411216Y-70085733D01*
X193326770Y-70050668D01*
X193268499Y-69960113D01*
X193383363Y-69883363D01*
X193562201Y-69615714D01*
X193625000Y-69300000D01*
X193625000Y-67200000D01*
X193562201Y-66884286D01*
X193383363Y-66616637D01*
X193115714Y-66437799D01*
X192800000Y-66375000D01*
X192590489Y-66416674D01*
X191900000Y-66416674D01*
X191742504Y-66446309D01*
X191721168Y-66460038D01*
X191733326Y-66400000D01*
X191733326Y-65919492D01*
X191899630Y-65753188D01*
X191925000Y-65758326D01*
X192625000Y-65758326D01*
X192782496Y-65728691D01*
X192927146Y-65635611D01*
X193024186Y-65493588D01*
X193058326Y-65325000D01*
X193058326Y-65075000D01*
X193033942Y-64945411D01*
X193058326Y-64825000D01*
X193058326Y-64575000D01*
X193033942Y-64445411D01*
X193058326Y-64325000D01*
X193058326Y-64075000D01*
X193033942Y-63945411D01*
X193058326Y-63825000D01*
X193058326Y-63575000D01*
X193028691Y-63417504D01*
X192935611Y-63272854D01*
X192924909Y-63265541D01*
X192925143Y-62996615D01*
X192878333Y-62883326D01*
X193600000Y-62883326D01*
X193757496Y-62853691D01*
X193902146Y-62760611D01*
X193999186Y-62618588D01*
X194033326Y-62450000D01*
X194033326Y-60750000D01*
X194003691Y-60592504D01*
X193910611Y-60447854D01*
X193768588Y-60350814D01*
X193600000Y-60316674D01*
X192700000Y-60316674D01*
X192542504Y-60346309D01*
X192397854Y-60439389D01*
X192373832Y-60474546D01*
X192353691Y-60367504D01*
X192260611Y-60222854D01*
X192118588Y-60125814D01*
X192100000Y-60122050D01*
X192100000Y-60050000D01*
X192735432Y-60050000D01*
X192900000Y-60083326D01*
X193400000Y-60083326D01*
X193557496Y-60053691D01*
X193702146Y-59960611D01*
X193799186Y-59818588D01*
X193833326Y-59650000D01*
X193833326Y-58750000D01*
X193803691Y-58592504D01*
X193777011Y-58551042D01*
X193799186Y-58518588D01*
X193811950Y-58455556D01*
X193910143Y-58414984D01*
X193968029Y-58357199D01*
X193996309Y-58507496D01*
X193996309Y-58507496D01*
G37*
X193996309Y-58507496D02*
X194022989Y-58548958D01*
X194000814Y-58581412D01*
X193966674Y-58750000D01*
X193966674Y-59650000D01*
X193996309Y-59807496D01*
X194089389Y-59952146D01*
X194231412Y-60049186D01*
X194400000Y-60083326D01*
X194649443Y-60083326D01*
X194706708Y-60140591D01*
X194675000Y-60300000D01*
X194745411Y-60653983D01*
X194945926Y-60954074D01*
X195166674Y-61101574D01*
X195166674Y-62450000D01*
X195196309Y-62607496D01*
X195289389Y-62752146D01*
X195383829Y-62816674D01*
X195025000Y-62816674D01*
X194867504Y-62846309D01*
X194722854Y-62939389D01*
X194625814Y-63081412D01*
X194611925Y-63150000D01*
X194516115Y-63150000D01*
X194475000Y-63141674D01*
X193775000Y-63141674D01*
X193617504Y-63171309D01*
X193472854Y-63264389D01*
X193375814Y-63406412D01*
X193341674Y-63575000D01*
X193341674Y-63825000D01*
X193366058Y-63954589D01*
X193341674Y-64075000D01*
X193341674Y-64325000D01*
X193366058Y-64454589D01*
X193341674Y-64575000D01*
X193341674Y-64825000D01*
X193371309Y-64982496D01*
X193464389Y-65127146D01*
X193571937Y-65200630D01*
X193472854Y-65264389D01*
X193375814Y-65406412D01*
X193341674Y-65575000D01*
X193341674Y-65685359D01*
X193295002Y-65920001D01*
X193350188Y-66197447D01*
X193398955Y-66270432D01*
X193417766Y-66365002D01*
X193430187Y-66427446D01*
X193587348Y-66662652D01*
X194366674Y-67441979D01*
X194366674Y-69350000D01*
X194396309Y-69507496D01*
X194489389Y-69652146D01*
X194631412Y-69749186D01*
X194800000Y-69783326D01*
X195700000Y-69783326D01*
X195857496Y-69753691D01*
X195875000Y-69742427D01*
X195875000Y-73809746D01*
X194909746Y-74775000D01*
X192290254Y-74775000D01*
X191683326Y-74168072D01*
X191683326Y-74109699D01*
X191800000Y-74133326D01*
X192800000Y-74133326D01*
X192957496Y-74103691D01*
X193102146Y-74010611D01*
X193199186Y-73868588D01*
X193233326Y-73700000D01*
X193233326Y-73091841D01*
X193414267Y-72911216D01*
X193524874Y-72644844D01*
X193525126Y-72356421D01*
X193414984Y-72089857D01*
X193211216Y-71885733D01*
X193151096Y-71860769D01*
X193125000Y-71820215D01*
X193125000Y-71742427D01*
X193252146Y-71660611D01*
X193349186Y-71518588D01*
X193383326Y-71350000D01*
X193383326Y-71326065D01*
X193410143Y-71314984D01*
X193614267Y-71111216D01*
X193724874Y-70844844D01*
X193725126Y-70556421D01*
X193614984Y-70289857D01*
X193411216Y-70085733D01*
X193326770Y-70050668D01*
X193268499Y-69960113D01*
X193383363Y-69883363D01*
X193562201Y-69615714D01*
X193625000Y-69300000D01*
X193625000Y-67200000D01*
X193562201Y-66884286D01*
X193383363Y-66616637D01*
X193115714Y-66437799D01*
X192800000Y-66375000D01*
X192590489Y-66416674D01*
X191900000Y-66416674D01*
X191742504Y-66446309D01*
X191721168Y-66460038D01*
X191733326Y-66400000D01*
X191733326Y-65919492D01*
X191899630Y-65753188D01*
X191925000Y-65758326D01*
X192625000Y-65758326D01*
X192782496Y-65728691D01*
X192927146Y-65635611D01*
X193024186Y-65493588D01*
X193058326Y-65325000D01*
X193058326Y-65075000D01*
X193033942Y-64945411D01*
X193058326Y-64825000D01*
X193058326Y-64575000D01*
X193033942Y-64445411D01*
X193058326Y-64325000D01*
X193058326Y-64075000D01*
X193033942Y-63945411D01*
X193058326Y-63825000D01*
X193058326Y-63575000D01*
X193028691Y-63417504D01*
X192935611Y-63272854D01*
X192924909Y-63265541D01*
X192925143Y-62996615D01*
X192878333Y-62883326D01*
X193600000Y-62883326D01*
X193757496Y-62853691D01*
X193902146Y-62760611D01*
X193999186Y-62618588D01*
X194033326Y-62450000D01*
X194033326Y-60750000D01*
X194003691Y-60592504D01*
X193910611Y-60447854D01*
X193768588Y-60350814D01*
X193600000Y-60316674D01*
X192700000Y-60316674D01*
X192542504Y-60346309D01*
X192397854Y-60439389D01*
X192373832Y-60474546D01*
X192353691Y-60367504D01*
X192260611Y-60222854D01*
X192118588Y-60125814D01*
X192100000Y-60122050D01*
X192100000Y-60050000D01*
X192735432Y-60050000D01*
X192900000Y-60083326D01*
X193400000Y-60083326D01*
X193557496Y-60053691D01*
X193702146Y-59960611D01*
X193799186Y-59818588D01*
X193833326Y-59650000D01*
X193833326Y-58750000D01*
X193803691Y-58592504D01*
X193777011Y-58551042D01*
X193799186Y-58518588D01*
X193811950Y-58455556D01*
X193910143Y-58414984D01*
X193968029Y-58357199D01*
X193996309Y-58507496D01*
G36*
X161597072Y-70174890D02*
X161566674Y-70325000D01*
X161566674Y-70575000D01*
X161591058Y-70704589D01*
X161566674Y-70825000D01*
X161566674Y-71075000D01*
X161591058Y-71204589D01*
X161566674Y-71325000D01*
X161566674Y-71575000D01*
X161591058Y-71704589D01*
X161566674Y-71825000D01*
X161566674Y-72075000D01*
X161591058Y-72204589D01*
X161566674Y-72325000D01*
X161566674Y-72575000D01*
X161591058Y-72704589D01*
X161566674Y-72825000D01*
X161566674Y-73075000D01*
X161591058Y-73204589D01*
X161566674Y-73325000D01*
X161566674Y-73575000D01*
X161596309Y-73732496D01*
X161689389Y-73877146D01*
X161722837Y-73900000D01*
X161650000Y-73900000D01*
X161439524Y-73941866D01*
X161261091Y-74061091D01*
X161147229Y-74174953D01*
X161056421Y-74174874D01*
X160800000Y-74280825D01*
X160800000Y-71802820D01*
X161038911Y-71563909D01*
X161158136Y-71385476D01*
X161200002Y-71175000D01*
X161200002Y-70450004D01*
X161200003Y-70449999D01*
X161158136Y-70239523D01*
X161139222Y-70211216D01*
X161075034Y-70115152D01*
X161075129Y-70006421D01*
X161044927Y-69933326D01*
X161175000Y-69933326D01*
X161326922Y-69904740D01*
X161597072Y-70174890D01*
X161597072Y-70174890D01*
G37*
X161597072Y-70174890D02*
X161566674Y-70325000D01*
X161566674Y-70575000D01*
X161591058Y-70704589D01*
X161566674Y-70825000D01*
X161566674Y-71075000D01*
X161591058Y-71204589D01*
X161566674Y-71325000D01*
X161566674Y-71575000D01*
X161591058Y-71704589D01*
X161566674Y-71825000D01*
X161566674Y-72075000D01*
X161591058Y-72204589D01*
X161566674Y-72325000D01*
X161566674Y-72575000D01*
X161591058Y-72704589D01*
X161566674Y-72825000D01*
X161566674Y-73075000D01*
X161591058Y-73204589D01*
X161566674Y-73325000D01*
X161566674Y-73575000D01*
X161596309Y-73732496D01*
X161689389Y-73877146D01*
X161722837Y-73900000D01*
X161650000Y-73900000D01*
X161439524Y-73941866D01*
X161261091Y-74061091D01*
X161147229Y-74174953D01*
X161056421Y-74174874D01*
X160800000Y-74280825D01*
X160800000Y-71802820D01*
X161038911Y-71563909D01*
X161158136Y-71385476D01*
X161200002Y-71175000D01*
X161200002Y-70450004D01*
X161200003Y-70449999D01*
X161158136Y-70239523D01*
X161139222Y-70211216D01*
X161075034Y-70115152D01*
X161075129Y-70006421D01*
X161044927Y-69933326D01*
X161175000Y-69933326D01*
X161326922Y-69904740D01*
X161597072Y-70174890D01*
G36*
X176816674Y-70644492D02*
X176816674Y-71200000D01*
X176846309Y-71357496D01*
X176939389Y-71502146D01*
X177081412Y-71599186D01*
X177094647Y-71601866D01*
X177066674Y-71740000D01*
X177066674Y-72090587D01*
X177045611Y-72057854D01*
X176903588Y-71960814D01*
X176735000Y-71926674D01*
X175465000Y-71926674D01*
X175307504Y-71956309D01*
X175162854Y-72049389D01*
X175065814Y-72191412D01*
X175031674Y-72360000D01*
X175031674Y-73185709D01*
X174925001Y-73341829D01*
X174925001Y-73039999D01*
X174883135Y-72829523D01*
X174763910Y-72651090D01*
X174709664Y-72614844D01*
X174640902Y-72546082D01*
X174462469Y-72426857D01*
X174251993Y-72384991D01*
X172173010Y-72384991D01*
X171324110Y-71536090D01*
X171145677Y-71416865D01*
X170935201Y-71374999D01*
X168664999Y-71374999D01*
X168454523Y-71416865D01*
X168443758Y-71424058D01*
X169067816Y-70800000D01*
X171932998Y-70800000D01*
X172143474Y-70758134D01*
X172321907Y-70638909D01*
X172325817Y-70634999D01*
X174684999Y-70634999D01*
X174895475Y-70593133D01*
X174982479Y-70534999D01*
X176707181Y-70534999D01*
X176816674Y-70644492D01*
X176816674Y-70644492D01*
G37*
X176816674Y-70644492D02*
X176816674Y-71200000D01*
X176846309Y-71357496D01*
X176939389Y-71502146D01*
X177081412Y-71599186D01*
X177094647Y-71601866D01*
X177066674Y-71740000D01*
X177066674Y-72090587D01*
X177045611Y-72057854D01*
X176903588Y-71960814D01*
X176735000Y-71926674D01*
X175465000Y-71926674D01*
X175307504Y-71956309D01*
X175162854Y-72049389D01*
X175065814Y-72191412D01*
X175031674Y-72360000D01*
X175031674Y-73185709D01*
X174925001Y-73341829D01*
X174925001Y-73039999D01*
X174883135Y-72829523D01*
X174763910Y-72651090D01*
X174709664Y-72614844D01*
X174640902Y-72546082D01*
X174462469Y-72426857D01*
X174251993Y-72384991D01*
X172173010Y-72384991D01*
X171324110Y-71536090D01*
X171145677Y-71416865D01*
X170935201Y-71374999D01*
X168664999Y-71374999D01*
X168454523Y-71416865D01*
X168443758Y-71424058D01*
X169067816Y-70800000D01*
X171932998Y-70800000D01*
X172143474Y-70758134D01*
X172321907Y-70638909D01*
X172325817Y-70634999D01*
X174684999Y-70634999D01*
X174895475Y-70593133D01*
X174982479Y-70534999D01*
X176707181Y-70534999D01*
X176816674Y-70644492D01*
G36*
X187585016Y-66610143D02*
X187788784Y-66814267D01*
X187816674Y-66825848D01*
X187816674Y-66850000D01*
X187846309Y-67007496D01*
X187939389Y-67152146D01*
X188081412Y-67249186D01*
X188250000Y-67283326D01*
X189150000Y-67283326D01*
X189307496Y-67253691D01*
X189452146Y-67160611D01*
X189549186Y-67018588D01*
X189583326Y-66850000D01*
X189583326Y-66809699D01*
X189700000Y-66833326D01*
X191300000Y-66833326D01*
X191457496Y-66803691D01*
X191478832Y-66789962D01*
X191466674Y-66850000D01*
X191466674Y-69350000D01*
X191496309Y-69507496D01*
X191575000Y-69629785D01*
X191575000Y-69921921D01*
X191547854Y-69939389D01*
X191450814Y-70081412D01*
X191416674Y-70250000D01*
X191416674Y-71350000D01*
X191427364Y-71406810D01*
X191418588Y-71400814D01*
X191250000Y-71366674D01*
X189250000Y-71366674D01*
X189092504Y-71396309D01*
X188947854Y-71489389D01*
X188850814Y-71631412D01*
X188816674Y-71800000D01*
X188816674Y-72275000D01*
X185358013Y-72275000D01*
X185383326Y-72150000D01*
X185383326Y-72017714D01*
X187148412Y-70252628D01*
X187300000Y-70283326D01*
X187800000Y-70283326D01*
X187957496Y-70253691D01*
X188102146Y-70160611D01*
X188199186Y-70018588D01*
X188233326Y-69850000D01*
X188233326Y-68950000D01*
X188224909Y-68905265D01*
X188225020Y-68778267D01*
X188250000Y-68783326D01*
X188400426Y-68783326D01*
X188366674Y-68950000D01*
X188366674Y-69850000D01*
X188396309Y-70007496D01*
X188489389Y-70152146D01*
X188631412Y-70249186D01*
X188800000Y-70283326D01*
X189300000Y-70283326D01*
X189457496Y-70253691D01*
X189602146Y-70160611D01*
X189699186Y-70018588D01*
X189733326Y-69850000D01*
X189733326Y-68950000D01*
X189703691Y-68792504D01*
X189610611Y-68647854D01*
X189600000Y-68640604D01*
X189600000Y-68450005D01*
X189600001Y-68450000D01*
X189581703Y-68358013D01*
X189583326Y-68350000D01*
X189583326Y-67850000D01*
X189553691Y-67692504D01*
X189460611Y-67547854D01*
X189318588Y-67450814D01*
X189150000Y-67416674D01*
X188250000Y-67416674D01*
X188092504Y-67446309D01*
X187947854Y-67539389D01*
X187850814Y-67681412D01*
X187816674Y-67850000D01*
X187816674Y-68146476D01*
X187644844Y-68075126D01*
X187425000Y-68074934D01*
X187425000Y-66433326D01*
X187500000Y-66433326D01*
X187511094Y-66431238D01*
X187585016Y-66610143D01*
X187585016Y-66610143D01*
G37*
X187585016Y-66610143D02*
X187788784Y-66814267D01*
X187816674Y-66825848D01*
X187816674Y-66850000D01*
X187846309Y-67007496D01*
X187939389Y-67152146D01*
X188081412Y-67249186D01*
X188250000Y-67283326D01*
X189150000Y-67283326D01*
X189307496Y-67253691D01*
X189452146Y-67160611D01*
X189549186Y-67018588D01*
X189583326Y-66850000D01*
X189583326Y-66809699D01*
X189700000Y-66833326D01*
X191300000Y-66833326D01*
X191457496Y-66803691D01*
X191478832Y-66789962D01*
X191466674Y-66850000D01*
X191466674Y-69350000D01*
X191496309Y-69507496D01*
X191575000Y-69629785D01*
X191575000Y-69921921D01*
X191547854Y-69939389D01*
X191450814Y-70081412D01*
X191416674Y-70250000D01*
X191416674Y-71350000D01*
X191427364Y-71406810D01*
X191418588Y-71400814D01*
X191250000Y-71366674D01*
X189250000Y-71366674D01*
X189092504Y-71396309D01*
X188947854Y-71489389D01*
X188850814Y-71631412D01*
X188816674Y-71800000D01*
X188816674Y-72275000D01*
X185358013Y-72275000D01*
X185383326Y-72150000D01*
X185383326Y-72017714D01*
X187148412Y-70252628D01*
X187300000Y-70283326D01*
X187800000Y-70283326D01*
X187957496Y-70253691D01*
X188102146Y-70160611D01*
X188199186Y-70018588D01*
X188233326Y-69850000D01*
X188233326Y-68950000D01*
X188224909Y-68905265D01*
X188225020Y-68778267D01*
X188250000Y-68783326D01*
X188400426Y-68783326D01*
X188366674Y-68950000D01*
X188366674Y-69850000D01*
X188396309Y-70007496D01*
X188489389Y-70152146D01*
X188631412Y-70249186D01*
X188800000Y-70283326D01*
X189300000Y-70283326D01*
X189457496Y-70253691D01*
X189602146Y-70160611D01*
X189699186Y-70018588D01*
X189733326Y-69850000D01*
X189733326Y-68950000D01*
X189703691Y-68792504D01*
X189610611Y-68647854D01*
X189600000Y-68640604D01*
X189600000Y-68450005D01*
X189600001Y-68450000D01*
X189581703Y-68358013D01*
X189583326Y-68350000D01*
X189583326Y-67850000D01*
X189553691Y-67692504D01*
X189460611Y-67547854D01*
X189318588Y-67450814D01*
X189150000Y-67416674D01*
X188250000Y-67416674D01*
X188092504Y-67446309D01*
X187947854Y-67539389D01*
X187850814Y-67681412D01*
X187816674Y-67850000D01*
X187816674Y-68146476D01*
X187644844Y-68075126D01*
X187425000Y-68074934D01*
X187425000Y-66433326D01*
X187500000Y-66433326D01*
X187511094Y-66431238D01*
X187585016Y-66610143D01*
G36*
X151714389Y-69852146D02*
X151856412Y-69949186D01*
X152025000Y-69983326D01*
X152455508Y-69983326D01*
X152866674Y-70394491D01*
X152866674Y-70575000D01*
X152896309Y-70732496D01*
X152989389Y-70877146D01*
X153096937Y-70950630D01*
X152997854Y-71014389D01*
X152900814Y-71156412D01*
X152876786Y-71275067D01*
X152656419Y-71274874D01*
X152617300Y-71291038D01*
X152573906Y-71226094D01*
X152323904Y-70976092D01*
X152145471Y-70856867D01*
X151934995Y-70815001D01*
X150750000Y-70815001D01*
X150750000Y-69983326D01*
X151375000Y-69983326D01*
X151532496Y-69953691D01*
X151677146Y-69860611D01*
X151699131Y-69828435D01*
X151714389Y-69852146D01*
X151714389Y-69852146D01*
G37*
X151714389Y-69852146D02*
X151856412Y-69949186D01*
X152025000Y-69983326D01*
X152455508Y-69983326D01*
X152866674Y-70394491D01*
X152866674Y-70575000D01*
X152896309Y-70732496D01*
X152989389Y-70877146D01*
X153096937Y-70950630D01*
X152997854Y-71014389D01*
X152900814Y-71156412D01*
X152876786Y-71275067D01*
X152656419Y-71274874D01*
X152617300Y-71291038D01*
X152573906Y-71226094D01*
X152323904Y-70976092D01*
X152145471Y-70856867D01*
X151934995Y-70815001D01*
X150750000Y-70815001D01*
X150750000Y-69983326D01*
X151375000Y-69983326D01*
X151532496Y-69953691D01*
X151677146Y-69860611D01*
X151699131Y-69828435D01*
X151714389Y-69852146D01*
G36*
X164175126Y-66955156D02*
X164174934Y-67174978D01*
X164056421Y-67174874D01*
X163789857Y-67285016D01*
X163585733Y-67488784D01*
X163475126Y-67755156D01*
X163474874Y-68043579D01*
X163585016Y-68310143D01*
X163788784Y-68514267D01*
X164055156Y-68624874D01*
X164343579Y-68625126D01*
X164610143Y-68514984D01*
X164814267Y-68311216D01*
X164924874Y-68044844D01*
X164925066Y-67825022D01*
X165043579Y-67825126D01*
X165214020Y-67754701D01*
X165353659Y-67848005D01*
X165564135Y-67889872D01*
X165564140Y-67889871D01*
X167332311Y-67889871D01*
X166057181Y-69165001D01*
X165067997Y-69165001D01*
X164857521Y-69206867D01*
X164679088Y-69326092D01*
X164596090Y-69409090D01*
X164476865Y-69587523D01*
X164464443Y-69649975D01*
X164300000Y-69616674D01*
X163800000Y-69616674D01*
X163642504Y-69646309D01*
X163497854Y-69739389D01*
X163400814Y-69881412D01*
X163394846Y-69910881D01*
X163300000Y-69891674D01*
X162869491Y-69891674D01*
X162456348Y-69478531D01*
X162610143Y-69414984D01*
X162814267Y-69211216D01*
X162924874Y-68944844D01*
X162925126Y-68656421D01*
X162814984Y-68389857D01*
X162611216Y-68185733D01*
X162385451Y-68091987D01*
X162588479Y-67889313D01*
X162649689Y-67741903D01*
X162759177Y-67741999D01*
X163025741Y-67631857D01*
X163229865Y-67428089D01*
X163340472Y-67161717D01*
X163340724Y-66873294D01*
X163331099Y-66850000D01*
X164218790Y-66850000D01*
X164175126Y-66955156D01*
X164175126Y-66955156D01*
G37*
X164175126Y-66955156D02*
X164174934Y-67174978D01*
X164056421Y-67174874D01*
X163789857Y-67285016D01*
X163585733Y-67488784D01*
X163475126Y-67755156D01*
X163474874Y-68043579D01*
X163585016Y-68310143D01*
X163788784Y-68514267D01*
X164055156Y-68624874D01*
X164343579Y-68625126D01*
X164610143Y-68514984D01*
X164814267Y-68311216D01*
X164924874Y-68044844D01*
X164925066Y-67825022D01*
X165043579Y-67825126D01*
X165214020Y-67754701D01*
X165353659Y-67848005D01*
X165564135Y-67889872D01*
X165564140Y-67889871D01*
X167332311Y-67889871D01*
X166057181Y-69165001D01*
X165067997Y-69165001D01*
X164857521Y-69206867D01*
X164679088Y-69326092D01*
X164596090Y-69409090D01*
X164476865Y-69587523D01*
X164464443Y-69649975D01*
X164300000Y-69616674D01*
X163800000Y-69616674D01*
X163642504Y-69646309D01*
X163497854Y-69739389D01*
X163400814Y-69881412D01*
X163394846Y-69910881D01*
X163300000Y-69891674D01*
X162869491Y-69891674D01*
X162456348Y-69478531D01*
X162610143Y-69414984D01*
X162814267Y-69211216D01*
X162924874Y-68944844D01*
X162925126Y-68656421D01*
X162814984Y-68389857D01*
X162611216Y-68185733D01*
X162385451Y-68091987D01*
X162588479Y-67889313D01*
X162649689Y-67741903D01*
X162759177Y-67741999D01*
X163025741Y-67631857D01*
X163229865Y-67428089D01*
X163340472Y-67161717D01*
X163340724Y-66873294D01*
X163331099Y-66850000D01*
X164218790Y-66850000D01*
X164175126Y-66955156D01*
G36*
X172524873Y-69078684D02*
X172635015Y-69345248D01*
X172824435Y-69534999D01*
X172098004Y-69534999D01*
X172097999Y-69534998D01*
X171901851Y-69574015D01*
X171887523Y-69576865D01*
X171709090Y-69696090D01*
X171709088Y-69696093D01*
X171705181Y-69700000D01*
X170183326Y-69700000D01*
X170183326Y-69526947D01*
X170364267Y-69346322D01*
X170474874Y-69079950D01*
X170475071Y-68855010D01*
X172355192Y-68855010D01*
X172525098Y-68821214D01*
X172524873Y-69078684D01*
X172524873Y-69078684D01*
G37*
X172524873Y-69078684D02*
X172635015Y-69345248D01*
X172824435Y-69534999D01*
X172098004Y-69534999D01*
X172097999Y-69534998D01*
X171901851Y-69574015D01*
X171887523Y-69576865D01*
X171709090Y-69696090D01*
X171709088Y-69696093D01*
X171705181Y-69700000D01*
X170183326Y-69700000D01*
X170183326Y-69526947D01*
X170364267Y-69346322D01*
X170474874Y-69079950D01*
X170475071Y-68855010D01*
X172355192Y-68855010D01*
X172525098Y-68821214D01*
X172524873Y-69078684D01*
G36*
X181550000Y-66682384D02*
X181167383Y-67065001D01*
X179774797Y-67065001D01*
X179564321Y-67106867D01*
X179385888Y-67226092D01*
X178596979Y-68015001D01*
X177433326Y-68015001D01*
X177433326Y-67694492D01*
X178192819Y-66934999D01*
X180882003Y-66934999D01*
X181092479Y-66893133D01*
X181270912Y-66773908D01*
X181550000Y-66494820D01*
X181550000Y-66682384D01*
X181550000Y-66682384D01*
G37*
X181550000Y-66682384D02*
X181167383Y-67065001D01*
X179774797Y-67065001D01*
X179564321Y-67106867D01*
X179385888Y-67226092D01*
X178596979Y-68015001D01*
X177433326Y-68015001D01*
X177433326Y-67694492D01*
X178192819Y-66934999D01*
X180882003Y-66934999D01*
X181092479Y-66893133D01*
X181270912Y-66773908D01*
X181550000Y-66494820D01*
X181550000Y-66682384D01*
G36*
X161564069Y-66863113D02*
X161359945Y-67066881D01*
X161249338Y-67333253D01*
X161249086Y-67621676D01*
X161321234Y-67796287D01*
X161175000Y-67766674D01*
X160925000Y-67766674D01*
X160767504Y-67796309D01*
X160622854Y-67889389D01*
X160549370Y-67996937D01*
X160485611Y-67897854D01*
X160343588Y-67800814D01*
X160175000Y-67766674D01*
X159925000Y-67766674D01*
X159795411Y-67791058D01*
X159675000Y-67766674D01*
X159425000Y-67766674D01*
X159295411Y-67791058D01*
X159175000Y-67766674D01*
X158925000Y-67766674D01*
X158795411Y-67791058D01*
X158675000Y-67766674D01*
X158511144Y-67766674D01*
X158852817Y-67425001D01*
X159624999Y-67425001D01*
X159835475Y-67383135D01*
X160013908Y-67263910D01*
X160088906Y-67188911D01*
X160088909Y-67188909D01*
X160208134Y-67010476D01*
X160216005Y-66970906D01*
X160307496Y-66953691D01*
X160452146Y-66860611D01*
X160459396Y-66850000D01*
X161595805Y-66850000D01*
X161564069Y-66863113D01*
X161564069Y-66863113D01*
G37*
X161564069Y-66863113D02*
X161359945Y-67066881D01*
X161249338Y-67333253D01*
X161249086Y-67621676D01*
X161321234Y-67796287D01*
X161175000Y-67766674D01*
X160925000Y-67766674D01*
X160767504Y-67796309D01*
X160622854Y-67889389D01*
X160549370Y-67996937D01*
X160485611Y-67897854D01*
X160343588Y-67800814D01*
X160175000Y-67766674D01*
X159925000Y-67766674D01*
X159795411Y-67791058D01*
X159675000Y-67766674D01*
X159425000Y-67766674D01*
X159295411Y-67791058D01*
X159175000Y-67766674D01*
X158925000Y-67766674D01*
X158795411Y-67791058D01*
X158675000Y-67766674D01*
X158511144Y-67766674D01*
X158852817Y-67425001D01*
X159624999Y-67425001D01*
X159835475Y-67383135D01*
X160013908Y-67263910D01*
X160088906Y-67188911D01*
X160088909Y-67188909D01*
X160208134Y-67010476D01*
X160216005Y-66970906D01*
X160307496Y-66953691D01*
X160452146Y-66860611D01*
X160459396Y-66850000D01*
X161595805Y-66850000D01*
X161564069Y-66863113D01*
G36*
X170366674Y-66807897D02*
X170335733Y-66838784D01*
X170277324Y-66979448D01*
X170248838Y-66950962D01*
X170070405Y-66831737D01*
X169859929Y-66789871D01*
X168687809Y-66789871D01*
X168838909Y-66688909D01*
X169436881Y-66090936D01*
X170366674Y-66090936D01*
X170366674Y-66807897D01*
X170366674Y-66807897D01*
G37*
X170366674Y-66807897D02*
X170335733Y-66838784D01*
X170277324Y-66979448D01*
X170248838Y-66950962D01*
X170070405Y-66831737D01*
X169859929Y-66789871D01*
X168687809Y-66789871D01*
X168838909Y-66688909D01*
X169436881Y-66090936D01*
X170366674Y-66090936D01*
X170366674Y-66807897D01*
G36*
X195025000Y-64483326D02*
X195775000Y-64483326D01*
X195875000Y-64464510D01*
X195875000Y-66455195D01*
X195868588Y-66450814D01*
X195700000Y-66416674D01*
X195391979Y-66416674D01*
X194890135Y-65914831D01*
X194908326Y-65825000D01*
X194908326Y-65575000D01*
X194878691Y-65417504D01*
X194785611Y-65272854D01*
X194678063Y-65199370D01*
X194777146Y-65135611D01*
X194874186Y-64993588D01*
X194908326Y-64825000D01*
X194908326Y-64575000D01*
X194885771Y-64455131D01*
X195025000Y-64483326D01*
X195025000Y-64483326D01*
G37*
X195025000Y-64483326D02*
X195775000Y-64483326D01*
X195875000Y-64464510D01*
X195875000Y-66455195D01*
X195868588Y-66450814D01*
X195700000Y-66416674D01*
X195391979Y-66416674D01*
X194890135Y-65914831D01*
X194908326Y-65825000D01*
X194908326Y-65575000D01*
X194878691Y-65417504D01*
X194785611Y-65272854D01*
X194678063Y-65199370D01*
X194777146Y-65135611D01*
X194874186Y-64993588D01*
X194908326Y-64825000D01*
X194908326Y-64575000D01*
X194885771Y-64455131D01*
X195025000Y-64483326D01*
G36*
X154388784Y-64414267D02*
X154532109Y-64473781D01*
X154516674Y-64550000D01*
X154516674Y-65050000D01*
X154546309Y-65207496D01*
X154639389Y-65352146D01*
X154781412Y-65449186D01*
X154950000Y-65483326D01*
X155850000Y-65483326D01*
X156007496Y-65453691D01*
X156048958Y-65427011D01*
X156081412Y-65449186D01*
X156250000Y-65483326D01*
X156925001Y-65483326D01*
X156925001Y-65497181D01*
X156805508Y-65616674D01*
X156250000Y-65616674D01*
X156092504Y-65646309D01*
X156051042Y-65672989D01*
X156018588Y-65650814D01*
X155850000Y-65616674D01*
X154950000Y-65616674D01*
X154792504Y-65646309D01*
X154750899Y-65673081D01*
X154034999Y-64957181D01*
X154034999Y-64484617D01*
X154169615Y-64350000D01*
X154324629Y-64350000D01*
X154388784Y-64414267D01*
X154388784Y-64414267D01*
G37*
X154388784Y-64414267D02*
X154532109Y-64473781D01*
X154516674Y-64550000D01*
X154516674Y-65050000D01*
X154546309Y-65207496D01*
X154639389Y-65352146D01*
X154781412Y-65449186D01*
X154950000Y-65483326D01*
X155850000Y-65483326D01*
X156007496Y-65453691D01*
X156048958Y-65427011D01*
X156081412Y-65449186D01*
X156250000Y-65483326D01*
X156925001Y-65483326D01*
X156925001Y-65497181D01*
X156805508Y-65616674D01*
X156250000Y-65616674D01*
X156092504Y-65646309D01*
X156051042Y-65672989D01*
X156018588Y-65650814D01*
X155850000Y-65616674D01*
X154950000Y-65616674D01*
X154792504Y-65646309D01*
X154750899Y-65673081D01*
X154034999Y-64957181D01*
X154034999Y-64484617D01*
X154169615Y-64350000D01*
X154324629Y-64350000D01*
X154388784Y-64414267D01*
G36*
X188355156Y-63724874D02*
X188471906Y-63724976D01*
X188489389Y-63752146D01*
X188631412Y-63849186D01*
X188800000Y-63883326D01*
X189284999Y-63883326D01*
X189284999Y-64927001D01*
X189300764Y-65006258D01*
X189191853Y-64897347D01*
X188956647Y-64740186D01*
X188898856Y-64728691D01*
X188679201Y-64684999D01*
X187933326Y-64684999D01*
X187933326Y-63833400D01*
X188083363Y-63683363D01*
X188120682Y-63627512D01*
X188355156Y-63724874D01*
X188355156Y-63724874D01*
G37*
X188355156Y-63724874D02*
X188471906Y-63724976D01*
X188489389Y-63752146D01*
X188631412Y-63849186D01*
X188800000Y-63883326D01*
X189284999Y-63883326D01*
X189284999Y-64927001D01*
X189300764Y-65006258D01*
X189191853Y-64897347D01*
X188956647Y-64740186D01*
X188898856Y-64728691D01*
X188679201Y-64684999D01*
X187933326Y-64684999D01*
X187933326Y-63833400D01*
X188083363Y-63683363D01*
X188120682Y-63627512D01*
X188355156Y-63724874D01*
G36*
X145402007Y-60925090D02*
X145440116Y-61116674D01*
X145300000Y-61116674D01*
X145265700Y-61123128D01*
X145264753Y-61122181D01*
X145264753Y-61013064D01*
X145352770Y-60925047D01*
X145402007Y-60925090D01*
X145402007Y-60925090D01*
G37*
X145402007Y-60925090D02*
X145440116Y-61116674D01*
X145300000Y-61116674D01*
X145265700Y-61123128D01*
X145264753Y-61122181D01*
X145264753Y-61013064D01*
X145352770Y-60925047D01*
X145402007Y-60925090D01*
G36*
X141800000Y-60925088D02*
X141800000Y-60964998D01*
X141830170Y-61116674D01*
X141655805Y-61116674D01*
X141655805Y-60977815D01*
X141708611Y-60925008D01*
X141800000Y-60925088D01*
X141800000Y-60925088D01*
G37*
X141800000Y-60925088D02*
X141800000Y-60964998D01*
X141830170Y-61116674D01*
X141655805Y-61116674D01*
X141655805Y-60977815D01*
X141708611Y-60925008D01*
X141800000Y-60925088D01*
G36*
X163402007Y-58625090D02*
X163440116Y-58816674D01*
X163300000Y-58816674D01*
X163265699Y-58823128D01*
X163264753Y-58822182D01*
X163264753Y-58713064D01*
X163352770Y-58625047D01*
X163402007Y-58625090D01*
X163402007Y-58625090D01*
G37*
X163402007Y-58625090D02*
X163440116Y-58816674D01*
X163300000Y-58816674D01*
X163265699Y-58823128D01*
X163264753Y-58822182D01*
X163264753Y-58713064D01*
X163352770Y-58625047D01*
X163402007Y-58625090D01*
G36*
X181402007Y-58625090D02*
X181440116Y-58816674D01*
X181300000Y-58816674D01*
X181265699Y-58823128D01*
X181264753Y-58822182D01*
X181264753Y-58713064D01*
X181352770Y-58625047D01*
X181402007Y-58625090D01*
X181402007Y-58625090D01*
G37*
X181402007Y-58625090D02*
X181440116Y-58816674D01*
X181300000Y-58816674D01*
X181265699Y-58823128D01*
X181264753Y-58822182D01*
X181264753Y-58713064D01*
X181352770Y-58625047D01*
X181402007Y-58625090D01*
G36*
X177802007Y-58625090D02*
X177840116Y-58816674D01*
X177700000Y-58816674D01*
X177665700Y-58823128D01*
X177664753Y-58822181D01*
X177664753Y-58713064D01*
X177752770Y-58625047D01*
X177802007Y-58625090D01*
X177802007Y-58625090D01*
G37*
X177802007Y-58625090D02*
X177840116Y-58816674D01*
X177700000Y-58816674D01*
X177665700Y-58823128D01*
X177664753Y-58822181D01*
X177664753Y-58713064D01*
X177752770Y-58625047D01*
X177802007Y-58625090D01*
G36*
X167002007Y-58625090D02*
X167040116Y-58816674D01*
X166900000Y-58816674D01*
X166865699Y-58823128D01*
X166864753Y-58822182D01*
X166864753Y-58713064D01*
X166952770Y-58625047D01*
X167002007Y-58625090D01*
X167002007Y-58625090D01*
G37*
X167002007Y-58625090D02*
X167040116Y-58816674D01*
X166900000Y-58816674D01*
X166865699Y-58823128D01*
X166864753Y-58822182D01*
X166864753Y-58713064D01*
X166952770Y-58625047D01*
X167002007Y-58625090D01*
G36*
X152602007Y-58625090D02*
X152640116Y-58816674D01*
X152500000Y-58816674D01*
X152465700Y-58823128D01*
X152464753Y-58822181D01*
X152464753Y-58713064D01*
X152552770Y-58625047D01*
X152602007Y-58625090D01*
X152602007Y-58625090D01*
G37*
X152602007Y-58625090D02*
X152640116Y-58816674D01*
X152500000Y-58816674D01*
X152465700Y-58823128D01*
X152464753Y-58822181D01*
X152464753Y-58713064D01*
X152552770Y-58625047D01*
X152602007Y-58625090D01*
G36*
X174202007Y-58625090D02*
X174240116Y-58816674D01*
X174100000Y-58816674D01*
X174065700Y-58823128D01*
X174064753Y-58822181D01*
X174064753Y-58713064D01*
X174152770Y-58625047D01*
X174202007Y-58625090D01*
X174202007Y-58625090D01*
G37*
X174202007Y-58625090D02*
X174240116Y-58816674D01*
X174100000Y-58816674D01*
X174065700Y-58823128D01*
X174064753Y-58822181D01*
X174064753Y-58713064D01*
X174152770Y-58625047D01*
X174202007Y-58625090D01*
G36*
X159802007Y-58625090D02*
X159840116Y-58816674D01*
X159700000Y-58816674D01*
X159665699Y-58823128D01*
X159664753Y-58822182D01*
X159664753Y-58713064D01*
X159752770Y-58625047D01*
X159802007Y-58625090D01*
X159802007Y-58625090D01*
G37*
X159802007Y-58625090D02*
X159840116Y-58816674D01*
X159700000Y-58816674D01*
X159665699Y-58823128D01*
X159664753Y-58822182D01*
X159664753Y-58713064D01*
X159752770Y-58625047D01*
X159802007Y-58625090D01*
G36*
X156202007Y-58625090D02*
X156240116Y-58816674D01*
X156100000Y-58816674D01*
X156065700Y-58823128D01*
X156064753Y-58822181D01*
X156064753Y-58713065D01*
X156152771Y-58625047D01*
X156202007Y-58625090D01*
X156202007Y-58625090D01*
G37*
X156202007Y-58625090D02*
X156240116Y-58816674D01*
X156100000Y-58816674D01*
X156065700Y-58823128D01*
X156064753Y-58822181D01*
X156064753Y-58713065D01*
X156152771Y-58625047D01*
X156202007Y-58625090D01*
G36*
X170607863Y-58654530D02*
X170640116Y-58816674D01*
X170500000Y-58816674D01*
X170465700Y-58823128D01*
X170464753Y-58822181D01*
X170464753Y-58677815D01*
X170488142Y-58654425D01*
X170607863Y-58654530D01*
X170607863Y-58654530D01*
G37*
X170607863Y-58654530D02*
X170640116Y-58816674D01*
X170500000Y-58816674D01*
X170465700Y-58823128D01*
X170464753Y-58822181D01*
X170464753Y-58677815D01*
X170488142Y-58654425D01*
X170607863Y-58654530D01*
G36*
X148891674Y-56350000D02*
X148921309Y-56507496D01*
X149000000Y-56629785D01*
X149000000Y-58614998D01*
X149040116Y-58816674D01*
X148900000Y-58816674D01*
X148866463Y-58822985D01*
X148866699Y-58552473D01*
X148756557Y-58285909D01*
X148552789Y-58081785D01*
X148515896Y-58066466D01*
X148524874Y-58044844D01*
X148525126Y-57756421D01*
X148414984Y-57489857D01*
X148211216Y-57285733D01*
X147944844Y-57175126D01*
X147795890Y-57174996D01*
X148891674Y-56079212D01*
X148891674Y-56350000D01*
X148891674Y-56350000D01*
G37*
X148891674Y-56350000D02*
X148921309Y-56507496D01*
X149000000Y-56629785D01*
X149000000Y-58614998D01*
X149040116Y-58816674D01*
X148900000Y-58816674D01*
X148866463Y-58822985D01*
X148866699Y-58552473D01*
X148756557Y-58285909D01*
X148552789Y-58081785D01*
X148515896Y-58066466D01*
X148524874Y-58044844D01*
X148525126Y-57756421D01*
X148414984Y-57489857D01*
X148211216Y-57285733D01*
X147944844Y-57175126D01*
X147795890Y-57174996D01*
X148891674Y-56079212D01*
X148891674Y-56350000D01*
G36*
X193666674Y-56250001D02*
X192964997Y-56250001D01*
X192809922Y-56280847D01*
X192824872Y-56244844D01*
X192825124Y-55956421D01*
X192729503Y-55725000D01*
X193666674Y-55725000D01*
X193666674Y-56250001D01*
X193666674Y-56250001D01*
G37*
X193666674Y-56250001D02*
X192964997Y-56250001D01*
X192809922Y-56280847D01*
X192824872Y-56244844D01*
X192825124Y-55956421D01*
X192729503Y-55725000D01*
X193666674Y-55725000D01*
X193666674Y-56250001D01*
D60*
G36*
X184564635Y-66000000D02*
X184594409Y-66158237D01*
X184687927Y-66303567D01*
X184830619Y-66401064D01*
X185000000Y-66435365D01*
X186873000Y-66435365D01*
X186873000Y-68414235D01*
X186773126Y-68654756D01*
X186772874Y-68943975D01*
X186864635Y-69166054D01*
X186864635Y-69755759D01*
X184647394Y-71973000D01*
X180027000Y-71973000D01*
X180027000Y-70552606D01*
X180058472Y-70521134D01*
X180311275Y-70416678D01*
X180515961Y-70212348D01*
X180621555Y-69958051D01*
X182989803Y-67589803D01*
X183017666Y-67547789D01*
X183027000Y-67500000D01*
X183027000Y-66063848D01*
X183263848Y-65827000D01*
X184564635Y-65827000D01*
X184564635Y-66000000D01*
X184564635Y-66000000D01*
G37*
X184564635Y-66000000D02*
X184594409Y-66158237D01*
X184687927Y-66303567D01*
X184830619Y-66401064D01*
X185000000Y-66435365D01*
X186873000Y-66435365D01*
X186873000Y-68414235D01*
X186773126Y-68654756D01*
X186772874Y-68943975D01*
X186864635Y-69166054D01*
X186864635Y-69755759D01*
X184647394Y-71973000D01*
X180027000Y-71973000D01*
X180027000Y-70552606D01*
X180058472Y-70521134D01*
X180311275Y-70416678D01*
X180515961Y-70212348D01*
X180621555Y-69958051D01*
X182989803Y-67589803D01*
X183017666Y-67547789D01*
X183027000Y-67500000D01*
X183027000Y-66063848D01*
X183263848Y-65827000D01*
X184564635Y-65827000D01*
X184564635Y-66000000D01*
M02*
